<?xml version="1.0" encoding="UTF-8" standalone="no"?>
<svg
   version="1.1"
   id="svg4434"
   sodipodi:docname="system.svg"
   width="600"
   height="128.88901"
   inkscape:version="1.2.1 (9c6d41e410, 2022-07-14, custom)"
   xmlns:inkscape="http://www.inkscape.org/namespaces/inkscape"
   xmlns:sodipodi="http://sodipodi.sourceforge.net/DTD/sodipodi-0.dtd"
   xmlns="http://www.w3.org/2000/svg"
   xmlns:svg="http://www.w3.org/2000/svg">
  <defs
     id="defs4438" />
  <sodipodi:namedview
     id="namedview4436"
     pagecolor="#bfbfbf"
     bordercolor="#666666"
     borderopacity="1.0"
     inkscape:showpageshadow="2"
     inkscape:pageopacity="0"
     inkscape:pagecheckerboard="true"
     inkscape:deskcolor="#d1d1d1"
     showgrid="false"
     inkscape:zoom="0.75896128"
     inkscape:cx="-93.548909"
     inkscape:cy="205.54408"
     inkscape:window-width="1920"
     inkscape:window-height="1023"
     inkscape:window-x="1366"
     inkscape:window-y="29"
     inkscape:window-maximized="1"
     inkscape:current-layer="svg4434" />
  <g
     id="g4432">
    <polygon
       points="21.021,127.449 10.509,127.449 10.509,8.745 0,8.745 0,0 29.718,0 29.718,8.745 21.021,8.745 "
       id="polygon5"
       style="fill:#ffffff;fill-opacity:1" />
    <path
       d="M 56.64,118.761 H 68.241 V 35.595 h 10.146 v 83.166 c 0,5.385 -4.89,9.195 -9.906,9.195 H 56.64 c -5.298,0 -10.026,-4.311 -10.026,-9.303 V 35.595 H 56.64 Z"
       id="path7"
       style="fill:#ffffff;fill-opacity:1" />
    <path
       d="m 274.824,55.908 h 15.495 v 72.132 h -21.837 c -4.668,0 -10.419,-3.576 -10.419,-8.997 V 10.008 c 0,-4.581 4.8,-9.459 10.191,-9.459 h 11.916 c 5.286,0 10.08,4.836 10.08,9.354 v 25.83 H 279.807 V 10.263 H 267.939 V 119.124 H 280.08 V 64.737 h -5.256 z"
       id="path9"
       style="fill:#ffffff;fill-opacity:1" />
    <path
       d="m 424.662,83.772 v 43.719 h -9.783 V 43.758 c 0,-3.783 3.762,-7.905 8.517,-7.905 h 16.128 v 8.07 h -14.862 v 30.939 h 12.237 v 8.949 z"
       id="path11"
       style="fill:#ffffff;fill-opacity:1" />
    <path
       d="m 459.366,35.877 h 10.269 v 33.351 l 5.799,5.829 5.676,-5.667 V 35.877 h 10.146 v 31.731 c 0,3.873 -10.023,14.082 -10.023,14.082 0,0 10.146,10.203 10.146,14.337 v 31.65 h -9.546 V 94.725 l -6.159,-6.231 -6.162,6.15 v 33.033 H 459.366 V 96.102 c 0,-3.882 10.746,-14.493 10.746,-14.493 0,0 -10.746,-10.092 -10.746,-14.16 z"
       id="path13"
       style="fill:#ffffff;fill-opacity:1" />
    <path
       d="m 122.361,83.979 c 3.441,0 8.019,-4.116 8.019,-9.624 V 44.259 c 0,-4.329 -4.938,-8.361 -10.557,-8.361 H 98.985 v 91.962 h 9.606 V 84.654 h 3.624 l 10.689,43.044 h 9.423 z m -1.902,-8.994 H 108.951 V 44.808 h 11.508 z"
       id="path15"
       style="fill:#ffffff;fill-opacity:1" />
    <path
       d="m 334.917,83.739 c 3.444,0 8.025,-4.122 8.025,-9.627 V 44.016 c 0,-4.329 -4.944,-8.367 -10.557,-8.367 h -20.838 v 91.971 h 9.597 V 84.408 h 3.627 l 10.695,43.041 h 9.42 z m -2.04,-9.096 H 321.378 V 44.466 h 11.499 z"
       id="path17"
       style="fill:#ffffff;fill-opacity:1" />
    <path
       d="m 181.728,86.145 c -0.042,-4.122 -4.344,-6.726 -4.344,-6.726 0,0 4.344,-2.814 4.344,-6.726 V 44.619 c 0,-5.298 -4.665,-8.745 -9.42,-8.745 h -21.927 v 91.803 h 21.927 c 4.44,0 9.42,-2.772 9.42,-8.742 0,0 0.051,-28.674 0,-32.79 z m -9.873,32.538 H 160.35 V 84.465 h 11.505 z m 0,-43.719 H 160.35 V 44.787 h 11.505 z"
       id="path19"
       style="fill:#ffffff;fill-opacity:1" />
    <path
       d="m 223.725,35.196 h -5.799 -5.619 c -5.754,0 -9.942,4.917 -9.942,8.658 v 74.559 c 0,4.818 5.367,9.189 9.897,9.189 h 12.414 c 4.848,0 9.693,-5.004 9.693,-8.997 V 43.602 c 0,-3.36 -4.575,-8.406 -10.644,-8.406 z m 0.36,82.929 H 212.97 V 44.277 h 11.115 z"
       id="path21"
       style="fill:#ffffff;fill-opacity:1" />
    <path
       d="m 384.909,35.853 h -12.678 c -5.712,0 -9.063,4.707 -9.063,8.406 v 83.232 h 9.603 V 83.772 h 12.138 v 43.719 h 9.606 V 44.763 c -0.003,-5.49 -3.801,-8.91 -9.606,-8.91 z m -0.276,38.841 H 373.134 V 45.102 h 11.499 z"
       id="path23"
       style="fill:#ffffff;fill-opacity:1" />
    <rect
       x="549.17401"
       y="84.606003"
       width="29.733"
       height="11.091"
       id="rect29"
       style="fill:#ffffff;fill-opacity:1" />
    <path
       d="m 552.843,34.578 c -26.043,0 -47.148,21.111 -47.148,47.154 0,26.043 21.105,47.157 47.148,47.157 26.04,0 47.157,-21.114 47.157,-47.157 0,-26.043 -21.114,-47.154 -47.157,-47.154 z m -16.047,66.528 h -14.952 v -5.238 h 4.821 V 68.196 h -4.731 v -5.409 h 10.137 v 32.994 h 4.725 z m 47.265,-28.269 h -4.806 v -4.812 h -30.342 v 11.514 h 32.403 l 2.745,2.754 v 15.213 l -3.435,3.435 h -33.171 l -3.438,-3.435 V 66.138 l 3.186,-3.183 h 33.942 l 2.916,2.922 z"
       id="path31"
       style="fill:#ffffff;fill-opacity:1" />
  </g>
</svg>
