<?xml version="1.0" encoding="UTF-8" standalone="no"?>
<!-- Created with Inkscape (http://www.inkscape.org/) -->

<svg
   version="1.1"
   id="svg4382"
   width="256"
   height="256"
   viewBox="0 0 256 256"
   xmlns="http://www.w3.org/2000/svg"
   xmlns:svg="http://www.w3.org/2000/svg">
  <defs
     id="defs4386" />
  <g
     id="g4388"
     transform="translate(-231.58819,-719.03564)">
    <path
       style="display:inline;fill:#888888;fill-opacity:1;stroke:none;stroke-width:0.202442"
       d="m 361.40139,975.02258 c -5.67853,0.0373 -11.69108,-0.008 -13.36124,-0.10059 -1.67015,-0.0926 -4.26648,-0.27123 -5.76962,-0.39696 -1.50314,-0.12572 -3.91728,-0.36546 -5.36474,-0.53272 -1.44747,-0.16728 -3.99825,-0.53101 -5.66841,-0.80831 -1.67015,-0.27729 -4.11341,-0.77368 -5.42946,-1.10308 -1.31604,-0.32938 -3.06516,-0.8788 -3.88692,-1.22088 -0.82177,-0.34211 -1.84761,-0.87808 -2.27965,-1.19106 -0.43205,-0.31296 -0.90071,-0.84708 -1.04147,-1.18691 -0.22089,-0.53329 -0.20481,-0.70464 0.11749,-1.25152 0.20539,-0.3485 0.78338,-0.88397 1.28443,-1.18994 0.50104,-0.30594 1.50626,-0.79278 2.23381,-1.08184 0.72755,-0.28904 2.45843,-0.8026 3.84641,-1.1412 1.38798,-0.33861 3.3435,-0.75479 4.34559,-0.92482 1.00209,-0.17004 2.46067,-0.39888 3.24128,-0.50852 0.78061,-0.10964 2.60259,-0.33719 4.04886,-0.50568 1.44626,-0.16847 4.5882,-0.44608 6.98209,-0.61692 2.39389,-0.17084 7.4499,-0.36698 11.23559,-0.43585 4.13885,-0.0753 9.06228,-0.0318 12.34902,0.10901 3.00628,0.12885 7.0602,0.37035 9.00871,0.5367 1.94852,0.16633 4.63595,0.44007 5.97207,0.6083 1.33613,0.16822 3.75026,0.53321 5.36474,0.81107 1.61448,0.27787 3.84642,0.74266 4.95985,1.03284 1.11344,0.29022 2.68623,0.7882 3.49509,1.10666 0.80886,0.31844 1.82157,0.81123 2.25046,1.09506 0.4289,0.28382 0.93996,0.81343 1.1357,1.1769 0.33481,0.62171 0.33575,0.69978 0.0159,1.31839 -0.18702,0.36166 -0.76382,0.92631 -1.28179,1.2548 -0.51797,0.32849 -1.62891,0.86089 -2.46876,1.18313 -0.83985,0.32221 -2.49289,0.82186 -3.67341,1.11031 -1.18053,0.28844 -3.23026,0.70976 -4.55497,0.93626 -1.32471,0.22649 -3.86615,0.59136 -5.64765,0.81082 -1.7815,0.21946 -5.01552,0.54295 -7.18673,0.71888 -2.69018,0.21801 -7.23635,0.34148 -14.27223,0.38767 z"
       id="path4432" />
    <ellipse
       style="display:inline;fill:#cccccc;fill-opacity:1;stroke:none;stroke-width:0.303665;paint-order:stroke fill markers;stop-color:#000000"
       id="path4497"
       cx="359.66672"
       cy="899.87939"
       rx="34.802376"
       ry="34.927574" />
    <path
       style="display:inline;fill:#888888;fill-opacity:1;stroke:none;stroke-width:0.202442"
       d="m 360.38917,860.43674 c -1.44746,0.0443 -2.81395,0.0471 -3.03664,0.006 -0.22269,-0.0408 -1.54363,-0.17822 -2.93542,-0.30533 -1.3918,-0.12711 -4.44363,-0.45293 -6.78185,-0.72405 -2.33821,-0.27111 -5.52669,-0.68077 -7.0855,-0.91035 -1.55881,-0.22958 -4.18834,-0.68918 -5.84339,-1.02132 -1.65505,-0.33214 -3.75034,-0.83738 -4.65619,-1.12274 -0.90585,-0.28537 -1.97206,-0.68394 -2.36936,-0.88572 -0.3973,-0.20178 -1.05457,-0.73459 -1.46062,-1.18403 -0.40604,-0.44944 -0.97929,-1.29282 -1.27388,-1.87417 -0.29459,-0.58136 -0.88124,-2.11054 -1.30366,-3.39819 -0.42242,-1.28766 -1.00069,-3.47993 -1.28504,-4.87173 -0.28435,-1.39179 -0.69948,-3.80593 -0.92252,-5.36474 -0.22304,-1.55881 -0.49671,-3.74519 -0.60815,-4.85863 -0.13516,-1.35039 -0.1352,-2.69846 -1.1e-4,-4.04886 0.11138,-1.11343 0.38505,-3.29982 0.60815,-4.85863 0.2231,-1.55881 0.63828,-3.97294 0.92263,-5.36474 0.28435,-1.3918 0.86944,-3.60485 1.3002,-4.91789 0.43076,-1.31304 1.0759,-2.93652 1.43365,-3.60772 0.35775,-0.67121 1.05363,-1.57527 1.54642,-2.00903 0.49278,-0.43377 1.41041,-0.98117 2.03918,-1.21645 0.62877,-0.23528 2.19085,-0.68833 3.47131,-1.00678 1.28045,-0.31844 4.01343,-0.85745 6.07329,-1.19781 2.05985,-0.34034 5.20278,-0.79906 6.98428,-1.01936 1.7815,-0.22031 4.96997,-0.58066 7.0855,-0.8008 2.11553,-0.22013 4.75741,-0.46039 5.87085,-0.5339 1.44807,-0.0956 3.29244,-0.009 6.47818,0.30388 2.44956,0.24064 5.95688,0.61838 7.79405,0.83942 1.83717,0.22104 4.84345,0.62911 6.68062,0.90682 1.83717,0.27771 4.47905,0.73895 5.87085,1.02498 1.39179,0.28602 3.25933,0.74931 4.15008,1.02952 0.89075,0.2802 1.89284,0.64596 2.22687,0.81277 0.33403,0.16682 0.91043,0.58919 1.28089,0.93859 0.37045,0.3494 0.9774,1.18187 1.34877,1.84993 0.37136,0.66806 0.94537,1.989 1.27556,2.93543 0.33019,0.94642 0.79136,2.49511 1.02482,3.44153 0.23347,0.94642 0.65046,2.95743 0.92666,4.4689 0.2762,1.51148 0.68828,4.38267 0.91574,6.38043 l 0.41355,3.63229 -0.40437,3.53928 c -0.2224,1.9466 -0.63499,4.83826 -0.91685,6.4259 -0.28187,1.58765 -0.73133,3.72891 -0.99881,4.75837 -0.26747,1.02946 -0.72998,2.55456 -1.02778,3.38911 -0.2978,0.83455 -0.81774,2.04137 -1.15542,2.68183 -0.33768,0.64046 -0.99574,1.51638 -1.46236,1.94649 -0.46661,0.43011 -1.38758,0.98622 -2.04661,1.23581 -0.65902,0.24959 -2.20031,0.70813 -3.42509,1.01899 -1.22478,0.31086 -3.91221,0.84766 -5.97207,1.19288 -2.05986,0.34523 -5.20279,0.80771 -6.98428,1.02774 -1.7815,0.22002 -5.01553,0.58797 -7.18673,0.81766 -2.1712,0.22968 -5.13193,0.45384 -6.5794,0.49812 z"
       id="path4426" />
    <path
       style="display:inline;fill:#aaaaaa;fill-opacity:1;stroke:none;stroke-width:0.202442"
       d="m 359.57864,800.41773 c -0.11134,0 -9.28943,-9.08734 -20.39575,-20.19407 -11.10632,-11.10674 -20.19331,-20.33072 -20.19331,-20.49774 0,-0.16701 9.08733,-9.39065 20.19407,-20.49697 11.10673,-11.10632 20.28517,-20.19331 20.39651,-20.19331 0.11134,0 9.28943,9.08733 20.39575,20.19407 11.10632,11.10673 20.19331,20.33071 20.19331,20.49773 0,0.16702 -9.08733,9.39066 -20.19407,20.49698 -11.10673,11.10631 -20.28516,20.19331 -20.39651,20.19331 z"
       id="path4430" />
  </g>
</svg>
