<?xml version="1.0" encoding="UTF-8" standalone="no"?>
<!-- Created with Inkscape (http://www.inkscape.org/) -->

<svg
   version="1.1"
   id="svg4382"
   width="256"
   height="256"
   viewBox="0 0 256 256"
   sodipodi:docname="3do-icon.svg"
   inkscape:version="1.2.2 (b0a8486541, 2022-12-01)"
   xmlns:inkscape="http://www.inkscape.org/namespaces/inkscape"
   xmlns:sodipodi="http://sodipodi.sourceforge.net/DTD/sodipodi-0.dtd"
   xmlns="http://www.w3.org/2000/svg"
   xmlns:svg="http://www.w3.org/2000/svg">
  <defs
     id="defs4386" />
  <sodipodi:namedview
     id="namedview4384"
     pagecolor="#ffffff"
     bordercolor="#666666"
     borderopacity="1.0"
     inkscape:showpageshadow="2"
     inkscape:pageopacity="0.0"
     inkscape:pagecheckerboard="true"
     inkscape:deskcolor="#d1d1d1"
     showgrid="false"
     showguides="true"
     inkscape:zoom="0.49763593"
     inkscape:cx="59.280285"
     inkscape:cy="-98.465558"
     inkscape:window-width="1776"
     inkscape:window-height="957"
     inkscape:window-x="0"
     inkscape:window-y="29"
     inkscape:window-maximized="1"
     inkscape:current-layer="g4388">
    <sodipodi:guide
       position="45.597378,10.000261"
       orientation="0,-1"
       id="guide4437"
       inkscape:locked="false" />
    <sodipodi:guide
       position="37.745128,-450.08086"
       orientation="0,-1"
       id="guide4439"
       inkscape:locked="false" />
    <sodipodi:guide
       position="-187.56241,-243.36532"
       orientation="1,0"
       id="guide4441"
       inkscape:locked="false" />
    <sodipodi:guide
       position="270.86955,-219.87951"
       orientation="1,0"
       id="guide4443"
       inkscape:locked="false" />
  </sodipodi:namedview>
  <g
     inkscape:groupmode="layer"
     inkscape:label="Image"
     id="g4388"
     transform="translate(-231.58819,-719.03564)">
    <g
       id="g4558"
       inkscape:label="icon"
       transform="matrix(0.15183225,0,0,0.15183225,318.17981,718.42831)">
      <path
         style="display:inline;fill:#898989;stroke-width:1.33333"
         d="m 284.66665,1689.9853 c -37.39999,0.2455 -76.99999,-0.053 -87.99999,-0.6625 -11,-0.6099 -28.1,-1.7864 -38,-2.6145 -9.9,-0.828 -25.8,-2.407 -35.33333,-3.5086 -9.53333,-1.1017 -26.333334,-3.4973 -37.333334,-5.3237 -10.999999,-1.8263 -27.091815,-5.0956 -35.759589,-7.2651 -8.667775,-2.1694 -20.187843,-5.788 -25.600151,-8.041 -5.412307,-2.2532 -12.168722,-5.7832 -15.0142527,-7.8446 -2.8455312,-2.0612 -5.9322333,-5.579 -6.8593381,-7.8172 -1.4548485,-3.5124 -1.3488946,-4.6409 0.7738448,-8.2428 1.3527194,-2.2953 5.1594896,-5.822 8.459489,-7.8372 3.3,-2.015 9.92056,-5.2214 14.712355,-7.1252 4.791794,-1.9037 16.191793,-5.2861 25.333332,-7.5162 9.141538,-2.2302 22.020977,-4.9712 28.620977,-6.0911 6.6,-1.1199 16.206489,-2.6271 21.347757,-3.3492 5.14126,-0.7221 17.14126,-2.2208 26.66666,-3.3305 9.52541,-1.1096 30.21891,-2.938 45.98558,-4.0632 15.76667,-1.1252 49.06666,-2.417 74,-2.8706 27.25938,-0.496 59.68617,-0.2097 81.33333,0.718 19.8,0.8486 46.49999,2.4392 59.33333,3.5348 12.83333,1.0955 30.53333,2.8984 39.33333,4.0064 8.8,1.1079 24.7,3.5118 35.33333,5.3419 10.63333,1.8301 25.33333,4.8913 32.66667,6.8025 7.33333,1.9114 17.69206,5.1912 23.01939,7.2887 5.32734,2.0973 11.99724,5.3429 14.82203,7.2123 2.82479,1.8693 6.19076,5.3574 7.47993,7.7513 2.20516,4.0947 2.21135,4.6089 0.1044,8.6832 -1.23174,2.382 -5.0307,6.1009 -8.44214,8.2644 -3.41143,2.1635 -10.72834,5.67 -16.25979,7.7923 -5.53145,2.1222 -16.4187,5.413 -24.19388,7.3128 -7.77518,1.8997 -21.27518,4.6746 -30,6.1664 -8.72482,1.4917 -25.4633,3.8948 -37.19663,5.3402 -11.73334,1.4454 -33.03334,3.576 -47.33334,4.7347 -17.71814,1.4359 -47.66022,2.2491 -93.99999,2.5533 z"
         id="path4432"
         sodipodi:nodetypes="scsssssssssssssssssssssssssssssssss"
         inkscape:label="shadow" />
      <ellipse
         style="display:inline;fill:#e1ca19;fill-opacity:1;stroke-width:2;paint-order:stroke fill markers;stop-color:#000000"
         id="path4497"
         cx="273.24176"
         cy="1195.0759"
         rx="229.21597"
         ry="230.04056"
         inkscape:label="yellow" />
      <path
         style="display:inline;fill:#01019f;stroke-width:1.33333"
         d="m 277.99999,935.2982 c -9.53333,0.29164 -18.53333,0.31029 -20,0.0415 -1.46667,-0.26886 -10.16667,-1.17379 -19.33333,-2.01098 -9.16667,-0.83718 -29.26667,-2.98312 -44.66667,-4.76873 -15.4,-1.78561 -36.4,-4.48372 -46.66666,-5.99579 -10.26667,-1.51208 -27.5853,-4.53905 -38.48584,-6.72661 -10.900544,-2.18756 -24.700543,-5.51515 -30.666665,-7.39463 -5.966121,-1.87948 -12.988422,-4.50456 -15.605113,-5.83352 -2.616689,-1.32896 -6.945665,-4.8382 -9.619946,-7.7983 -2.67428,-2.96011 -6.449808,-8.51476 -8.390063,-12.34367 C 42.62545,878.63853 38.761661,868.567 35.979505,860.08624 33.197349,851.60547 29.38876,837.16667 27.515975,828 25.64319,818.83333 22.90901,802.93333 21.440018,792.66667 19.971027,782.4 18.168601,768 17.434627,760.66667 16.54445,751.77267 16.544209,742.894 17.433903,734 c 0.733576,-7.33333 2.536003,-21.73333 4.005392,-32 1.469388,-10.26667 4.203895,-26.16667 6.07668,-35.33333 1.872785,-9.16667 5.726302,-23.7423 8.56337,-32.39027 2.837068,-8.64799 7.086112,-19.34055 9.44232,-23.76124 2.356208,-4.42071 6.939479,-10.37507 10.185047,-13.23193 3.245569,-2.85687 9.289291,-6.46216 13.430493,-8.01178 4.141203,-1.54961 14.429458,-4.53349 22.862791,-6.63084 8.433334,-2.09734 26.433334,-5.64741 39.999994,-7.88904 13.56667,-2.24161 34.26667,-5.26282 46,-6.71378 11.73334,-1.45096 32.73333,-3.82435 46.66667,-5.2742 13.93333,-1.44986 31.33333,-3.03223 38.66666,-3.51638 9.53727,-0.62965 21.68469,-0.0599 42.66667,2.00139 16.13333,1.58491 39.23333,4.07279 51.33333,5.52863 12.1,1.45582 31.9,4.14345 44,5.9725 12.1,1.82904 29.49999,4.86687 38.66666,6.75071 9.16667,1.88384 21.46667,4.93512 27.33333,6.78064 5.86667,1.84551 12.46667,4.25443 14.66667,5.35313 2.2,1.09872 5.99628,3.8805 8.43619,6.18172 2.43989,2.30124 6.43737,7.78407 8.88328,12.18407 2.4459,4.4 6.22641,13.1 8.40113,19.33333 2.17472,6.23334 5.21209,16.43334 6.74973,22.66667 1.53764,6.23333 4.28407,19.47827 6.10316,29.43317 1.81911,9.95492 4.53317,28.86522 6.03124,42.0229 l 2.72377,23.92304 -2.66329,23.31045 c -1.46481,12.82073 -4.18219,31.86581 -6.03861,42.32239 -1.85643,10.45657 -4.81668,24.55941 -6.57834,31.33965 -1.76165,6.78025 -4.80778,16.82488 -6.76916,22.3214 -1.96138,5.49652 -5.38583,13.44492 -7.60987,17.66312 -2.22406,4.21821 -6.55819,9.9872 -9.6314,12.82 -3.07322,2.83279 -9.13895,6.49547 -13.47942,8.13929 -4.34046,1.64383 -14.49174,4.66391 -22.55841,6.7113 -8.06667,2.04738 -25.76666,5.58284 -39.33333,7.85656 -13.56667,2.27373 -34.26667,5.31973 -46,6.76889 -11.73333,1.44916 -33.03333,3.87255 -47.33333,5.38529 -14.3,1.51276 -33.8,2.9891 -43.33333,3.28075 z"
         id="path4426"
         inkscape:label="blue" />
      <path
         style="display:inline;fill:#f90502;stroke-width:1.33333"
         d="M 272.66167,540 C 271.92832,540 211.47944,480.14888 138.33082,406.99751 65.182205,333.84615 5.3333331,273.09501 5.3333331,271.99501 5.3333331,270.895 65.184451,210.14612 138.33582,136.99749 211.48718,63.848875 271.93831,4 272.67164,4 c 0.73335,0 61.18223,59.85112 134.33085,133.00249 73.14861,73.15136 132.99749,133.9025 132.99749,135.0025 0,1.10001 -59.85112,61.84889 -133.00249,134.99752 C 333.84613,480.15112 273.395,540 272.66167,540 Z"
         id="path4430"
         inkscape:label="red" />
    </g>
  </g>
</svg>
