<?xml version="1.0" encoding="UTF-8" standalone="no"?>
<!-- Created with Inkscape (http://www.inkscape.org/) -->

<svg
   version="1.1"
   x="0"
   y="0"
   width="169.34167"
   height="256"
   viewBox="0 0 169.34168 256"
   id="svg54"
   sodipodi:docname="AO.svg"
   inkscape:version="1.2.2 (b0a8486541, 2022-12-01)"
   xmlns:inkscape="http://www.inkscape.org/namespaces/inkscape"
   xmlns:sodipodi="http://sodipodi.sourceforge.net/DTD/sodipodi-0.dtd"
   xmlns="http://www.w3.org/2000/svg"
   xmlns:svg="http://www.w3.org/2000/svg">
  <defs
     id="defs58" />
  <sodipodi:namedview
     id="namedview56"
     pagecolor="#ffffff"
     bordercolor="#666666"
     borderopacity="1.0"
     inkscape:showpageshadow="2"
     inkscape:pageopacity="0.0"
     inkscape:pagecheckerboard="true"
     inkscape:deskcolor="#d1d1d1"
     showgrid="false"
     inkscape:zoom="2.3061306"
     inkscape:cx="-6.2875884"
     inkscape:cy="177.35336"
     inkscape:window-width="1920"
     inkscape:window-height="1023"
     inkscape:window-x="1775"
     inkscape:window-y="29"
     inkscape:window-maximized="1"
     inkscape:current-layer="g1618" />
  <g
     id="g1618"
     style="display:inline"
     transform="matrix(2.8866863,0,0,2.8866863,-2.5345106,-2.8058591)">
    <path
       d="M 329.475,514.117 V 602.8 h -58.663 v -88.683 h 58.663"
       fill="#000000"
       id="path4"
       style="display:inline"
       transform="translate(-269.934,-513.145)" />
    <g
       fill="#ffffff"
       id="g18">
      <path
         d="M 0,0 H 52.337 V 14.706 H 0 Z"
         transform="translate(3.829,4.124)"
         id="path6" />
      <path
         d="M 0,0 H 52.367 V 54.062 H 0 Z"
         transform="translate(3.806,22.037)"
         id="path8" />
      <path
         d="m 272.743,572.732 v -7.178 h 10.512 v 1.68 h -6.289 v 1.026 h 5.323 v 1.674 h -5.323 v 1.124 h 6.534 v 1.674 z"
         transform="translate(-268.926,-486.272)"
         id="path10" />
      <path
         d="m 288.2,567.706 a 0.79,0.79 0 0 0 -0.609,-0.486 3.843,3.843 0 0 0 -1.092,-0.132 c -0.927,0 -1.344,0.151 -1.344,0.419 0,1.061 7.413,0.4 7.413,3.007 0,1.661 -2.491,2.474 -6.032,2.474 -3.4,0 -5.619,-1.107 -5.709,-2.4 h 4.044 a 1.029,1.029 0 0 0 0.7,0.566 3.809,3.809 0 0 0 1.2,0.181 c 1.055,0 1.757,-0.187 1.757,-0.527 0,-1.088 -7.419,-0.342 -7.419,-3.078 0,-1.524 2.366,-2.29 5.591,-2.29 3.578,0 5.207,1.015 5.516,2.27 z"
         transform="translate(-264.7,-486.333)"
         id="path12" />
      <path
         d="m 294.147,568.667 h 1.663 c 1.3,0 2.007,-0.19 2.007,-0.685 0,-0.495 -0.714,-0.749 -1.7,-0.749 h -1.969 z m 0,1.564 v 2.5 h -4.223 v -7.178 h 6.087 c 4.292,0 5.709,0.656 5.709,2.051 0,0.83 -0.659,1.519 -2.165,1.761 1.36,0.273 2.183,0.443 2.183,1.891 0,0.933 -0.053,1.258 0.446,1.258 v 0.218 H 297.9 a 2.792,2.792 0 0 1 -0.212,-1.256 c 0,-0.942 -0.286,-1.245 -2.255,-1.245 z"
         transform="translate(-259.949,-486.271)"
         id="path14" />
      <path
         d="m 303.6,567.233 v 1.2 h 1.76 c 0.842,0 1.454,-0.216 1.454,-0.627 0,-0.562 -0.833,-0.574 -1.722,-0.574 z m 0,2.5 v 1.323 h 1.844 c 1.046,0 1.832,-0.122 1.832,-0.658 0,-0.627 -0.982,-0.665 -2.331,-0.665 z m -4.22,3 v -7.178 h 6.161 c 2.9,0 5.21,0.39 5.21,1.81 0,0.74 -0.862,1.279 -1.682,1.559 1.395,0.2 2.142,0.874 2.142,1.644 0,1.6 -2.2,2.165 -5.551,2.165 z"
         transform="translate(-255.01,-486.271)"
         id="path16" />
    </g>
    <g
       fill="#000000"
       id="g52">
      <path
         d="m 288.972,559.7 -0.122,-15.71 8.555,13.623 z m 20.084,-5.953 a 10.819,10.819 0 0 1 -2.09,0.761 c -5.386,1.335 -9.212,-1.593 -10.694,-6.717 -1.089,-3.761 -0.437,-7.07 2.112,-9.106 l -6.206,-8.754 -13.578,3.369 -2.743,44.6 13.081,-3.238 -0.046,-5.782 13.3,-3.307 3.151,5.018 13.3,-3.3 -9.588,-13.544"
         transform="translate(-267.299,-504.881)"
         id="path20" />
      <path
         d="m 291.58,543.231 c 1.021,3.512 3.083,6.171 6.77,5.251 a 5.753,5.753 0 0 0 1.323,-0.506 l -7.687,-10.843 c -1.154,1.494 -1.095,3.734 -0.406,6.1"
         transform="translate(-259.342,-501.12)"
         id="path22" />
      <path
         d="m 294.824,536.979 c 3.7,-0.918 5.759,1.739 6.773,5.256 0.883,3.033 0.735,5.866 -1.7,7.174 l 1.422,2.013 c 3.722,-1.839 4.814,-5.61 3.544,-10 -1.487,-5.108 -5.306,-8.04 -10.7,-6.7 a 9.191,9.191 0 0 0 -3.517,1.643 l 1.56,2.206 a 4.485,4.485 0 0 1 2.611,-1.586"
         transform="translate(-259.568,-502.551)"
         id="path24" />
      <path
         d="m 273.711,526.622 1.361,-8.341 h 1.35 l 1.328,8.341 h -1.079 l -0.268,-1.85 H 275 l -0.277,1.85 z m 1.978,-6.735 h -0.015 l -0.466,3.6 h 0.977 z"
         transform="translate(-268.419,-510.97)"
         id="path26" />
      <path
         d="m 276.7,518.28 h 1.711 a 1.181,1.181 0 0 1 0.815,0.279 1.777,1.777 0 0 1 0.481,0.808 5.623,5.623 0 0 1 0.236,1.3 q 0.062,0.77 0.062,1.737 v 0.757 c 0,0.289 -0.012,0.591 -0.034,0.907 a 8.4,8.4 0 0 1 -0.125,0.929 3.292,3.292 0 0 1 -0.276,0.816 1.712,1.712 0 0 1 -0.477,0.582 1.149,1.149 0 0 1 -0.726,0.227 H 276.7 Z m 1.026,7.06 h 0.495 a 0.5,0.5 0 0 0 0.375,-0.157 1.128,1.128 0 0 0 0.228,-0.5 5.354,5.354 0 0 0 0.111,-0.894 c 0.02,-0.367 0.032,-0.81 0.032,-1.334 0,-0.385 0,-0.752 -0.012,-1.1 a 6.313,6.313 0 0 0 -0.076,-0.918 1.778,1.778 0 0 0 -0.216,-0.636 0.453,0.453 0 0 0 -0.408,-0.234 h -0.528 z"
         transform="translate(-266.86,-510.97)"
         id="path28" />
      <path
         d="m 282.722,518.28 v 5.915 a 4.95,4.95 0 0 1 -0.085,0.929 2.742,2.742 0 0 1 -0.279,0.822 1.679,1.679 0 0 1 -0.51,0.588 1.331,1.331 0 0 1 -0.787,0.225 1.365,1.365 0 0 1 -1.259,-0.693 3.654,3.654 0 0 1 -0.411,-1.871 v -5.915 h 1.026 v 5.8 a 2.566,2.566 0 0 0 0.172,1.1 0.5,0.5 0 0 0 0.952,-0.04 2.785,2.785 0 0 0 0.158,-1.064 v -5.8 z"
         transform="translate(-265.451,-510.97)"
         id="path30" />
      <path
         d="m 282.133,526.622 v -8.342 h 1.023 v 6.956 h 1.535 v 1.385 z"
         transform="translate(-264.019,-510.97)"
         id="path32" />
      <path
         d="m 286.9,518.28 v 1.387 h -1.139 v 6.955 h -1.023 v -6.955 h -1.142 v -1.387 z"
         transform="translate(-263.256,-510.97)"
         id="path34" />
      <path
         d="m 289.16,524.392 a 4.2,4.2 0 0 1 -0.155,1.286 1.761,1.761 0 0 1 -0.4,0.728 1.149,1.149 0 0 1 -0.554,0.324 2.46,2.46 0 0 1 -0.594,0.075 1.24,1.24 0 0 1 -0.77,-0.219 1.368,1.368 0 0 1 -0.452,-0.594 3.117,3.117 0 0 1 -0.206,-0.868 7.419,7.419 0 0 1 -0.026,-1.034 h 1.025 c 0,0.2 0,0.388 0.012,0.568 a 2.108,2.108 0 0 0 0.072,0.466 0.661,0.661 0 0 0 0.172,0.318 0.443,0.443 0 0 0 0.327,0.116 0.408,0.408 0 0 0 0.387,-0.26 1.544,1.544 0 0 0 0.128,-0.687 1.284,1.284 0 0 0 -0.152,-0.647 2.622,2.622 0 0 0 -0.382,-0.525 c -0.155,-0.166 -0.318,-0.33 -0.495,-0.5 a 3.7,3.7 0 0 1 -0.5,-0.576 3.261,3.261 0 0 1 -0.384,-0.769 3.3,3.3 0 0 1 -0.151,-1.063 5.234,5.234 0 0 1 0.076,-0.912 2.283,2.283 0 0 1 0.262,-0.744 1.366,1.366 0 0 1 0.5,-0.5 1.508,1.508 0 0 1 0.78,-0.186 1.208,1.208 0 0 1 1.11,0.6 3.573,3.573 0 0 1 0.315,1.906 h -1 c 0,-0.155 -0.006,-0.306 -0.017,-0.458 a 2.061,2.061 0 0 0 -0.069,-0.4 0.8,0.8 0 0 0 -0.143,-0.289 0.307,0.307 0 0 0 -0.247,-0.11 0.437,0.437 0 0 0 -0.39,0.225 1.249,1.249 0 0 0 -0.14,0.664 1.376,1.376 0 0 0 0.152,0.671 2.234,2.234 0 0 0 0.384,0.507 q 0.231,0.231 0.493,0.469 a 3.236,3.236 0 0 1 0.5,0.553 2.824,2.824 0 0 1 0.384,0.764 3.37,3.37 0 0 1 0.148,1.101 z"
         transform="translate(-262.003,-511.017)"
         id="path36" />
      <path
         d="m 291.2,526.806 a 1.268,1.268 0 0 1 -0.974,-0.364 2.174,2.174 0 0 1 -0.505,-0.968 6.549,6.549 0 0 1 -0.181,-1.383 c -0.021,-0.514 -0.027,-1.046 -0.027,-1.592 0,-0.546 0.006,-1.09 0.027,-1.6 a 6.407,6.407 0 0 1 0.181,-1.375 2.187,2.187 0 0 1 0.505,-0.965 1.493,1.493 0 0 1 1.953,0 2.152,2.152 0 0 1 0.5,0.965 6.393,6.393 0 0 1 0.184,1.375 q 0.027,0.772 0.027,1.6 0,0.828 -0.027,1.592 a 6.535,6.535 0 0 1 -0.184,1.383 2.141,2.141 0 0 1 -0.5,0.968 1.276,1.276 0 0 1 -0.979,0.364 z m 0,-1.247 a 0.4,0.4 0 0 0 0.346,-0.18 1.272,1.272 0 0 0 0.2,-0.548 6.25,6.25 0 0 0 0.09,-0.951 c 0.011,-0.39 0.02,-0.851 0.02,-1.381 0,-0.53 -0.009,-0.993 -0.02,-1.381 a 6.273,6.273 0 0 0 -0.09,-0.953 1.264,1.264 0 0 0 -0.2,-0.548 0.421,0.421 0 0 0 -0.69,0 1.345,1.345 0 0 0 -0.2,0.548 7.257,7.257 0 0 0 -0.087,0.953 c -0.014,0.388 -0.02,0.85 -0.02,1.381 0,0.531 0.006,0.991 0.02,1.381 a 7.229,7.229 0 0 0 0.087,0.951 1.354,1.354 0 0 0 0.2,0.548 0.4,0.4 0 0 0 0.344,0.18 z"
         transform="translate(-260.163,-511.017)"
         id="path38" />
      <path
         d="m 292.272,526.622 v -8.342 h 1.385 l 1.3,5.776 h 0.014 v -5.776 h 0.955 v 8.341 h -1.346 l -1.338,-6.1 h -0.012 v 6.1 z"
         transform="translate(-258.722,-510.97)"
         id="path40" />
      <path
         d="m 295.247,526.622 v -8.342 h 1.022 v 6.956 h 1.531 v 1.385 z"
         transform="translate(-257.167,-510.97)"
         id="path42" />
      <path
         d="m 297.926,523.733 -1.285,-5.453 h 1.117 l 0.735,3.524 0.783,-3.524 h 1.046 l -1.373,5.453 v 2.888 h -1.023 z"
         transform="translate(-256.439,-510.97)"
         id="path44" />
      <path
         d="m 300.3,519.55 a 5.555,5.555 0 0 0 0.495,-0.566 3.671,3.671 0 0 0 0.422,-0.732 h 0.907 v 8.386 H 301.1 v -6.451 a 5.026,5.026 0 0 1 -0.387,0.5 c -0.137,0.152 -0.277,0.3 -0.414,0.434 z"
         transform="translate(-254.529,-510.985)"
         id="path46" />
      <path
         d="m 303.514,526.78 a 1.139,1.139 0 0 1 -1.023,-0.534 3.273,3.273 0 0 1 -0.344,-1.723 c 0,-0.256 0.006,-0.5 0.024,-0.732 a 3.675,3.675 0 0 1 0.094,-0.644 2.007,2.007 0 0 1 0.212,-0.521 1.117,1.117 0 0 1 0.365,-0.375 v -0.023 a 0.744,0.744 0 0 1 -0.327,-0.259 1.4,1.4 0 0 1 -0.2,-0.408 2.314,2.314 0 0 1 -0.1,-0.528 q -0.027,-0.294 -0.027,-0.63 a 3.287,3.287 0 0 1 0.333,-1.687 1.193,1.193 0 0 1 1.99,0 3.285,3.285 0 0 1 0.335,1.687 c 0,0.224 -0.011,0.434 -0.026,0.63 a 2.388,2.388 0 0 1 -0.105,0.528 1.393,1.393 0 0 1 -0.2,0.408 0.744,0.744 0 0 1 -0.327,0.259 v 0.023 a 1.147,1.147 0 0 1 0.365,0.375 2.066,2.066 0 0 1 0.212,0.521 3.54,3.54 0 0 1 0.094,0.644 c 0.018,0.231 0.024,0.476 0.024,0.732 a 3.255,3.255 0 0 1 -0.346,1.723 1.142,1.142 0 0 1 -1.023,0.534 z m 0,-3.856 a 0.268,0.268 0 0 0 -0.247,0.163 1.5,1.5 0 0 0 -0.122,0.4 3.872,3.872 0 0 0 -0.041,0.487 c 0,0.169 0,0.315 0,0.443 0,0.128 0.006,0.247 0.015,0.381 a 2.057,2.057 0 0 0 0.059,0.373 0.749,0.749 0 0 0 0.122,0.282 0.262,0.262 0 0 0 0.216,0.107 0.269,0.269 0 0 0 0.221,-0.107 0.774,0.774 0 0 0 0.122,-0.282 1.925,1.925 0 0 0 0.059,-0.373 c 0.009,-0.134 0.015,-0.259 0.015,-0.381 0,-0.122 0,-0.274 0,-0.443 a 3.867,3.867 0 0 0 -0.041,-0.487 1.346,1.346 0 0 0 -0.123,-0.4 0.268,0.268 0 0 0 -0.255,-0.163 z m 0,-3.518 a 0.231,0.231 0 0 0 -0.2,0.114 0.831,0.831 0 0 0 -0.113,0.282 2.391,2.391 0 0 0 -0.053,0.355 q -0.009,0.187 -0.009,0.342 0,0.155 0.009,0.361 a 2.534,2.534 0 0 0 0.05,0.367 0.759,0.759 0 0 0 0.111,0.288 0.231,0.231 0 0 0 0.2,0.113 0.236,0.236 0 0 0 0.206,-0.113 0.812,0.812 0 0 0 0.113,-0.288 2.351,2.351 0 0 0 0.046,-0.367 c 0.009,-0.129 0.011,-0.25 0.011,-0.361 0,-0.111 0,-0.218 -0.011,-0.342 a 2.21,2.21 0 0 0 -0.049,-0.355 0.864,0.864 0 0 0 -0.116,-0.282 0.232,0.232 0 0 0 -0.195,-0.115 z"
         transform="translate(-253.562,-511.022)"
         id="path48" />
      <path
         d="m 305.3,519.344 h 0.752 v 2.276 h 1.148 v 1.28 h -1.148 v 2.274 H 305.3 V 522.9 h -1.154 v -1.28 h 1.154 z"
         transform="translate(-252.517,-510.414)"
         id="path50" />
    </g>
  </g>
</svg>
