<?xml version="1.0" encoding="UTF-8" standalone="no"?>
<!-- Created with Inkscape (http://www.inkscape.org/) -->

<svg
   version="1.1"
   x="0"
   y="0"
   width="169.33356"
   height="256"
   viewBox="0 0 169.33355 256.00001"
   id="svg271"
   sodipodi:docname="E.svg"
   inkscape:version="1.2.2 (b0a8486541, 2022-12-01)"
   xmlns:inkscape="http://www.inkscape.org/namespaces/inkscape"
   xmlns:sodipodi="http://sodipodi.sourceforge.net/DTD/sodipodi-0.dtd"
   xmlns="http://www.w3.org/2000/svg"
   xmlns:svg="http://www.w3.org/2000/svg">
  <defs
     id="defs275" />
  <sodipodi:namedview
     id="namedview273"
     pagecolor="#ffffff"
     bordercolor="#666666"
     borderopacity="1.0"
     inkscape:showpageshadow="2"
     inkscape:pageopacity="0.0"
     inkscape:pagecheckerboard="true"
     inkscape:deskcolor="#d1d1d1"
     showgrid="false"
     inkscape:zoom="2.4825352"
     inkscape:cx="-1.0070351"
     inkscape:cy="164.75094"
     inkscape:window-width="1920"
     inkscape:window-height="1023"
     inkscape:window-x="1775"
     inkscape:window-y="29"
     inkscape:window-maximized="1"
     inkscape:current-layer="svg271" />
  <g
     id="g1766"
     transform="matrix(4.3948498,0,0,4.3948498,-2.5490129,-2.8127039)">
    <g
       fill="#ffffff"
       id="g249">
      <path
         d="M 39.11,0.64 V 58.89 H 0.58 V 0.64 h 38.53"
         fill="#000000"
         id="path235" />
      <rect
         x="2.52"
         y="2.71"
         width="34.380001"
         height="9.6599998"
         id="rect237" />
      <rect
         x="2.5"
         y="14.47"
         width="34.400002"
         height="35.509998"
         id="rect239" />
      <polygon
         points="5.28,54.95 5.28,55.69 9.57,55.69 9.57,56.79 2.51,56.79 2.51,52.08 9.41,52.08 9.41,53.18 5.28,53.18 5.28,53.85 8.78,53.85 8.78,54.95 "
         id="polygon241" />
      <path
         d="m 15.44,53.45 a 0.52,0.52 0 0 0 -0.4,-0.32 2.53,2.53 0 0 0 -0.72,-0.09 c -0.61,0 -0.88,0.1 -0.88,0.28 0,0.69 4.87,0.26 4.87,2 0,1.09 -1.64,1.63 -4,1.63 -2.36,0 -3.7,-0.73 -3.75,-1.58 h 2.65 a 0.69,0.69 0 0 0 0.46,0.37 2.52,2.52 0 0 0 0.79,0.12 c 0.69,0 1.16,-0.12 1.16,-0.35 0,-0.71 -4.88,-0.22 -4.88,-2 0,-1 1.56,-1.5 3.67,-1.5 2.35,0 3.43,0.66 3.63,1.49 z"
         id="path243" />
      <path
         d="m 22.46,54.12 h 1.09 c 0.86,0 1.32,-0.12 1.32,-0.45 0,-0.33 -0.47,-0.49 -1.11,-0.49 h -1.3 z m 0,1 v 1.64 h -2.77 v -4.68 h 4 c 2.82,0 3.75,0.43 3.75,1.34 0,0.55 -0.44,1 -1.43,1.16 0.9,0.18 1.44,0.29 1.44,1.24 0,0.61 0,0.83 0.29,0.83 v 0.14 h -2.81 a 1.83,1.83 0 0 1 -0.14,-0.82 c 0,-0.62 -0.19,-0.82 -1.48,-0.82 z"
         id="path245" />
      <path
         d="M 31.91,53.18 V 54 h 1.16 c 0.55,0 1,-0.14 1,-0.41 0,-0.27 -0.54,-0.38 -1.13,-0.38 z m 0,1.64 v 0.87 h 1.21 c 0.69,0 1.21,-0.08 1.21,-0.43 0,-0.35 -0.65,-0.44 -1.53,-0.44 z m -2.77,2 v -4.74 h 4 c 1.9,0 3.42,0.25 3.42,1.18 0,0.49 -0.57,0.84 -1.1,1 0.91,0.13 1.4,0.57 1.4,1.08 0,1.05 -1.44,1.42 -3.64,1.42 z"
         id="path247" />
    </g>
    <g
       fill="#000000"
       id="g269">
      <polyline
         points="5.07 22.68 25.89 16.46 27.97 23.06 17.55 26.17 18.4 28.87 28.03 25.99 30.12 32.59 20.49 35.46 21.39 38.3 32.16 35.08 34.24 41.67 13.09 47.99 5.07 22.68"
         id="polyline251" />
      <path
         d="M 3.47,10.27 V 4.8 H 6.42 V 5.65 H 4.6 V 7 H 6.28 V 7.84 H 4.6 v 1.6 h 1.88 v 0.84 z"
         id="path253" />
      <path
         d="M 6.78,4.8 H 8 l 0.83,4 v 0 l 0.94,-4 h 1.12 L 9.44,10.27 H 8.11 Z"
         id="path255" />
      <path
         d="M 11.38,10.27 V 4.8 h 2.95 V 5.65 H 12.51 V 7 h 1.68 v 0.84 h -1.68 v 1.6 h 1.88 v 0.84 z"
         id="path257" />
      <path
         d="M 16.23,10.27 H 15.1 V 4.8 h 2.09 a 1.16,1.16 0 0 1 0.92,0.37 1.5,1.5 0 0 1 0.34,1.07 1.64,1.64 0 0 1 -0.22,0.88 1.09,1.09 0 0 1 -0.78,0.46 v 0 h 0.26 a 0.87,0.87 0 0 1 0.32,0.13 0.89,0.89 0 0 1 0.28,0.32 1.17,1.17 0 0 1 0.12,0.58 c 0,0.08 0,0.2 0,0.36 0,0.16 0,0.32 0,0.49 0,0.17 0,0.32 0.05,0.46 a 1,1 0 0 0 0.06,0.29 H 17.45 A 1.31,1.31 0 0 1 17.34,9.69 c 0,-0.18 0,-0.36 0,-0.54 V 8.75 A 0.89,0.89 0 0 0 17.26,8.37 0.47,0.47 0 0 0 17,8.11 0.92,0.92 0 0 0 16.51,8.01 h -0.29 z m 0,-3.1 h 0.5 A 0.51,0.51 0 0 0 17,7.09 0.47,0.47 0 0 0 17.18,6.9 0.8,0.8 0 0 0 17.27,6.64 1.41,1.41 0 0 0 17.27,6.36 0.8,0.8 0 0 0 17.12,5.81 0.57,0.57 0 0 0 16.69,5.65 h -0.5 z"
         id="path259" />
      <path
         d="M 20.17,8.38 18.75,4.8 H 20 l 0.81,2.31 0.86,-2.31 h 1.15 L 21.3,8.38 v 1.89 h -1.13 z"
         id="path261" />
      <path
         d="M 25.15,10.36 A 2.06,2.06 0 0 1 24.07,10.13 1.42,1.42 0 0 1 23.52,9.49 2.38,2.38 0 0 1 23.32,8.58 c 0,-0.33 0,-0.68 0,-1 0,-0.32 0,-0.72 0,-1 a 2.38,2.38 0 0 1 0.2,-0.91 1.39,1.39 0 0 1 0.55,-0.67 2.55,2.55 0 0 1 2.16,0 1.39,1.39 0 0 1 0.55,0.63 2.59,2.59 0 0 1 0.2,0.91 q 0,0.5 0,1 c 0,0.36 0,0.71 0,1 a 2.59,2.59 0 0 1 -0.2,0.91 1.42,1.42 0 0 1 -0.55,0.64 2.06,2.06 0 0 1 -1.08,0.27 z m 0,-0.81 a 0.56,0.56 0 0 0 0.38,-0.12 0.79,0.79 0 0 0 0.22,-0.36 3,3 0 0 0 0.1,-0.63 c 0,-0.25 0,-0.55 0,-0.9 0,-0.35 0,-0.65 0,-0.91 a 3,3 0 0 0 -0.1,-0.62 0.79,0.79 0 0 0 -0.22,-0.36 0.66,0.66 0 0 0 -0.76,0 0.72,0.72 0 0 0 -0.22,0.36 3,3 0 0 0 -0.1,0.62 c 0,0.26 0,0.56 0,0.91 0,0.35 0,0.65 0,0.9 a 3,3 0 0 0 0.1,0.63 0.72,0.72 0 0 0 0.22,0.36 0.56,0.56 0 0 0 0.38,0.12 z"
         id="path263" />
      <path
         d="M 27.92,10.27 V 4.8 h 1.53 l 1.43,3.79 v 0 V 4.8 H 32 v 5.47 H 30.47 L 29,6.27 v 0 4 z"
         id="path265" />
      <path
         d="M 32.91,10.27 V 4.8 h 3 V 5.65 H 34 V 7 h 1.67 V 7.84 H 34 v 1.6 h 1.88 v 0.84 z"
         id="path267" />
    </g>
  </g>
</svg>
