<?xml version="1.0" encoding="UTF-8" standalone="no"?>
<!-- Created with Inkscape (http://www.inkscape.org/) -->

<svg
   version="1.1"
   x="0"
   y="0"
   width="169.33356"
   height="256"
   viewBox="0 0 169.33356 256.00001"
   id="svg440"
   sodipodi:docname="E10.svg"
   inkscape:version="1.2.2 (b0a8486541, 2022-12-01)"
   xmlns:inkscape="http://www.inkscape.org/namespaces/inkscape"
   xmlns:sodipodi="http://sodipodi.sourceforge.net/DTD/sodipodi-0.dtd"
   xmlns="http://www.w3.org/2000/svg"
   xmlns:svg="http://www.w3.org/2000/svg">
  <defs
     id="defs444" />
  <sodipodi:namedview
     id="namedview442"
     pagecolor="#ffffff"
     bordercolor="#666666"
     borderopacity="1.0"
     inkscape:showpageshadow="2"
     inkscape:pageopacity="0.0"
     inkscape:pagecheckerboard="0"
     inkscape:deskcolor="#d1d1d1"
     showgrid="false"
     inkscape:zoom="2.4825352"
     inkscape:cx="-14.702712"
     inkscape:cy="135.74833"
     inkscape:window-width="1920"
     inkscape:window-height="1023"
     inkscape:window-x="1775"
     inkscape:window-y="29"
     inkscape:window-maximized="1"
     inkscape:current-layer="svg440" />
  <g
     id="g1704"
     transform="matrix(4.3948498,0,0,4.3948498,-2.5490129,-2.8127039)">
    <g
       fill="#ffffff"
       id="g410">
      <path
         d="M 39.11,0.64 V 58.89 H 0.58 V 0.64 h 38.53"
         fill="#000000"
         id="path396" />
      <rect
         x="2.52"
         y="2.71"
         width="34.380001"
         height="9.6599998"
         id="rect398" />
      <rect
         x="2.5"
         y="14.47"
         width="34.400002"
         height="35.509998"
         id="rect400" />
      <polygon
         points="9.41,53.18 5.28,53.18 5.28,53.85 8.78,53.85 8.78,54.95 5.28,54.95 5.28,55.69 9.57,55.69 9.57,56.79 2.51,56.79 2.51,52.08 9.41,52.08 "
         id="polygon402" />
      <path
         d="m 15.44,53.45 a 0.52,0.52 0 0 0 -0.4,-0.32 2.53,2.53 0 0 0 -0.72,-0.09 c -0.61,0 -0.88,0.1 -0.88,0.28 0,0.69 4.87,0.26 4.87,2 0,1.09 -1.64,1.63 -4,1.63 -2.36,0 -3.7,-0.73 -3.75,-1.58 h 2.65 a 0.69,0.69 0 0 0 0.46,0.37 2.52,2.52 0 0 0 0.79,0.12 c 0.69,0 1.16,-0.12 1.16,-0.35 0,-0.71 -4.88,-0.22 -4.88,-2 0,-1 1.56,-1.5 3.67,-1.5 2.35,0 3.43,0.66 3.63,1.49 z"
         id="path404" />
      <path
         d="m 22.46,54.12 h 1.09 c 0.86,0 1.32,-0.12 1.32,-0.45 0,-0.33 -0.47,-0.49 -1.11,-0.49 h -1.3 z m 0,1 v 1.64 h -2.77 v -4.68 h 4 c 2.82,0 3.75,0.43 3.75,1.34 0,0.55 -0.44,1 -1.43,1.16 0.9,0.18 1.44,0.29 1.44,1.24 0,0.61 0,0.83 0.29,0.83 v 0.14 h -2.81 a 1.83,1.83 0 0 1 -0.14,-0.82 c 0,-0.62 -0.19,-0.82 -1.48,-0.82 z"
         id="path406" />
      <path
         d="M 31.91,53.18 V 54 h 1.16 c 0.55,0 1,-0.14 1,-0.41 0,-0.27 -0.54,-0.38 -1.13,-0.38 z m 0,1.64 v 0.87 h 1.21 c 0.69,0 1.21,-0.08 1.21,-0.43 0,-0.35 -0.65,-0.44 -1.53,-0.44 z m -2.77,2 v -4.74 h 4 c 1.9,0 3.42,0.25 3.42,1.18 0,0.49 -0.57,0.84 -1.1,1 0.91,0.13 1.4,0.57 1.4,1.08 0,1.05 -1.44,1.42 -3.64,1.42 z"
         id="path408" />
    </g>
    <g
       fill="#000000"
       id="g438">
      <path
         d="M 21.88,41.26 H 20.4 v 0.81 h 1.48 v 1.44 h 0.84 v -1.44 h 1.48 v -0.81 h -1.48 v -1.44 h -0.84 z m -2.36,-0.37 c 0,-2.86 -1.54,-4.56 -4.08,-4.56 -3.45,0 -4.29,2.35 -4.29,4.56 0,2.7 1.35,4.56 4.18,4.56 2.83,0 4.19,-1.86 4.19,-4.56 M 5.11,22.68 l 20.83,-6.22 2.06,6.6 -10.41,3.11 0.85,2.7 9.65,-2.87 2.08,6.59 -9.64,2.88 0.9,2.84 10.78,-3.22 2.09,6.59 L 13.13,48 5.13,22.68 M 5.9,39.37 A 7,7 0 0 0 8.49,38.12 V 45 h 2 V 36.37 H 8.54 A 6.88,6.88 0 0 1 5.9,37.7 v 1.67"
         id="path412" />
      <path
         d="m 13,40.81 c 0,-2.89 1.16,-3.56 2.47,-3.56 1.47,0 2.3,1.11 2.3,3.64 0,1.58 -0.44,3.52 -2.32,3.51 C 13.57,44.39 12.93,42.92 13,40.81"
         id="path414" />
      <path
         d="M 3.48,10.28 V 4.8 H 5.63 V 5.64 H 4.31 V 7 H 5.53 V 7.84 H 4.31 v 1.6 h 1.36 v 0.84 z"
         id="path416" />
      <path
         d="m 5.89,4.8 h 0.86 l 0.61,4 v 0 l 0.69,-4 h 0.81 l -1,5.48 h -1 z"
         id="path418" />
      <path
         d="M 9.24,10.28 V 4.8 h 2.14 V 5.64 H 10.06 V 7 h 1.22 v 0.84 h -1.22 v 1.6 h 1.37 v 0.84 z"
         id="path420" />
      <path
         d="M 12.77,10.28 H 11.94 V 4.8 h 1.53 a 0.77,0.77 0 0 1 0.67,0.37 1.94,1.94 0 0 1 0.25,1.07 2.12,2.12 0 0 1 -0.17,0.88 0.77,0.77 0 0 1 -0.56,0.46 v 0 h 0.18 a 0.6,0.6 0 0 1 0.24,0.14 0.83,0.83 0 0 1 0.2,0.31 1.5,1.5 0 0 1 0.09,0.58 V 9 c 0,0.15 0,0.32 0,0.48 a 3.48,3.48 0 0 0 0,0.47 1.23,1.23 0 0 0 0,0.29 h -0.8 A 1.54,1.54 0 0 1 13.48,9.72 v -1 A 1.45,1.45 0 0 0 13.42,8.33 0.52,0.52 0 0 0 13.25,8.07 0.53,0.53 0 0 0 13,8 h -0.21 z m 0,-3.11 h 0.36 a 0.28,0.28 0 0 0 0.2,-0.08 0.55,0.55 0 0 0 0.14,-0.19 1.1,1.1 0 0 0 0.06,-0.26 1.32,1.32 0 0 0 0,-0.27 1,1 0 0 0 -0.11,-0.56 0.36,0.36 0 0 0 -0.31,-0.17 h -0.36 z"
         id="path422" />
      <path
         d="m 15.63,8.38 -1,-3.58 h 0.9 l 0.59,2.32 0.63,-2.32 h 0.84 l -1.1,3.58 v 1.9 h -0.83 z"
         id="path424" />
      <path
         d="M 19.26,10.37 A 1.18,1.18 0 0 1 18.47,10.13 1.37,1.37 0 0 1 18.07,9.5 4,4 0 0 1 17.92,8.59 c 0,-0.34 0,-0.69 0,-1 0,-0.31 0,-0.71 0,-1 A 4,4 0 0 1 18.07,5.68 1.37,1.37 0 0 1 18.47,5.05 1.18,1.18 0 0 1 19.26,4.81 1.16,1.16 0 0 1 20,5 a 1.29,1.29 0 0 1 0.4,0.63 3.15,3.15 0 0 1 0.15,0.91 c 0,0.34 0,0.69 0,1 0,0.31 0,0.71 0,1 A 3.15,3.15 0 0 1 20.4,9.45 1.29,1.29 0 0 1 20,10.08 1.16,1.16 0 0 1 19.26,10.37 Z m 0,-0.82 a 0.37,0.37 0 0 0 0.27,-0.11 0.75,0.75 0 0 0 0.16,-0.37 3.22,3.22 0 0 0 0.07,-0.62 c 0,-0.26 0,-0.56 0,-0.91 0,-0.35 0,-0.65 0,-0.91 A 3.22,3.22 0 0 0 19.69,6 0.75,0.75 0 0 0 19.53,5.64 0.34,0.34 0 0 0 19.26,5.52 0.35,0.35 0 0 0 18.98,5.64 0.86,0.86 0 0 0 18.82,6 4.29,4.29 0 0 0 18.75,6.62 c 0,0.26 0,0.56 0,0.91 0,0.35 0,0.65 0,0.91 a 4.29,4.29 0 0 0 0.07,0.62 0.85,0.85 0 0 0 0.16,0.37 0.38,0.38 0 0 0 0.28,0.12 z"
         id="path426" />
      <path
         d="M 21.27,10.28 V 4.8 h 1.11 l 1.05,3.8 v 0 -3.8 h 0.77 v 5.48 h -1.08 l -1.07,-4 v 0 4 z"
         id="path428" />
      <path
         d="M 24.9,10.28 V 4.8 h 2.15 V 5.64 H 25.72 V 7 h 1.22 v 0.84 h -1.22 v 1.6 h 1.37 v 0.84 z"
         id="path430" />
      <path
         d="M 28.76,5.67 A 3.44,3.44 0 0 0 29.16,5.3 2.27,2.27 0 0 0 29.5,4.82 h 0.72 v 5.46 H 29.4 v -4.2 a 3.26,3.26 0 0 1 -0.31,0.33 l -0.33,0.28 z"
         id="path432" />
      <path
         d="m 32.12,4.75 a 1.09,1.09 0 0 1 0.57,0.14 1,1 0 0 1 0.33,0.47 3.47,3.47 0 0 1 0.16,0.86 c 0,0.36 0,0.8 0,1.32 0,0.52 0,0.81 0,1.16 a 4.31,4.31 0 0 1 -0.13,0.89 1.24,1.24 0 0 1 -0.34,0.56 0.84,0.84 0 0 1 -0.6,0.2 0.81,0.81 0 0 1 -0.6,-0.2 A 1.24,1.24 0 0 1 31.17,9.59 4.31,4.31 0 0 1 31.04,8.7 c 0,-0.35 0,-0.74 0,-1.16 0,-0.42 0,-1 0,-1.32 A 3.47,3.47 0 0 1 31.2,5.36 0.89,0.89 0 0 1 31.53,4.89 1,1 0 0 1 32.12,4.75 Z m 0,0.8 a 0.24,0.24 0 0 0 -0.19,0.08 0.64,0.64 0 0 0 -0.1,0.29 c 0,0.15 0,0.35 0,0.61 v 1 c 0,0.41 0,0.75 0,1 a 4.39,4.39 0 0 0 0,0.61 0.64,0.64 0 0 0 0.1,0.3 0.19,0.19 0 0 0 0.18,0.08 0.21,0.21 0 0 0 0.18,-0.08 0.64,0.64 0 0 0 0.1,-0.3 c 0,-0.14 0,-0.35 0.05,-0.61 v -2 c 0,-0.26 0,-0.46 0,-0.61 A 0.64,0.64 0 0 0 32.34,5.63 0.26,0.26 0 0 0 32.12,5.55 Z"
         id="path434" />
      <path
         d="M 34.39,5.87 H 35 v 1.49 h 0.92 V 8.2 H 35 V 9.7 H 34.39 V 8.2 H 33.46 V 7.36 h 0.93 z"
         id="path436" />
    </g>
  </g>
</svg>
