<?xml version="1.0" encoding="UTF-8" standalone="no"?>
<!-- Created with Inkscape (http://www.inkscape.org/) -->

<svg
   version="1.1"
   x="0"
   y="0"
   width="169.33356"
   height="256"
   viewBox="0 0 169.33356 256.00001"
   id="svg603"
   sodipodi:docname="M.svg"
   inkscape:version="1.2.2 (b0a8486541, 2022-12-01)"
   xmlns:inkscape="http://www.inkscape.org/namespaces/inkscape"
   xmlns:sodipodi="http://sodipodi.sourceforge.net/DTD/sodipodi-0.dtd"
   xmlns="http://www.w3.org/2000/svg"
   xmlns:svg="http://www.w3.org/2000/svg">
  <defs
     id="defs607" />
  <sodipodi:namedview
     id="namedview605"
     pagecolor="#636363"
     bordercolor="#666666"
     borderopacity="1.0"
     inkscape:showpageshadow="2"
     inkscape:pageopacity="0"
     inkscape:pagecheckerboard="true"
     inkscape:deskcolor="#575757"
     showgrid="false"
     showguides="true"
     inkscape:zoom="1.7554175"
     inkscape:cx="-31.046746"
     inkscape:cy="177.7355"
     inkscape:window-width="1920"
     inkscape:window-height="1023"
     inkscape:window-x="1775"
     inkscape:window-y="29"
     inkscape:window-maximized="1"
     inkscape:current-layer="svg603" />
  <g
     id="g1407"
     transform="matrix(4.3948498,0,0,4.3948498,-2.5490129,-2.8127039)">
    <g
       fill="#ffffff"
       id="g579">
      <path
         d="M 39.11,0.64 V 58.89 H 0.58 V 0.64 h 38.53"
         fill="#000000"
         id="path565" />
      <rect
         x="2.52"
         y="2.71"
         width="34.380001"
         height="9.6599998"
         id="rect567" />
      <rect
         x="2.5"
         y="14.47"
         width="34.400002"
         height="35.509998"
         id="rect569" />
      <polygon
         points="5.28,53.85 8.78,53.85 8.78,54.95 5.28,54.95 5.28,55.69 9.57,55.69 9.57,56.79 2.51,56.79 2.51,52.08 9.41,52.08 9.41,53.18 5.28,53.18 "
         id="polygon571" />
      <path
         d="m 15.44,53.45 a 0.52,0.52 0 0 0 -0.4,-0.32 2.53,2.53 0 0 0 -0.72,-0.09 c -0.61,0 -0.88,0.1 -0.88,0.28 0,0.7 4.87,0.26 4.87,2 0,1.09 -1.64,1.63 -4,1.63 -2.36,0 -3.7,-0.73 -3.75,-1.58 h 2.65 a 0.69,0.69 0 0 0 0.46,0.37 2.52,2.52 0 0 0 0.79,0.12 c 0.7,0 1.16,-0.12 1.16,-0.35 0,-0.71 -4.88,-0.22 -4.88,-2 0,-1 1.56,-1.5 3.67,-1.5 2.35,0 3.42,0.66 3.63,1.49 z"
         id="path573" />
      <path
         d="m 22.46,54.12 h 1.09 c 0.86,0 1.32,-0.12 1.32,-0.45 0,-0.33 -0.47,-0.49 -1.11,-0.49 h -1.3 z m 0,1 v 1.64 h -2.77 v -4.68 h 4 c 2.82,0 3.75,0.43 3.75,1.34 0,0.55 -0.44,1 -1.43,1.16 0.9,0.18 1.44,0.29 1.44,1.24 0,0.62 0,0.83 0.29,0.83 v 0.14 h -2.81 a 1.8,1.8 0 0 1 -0.14,-0.82 c 0,-0.62 -0.19,-0.82 -1.48,-0.82 z"
         id="path575" />
      <path
         d="M 31.91,53.18 V 54 h 1.16 c 0.55,0 1,-0.14 1,-0.41 0,-0.27 -0.54,-0.38 -1.13,-0.38 z m 0,1.64 v 0.87 h 1.21 c 0.69,0 1.21,-0.08 1.21,-0.43 0,-0.35 -0.65,-0.44 -1.53,-0.44 z m -2.77,2 v -4.74 h 4 c 1.9,0 3.42,0.25 3.42,1.19 0,0.48 -0.57,0.84 -1.1,1 0.91,0.13 1.4,0.57 1.4,1.08 0,1.05 -1.44,1.42 -3.64,1.42 z"
         id="path577" />
    </g>
    <g
       fill="#000000"
       id="g601">
      <polygon
         points="29.09,16.45 35.67,41.19 29.25,42.91 24.54,25.23 24.49,25.24 26.48,43.65 19.52,45.53 12.11,28.58 12.06,28.59 16.75,46.27 10.33,48 3.75,23.27 14.29,20.43 20.31,34.59 20.36,34.57 18.55,19.29 "
         id="polygon581" />
      <path
         d="M 3.47,10.26 V 4.79 H 5 l 0.73,3.72 v 0 L 6.49,4.79 H 8 v 5.47 H 7.09 V 6 6 L 6.2,10.22 H 5.27 L 4.42,6 v 0 4.22 z"
         id="path583" />
      <path
         d="M 8.46,10.26 9.74,4.79 H 11 l 1.26,5.47 h -1 L 11,9.05 H 9.68 l -0.27,1.21 z m 1.86,-4.41 v 0 L 9.87,8.21 h 0.92 z"
         id="path585" />
      <path
         d="M 15.08,4.79 V 5.7 H 14 v 4.56 H 13 V 5.7 H 12 V 4.79 Z"
         id="path587" />
      <path
         d="M 18.65,4.79 V 8.67 A 2.49,2.49 0 0 1 18.57,9.28 1.5,1.5 0 0 1 18.31,9.82 1.33,1.33 0 0 1 17.83,10.21 1.82,1.82 0 0 1 17.08,10.35 1.47,1.47 0 0 1 15.9,9.9 1.81,1.81 0 0 1 15.51,8.67 V 4.79 h 1 V 8.6 A 1.2,1.2 0 0 0 16.67,9.32 0.53,0.53 0 0 0 17.1,9.54 0.51,0.51 0 0 0 17.57,9.29 1.31,1.31 0 0 0 17.72,8.6 V 4.79 Z"
         id="path589" />
      <path
         d="m 20.38,10.26 h -1 V 4.79 h 1.82 a 1,1 0 0 1 0.79,0.37 1.69,1.69 0 0 1 0.29,1.06 1.86,1.86 0 0 1 -0.2,0.89 0.87,0.87 0 0 1 -0.66,0.46 v 0 h 0.22 a 0.65,0.65 0 0 1 0.28,0.13 0.92,0.92 0 0 1 0.24,0.32 1.31,1.31 0 0 1 0.1,0.58 c 0,0.08 0,0.2 0,0.36 0,0.16 0,0.32 0,0.49 0,0.17 0,0.32 0,0.46 a 1.1,1.1 0 0 0 0.05,0.29 H 21.36 A 1.5,1.5 0 0 1 21.27,9.68 c 0,-0.18 0,-0.36 0,-0.54 V 8.74 A 1.08,1.08 0 0 0 21.21,8.36 0.49,0.49 0 0 0 21,8.1 0.71,0.71 0 0 0 20.58,8 h -0.25 z m 0,-3.1 h 0.43 A 0.41,0.41 0 0 0 21.05,7.08 0.58,0.58 0 0 0 21.2,6.89 0.79,0.79 0 0 0 21.28,6.63 1.37,1.37 0 0 0 21.28,6.35 0.87,0.87 0 0 0 21.15,5.8 0.45,0.45 0 0 0 20.79,5.63 h -0.43 z"
         id="path591" />
      <path
         d="M 23,10.26 V 4.79 h 2.52 V 5.63 H 24 V 7 h 1.43 V 7.84 H 24 v 1.6 h 1.6 v 0.84 z"
         id="path593" />
      <path
         d="M 27.52,5.62 A 5.45,5.45 0 0 0 28,5.24 2.13,2.13 0 0 0 28.4,4.76 h 0.85 v 5.5 h -1 V 6 A 3.7,3.7 0 0 1 27.89,6.33 L 27.5,6.62 Z"
         id="path595" />
      <path
         d="m 32.64,5.81 -1.09,4.45 h -1 L 31.78,5.62 H 30.24 V 4.76 h 2.4 z"
         id="path597" />
      <path
         d="m 34.12,5.85 h 0.71 v 1.5 h 1.08 V 8.19 H 34.83 V 9.68 H 34.12 V 8.19 H 33 V 7.35 h 1.08 z"
         id="path599" />
    </g>
  </g>
</svg>
