<?xml version="1.0" encoding="UTF-8" standalone="no"?>
<!-- Created with Inkscape (http://www.inkscape.org/) -->

<svg
   version="1.1"
   x="0"
   y="0"
   width="169.33356"
   height="256"
   viewBox="0 0 169.33355 256"
   id="svg32"
   sodipodi:docname="T.svg"
   inkscape:version="1.2.2 (b0a8486541, 2022-12-01)"
   xmlns:inkscape="http://www.inkscape.org/namespaces/inkscape"
   xmlns:sodipodi="http://sodipodi.sourceforge.net/DTD/sodipodi-0.dtd"
   xmlns="http://www.w3.org/2000/svg"
   xmlns:svg="http://www.w3.org/2000/svg">
  <defs
     id="defs36" />
  <sodipodi:namedview
     id="namedview34"
     pagecolor="#ffffff"
     bordercolor="#666666"
     borderopacity="1.0"
     inkscape:showpageshadow="2"
     inkscape:pageopacity="0.0"
     inkscape:pagecheckerboard="true"
     inkscape:deskcolor="#d1d1d1"
     showgrid="false"
     inkscape:zoom="0.87770874"
     inkscape:cx="-312.74612"
     inkscape:cy="296.22583"
     inkscape:window-width="1920"
     inkscape:window-height="1023"
     inkscape:window-x="1775"
     inkscape:window-y="29"
     inkscape:window-maximized="1"
     inkscape:current-layer="svg32" />
  <g
     id="g387"
     inkscape:label="icon"
     transform="matrix(4.3948498,0,0,4.3948498,-2.5490129,-2.8127039)">
    <g
       fill="#ffffff"
       id="g18">
      <path
         d="M 39.11,0.64 V 58.89 H 0.58 V 0.64 h 38.53"
         fill="#000000"
         id="path4"
         style="display:inline" />
      <rect
         x="2.52"
         y="2.71"
         width="34.380001"
         height="9.6599998"
         id="rect6" />
      <rect
         x="2.5"
         y="14.47"
         width="34.400002"
         height="35.509998"
         id="rect8" />
      <polygon
         points="5.28,53.85 8.78,53.85 8.78,54.95 5.28,54.95 5.28,55.69 9.57,55.69 9.57,56.79 2.51,56.79 2.51,52.07 9.41,52.07 9.41,53.18 5.28,53.18 "
         id="polygon10" />
      <path
         d="m 15.44,53.45 a 0.52,0.52 0 0 0 -0.4,-0.32 2.53,2.53 0 0 0 -0.72,-0.09 c -0.61,0 -0.88,0.1 -0.88,0.28 0,0.69 4.87,0.26 4.87,2 0,1.09 -1.64,1.63 -4,1.63 -2.36,0 -3.7,-0.73 -3.75,-1.58 h 2.65 a 0.69,0.69 0 0 0 0.46,0.37 2.52,2.52 0 0 0 0.79,0.12 c 0.69,0 1.16,-0.12 1.16,-0.35 0,-0.71 -4.88,-0.22 -4.88,-2 0,-1 1.56,-1.5 3.67,-1.5 2.35,0 3.43,0.66 3.63,1.49 z"
         id="path12" />
      <path
         d="m 22.46,54.12 h 1.09 c 0.86,0 1.32,-0.13 1.32,-0.45 0,-0.32 -0.47,-0.49 -1.11,-0.49 h -1.3 z m 0,1 v 1.64 h -2.77 v -4.69 h 4 c 2.82,0 3.75,0.44 3.75,1.35 0,0.55 -0.44,1 -1.43,1.16 0.9,0.18 1.44,0.29 1.44,1.24 0,0.61 0,0.83 0.29,0.83 v 0.14 h -2.81 a 1.85,1.85 0 0 1 -0.14,-0.83 c 0,-0.61 -0.19,-0.81 -1.48,-0.81 z"
         id="path14" />
      <path
         d="M 31.91,53.18 V 54 h 1.16 c 0.55,0 1,-0.15 1,-0.42 0,-0.27 -0.54,-0.37 -1.13,-0.37 z m 0,1.64 v 0.87 h 1.21 c 0.69,0 1.21,-0.08 1.21,-0.43 0,-0.35 -0.65,-0.44 -1.53,-0.44 z m -2.77,2 v -4.75 h 4 c 1.9,0 3.42,0.26 3.42,1.19 0,0.49 -0.57,0.84 -1.1,1 0.91,0.13 1.4,0.57 1.4,1.08 0,1.05 -1.44,1.42 -3.64,1.42 z"
         id="path16" />
    </g>
    <g
       fill="#000000"
       id="g30">
      <polygon
         points="21.7,47.98 15.96,28.05 7.41,30.18 5.37,23.09 31.98,16.45 34.03,23.55 25.48,25.68 31.21,45.6 "
         id="polygon20" />
      <polygon
         points="35.92,4.8 35.92,10.27 33.66,10.27 31.04,7.29 31.08,8.58 31.13,10.27 28.82,10.27 28.82,4.8 31.08,4.8 33.7,7.79 33.61,6.54 33.61,4.8 "
         id="polygon22" />
      <polygon
         points="26.12,6.86 26.12,8.13 23.09,8.13 23.09,8.99 26.82,8.99 26.82,10.27 20.68,10.27 20.68,4.8 26.67,4.8 26.67,6.07 23.09,6.07 23.09,6.86 "
         id="polygon24" />
      <polygon
         points="17.7,6.86 17.7,8.13 14.66,8.13 14.66,8.99 18.39,8.99 18.39,10.27 12.26,10.27 12.26,4.8 18.25,4.8 18.25,6.07 14.66,6.07 14.66,6.86 "
         id="polygon26" />
      <polygon
         points="5.63,10.27 5.63,6.23 3.47,6.23 3.47,4.8 10.21,4.8 10.21,6.23 8.05,6.23 8.05,10.27 "
         id="polygon28" />
    </g>
  </g>
</svg>
