<?xml version="1.0" encoding="UTF-8" standalone="no"?>
<!-- Created with Inkscape (http://www.inkscape.org/) -->

<svg
   version="1.1"
   id="svg2"
   width="256"
   height="256"
   viewBox="0 0 256.00001 256"
   xmlns="http://www.w3.org/2000/svg"
   xmlns:svg="http://www.w3.org/2000/svg"
   xmlns:rdf="http://www.w3.org/1999/02/22-rdf-syntax-ns#"
   xmlns:cc="http://creativecommons.org/ns#"
   xmlns:dc="http://purl.org/dc/elements/1.1/">
  <metadata
     id="metadata8">
    <rdf:RDF>
      <cc:Work
         rdf:about="">
        <dc:format>image/svg+xml</dc:format>
        <dc:type
           rdf:resource="http://purl.org/dc/dcmitype/StillImage" />
      </cc:Work>
    </rdf:RDF>
  </metadata>
  <defs
     id="defs6" />
  <g
     id="g580"
     transform="matrix(0.49999998,0,0,0.49999998,1.1508159,-6.7740656e-6)"
     style="fill:#cccccc;fill-opacity:1;stroke:none;stroke-opacity:1">
    <path
       d="M 5.0864,202.89087 C 7.74934,188.80123 12.44119,174.04938 17.49938,160.62195 40.67684,99.233371 89.9765,48.76427 149.35026,21.571259 174.88069,9.876856 212.81001,0.042285 240.93293,1.6e-5 c 0,0 28.17929,0 28.17929,0 21.38808,0.253614 51.80762,7.340704 71.85718,14.906842 74.50603,28.094748 133.54164,88.229342 155.57784,165.440592 4.80457,16.82303 10.4686,40.395 10.67995,57.76753 0.29588,25.41772 0.8172,43.8047 -4.52278,69.03925 C 485.4446,388.70509 433.31292,456.54672 356.46801,490.51685 243.34226,540.52099 107.40539,500.90091 40.78956,395.91898 29.03879,377.40519 13.21613,347.14064 9.86279,325.47077 c 0,0 66.22132,27.57343 66.22132,27.57343 0,0 27.79887,11.9762 27.79887,11.9762 3.84647,2.88837 9.60913,20.30317 13.90648,26.67169 12.45524,18.54197 34.32237,31.87077 56.92215,32.39209 29.7996,0.6763 57.17577,-17.35844 68.40522,-45.07277 8.07337,-19.90866 3.21244,-27.46071 10.70813,-34.50553 0,0 43.46655,-31.54671 43.46655,-31.54671 0,0 36.63307,-25.62906 36.63307,-25.62906 3.98737,-1.67667 9.58096,-1.26807 14.08964,-1.9162 9.20054,-1.32442 18.14746,-3.55059 26.77032,-7.073 32.67389,-13.35698 57.71118,-49.96187 57.76754,-85.31279 0,0 0,-7.04482 0,-7.04482 -0.0845,-50.58182 -47.11577,-94.104722 -97.21854,-92.977551 -38.43654,0.873558 -72.54757,26.897131 -86.72175,61.980341 -2.53614,6.26989 -4.98773,15.83676 -5.86129,22.54343 -0.60586,4.6214 0.0564,9.83457 -1.60622,14.08964 -1.3667,3.49423 -11.0181,17.31617 -13.70922,21.13447 0,0 -20.31727,29.58825 -20.31727,29.58825 0,0 -16.42852,23.95239 -16.42852,23.95239 -2.38115,3.50832 -5.5795,9.10191 -9.18645,11.25762 0,0 -29.33464,6.87575 -29.33464,6.87575 -4.72003,1.67667 -12.76521,6.55168 -16.90757,6.36852 -2.95882,-0.12681 -10.8772,-3.76194 -14.08964,-5.05818 0,0 -28.17929,-11.80713 -28.17929,-11.80713 0,0 -92.99164,-38.6338 -92.99164,-38.6338 0,0 5.08636,-32.40618 5.08636,-32.40618 z m 376.61616,-60.34594 c 31.67352,30.46181 24.26236,85.08736 -15.3718,104.91149 -12.44116,6.21353 -20.40181,6.31216 -33.81515,6.15717 -32.82886,-0.39451 -57.88025,-30.44772 -59.12014,-61.99443 -1.25397,-32.06803 21.28945,-58.71154 52.07532,-65.5732 20.52861,-2.83202 40.94451,1.78939 56.23177,16.49897 z m -89.27198,30.75769 c -10.56723,29.95459 10.76449,63.45976 42.90296,64.756 27.43254,1.11309 52.49801,-22.59978 50.27185,-50.66635 -1.02854,-12.83567 -6.42488,-26.16447 -16.51306,-34.49145 -4.01555,-3.32515 -10.51088,-7.29843 -15.44225,-9.04555 -6.87575,-2.43751 -13.92057,-3.21244 -21.13447,-2.55023 -19.16191,3.18426 -33.44881,13.15973 -40.08503,31.99758 z M 178.93851,297.30557 c 18.72513,0.43678 34.11102,9.55278 44.08649,25.34727 15.93539,25.23455 8.18608,59.68373 -17.31617,75.42186 -8.39743,5.18499 -16.94984,7.59432 -26.77032,7.70703 -21.04993,0.23953 -41.35311,-8.80602 -49.31375,-29.58825 14.07555,3.31107 34.35054,16.37217 47.90478,14.82231 28.9824,-3.29698 47.96115,-36.28083 30.09548,-61.31813 -11.44079,-16.0481 -31.50444,-20.21864 -48.41201,-28.17928 6.32625,-4.28326 12.30025,-4.38188 19.7255,-4.21281 z"
       id="icon"
       style="fill:#cccccc;fill-opacity:1;stroke:none;stroke-width:1.40896;stroke-opacity:1" />
  </g>
</svg>
