<?xml version="1.0" encoding="UTF-8" standalone="no"?>
<svg
   aria-hidden="true"
   focusable="false"
   data-prefix="fab"
   data-icon="steam"
   class="svg-inline--fa fa-steam fa-w-16"
   role="img"
   viewBox="0 0 256 255.2728"
   version="1.1"
   id="svg4"
   width="256"
   height="255.2728"
   xmlns:xlink="http://www.w3.org/1999/xlink"
   xmlns="http://www.w3.org/2000/svg"
   xmlns:svg="http://www.w3.org/2000/svg"
   xmlns:rdf="http://www.w3.org/1999/02/22-rdf-syntax-ns#"
   xmlns:cc="http://creativecommons.org/ns#"
   xmlns:dc="http://purl.org/dc/elements/1.1/">
  <metadata
     id="metadata10">
    <rdf:RDF>
      <cc:Work
         rdf:about="">
        <dc:format>image/svg+xml</dc:format>
        <dc:type
           rdf:resource="http://purl.org/dc/dcmitype/StillImage" />
      </cc:Work>
    </rdf:RDF>
  </metadata>
  <defs
     id="defs8">
    <linearGradient
       id="linearGradient833">
      <stop
         style="stop-color:#11273b;stop-opacity:0.93333334"
         offset="0"
         id="stop829" />
      <stop
         style="stop-color:#1b4663;stop-opacity:0.86666667"
         offset="1"
         id="stop831" />
    </linearGradient>
    <linearGradient
       xlink:href="#linearGradient833"
       id="linearGradient835"
       x1="0"
       y1="256"
       x2="512"
       y2="256"
       gradientUnits="userSpaceOnUse" />
  </defs>
  <g
     id="g840"
     transform="matrix(0.49857968,0,0,0.49857968,0.72720473,2.354297e-7)">
    <path
       style="display:inline;fill:url(#linearGradient835);fill-opacity:1;stroke-width:1.03226"
       id="path2"
       d="M 512,256 C 512,397.41935 397.2129,512 255.5871,512 138.11613,512 39.225806,433.23871 8.8774194,325.78065 l 98.2709706,40.56774 c 6.60645,33.13548 36.0258,58.21935 71.12258,58.21935 40.46451,0 74.21935,-33.44516 72.46451,-75.87097 l 87.22581,-62.14193 c 53.78065,1.34193 98.89032,-42.21936 98.89032,-96.51613 0,-53.26452 -43.35484,-96.516129 -96.72258,-96.516129 -53.36774,0 -96.72258,43.354839 -96.72258,96.516129 v 1.23871 l -61.10968,88.46452 c -16,-0.92904 -31.69032,3.50967 -44.90322,12.49032 L 0,235.45806 C 10.529032,103.63871 120.87742,0 255.5871,0 397.2129,0 512,114.58065 512,256 Z M 160.72258,388.43871 129.23871,375.43226 a 54.492903,54.492903 0 0 0 28.07742,26.63226 c 27.76774,11.56129 59.66452,-1.65162 71.22581,-29.31613 5.57419,-13.41936 5.67741,-28.18065 0.10322,-41.6 -5.57419,-13.41936 -16,-23.94839 -29.41935,-29.52258 -13.31613,-5.5742 -27.56129,-5.36775 -40.15484,-0.61936 l 32.51613,13.41936 c 20.43871,8.46451 30.14193,31.89677 21.57419,52.33548 -8.56774,20.54194 -32,30.14194 -52.43871,21.67742 z M 340.12903,254.34839 c -35.50968,0 -64.4129,-28.90323 -64.4129,-64.30968 0,-35.40645 28.90322,-64.30968 64.4129,-64.30968 35.50968,0 64.41291,28.90323 64.41291,64.30968 0,35.40645 -28.8,64.30968 -64.41291,64.30968 z m 0.10323,-16.10323 c 26.73548,0 48.4129,-21.67742 48.4129,-48.30968 0,-26.73548 -21.67742,-48.30967 -48.4129,-48.30967 -26.73549,0 -48.41291,21.67742 -48.41291,48.30967 0.10323,26.63226 21.78065,48.30968 48.41291,48.30968 z" />
    <path
       style="display:inline;fill:#ffffff;stroke:#ffffff;stroke-width:1"
       id="icon"
       d="m 36.29677,250.67194 c 0,0 60,24.7 60,24.7 0,0 27,11.14 27,11.14 3.07,1.29 9.94,4.7 13,4.56 2.9,-0.13 7.27,-3.03 10,-4.38 4.39,-2.16 9.24,-3.82 14,-4.95 0,0 19.96,-2.67 19.96,-2.67 3.61,-1.9 7.34,-8.51 9.76,-11.98 0,0 18.62,-27 18.62,-27 0,0 20.08,-29 20.08,-29 0,0 12.65,-19 12.65,-19 1.99,-4.61 1.59,-12.04 2.37,-17 1.29,-8.25 4.04,-17.37 7.42,-25 13.67,-30.83 47.83,-55.949999 82.14,-55.999999 0,0 14,0 14,0 8.85,0.11 19.78,2.95 28,6.199999 35.6,14.1 60.55,49.31 61,87.8 0.46,39.66 -22.9,76.52 -60,91.55 -5.77,2.34 -16.84,5.36 -23,6.16 -5.07,0.66 -12.28,0.34 -17,2.37 0,0 -33,23.06 -33,23.06 0,0 -49.85,35.62 -49.85,35.62 -3.83,3.38 -3.09,7.59 -3.73,12.24 -1.24,9.07 -1.83,13.33 -5.43,22 -11.03,26.53 -36.94,42.22 -64.99,43.63 0,0 -7,-0.54 -7,-0.54 -22.04,-1.58 -41.46,-11.67 -54.23,-30.09 -3.19,-4.6 -6.37,-10.76 -8.35,-16 -2.76,-7.31 -1.65,-10.6 -9.42,-13.98 0,0 -63,-26.02 -63,-26.02 0,0 -19,-7.85 -19,-7.85 -2.49,-1.06 -6.7,-2.63 -8.49,-4.56 -2.87,-3.1 -5.23,-17.84 -6.12,-22.59 -3.28,-17.52 -6.47,-49.79 -3.39,-67 0,0 36,14.58 36,14.58 z m 239,-64.58 c -0.1,9.08 -0.2,14.07 2.44,23 7.29,24.63 31.49,44.69 57.56,45 11.95,0.14 20.94,-0.5 32,-5.78 36.13,-17.26 48.26,-65.39 23.49,-97.22 -15.34,-19.71 -36.16,-27.02 -60.49,-24.71 -29.42,4.87 -54.63,28.81 -55,59.71 z m 65,-43.77 c 6.66,-0.22 11.82,0.32 18,3.08 10.72,4.79 18.44,11.23 24.1,21.69 12.61,23.3 3.08,53.34 -20.1,65.68 -8.33,4.43 -15.74,5.42 -25,5.32 -33.51,-0.4 -55.22,-36.76 -42.54,-67 6.53,-15.55 19.4,-24.95 35.54,-28.77 3.63,-0.27 6.37,-0.24 10,0 z m -202.83,246.76 c 15.17,16.56 41.37,21.92 61.83,12.7 29.64,-13.37 41.26,-46.99 26.22,-75.69 -4.65,-8.87 -10.66,-15.33 -19.22,-20.54 -8.34,-5.07 -20.18,-8.57 -30,-7.95 -6.16,0.4 -11.27,1.05 -17,3.49 13.46,8.74 34.31,10.32 46.68,25 18.89,22.45 7.46,56.46 -20.68,64.07 -3.96,1.08 -7.93,0.98 -12,0.93 -13.37,-0.16 -30.44,-11.34 -44,-15 1.61,5.04 4.61,9.1 8.17,12.99 z" />
  </g>
</svg>
