<?xml version="1.0" encoding="UTF-8" standalone="no"?>
<svg
   width="256"
   height="256"
   viewBox="0 0 67.733334 67.733333"
   version="1.1"
   id="svg8"
   xmlns="http://www.w3.org/2000/svg"
   xmlns:svg="http://www.w3.org/2000/svg"
   xmlns:rdf="http://www.w3.org/1999/02/22-rdf-syntax-ns#"
   xmlns:cc="http://creativecommons.org/ns#"
   xmlns:dc="http://purl.org/dc/elements/1.1/">
  <defs
     id="defs2">
    <clipPath
       clipPathUnits="userSpaceOnUse"
       id="clipPath879">
      <path
         d="M 0,480 H 640 V 0 H 0 Z"
         id="path877" />
    </clipPath>
  </defs>
  <metadata
     id="metadata5">
    <rdf:RDF>
      <cc:Work
         rdf:about="">
        <dc:format>image/svg+xml</dc:format>
        <dc:type
           rdf:resource="http://purl.org/dc/dcmitype/StillImage" />
      </cc:Work>
    </rdf:RDF>
  </metadata>
  <g
     transform="translate(-28.375171,-88.864773)"
     id="layer1">
    <g
       transform="matrix(0.34411704,0,0,0.34411704,26.328141,66.605426)"
       id="g998"
       style="display:inline">
      <g
         id="g935"
         transform="matrix(2.235563,0,0,2.235563,-128.94924,-130.62395)">
        <path
           style="fill:#000000;stroke:none;stroke-width:0.264583px;stroke-linecap:butt;stroke-linejoin:miter;stroke-opacity:1"
           d="m 60.341795,116.86133 15.000002,-15.31055 16.978886,16.66127 15.338077,-16.66127 h 23.60379 l 17.12519,17.20471 v 24.04028 l -15.75596,16.16294 -14.44852,-14.44852 -14.93912,16.71442 H 77.939452 L 60.341795,142.98047 Z"
           id="path924" />
        <path
           style="fill:#ffe700;fill-opacity:1;stroke:none;stroke-width:0.264583px;stroke-linecap:butt;stroke-linejoin:miter;stroke-opacity:1"
           d="m 62.474252,142.12057 v -24.38834 l 12.895754,-13.16303 16.437076,16.16981 v 11.62622 l 14.566188,0.20045 10.35669,10.55715 -14.43255,15.96935 H 78.844509 Z"
           id="path855" />
        <path
           style="fill:#000000;stroke:none;stroke-width:0.264583px;stroke-linecap:butt;stroke-linejoin:miter;stroke-opacity:1"
           d="m 69.642113,132.48065 v -1.60639 l 1.214583,-1.14777 2.462824,0.71897 v 1.8462 l -2.20943,0.64213 z"
           id="path851" />
        <path
           style="fill:#000000;stroke:none;stroke-width:0.264583px;stroke-linecap:butt;stroke-linejoin:miter;stroke-opacity:1"
           d="m 80.934152,126.90551 h 2.669455 l 1.424415,-2.63083 -1.660648,-2.73171 -2.4096,-0.4961 -1.771762,3.85064 z"
           id="path853" />
        <path
           style="fill:#000000;stroke:none;stroke-width:0.264583px;stroke-linecap:butt;stroke-linejoin:miter;stroke-opacity:1"
           d="m 80.915848,149.06958 3.541321,2.73951 h 3.87541 l 2.672694,-0.26727 3.875407,-3.4745 1.536801,-3.40769 -0.200451,-6.88219 -0.935445,5.61266 -1.937703,2.87315 -4.476766,3.8754 h -5.278572 z"
           id="path857" />
        <path
           style="fill:#038bdc;fill-opacity:1;stroke:none;stroke-width:0.264583px;stroke-linecap:butt;stroke-linejoin:miter;stroke-opacity:1"
           d="m 125.01532,135.90655 0.33409,4.47677 2.87314,2.73951 6.1472,-0.13363 1.00226,-5.3454 4.14268,-0.8018 -1.5368,-10.89124 -6.88219,0.93545 -0.46772,6.1472 -1.87089,2.13815 z"
           id="path859" />
        <path
           style="fill:#038bdc;fill-opacity:1;stroke:none;stroke-width:0.264583px;stroke-linecap:butt;stroke-linejoin:miter;stroke-opacity:1"
           d="m 109.04597,122.94398 3.40768,3.40769 4.27631,-0.93545 0.40091,-3.67495 -3.20724,-3.47451 -3.27405,-0.13363 z"
           id="path861" />
        <path
           style="fill:#038bdc;fill-opacity:1;stroke:none;stroke-width:0.264583px;stroke-linecap:butt;stroke-linejoin:miter;stroke-opacity:1"
           d="m 125.01532,112.32002 -0.0668,3.0736 -4.00904,0.20044 -1.67044,-1.46997 1.5368,-2.73952 h 2.93997 z"
           id="path863" />
      </g>
    </g>
  </g>
</svg>
