<?xml version="1.0" encoding="UTF-8" standalone="no"?>
<svg
   width="256"
   height="256"
   viewBox="0 0 67.733334 67.733334"
   version="1.1"
   id="svg8"
   xmlns="http://www.w3.org/2000/svg"
   xmlns:svg="http://www.w3.org/2000/svg"
   xmlns:rdf="http://www.w3.org/1999/02/22-rdf-syntax-ns#"
   xmlns:cc="http://creativecommons.org/ns#"
   xmlns:dc="http://purl.org/dc/elements/1.1/">
  <defs
     id="defs2">
    <clipPath
       clipPathUnits="userSpaceOnUse"
       id="clipPath879">
      <path
         d="M 0,480 H 640 V 0 H 0 Z"
         id="path877" />
    </clipPath>
  </defs>
  <metadata
     id="metadata5">
    <rdf:RDF>
      <cc:Work
         rdf:about="">
        <dc:format>image/svg+xml</dc:format>
        <dc:type
           rdf:resource="http://purl.org/dc/dcmitype/StillImage" />
      </cc:Work>
    </rdf:RDF>
  </metadata>
  <g
     transform="translate(-28.375316,-88.864679)"
     id="layer1">
    <g
       transform="matrix(0.76930085,0,0,0.76930085,-18.046249,21.654811)"
       id="g998"
       style="display:inline;stroke:none;fill:#333333;fill-opacity:1">
      <path
         id="path857"
         style="display:inline;fill:#333333;fill-opacity:1;stroke:none;stroke-width:0.264583px;stroke-linecap:butt;stroke-linejoin:miter;stroke-opacity:1"
         d="m 80.915848,149.06958 3.541321,2.73951 h 3.87541 l 2.672694,-0.26727 3.875407,-3.4745 1.536801,-3.40769 -0.200451,-6.88219 -0.935445,5.61266 -1.937703,2.87315 -4.476766,3.8754 h -5.278572 z m 0.0183,-22.16407 h 2.669455 l 1.424415,-2.63083 -1.660648,-2.73171 -2.4096,-0.4961 -1.771762,3.85064 z m -11.292039,5.57514 v -1.60639 l 1.214583,-1.14777 2.462824,0.71897 v 1.8462 l -2.20943,0.64213 z m 5.699514,-30.92987 -14.999089,15.30994 v 26.11926 l 17.597049,18.24429 h 25.303837 l 14.94052,-16.71404 14.44796,14.44796 15.75595,-16.16292 v -24.03939 l -17.12551,-17.2051 h -23.60389 l -15.338483,16.66148 z m 0.02853,3.01844 16.436226,16.17042 v 11.62625 l 14.566601,0.19973 10.3573,10.55702 -14.43294,15.9692 H 78.845119 L 62.474968,142.121 v -24.38928 z m 45.435777,6.81476 h 2.94035 l 1.26894,0.93557 -0.0661,3.074 -4.00957,0.20123 -1.6699,-1.47017 z m -10.15608,6.74869 3.27373,0.13365 3.20766,3.47496 -0.40096,3.67469 -4.27687,0.93557 -3.40738,-3.40739 z m 27.32814,7.81791 1.53625,10.89191 -4.14172,0.80191 -1.00314,5.34459 -6.1465,0.13365 -2.87278,-2.73912 -0.33488,-4.4766 3.74227,-0.73584 1.87113,-2.13693 0.46703,-6.148 z" />
    </g>
  </g>
</svg>
