<?xml version="1.0" encoding="UTF-8" standalone="no"?>
<svg
   width="480"
   height="63.747879"
   viewBox="0 0 127 16.866627"
   version="1.1"
   id="svg8"
   xmlns="http://www.w3.org/2000/svg"
   xmlns:svg="http://www.w3.org/2000/svg"
   xmlns:rdf="http://www.w3.org/1999/02/22-rdf-syntax-ns#"
   xmlns:cc="http://creativecommons.org/ns#"
   xmlns:dc="http://purl.org/dc/elements/1.1/">
  <defs
     id="defs2">
    <clipPath
       clipPathUnits="userSpaceOnUse"
       id="clipPath879">
      <path
         d="M 0,480 H 640 V 0 H 0 Z"
         id="path877" />
    </clipPath>
  </defs>
  <metadata
     id="metadata5">
    <rdf:RDF>
      <cc:Work
         rdf:about="">
        <dc:format>image/svg+xml</dc:format>
        <dc:type
           rdf:resource="http://purl.org/dc/dcmitype/StillImage" />
      </cc:Work>
    </rdf:RDF>
  </metadata>
  <g
     transform="translate(1.4958478,-118.15648)"
     id="layer1">
    <g
       transform="matrix(0.34411704,0,0,0.34411704,26.328141,66.605426)"
       id="g998"
       style="display:inline">
      <g
         id="g438"
         style="display:inline;stroke:none;fill:#333333;fill-opacity:1"
         transform="matrix(2.9044997,0,0,2.9044997,-197.44722,-331.98067)">
        <path
           style="fill:#333333;fill-rule:nonzero;stroke-width:0.128265;stroke:none;fill-opacity:1"
           d="m 99.891124,175.55887 h 0.373376 c 0.34825,0 0.94481,0.0717 1.19031,0.21587 0.24576,0.14289 0.4075,0.30322 0.48561,0.48061 0.0784,0.17765 0.11802,0.56898 0.11802,1.17337 v 2.37291 c 0,0.71611 -0.75664,1.0809 -1.12143,1.16004 -0.36568,0.0791 -0.72136,0.11874 -1.068319,0.11874 -0.99906,0 -1.861133,-0.25986 -2.588398,-0.77998 -0.726239,-0.5205 -1.252384,-1.33396 -1.578948,-2.44346 -0.325923,-1.10782 -0.488178,-2.39599 -0.488178,-3.8672 0,-1.21365 0.148916,-2.39728 0.447005,-3.55039 0.298217,-1.15362 0.805892,-2.05225 1.522511,-2.69742 0.716619,-0.64428 1.614863,-0.96674 2.693575,-0.96674 1.129252,0 1.789302,0.28578 2.620462,1.14952 0.84963,0.88259 1.66489,1.8855 2.14075,3.35799 h 0.69482 v -5.40639 h -0.39519 c -0.14263,0.43302 -0.29834,0.72688 -0.46855,0.88234 -0.17072,0.15584 -0.35555,0.23331 -0.55385,0.23331 -0.12788,0 -0.54218,-0.14071 -1.24097,-0.42212 -0.69918,-0.2818 -1.20518,-0.45291 -1.51738,-0.51319 -0.57502,-0.11993 -1.02177,-0.18047 -1.738,-0.18047 -2.313909,0 -4.235326,0.79525 -5.761685,2.38574 -1.526359,1.59177 -2.289539,3.54012 -2.289539,5.84634 0,1.28907 0.248066,2.45372 0.745094,3.49395 0.390569,0.80653 0.932106,1.53149 1.623841,2.17666 0.692249,0.64441 1.491728,1.16491 2.396,1.561 0.905169,0.39518 2.043269,0.5931 3.413144,0.5931 1.072305,0 2.106125,-0.1108 3.104025,-0.33221 0.99791,-0.22216 1.95733,-0.55103 2.88213,-0.98649 v -3.18868 c 0,-0.55898 0.0314,-0.91043 0.0953,-1.05357 0.1133,-0.27218 0.27436,-0.46625 0.48369,-0.58374 0.20894,-0.11757 0.77908,-0.19419 1.31087,-0.23255 v -0.52204 h -7.53303 v 0.52204 z"
           id="path926" />
        <path
           style="fill:#333333;fill-rule:nonzero;stroke-width:0.128265;stroke:none;fill-opacity:1"
           d="m 118.10361,179.68902 c -0.8586,0.65761 -2.00094,0.98597 -3.42597,0.98597 h -0.81243 c -0.4352,0 -0.74958,-0.0594 -0.94493,-0.17906 -0.19458,-0.11977 -0.32823,-0.27282 -0.39916,-0.45983 -0.0712,-0.18675 -0.10712,-0.69866 -0.10712,-1.53534 v -4.28278 c 0.73188,0 1.58921,0.0952 1.97401,0.28667 0.38402,0.19048 0.72175,0.56322 1.0115,1.11732 0.29116,0.55411 0.48151,1.16581 0.57194,2.03429 h 0.61772 v -7.88191 h -0.61772 c -0.12066,1.18428 -0.39955,1.97914 -0.83745,2.58583 -0.43713,0.60683 -1.14272,0.91018 -2.1151,0.91018 h -0.60503 v -5.28711 c -0.005,-0.91889 0.8141,-0.81243 0.8141,-0.81243 h 0.95712 c 1.1576,0 1.94579,0.0676 2.3665,0.20253 0.72111,0.22421 1.27893,0.57617 1.67386,1.05447 0.39481,0.4792 0.70046,1.26803 0.91864,2.36778 h 0.51781 v -4.50212 h -12.87785 v 0.6167 h 0.40621 c 0.49459,0 0.88503,0.1046 1.1694,0.31348 0.20266,0.14212 0.3417,0.34465 0.41635,0.60606 0.0376,0.15635 0.0566,0.57899 0.0566,1.26675 v 9.52499 c 0,0.76241 -0.0411,1.23328 -0.12391,1.41349 -0.10505,0.25384 -0.25512,0.43341 -0.44983,0.53794 -0.27038,0.15739 -0.62644,0.2355 -1.06858,0.2355 h -0.40621 v 0.71649 h 13.0959 l 0.78691,-4.8433 h -0.7188 c -0.37505,1.34807 -0.99213,2.3511 -1.85087,3.00782"
           id="path928" />
        <path
           style="fill:#333333;fill-rule:nonzero;stroke-width:0.128265;stroke:none;fill-opacity:1"
           d="m 128.50558,166.0544 c -2.19462,-0.0906 -4.04421,0.62478 -5.5462,2.14716 -1.50456,1.52123 -2.25491,3.42341 -2.25491,5.70397 0,2.03172 0.57758,3.78768 1.73415,5.26786 1.46223,1.87267 3.53243,2.8103 6.21062,2.8103 2.6692,0 4.73684,-0.982 6.20035,-2.94626 1.10436,-1.4789 1.65719,-3.19381 1.65719,-5.14345 0,-2.28056 -0.74112,-4.18017 -2.22156,-5.69883 -1.48147,-1.51867 -3.40673,-2.23182 -5.77708,-2.14075 m 3.50037,12.19035 c -0.35812,1.06075 -0.85938,1.83291 -1.50327,2.31519 -0.5046,0.37787 -1.134,0.56629 -1.88807,0.56629 -1.1195,0 -1.9894,-0.43803 -2.61277,-1.31344 -0.89221,-1.25302 -1.33909,-3.18868 -1.33909,-5.80914 0,-2.20488 0.28873,-3.89542 0.86682,-5.0729 0.70943,-1.43401 1.74441,-2.15101 3.1053,-2.15101 0.73881,0 1.39169,0.20792 1.95862,0.62311 0.56693,0.41507 1.03318,1.12681 1.39938,2.13434 0.36568,1.00829 0.54871,2.52683 0.54871,4.55855 0,1.70593 -0.17905,3.08992 -0.53794,4.15067"
           id="path930" />
        <path
           style="fill:#333333;fill-rule:nonzero;stroke-width:0.128265;stroke:none;fill-opacity:1"
           id="path934"
           d="m 78.624826,181.89518 c 2.669205,0 4.736845,-0.98213 6.200354,-2.94626 1.104365,-1.48018 1.65719,-3.19381 1.65719,-5.14344 0,-2.28056 -0.741118,-4.18017 -2.221558,-5.69884 -1.481467,-1.51866 -3.406732,-2.23182 -5.777078,-2.14075 -2.194622,-0.0905 -4.04421,0.62478 -5.546199,2.14717 -1.504554,1.52123 -2.254907,3.4234 -2.254907,5.70396 0,2.03173 0.577579,3.78768 1.734149,5.26787 1.462227,1.87267 3.532431,2.81029 6.210615,2.81029 m -3.142505,-13.0446 c 0.709437,-1.434 1.744411,-2.15101 3.105308,-2.15101 0.738809,0 1.39168,0.20753 1.958614,0.62286 0.566933,0.41519 1.033178,1.12694 1.399376,2.13434 0.365685,1.00829 0.54872,2.52683 0.54872,4.55727 0,1.70593 -0.179059,3.08991 -0.537946,4.15067 -0.358117,1.06088 -0.859378,1.83291 -1.503271,2.31647 -0.504597,0.37762 -1.133995,0.56617 -1.888068,0.56617 -1.119501,0 -1.989398,-0.43803 -2.612768,-1.31344 -0.892214,-1.25303 -1.339091,-3.18868 -1.339091,-5.80914 0,-2.20489 0.288725,-3.89543 0.866818,-5.0729" />
        <path
           style="fill:#333333;fill-rule:nonzero;stroke-width:0.128265;stroke:none;fill-opacity:1"
           id="path936"
           d="m 70.442094,176.55934 h -0.718928 c -0.37492,1.34807 -0.992262,2.3511 -1.850871,3.00782 -0.858609,0.65749 -2.000941,0.98598 -3.424688,0.98598 h -0.812434 c -0.435076,0 -0.749327,-0.0597 -0.944932,-0.17906 -0.194707,-0.11977 -0.328103,-0.27295 -0.399418,-0.45996 -0.07101,-0.18701 -0.106961,-0.69866 -0.106961,-1.53534 V 174.096 c 0.731755,0 1.589209,0.0952 1.974006,0.2868 0.384412,0.19035 0.722006,0.56309 1.011886,1.11719 0.290778,0.55411 0.481381,1.16581 0.571936,2.03429 h 0.617727 v -7.88191 H 65.74169 c -0.121108,1.18376 -0.40006,1.97914 -0.837702,2.58583 -0.436744,0.60683 -1.142589,0.91005 -2.115098,0.91005 h -0.605413 v -5.28711 c -0.005,-0.91902 0.814743,-0.81243 0.814743,-0.81243 h 0.956347 c 1.157853,0 1.94707,0.0675 2.367781,0.2024 0.721621,0.22408 1.279448,0.57604 1.673864,1.05447 0.394673,0.47907 0.700715,1.26842 0.918766,2.36778 h 0.517679 V 166.1674 H 56.554803 v 0.62067 h 0.405832 c 0.494848,0 0.884904,0.10476 1.16991,0.31349 0.202403,0.14198 0.341058,0.34439 0.415708,0.60592 0.03786,0.15649 0.05687,0.57886 0.05687,1.26662 v 9.525 c 0,0.76215 -0.04111,1.23327 -0.123904,1.4122 -0.104755,0.25384 -0.255377,0.43379 -0.449443,0.53807 -0.270383,0.15739 -0.626448,0.2355 -1.069221,0.2355 h -0.405832 v 0.71662 h 13.095906 l 0.787293,-4.84331 z" />
        <path
           style="fill:#333333;fill-rule:nonzero;stroke-width:0.128265;stroke:none;fill-opacity:1"
           id="path938"
           d="m 45.366677,180.67666 h -0.347599 c -0.498697,0 -0.941597,-0.15302 -1.328831,-0.45919 -0.386592,-0.3063 -0.580145,-0.89606 -0.580145,-1.77006 v -9.1992 l 9.964946,12.42251 0.646073,7.7e-4 v -12.67007 c 0,-0.72034 0.05982,-0.92941 0.178674,-1.22583 0.118889,-0.29642 0.285134,-0.51037 0.497413,-0.64171 0.212408,-0.13122 0.629271,-0.23806 1.249049,-0.32079 v -0.64467 h -4.943351 v 0.64467 c 0.814999,-0.0149 1.396811,0.19509 1.741845,0.63042 0.252683,0.32259 0.378896,0.64235 0.378896,1.55843 v 6.63517 l -7.757496,-9.46856 h -4.72017 v 0.51152 c 0.448673,0.0149 0.464578,0.16534 0.703536,0.29207 l 1.264442,1.27252 -0.0018,10.20223 c 0,0.80666 -0.159305,1.37757 -0.477532,1.71363 -0.318483,0.33618 -0.883108,0.5078 -1.693104,0.51537 v 0.6167 h 5.22297 v -0.6167 z" />
        <path
           id="path940"
           stroke-width="0.0106014"
           stroke-dasharray="none"
           stroke-miterlimit="4"
           stroke-linecap="butt"
           stroke="#000000"
           stroke-dashoffset="0"
           d="m 90.109595,173.97458 c 0,0.6918 -0.560837,1.25224 -1.252238,1.25224 -0.6918,0 -1.252239,-0.56084 -1.252239,-1.25224 0,-0.6918 0.560837,-1.25224 1.252239,-1.25224 0.691799,0 1.252238,0.56084 1.252238,1.25224 z"
           style="color:#000000;fill:#333333;fill-rule:nonzero;enable-background:accumulate;stroke:none;fill-opacity:1"
           stroke-linejoin="miter" />
        <path
           id="path881"
           style="display:inline;fill:#333333;fill-opacity:1;fill-rule:nonzero;stroke:none;stroke-width:0.393126"
           d="m 145.7785,166.40939 c -1.46526,0 -2.86741,0.37021 -4.16827,1.10058 -1.30635,0.73351 -2.35758,1.77835 -3.12447,3.10523 -0.76689,1.32491 -1.15609,2.74934 -1.15609,4.23139 0,1.40823 0.35159,2.75343 1.04491,3.99898 0.70032,1.25938 1.7103,2.23882 2.99979,2.91038 1.26875,0.66087 2.73291,0.99553 4.35125,0.99553 1.24019,0 2.34725,-0.20867 3.2907,-0.62159 0.93992,-0.41139 1.85127,-1.07784 2.70779,-1.98072 l 0.17271,-0.18288 v -3.19232 l -1.09563,1.28509 c -0.77394,0.90762 -1.50746,1.54915 -2.18157,1.90723 -0.65335,0.34741 -1.38608,0.52362 -2.17724,0.52362 -0.94735,0 -1.71852,-0.22913 -2.29005,-0.68038 -0.58251,-0.45874 -1.02057,-1.16419 -1.30398,-2.09393 -0.30261,-0.99447 -0.45606,-2.1184 -0.45606,-3.34145 0,-1.22228 0.20644,-2.34303 0.61473,-3.33276 0.29988,-0.73037 0.76147,-1.30482 1.40977,-1.75646 0.64359,-0.4473 1.32959,-0.66514 2.09845,-0.66514 0.9266,0 1.73377,0.29502 2.46815,0.903 0.73011,0.60363 1.23982,1.5011 1.515,2.66653 l 0.11389,0.4828 h 1.52095 v -4.64561 h 0.52246 c 0.35504,0 0.54183,0.0664 0.63578,0.12247 0.15698,0.0935 0.19789,0.16443 0.20727,0.18615 0.0113,0.0382 0.0696,0.61228 0.0696,1.49465 v 9.50131 c 0,0.79115 -0.0367,1.04579 -0.0513,1.11527 -0.0443,0.0912 -0.1191,0.17341 -0.22831,0.23895 -0.069,0.0419 -0.2424,0.11159 -0.63308,0.11159 h -1.09673 v 1.63126 h 7.0229 c 0.96927,0 1.67064,-0.0462 2.14431,-0.13934 1.01784,-0.19422 1.90055,-0.47603 2.61929,-0.83768 0.73481,-0.36871 1.3922,-0.86565 1.95433,-1.4756 0.56529,-0.6139 1.03026,-1.39531 1.38062,-2.32308 0.34958,-0.92262 0.52623,-2.0867 0.52623,-3.17436 0,-1.57324 -0.3586,-3.00682 -1.06758,-4.26187 v -5.5e-4 c -0.72108,-1.27675 -1.79048,-2.43522 -3.18058,-3.06334 -1.11688,-0.50337 -2.58918,-0.74187 -4.37662,-0.74187 l -6.44864,-9.8e-4 h -1.57221 l -0.0734,0.54267 c -0.0421,0.30635 -0.12157,0.40685 -0.14465,0.43054 -0.0522,0.0521 -0.0911,0.064 -0.13924,0.0653 -0.0352,-0.004 -0.2522,-0.0393 -1.01361,-0.33855 -1.18617,-0.46466 -2.33386,-0.69997 -3.41161,-0.69997 z m 6.40384,0.61343 h 6.39952 c 1.70797,0 3.08212,0.23448 4.12188,0.70269 1.27226,0.57481 2.23671,1.63782 2.89398,2.80206 0.65728,1.16423 0.98554,2.48059 0.98554,3.94999 0,1.015 -0.16095,2.09459 -0.48466,2.9501 h -5.6e-4 c -0.32337,0.85552 -0.74109,1.56206 -1.25433,2.11952 -0.51321,0.55702 -1.10564,1.00479 -1.77623,1.34115 -0.67138,0.33755 -1.49239,0.59833 -2.46167,0.78271 -0.42945,0.085 -1.10362,0.12736 -2.02396,0.12736 h -6.39952 v -0.37393 h 0.47334 c 0.41378,0 0.73088,-0.066 0.95206,-0.19867 0.22041,-0.13265 0.38372,-0.3137 0.489,-0.54267 0.063,-0.15001 0.0944,-0.6013 0.0944,-1.35258 v -9.50131 c 0,-0.74418 -0.0387,-1.54726 -0.11551,-1.73361 -0.0771,-0.18633 -0.23304,-0.34902 -0.46794,-0.48878 -0.23488,-0.13976 -0.55239,-0.20955 -0.95207,-0.20955 h -0.47334 z m -6.40384,0.0147 c 1.00532,0 2.0669,0.21916 3.18492,0.65697 0.64751,0.25424 1.05819,0.38101 1.23436,0.38101 0.2247,0 0.42024,-0.0825 0.58505,-0.24874 0.16562,-0.16621 0.27251,-0.4288 0.32222,-0.78924 h 0.40478 v 5.00539 h -0.40478 c -0.30927,-1.30794 -0.88493,-2.31031 -1.72658,-3.00671 -0.84245,-0.69682 -1.79684,-1.0456 -2.86323,-1.0456 -0.89099,0 -1.70859,0.25859 -2.45197,0.77617 -0.74419,0.51796 -1.28746,1.19544 -1.63158,2.03242 -0.44196,1.07104 -0.66333,2.26253 -0.66333,3.57442 0,1.29096 0.16116,2.46611 0.48413,3.52653 0.32258,1.06 0.82827,1.86132 1.51609,2.40417 0.68781,0.54283 1.57887,0.81318 2.6738,0.81318 0.89766,0 1.7199,-0.19831 2.46761,-0.59546 0.74772,-0.39757 1.53471,-1.08167 2.36347,-2.05365 v 1.24537 c -0.80175,0.84522 -1.63674,1.45768 -2.50542,1.83864 -0.8679,0.3794 -1.8821,0.56988 -3.04242,0.56988 -1.52596,0 -2.88113,-0.30864 -4.06574,-0.92531 -1.18457,-0.61705 -2.0986,-1.50367 -2.7418,-2.65999 -0.64357,-1.15595 -0.96503,-2.38573 -0.96503,-3.69091 0,-1.37584 0.35623,-2.68104 1.07028,-3.91515 0.71364,-1.23374 1.67691,-2.19128 2.88969,-2.87228 1.21316,-0.68063 2.50085,-1.02111 3.86548,-1.02111 z m 11.85775,0.78652 v 11.60993 c 0,0.59653 0.0278,0.96229 0.0842,1.09731 0.0556,0.13503 0.1504,0.23795 0.28389,0.30862 0.18907,0.10652 0.46258,0.15948 0.82038,0.15948 1.17049,0 2.06415,-0.40408 2.68188,-1.21379 0.84128,-1.09397 1.26189,-2.93616 1.26189,-5.2378 0,-1.85395 -0.28727,-3.33465 -0.86195,-4.44204 -0.45607,-0.86696 -1.04156,-1.64993 -1.75681,-1.9622 -0.50498,-0.21988 -1.3426,-0.32662 -2.51349,-0.31951 z m 0.62285,0.63792 c 0.92542,0.0332 1.40179,0.15353 1.64291,0.25854 0.58684,0.25662 1.06254,0.93593 1.45402,1.67971 0.52301,1.00909 0.78853,2.40577 0.78853,4.14758 0,2.14805 -0.37989,3.8769 -1.13072,4.85243 l -5.5e-4,-5.6e-4 c -0.49872,0.65418 -1.21398,0.97104 -2.18912,0.97104 -0.34802,0 -0.48432,-0.0617 -0.5176,-0.0806 -0.004,-0.002 -0.005,-0.003 -0.008,-0.004 -0.0114,-0.068 -0.0393,-0.2815 -0.0393,-0.85237 z" />
      </g>
    </g>
  </g>
</svg>
