<?xml version="1.0" encoding="UTF-8" standalone="no"?>
<svg
   width="256.00003"
   height="256"
   version="1.1"
   viewBox="0 0 67.733341 67.733336"
   id="svg8"
   xmlns="http://www.w3.org/2000/svg"
   xmlns:svg="http://www.w3.org/2000/svg"
   xmlns:rdf="http://www.w3.org/1999/02/22-rdf-syntax-ns#"
   xmlns:cc="http://creativecommons.org/ns#"
   xmlns:dc="http://purl.org/dc/elements/1.1/">
  <defs
     id="defs12" />
  <metadata
     id="metadata2">
    <rdf:RDF>
      <cc:Work
         rdf:about="">
        <dc:format>image/svg+xml</dc:format>
        <dc:type
           rdf:resource="http://purl.org/dc/dcmitype/StillImage" />
      </cc:Work>
    </rdf:RDF>
  </metadata>
  <path
     d="m 37.006509,19.44206 -5.719235,22.422071 c 0,0 -4.372659,-16.830569 -5.084025,-19.217984 -0.711683,-2.391151 -2.175583,-3.438811 -4.252026,-3.438811 -2.077004,0 -3.543652,1.047566 -4.254924,3.438811 -0.708393,2.387228 -5.082342,19.217984 -5.082342,19.217984 L 6.891077,19.44206 H 0 c 0,0 6.61851,23.922731 7.518066,26.694187 0.699825,2.162409 2.357606,3.93031 4.815008,3.93031 2.80986,0 4.123732,-2.048411 4.732313,-3.93031 0.601918,-1.87106 4.885929,-17.671537 4.885929,-17.671537 0,0 4.283984,15.800851 4.884622,17.671537 0.607861,1.881899 1.922078,3.93031 4.731004,3.93031 2.459457,0 4.114202,-1.767808 4.818372,-3.93031 0.897612,-2.770615 7.511527,-26.694187 7.511527,-26.694187 z m 23.627458,30.393512 h 6.52385 V 28.73382 h -6.52385 z m -0.63231,-28.479843 c 0,2.033834 1.71577,3.684747 3.82248,3.684747 2.19212,0 3.9092,-1.616901 3.9092,-3.684747 0,-2.068501 -1.71708,-3.688952 -3.9092,-3.688952 -2.10671,0 -3.82248,1.653155 -3.82248,3.688952 M 47.377801,49.835572 h 6.521894 V 28.73382 H 47.377801 Z M 46.743608,21.355729 c 0,2.033834 1.71249,3.684747 3.820518,3.684747 2.190814,0 3.911155,-1.616901 3.911155,-3.684747 0,-2.068501 -1.720435,-3.688952 -3.911155,-3.688952 -2.108028,0 -3.820518,1.653155 -3.820518,3.688952"
     fill="#a1a0a4"
     id="path4"
     style="stroke-width:0.934409" />
</svg>
