<?xml version="1.0" encoding="UTF-8" standalone="no"?>
<svg
   width="158.75mm"
   height="75.936989mm"
   version="1.1"
   viewBox="0 0 158.75 75.936988"
   id="svg8"
   xmlns="http://www.w3.org/2000/svg"
   xmlns:svg="http://www.w3.org/2000/svg"
   xmlns:rdf="http://www.w3.org/1999/02/22-rdf-syntax-ns#"
   xmlns:cc="http://creativecommons.org/ns#"
   xmlns:dc="http://purl.org/dc/elements/1.1/">
  <defs
     id="defs12" />
  <metadata
     id="metadata2">
    <rdf:RDF>
      <cc:Work
         rdf:about="">
        <dc:format>image/svg+xml</dc:format>
        <dc:type
           rdf:resource="http://purl.org/dc/dcmitype/StillImage" />
      </cc:Work>
    </rdf:RDF>
  </metadata>
  <path
     d="M 86.734005,4.16082 73.329547,56.712549 c 0,0 -10.248419,-39.446647 -11.915682,-45.042149 -1.668007,-5.604262 -5.099024,-8.059713 -9.965687,-8.059713 -4.867978,0 -8.305434,2.455232 -9.972477,8.059713 -1.660298,5.595064 -11.91174,45.042149 -11.91174,45.042149 L 16.150962,4.16082 H 0 c 0,0 15.512133,56.068902 17.620466,62.564502 1.640216,5.068145 5.52564,9.211664 11.285175,9.211664 6.58561,0 9.664998,-4.800963 11.091358,-9.211664 1.410746,-4.385297 11.451398,-41.417665 11.451398,-41.417665 0,0 10.040586,37.033244 11.448331,41.417665 1.424674,4.410701 4.504872,9.211664 11.088292,9.211664 5.764353,0 9.64266,-4.1433 11.293059,-9.211664 C 87.381857,60.231693 102.88322,4.16082 102.88322,4.16082 Z m 55.376855,71.234793 h 15.29028 V 25.938383 H 142.11086 Z M 140.62889,8.645982 c 0,4.766798 4.02132,8.636126 8.95894,8.636126 5.13778,0 9.16217,-3.789611 9.16217,-8.636126 C 158.75,3.797934 154.72561,0 149.58783,0 c -4.93762,0 -8.95894,3.874584 -8.95894,8.645982 m -29.58717,66.749631 h 15.28569 V 25.938383 H 111.04172 Z M 109.55533,8.645982 c 0,4.766798 4.01365,8.636126 8.95434,8.636126 5.13472,0 9.16677,-3.789611 9.16677,-8.636126 C 127.67644,3.797934 123.64417,0 118.50967,0 c -4.94069,0 -8.95434,3.874584 -8.95434,8.645982"
     fill="#a1a0a4"
     id="path4"
     style="stroke-width:2.19002;fill:#cccccc" />
</svg>
