<?xml version="1.0" encoding="UTF-8" standalone="no"?>
<!-- Generator: Adobe Illustrator 18.0.0, SVG Export Plug-In . SVG Version: 6.00 Build 0)  -->

<svg
   version="1.1"
   id="svg2"
   x="0px"
   y="0px"
   viewBox="0.9 -0.2 480 84.043833"
   enable-background="new 0.9 -0.2 1126.5 197.4"
   xml:space="preserve"
   width="480"
   height="84.043831"
   xmlns="http://www.w3.org/2000/svg"
   xmlns:svg="http://www.w3.org/2000/svg"><defs
   id="defs15" />




<g
   id="g303"
   transform="matrix(0.42609944,0,0,0.42609944,0.51549181,-0.17232721)"
   style="stroke:none;fill:#333333;fill-opacity:1"><path
     fill="#393c9f"
     d="m 215.7,100.6 16.4,-36.6 7.2,36.6 H 215.7 M 447.8,4.9 403.3,108.4 383.6,4.9 H 345.3 L 290.8,157.4 265.3,4.9 h -47.8 l -72.4,164.4 10.8,-68.7 H 84 L 78.3,136 h 30.2 L 105,154.9 C 87.8,162 58.6,159.3 46.1,136.9 38.2,122.7 30.8,91.1 64.1,62 91.3,38.3 138.3,34 165.4,46.4 c 0,0 3.4,-19.9 6,-38.3 -52.1,-18 -92.6,-3 -119.7,13.8 -37.1,22.7 -54.9,57.6 -50,105 5.5,54.9 76.6,89.6 136.9,54.6 0.7,-0.3 1,-0.6 1.6,-0.7 l -5.8,12.8 h 40.5 l 25.5,-56.5 h 44.8 l 9.8,56.5 h 66 L 354.6,88.1 382.2,193.6 H 408 l 44.3,-116.8 17.5,117.5 h 38.7 L 494.4,4.9 Z"
     id="path2"
     style="stroke:none;fill:#333333;fill-opacity:1" /><polyline
     fill="#393c9f"
     points="508.5,194.4 616.6,194.4 623.1,154 555.5,154 560.8,120.3 619.7,120.3 626.1,79.8 566.7,79.8   571.8,46.3 639.5,46.3 645.9,5.8 538.6,5.8 508.5,194.4 "
     id="polyline4"
     style="stroke:none;fill:#333333;fill-opacity:1" /><polyline
     fill="#393c9f"
     points="1043.8,65.1 1019.6,3.6 975.2,3.6 1021,103.1 1006.8,192.2 1045.7,192.2 1057.5,113.4 1127.4,3.6   1082,3.6 1043.8,65.1 "
     id="polyline6"
     style="stroke:none;fill:#333333;fill-opacity:1" /><path
     fill="#393c9f"
     d="m 952.4,117.5 c -10.4,31.2 -35.6,49.4 -56.1,40.1 -20.4,-9.1 -28.7,-42 -18.2,-73.4 10.5,-31.5 35.6,-49.3 56,-40.2 20.5,9.2 28.8,42.1 18.3,73.5 M 937.3,6.6 c -43,-9.9 -87.7,24.3 -99.8,76.4 -11.9,52.2 13.1,102.5 56,112.5 43,9.8 87.6,-24.4 99.8,-76.5 11.9,-52.2 -13.2,-102.5 -56,-112.4 z"
     id="path8"
     style="stroke:none;fill:#333333;fill-opacity:1" /><path
     fill="#393c9f"
     d="m 761.3,82 c -21.3,0 -26.8,0 -26.8,0 l 5.9,-35 c 0,0 0.8,0 25.2,0 27.4,0 21.8,35 -4.3,35 m -4.7,76.2 c -21.4,0 -34.2,0 -34.2,0 l 6,-37.6 c 0,0 8.1,0 32.4,0 30.9,0 30,37.6 -4.2,37.6 z M 779.3,7.1 c -20.9,-0.3 -72.6,0 -72.6,0 h 0.4 l -30,187.3 c 0,0 62.1,0 87.3,0 36,0 88.5,-52.9 40.6,-96.1 49,-50.9 0.4,-90.6 -25.7,-91.2 z"
     id="path10"
     style="stroke:none;fill:#333333;fill-opacity:1" /></g>
</svg>
