<?xml version="1.0" encoding="UTF-8" standalone="no"?>
<!-- Created with Inkscape (http://www.inkscape.org/) -->

<svg
   version="1.1"
   id="svg2"
   width="256"
   height="256"
   viewBox="0 0 255.99999 256.00001"
   xmlns="http://www.w3.org/2000/svg"
   xmlns:svg="http://www.w3.org/2000/svg">
  <defs
     id="defs6" />
  <g
     id="g8"
     transform="matrix(0.53333322,0,0,0.53333322,-582.02777,-41.264153)"
     style="fill:#333333;fill-opacity:1">
    <path
       style="fill:#333333;stroke-width:0.240365;fill-opacity:1"
       d="m 1108.3194,364.76652 -16.9971,-9.78627 -0.01,-20.92572 -0.01,-20.92572 16.1453,-9.30027 16.1453,-9.30026 65.6391,-0.005 65.6392,-0.005 12.0278,-17.12056 12.0277,-17.12056 51.3086,-0.0536 51.3086,-0.0536 11.9951,17.17961 11.995,17.17962 66.7247,0.009 66.7247,0.009 16.1045,9.32063 16.1045,9.32063 0.055,20.89625 0.055,20.89625 -16.9456,9.79491 -16.9456,9.79489 -206.0486,-0.009 -206.0485,-0.009 z m 441.5886,-4.07497 14.4395,-8.35008 -0.062,-18.2656 -0.062,-18.26561 -6.1293,-3.56643 c -3.3711,-1.96153 -9.4267,-5.47905 -13.4569,-7.81669 l -7.3275,-4.25027 -67.3949,-0.12018 -67.3949,-0.12019 -12.0233,-17.00587 -12.0234,-17.00587 h -48.3543 -48.3544 l -11.8835,17.05256 -11.8835,17.05257 -66.3084,0.0134 -66.3084,0.0134 -13.5531,7.84586 -13.5531,7.84587 v 18.22827 18.22827 l 0.6412,0.42618 c 0.3527,0.2344 6.8155,4.01259 14.3618,8.39596 l 13.7207,7.9698 204.2347,0.0224 204.2347,0.0224 z m -424.2309,-20.43916 v -16.29024 l 7.7323,-5.22249 7.7322,-5.22249 h 25.36 25.3599 l -3.2268,2.19451 c -1.7747,1.20699 -5.1367,3.47844 -7.4712,5.04768 l -4.2444,2.85316 h -16.2467 -16.2468 v 11.29719 11.29719 h 11.6649 11.665 l -0.067,-3.06466 -0.067,-3.06467 -9.2762,-0.12018 -9.2762,-0.12018 7.395,-4.98759 7.3951,-4.98759 h 11.3155 11.3155 v 8.48328 8.48327 l -7.2317,4.85702 -7.2317,4.85703 h -23.1746 -23.1745 z m 65.6783,-0.32969 0.062,-16.61993 7.982,-4.89405 7.982,-4.89405 22.2058,0.0613 22.2057,0.0613 -7.3947,4.98759 -7.3948,4.98758 h -13.4788 -13.4788 v 3.1231 3.1231 l 16.4365,0.0618 16.4365,0.0617 -7.4026,4.98758 -7.4027,4.98759 h -9.0339 -9.0338 v 3.12476 3.12475 h 20.9713 20.9713 l -7.7495,5.16786 -7.7495,5.16787 h -22.5978 -22.5977 z m 65.0806,-4.89281 v -21.51272 l 9.5546,0.003 9.5545,0.003 11.2972,6.20703 11.2972,6.20704 0.064,-6.2099 0.064,-6.2099 h 9.3703 9.3703 v 21.51273 21.51273 h -9.3743 -9.3742 v -7.18798 -7.18798 l -11.4391,-7.11378 c -6.2915,-3.91258 -11.5374,-7.11378 -11.6577,-7.11378 -0.1289,0 -0.2187,5.87243 -0.2187,14.30176 v 14.30176 h -9.2541 -9.2541 z m 65.9187,4.89281 0.062,-16.61993 7.982,-4.89405 7.9821,-4.89405 22.2057,0.0613 22.2058,0.0613 -7.3949,4.98759 -7.3947,4.98758 h -13.4789 -13.4787 v 3.1231 3.1231 l 16.4312,0.0618 16.4313,0.0617 -7.3979,4.98758 -7.3979,4.98759 h -9.0334 -9.0333 v 3.12476 3.12475 h 20.9713 20.9713 l -7.7495,5.16786 -7.7495,5.16787 h -22.5977 -22.5978 z m 58.9633,16.41451 c 0.1256,-0.11297 3.5561,-2.43851 7.6234,-5.16786 l 7.3949,-4.96245 h 13.464 13.4639 l -0.067,-3.06466 -0.067,-3.06467 -20.8517,-0.0614 -20.8517,-0.0614 v -8.03778 -8.03777 l 7.6316,-5.17302 7.6316,-5.17302 22.9429,-0.008 c 12.6186,-0.004 22.8402,0.0839 22.7146,0.19631 -0.1256,0.11236 -3.4783,2.38381 -7.4504,5.04768 l -7.222,4.84337 h -13.7499 -13.7499 v 3.12476 3.12475 h 20.9118 20.9119 v 8.25686 8.25685 l -7.5115,5.08018 -7.5114,5.08017 -22.9429,0.003 c -12.7101,0.002 -22.8411,-0.0883 -22.7146,-0.20214 z m 66.4491,-21.30732 v -21.51272 h 9.3743 9.3743 v 21.51272 21.51274 h -9.3743 -9.3743 z m 25.4988,21.42207 c 0.055,-0.0499 3.4984,-2.3754 7.6517,-5.16786 l 7.5516,-5.0772 h 13.4203 13.4204 v -3.12475 -3.12476 h -20.7916 -20.7917 l 0.01,-8.11234 0.01,-8.11234 7.5656,-5.10899 7.5657,-5.10898 22.8903,0.0613 22.8903,0.0613 -7.4343,4.98759 -7.4342,4.98758 h -13.6578 -13.6578 v 3.12476 3.12475 h 20.7948 20.7947 l -0.063,8.3256 -0.063,8.3256 -7.4197,5.0147 -7.4198,5.0147 h -22.9665 c -12.6315,0 -22.9213,-0.0408 -22.8663,-0.0907 z m -193.0337,-58.0595 v -1.90459 l 7.3913,-0.082 c 6.1027,-0.0677 7.5379,-0.14834 8.2325,-0.46264 3.6529,-1.65287 4.7889,-6.35489 2.2515,-9.3193 -1.3328,-1.55703 -2.5993,-1.99142 -6.2175,-2.13249 -3.4356,-0.13395 -3.9799,-0.30456 -5.1221,-1.60549 -1.9137,-2.17959 -1.3157,-5.42939 1.2721,-6.91314 0.9376,-0.53756 1.1696,-0.55592 7.9963,-0.63276 l 7.0307,-0.0791 v 2.06216 2.06215 h -6.7303 -6.7302 v 0.60091 c 0,0.60072 0,0.60092 2.3918,0.60092 1.3155,0 2.965,0.12171 3.6656,0.27047 3.0226,0.64183 5.6057,2.66719 6.9913,5.48174 0.7212,1.46493 0.7723,1.73631 0.7723,4.09772 0,2.26237 -0.07,2.67913 -0.6675,3.9543 -1.3085,2.79416 -3.305,4.54784 -6.2048,5.45037 -1.303,0.40556 -2.2761,0.45538 -8.893,0.45538 h -7.43 z m 31.9289,1.33305 c -1.5835,-0.65128 -2.4702,-1.32888 -3.5222,-2.69152 -1.5819,-2.04884 -1.5994,-2.17888 -1.6028,-11.87998 v -8.77334 l 0.6983,-1.51226 c 0.9728,-2.1067 2.7746,-3.72433 4.8687,-4.37115 1.4341,-0.44294 2.2257,-0.48628 8.8803,-0.48628 h 7.3058 v 2.03327 2.03327 l -7.4294,0.0699 -7.4295,0.0699 -0.9232,0.73504 c -0.5078,0.40426 -1.1706,1.2155 -1.4728,1.80274 -0.5436,1.05622 -0.5488,1.15085 -0.4807,8.79634 l 0.069,7.72863 0.7515,1.03693 c 1.4201,1.95945 1.6279,2.00387 9.7645,2.08723 l 7.1509,0.0733 v 1.90976 1.90975 l -7.6316,-0.006 c -7.4358,-0.006 -7.6666,-0.0201 -8.9934,-0.56584 z m 25.1157,0.22554 c -2.2771,-0.71203 -4.2815,-2.62106 -5.1284,-4.88447 -0.4781,-1.27785 -0.4965,-1.71774 -0.4286,-10.2509 0.069,-8.69362 0.084,-8.94315 0.6129,-10.01555 0.8804,-1.78667 2.1017,-3.01712 3.8488,-3.87769 l 1.6065,-0.79128 7.9981,-0.0748 7.998,-0.0748 v 2.05781 2.05782 l -7.271,0.005 c -8.1388,0.006 -8.6308,0.0913 -9.8648,1.71121 -1.0581,1.38887 -1.1713,2.43669 -1.0885,10.07423 0.085,7.85178 0.087,7.86075 1.7439,9.31567 1.2755,1.11992 2.2034,1.26494 7.6313,1.19256 l 4.8831,-0.0651 v -5.88896 -5.88896 l -3.7858,-0.0662 -3.7857,-0.0662 v -1.91682 -1.91682 h 5.7688 5.7687 l 0.01,9.31417 c 0,5.25429 0.097,9.15701 0.2121,8.95362 0.1126,-0.1983 2.0139,-5.98511 4.2252,-12.85957 2.2113,-6.87445 4.279,-12.95075 4.595,-13.50287 2.4485,-4.27795 9.0451,-4.14247 11.3074,0.23224 0.2104,0.40685 2.3553,6.77708 4.7665,14.15606 l 4.3842,13.41633 h -8.1387 -8.1387 v -1.92292 -1.92293 h 5.1678 c 4.5958,0 5.1679,-0.0429 5.1679,-0.38798 0,-0.21339 -1.6267,-5.34799 -3.6148,-11.41021 -3.8211,-11.65177 -3.869,-11.75765 -5.3188,-11.75765 -1.4658,0 -1.5779,0.26124 -6.1131,14.24167 l -4.269,13.16002 -9.8719,-0.0161 c -7.4112,-0.0121 -10.122,-0.0943 -10.8756,-0.32992 z m 22.277,0.16573 c 0,-0.2528 8.1303,-25.27765 8.3009,-25.55368 0.2343,-0.37908 1.0112,-0.25102 1.1836,0.1951 0.1315,0.34031 5.9477,18.03316 6.4978,19.76634 0.1502,0.47348 0.055,0.48447 -4.1794,0.48447 h -4.333 l -0.07,-1.98302 -0.07,-1.98302 -1.5577,4.62704 -1.5576,4.62704 h -2.1079 c -1.1594,0 -2.1076,-0.0811 -2.1071,-0.18027 z m 10.3348,-9.35995 c 0,-0.37578 -1.3119,-4.16062 -1.4421,-4.16062 -0.1303,0 -1.4422,3.78484 -1.4422,4.16062 0,0.0913 0.6489,0.16596 1.4422,0.16596 0.7932,0 1.4421,-0.0747 1.4421,-0.16596 z m -89.6564,2.33294 v -1.91924 l 6.9105,-0.0638 6.9106,-0.0638 0.073,-0.63336 0.073,-0.63336 -3.3388,-0.0917 c -3.2929,-0.0904 -3.3638,-0.10407 -5.1623,-0.99292 -2.1056,-1.04064 -3.6349,-2.57607 -4.6746,-4.69324 -0.6122,-1.24667 -0.6719,-1.60355 -0.6719,-4.01729 0,-2.50882 0.042,-2.73401 0.7897,-4.2532 1.3623,-2.76723 3.5642,-4.60239 6.4117,-5.34388 1.1369,-0.29605 2.8856,-0.37304 8.4729,-0.37304 h 7.0403 v 2.0431 2.04311 h -6.9278 c -7.8158,0 -8.4746,0.10754 -10.0232,1.63604 -1.2489,1.23276 -1.787,2.51336 -1.787,4.25292 0,1.85417 0.5731,3.1119 1.9838,4.35367 1.4109,1.24187 2.4342,1.53498 5.3647,1.53663 2.7579,10e-4 3.8773,0.25696 4.9008,1.11818 2.5396,2.13694 1.9657,6.18234 -1.0729,7.56257 -0.8718,0.396 -1.7047,0.44179 -8.1223,0.44653 l -7.1509,0.005 z m 33.9564,1.56287 c -1.4697,-0.63892 -1.7454,-1.48403 -1.7465,-5.35232 v -3.42521 h 6.8602 6.8601 l -0.07,1.98302 -0.07,1.98302 -4.8674,0.0651 c -4.6683,0.0624 -4.8674,0.0845 -4.8674,0.54083 0,0.46189 0.182,0.47575 6.2495,0.47575 h 6.2495 v 2.04311 2.04311 l -6.9096,-0.009 c -5.3881,-0.007 -7.0816,-0.0838 -7.687,-0.34696 z m 24.4673,-0.0829 c -1.6397,-0.87937 -1.6974,-1.20005 -1.6965,-9.41203 0,-10.43774 -0.7086,-9.70759 9.5425,-9.81451 l 7.2822,-0.076 v 2.05897 2.05897 h -6.4941 -6.4942 l 0.064,5.82887 0.064,5.82886 h 1.8027 c 1.7627,0 1.8028,-0.0134 1.8028,-0.60091 0,-0.54635 -0.1037,-0.60757 -1.1418,-0.67418 l -1.1417,-0.0733 v -1.90975 -1.90976 h 3.1247 3.1248 v 4.56695 4.56695 h -4.5106 c -3.9094,0 -4.6198,-0.0585 -5.3296,-0.43922 z m -26.2147,-13.61381 v -3.47694 l 0.7431,-0.84629 c 0.4385,-0.49941 1.1201,-0.94782 1.6629,-1.09397 0.5543,-0.14926 3.4827,-0.22223 7.3693,-0.18363 l 6.4494,0.0641 0.07,1.98302 0.07,1.98302 h -6.2759 -6.276 l 0.077,0.54082 c 0.076,0.53803 0.1019,0.54116 4.9442,0.60589 l 4.8674,0.0651 v 1.91795 1.91795 h -6.8504 -6.8505 z"
       id="path293" />
  </g>
</svg>
