<?xml version="1.0" encoding="UTF-8" standalone="no"?>
<!-- Created with Inkscape (http://www.inkscape.org/) -->

<svg
   version="1.1"
   id="svg2"
   width="255.99998"
   height="256"
   viewBox="0 0 255.99999 256"
   xml:space="preserve"
   xmlns="http://www.w3.org/2000/svg"
   xmlns:svg="http://www.w3.org/2000/svg"><defs
     id="defs6" /><g
     id="g8"
     transform="translate(-4143.9821,-794.63277)"><g
       id="g552"
       style="display:inline"
       transform="matrix(0.11137672,0,0,0.11137672,4143.9821,823.28474)"><g
         id="g544"><path
           style="display:inline;fill:#555555;fill-opacity:1;stroke:none;stroke-width:0.479631;stroke-opacity:1"
           id="blue-326db3"
           d="m 745.47869,1024.4847 c 0,0 69.54652,-23.6506 69.54652,-23.6506 0,0 35.01308,-11.99078 35.01308,-11.99078 0,0 17.26673,-5.27595 17.26673,-5.27595 0,0 0,94.48733 0,94.48733 0,0 -11.03152,-3.036 -11.03152,-3.036 0,0 -12.95005,-3.9954 -12.95005,-3.9954 0,0 -40.76865,-12.6239 -40.76865,-12.6239 0,0 -53.23906,-16.4513 -53.23906,-16.4513 0,0 -19.18525,-5.9378 -19.18525,-5.9378 0,0 -9.113,-3.0409 -9.113,-3.0409 0,0 24.4612,-8.4847 24.4612,-8.4847 z m 506.01091,163.2569 c 0,0 18.226,-6.4031 18.226,-6.4031 0,0 60.4335,-19.8184 60.4335,-19.8184 56.6061,-17.5928 113.711,-33.1473 171.708,-45.4738 38.6775,-8.2209 77.7962,-14.7391 117.03,-19.6313 0,0 39.3298,-4.0529 39.3298,-4.0529 0,0 30.6964,-2.3598 30.6964,-2.3598 0,0 3.837,-0.446 3.837,-0.446 0,0 4.7964,0 4.7964,0 0,0 4.7963,-0.4701 4.7963,-0.4701 0,0 9.5926,-0.4988 9.5926,-0.4988 0,0 6.7148,0 6.7148,0 0,0 5.7556,-0.4604 5.7556,-0.4604 0,0 10.5519,0 10.5519,0 0,0 7.1945,-0.4797 7.1945,-0.4797 0,0 35.013,0 35.013,0 0,0 7.1945,0.4797 7.1945,0.4797 0,0 43.1668,1.8753 43.1668,1.8753 0,0 61.8724,5.2376 61.8724,5.2376 32.1257,3.2135 64.0068,7.3911 95.9263,12.3505 0,0 36.452,6.3407 36.452,6.3407 65.3641,13.07 131.5916,29.6988 189.9339,62.9996 32.4135,18.5042 64.2706,45.5554 78.4437,80.9857 3.65,9.1226 6.8731,20.4227 7.8084,30.2168 0,0 0.542,8.6334 0.542,8.6334 0,0 -0.4892,4.3166 -0.4892,4.3166 0,0 0,4.3167 0,4.3167 -2.8203,29.0273 -20.2069,54.2367 -40.7399,73.8824 -12.4896,11.9524 -26.0967,22.6578 -40.7687,31.8379 0,0 -22.5426,13.3722 -22.5426,13.3722 0,0 -29.7372,14.8733 -29.7372,14.8733 0,0 -37.8908,15.871 -37.8908,15.871 -4.3263,1.7315 -18.1013,6.9882 -22.0631,7.324 -2.7435,0.235 -6.8731,-1.554 -9.5926,-2.3742 0,0 -19.6649,-6.0913 -19.6649,-6.0913 0,0 -69.0669,-21.4299 -69.0669,-21.4299 0,0 -53.239,-16.4802 -53.239,-16.4802 0,0 -121.8264,-37.8716 -121.8264,-37.8716 0,0 -50.3612,-15.636 -50.3612,-15.636 0,0 -18.7057,-5.7988 -18.7057,-5.7988 -2.5852,-0.8537 -6.4606,-1.7074 -8.6333,-3.036 0,0 90.6503,-31.1761 90.6503,-31.1761 29.9482,-10.2017 60.2033,-19.8663 87.2929,-36.6534 5.8754,-3.6404 11.1034,-7.5925 16.3074,-12.1346 8.1729,-7.1274 17.238,-18.8831 10.4944,-29.8715 -0.9593,-1.5684 -2.4654,-3.4581 -3.7987,-4.7147 -2.8442,-2.6812 -6.1441,-4.806 -9.5735,-6.6477 -11.2329,-6.0386 -28.0968,-9.2617 -40.7686,-10.7726 0,0 -12.9501,-1.3669 -12.9501,-1.3669 0,0 -4.3166,0 -4.3166,0 0,0 -4.7964,-0.4796 -4.7964,-0.4796 0,0 -28.7778,0 -28.7778,0 0,0 -9.5927,0.4796 -9.5927,0.4796 0,0 -5.7555,0.4365 -5.7555,0.4365 0,0 -37.8909,3.7459 -37.8909,3.7459 0,0 -37.4112,6.0002 -37.4112,6.0002 0,0 -29.2575,9.6406 -29.2575,9.6406 0,0 -59.4743,19.9862 -59.4743,19.9862 0,0 -72.4243,24.3029 -72.4243,24.3029 0,0 -21.5834,7.2712 -21.5834,7.2712 -2.5133,0.8633 -8.6909,3.2471 -11.0315,3.3143 -1.602,0.043 -5.0793,-1.1032 -6.7149,-1.6356 0,0 -10.5519,-3.3142 -10.5519,-3.3142 0,0 -40.7686,-12.6623 -40.7686,-12.6623 0,0 -86.8133,-26.8785 -86.8133,-26.8785 0,0 -46.5242,-14.5137 -46.5242,-14.5137 0,0 -62.8317,-19.521 -62.8317,-19.521 0,0 -40.7686,-12.6382 -40.7686,-12.6382 0,0 -25.4205,-7.8612 -25.4205,-7.8612 -2.5133,-0.7578 -8.1969,-1.9041 -9.5926,-3.9713 0,0 12.95,-4.4654 12.95,-4.4654 z" /><path
           style="display:inline;fill:#777777;fill-opacity:1;stroke:none;stroke-width:0.479631;stroke-opacity:1"
           id="teal-00aa9e"
           d="m 202.05651,1207.5791 c 0,0 31.17603,-10.5519 31.17603,-10.5519 0,0 60.91315,-20.6241 60.91315,-20.6241 0,0 31.65566,-10.7006 31.65566,-10.7006 0,0 29.73714,-9.9235 29.73714,-9.9235 0,0 66.66874,-22.5427 66.66874,-22.5427 0,0 153.96163,-52.1215 153.96163,-52.1215 0,0 103.60035,-35.0131 103.60035,-35.0131 0,0 28.77787,-9.7509 28.77787,-9.7509 2.57082,-0.8586 10.24492,-3.8371 12.47041,-3.5445 0,0 9.59263,2.8634 9.59263,2.8634 0,0 25.90008,8.0099 25.90008,8.0099 0,0 46.0446,14.245 46.0446,14.245 0,0 31.17603,9.6022 31.17603,9.6022 0,0 24.94082,7.6741 24.94082,7.6741 1.68351,0.5564 6.80597,1.789 7.66451,3.0793 0.59474,0.8969 0.48922,2.5756 0.48922,3.6356 0,0 0,62.8316 0,62.8316 0,0 0,35.4928 0,35.4928 -0.0144,0.9784 0.0192,2.2926 -0.56116,3.1272 -0.90651,1.295 -6.3791,2.8346 -8.0722,3.4389 0,0 -28.29824,10.197 -28.29824,10.197 0,0 -84.89473,30.3894 -84.89473,30.3894 0,0 -36.45197,13.0028 -36.45197,13.0028 0,0 -44.6057,15.9573 -44.6057,15.9573 0,0 -96.40588,34.5335 -96.40588,34.5335 0,0 -45.56496,16.3074 -45.56496,16.3074 0,0 -12.95005,4.6669 -12.95005,4.6669 -1.64513,0.6187 -6.13928,2.3454 -7.6741,2.4749 -1.6835,0.1486 -6.79157,-1.5876 -8.63336,-2.1968 0,0 -16.30746,-5.2663 -16.30746,-5.2663 0,0 -61.87244,-19.6649 -61.87244,-19.6649 0,0 -92.08919,-29.2575 -92.08919,-29.2575 0,0 -70.02616,-22.2309 -70.02616,-22.2309 0,0 -48.92237,-15.5113 -48.92237,-15.5113 0,0 -12.95005,-4.1296 -12.95005,-4.1296 -2.48928,-0.7482 -5.463,-1.3909 -7.6741,-2.7435 6.58534,-1.2422 12.84453,-3.6404 19.18525,-5.7556 z M 1249.5711,1196.068 c 0,0 14.8686,4.6332 14.8686,4.6332 0,0 49.8816,15.5017 49.8816,15.5017 0,0 154.4413,47.9631 154.4413,47.9631 0,0 69.0669,21.4299 69.0669,21.4299 0,0 20.1445,6.2353 20.1445,6.2353 0,0 9.5926,3.5204 9.5926,3.5204 0,0 -101.6818,34.8501 -101.6818,34.8501 0,0 -152.5228,52.1263 -152.5228,52.1263 0,0 -75.3021,25.737 -75.3021,25.737 0,0 -0.4796,-8.1537 -0.4796,-8.1537 0,0 0,-13.9094 0,-13.9094 0,0 0,-45.0853 0,-45.0853 0,0 0,-148.206 0,-148.206 0,0 11.9908,3.3574 11.9908,3.3574 z m -383.22535,122.7856 c 0,0 0.47963,12.4704 0.47963,12.4704 0,0 0,23.0223 0,23.0223 0,0 0,75.7817 0,75.7817 0,0 -12.95004,-3.674 -12.95004,-3.674 0,0 -22.06303,-7.0122 -22.06303,-7.0122 0,0 -30.6964,-9.7748 -30.6964,-9.7748 0,0 -54.19833,-17.2668 -54.19833,-17.2668 0,0 -33.57419,-10.7053 -33.57419,-10.7053 0,0 -10.55188,-3.3575 -10.55188,-3.3575 0,0 -6.23521,-2.4077 -6.23521,-2.4077 0,0 169.78945,-57.0761 169.78945,-57.0761 z m 1221.14105,149.1413 c 0,0 -25.4204,8.9739 -25.4204,8.9739 0,0 -89.2114,31.4878 -89.2114,31.4878 0,0 -257.562,90.8326 -257.562,90.8326 0,0 -105.5189,37.2433 -105.5189,37.2433 0,0 -31.6556,11.1898 -31.6556,11.1898 0,0 -13.4297,4.2975 -13.4297,4.2975 0,0 -11.5111,-3.4581 -11.5111,-3.4581 0,0 -30.2168,-9.631 -30.2168,-9.631 0,0 -55.1576,-17.4394 -55.1576,-17.4394 0,0 -38.8501,-12.4512 -38.8501,-12.4512 0,0 -95.9263,-30.3895 -95.9263,-30.3895 0,0 -31.6556,-10.0722 -31.6556,-10.0722 0,0 -18.226,-5.8707 -18.226,-5.8707 0,0 -35.0131,-11.0747 -35.0131,-11.0747 0,0 -6.7148,-2.2111 -6.7148,-2.2111 0,0 -3.3479,-1.5492 -3.3479,-1.5492 0,0 -0.4892,-3.5924 -0.4892,-3.5924 0,0 0,-11.5112 0,-11.5112 0,0 0.4892,-2.638 0.4892,-2.638 0,0 3.3479,-1.8274 3.3479,-1.8274 0,0 7.6741,-2.5708 7.6741,-2.5708 0,0 37.8908,-12.95 37.8908,-12.95 0,0 26.8594,-9.2713 26.8594,-9.2713 0,0 86.3336,-29.4206 86.3336,-29.4206 0,0 46.5242,-15.9861 46.5242,-15.9861 0,0 48.9224,-16.7823 48.9224,-16.7823 0,0 54.678,-18.7056 54.678,-18.7056 0,0 105.0392,-35.8189 105.0392,-35.8189 0,0 67.1484,-23.0175 67.1484,-23.0175 0,0 20.1445,-6.8779 20.1445,-6.8779 0,0 9.5926,-3.06 9.5926,-3.06 0,0 8.6334,2.2207 8.6334,2.2207 0,0 19.1852,5.9474 19.1852,5.9474 0,0 63.3113,19.6649 63.3113,19.6649 0,0 182.2599,56.5965 182.2599,56.5965 0,0 54.678,16.9549 54.678,16.9549 0,0 14.8685,4.6285 14.8685,4.6285 0,0 7.6741,2.8873 7.6741,2.8873 0,0 -15.3482,5.252 -15.3482,5.252 z" /><path
           style="display:inline;fill:#999999;fill-opacity:1;stroke:none;stroke-width:0.47963102;stroke-opacity:1;font-variation-settings:normal;opacity:1;vector-effect:none;stroke-linecap:butt;stroke-linejoin:miter;stroke-miterlimit:4;stroke-dasharray:none;stroke-dashoffset:0;-inkscape-stroke:none;stop-color:#000000;stop-opacity:1"
           id="yellow-f3c202"
           d="m 868.70554,1531.6755 c 0,1.06 0.10552,2.7387 -0.48923,3.6356 -0.9017,1.3574 -6.39828,2.8155 -8.14413,3.4006 0,0 -25.90009,8.3216 -25.90009,8.3216 -38.6247,12.0052 -77.6427,20.5666 -117.50965,27.2095 -23.7945,3.9666 -47.91036,6.6717 -71.94468,8.3168 0,0 -12.47041,0.9161 -12.47041,0.9161 0,0 -7.6741,0.4796 -7.6741,0.4796 0,0 -12.47041,0.4797 -12.47041,0.4797 0,0 -8.15373,0.4796 -8.15373,0.4796 0,0 -14.86857,0 -14.86857,0 0,0 -7.19447,0.4796 -7.19447,0.4796 0,0 -14.86857,0 -14.86857,0 0,0 -7.19447,-0.4796 -7.19447,-0.4796 0,0 -11.99078,0 -11.99078,0 0,0 -7.6741,-0.4796 -7.6741,-0.4796 0,0 -15.3482,-0.4797 -15.3482,-0.4797 0,0 -12.47041,-0.916 -12.47041,-0.916 0,0 -27.33898,-2.0433 -27.33898,-2.0433 0,0 -52.75943,-6.3599 -52.75943,-6.3599 0,0 -58.99465,-9.2569 -58.99465,-9.2569 -54.50049,-8.029 -109.04895,-16.6672 -163.07461,-27.4685 -28.70113,-5.7411 -57.41665,-12.4032 -85.37436,-21.0941 -19.83755,-6.1633 -39.910112,-13.1323 -58.515007,-22.4324 -24.916842,-12.4608 -53.243862,-30.9074 -62.5822819,-58.6349 -4.22555058,-12.5328 -3.75551198,-22.0774 -3.60682678,-35.0131 0,0 0.43646441,-4.7963 0.43646441,-4.7963 C 1.9064003,1377.1 7.3693999,1358.615 15.801317,1341.7416 c 23.295688,-46.5962 66.376164,-80.2471 111.873983,-103.7251 12.91167,-6.662 26.16388,-12.902 39.80939,-17.9478 0,0 15.82783,-5.5253 15.82783,-5.5253 1.62115,-0.1535 5.8467,1.5972 7.6741,2.1487 0,0 18.70562,5.9379 18.70562,5.9379 0,0 62.35206,19.8183 62.35206,19.8183 0,0 152.52272,48.4428 152.52272,48.4428 0,0 51.32055,16.3074 51.32055,16.3074 0,0 18.70562,5.9235 18.70562,5.9235 0,0 8.15373,2.7195 8.15373,2.7195 0,0 -21.58341,7.511 -21.58341,7.511 0,0 -53.23907,19.0174 -53.23907,19.0174 -17.1612,6.1057 -37.50716,13.281 -48.19334,29.1088 -3.08883,4.5709 -5.37187,9.8133 -5.92345,15.3482 -1.32858,13.2666 8.37436,26.49 18.14925,34.3704 19.08932,15.377 43.88146,22.629 68.10284,23.6842 0,0 6.2352,0.4604 6.2352,0.4604 0,0 4.31669,0 4.31669,0 0,0 8.63336,-0.4796 8.63336,-0.4796 0,0 17.26672,-2.2783 17.26672,-2.2783 17.83269,-3.1032 40.65354,-11.3528 58.03538,-17.5353 0,0 38.3705,-12.8013 38.3705,-12.8013 0,0 58.51501,-19.6649 58.51501,-19.6649 0,0 31.17603,-10.5519 31.17603,-10.5519 0,0 14.38893,-4.5949 14.38893,-4.5949 1.68351,-0.1487 3.65959,0.7243 5.27595,1.2279 0,0 10.07225,3.2039 10.07225,3.2039 0,0 33.09455,10.5519 33.09455,10.5519 0,0 79.61879,25.267 79.61879,25.267 0,0 32.13529,10.2545 32.13529,10.2545 0,0 11.51115,3.4917 11.51115,3.4917 0,0 0,100.2429 0,100.2429 z m 393.29756,24.7778 c 0,0 42.6872,13.5831 42.6872,13.5831 0,0 144.8486,46.0446 144.8486,46.0446 0,0 82.017,26.068 82.017,26.068 0,0 22.5427,7.1705 22.5427,7.1705 0,0 12.4704,4.1824 12.4704,4.1824 0,0 -28.2983,9.7413 -28.2983,9.7413 0,0 -52.7594,18.3938 -52.7594,18.3938 0,0 -110.7948,38.6823 -110.7948,38.6823 0,0 -48.9224,16.9694 -48.9224,16.9694 0,0 -51.3205,17.919 -51.3205,17.919 0,0 -20.1446,7.0218 -20.1446,7.0218 0,0 -12.4704,3.9857 -12.4704,3.9857 0,0 -2.3598,-6.2352 -2.3598,-6.2352 0,0 0,-7.6741 0,-7.6741 0,0 0,-13.9093 0,-13.9093 0,0 0,-42.2075 0,-42.2075 0,0 0,-146.7672 0,-146.7672 0,0 22.5043,7.0314 22.5043,7.0314 z" /><path
           style="fill:#333333;fill-opacity:1;stroke:#de0029;stroke-width:0.479631;stroke-opacity:1"
           id="red-de0029"
           d="m 896.56252,25.82535 c 0,0 58.03538,15.348199 58.03538,15.348199 0,0 183.2191,48.442753 183.2191,48.442753 0,0 125.1838,33.094558 125.1838,33.094558 45.2532,11.89485 90.5639,23.47315 135.256,37.36327 0,0 31.6556,10.69098 31.6556,10.69098 17.0941,6.08172 34.1018,12.28815 50.8409,19.31475 24.5572,10.30248 48.8553,21.23807 72.4244,33.67011 70.6257,37.25775 138.4695,87.96916 186.1544,152.62825 35.6126,48.29406 58.9611,98.99589 72.7889,157.31905 3.2663,13.76542 6.0193,27.69391 7.8659,41.72792 0,0 3.6212,31.17603 3.6212,31.17603 0,0 0.6044,10.55188 0.6044,10.55188 0,0 0.4364,5.27595 0.4364,5.27595 0,0 0.4797,10.07225 0.4797,10.07225 0,0 0.4796,27.81861 0.4796,27.81861 0,0 -0.4796,6.71484 -0.4796,6.71484 0,0 0,13.42967 0,13.42967 0,0 -0.4797,7.6741 -0.4797,7.6741 0,0 -0.4796,15.3482 -0.4796,15.3482 0,0 -0.9161,11.99078 -0.9161,11.99078 0,0 -1.8802,23.50193 -1.8802,23.50193 -2.5948,26.81139 -6.5325,53.29662 -12.3505,79.61879 -13.3481,60.44792 -39.699,124.43072 -85.0961,167.85174 -14.2547,13.63594 -30.2312,25.52594 -47.4835,35.09944 -26.7682,14.8494 -56.5821,24.0007 -86.8133,28.3606 0,0 -27.3389,2.7674 -27.3389,2.7674 0,0 -5.276,0.4605 -5.276,0.4605 0,0 -6.2352,0 -6.2352,0 0,0 -7.1945,0.4796 -7.1945,0.4796 0,0 -11.0315,0 -11.0315,0 0,0 -5.7556,-0.4604 -5.7556,-0.4604 0,0 -7.1944,0 -7.1944,0 0,0 -5.276,-0.4797 -5.276,-0.4797 -19.5641,-0.8537 -39.2098,-3.5013 -58.515,-6.8539 -16.7679,-2.9114 -33.3775,-6.7244 -49.8816,-10.8493 0,0 -23.9816,-6.2975 -23.9816,-6.2975 0,0 0,-534.78882 0,-534.78882 0,0 0,-68.10765 0,-68.10765 0,0 0,-24.94082 0,-24.94082 0,-6.93067 0.2111,-13.29058 -1.2758,-20.14451 -2.1631,-9.98113 -7.348,-19.17566 -14.552,-26.37972 -3.7507,-3.75072 -7.9235,-7.11293 -12.4704,-9.85642 -5.8659,-3.53968 -12.1587,-6.39349 -18.7056,-8.42712 -8.0147,-2.48449 -16.5329,-4.1632 -24.9409,-4.25913 0,0 -5.7555,-0.43167 -5.7555,-0.43167 0,0 -3.3575,0.45086 -3.3575,0.45086 0,0 -4.3166,0 -4.3166,0 -5.6165,0.59474 -11.3529,1.53002 -16.7871,3.06484 -17.1852,4.84907 -33.4591,16.01968 -38.7111,33.84758 -1.2038,4.09605 -2.0528,9.64058 -2.0576,13.9093 0,0 0,226.38595 0,226.38595 0,0 0,102.64108 0,102.64108 0,0 -0.4796,7.19447 -0.4796,7.19447 0,0 0,167.87093 0,167.87093 0,0 0,173.14685 0,173.14685 0,0 0,86.3336 0,86.3336 0,0 -0.4797,7.1945 -0.4797,7.1945 0,0 0,35.9723 0,35.9723 -0.057,3.9042 -0.9496,2.1392 -0.9592,7.1945 0,0 0,134.7764 0,134.7764 0,0 0,73.3836 0,73.3836 0.067,3.8802 0.9497,2.1727 0.9592,7.1944 0,0 0,74.3429 0,74.3429 0,0 0,40.7686 0,40.7686 -0.057,3.9042 -0.9496,2.1392 -0.9592,7.1945 0,0 0,140.5319 0,140.5319 0,0 0,80.0985 0,80.0985 0,0 0.4796,7.1944 0.4796,7.1944 0,0 0,3.3574 0,3.3574 0,0 -9.5926,-2.8682 -9.5926,-2.8682 0,0 -19.6649,-6.403 -19.6649,-6.403 0,0 -44.6057,-14.3938 -44.6057,-14.3938 0,0 -15.3482,-5.1032 -15.3482,-5.1032 0,0 -79.1391,-25.7466 -79.1391,-25.7466 0,0 -60.4336,-19.6649 -60.4336,-19.6649 0,0 -56.11683,-18.2308 -56.11683,-18.2308 0,0 -46.52423,-15.0364 -46.52423,-15.0364 0,0 -19.66488,-6.4271 -19.66488,-6.4271 0,0 -14.38893,-4.7531 -14.38893,-4.7531 0,0 -5.28074,-2.1056 -5.28074,-2.1056 0,0 -0.47484,-3.4917 -0.47484,-3.4917 0,0 0,-103.1208 0,-103.1208 0,0 0.47963,-7.1944 0.47963,-7.1944 0,0 0,-134.2968 0,-134.2968 0,0 0,-74.3428 0,-74.3428 0,0 -0.47963,-7.1945 -0.47963,-7.1945 0,0 0,-82.4965 0,-82.4965 0,0 0,-46.0446 0,-46.0446 0,0 0.47963,-7.1945 0.47963,-7.1945 0,0 0,-192.33213 0,-192.33213 0,0 -0.47963,-8.15373 -0.47963,-8.15373 0,0 0,-320.39365 0,-320.39365 0,0 0,-640.307695 0,-640.307695 0,0 30.21677,7.731655 30.21677,7.731655 z" /></g></g></g></svg>
