<?xml version="1.0" encoding="UTF-8" standalone="no"?>
<!-- Created with Inkscape (http://www.inkscape.org/) -->

<svg
   version="1.1"
   id="svg2"
   width="479.99976"
   height="98.96373"
   viewBox="0 0 479.99976 98.963727"
   xml:space="preserve"
   xmlns="http://www.w3.org/2000/svg"
   xmlns:svg="http://www.w3.org/2000/svg"><defs
     id="defs6" /><g
     id="g552"
     style="display:inline"
     transform="matrix(0.05393259,0,0,0.05393259,-69.249462,-7.5744202)"><path
       style="display:inline;fill:#000000;stroke-width:1.87407"
       d="m 3836.4952,1973.9183 c 0,-0.812 6.6622,-18.7328 14.8048,-39.8241 8.1424,-21.0915 36.4829,-94.8515 62.9787,-163.9112 26.4959,-69.0599 62.8441,-163.762 80.7735,-210.4492 17.9295,-46.687 32.599,-86.5182 32.599,-88.5132 0,-3.144 -16.2967,-51.8192 -68.6902,-205.1648 -6.6912,-19.5841 -20.0355,-58.7992 -29.6542,-87.1447 -9.6185,-28.3455 -23.5357,-69.2472 -30.9268,-90.8928 -7.3913,-21.6456 -20.0405,-58.7524 -28.1094,-82.4594 -8.069,-23.70713 -20.72,-60.81389 -28.1132,-82.4595 -15.5008,-45.38291 -42.3987,-124.46965 -51.6282,-151.80036 -3.4807,-10.30743 -16.1392,-47.41419 -28.1297,-82.45947 -11.9906,-35.04526 -28.8016,-84.38038 -37.3578,-109.6336 -8.5562,-25.2532 -21.088,-62.14912 -27.8486,-81.99093 l -12.2919,-36.07602 h 124.1028 124.1029 l 23.0878,67.93536 c 32.288,95.00611 55.1515,162.34573 75.8788,223.48387 9.7846,28.86081 30.9978,91.26763 47.1404,138.68181 16.1428,47.4142 37.1987,109.39944 46.7909,137.74474 9.5922,28.3455 21.0827,62.2793 25.5344,75.4085 4.4514,13.1292 8.7134,23.2492 9.4712,22.489 1.2561,-1.2607 11.5499,-27.4822 56.8245,-144.74942 20.8929,-54.11589 43.8877,-113.47033 64.6176,-166.793 9.4168,-24.22246 24.7986,-63.85923 34.1814,-88.08169 28.5508,-73.7062 49.0202,-126.5601 63.87,-164.91892 31.805,-82.15584 38.7501,-99.87122 39.4135,-100.53458 0.3826,-0.38248 50.8357,-0.47786 112.1187,-0.21201 l 111.4231,0.48338 -30.5821,76.83723 c -16.8202,42.26047 -53.2718,133.76235 -81.0037,203.33752 -64.0535,160.70161 -171.843,431.17319 -225.9268,566.90879 -22.9992,57.7216 -75.9393,190.5469 -117.6448,295.1674 -41.7054,104.6204 -92.0325,230.9099 -111.838,280.6432 l -36.0102,90.4244 h -101.979 c -56.0887,0 -101.9794,-0.6644 -101.9794,-1.4763 z M 3321.1237,1042.9455 V 605.22512 l -110.1021,0.71745 c -94.412,0.61523 -111.9716,1.16143 -123.2207,3.83283 -74.3693,17.66112 -113.3815,95.78597 -122.7549,245.82518 -2.4917,39.88128 -2.4326,360.25212 0.072,382.34402 6.1473,54.2601 24.8748,83.4923 60.3451,94.1948 8.1746,2.4665 25.2819,3.1613 99.821,4.0541 l 89.9557,1.0773 0.491,70.7464 0.4913,70.7465 h -128.8656 c -139.833,0 -145.4682,-0.3455 -176.1344,-10.5977 -67.4316,-22.5433 -123.5488,-74.7848 -154.6913,-144.0078 -13.6084,-30.2486 -22.2911,-62.6006 -28.048,-104.5089 -3.426,-24.9386 -3.3573,-311.59282 0.084,-350.89218 9.0755,-103.6426 30.195,-178.32165 68.3699,-241.75614 13.3942,-22.25682 17.2567,-27.6875 31.9899,-44.97789 51.096,-59.96371 118.4224,-96.49679 207.3558,-112.51638 42.9265,-7.73238 64.7812,-8.34607 297.496,-8.35404 l 223.4872,-0.007 -0.4718,509.28086 -0.4719,509.28087 -117.5984,0.4825 -117.5985,0.4825 v -437.7203 z m 3553.2529,0 V 605.22512 l -110.1021,0.71745 c -122.5472,0.79857 -124.1356,0.94306 -149.9343,13.63814 -14.8742,7.31939 -32.6306,22.59907 -43.7441,37.6427 -24.3263,32.92949 -41.1937,87.97219 -49.8891,162.80167 -4.6113,39.68416 -5.8995,394.82652 -1.5399,424.55422 7.4831,51.0265 25.2802,77.1985 59.5474,87.5691 8.2787,2.5056 24.4061,3.1004 100.2894,3.6996 l 90.4242,0.7139 v 71.1009 71.1009 l -129.7799,-3e-4 c -107.6264,-3e-4 -132.3391,-0.4816 -144.7725,-2.8194 -75.1636,-14.1326 -142.155,-66.0477 -178.6535,-138.4472 -12.0307,-23.8641 -17.9145,-39.5636 -24.7207,-65.9603 -11.9154,-46.2134 -12.1142,-49.8178 -12.1302,-220.0628 -0.018,-160.77214 0.7399,-181.6709 8.4976,-235.19678 16.2256,-111.95157 53.7733,-196.4348 113.193,-254.68794 50.2905,-49.30303 112.9478,-79.32409 193.7081,-92.81156 43.5906,-7.2799 69.1276,-7.90806 296.4733,-7.29249 l 218.3301,0.59113 v 508.81235 508.81239 l -117.5983,0.4825 -117.5985,0.4826 z M 1284.0003,809.66365 V 140.5636 l 304.0692,0.63703 c 332.3807,0.69637 309.6294,-0.0579 350.1814,11.60862 19.0657,5.4851 40.3056,14.59897 60.7104,26.05061 53.1173,29.81057 100.7042,84.56478 128.6808,148.06226 30.8759,70.07796 44.5784,152.63135 42.1864,254.15794 -1.3606,57.74471 -5.9257,93.31136 -17.5599,136.80773 -11.6574,43.58325 -31.5288,89.03564 -52.8468,120.87808 -39.9592,59.68661 -98.3217,105.61416 -160.4311,126.24893 -37.7922,12.55592 -31.6181,12.11541 -180.38,12.86767 l -135.4022,0.68465 v -72.24319 -72.24326 h 93.2759 c 103.9175,0 107.4767,-0.361 128.3638,-13.01997 58.0516,-35.18286 89.8016,-127.42713 90.0185,-261.53255 0.1855,-114.80375 -23.9639,-199.45378 -69.2207,-242.63555 -14.9453,-14.26016 -34.6411,-25.12501 -51.0687,-28.17108 -6.1583,-1.14189 -65.9015,-1.87181 -153.206,-1.87181 h -143.1112 v 595.957 595.95699 h -117.13 -117.1298 z m 1033.0831,0.52252 0.4712,-668.57755 117.5985,-0.4826 117.5983,-0.48261 v 669.06016 669.06013 h -118.0695 -118.0696 z m 2462.0734,597.43263 v -71.1451 l 182.254,-0.5772 182.2542,-0.5774 14.9927,-4.2077 c 71.5612,-20.0835 113.3749,-74.0331 122.6263,-158.2172 3.0674,-27.9112 2.5625,-120.6695 -0.7683,-141.2061 -11.8297,-72.93523 -55.0119,-120.77973 -123.1874,-136.48786 -12.45,-2.86856 -31.3034,-4.82619 -92.3746,-9.59165 -76.7431,-5.98837 -114.5924,-14.63316 -157.4226,-35.95536 -30.4219,-15.14503 -52.4178,-31.2252 -78.8293,-57.62874 -38.0042,-37.99254 -63.9877,-80.45182 -82.0685,-134.10722 -15.9722,-47.39821 -16.9007,-54.59912 -17.6381,-136.80268 -0.7019,-78.22864 0.1167,-88.38356 10.1141,-125.56831 34.7183,-129.12415 130.23,-219.82261 259.3671,-246.29644 33.7329,-6.91543 43.672,-7.23989 245.9204,-8.02796 l 200.0579,-0.77952 v 73.20369 73.20366 H 5278.081 c -102.9563,0 -172.2429,0.73594 -181.7715,1.93072 -38.6179,4.8423 -66.9191,17.86857 -91.4895,42.11014 -38.5545,38.03875 -53.383,89.98396 -50.8229,178.03745 1.3035,44.8421 6.0759,66.50109 21.472,97.4521 16.9194,34.01276 43.9222,60.66696 74.492,73.52987 18.4173,7.74947 28.3759,8.99923 161.1708,20.22571 75.2821,6.36435 95.9429,10.8518 133.0596,28.90009 74.6692,36.30852 133.3274,111.31072 160.1047,204.71516 13.671,47.68688 14.1846,53.13609 14.1846,150.51925 0,76.1824 -0.4586,90.8666 -3.3941,108.6965 -9.6945,58.8785 -28.8498,110.1756 -57.0352,152.7375 -31.1146,46.9847 -68.4981,80.2958 -115.7342,103.1261 -23.7157,11.4624 -31.8643,14.5379 -54.8185,20.689 -33.8228,9.0639 -37.1579,9.1735 -280.173,9.2101 l -228.169,0.034 z m 1140.3768,68.3292 c -42.1758,-6.7121 -80.0453,-22.2187 -113.1925,-46.3499 -15.5779,-11.3408 -44.7824,-41.5256 -56.6907,-58.5939 -28.8785,-41.3914 -46.0839,-83.6734 -54.1456,-133.0596 -3.5746,-21.8983 -3.6711,-34.6325 -3.6713,-484.91783 l -5e-4,-462.4289 h 119.0039 119.0041 v 85.27058 85.27057 h 127.4374 127.4372 v 72.15204 72.15202 H 6057.2784 5929.841 V 926.6471 c 0,353.3517 -0.541,336.0511 11.3317,362.3429 6.2816,13.9105 20.7396,29.8308 33.2976,36.6657 17.7752,9.6745 26.123,10.678 88.824,10.678 h 57.7027 v 71.2151 71.2149 l -93.2354,-0.2148 c -65.4276,-0.1518 -97.707,-0.9265 -108.228,-2.6009 z m 1611.7075,0 c -39.0632,-6.2166 -70.7827,-18.442 -102.4428,-39.4831 -51.2118,-34.0352 -91.4688,-90.1376 -111.5211,-155.4164 -2.5331,-8.246 -6.4114,-23.0044 -8.6186,-32.7965 l -4.0131,-17.8037 -0.5916,-469.92522 -0.5919,-469.92521 h 119.0434 119.0431 v 85.27058 85.27057 h 127.4374 127.4374 v 72.15204 72.15202 h -127.4374 -127.4374 v 320.42938 c 0,289.83224 0.2944,321.90934 3.0825,335.92854 7.6166,38.2977 29.0012,63.159 61.6388,71.6599 8.7534,2.28 22.9364,2.8728 68.732,2.8728 h 57.7027 v 71.2151 71.2149 l -93.2354,-0.2148 c -65.4276,-0.1518 -97.707,-0.9265 -108.228,-2.6009 z M 7940.7272,969.95136 V 461.13902 h 118.067 118.0669 v 508.81234 508.81234 h -118.0669 -118.067 z m 767.4352,506.74024 c -146.4968,-13.5985 -251.0521,-73.5026 -313.5241,-179.631 -27.0051,-45.8769 -44.5139,-99.5632 -55.2039,-169.2696 -3.8866,-25.3444 -4.0905,-32.778 -4.1505,-151.28036 -0.066,-129.72006 0.5582,-143.42454 8.5187,-187.11713 16.3672,-89.83436 49.1111,-158.87571 100.8473,-212.6392 29.6909,-30.85418 58.4967,-51.59526 98.0557,-70.60284 63.9784,-30.74074 135.0967,-44.98514 224.6962,-45.0048 163.0867,-0.0358 282.6394,54.79698 355.6978,163.14034 13.9471,20.68325 35.9705,62.55405 42.3323,80.48224 17.4034,49.04255 26.311,87.33921 31.8217,136.80773 3.9293,35.27245 3.9998,219.51722 0.1,257.68572 -11.7398,114.8627 -48.293,203.1702 -110.3954,266.6999 -62.3735,63.8069 -140.8361,98.4365 -249.4832,110.1091 -26.6043,2.8582 -101.3373,3.2165 -129.3114,0.6199 z m 99.5492,-143.2497 c 39.2323,-6.8165 63.3103,-18.4746 86.9217,-42.086 40.3166,-40.3167 59.212,-99.5929 65.5412,-205.6077 2.4839,-41.6077 2.4912,-195.09549 0.018,-233.89578 -8.2365,-128.84916 -38.2716,-195.96393 -102.0966,-228.14007 -41.1051,-20.72227 -112.4018,-24.23109 -160.8252,-7.9149 -73.1661,24.65315 -109.4507,86.68188 -122.206,208.91283 -6.5503,62.76765 -5.3882,242.71012 1.9666,304.53782 12.9645,108.9852 47.5091,169.834 110.1731,194.0652 30.8326,11.9224 84.3182,16.4177 120.5143,10.1286 z M 9353.7825,969.96524 V 461.13902 h 225.9724 c 144.9584,0 234.1508,0.71852 248.7839,2.00419 199.1182,17.49426 314.1842,129.58975 347.0312,338.07253 7.979,50.63963 8.381,68.80239 8.405,380.03806 l 0.02,297.5099 h -118.067 -118.0666 v -302.5146 c 0,-301.53729 -0.5637,-333.77536 -6.6879,-382.46112 -12.6267,-100.37913 -45.1353,-157.47533 -102.0087,-179.16276 -21.6659,-8.2618 -35.8629,-9.16743 -143.8316,-9.175 l -101.6648,-0.007 -0.4725,436.19178 -0.4724,436.1917 -119.4725,0.4824 -119.4725,0.4824 V 969.96489 Z M 7940.7272,240.93479 V 140.67158 h 118.067 118.0669 v 100.26321 100.2632 h -118.0669 -118.067 z"
       id="path293" /></g></svg>
