<?xml version="1.0" encoding="UTF-8" standalone="no"?>
<!-- Created with Inkscape (http://www.inkscape.org/) -->

<svg
   version="1.1"
   id="svg180"
   width="480"
   height="105.23438"
   viewBox="0 0 480 105.23438"
   xmlns="http://www.w3.org/2000/svg"
   xmlns:svg="http://www.w3.org/2000/svg">
  <defs
     id="defs184" />
  <g
     id="g186"
     transform="translate(-21.099609,-4.6258421)">
    <path
       style="fill:#cccccc;stroke-width:0.117188;fill-opacity:1"
       d="m 125.80664,109.79819 c -0.0645,-0.0239 -12.85254,-1.81446 -28.417969,-3.97894 -15.565429,-2.16448 -28.419433,-3.96107 -28.564453,-3.99242 l -0.263672,-0.057 V 80.326738 58.883657 H 97.447265 126.33398 V 84.37194 c 0,24.19995 -0.0104,25.48781 -0.20507,25.47903 -0.1128,-0.005 -0.25782,-0.0288 -0.32227,-0.0528 z M 45.65039,98.606402 C 35.144531,97.133809 25.322754,95.759844 23.824218,95.553146 L 21.099609,95.177334 V 77.030495 58.883657 h 22.03125 22.03125 v 21.210939 c 0,20.126904 -0.01048,21.210384 -0.205078,21.200094 -0.112793,-0.006 -8.800781,-1.21569 -19.306641,-2.688288 z m 280.52952,-8.78812 c -2.86233,-0.301526 -5.4658,-1.22515 -7.80202,-2.767895 -1.31339,-0.867312 -3.63611,-3.254122 -4.64705,-4.775256 -2.68756,-4.043916 -3.91111,-8.728787 -3.90555,-14.953973 0.007,-8.373201 2.29647,-14.753168 6.93726,-19.335939 3.60918,-3.564063 8.02653,-5.273438 13.62757,-5.273438 5.89963,0 10.13432,2.105848 13.06823,6.498619 l 0.55142,0.825601 0.0298,-13.974611 0.0298,-13.97461 h 3.63234 3.63233 v 33.400133 33.400132 l -3.60351,-0.03099 -3.60352,-0.03099 -0.0586,-3.859837 -0.0586,-3.859836 -0.6334,0.975077 c -3.01013,4.63387 -7.05941,7.118994 -12.60879,7.738259 -1.18639,0.13239 -3.32864,0.132182 -4.58767,-4.69e-4 z m 6.8274,-6.258505 c 2.68038,-0.471723 4.7515,-1.572131 6.72511,-3.573131 2.08963,-2.11863 3.28619,-4.382719 4.01922,-7.605008 0.24777,-1.089185 0.25807,-1.37208 0.25677,-7.052668 l -0.001,-5.917969 -0.31828,-1.171875 c -1.11437,-4.103106 -4.30535,-7.500052 -8.23369,-8.765145 -1.56988,-0.505567 -2.23965,-0.599766 -4.21875,-0.593337 -3.01704,0.0098 -5.00048,0.561772 -7.21377,2.007504 -3.37289,2.203198 -5.6113,6.08288 -6.50623,11.276759 -0.2923,1.696464 -0.36145,6.560661 -0.11943,8.401759 0.94262,7.170932 4.8204,11.949647 10.53874,12.98722 1.14962,0.208594 3.90173,0.211791 5.07168,0.0059 z m 47.03761,6.31077 c -4.013,-0.454999 -5.87148,-0.968369 -8.65372,-2.390428 -2.55496,-1.305884 -5.16359,-3.594326 -6.96015,-6.105843 -0.96803,-1.353261 -2.28217,-3.963963 -2.82672,-5.615618 -0.93098,-2.823764 -1.29721,-5.403751 -1.28913,-9.082032 0.006,-2.943831 0.18906,-4.790668 0.69924,-7.072064 1.85688,-8.303253 7.36462,-14.120202 15.28048,-16.138331 1.88695,-0.481075 3.33547,-0.65136 6.10019,-0.717129 3.06026,-0.0728 4.83043,0.08147 7.02087,0.611857 7.0729,1.712612 12.18602,6.890712 14.17255,14.352656 1.2636,4.7464 1.37746,10.494115 0.30281,15.285643 -1.04324,4.651487 -3.44179,8.828304 -6.73938,11.7359 -3.00929,2.65341 -6.61658,4.279025 -10.90981,4.916487 -1.15425,0.171384 -5.31888,0.318491 -6.19723,0.218902 z m 5.50781,-6.315567 c 1.57584,-0.242114 2.7068,-0.58001 3.94451,-1.178483 2.42738,-1.173718 4.28541,-3.018004 5.595,-5.553615 1.44884,-2.805207 2.10114,-6.070834 2.09692,-10.497818 -0.005,-5.685768 -1.15562,-9.733688 -3.6602,-12.881225 -2.10203,-2.641651 -5.22532,-4.178199 -9.23599,-4.543772 -3.64452,-0.332199 -7.27205,0.472945 -9.87815,2.192491 -1.7992,1.187138 -3.71554,3.398242 -4.77195,5.505943 -2.2124,4.414086 -2.64013,12.04228 -0.96301,17.174471 1.68338,5.151368 5.53777,8.698236 10.48616,9.649517 1.42757,0.274439 1.39865,0.271986 3.39843,0.288269 1.13624,0.0093 2.31364,-0.05213 2.98828,-0.155778 z m 96.97266,6.307265 c -0.19336,-0.02254 -0.85254,-0.09848 -1.46484,-0.168743 -2.13685,-0.245222 -4.84994,-1.059848 -6.79934,-2.04155 l -0.81785,-0.411865 v -3.875561 -3.875562 l 0.43945,0.346394 c 1.53676,1.21134 3.83567,2.439412 5.71496,3.052921 2.1031,0.686582 2.80092,0.781357 5.68153,0.771653 2.32366,-0.0078 2.74802,-0.03912 3.57422,-0.263584 2.73316,-0.742552 4.20052,-2.125732 4.68588,-4.417077 0.43747,-2.06527 -0.0114,-3.977653 -1.26891,-5.406276 -0.94262,-1.070878 -4.19007,-2.911247 -9.27563,-5.256617 -3.07527,-1.418259 -5.6314,-3.171841 -7.01376,-4.811655 -0.84864,-1.006702 -1.73721,-2.794067 -2.0934,-4.21091 -0.23318,-0.927521 -0.2648,-1.344343 -0.26216,-3.457031 0.003,-2.27827 0.0194,-2.455534 0.32135,-3.432225 0.62692,-2.028081 1.58208,-3.59443 3.12871,-5.130716 2.13887,-2.124579 4.76763,-3.496035 8.08651,-4.218831 1.63652,-0.356407 5.26,-0.44227 7.36295,-0.174474 1.79212,0.228212 3.95457,0.790954 5.43978,1.41561 l 1.02539,0.431264 v 3.634571 3.634569 l -0.32226,-0.21278 c -2.13385,-1.40889 -3.97116,-2.168221 -6.41325,-2.650482 -1.82535,-0.360469 -4.86653,-0.361395 -6.17803,-0.0019 -2.31639,0.634976 -4.07269,2.047969 -4.80024,3.861913 -0.23593,0.588248 -0.27116,0.879825 -0.27272,2.257525 -0.002,1.349842 0.0378,1.696554 0.26788,2.362333 0.72695,2.103521 2.28253,3.272463 7.37853,5.544571 5.29804,2.362198 7.62734,3.764918 9.4679,5.701638 2.14506,2.257114 3.12835,5.151662 2.94082,8.657084 -0.16554,3.094666 -1.33692,5.749697 -3.45925,7.840717 -2.59144,2.553205 -6.05193,4.022541 -10.49497,4.456211 -1.18836,0.115992 -3.76729,0.143502 -4.57925,0.04885 z M 176.33507,88.795768 c -0.0285,-0.04834 -4.01737,-13.666993 -8.86413,-30.263673 -4.84676,-16.596681 -8.98778,-30.769722 -9.20227,-31.495648 l -0.38996,-1.319867 4.05811,0.0308 4.05812,0.0308 6.71149,24.19922 c 3.69131,13.309571 6.84451,24.779298 7.00712,25.488282 0.16261,0.708985 0.41253,2.119629 0.55538,3.134766 0.14287,1.015137 0.28861,1.845703 0.32387,1.845703 0.0353,0 0.15464,-0.619629 0.26526,-1.376953 0.11061,-0.757324 0.34884,-1.957031 0.52938,-2.666016 0.18054,-0.708984 3.54218,-12.403577 7.47032,-25.987981 l 7.14205,-24.698921 3.57418,0.03095 3.57419,0.03095 6.23368,22.79297 c 3.42853,12.536133 6.50788,23.820683 6.84301,25.076776 0.58004,2.174048 1.06204,4.540314 1.22363,6.00721 0.0408,0.370605 0.10998,0.673605 0.15369,0.673332 0.0437,-2.34e-4 0.2014,-0.751737 0.35042,-1.669922 0.34472,-2.123735 0.57246,-3.006196 7.795,-30.204584 l 6.02155,-22.675782 4.00955,-0.03084 c 3.78288,-0.0291 4.00615,-0.01916 3.9493,0.175781 -0.0331,0.113644 -3.99434,14.154869 -8.80267,31.202722 -4.80833,17.047852 -8.7969,31.167482 -8.86348,31.376954 l -0.12105,0.38086 h -4.32686 c -2.37976,0 -4.32684,-0.02457 -4.32684,-0.0546 0,-0.03003 -2.95695,-10.563722 -6.571,-23.408204 -3.61404,-12.844481 -6.66836,-23.828211 -6.78739,-24.408289 -0.11902,-0.580079 -0.27797,-1.608399 -0.35324,-2.285157 -0.2193,-1.972009 -0.30926,-2.531267 -0.37698,-2.34375 -0.0349,0.09668 -0.20086,1.045899 -0.36877,2.109375 -0.16789,1.063477 -0.4411,2.460938 -0.60713,3.105469 -0.16602,0.644531 -3.22528,11.518124 -6.79837,24.16354 -3.57307,12.645414 -6.4965,23.020903 -6.4965,23.056642 0,0.09985 -8.53371,0.07709 -8.59266,-0.02291 z m 69.37392,0.0098 c -0.043,-0.04297 -0.0781,-10.194332 -0.0781,-22.558592 V 43.766469 h 3.63281 3.63281 v 22.558595 22.558595 h -3.55468 c -1.95509,0 -3.58985,-0.03516 -3.63281,-0.07813 z m 18.16575,0.0017 c -0.0439,-0.04389 -0.0798,-10.196019 -0.0798,-22.560279 v -22.48052 h 3.63119 3.63119 l 0.0309,3.779297 0.0309,3.779297 0.87859,-1.285638 c 1.73461,-2.538278 3.88727,-4.454074 6.38704,-5.684238 2.38691,-1.174626 4.55511,-1.642024 7.61718,-1.642024 4.49445,0 7.77927,1.189835 10.37193,3.756947 1.01026,1.000306 2.25192,2.786841 2.85186,4.103316 0.89918,1.973118 1.57615,4.608102 1.8296,7.121475 0.0781,0.774368 0.12239,6.637887 0.12239,16.201173 v 14.987585 h -3.56904 -3.56905 l -0.0418,-14.384767 c -0.0455,-15.676226 -0.0304,-15.304114 -0.72934,-17.930241 -0.94887,-3.56502 -2.79696,-5.900664 -5.54826,-7.01196 -1.28518,-0.519112 -2.28062,-0.676619 -4.23786,-0.670555 -1.57692,0.0049 -1.97092,0.04637 -2.98828,0.314647 -2.25487,0.594605 -4.38087,1.929766 -5.91966,3.717649 -1.62774,1.891247 -2.53563,3.737583 -3.19256,6.492569 -0.24798,1.039989 -0.25237,1.252302 -0.31573,15.234376 l -0.0642,14.179688 -3.5237,0.03098 c -1.93804,0.01704 -3.55963,-0.0049 -3.60351,-0.04883 z M 420.84742,88.50285 c -0.17179,-0.611717 -13.40515,-44.428388 -13.46689,-44.589846 -0.0441,-0.115326 0.75195,-0.146484 3.74243,-0.146484 h 3.79844 l 4.70803,17.197266 c 4.48296,16.375114 4.93335,18.130683 5.12603,19.98047 0.11479,1.102139 0.34176,1.050249 0.51256,-0.117187 0.22153,-1.51428 0.48596,-2.415718 5.87779,-20.03872 l 5.20771,-17.021141 3.30264,-3.52e-4 c 3.04391,-3.51e-4 3.30749,0.01572 3.3644,0.204735 0.45797,1.521201 9.37513,34.048925 9.49889,34.649738 0.0939,0.455829 0.23046,1.329756 0.30348,1.942061 0.12039,1.009425 0.24966,1.425465 0.3971,1.27802 0.0297,-0.02971 0.11057,-0.527168 0.1797,-1.10547 0.16531,-1.383027 0.13297,-1.258973 5.31639,-20.387395 l 4.47754,-16.523438 3.54282,-0.03101 c 1.94855,-0.01706 3.54282,0.01076 3.54282,0.06182 0,0.05106 -3.02549,10.190015 -6.72331,22.531016 l -6.7233,22.438191 -3.70814,0.03095 -3.70816,0.03095 -0.11199,-0.26532 c -0.15516,-0.367532 -9.23462,-31.966693 -9.44642,-32.876237 -0.14244,-0.611695 -0.50659,-2.897092 -0.51404,-3.22608 -10e-4,-0.05214 -0.0549,-0.06222 -0.11933,-0.02238 -0.0644,0.03983 -0.11719,0.225249 -0.11719,0.412031 0,0.186783 -0.18176,1.040604 -0.4039,1.897381 -0.3754,1.447816 -10.23657,33.229846 -10.49155,33.813637 l -0.11515,0.263672 h -3.57123 -3.57122 z M 21.099609,37.407788 V 19.330357 l 21.708984,-3.027946 c 11.939942,-1.665369 21.854004,-3.055672 22.03125,-3.089561 l 0.322266,-0.06162 V 34.318226 55.48522 H 43.130859 21.099609 Z M 68.560546,34.107811 V 12.730402 l 0.322266,-0.06565 C 69.060058,12.628651 81.887695,10.832417 97.388671,8.6731241 112.88965,6.5138317 125.74365,4.7174567 125.95312,4.6811798 l 0.38086,-0.065958 V 30.050221 55.48522 H 97.447265 68.560546 Z M 248.79492,33.606977 c -1.38556,-0.156084 -2.68888,-0.949291 -3.42845,-2.086602 -0.78091,-1.200869 -0.89769,-3.239575 -0.26178,-4.570313 0.4259,-0.891276 1.3218,-1.790401 2.22539,-2.233404 0.65424,-0.320759 0.7968,-0.344721 2.05078,-0.344721 1.20737,0 1.41475,0.03168 1.99219,0.304353 0.95561,0.451254 1.80031,1.272985 2.25227,2.191055 0.36411,0.739604 0.38445,0.849363 0.38445,2.074905 0,1.225541 -0.0203,1.3353 -0.38445,2.074904 -0.40533,0.823353 -1.24254,1.689695 -2.01244,2.082465 -0.74598,0.380571 -1.9766,0.602137 -2.81796,0.507358 z"
       id="path1770" />
  </g>
</svg>
