<?xml version="1.0" encoding="UTF-8" standalone="no"?>
<!-- Created with Inkscape (http://www.inkscape.org/) -->

<svg
   version="1.1"
   id="svg2"
   width="256"
   height="256"
   viewBox="0 0 256 256"
   xmlns="http://www.w3.org/2000/svg"
   xmlns:svg="http://www.w3.org/2000/svg">
  <defs
     id="defs6" />
  <g
     id="layer1"
     transform="translate(-6.3741309,-6.0718331)" />
  <g
     id="g8"
     transform="matrix(1.0497979,0,0,1.0497979,-395.90087,-384.16171)"
     style="fill:#444444;fill-opacity:1">
    <path
       style="display:none;fill:#444444;fill-opacity:1;stroke:none;stroke-width:0.263944"
       d="m 384.80525,603.48963 c -5.21571,-1.36651 -9.51456,-4.93638 -11.95586,-9.92845 -1.9958,-4.0811 -1.83757,6.00626 -1.76207,-112.33119 l 0.0679,-106.4432 0.61998,-1.70995 c 2.1708,-5.98719 6.04982,-9.92814 11.87596,-12.06555 l 2.021,-0.74144 112.57226,-0.0727 c 125.69075,-0.0812 114.38435,-0.2529 118.45476,1.7993 4.9974,2.51956 8.49127,6.79463 9.82958,12.02739 0.5138,2.00891 0.5205,3.4009 0.5205,108.05631 0,104.59132 -0.007,106.04858 -0.51957,108.05268 -1.66522,6.51095 -6.85908,11.70481 -13.37003,13.37004 -2.00546,0.51291 -3.46975,0.51938 -114.23161,0.50503 -109.53508,-0.0142 -112.24578,-0.0265 -114.12281,-0.51828 z m 226.47858,-5.13388 c 4.91806,-1.04216 8.9126,-4.97743 10.08014,-9.93059 0.35201,-1.49336 0.39853,-13.91108 0.39793,-106.21303 -5.3e-4,-88.77787 -0.0566,-104.78559 -0.37166,-106.27219 -0.97004,-4.57653 -4.22703,-8.19924 -8.78764,-9.77439 l -1.7859,-0.61682 H 499.16824 c -107.58852,0 -111.70604,0.0176 -113.23212,0.48479 -4.36561,1.33637 -7.68084,4.65161 -9.01722,9.01721 -0.46696,1.52547 -0.48478,5.46367 -0.48478,107.1614 v 105.57774 l 0.60297,1.74429 c 0.77597,2.24475 1.84516,3.91426 3.55933,5.55779 1.53153,1.46841 4.39179,2.96339 6.39547,3.34272 0.81565,0.15442 43.56093,0.25937 111.9124,0.27478 95.12307,0.0215 110.84263,-0.028 112.37954,-0.3537 z M 410.50407,558.85967 c -4.61068,-0.67239 -8.36706,-4.37479 -9.11497,-8.98398 -0.34445,-2.12274 -0.36252,-36.11133 -0.0205,-38.47784 0.6282,-4.34613 3.9821,-8.00029 8.24556,-8.98374 0.68939,-0.15902 8.49276,-0.2638 19.93872,-0.26773 l 18.80603,-0.006 v 6.85235 6.85236 l -15.11081,0.0762 c -16.77013,0.0846 -16.08555,0.0116 -17.39952,1.85383 l -0.61468,0.8618 v 11.92413 c 0,11.63159 0.0134,11.94201 0.5442,12.65302 0.2993,0.40089 0.87211,0.97378 1.2729,1.27309 0.71363,0.53293 1.04515,0.54569 16.01831,0.61641 l 15.2896,0.0722 v 6.9883 6.9883 l -18.14617,-0.0322 c -9.9804,-0.0177 -18.84931,-0.13473 -19.70871,-0.26005 z m 117.09758,-24.1886 0.0726,-24.48084 0.73301,-1.56522 c 1.44825,-3.09251 3.59532,-4.99221 6.74002,-5.96351 1.63995,-0.50653 2.55569,-0.52157 31.75051,-0.52157 h 30.06185 v 28.37402 28.37401 h -6.99453 -6.99452 v -21.53492 -21.53493 l -5.34488,0.0894 c -5.96608,0.0998 -6.57543,0.26079 -7.78546,2.05635 l -0.59477,0.88258 v 20.02074 20.02073 h -6.99452 -6.99453 v -21.53492 -21.53493 l -5.34487,0.0926 c -4.33482,0.0751 -5.49451,0.17453 -6.13671,0.52627 -1.19403,0.65398 -1.99702,1.63772 -2.25927,2.76785 -0.12958,0.55841 -0.23844,9.77495 -0.2419,20.48119 l -0.006,19.4659 h -6.86914 -6.86915 z m -61.1522,23.5576 c -3.0228,-1.24258 -5.09084,-3.28507 -6.28087,-6.20326 -0.5916,-1.45074 -0.59204,-1.46423 -0.67355,-20.45569 -0.0879,-20.46905 -0.0591,-21.00299 1.27141,-23.61248 0.78513,-1.53984 2.66866,-3.51839 4.22101,-4.43394 2.38535,-1.40684 2.30498,-1.40232 23.51521,-1.32396 l 19.63969,0.0726 1.5268,0.61626 c 1.99498,0.80521 4.48027,3.10242 5.46334,5.04987 1.33363,2.6419 1.36155,3.15996 1.27369,23.63169 -0.0815,18.99146 -0.082,19.00495 -0.67355,20.45569 -1.21047,2.96832 -3.49897,5.17626 -6.54725,6.31677 -1.4278,0.5342 -1.88005,0.54565 -21.31066,0.53952 l -19.85191,-0.006 -1.57336,-0.64676 z m 34.08543,-13.74994 c 0.4097,-0.30369 1.01216,-0.94482 1.33879,-1.42474 0.59375,-0.87241 0.59387,-0.87497 0.59387,-12.54004 v -11.66746 l -0.59477,-0.88258 c -0.32712,-0.48542 -1.01008,-1.12656 -1.51768,-1.42474 -0.89278,-0.52446 -1.29767,-0.54216 -12.40449,-0.54216 -11.10681,0 -11.5117,0.0177 -12.40448,0.54216 -0.5076,0.29818 -1.19056,0.93932 -1.51768,1.42474 -0.59463,0.88237 -0.59477,0.8853 -0.59477,12.4702 0,12.42234 -0.0113,12.31014 1.36076,13.59113 0.3405,0.31791 0.91596,0.69828 1.27881,0.84526 0.41762,0.16917 4.89058,0.24763 12.18823,0.21381 11.24121,-0.0521 11.54707,-0.0672 12.27341,-0.60558 z m -99.42196,-63.3124 v -6.99502 l 20.52167,-0.0707 20.52167,-0.0707 0.8618,-0.61469 c 1.89864,-1.35421 1.77765,0.46342 1.77765,-26.70355 0,-27.16697 0.12099,-25.34934 -1.77765,-26.70356 l -0.8618,-0.61468 -11.82758,-0.0738 c -11.59461,-0.0724 -11.84676,-0.0629 -12.8013,0.47976 -0.53555,0.30449 -1.21127,0.87221 -1.50161,1.2616 -0.51017,0.68422 -0.52789,1.11993 -0.52789,12.98139 0,11.86146 0.0177,12.29717 0.52789,12.9814 0.29034,0.38938 0.95977,0.95357 1.48763,1.25373 0.91848,0.52229 1.3469,0.54575 9.9639,0.54575 h 9.00416 v 7.00357 7.00357 l -13.65912,-0.075 -13.65912,-0.075 -1.77411,-0.89035 c -3.11946,-1.56553 -5.36339,-4.53037 -6.01023,-7.94113 -0.35824,-1.889 -0.35824,-37.72396 0,-39.61296 0.64684,-3.41076 2.89077,-6.3756 6.01023,-7.94113 l 1.77411,-0.89035 h 20.85715 20.85715 l 1.76761,0.87019 c 1.93133,0.95079 3.8038,2.65091 4.8088,4.36617 1.50879,2.5751 1.4628,1.44091 1.4628,36.07093 0,27.91233 -0.0504,32.01982 -0.40964,33.39949 -0.81894,3.14491 -2.91567,5.66938 -5.87205,7.06993 l -1.76862,0.83787 -24.87675,0.0712 -24.87675,0.0712 z m 138.04289,0 v -6.99502 l 20.52167,-0.0707 20.52167,-0.0707 0.8618,-0.61469 c 1.89864,-1.35421 1.77765,0.46342 1.77765,-26.70355 0,-24.15996 -0.006,-24.42449 -0.5426,-25.33851 -0.29843,-0.50801 -1.01108,-1.18901 -1.58367,-1.51334 -1.03357,-0.58543 -1.12473,-0.5897 -12.65462,-0.59267 l -11.61355,-0.003 -1.00405,0.60781 c -2.11655,1.28128 -2.02783,0.66131 -2.02783,14.17037 0,13.50905 -0.0887,12.88908 2.02783,14.17036 0.99534,0.60254 1.08138,0.60783 9.91217,0.60917 l 8.90812,10e-4 v 7.00365 7.00364 l -13.52714,-0.0751 -13.52715,-0.0751 -1.51838,-0.71156 c -3.05212,-1.43033 -5.54206,-4.55074 -6.23492,-7.81364 -0.41486,-1.95371 -0.41486,-38.27181 0,-40.22552 0.69286,-3.2629 3.1828,-6.38331 6.23492,-7.81364 l 1.51838,-0.71156 h 20.8516 20.85161 l 1.51837,0.71156 c 3.05212,1.43033 5.54206,4.55074 6.23492,7.81364 0.3933,1.85217 0.40962,64.04293 0.0173,65.74487 -0.72827,3.15895 -3.02397,6.01317 -6.02488,7.49067 l -1.73421,0.85384 -24.88249,0.0712 -24.88248,0.0712 z m -61.10312,-18.7242 c -3.05854,-0.96982 -5.46196,-3.05196 -6.81158,-5.90103 l -0.8428,-1.77918 v -20.71963 -20.71963 l 0.8428,-1.77918 c 1.09084,-2.30277 2.99358,-4.20551 5.29634,-5.29634 l 1.77919,-0.84281 20.24728,-0.0723 c 19.94016,-0.0712 20.27213,-0.0639 21.88549,0.47956 2.9352,0.9888 5.0905,2.90534 6.50637,5.7856 l 0.71845,1.46154 v 20.98357 20.98358 l -0.71845,1.46153 c -1.37877,2.80479 -3.44811,4.68065 -6.35196,5.75805 -1.51448,0.56191 -1.69906,0.56662 -21.51147,0.54912 -15.36974,-0.0136 -20.22765,-0.095 -21.03966,-0.35244 z M 511.86817,448.147 c 0.40074,-0.2993 0.9735,-0.8722 1.27281,-1.27309 0.53112,-0.71138 0.5442,-1.01964 0.5442,-12.83162 0,-11.81198 -0.0131,-12.12024 -0.5442,-12.83162 -0.29931,-0.40089 -0.8722,-0.97379 -1.27309,-1.27309 -0.71138,-0.53113 -1.01964,-0.5442 -12.83162,-0.5442 -11.81199,0 -12.12024,0.0131 -12.83163,0.5442 -0.40089,0.2993 -0.97378,0.87206 -1.27309,1.27278 -0.52693,0.70549 -0.54669,1.09009 -0.62275,12.12513 -0.0432,6.2681 -0.009,11.77907 0.0765,12.24659 0.19297,1.05799 1.30163,2.40555 2.36448,2.87399 0.64171,0.28282 3.19603,0.34263 12.59735,0.29494 11.45033,-0.0581 11.81358,-0.0756 12.52105,-0.60401 z"
       id="path293" />
    <path
       id="path1027"
       style="display:inline;fill:#cccccc;fill-opacity:1;stroke:none;stroke-width:0.251423"
       d="m 565.87917,371.72297 c -15.88767,-0.004 -37.66402,0.0214 -67.59606,0.0408 l -107.23179,0.0691 -1.92641,0.70535 c -5.54976,2.03601 -9.24427,5.78968 -11.31209,11.49285 l -0.59015,1.63044 -0.0656,101.39232 c -0.0719,112.72373 -0.22106,103.11567 1.68007,107.00318 2.32549,4.75525 6.42,8.15666 11.38828,9.45834 1.78799,0.46845 4.36912,0.47915 108.70806,0.49268 105.50751,0.0137 106.90228,0.008 108.81261,-0.48027 6.20208,-1.58624 11.15073,-6.53488 12.73696,-12.73696 0.48825,-1.90903 0.49444,-3.29737 0.49444,-102.92706 0,-99.69075 -0.007,-101.017 -0.49622,-102.93061 -1.27482,-4.98453 -4.60231,-9.0556 -9.36264,-11.45564 -2.90799,-1.46614 2.42352,-1.74149 -45.23949,-1.7545 z m -67.30365,39.24939 c 19.94009,-0.0712 20.27181,-0.0632 21.88516,0.48027 2.93519,0.98879 5.08995,2.90428 6.50582,5.78453 l 0.71952,1.46208 v 20.9831 20.98488 l -0.71952,1.4603 c -1.37876,2.80479 -3.4478,4.68055 -6.35164,5.75795 -1.51448,0.56192 -1.69885,0.56688 -21.51122,0.54939 -15.36969,-0.0136 -20.2278,-0.0952 -21.03981,-0.35268 -3.05854,-0.96982 -5.46103,-3.05067 -6.81064,-5.89972 l -0.84358,-1.77931 V 439.68234 418.9633 l 0.84358,-1.77931 c 1.09083,-2.30276 2.99264,-4.20457 5.2954,-5.2954 l 1.7793,-0.84357 z m -89.3997,0.0727 h 20.8555 20.85727 l 1.76867,0.87016 c 1.93134,0.95079 3.80305,2.65149 4.80805,4.36675 1.50878,2.5751 1.46385,1.44009 1.46385,36.07002 0,27.91224 -0.0519,32.01962 -0.41116,33.39928 -0.81894,3.14491 -2.91499,5.67062 -5.87137,7.07116 l -1.76868,0.83826 -24.87666,0.0709 -24.87667,0.0709 v -6.99496 -6.99495 l 20.52232,-0.0709 20.52055,-0.0709 0.86307,-0.61496 c 1.89864,-1.3542 1.77754,0.46307 1.77754,-26.70383 0,-27.1669 0.1211,-25.34962 -1.77754,-26.70383 l -0.86307,-0.61319 -11.82781,-0.0744 c -11.59457,-0.0724 -11.84621,-0.0624 -12.80075,0.48027 -0.53555,0.30448 -1.21072,0.87243 -1.50107,1.26182 -0.51017,0.68422 -0.52812,1.11832 -0.52812,12.97975 0,11.86143 0.0179,12.29728 0.52812,12.98152 0.29035,0.38937 0.95904,0.95457 1.48689,1.25473 0.91848,0.52229 1.34646,0.54585 9.96344,0.54585 h 9.00465 v 7.00381 7.00205 l -13.65851,-0.0744 -13.65851,-0.0744 -1.77576,-0.88966 c -3.11946,-1.56553 -5.36277,-4.53059 -6.00961,-7.94132 -0.35824,-1.889 -0.35824,-37.7237 0,-39.6127 0.64684,-3.41074 2.89015,-6.37579 6.00961,-7.94131 z m 138.04185,0 h 20.85196 20.85195 l 1.51703,0.71066 c 3.0521,1.43032 5.54182,4.55083 6.23467,7.81372 0.39331,1.85216 0.41001,64.04393 0.0177,65.74586 -0.72826,3.15895 -3.02287,6.01192 -6.02378,7.48941 l -1.735,0.85421 -24.88199,0.0709 -24.88199,0.0727 -0.002,-6.99496 v -6.99495 l 20.52233,-0.0709 20.52232,-0.0709 0.8613,-0.61496 c 1.89864,-1.3542 1.77754,0.46307 1.77754,-26.70383 0,-24.15989 -0.005,-24.42343 -0.5423,-25.33745 -0.29843,-0.508 -1.01178,-1.18914 -1.58437,-1.51347 -1.03356,-0.58543 -1.1238,-0.59072 -12.65366,-0.5937 l -11.61336,-0.002 -1.00485,0.60787 c -2.11654,1.28128 -2.02743,0.65989 -2.02743,14.16891 0,13.50902 -0.089,12.8894 2.02743,14.17068 0.99534,0.60253 1.08126,0.60831 9.91203,0.60965 h 8.90896 v 7.00381 7.00382 l -13.52737,-0.0744 -13.52737,-0.0744 -1.51879,-0.71244 c -3.05212,-1.43032 -5.54182,-4.55083 -6.23468,-7.81372 -0.41486,-1.95371 -0.41486,-38.27217 0,-40.22588 0.69286,-3.26289 3.18256,-6.3834 6.23468,-7.81372 z m -48.16897,13.98991 c -11.81195,0 -12.12126,0.013 -12.83265,0.54407 -0.40089,0.2993 -0.97315,0.87174 -1.27245,1.27246 -0.52694,0.70548 -0.54776,1.09053 -0.62383,12.12554 -0.0432,6.26808 -0.007,11.77852 0.078,12.24604 0.19297,1.05798 1.3013,2.40612 2.36415,2.87455 0.6417,0.28282 3.19565,0.34187 12.59694,0.29419 11.4503,-0.0581 11.81328,-0.0759 12.52075,-0.60434 0.40074,-0.29929 0.97315,-0.87156 1.27245,-1.27245 0.53112,-0.71137 0.54407,-1.02071 0.54407,-12.83265 0,-11.81196 -0.0129,-12.1195 -0.54407,-12.83088 -0.2993,-0.40089 -0.87157,-0.97316 -1.27245,-1.27246 -0.71139,-0.53113 -1.01894,-0.54407 -12.83089,-0.54407 z m 67.86012,82.74501 h 30.0622 v 28.37503 28.37327 h -6.99497 -6.99318 v -21.53427 -21.53603 l -5.34502,0.0904 c -5.96607,0.0998 -6.57534,0.26022 -7.78536,2.05577 l -0.59547,0.88257 v 20.02078 20.02079 h -6.99496 -6.99496 v -21.53427 -21.53603 l -5.34324,0.0939 c -4.3348,0.075 -5.495,0.17463 -6.1372,0.52635 -1.19403,0.65398 -1.99734,1.63631 -2.25959,2.76643 -0.12957,0.55841 -0.23756,9.77535 -0.24101,20.48157 l -0.007,19.46608 h -6.86913 -6.86913 l 0.0727,-24.48147 0.0727,-24.47969 0.73193,-1.56487 c 1.44825,-3.0925 3.59684,-4.99223 6.74154,-5.96353 1.63994,-0.50653 2.55459,-0.5228 31.74933,-0.5228 z m -118.53855,0.002 v 6.85141 6.85318 l -15.10996,0.0762 c -16.77009,0.0846 -16.0857,0.0116 -17.39967,1.85375 l -0.61496,0.8613 v 11.92527 c 0,11.63156 0.0133,11.94088 0.54407,12.65189 0.2993,0.40089 0.87166,0.97314 1.27245,1.27245 0.71364,0.53293 1.04599,0.54602 16.01911,0.61674 l 15.28896,0.0727 v 6.98787 6.98964 l -18.14578,-0.0337 c -9.98036,-0.0177 -18.84948,-0.13342 -19.70887,-0.25875 v -0.002 c -4.61067,-0.6724 -8.36662,-4.37421 -9.11454,-8.98339 -0.34444,-2.12272 -0.36327,-36.11197 -0.0213,-38.47847 0.6282,-4.34612 3.9827,-7.99994 8.24615,-8.98339 0.68939,-0.15902 8.49332,-0.26368 19.93926,-0.2676 z m 27.85754,0.0337 c 3.01241,-0.0105 6.98427,0.005 12.28681,0.0248 l 19.63975,0.0727 1.52589,0.61673 c 1.99498,0.8052 4.48069,3.10162 5.46376,5.04906 1.33362,2.6419 1.36209,3.16089 1.27422,23.63256 -0.0816,18.99141 -0.0819,19.00424 -0.67344,20.45498 -1.21047,2.96831 -3.50009,5.17571 -6.54835,6.3162 -1.4278,0.5342 -1.88041,0.54666 -21.31097,0.54053 l -19.85065,-0.005 -1.57373,-0.64687 v -0.002 c -3.0228,-1.24258 -5.09072,-3.28459 -6.28075,-6.20278 -0.59159,-1.45074 -0.59193,-1.46356 -0.67344,-20.45498 -0.0879,-20.46899 -0.0598,-21.00358 1.27068,-23.61306 0.78512,-1.53984 2.66909,-3.51855 4.22143,-4.43411 1.78901,-1.05511 2.19153,-1.31704 11.22879,-1.34866 z m 11.73388,13.82156 c -11.10678,0 -11.511,0.0178 -12.40378,0.5423 -0.5076,0.29817 -1.1899,0.93946 -1.51702,1.42486 -0.59463,0.88238 -0.59547,0.88626 -0.59547,12.47113 0,12.4223 -0.011,12.31017 1.36107,13.59116 0.3405,0.31792 0.91492,0.69837 1.27777,0.84534 0.41761,0.16917 4.8917,0.24649 12.18934,0.21267 11.24117,-0.0521 11.54629,-0.0659 12.27263,-0.60432 0.4097,-0.3037 1.01318,-0.94494 1.3398,-1.42486 0.59375,-0.87243 0.5937,-0.8752 0.5937,-12.54025 v -11.6683 l -0.59547,-0.88257 c -0.32713,-0.4854 -1.00942,-1.12669 -1.51702,-1.42486 -0.89278,-0.52446 -1.29876,-0.5423 -12.40555,-0.5423 z" />
  </g>
</svg>
