<?xml version="1.0" encoding="UTF-8" standalone="no"?>
<!-- Created with Inkscape (http://www.inkscape.org/) -->

<svg
   width="128"
   height="128"
   viewBox="0 0 33.866667 33.866669"
   version="1.1"
   id="svg834"
   sodipodi:docname="gog-com.svg"
   inkscape:version="1.1 (c4e8f9ed74, 2021-05-24)"
   xmlns:inkscape="http://www.inkscape.org/namespaces/inkscape"
   xmlns:sodipodi="http://sodipodi.sourceforge.net/DTD/sodipodi-0.dtd"
   xmlns:xlink="http://www.w3.org/1999/xlink"
   xmlns="http://www.w3.org/2000/svg"
   xmlns:svg="http://www.w3.org/2000/svg"
   xmlns:rdf="http://www.w3.org/1999/02/22-rdf-syntax-ns#"
   xmlns:cc="http://creativecommons.org/ns#"
   xmlns:dc="http://purl.org/dc/elements/1.1/">
  <sodipodi:namedview
     id="namedview14"
     pagecolor="#505050"
     bordercolor="#ffffff"
     borderopacity="1"
     inkscape:pageshadow="0"
     inkscape:pageopacity="0"
     inkscape:pagecheckerboard="1"
     showgrid="false"
     inkscape:zoom="5.6796875"
     inkscape:cx="64"
     inkscape:cy="63.911967"
     inkscape:window-width="1920"
     inkscape:window-height="1023"
     inkscape:window-x="1360"
     inkscape:window-y="33"
     inkscape:window-maximized="1"
     inkscape:current-layer="layer4" />
  <defs
     id="defs828">
    <linearGradient
       id="linearGradient1386">
      <stop
         style="stop-color:#260965;stop-opacity:1;"
         offset="0"
         id="stop1382" />
      <stop
         style="stop-color:#641089;stop-opacity:0.80000001"
         offset="1"
         id="stop1384" />
    </linearGradient>
    <linearGradient
       xlink:href="#linearGradient1386"
       id="linearGradient1388"
       x1="38.907822"
       y1="31.382851"
       x2="339.41092"
       y2="333.84476"
       gradientUnits="userSpaceOnUse"
       gradientTransform="matrix(0.06438817,0,0,0.06438817,74.63024,51.699925)" />
    <linearGradient
       xlink:href="#linearGradient1386"
       id="linearGradient1822"
       gradientUnits="userSpaceOnUse"
       gradientTransform="matrix(0.06438817,0,0,0.06438817,74.630238,51.249962)"
       x1="38.907822"
       y1="31.382851"
       x2="339.41092"
       y2="333.84476" />
    <linearGradient
       inkscape:collect="always"
       xlink:href="#linearGradient1386"
       id="linearGradient1949"
       gradientUnits="userSpaceOnUse"
       gradientTransform="matrix(0.06438817,0,0,0.06438817,74.630238,51.249962)"
       x1="38.907822"
       y1="31.382851"
       x2="339.41092"
       y2="333.84476" />
    <linearGradient
       inkscape:collect="always"
       xlink:href="#linearGradient1386"
       id="linearGradient1951"
       gradientUnits="userSpaceOnUse"
       gradientTransform="matrix(0.06438817,0,0,0.06438817,74.63024,51.699925)"
       x1="38.907822"
       y1="31.382851"
       x2="339.41092"
       y2="333.84476" />
  </defs>
  <metadata
     id="metadata831">
    <rdf:RDF>
      <cc:Work
         rdf:about="">
        <dc:format>image/svg+xml</dc:format>
        <dc:type
           rdf:resource="http://purl.org/dc/dcmitype/StillImage" />
      </cc:Work>
    </rdf:RDF>
  </metadata>
  <g
     id="layer1"
     transform="translate(91.708598,-96.799051)"
     style="display:inline" />
  <g
     inkscape:groupmode="layer"
     id="layer4"
     inkscape:label="bottom"
     style="display:inline">
    <g
       id="layer2"
       style="display:inline;fill:none;stroke:#aaaaaa;stroke-width:0.264583;stroke-linecap:butt;stroke-linejoin:round;stroke-miterlimit:4;stroke-dasharray:none;stroke-opacity:1;paint-order:stroke fill markers"
       transform="translate(-74.630238,-51.249963)">
      <path
         style="display:inline;fill:none;fill-opacity:1;stroke:#aaaaaa;stroke-width:0.264583;stroke-linecap:butt;stroke-linejoin:round;stroke-miterlimit:4;stroke-dasharray:none;stroke-opacity:1;paint-order:stroke fill markers"
         d="m 80.369084,51.249962 c -3.179343,0 -5.738846,2.559503 -5.738846,5.738847 v 21.489047 c 0,3.179344 2.559503,5.738847 5.738846,5.738847 h 22.388976 c 3.17934,0 5.73884,-2.559503 5.73884,-5.738847 V 56.988809 c 0,-3.179344 -2.5595,-5.738847 -5.73884,-5.738847 z m 1.28638,6.607961 h 3.297504 c 0.478815,6.82e-4 0.965145,0.250342 1.233059,0.652559 0.222575,0.334551 0.276458,0.739485 0.278177,1.133458 v 2.850937 3.056929 l -0.03433,0.515231 v 1.23658 c -0.0014,0.832256 -0.644305,1.475529 -1.476904,1.476903 h -4.705743 -0.99613 c -0.08725,0 -0.32794,0.01519 -0.391485,-0.03496 -0.06801,-0.05393 -0.05496,-0.195152 -0.05496,-0.274153 v -1.16779 c 0,-0.09515 -0.01723,-0.394325 0.03496,-0.460275 0.05393,-0.06801 0.195152,-0.05496 0.274153,-0.05496 h 4.087391 c 0.37302,0 1.036225,0.110966 1.207278,-0.309114 0.03435,-0.08449 0.02896,-0.184788 0.0293,-0.274781 v -4.843072 -0.755681 c 0,-0.106822 0.0098,-0.319838 -0.02553,-0.412235 -0.04637,-0.121936 -0.161777,-0.23734 -0.283711,-0.28371 -0.07831,-0.02988 -0.190628,-0.0254 -0.274781,-0.0254 h -2.473034 c -0.429693,6.81e-4 -0.548877,0.170687 -0.549563,0.583895 v 1.751811 l -0.03433,0.515231 c -0.0052,0.475034 0.08789,0.75465 0.618227,0.75568 h 1.786143 c 0.317719,0.0021 0.342759,0.07964 0.343446,0.377778 v 1.133458 c 0,0.09824 0.01623,0.357192 -0.03496,0.431728 -0.06801,0.09858 -0.236682,0.08316 -0.342817,0.0835 h -1.992261 c -0.403244,0 -0.920888,0.02504 -1.305243,-0.0835 -0.614832,-0.173458 -1.063637,-0.79298 -1.064669,-1.427733 v -4.637079 c 0.0012,-0.531366 0.291169,-1.042383 0.755555,-1.309268 0.14186,-0.08175 0.292345,-0.126141 0.446567,-0.177319 z m 8.964921,0 h 3.263046 c 0.872787,0.0017 1.475529,0.74421 1.476904,1.579899 v 4.533959 c -0.001,0.560904 -0.276164,1.102314 -0.790013,1.360955 -0.281311,0.14186 -0.649448,0.184392 -0.961672,0.184738 h -4.121849 c -0.230131,-4.87e-4 -0.612762,-0.03538 -0.824345,-0.118842 -0.568461,-0.224294 -0.92631,-0.792675 -0.92734,-1.392394 v -4.637079 c 0.0014,-0.809929 0.463636,-1.256449 1.202122,-1.49036 z m 8.861798,0 h 3.297377 c 0.86695,0.0014 1.50999,0.733561 1.51136,1.579899 v 3.057055 4.705618 c -0.001,0.853207 -0.63685,1.578651 -1.51136,1.580025 h -4.705616 -1.099252 c -0.08724,-4.86e-4 -0.22254,0.011 -0.288489,-0.05496 -0.06595,-0.06595 -0.05461,-0.201243 -0.05496,-0.288489 v -1.099126 c 0,-0.104074 -0.01678,-0.392238 0.03509,-0.47021 0.0632,-0.0948 0.208407,-0.07901 0.308359,-0.07935 h 4.053188 c 0.38401,0 1.06924,0.119224 1.21419,-0.343446 0.0261,-0.08278 0.0223,-0.187881 0.0223,-0.274781 v -4.80874 -0.755681 c 0,-0.117126 0.01,-0.306442 -0.0306,-0.412235 -0.045,-0.118157 -0.16005,-0.238371 -0.27855,-0.28371 -0.0783,-0.02988 -0.19063,-0.0254 -0.27478,-0.0254 h -2.473038 c -0.402903,6.81e-4 -0.548913,0.146659 -0.555096,0.549563 v 2.060924 c 0.0052,0.182045 -0.04603,0.430359 0,0.583895 0.06904,0.34726 0.272396,0.411892 0.589428,0.412235 h 1.786146 c 0.31772,0.0021 0.34276,0.07964 0.34344,0.377778 v 1.133458 c 0,0.09824 0.0161,0.357192 -0.0351,0.431728 -0.068,0.09858 -0.23668,0.08316 -0.34282,0.0835 h -2.026467 c -0.328713,0 -0.89758,0.01681 -1.202248,-0.06049 -0.738829,-0.187197 -1.132427,-0.818818 -1.133458,-1.553867 V 59.47228 c 0.001,-0.595597 0.244563,-1.138984 0.790012,-1.431631 0.13018,-0.06973 0.272782,-0.111707 0.412235,-0.158077 z m -9.411361,2.030239 c -0.143233,0.0498 -0.221611,0.09619 -0.289621,0.236677 -0.05839,0.120562 -0.05361,0.247941 -0.05395,0.377778 v 0.893134 1.270912 c 0,0.184793 -0.02436,0.457468 0.07181,0.616843 0.122624,0.203685 0.302345,0.207158 0.512213,0.207501 h 2.473034 c 0.470226,-6.81e-4 0.583209,-0.164614 0.583895,-0.618352 v -2.301249 c -0.0055,-0.466447 -0.08138,-0.686334 -0.583895,-0.683244 h -1.751811 z m 6.560425,10.163522 h 5.873533 1.54569 c 0.25727,0.0048 0.24011,0.07761 0.24045,0.309113 v 0.480899 l 0.0343,0.515106 v 4.808739 1.099252 c -0.001,0.08621 0.002,0.21468 -0.0635,0.279938 -0.0749,0.07453 -0.24912,0.06351 -0.34873,0.06351 h -0.65256 l -0.65268,-0.03433 c -0.0735,-0.0015 -0.16384,0.0015 -0.21983,-0.05496 -0.066,-0.06595 -0.0546,-0.201372 -0.055,-0.288616 v -5.220848 h -0.72122 c -0.31394,0 -0.73606,-0.05156 -0.8549,0.343445 -0.007,0.06389 -0.004,0.172098 0,0.24045 v 3.847067 0.824344 c -0.005,0.08621 -0.002,0.21468 -0.0674,0.279938 -0.0749,0.07453 -0.24899,0.06351 -0.3486,0.06351 h -0.652558 l -0.652685,-0.03433 c -0.06251,-4.87e-4 -0.168991,0.0051 -0.219826,-0.03509 -0.06801,-0.05393 -0.05496,-0.195026 -0.05496,-0.274027 v -5.255306 h -0.961673 c -0.483965,7.3e-4 -0.651997,0.168595 -0.652684,0.652559 v 2.953933 1.717479 c -0.0055,0.291962 -0.127036,0.274435 -0.377778,0.274781 H 96.150284 L 95.60072,77.57391 c -0.08312,0 -0.295326,0.0137 -0.357153,-0.03509 -0.06801,-0.05393 -0.05496,-0.195026 -0.05496,-0.274027 v -5.770537 c 0.0014,-0.823328 0.619247,-1.441198 1.442572,-1.442572 z m -11.754865,0.001 c 0.0683,-0.0019 0.152329,0.0016 0.19329,0.03383 0.06801,0.05393 0.05496,0.195026 0.05496,0.274026 v 1.167917 c 0,0.09136 0.01657,0.360899 -0.03496,0.425817 -0.05393,0.06801 -0.195152,0.05496 -0.274153,0.05496 h -3.4005 c -0.4321,0.0055 -0.583209,0.206858 -0.583895,0.618353 v 2.335706 c 0.0012,0.541671 0.263815,0.651873 0.755681,0.652559 h 2.713483 0.583895 c 0.06698,0.0015 0.15912,-0.0035 0.205489,0.05496 0.04293,0.05461 0.03496,0.185805 0.03496,0.254157 v 1.40824 c -0.0055,0.29196 -0.127038,0.274436 -0.377778,0.274781 h -4.259177 c -0.98751,-0.0015 -1.647316,-0.661181 -1.648689,-1.648689 v -4.32784 c 0.0015,-0.773177 0.429291,-1.392112 1.202122,-1.575875 h 1.373908 2.541823 0.858677 c 0.01709,-0.001 0.0381,-0.0022 0.06087,-0.0029 z m 2.686948,0.0041 h 1.683147 3.194257 c 0.89511,-0.0038 1.475655,0.66797 1.477029,1.540412 v 4.465294 c -0.0014,0.956939 -0.726444,1.544318 -1.648689,1.545693 h -4.259176 c -0.875534,-0.0015 -1.612985,-0.603884 -1.614358,-1.511361 v -4.568291 c 0.0011,-0.73402 0.446479,-1.300351 1.16779,-1.471747 z m 3.829462,1.956923 c -0.02818,-1.68e-4 -0.05679,2.78e-4 -0.08552,8.8e-4 h -2.541698 c -0.173459,0.04362 -0.277912,0.102005 -0.358285,0.269625 -0.05393,0.112319 -0.05326,0.222543 -0.05395,0.343445 v 0.893135 1.408239 c 2.26e-4,0.164526 -0.0013,0.33655 0.09897,0.477378 0.126745,0.177923 0.289481,0.174839 0.484923,0.175181 h 2.438702 c 0.489117,-7.29e-4 0.583335,-0.193327 0.584021,-0.652559 v -1.99226 c -0.0018,-0.123995 -0.03639,-0.593867 -0.08413,-0.686262 -0.105793,-0.205274 -0.285762,-0.235634 -0.483036,-0.236802 z"
         id="rect1425" />
      <path
         style="display:inline;fill:none;fill-opacity:1;stroke:#aaaaaa;stroke-width:0.264583;stroke-linecap:butt;stroke-linejoin:round;stroke-miterlimit:4;stroke-dasharray:none;stroke-opacity:1;paint-order:stroke fill markers"
         d="m 80.369086,51.699925 c -3.179343,0 -5.738846,2.559503 -5.738846,5.738847 v 21.489047 c 0,3.179344 2.559503,5.738847 5.738846,5.738847 h 22.388974 c 3.17934,0 5.73884,-2.559503 5.73884,-5.738847 V 57.438772 c 0,-3.179344 -2.5595,-5.738847 -5.73884,-5.738847 z m 1.28638,6.607961 h 3.297504 c 0.478815,6.82e-4 0.965145,0.250342 1.233059,0.652559 0.222575,0.334551 0.276458,0.739485 0.278177,1.133458 v 2.850937 3.056929 L 86.429876,66.517 v 1.23658 c -0.0014,0.832256 -0.644305,1.475529 -1.476904,1.476903 h -4.705743 -0.99613 c -0.08725,0 -0.32794,0.01519 -0.391485,-0.03496 -0.06801,-0.05393 -0.05496,-0.195152 -0.05496,-0.274153 v -1.16779 c 0,-0.09515 -0.01723,-0.394325 0.03496,-0.460275 0.05393,-0.06801 0.195152,-0.05496 0.274153,-0.05496 h 4.087391 c 0.37302,0 1.036225,0.110966 1.207278,-0.309114 0.03435,-0.08449 0.02896,-0.184788 0.0293,-0.274781 v -4.843072 -0.755681 c 0,-0.106822 0.0098,-0.319838 -0.02553,-0.412235 -0.04637,-0.121936 -0.161777,-0.23734 -0.283711,-0.28371 -0.07831,-0.02988 -0.190628,-0.0254 -0.274781,-0.0254 H 81.38068 c -0.429693,6.81e-4 -0.548877,0.170687 -0.549563,0.583895 v 1.751811 l -0.03433,0.515231 c -0.0052,0.475034 0.08789,0.75465 0.618227,0.75568 h 1.786143 c 0.317719,0.0021 0.342759,0.07964 0.343446,0.377778 v 1.133458 c 0,0.09824 0.01623,0.357192 -0.03496,0.431728 -0.06801,0.09858 -0.236682,0.08316 -0.342817,0.0835 h -1.992261 c -0.403244,0 -0.920888,0.02504 -1.305243,-0.0835 -0.614832,-0.173458 -1.063637,-0.79298 -1.064669,-1.427733 v -4.637079 c 0.0012,-0.531366 0.291169,-1.042383 0.755555,-1.309268 0.14186,-0.08175 0.292345,-0.126141 0.446567,-0.177319 z m 8.964921,0 h 3.263046 c 0.872787,0.0017 1.475529,0.74421 1.476904,1.579899 v 4.533959 c -0.001,0.560904 -0.276164,1.102314 -0.790013,1.360955 -0.281311,0.14186 -0.649448,0.184392 -0.961672,0.184738 h -4.121849 c -0.230131,-4.87e-4 -0.612762,-0.03538 -0.824345,-0.118842 -0.568461,-0.224294 -0.92631,-0.792675 -0.92734,-1.392394 v -4.637079 c 0.0014,-0.809929 0.463636,-1.256449 1.202122,-1.49036 z m 8.861798,0 h 3.297375 c 0.86695,0.0014 1.50999,0.733561 1.51136,1.579899 v 3.057055 4.705618 c -0.001,0.853207 -0.63685,1.578651 -1.51136,1.580025 h -4.705614 -1.099252 c -0.08724,-4.86e-4 -0.22254,0.011 -0.288489,-0.05496 -0.06595,-0.06595 -0.05461,-0.201243 -0.05496,-0.288489 v -1.099126 c 0,-0.104074 -0.01678,-0.392238 0.03509,-0.47021 0.0632,-0.0948 0.208407,-0.07901 0.308359,-0.07935 h 4.053186 c 0.38401,0 1.06924,0.119224 1.21419,-0.343446 0.0261,-0.08278 0.0223,-0.187881 0.0223,-0.274781 V 61.811381 61.0557 c 0,-0.117126 0.01,-0.306442 -0.0306,-0.412235 -0.045,-0.118157 -0.16005,-0.238371 -0.27855,-0.28371 -0.0783,-0.02988 -0.19063,-0.0254 -0.27478,-0.0254 h -2.473036 c -0.402903,6.81e-4 -0.548913,0.146659 -0.555096,0.549563 v 2.060924 c 0.0052,0.182045 -0.04603,0.430359 0,0.583895 0.06904,0.34726 0.272396,0.411892 0.589428,0.412235 h 1.786144 c 0.31772,0.0021 0.34276,0.07964 0.34344,0.377778 v 1.133458 c 0,0.09824 0.0161,0.357192 -0.0351,0.431728 -0.068,0.09858 -0.23668,0.08316 -0.34282,0.0835 h -2.026465 c -0.328713,0 -0.89758,0.01681 -1.202248,-0.06049 -0.738829,-0.187197 -1.132427,-0.818818 -1.133458,-1.553867 v -4.430836 c 10e-4,-0.595597 0.244563,-1.138984 0.790012,-1.431631 0.13018,-0.06973 0.272782,-0.111707 0.412235,-0.158077 z m -9.411361,2.030239 c -0.143233,0.0498 -0.221611,0.09619 -0.289621,0.236677 -0.05839,0.120562 -0.05361,0.247941 -0.05395,0.377778 v 0.893134 1.270912 c 0,0.184793 -0.02436,0.457468 0.07181,0.616843 0.122624,0.203685 0.302345,0.207158 0.512213,0.207501 h 2.473034 c 0.470226,-6.81e-4 0.583209,-0.164614 0.583895,-0.618352 v -2.301249 c -0.0055,-0.466447 -0.08138,-0.686334 -0.583895,-0.683244 h -1.751811 z m 6.560425,10.163522 h 5.873531 1.54569 c 0.25727,0.0048 0.24011,0.07761 0.24045,0.309113 v 0.480899 l 0.0343,0.515106 v 4.808739 1.099252 c -0.001,0.08621 0.002,0.21468 -0.0635,0.279938 -0.0749,0.07453 -0.24912,0.06351 -0.34873,0.06351 h -0.65256 l -0.65268,-0.03433 c -0.0735,-0.0015 -0.16384,0.0015 -0.21983,-0.05496 -0.066,-0.06595 -0.0546,-0.201372 -0.055,-0.288616 V 72.45945 h -0.72122 c -0.31394,0 -0.73606,-0.05156 -0.8549,0.343445 -0.007,0.06389 -0.004,0.172098 0,0.24045 v 3.847067 0.824344 c -0.005,0.08621 -0.002,0.21468 -0.0674,0.279938 -0.0749,0.07453 -0.24899,0.06351 -0.3486,0.06351 h -0.652556 l -0.652685,-0.03433 c -0.06251,-4.87e-4 -0.168991,0.0051 -0.219826,-0.03509 -0.06801,-0.05393 -0.05496,-0.195026 -0.05496,-0.274027 V 72.459451 H 97.7991 c -0.483965,7.3e-4 -0.651997,0.168595 -0.652684,0.652559 v 2.953933 1.717479 c -0.0055,0.291962 -0.127036,0.274435 -0.377778,0.274781 h -0.618352 l -0.549564,-0.03433 c -0.08312,0 -0.295326,0.0137 -0.357153,-0.03509 -0.06801,-0.05393 -0.05496,-0.195026 -0.05496,-0.274027 v -5.770537 c 0.0014,-0.823328 0.619247,-1.441198 1.442572,-1.442572 z m -11.754865,10e-4 c 0.0683,-0.0019 0.152329,0.0016 0.19329,0.03383 0.06801,0.05393 0.05496,0.195026 0.05496,0.274026 v 1.167917 c 0,0.09136 0.01657,0.360899 -0.03496,0.425817 -0.05393,0.06801 -0.195152,0.05496 -0.274153,0.05496 h -3.4005 c -0.4321,0.0055 -0.583209,0.206858 -0.583895,0.618353 v 2.335706 c 0.0012,0.541671 0.263815,0.651873 0.755681,0.652559 h 2.713483 0.583895 c 0.06698,0.0015 0.15912,-0.0035 0.205489,0.05496 0.04293,0.05461 0.03496,0.185805 0.03496,0.254157 v 1.40824 c -0.0055,0.29196 -0.127038,0.274436 -0.377778,0.274781 h -4.259177 c -0.98751,-0.0015 -1.647316,-0.661181 -1.648689,-1.648689 v -4.32784 c 0.0015,-0.773177 0.429291,-1.392112 1.202122,-1.575875 h 1.373908 2.541823 0.858677 c 0.01709,-0.001 0.0381,-0.0022 0.06087,-0.0029 z m 2.686948,0.0041 h 1.683147 3.194257 c 0.89511,-0.0038 1.475655,0.66797 1.477029,1.540412 v 4.465294 c -0.0014,0.956939 -0.726444,1.544318 -1.648689,1.545693 H 88.0099 c -0.875534,-0.0015 -1.612985,-0.603884 -1.614358,-1.511361 v -4.568291 c 0.0011,-0.73402 0.446479,-1.300351 1.16779,-1.471747 z m 3.829462,1.956923 c -0.02818,-1.68e-4 -0.05679,2.78e-4 -0.08552,8.8e-4 h -2.541698 c -0.173459,0.04362 -0.277912,0.102005 -0.358285,0.269625 -0.05393,0.112319 -0.05326,0.222543 -0.05395,0.343445 v 0.893135 1.408239 c 2.26e-4,0.164526 -0.0013,0.33655 0.09897,0.477378 0.126745,0.177923 0.289481,0.174839 0.484923,0.175181 h 2.438702 c 0.489117,-7.29e-4 0.583335,-0.193327 0.584021,-0.652559 v -1.99226 c -0.0018,-0.123995 -0.03639,-0.593867 -0.08413,-0.686262 -0.105793,-0.205274 -0.285762,-0.235634 -0.483036,-0.236802 z"
         id="path1820" />
    </g>
  </g>
  <g
     inkscape:groupmode="layer"
     id="layer3"
     inkscape:label="top"
     style="display:inline"
     sodipodi:insensitive="true">
    <g
       id="layer2-7"
       style="display:inline;stroke:none;stroke-width:0.264583;stroke-linecap:butt;stroke-linejoin:round;stroke-miterlimit:4;stroke-dasharray:none;stroke-opacity:1;paint-order:stroke fill markers"
       transform="translate(-74.630238,-51.249963)">
      <path
         style="display:inline;fill:url(#linearGradient1949);fill-opacity:1;stroke:none;stroke-width:0.264583;stroke-linecap:butt;stroke-linejoin:round;stroke-miterlimit:4;stroke-dasharray:none;stroke-opacity:1;paint-order:stroke fill markers"
         d="m 80.369084,51.249962 c -3.179343,0 -5.738846,2.559503 -5.738846,5.738847 v 21.489047 c 0,3.179344 2.559503,5.738847 5.738846,5.738847 h 22.388976 c 3.17934,0 5.73884,-2.559503 5.73884,-5.738847 V 56.988809 c 0,-3.179344 -2.5595,-5.738847 -5.73884,-5.738847 z m 1.28638,6.607961 h 3.297504 c 0.478815,6.82e-4 0.965145,0.250342 1.233059,0.652559 0.222575,0.334551 0.276458,0.739485 0.278177,1.133458 v 2.850937 3.056929 l -0.03433,0.515231 v 1.23658 c -0.0014,0.832256 -0.644305,1.475529 -1.476904,1.476903 h -4.705743 -0.99613 c -0.08725,0 -0.32794,0.01519 -0.391485,-0.03496 -0.06801,-0.05393 -0.05496,-0.195152 -0.05496,-0.274153 v -1.16779 c 0,-0.09515 -0.01723,-0.394325 0.03496,-0.460275 0.05393,-0.06801 0.195152,-0.05496 0.274153,-0.05496 h 4.087391 c 0.37302,0 1.036225,0.110966 1.207278,-0.309114 0.03435,-0.08449 0.02896,-0.184788 0.0293,-0.274781 v -4.843072 -0.755681 c 0,-0.106822 0.0098,-0.319838 -0.02553,-0.412235 -0.04637,-0.121936 -0.161777,-0.23734 -0.283711,-0.28371 -0.07831,-0.02988 -0.190628,-0.0254 -0.274781,-0.0254 h -2.473034 c -0.429693,6.81e-4 -0.548877,0.170687 -0.549563,0.583895 v 1.751811 l -0.03433,0.515231 c -0.0052,0.475034 0.08789,0.75465 0.618227,0.75568 h 1.786143 c 0.317719,0.0021 0.342759,0.07964 0.343446,0.377778 v 1.133458 c 0,0.09824 0.01623,0.357192 -0.03496,0.431728 -0.06801,0.09858 -0.236682,0.08316 -0.342817,0.0835 h -1.992261 c -0.403244,0 -0.920888,0.02504 -1.305243,-0.0835 -0.614832,-0.173458 -1.063637,-0.79298 -1.064669,-1.427733 v -4.637079 c 0.0012,-0.531366 0.291169,-1.042383 0.755555,-1.309268 0.14186,-0.08175 0.292345,-0.126141 0.446567,-0.177319 z m 8.964921,0 h 3.263046 c 0.872787,0.0017 1.475529,0.74421 1.476904,1.579899 v 4.533959 c -0.001,0.560904 -0.276164,1.102314 -0.790013,1.360955 -0.281311,0.14186 -0.649448,0.184392 -0.961672,0.184738 h -4.121849 c -0.230131,-4.87e-4 -0.612762,-0.03538 -0.824345,-0.118842 -0.568461,-0.224294 -0.92631,-0.792675 -0.92734,-1.392394 v -4.637079 c 0.0014,-0.809929 0.463636,-1.256449 1.202122,-1.49036 z m 8.861798,0 h 3.297377 c 0.86695,0.0014 1.50999,0.733561 1.51136,1.579899 v 3.057055 4.705618 c -0.001,0.853207 -0.63685,1.578651 -1.51136,1.580025 h -4.705616 -1.099252 c -0.08724,-4.86e-4 -0.22254,0.011 -0.288489,-0.05496 -0.06595,-0.06595 -0.05461,-0.201243 -0.05496,-0.288489 v -1.099126 c 0,-0.104074 -0.01678,-0.392238 0.03509,-0.47021 0.0632,-0.0948 0.208407,-0.07901 0.308359,-0.07935 h 4.053188 c 0.38401,0 1.06924,0.119224 1.21419,-0.343446 0.0261,-0.08278 0.0223,-0.187881 0.0223,-0.274781 v -4.80874 -0.755681 c 0,-0.117126 0.01,-0.306442 -0.0306,-0.412235 -0.045,-0.118157 -0.16005,-0.238371 -0.27855,-0.28371 -0.0783,-0.02988 -0.19063,-0.0254 -0.27478,-0.0254 h -2.473038 c -0.402903,6.81e-4 -0.548913,0.146659 -0.555096,0.549563 v 2.060924 c 0.0052,0.182045 -0.04603,0.430359 0,0.583895 0.06904,0.34726 0.272396,0.411892 0.589428,0.412235 h 1.786146 c 0.31772,0.0021 0.34276,0.07964 0.34344,0.377778 v 1.133458 c 0,0.09824 0.0161,0.357192 -0.0351,0.431728 -0.068,0.09858 -0.23668,0.08316 -0.34282,0.0835 h -2.026467 c -0.328713,0 -0.89758,0.01681 -1.202248,-0.06049 -0.738829,-0.187197 -1.132427,-0.818818 -1.133458,-1.553867 V 59.47228 c 0.001,-0.595597 0.244563,-1.138984 0.790012,-1.431631 0.13018,-0.06973 0.272782,-0.111707 0.412235,-0.158077 z m -9.411361,2.030239 c -0.143233,0.0498 -0.221611,0.09619 -0.289621,0.236677 -0.05839,0.120562 -0.05361,0.247941 -0.05395,0.377778 v 0.893134 1.270912 c 0,0.184793 -0.02436,0.457468 0.07181,0.616843 0.122624,0.203685 0.302345,0.207158 0.512213,0.207501 h 2.473034 c 0.470226,-6.81e-4 0.583209,-0.164614 0.583895,-0.618352 v -2.301249 c -0.0055,-0.466447 -0.08138,-0.686334 -0.583895,-0.683244 h -1.751811 z m 6.560425,10.163522 h 5.873533 1.54569 c 0.25727,0.0048 0.24011,0.07761 0.24045,0.309113 v 0.480899 l 0.0343,0.515106 v 4.808739 1.099252 c -0.001,0.08621 0.002,0.21468 -0.0635,0.279938 -0.0749,0.07453 -0.24912,0.06351 -0.34873,0.06351 h -0.65256 l -0.65268,-0.03433 c -0.0735,-0.0015 -0.16384,0.0015 -0.21983,-0.05496 -0.066,-0.06595 -0.0546,-0.201372 -0.055,-0.288616 v -5.220848 h -0.72122 c -0.31394,0 -0.73606,-0.05156 -0.8549,0.343445 -0.007,0.06389 -0.004,0.172098 0,0.24045 v 3.847067 0.824344 c -0.005,0.08621 -0.002,0.21468 -0.0674,0.279938 -0.0749,0.07453 -0.24899,0.06351 -0.3486,0.06351 h -0.652558 l -0.652685,-0.03433 c -0.06251,-4.87e-4 -0.168991,0.0051 -0.219826,-0.03509 -0.06801,-0.05393 -0.05496,-0.195026 -0.05496,-0.274027 v -5.255306 h -0.961673 c -0.483965,7.3e-4 -0.651997,0.168595 -0.652684,0.652559 v 2.953933 1.717479 c -0.0055,0.291962 -0.127036,0.274435 -0.377778,0.274781 H 96.150284 L 95.60072,77.57391 c -0.08312,0 -0.295326,0.0137 -0.357153,-0.03509 -0.06801,-0.05393 -0.05496,-0.195026 -0.05496,-0.274027 v -5.770537 c 0.0014,-0.823328 0.619247,-1.441198 1.442572,-1.442572 z m -11.754865,0.001 c 0.0683,-0.0019 0.152329,0.0016 0.19329,0.03383 0.06801,0.05393 0.05496,0.195026 0.05496,0.274026 v 1.167917 c 0,0.09136 0.01657,0.360899 -0.03496,0.425817 -0.05393,0.06801 -0.195152,0.05496 -0.274153,0.05496 h -3.4005 c -0.4321,0.0055 -0.583209,0.206858 -0.583895,0.618353 v 2.335706 c 0.0012,0.541671 0.263815,0.651873 0.755681,0.652559 h 2.713483 0.583895 c 0.06698,0.0015 0.15912,-0.0035 0.205489,0.05496 0.04293,0.05461 0.03496,0.185805 0.03496,0.254157 v 1.40824 c -0.0055,0.29196 -0.127038,0.274436 -0.377778,0.274781 h -4.259177 c -0.98751,-0.0015 -1.647316,-0.661181 -1.648689,-1.648689 v -4.32784 c 0.0015,-0.773177 0.429291,-1.392112 1.202122,-1.575875 h 1.373908 2.541823 0.858677 c 0.01709,-0.001 0.0381,-0.0022 0.06087,-0.0029 z m 2.686948,0.0041 h 1.683147 3.194257 c 0.89511,-0.0038 1.475655,0.66797 1.477029,1.540412 v 4.465294 c -0.0014,0.956939 -0.726444,1.544318 -1.648689,1.545693 h -4.259176 c -0.875534,-0.0015 -1.612985,-0.603884 -1.614358,-1.511361 v -4.568291 c 0.0011,-0.73402 0.446479,-1.300351 1.16779,-1.471747 z m 3.829462,1.956923 c -0.02818,-1.68e-4 -0.05679,2.78e-4 -0.08552,8.8e-4 h -2.541698 c -0.173459,0.04362 -0.277912,0.102005 -0.358285,0.269625 -0.05393,0.112319 -0.05326,0.222543 -0.05395,0.343445 v 0.893135 1.408239 c 2.26e-4,0.164526 -0.0013,0.33655 0.09897,0.477378 0.126745,0.177923 0.289481,0.174839 0.484923,0.175181 h 2.438702 c 0.489117,-7.29e-4 0.583335,-0.193327 0.584021,-0.652559 v -1.99226 c -0.0018,-0.123995 -0.03639,-0.593867 -0.08413,-0.686262 -0.105793,-0.205274 -0.285762,-0.235634 -0.483036,-0.236802 z"
         id="rect1425-5" />
      <path
         style="display:inline;fill:url(#linearGradient1951);fill-opacity:1;stroke:none;stroke-width:0.264583;stroke-linecap:butt;stroke-linejoin:round;stroke-miterlimit:4;stroke-dasharray:none;stroke-opacity:1;paint-order:stroke fill markers"
         d="m 80.369086,51.699925 c -3.179343,0 -5.738846,2.559503 -5.738846,5.738847 v 21.489047 c 0,3.179344 2.559503,5.738847 5.738846,5.738847 h 22.388974 c 3.17934,0 5.73884,-2.559503 5.73884,-5.738847 V 57.438772 c 0,-3.179344 -2.5595,-5.738847 -5.73884,-5.738847 z m 1.28638,6.607961 h 3.297504 c 0.478815,6.82e-4 0.965145,0.250342 1.233059,0.652559 0.222575,0.334551 0.276458,0.739485 0.278177,1.133458 v 2.850937 3.056929 L 86.429876,66.517 v 1.23658 c -0.0014,0.832256 -0.644305,1.475529 -1.476904,1.476903 h -4.705743 -0.99613 c -0.08725,0 -0.32794,0.01519 -0.391485,-0.03496 -0.06801,-0.05393 -0.05496,-0.195152 -0.05496,-0.274153 v -1.16779 c 0,-0.09515 -0.01723,-0.394325 0.03496,-0.460275 0.05393,-0.06801 0.195152,-0.05496 0.274153,-0.05496 h 4.087391 c 0.37302,0 1.036225,0.110966 1.207278,-0.309114 0.03435,-0.08449 0.02896,-0.184788 0.0293,-0.274781 v -4.843072 -0.755681 c 0,-0.106822 0.0098,-0.319838 -0.02553,-0.412235 -0.04637,-0.121936 -0.161777,-0.23734 -0.283711,-0.28371 -0.07831,-0.02988 -0.190628,-0.0254 -0.274781,-0.0254 H 81.38068 c -0.429693,6.81e-4 -0.548877,0.170687 -0.549563,0.583895 v 1.751811 l -0.03433,0.515231 c -0.0052,0.475034 0.08789,0.75465 0.618227,0.75568 h 1.786143 c 0.317719,0.0021 0.342759,0.07964 0.343446,0.377778 v 1.133458 c 0,0.09824 0.01623,0.357192 -0.03496,0.431728 -0.06801,0.09858 -0.236682,0.08316 -0.342817,0.0835 h -1.992261 c -0.403244,0 -0.920888,0.02504 -1.305243,-0.0835 -0.614832,-0.173458 -1.063637,-0.79298 -1.064669,-1.427733 v -4.637079 c 0.0012,-0.531366 0.291169,-1.042383 0.755555,-1.309268 0.14186,-0.08175 0.292345,-0.126141 0.446567,-0.177319 z m 8.964921,0 h 3.263046 c 0.872787,0.0017 1.475529,0.74421 1.476904,1.579899 v 4.533959 c -0.001,0.560904 -0.276164,1.102314 -0.790013,1.360955 -0.281311,0.14186 -0.649448,0.184392 -0.961672,0.184738 h -4.121849 c -0.230131,-4.87e-4 -0.612762,-0.03538 -0.824345,-0.118842 -0.568461,-0.224294 -0.92631,-0.792675 -0.92734,-1.392394 v -4.637079 c 0.0014,-0.809929 0.463636,-1.256449 1.202122,-1.49036 z m 8.861798,0 h 3.297375 c 0.86695,0.0014 1.50999,0.733561 1.51136,1.579899 v 3.057055 4.705618 c -0.001,0.853207 -0.63685,1.578651 -1.51136,1.580025 h -4.705614 -1.099252 c -0.08724,-4.86e-4 -0.22254,0.011 -0.288489,-0.05496 -0.06595,-0.06595 -0.05461,-0.201243 -0.05496,-0.288489 v -1.099126 c 0,-0.104074 -0.01678,-0.392238 0.03509,-0.47021 0.0632,-0.0948 0.208407,-0.07901 0.308359,-0.07935 h 4.053186 c 0.38401,0 1.06924,0.119224 1.21419,-0.343446 0.0261,-0.08278 0.0223,-0.187881 0.0223,-0.274781 V 61.811381 61.0557 c 0,-0.117126 0.01,-0.306442 -0.0306,-0.412235 -0.045,-0.118157 -0.16005,-0.238371 -0.27855,-0.28371 -0.0783,-0.02988 -0.19063,-0.0254 -0.27478,-0.0254 h -2.473036 c -0.402903,6.81e-4 -0.548913,0.146659 -0.555096,0.549563 v 2.060924 c 0.0052,0.182045 -0.04603,0.430359 0,0.583895 0.06904,0.34726 0.272396,0.411892 0.589428,0.412235 h 1.786144 c 0.31772,0.0021 0.34276,0.07964 0.34344,0.377778 v 1.133458 c 0,0.09824 0.0161,0.357192 -0.0351,0.431728 -0.068,0.09858 -0.23668,0.08316 -0.34282,0.0835 h -2.026465 c -0.328713,0 -0.89758,0.01681 -1.202248,-0.06049 -0.738829,-0.187197 -1.132427,-0.818818 -1.133458,-1.553867 v -4.430836 c 10e-4,-0.595597 0.244563,-1.138984 0.790012,-1.431631 0.13018,-0.06973 0.272782,-0.111707 0.412235,-0.158077 z m -9.411361,2.030239 c -0.143233,0.0498 -0.221611,0.09619 -0.289621,0.236677 -0.05839,0.120562 -0.05361,0.247941 -0.05395,0.377778 v 0.893134 1.270912 c 0,0.184793 -0.02436,0.457468 0.07181,0.616843 0.122624,0.203685 0.302345,0.207158 0.512213,0.207501 h 2.473034 c 0.470226,-6.81e-4 0.583209,-0.164614 0.583895,-0.618352 v -2.301249 c -0.0055,-0.466447 -0.08138,-0.686334 -0.583895,-0.683244 h -1.751811 z m 6.560425,10.163522 h 5.873531 1.54569 c 0.25727,0.0048 0.24011,0.07761 0.24045,0.309113 v 0.480899 l 0.0343,0.515106 v 4.808739 1.099252 c -0.001,0.08621 0.002,0.21468 -0.0635,0.279938 -0.0749,0.07453 -0.24912,0.06351 -0.34873,0.06351 h -0.65256 l -0.65268,-0.03433 c -0.0735,-0.0015 -0.16384,0.0015 -0.21983,-0.05496 -0.066,-0.06595 -0.0546,-0.201372 -0.055,-0.288616 V 72.45945 h -0.72122 c -0.31394,0 -0.73606,-0.05156 -0.8549,0.343445 -0.007,0.06389 -0.004,0.172098 0,0.24045 v 3.847067 0.824344 c -0.005,0.08621 -0.002,0.21468 -0.0674,0.279938 -0.0749,0.07453 -0.24899,0.06351 -0.3486,0.06351 h -0.652556 l -0.652685,-0.03433 c -0.06251,-4.87e-4 -0.168991,0.0051 -0.219826,-0.03509 -0.06801,-0.05393 -0.05496,-0.195026 -0.05496,-0.274027 V 72.459451 H 97.7991 c -0.483965,7.3e-4 -0.651997,0.168595 -0.652684,0.652559 v 2.953933 1.717479 c -0.0055,0.291962 -0.127036,0.274435 -0.377778,0.274781 h -0.618352 l -0.549564,-0.03433 c -0.08312,0 -0.295326,0.0137 -0.357153,-0.03509 -0.06801,-0.05393 -0.05496,-0.195026 -0.05496,-0.274027 v -5.770537 c 0.0014,-0.823328 0.619247,-1.441198 1.442572,-1.442572 z m -11.754865,10e-4 c 0.0683,-0.0019 0.152329,0.0016 0.19329,0.03383 0.06801,0.05393 0.05496,0.195026 0.05496,0.274026 v 1.167917 c 0,0.09136 0.01657,0.360899 -0.03496,0.425817 -0.05393,0.06801 -0.195152,0.05496 -0.274153,0.05496 h -3.4005 c -0.4321,0.0055 -0.583209,0.206858 -0.583895,0.618353 v 2.335706 c 0.0012,0.541671 0.263815,0.651873 0.755681,0.652559 h 2.713483 0.583895 c 0.06698,0.0015 0.15912,-0.0035 0.205489,0.05496 0.04293,0.05461 0.03496,0.185805 0.03496,0.254157 v 1.40824 c -0.0055,0.29196 -0.127038,0.274436 -0.377778,0.274781 h -4.259177 c -0.98751,-0.0015 -1.647316,-0.661181 -1.648689,-1.648689 v -4.32784 c 0.0015,-0.773177 0.429291,-1.392112 1.202122,-1.575875 h 1.373908 2.541823 0.858677 c 0.01709,-0.001 0.0381,-0.0022 0.06087,-0.0029 z m 2.686948,0.0041 h 1.683147 3.194257 c 0.89511,-0.0038 1.475655,0.66797 1.477029,1.540412 v 4.465294 c -0.0014,0.956939 -0.726444,1.544318 -1.648689,1.545693 H 88.0099 c -0.875534,-0.0015 -1.612985,-0.603884 -1.614358,-1.511361 v -4.568291 c 0.0011,-0.73402 0.446479,-1.300351 1.16779,-1.471747 z m 3.829462,1.956923 c -0.02818,-1.68e-4 -0.05679,2.78e-4 -0.08552,8.8e-4 h -2.541698 c -0.173459,0.04362 -0.277912,0.102005 -0.358285,0.269625 -0.05393,0.112319 -0.05326,0.222543 -0.05395,0.343445 v 0.893135 1.408239 c 2.26e-4,0.164526 -0.0013,0.33655 0.09897,0.477378 0.126745,0.177923 0.289481,0.174839 0.484923,0.175181 h 2.438702 c 0.489117,-7.29e-4 0.583335,-0.193327 0.584021,-0.652559 v -1.99226 c -0.0018,-0.123995 -0.03639,-0.593867 -0.08413,-0.686262 -0.105793,-0.205274 -0.285762,-0.235634 -0.483036,-0.236802 z"
         id="path1820-3" />
    </g>
  </g>
</svg>
