<?xml version="1.0" encoding="UTF-8" standalone="no"?>
<!-- Created with Inkscape (http://www.inkscape.org/) -->

<svg
   version="1.1"
   id="svg2"
   width="640"
   height="122.049"
   viewBox="0 0 640 122.049"
   xmlns="http://www.w3.org/2000/svg"
   xmlns:svg="http://www.w3.org/2000/svg">
  <defs
     id="defs6" />
  <g
     id="g8"
     transform="translate(-320,-60.964226)">
    <path
       style="display:inline;fill:#ffffff;stroke-width:0.5"
       d="m 320,172.50379 v -10.50943 h 30.00734 30.00734 l 1.86766,-1.71158 1.86766,-1.71158 V 121.99436 85.417521 l -1.86766,-1.71158 -1.86766,-1.711581 h -17.30519 c -18.95983,0 -19.12163,0.02339 -20.89172,3.019917 -0.71376,1.208297 -0.81753,3.536789 -0.8159,18.307233 0.003,23.25419 -1.32772,21.67285 18.23207,21.67285 H 372 v 10.52131 10.52131 l -20.125,-0.14631 -20.125,-0.14631 -2.85131,-1.40018 c -1.64907,-0.80981 -3.79513,-2.44994 -5.08976,-3.88988 -3.96903,-4.41452 -3.85704,-3.26378 -3.69878,-38.00866 l 0.13985,-30.70128 1.14575,-2.145745 c 1.46353,-2.740892 4.46761,-5.744979 7.2085,-7.208509 L 330.75,61.24436 h 31.5 31.5 l 2.34744,1.15626 c 2.99612,1.475781 6.02052,4.500178 7.4963,7.496304 L 404.75,72.24436 v 49.75 49.75 l -1.15626,2.34744 c -1.47578,2.99613 -4.50018,6.02052 -7.4963,7.4963 l -2.34744,1.15626 -36.875,0.13443 -36.875,0.13443 z m 202.5,-0.009 v -10.5 l 29.875,-0.007 c 22.89351,-0.006 30.1636,-0.15341 31.10999,-0.63228 0.67925,-0.34371 1.748,-1.38616 2.375,-2.31657 L 587,157.34648 v -35.20089 c 0,-38.30725 0.10716,-36.814453 -2.80744,-39.107082 -1.2878,-1.012984 -1.84167,-1.044148 -18.55784,-1.044148 -18.87757,0 -19.04761,0.02467 -20.81695,3.019917 -0.71376,1.208297 -0.81753,3.536789 -0.8159,18.307233 0.003,23.25419 -1.32772,21.67285 18.23207,21.67285 H 575 v 10.52131 10.52131 l -20.125,-0.14631 c -19.97822,-0.14524 -20.14422,-0.15499 -22.76005,-1.33721 -3.42624,-1.54846 -7.22793,-5.67888 -8.44785,-9.17833 -0.84971,-2.43747 -0.9171,-4.8167 -0.9171,-32.38077 v -29.75 l 1.32398,-2.823981 c 1.5317,-3.267019 4.46208,-6.391972 7.53027,-8.030273 L 533.75,61.24436 564.45128,61.104514 C 600.23867,60.9415 598.31101,60.713412 603.28931,65.699992 608.3683,70.787445 608,66.386098 608,121.99436 c 0,55.61056 0.36824,51.21038 -4.71069,56.28931 -5.00279,5.00278 -2.25109,4.71069 -44.37838,4.71069 H 522.5 Z m -89.83791,-27.21205 c -4.71778,-1.49254 -8.96,-5.50976 -10.51011,-9.95269 C 421.32175,132.95 421.25,130.37802 421.25,102.99436 v -29.75 l 1.32398,-2.823981 c 1.5317,-3.267019 4.46208,-6.391972 7.53027,-8.030273 L 432.25,61.24436 h 31.5 31.5 l 2.34744,1.15626 c 2.99612,1.475781 6.02052,4.500178 7.4963,7.496304 L 506.25,72.24436 v 31.25 31.25 l -1.14666,2.14753 c -1.76733,3.30997 -4.41484,5.93619 -7.52307,7.46258 l -2.83027,1.38989 -30,0.0993 c -23.69453,0.0784 -30.43884,-0.0396 -32.08791,-0.5613 z M 482,124.11859 c 3.45294,-1.72494 3.53532,-2.24924 3.38434,-21.53818 L 485.25,85.416464 483.38234,83.705412 481.51468,81.99436 h -17.30519 c -18.95983,0 -19.12163,0.02339 -20.89172,3.019917 -0.71376,1.208297 -0.81753,3.536789 -0.8159,18.307233 0.002,16.08565 0.0517,17.00464 1.00984,18.57613 1.79712,2.94762 2.5162,3.05559 20.48829,3.07637 14.49387,0.0167 16.43912,-0.0757 18,-0.85542 z m 146.5,11.37577 v -10.5 h 10.5 10.5 v 10.5 10.5 H 639 628.5 Z m 50.75,9.80059 c -3.33826,-1.05575 -5.01483,-2.14209 -7.39974,-4.79468 -4.2129,-4.68576 -4.10026,-3.65513 -4.10026,-37.5166 V 73.222975 l 1.6499,-3.351231 c 1.67246,-3.397091 4.02055,-5.772987 7.6001,-7.69012 1.64603,-0.881583 3.5248,-0.945585 31.625,-1.077331 L 738.5,60.964226 V 71.479293 81.99436 h -22.54786 c -24.93086,0 -24.47406,-0.05605 -26.20283,3.21489 -0.71261,1.348284 -0.79236,3.643374 -0.65533,18.85826 0.14859,16.49756 0.20368,17.37656 1.15602,18.44401 2.16599,2.42777 2.74788,2.48284 26.23394,2.48284 H 738.5 v 10.5 10.5 l -28.625,-0.0334 c -21.61532,-0.0252 -29.11476,-0.18833 -30.625,-0.66596 z m 87,0.008 c -3.35268,-1.0732 -5.01946,-2.15493 -7.39974,-4.80237 -4.21277,-4.68563 -4.10026,-3.65648 -4.10026,-37.50592 v -29.75 l 1.30056,-2.772815 c 1.72005,-3.667201 3.80197,-5.960252 7.04001,-7.753983 L 765.75,61.24436 796.45128,61.104514 c 34.79802,-0.158508 33.58572,-0.277833 38.06152,3.746288 1.39835,1.257278 3.1488,3.43517 3.88985,4.839759 l 1.34735,2.553799 0.13975,30.3168 c 0.13635,29.57927 0.11465,30.38387 -0.89165,33.07355 -1.3721,3.66728 -4.37415,6.97964 -7.8909,8.70658 l -2.8572,1.40307 -30,0.0993 c -23.23039,0.0768 -30.45131,-0.0453 -32,-0.54097 z m 49.25,-21.18406 c 3.38973,-1.69337 3.49835,-2.34289 3.49923,-20.92529 9.9e-4,-16.401273 -0.01,-16.566366 -1.13924,-18.242714 -1.97651,-2.93295 -2.03115,-2.940796 -20.53285,-2.948855 -18.70693,-0.0082 -18.89365,0.02095 -20.57783,3.207519 -0.71261,1.348284 -0.79236,3.643374 -0.65533,18.85826 0.14859,16.49784 0.20366,17.37651 1.15602,18.44331 2.08112,2.3312 3.00224,2.44325 20.25,2.46319 14.49387,0.0167 16.43912,-0.0757 18,-0.85542 z m 40.6065,-14.49923 0.1435,-36.375 1.30055,-2.772815 c 1.8161,-3.871913 4.0093,-6.179179 7.56055,-7.953769 l 3.0486,-1.523416 H 914.07985 960 v 42.5 42.5 H 949.5 939 v -32 -32 h -7.77485 c -5.97155,0 -8.115,0.175913 -9.2415,0.758464 C 918.9306,84.331603 919,83.553292 919,116.21953 v 29.77483 H 908.25 897.5 v -32 -32 h -7.77485 c -5.97155,0 -8.115,0.175913 -9.2415,0.758464 C 877.4306,84.331603 877.5,83.553292 877.5,116.21953 v 29.77483 h -10.7685 -10.76855 z"
       id="path293" />
  </g>
</svg>
