<?xml version="1.0" encoding="UTF-8" standalone="no"?>
<!-- Generator: Adobe Illustrator 14.0.0, SVG Export Plug-In . SVG Version: 6.00 Build 43363)  -->

<svg
   version="1.1"
   x="0px"
   y="0px"
   width="256"
   height="256"
   viewBox="0 0 255.99999 255.99999"
   enable-background="new 0 0 537.916 122.75"
   xml:space="preserve"
   id="svg649"
   xmlns="http://www.w3.org/2000/svg"
   xmlns:svg="http://www.w3.org/2000/svg"><defs
   id="defs653">
	
	
	
	
	
	
	
	
	
</defs>






















<g
   id="layer1"
   transform="translate(57.86292,67)"><g
     id="g1257"
     transform="matrix(2.1506099,0,0,2.1506099,-44.261388,-70.187204)"><g
       id="g1012"
       style="display:inline"><g
         id="_x33_D_PART">
	<linearGradient
   id="SVGID_2_"
   gradientUnits="userSpaceOnUse"
   x1="24.9438"
   y1="89.1045"
   x2="101.9162"
   y2="76.300003">
		<stop
   offset="0.0368"
   style="stop-color:#FFFFFF"
   id="stop529" />
		<stop
   offset="0.8957"
   style="stop-color:#898CBF"
   id="stop531" />
	</linearGradient>
	<polygon
   fill="url(#SVGID_2_)"
   points="88.812,81.801 88.812,60.414 87.265,61.309 87.265,80.637 53.009,100.391 19.015,80.637 17.487,81.674 53.009,102.5 "
   id="polygon534"
   style="fill:url(#SVGID_2_)" />
</g><g
         id="black_line_thing">
	<polygon
   fill="#7a7eae"
   points="87.129,80.715 87.265,80.637 87.265,80.553 88.812,81.668 88.812,81.801 88.714,81.875 "
   id="polygon537" />
</g><g
         id="dark_purple_top_line">
	<polygon
   fill="#663399"
   points="28.782,47.334 53.009,61.705 53.3,61.086 29.164,46.953 "
   id="polygon540" />
	<polygon
   fill="#663399"
   points="53.431,61.285 53.117,61.285 53.222,61.086 53.399,61.086 "
   id="polygon542" />
</g><g
         id="top_black_line">
	<polygon
   fill="#120f22"
   points="104.681,31.384 104.833,31.806 53.3,61.705 53.3,61.086 "
   id="polygon545" />
</g><g
         id="LOGO_DARK_LINES">
	<linearGradient
   id="SVGID_3_"
   gradientUnits="userSpaceOnUse"
   x1="52.879902"
   y1="90.374001"
   x2="89.439903"
   y2="90.374001">
		<stop
   offset="0"
   style="stop-color:#140F2D"
   id="stop548" />
		<stop
   offset="1"
   style="stop-color:#3B3C75"
   id="stop550" />
	</linearGradient>
	<polygon
   fill="url(#SVGID_3_)"
   points="53.009,102.5 52.88,120.518 53.3,120.518 53.645,102.791 89.307,82.238 89.44,60.23 88.812,60.23 88.812,81.801 "
   id="polygon553"
   style="fill:url(#SVGID_3_)" />
</g><g
         id="LOGO">
	<linearGradient
   id="SVGID_4_"
   gradientUnits="userSpaceOnUse"
   x1="62.955101"
   y1="65.584999"
   x2="105.7337"
   y2="93.667503">
		<stop
   offset="0"
   style="stop-color:#4C5284"
   id="stop556" />
		<stop
   offset="1"
   style="stop-color:#8789BC"
   id="stop558" />
	</linearGradient>
	<polygon
   fill="url(#SVGID_4_)"
   points="104.833,31.806 104.833,90.783 53.3,120.518 53.3,102.641 89.095,82.029 89.095,60.25 77.108,67.182 77.108,74.875 53.3,88.879 53.3,61.705 "
   id="polygon561"
   style="fill:url(#SVGID_4_)" />
</g><g
         id="BOTTOM_LAIN_LEFT_LIGHT_LINE">
	<linearGradient
   id="SVGID_5_"
   gradientUnits="userSpaceOnUse"
   x1="52.778301"
   y1="119.8887"
   x2="52.480301"
   y2="100.8174">
		<stop
   offset="0.1104"
   style="stop-color:#4C407E"
   id="stop564" />
		<stop
   offset="0.8896"
   style="stop-color:#666699"
   id="stop566" />
		<stop
   offset="1"
   style="stop-color:#A7B3D9"
   id="stop568" />
		<stop
   offset="1"
   style="stop-color:#9BA5CD"
   id="stop570" />
	</linearGradient>
	<polyline
   fill="url(#SVGID_5_)"
   points="52.723,120.518 53.009,120.518 53.009,102.5 51.995,101.906 52.723,120.518  "
   id="polyline573"
   style="fill:url(#SVGID_5_)" />
</g><g
         id="underneath">
	<polyline
   fill="#2d2868"
   points="17.405,40.484 17.624,40.669 17.712,81.521 17.487,81.674 17.351,81.588 17.405,40.484  "
   id="polyline576" />
</g><g
         id="LEFT_3D_PURPLE_SHADOW">
	<polygon
   fill="#453d76"
   points="53.3,21.89 19.051,41.714 19.015,80.637 17.487,81.674 17.487,40.532 53.3,19.853 "
   id="polygon579" />
</g><g
         id="MAIN_DARK_PURPLE_LINE">
	<polygon
   fill="#453d76"
   points="53.009,89.076 53.009,61.705 53.009,60.916 53.3,60.98 53.3,88.879 "
   id="polygon582" />
</g><g
         id="logo_LEFT_side">
	<linearGradient
   id="SVGID_6_"
   gradientUnits="userSpaceOnUse"
   x1="6.1732998"
   y1="77.8545"
   x2="64.814201"
   y2="61.557301">
		<stop
   offset="0.2331"
   style="stop-color:#666699"
   id="stop586" />
		<stop
   offset="0.7239"
   style="stop-color:#A7B3D9"
   id="stop588" />
	</linearGradient>
	<polygon
   fill="url(#SVGID_6_)"
   points="53.009,89.076 53.009,61.705 28.782,47.334 28.782,75.072 "
   id="polygon591"
   style="fill:url(#SVGID_6_)" />
	<linearGradient
   id="SVGID_7_"
   gradientUnits="userSpaceOnUse"
   x1="7.1865001"
   y1="81.496101"
   x2="65.8255"
   y2="65.199402">
		<stop
   offset="0.2331"
   style="stop-color:#666699"
   id="stop593" />
		<stop
   offset="0.9907"
   style="stop-color:#A7B3D9"
   id="stop595" />
	</linearGradient>
	<polygon
   fill="url(#SVGID_7_)"
   points="52.723,102.332 17.487,81.674 17.487,40.732 1.554,31.384 1.554,90.883 52.723,120.518 52.723,120.225 "
   id="polygon598"
   style="fill:url(#SVGID_7_)" />
</g><g
         id="left_purple_line">
	<rect
   x="17.214001"
   y="40.532001"
   fill="#2d2868"
   width="0.273"
   height="41.141998"
   id="rect601" />
	<polygon
   fill="#2d2868"
   points="1.554,31.384 17.351,40.669 17.487,40.532 1.76,31.178 "
   id="polygon603" />
</g><g
         id="BOTTOM_PURPLE_LINE">
	<linearGradient
   id="SVGID_8_"
   gradientUnits="userSpaceOnUse"
   x1="20.316401"
   y1="84.257797"
   x2="43.634102"
   y2="96.7351">
		<stop
   offset="0"
   style="stop-color:#6E70A9"
   id="stop606" />
		<stop
   offset="0.9693"
   style="stop-color:#514A8E"
   id="stop608" />
	</linearGradient>
	<polygon
   fill="url(#SVGID_8_)"
   points="17.214,81.984 17.214,81.674 17.487,81.674 52.723,102.332 52.723,102.67 "
   id="polygon611"
   style="fill:url(#SVGID_8_)" />
</g><g
         id="top_middle_light_line">
	<linearGradient
   id="SVGID_9_"
   gradientUnits="userSpaceOnUse"
   x1="54.954102"
   y1="22.7812"
   x2="69.758904"
   y2="29.983601">
		<stop
   offset="0.0368"
   style="stop-color:#9EA5D3"
   id="stop614" />
		<stop
   offset="0.9018"
   style="stop-color:#7675AE"
   id="stop616" />
	</linearGradient>
	<polygon
   fill="url(#SVGID_9_)"
   points="76.198,35.24 53.3,21.89 53.3,19.853 76.198,33.239 "
   id="polygon619"
   style="fill:url(#SVGID_9_)" />
</g><g
         id="top_right">
	<polygon
   fill="#484592"
   points="92.059,25.939 92.059,24.048 76.198,33.239 76.198,35.24 "
   id="polygon622" />
</g><g
         id="MAIN_TOP"
         style="display:inline">
	<path
   fill="none"
   d="M 1.554,31.384"
   id="path625" />
	<linearGradient
   id="SVGID_10_"
   gradientUnits="userSpaceOnUse"
   x1="1.7603"
   y1="31.178699"
   x2="1.7603"
   y2="31.178699">
		<stop
   offset="0.2331"
   style="stop-color:#666699"
   id="stop627" />
		<stop
   offset="0.9907"
   style="stop-color:#A7B3D9"
   id="stop629" />
	</linearGradient>
	<path
   fill="url(#SVGID_10_)"
   d="M 1.76,31.178"
   id="path632"
   style="fill:url(#SVGID_10_)" />
	<linearGradient
   id="SVGID_11_"
   gradientUnits="userSpaceOnUse"
   x1="48.871601"
   y1="5.8158998"
   x2="45.379501"
   y2="44.616901">
		<stop
   offset="0"
   style="stop-color:#AAACD2"
   id="stop634" />
		<stop
   offset="0.6258"
   style="stop-color:#FCFAFB"
   id="stop636" />
	</linearGradient>
	<polygon
   fill="url(#SVGID_11_)"
   points="53.136,1.482 92.059,24.048 76.198,33.239 53.3,19.853 17.487,40.532 1.76,31.178 "
   id="polygon639"
   style="fill:url(#SVGID_11_)" />
	<linearGradient
   id="SVGID_12_"
   gradientUnits="userSpaceOnUse"
   x1="70.329102"
   y1="1.3291"
   x2="66.836899"
   y2="40.131302">
		<stop
   offset="0.6743"
   style="stop-color:#AAACD2"
   id="stop641" />
		<stop
   offset="1"
   style="stop-color:#FCFAFB"
   id="stop643" />
	</linearGradient>
	<polygon
   fill="url(#SVGID_12_)"
   points="29.164,46.953 52.99,33.494 75.689,46.307 103.344,30.411 104.681,31.384 53.3,61.086 "
   id="polygon646"
   style="fill:url(#SVGID_12_)" />
</g></g></g></g></svg>
