<?xml version="1.0" encoding="UTF-8" standalone="no"?>
<!-- Generator: Adobe Illustrator 14.0.0, SVG Export Plug-In . SVG Version: 6.00 Build 43363)  -->

<svg
   version="1.1"
   x="0px"
   y="0px"
   width="480"
   height="101.61866"
   viewBox="0 0 479.99998 101.61866"
   enable-background="new 0 0 537.916 122.75"
   xml:space="preserve"
   id="svg649"
   xmlns="http://www.w3.org/2000/svg"
   xmlns:svg="http://www.w3.org/2000/svg"><defs
   id="defs653">
	
	
	
	
	
	
	
	
	
</defs>






















<g
   id="layer1"
   transform="translate(-75.743999,-10.185667)"><g
     id="g1257"><g
       id="g1029"
       style="display:inline;fill:#333333;fill-opacity:1;stroke:none"
       transform="matrix(1.21165,0,0,1.21165,-66.827222,-12.909593)"><g
         id="NINTENDO"
         style="display:inline;fill:#333333;fill-opacity:1;stroke:none">
	<polygon
   points="132.062,27.222 144.194,49.767 150.614,49.767 150.614,19.083 144.144,19.083 144.144,37.584 134.438,19.083 126.4,19.083 126.4,49.767 132.062,49.767 "
   id="polygon501"
   style="fill:#333333;fill-opacity:1;stroke:none" />
	<polygon
   points="229.11,27.222 241.242,49.767 247.662,49.767 247.662,19.083 241.192,19.083 241.192,37.584 231.487,19.083 223.449,19.083 223.449,49.767 229.11,49.767 "
   id="polygon503"
   style="fill:#333333;fill-opacity:1;stroke:none" />
	<rect
   x="183.813"
   y="19.083"
   width="6.4580002"
   height="30.684"
   id="rect505"
   style="fill:#333333;fill-opacity:1;stroke:none" />
	<polygon
   points="300.228,19.083 274.346,19.083 274.346,23.936 284.051,23.936 284.051,49.767 290.589,49.767 290.589,23.936 300.228,23.936 "
   id="polygon507"
   style="fill:#333333;fill-opacity:1;stroke:none" />
	<path
   d="m 330.221,30.39 v 0.825 h 17.793 v 4.853 h -17.793 c 0,0 0,4.74 0,6.471 0,0.696 1.707,2.401 2.401,2.401 2.047,0 15.392,0 15.392,0 v 4.896 c 0,0 -13.076,0 -17.793,0 -3.328,0 -5.679,-2.86 -5.679,-5.679 0,-0.673 0,-14.558 0,-19.428 0,-3.529 2.115,-5.646 5.645,-5.646 h 17.827 v 4.853 c 0,0 -10.75,0 -14.558,0 -1.551,0 -3.235,1.686 -3.235,2.478"
   id="path509"
   style="fill:#333333;fill-opacity:1;stroke:none" />
	<polygon
   points="394.875,49.835 400.538,49.835 400.538,19.083 394.926,19.083 394.926,37.584 384.462,19.083 377.132,19.083 377.132,49.835 382.742,49.835 382.742,27.272 "
   id="polygon511"
   style="fill:#333333;fill-opacity:1;stroke:none" />
	<g
   id="XMLID_5_"
   style="fill:#333333;fill-opacity:1;stroke:none">
		<g
   id="g515"
   style="fill:#333333;fill-opacity:1;stroke:none">
			<path
   d="m 454.018,24.745 v 19.46 c 0,1.472 -4.157,5.629 -6.567,5.629 -4.854,0 -17.745,0 -17.745,0 V 19.083 c 0,0 12.585,0 16.127,0 5.014,0 8.185,3.171 8.185,5.662 z m -5.727,17.81 c 0,-2.103 0,-11.671 0,-16.144 0,-0.566 -1.908,-2.475 -3.243,-2.475 -2.451,0 -9.682,0 -9.682,0 v 21.838 c 0,0 6.915,0 9.706,0 0.995,0 3.219,-2.224 3.219,-3.219 z"
   id="path513"
   style="fill:#333333;fill-opacity:1;stroke:none" />
		</g>
		<g
   id="g517"
   style="fill:#333333;fill-opacity:1;stroke:none">
		</g>
	</g>
	<g
   id="XMLID_4_"
   style="fill:#333333;fill-opacity:1;stroke:none">
		<g
   id="g522"
   style="fill:#333333;fill-opacity:1;stroke:none">
			<path
   d="m 506.558,26.363 c 0,2.249 0,11.679 0,16.128 0,4.65 -3.494,8.137 -8.848,8.137 -0.024,0 -0.041,0 -0.065,0 -4.602,0 -3.283,0 -8.071,0 h -0.065 c -5.176,0 -8.605,-3.244 -8.84,-7.651 -0.008,-0.162 -0.008,-0.324 -0.008,-0.485 0,-3.074 0,-13.086 0,-16.128 0,-0.558 0,-0.881 0,-0.881 0,-3.09 3.332,-6.422 7.255,-6.422 2.903,0 11.323,0 11.323,0 4.747,-0.001 7.319,2.563 7.319,7.302 z m -6.511,15.392 c 0,-0.761 0,-13.216 0,-14.583 0,-1.189 -2.07,-3.26 -3.235,-3.26 -1.164,0 -6.422,0 -6.422,0 -1.666,0 -3.283,1.618 -3.283,3.13 0,0.987 0,13.167 0,14.712 0,2.305 0.881,3.187 2.45,3.187 1.439,0 5.387,0 7.304,0 1.569,0 3.186,-1.617 3.186,-3.186 z"
   id="path520"
   style="fill:#333333;fill-opacity:1;stroke:none" />
		</g>
		<g
   id="g524"
   style="fill:#333333;fill-opacity:1;stroke:none">
		</g>
	</g>
</g><g
         id="g1036"
         style="display:inline;fill:#333333;fill-opacity:1;stroke:none"><g
           id="XMLID_1_"
           style="fill:#333333;fill-opacity:1;stroke:none">
		<g
   id="g489"
   style="fill:#333333;fill-opacity:1;stroke:none">
			<path
   d="m 467.703,85.374 v 10.571 c 0,3.744 -2.75,6.494 -11.332,6.494 -7.61,0 -33.153,0 -33.153,0 V 61.142 c 0,0 33.558,0 38.84,0 3.574,0 5.646,2.071 5.646,5.662 0,2.92 0,10.134 0,11.307 0,0.898 -1.222,2.443 -4.028,2.443 0.017,0.193 0,0 0,0.784 1.884,0 4.027,2.143 4.027,4.036 z m -10.515,6.511 c 0,-0.954 0,-3.486 0,-4.828 0,-1.335 -0.315,-1.65 -0.81,-1.65 -1.011,0 -21.821,0 -21.821,0 v 7.279 c 0,0 15.683,0 21.029,0 1.165,0 1.602,-0.437 1.602,-0.801 z m 0,-16.176 c 0,-0.955 0,-3.486 0,-4.829 0,-1.334 -0.315,-1.649 -0.81,-1.649 -1.011,0 -21.821,0 -21.821,0 v 7.279 c 0,0 15.683,0 21.029,0 1.165,0 1.602,-0.438 1.602,-0.801 z"
   id="path487"
   style="fill:#333333;fill-opacity:1;stroke:none" />
		</g>
		<g
   id="g491"
   style="fill:#333333;fill-opacity:1;stroke:none">
		</g>
	</g><polygon
           points="471.713,61.09 471.713,102.438 513.821,102.438 513.821,92.634 482.227,92.634 482.227,85.456 500.021,85.456 500.021,76.509 482.227,76.509 482.227,70.038 513.012,70.038 513.012,61.09 "
           id="polygon494"
           style="fill:#333333;fill-opacity:1;stroke:none" /><path
           d="m 165.387,61.68 v 8.762 H 129.126 V 92.82 h 26.421 V 86.619 H 140.313 V 77.25 h 25.748 c 0,0 0,10.217 0,17.089 -0.111,2.864 -5.836,8.59 -9.032,8.59 -5.932,0 -21.967,0 -29.504,0 -4.156,0 -9.858,-5.701 -9.858,-8.577 0,-8.746 0,-17.267 0,-24.719 0,-4.814 3.139,-7.953 7.229,-7.953 6.774,0 40.491,0 40.491,0 z"
           id="path477"
           style="fill:#333333;fill-opacity:1;stroke:none" /><polygon
           points="193.481,92.586 193.481,102.29 163.606,102.29 187.87,61.191 197.474,61.191 216.077,92.583 216.077,61.191 226.643,61.191 243.273,89.349 259.854,61.191 270.319,61.191 270.319,102.29 259.854,102.29 259.804,81.412 247.671,102.29 238.775,102.29 226.693,81.361 226.643,102.29 208.799,102.29 192.318,74.133 181.399,92.583 "
           id="polygon479"
           style="fill:#333333;fill-opacity:1;stroke:none" /><polygon
           points="285.635,70.038 316.37,70.038 316.37,61.191 274.211,61.191 274.211,102.29 316.37,102.29 316.37,92.583 285.635,92.583 285.635,85.506 303.429,85.506 303.429,76.509 285.635,76.509 "
           id="polygon481"
           style="fill:#333333;fill-opacity:1;stroke:none" /><path
           d="m 358.496,77.352 h 10.514 v -8.898 c 0,0 1.146,-7.312 -6.471,-7.312 0,0 -24.465,0 -33.158,0 -3.267,0 -4.818,1.552 -4.818,4.044 0,4.212 0,20.188 0,29.116 0,4.08 3.909,7.989 6.404,7.989 7.278,0 32.454,0 32.454,0 0,0 5.651,0.772 5.651,-5.563 0,-6.335 0,-12.098 0,-12.098 h -10.539 v 8.021 H 335.076 V 70.846 h 22.615 v 6.504 z"
           id="path483"
           style="fill:#333333;fill-opacity:1;stroke:none" /><path
           d="m 373.088,61.14 h 11.323 v 31.545 h 23.431 V 61.14 h 11.336 v 33.996 c 0,0 0.72,7.28 -9.693,7.28 -10.413,0 -27.499,0 -27.499,0 0,0 -8.897,0.809 -8.897,-7.28 -10e-4,-5.635 -10e-4,-33.996 -10e-4,-33.996 z"
           id="path485"
           style="fill:#333333;fill-opacity:1;stroke:none" /></g></g></g></g></svg>
