<?xml version="1.0" encoding="UTF-8" standalone="no"?>
<!-- Created with Inkscape (http://www.inkscape.org/) -->

<svg
   width="255.99998"
   height="256"
   viewBox="0 0 67.733332 67.733332"
   version="1.1"
   id="svg5"
   inkscape:version="1.2.2 (b0a8486541, 2022-12-01)"
   sodipodi:docname="icon-dark.svg"
   xmlns:inkscape="http://www.inkscape.org/namespaces/inkscape"
   xmlns:sodipodi="http://sodipodi.sourceforge.net/DTD/sodipodi-0.dtd"
   xmlns:xlink="http://www.w3.org/1999/xlink"
   xmlns="http://www.w3.org/2000/svg"
   xmlns:svg="http://www.w3.org/2000/svg">
  <sodipodi:namedview
     id="namedview7"
     pagecolor="#ffffff"
     bordercolor="#666666"
     borderopacity="1.0"
     inkscape:showpageshadow="2"
     inkscape:pageopacity="0.0"
     inkscape:pagecheckerboard="true"
     inkscape:deskcolor="#d1d1d1"
     inkscape:document-units="px"
     showgrid="false"
     inkscape:zoom="3.0003928"
     inkscape:cx="105.81948"
     inkscape:cy="151.64681"
     inkscape:window-width="1920"
     inkscape:window-height="1023"
     inkscape:window-x="1775"
     inkscape:window-y="29"
     inkscape:window-maximized="1"
     inkscape:current-layer="layer1" />
  <defs
     id="defs2">
    <linearGradient
       id="Black"
       inkscape:swatch="solid">
      <stop
         style="stop-color:#000000;stop-opacity:1;"
         offset="0"
         id="stop22526" />
    </linearGradient>
    <linearGradient
       id="Boulder"
       inkscape:swatch="solid">
      <stop
         style="stop-color:#777777;stop-opacity:1;"
         offset="0"
         id="stop20952" />
    </linearGradient>
    <linearGradient
       id="Silver"
       inkscape:swatch="solid">
      <stop
         style="stop-color:#cccccc;stop-opacity:1;"
         offset="0"
         id="stop20220" />
    </linearGradient>
    <linearGradient
       id="Silver_Chalice"
       inkscape:swatch="solid">
      <stop
         style="stop-color:#aaaaaa;stop-opacity:1;"
         offset="0"
         id="stop19488" />
    </linearGradient>
    <linearGradient
       id="Mineshaft"
       inkscape:swatch="solid">
      <stop
         style="stop-color:#333333;stop-opacity:1;"
         offset="0"
         id="stop16578" />
    </linearGradient>
    <linearGradient
       inkscape:collect="always"
       xlink:href="#Silver"
       id="linearGradient19492"
       x1="-91.872437"
       y1="399.26108"
       x2="380.98013"
       y2="399.26108"
       gradientUnits="userSpaceOnUse"
       gradientTransform="matrix(0.05946442,0,0,0.05946442,51.090371,279.882)" />
    <linearGradient
       inkscape:collect="always"
       xlink:href="#Boulder"
       id="linearGradient20224"
       x1="-515.2077"
       y1="187.20265"
       x2="-62.457771"
       y2="187.20265"
       gradientUnits="userSpaceOnUse"
       gradientTransform="matrix(0.05946442,0,0,0.05946442,51.090371,279.882)" />
    <linearGradient
       inkscape:collect="always"
       xlink:href="#Mineshaft"
       id="linearGradient20956"
       x1="206.86543"
       y1="139.42816"
       x2="623.84875"
       y2="139.42816"
       gradientUnits="userSpaceOnUse"
       gradientTransform="matrix(0.05946442,0,0,0.05946442,51.090371,279.882)" />
    <linearGradient
       inkscape:collect="always"
       xlink:href="#Black"
       id="linearGradient22530"
       x1="37.982235"
       y1="275.00948"
       x2="63.517363"
       y2="275.00948"
       gradientUnits="userSpaceOnUse" />
  </defs>
  <g
     inkscape:label="Layer 1"
     inkscape:groupmode="layer"
     id="layer1"
     transform="translate(-20.453843,-252.58059)">
    <path
       d="m 59.615512,296.54966 c 0.122563,-0.0148 0.13924,0.008 0.251733,0.009 0,0 0.582132,0 0.582132,0 0,0 0.188799,0.0151 0.188799,0.0151 0,0 0.236,0 0.236,0 0,0 0.283199,0.0164 0.283199,0.0164 0,0 0.424799,0.0315 0.424799,0.0315 0,0 0.1416,0 0.1416,0 0,0 1.085597,0.10762 1.085597,0.10762 1.491986,0.15969 2.957386,0.46948 4.389586,0.91473 1.295165,0.40246 2.597727,0.96634 3.728794,1.72044 0,0 0.424796,0.29767 0.424796,0.29767 0.104473,0.0699 0.128384,0.0647 0.251737,0.16394 0.08386,0.0675 0.09062,0.0957 0.157961,0.16111 0,0 0.298303,0.26747 0.298303,0.26747 0.660953,0.6147 1.206587,1.32411 1.494662,2.18834 0.08952,0.26841 0.185499,0.67827 0.1888,0.95973 0.0054,0.46178 -0.0037,0.79139 -0.13263,1.24293 -0.47499,1.6649 -1.98224,2.89824 -3.438827,3.71086 -2.057915,1.14822 -4.531504,1.80838 -6.859715,2.11487 -0.532888,0.0702 -1.069079,0.13059 -1.604797,0.16866 0,0 -0.1416,0 -0.1416,0 0,0 -0.487733,0.0315 -0.487733,0.0315 0,0 -0.267465,0.0164 -0.267465,0.0164 0,0 -0.220267,0 -0.220267,0 0,0 -0.188799,0.0151 -0.188799,0.0151 0,0 -1.526129,0 -1.526129,0 0,0 -0.220267,-0.0157 -0.220267,-0.0157 0,0 -0.487732,-0.0157 -0.487732,-0.0157 0,0 -0.393332,-0.0315 -0.393332,-0.0315 0,0 -0.1416,0 -0.1416,0 0,0 -0.456265,-0.0445 -0.456265,-0.0445 -0.653877,-0.0634 -1.302246,-0.13908 -1.950929,-0.24795 -2.383594,-0.39994 -4.953943,-1.18566 -6.954116,-2.57067 -0.946201,-0.65513 -1.82286,-1.50268 -2.301781,-2.56484 -0.171179,-0.37948 -0.336536,-0.93581 -0.341413,-1.35306 -0.0049,-0.41583 -0.0022,-0.7069 0.100221,-1.11706 0.398682,-1.59426 1.765276,-2.81831 3.125104,-3.63439 1.378394,-0.8271 2.856223,-1.36896 4.405323,-1.77598 1.165365,-0.30633 2.435042,-0.52801 3.634391,-0.64428 0,0 0.975464,-0.0813 0.975464,-0.0813 0,0 0.1416,0 0.1416,0 0,0 0.251733,-0.0157 0.251733,-0.0157 0,0 0.204533,-0.0157 0.204533,-0.0157 0,0 0.204532,0 0.204532,0 0,0 0.236,-0.0157 0.236,-0.0157 0,0 0.707998,-0.009 0.707998,-0.009 z"
       id="path351"
       style="fill:url(#linearGradient19492);fill-opacity:1;stroke:none;stroke-width:0.0594644"
       inkscape:label="yellow" />
    <path
       d="m 33.057711,284.19461 c 0,0 0.629332,0 0.629332,0 0,0 0.959731,0 0.959731,0 0,0 0.188799,0.0129 0.188799,0.0129 0,0 0.220267,0 0.220267,0 0,0 0.220266,0.0164 0.220266,0.0164 0,0 0.503465,0.0301 0.503465,0.0301 0.859195,0.0587 1.715716,0.15639 2.564527,0.30947 2.115971,0.38154 4.256328,1.0277 6.088785,2.17702 1.018101,0.63861 1.992622,1.4923 2.536994,2.58105 0.204218,0.40843 0.399625,1.00409 0.405132,1.46319 0.0055,0.4742 0,0.7626 -0.132632,1.2272 -0.455479,1.59646 -1.881387,2.75285 -3.26576,3.5466 -1.913798,1.0974 -4.245786,1.71398 -6.419184,2.02723 -0.552239,0.0796 -1.111714,0.14522 -1.667729,0.18455 0,0 -0.141599,0 -0.141599,0 0,0 -0.487733,0.0315 -0.487733,0.0315 0,0 -0.251732,0.0164 -0.251732,0.0164 0,0 -0.220267,0 -0.220267,0 0,0 -0.188799,0.0151 -0.188799,0.0151 0,0 -1.43173,0 -1.43173,0 0,0 -0.235999,-0.0157 -0.235999,-0.0157 0,0 -0.487732,-0.0157 -0.487732,-0.0157 0,0 -0.173067,-0.0151 -0.173067,-0.0151 0,0 -0.802398,-0.0609 -0.802398,-0.0609 -0.606204,-0.0587 -1.208002,-0.13122 -1.809328,-0.23222 -2.289037,-0.38405 -4.830437,-1.16914 -6.733851,-2.52378 -0.893808,-0.6361 -1.70423,-1.43865 -2.153259,-2.4544 -0.15686,-0.35478 -0.312305,-0.88578 -0.316868,-1.27439 -0.005,-0.43267 -0.0036,-0.70627 0.108245,-1.1328 0.383578,-1.46099 1.593311,-2.58954 2.833881,-3.36771 2.080886,-1.30524 4.704885,-2.02031 7.127183,-2.33907 0,0 0.943997,-0.10148 0.943997,-0.10148 0,0 0.440532,-0.0445 0.440532,-0.0445 0,0 0.1416,0 0.1416,0 0,0 0.487733,-0.0315 0.487733,-0.0315 0,0 0.204532,-0.0157 0.204532,-0.0157 0,0 0.314666,-0.0135 0.314666,-0.0135 z"
       id="path349"
       style="fill:url(#linearGradient20224);fill-opacity:1;stroke:none;stroke-width:0.0594644"
       inkscape:label="green" />
    <path
       d="m 63.391504,288.1572 c 0,0 0.01573,-0.22026 0.01573,-0.22026 0,0 0,-0.2832 0,-0.2832 0,0 0.0151,-0.17307 0.0151,-0.17307 0.02391,-0.54862 0.09424,-1.09598 0.195561,-1.63626 0.333393,-1.77865 1.041073,-3.43521 2.090959,-4.90879 1.23931,-1.73916 2.928438,-3.17136 4.872758,-4.06407 1.266527,-0.5815 2.59127,-0.95926 3.980519,-1.09378 0,0 0.9912,-0.0499 0.9912,-0.0499 0,0 0.267465,-0.0156 0.267465,-0.0156 0,0 0.1888,0.0156 0.1888,0.0156 0,0 0.314668,0 0.314668,0 0,0 0.157331,0.0143 0.157331,0.0143 0,0 1.0856,0.10494 1.0856,0.10494 1.209257,0.1707 2.336232,0.51636 3.445589,1.02439 1.315775,0.60259 2.697948,1.57506 3.683006,2.63234 0,0 0.200442,0.20453 0.200442,0.20453 0.287761,0.31797 0.565144,0.64806 0.822536,0.9912 0.848028,1.13075 1.497968,2.41081 1.917418,3.76026 0.221053,0.71146 0.395695,1.52487 0.47483,2.26559 0,0 0.06042,0.6136 0.06042,0.6136 0,0 0,0.1416 0,0.1416 0,0 0.01573,0.1888 0.01573,0.1888 0,0 0,1.05413 0,1.05413 0,0 -0.0151,0.17307 -0.0151,0.17307 0,0 -0.09298,0.99119 -0.09298,0.99119 -0.120516,0.86565 -0.317498,1.69322 -0.610765,2.51733 -0.451543,1.26873 -1.106365,2.43142 -1.933461,3.49279 0,0 -0.637358,0.7552 -0.637358,0.7552 0,0 -0.186754,0.1888 -0.186754,0.1888 0,0 -0.173695,0.18864 -0.173695,0.18864 0,0 -0.157337,0.14239 -0.157337,0.14239 0,0 -0.409062,0.38122 -0.409062,0.38122 -1.082294,0.92747 -2.125568,1.60668 -3.445594,2.15137 -0.972315,0.4012 -2.008982,0.68503 -3.052256,0.82238 0,0 -0.755198,0.0757 -0.755198,0.0757 0,0 -0.157337,0.0143 -0.157337,0.0143 0,0 -0.330396,0.0157 -0.330396,0.0157 0,0 0,-0.18879 0,-0.18879 -0.0019,-0.13688 -0.03115,-0.0938 -0.03147,-0.26747 0,0 0,-0.36187 0,-0.36187 0,0 -0.01573,-0.26746 -0.01573,-0.26746 0,0 -0.01431,-0.15734 -0.01431,-0.15734 0,0 -0.120832,-0.97546 -0.120832,-0.97546 -0.171965,-1.0255 -0.480811,-2.06924 -0.901046,-3.02079 -0.204694,-0.46335 -0.529114,-1.02125 -0.788712,-1.4632 -0.472945,-0.80507 -0.934716,-1.4997 -1.574904,-2.18693 -0.640818,-0.68786 -1.504889,-1.3282 -2.311376,-1.81074 0,0 -0.424802,-0.26589 -0.424802,-0.26589 -0.354943,-0.20847 -0.722629,-0.39837 -1.101328,-0.55979 -0.985849,-0.42071 -2.022986,-0.70769 -3.083724,-0.86062 -0.355889,-0.0513 -0.710992,-0.0909 -1.069866,-0.10651 0,0 -0.204534,-0.0151 -0.204534,-0.0151 0,0 -0.53493,0 -0.53493,0 0,0 -0.440536,0.0315 -0.440536,0.0315 0,0 -0.220262,0 -0.220262,0 z"
       id="path347"
       style="fill:url(#linearGradient20956);fill-opacity:1;stroke:none;stroke-width:0.0594644"
       inkscape:label="red" />
    <path
       d="m 50.207002,262.20387 c 0.265263,-0.0322 0.663158,0.009 0.943997,0.009 0,0 0.1888,0.0143 0.1888,0.0143 0,0 0.361866,0.0186 0.361866,0.0186 0,0 0.928264,0.10447 0.928264,0.10447 0.397738,0.0573 1.20816,0.18801 1.57333,0.29642 1.124301,0.3337 2.346463,0.99922 3.335458,1.6265 1.129336,0.71618 2.220126,1.59882 3.076961,2.62825 0.233796,0.28116 0.429991,0.57914 0.634366,0.88107 0,0 0.199656,0.2832 0.199656,0.2832 0.338895,0.54437 0.580716,1.14286 0.831504,1.73066 0.449029,1.0524 0.813097,2.13312 1.037926,3.25679 0.08889,0.44431 0.152924,0.88563 0.183923,1.33733 0,0 0.01431,0.1888 0.01431,0.1888 0,0 0,0.40907 0,0.40907 0,0 -0.01573,0.23599 -0.01573,0.23599 0,0 -0.01573,0.31467 -0.01573,0.31467 0,0 0,0.1888 0,0.1888 0,0 -0.0151,0.17307 -0.0151,0.17307 0,0 -0.09062,0.92826 -0.09062,0.92826 -0.09408,0.71476 -0.245755,1.42135 -0.466022,2.10826 0,0 -0.141127,0.39333 -0.141127,0.39333 0,0 -0.174797,0.50347 -0.174797,0.50347 -0.455321,1.0856 -1.228613,2.27582 -1.963201,3.19386 -0.832448,1.0406 -1.66647,1.84363 -2.750179,2.61849 0,0 -0.314666,0.22892 -0.314666,0.22892 -0.303967,0.20941 -0.619577,0.39601 -0.943998,0.57159 -1.515746,0.81971 -3.412394,1.40325 -5.144787,1.37965 -0.0557,-7.8e-4 -0.107616,-9.4e-4 -0.14396,-0.0508 -0.03477,-0.0478 -0.02659,-0.1139 -0.03052,-0.16944 0,0 -0.03446,-0.36187 -0.03446,-0.36187 -0.08071,-0.67244 -0.170391,-1.27141 -0.313564,-1.93519 -0.227661,-1.05571 -0.596606,-2.13391 -1.045949,-3.1152 0,0 -0.253149,-0.53493 -0.253149,-0.53493 -0.18172,-0.3444 -0.387039,-0.68188 -0.601326,-1.00693 -0.381848,-0.57914 -0.818919,-1.12886 -1.291547,-1.63626 0,0 -0.517783,-0.5192 -0.517783,-0.5192 -0.604945,-0.60211 -1.510711,-1.2648 -2.24986,-1.69904 0,0 -0.503466,-0.27926 -0.503466,-0.27926 0,0 -0.298618,-0.14979 -0.298618,-0.14979 0,0 -0.157962,-0.11768 -0.157962,-0.11768 0,0 -0.471684,-0.22923 -0.471684,-0.22923 -1.019046,-0.46791 -2.023302,-0.79816 -3.130926,-0.98507 -0.572377,-0.0966 -1.152149,-0.16488 -1.730662,-0.20437 0,0 -0.456266,-0.0315 -0.456266,-0.0315 -0.0568,-0.004 -0.15277,0.01 -0.196509,-0.0288 -0.045,-0.0395 -0.05113,-0.13672 -0.05633,-0.19289 0,0 -0.01463,-0.45627 -0.01463,-0.45627 0,0 0.0151,-0.17306 0.0151,-0.17306 0.01778,-0.40545 0.07458,-0.81074 0.140971,-1.21147 0.119887,-0.72373 0.300506,-1.51857 0.564667,-2.20266 0,0 0.415517,-0.8968 0.415517,-0.8968 0.619105,-1.31042 1.448879,-2.53888 2.451562,-3.58719 0.285559,-0.29861 0.587009,-0.57851 0.896168,-0.85195 0,0 0.173696,-0.1641 0.173696,-0.1641 0.798779,-0.70533 1.855742,-1.371 2.831363,-1.80241 0.983331,-0.43471 2.126984,-0.76542 3.193859,-0.90592 0.30853,-0.0406 0.733329,-0.0953 1.038397,-0.0988 0,0 0.204533,-0.0157 0.204533,-0.0157 0,0 0.298933,-0.009 0.298933,-0.009 z"
       id="Selection"
       style="fill:url(#linearGradient22530);fill-opacity:1;stroke:none;stroke-width:0.0594644"
       inkscape:label="blue" />
  </g>
</svg>
