<?xml version="1.0" encoding="UTF-8" standalone="no"?>
<!-- Created with Inkscape (http://www.inkscape.org/) -->

<svg
   width="255.99998"
   height="256"
   viewBox="0 0 67.733332 67.733332"
   version="1.1"
   id="svg5"
   xmlns="http://www.w3.org/2000/svg"
   xmlns:svg="http://www.w3.org/2000/svg">
  <defs
     id="defs2" />
  <g
     id="layer1"
     transform="translate(-20.453843,-252.58059)">
    <g
       id="g3815"
       transform="matrix(0.05946442,0,0,0.05946442,51.090371,279.882)">
      <path
         d="m 143.36541,280.29629 c 2.06111,-0.24871 2.34157,0.12964 4.23334,0.15346 0,0 9.78958,0 9.78958,0 0,0 3.175,0.254 3.175,0.254 0,0 3.96875,0 3.96875,0 0,0 4.7625,0.27516 4.7625,0.27516 0,0 7.14375,0.52917 7.14375,0.52917 0,0 2.38125,0 2.38125,0 0,0 18.25625,1.80975 18.25625,1.80975 25.0904,2.68552 49.7337,7.89517 73.8187,15.38287 21.7805,6.76805 43.6854,16.25071 62.7063,28.93219 0,0 7.1437,5.00592 7.1437,5.00592 1.7569,1.17475 2.159,1.08744 4.2334,2.75696 1.4102,1.13506 1.524,1.60866 2.6564,2.70933 0,0 5.0165,4.49792 5.0165,4.49792 11.1151,10.33727 20.2909,22.26733 25.1354,36.80089 1.5055,4.51379 3.1195,11.40619 3.175,16.13959 0.09,7.76552 -0.063,13.30854 -2.2304,20.90208 -7.9878,27.99821 -33.3349,48.7389 -57.83,62.40462 -34.6075,19.3093 -76.2053,30.41121 -115.3583,35.5653 -8.96147,1.18004 -17.97847,2.19604 -26.98753,2.83633 0,0 -2.38125,0 -2.38125,0 0,0 -8.20209,0.52917 -8.20209,0.52917 0,0 -4.49791,0.27516 -4.49791,0.27516 0,0 -3.70417,0 -3.70417,0 0,0 -3.175,0.254 -3.175,0.254 0,0 -25.66458,0 -25.66458,0 0,0 -3.70417,-0.26458 -3.70417,-0.26458 0,0 -8.20208,-0.26458 -8.20208,-0.26458 0,0 -6.61459,-0.52917 -6.61459,-0.52917 0,0 -2.38125,0 -2.38125,0 0,0 -7.67291,-0.74877 -7.67291,-0.74877 -10.996094,-1.06627 -21.899574,-2.33892 -32.808344,-4.16983 -40.08437,-6.72571 -83.30935,-19.939 -116.94583,-43.23028 -15.91204,-11.01725 -30.65463,-25.27035 -38.70854,-43.13237 -2.87867,-6.38175 -5.65944,-15.73742 -5.74146,-22.75417 -0.082,-6.99293 -0.037,-11.88773 1.6854,-18.78541 6.70454,-26.81023 29.68625,-47.39482 52.55418,-61.11875 23.18015,-13.90915 48.03246,-23.0214 74.08334,-29.86617 19.59768,-5.15144 40.94956,-8.87942 61.11875,-10.83469 0,0 16.404164,-1.36789 16.404164,-1.36789 0,0 2.38125,0 2.38125,0 0,0 4.23334,-0.26459 4.23334,-0.26459 0,0 3.43958,-0.26458 3.43958,-0.26458 0,0 3.43958,0 3.43958,0 0,0 3.96875,-0.26458 3.96875,-0.26458 0,0 11.90625,-0.15346 11.90625,-0.15346 z"
         id="path351"
         style="fill:#f8fa1d;fill-opacity:1" />
      <path
         d="m -303.25125,72.524292 c 0,0 10.58333,0 10.58333,0 0,0 16.13958,0 16.13958,0 0,0 3.175,0.21696 3.175,0.21696 0,0 3.70417,0 3.70417,0 0,0 3.70417,0.27516 3.70417,0.27516 0,0 8.46666,0.50536 8.46666,0.50536 14.4489,0.98689 28.85282,2.62996 43.12709,5.20435 35.58381,6.41615 71.57773,17.28258 102.39375,36.610398 17.121176,10.73943 33.509476,25.09573 42.664056,43.40489 3.43429,6.86859 6.72042,16.88571 6.81302,24.60625 0.0926,7.97454 0,12.82436 -2.23044,20.6375 -7.65969,26.84727 -31.63887,46.29415 -54.919556,59.64238 -32.18392,18.45469 -71.40046,28.82371 -107.95,34.09156 -9.28688,1.33879 -18.69546,2.4421 -28.04583,3.10356 0,0 -2.38125,0 -2.38125,0 0,0 -8.20209,0.52917 -8.20209,0.52917 0,0 -4.23333,0.27517 -4.23333,0.27517 0,0 -3.70417,0 -3.70417,0 0,0 -3.175,0.254 -3.175,0.254 0,0 -24.07708,0 -24.07708,0 0,0 -3.96875,-0.26459 -3.96875,-0.26459 0,0 -8.20208,-0.26458 -8.20208,-0.26458 0,0 -2.91042,-0.254 -2.91042,-0.254 0,0 -13.49375,-1.02394 -13.49375,-1.02394 -10.1944,-0.98689 -20.31471,-2.20662 -30.42708,-3.90525 -38.49423,-6.45848 -81.23238,-19.66119 -113.24167,-42.44181 -15.03098,-10.6971 -28.65967,-24.1935 -36.21088,-41.275 -2.63789,-5.96635 -5.25197,-14.89604 -5.3287,-21.43125 -0.0847,-7.27604 -0.0609,-11.87715 1.82033,-19.05 6.45054,-24.56921 26.79435,-43.54777 47.65675,-56.63406 34.99379,-21.949838 79.121,-33.975148 119.85625,-39.335608 0,0 15.875,-1.70656 15.875,-1.70656 0,0 7.40833,-0.74877 7.40833,-0.74877 0,0 2.38125,0 2.38125,0 0,0 8.20209,-0.52917 8.20209,-0.52917 0,0 3.43958,-0.26458 3.43958,-0.26458 0,0 5.29167,-0.22754 5.29167,-0.22754 z"
         id="path349"
         style="fill:#2ed224;fill-opacity:1" />
      <path
         d="m 206.86543,139.16225 c 0,0 0.2646,-3.70417 0.2646,-3.70417 0,0 0,-4.7625 0,-4.7625 0,0 0.254,-2.91042 0.254,-2.91042 0.4021,-9.22602 1.5848,-18.43087 3.2887,-27.51666 5.6066,-29.911148 17.5075,-57.769128 35.1632,-82.549998 20.8412,-29.24705 49.2469,-53.33207 81.9441,-68.34452 21.2989,-9.779 43.5768,-16.13165 66.9395,-18.39384 0,0 16.6688,-0.83873 16.6688,-0.83873 0,0 4.4979,-0.26193 4.4979,-0.26193 0,0 3.175,0.26193 3.175,0.26193 0,0 5.2917,0 5.2917,0 0,0 2.6458,0.24077 2.6458,0.24077 0,0 18.2563,1.76477 18.2563,1.76477 20.3358,2.87073 39.2879,8.68363 57.9437,17.22703 22.1271,10.13354 45.3708,26.48743 61.9363,44.2674299 0,0 3.3708,3.43959 3.3708,3.43959 4.8392,5.34723 9.5039,10.89818 13.8324,16.6687501 14.2611,19.0156 25.191,40.5421 32.2448,63.23541 3.7174,11.96446 6.6543,25.643418 7.9851,38.099998 0,0 1.016,10.31875 1.016,10.31875 0,0 0,2.38125 0,2.38125 0,0 0.2646,3.175 0.2646,3.175 0,0 0,17.72709 0,17.72709 0,0 -0.254,2.91041 -0.254,2.91041 0,0 -1.5637,16.66875 -1.5637,16.66875 -2.0267,14.55738 -5.3393,28.47446 -10.2711,42.33334 -7.5935,21.336 -18.6055,40.8887 -32.5146,58.7375 0,0 -10.7183,12.7 -10.7183,12.7 0,0 -3.1406,3.175 -3.1406,3.175 0,0 -2.921,3.17235 -2.921,3.17235 0,0 -2.6459,2.39448 -2.6459,2.39448 0,0 -6.8791,6.41085 -6.8791,6.41085 -18.2007,15.59719 -35.7452,27.01925 -57.9438,36.17913 -16.3512,6.74687 -33.7846,11.51996 -51.3291,13.82977 0,0 -12.7,1.27265 -12.7,1.27265 0,0 -2.6459,0.24077 -2.6459,0.24077 0,0 -5.5562,0.26458 -5.5562,0.26458 0,0 0,-3.175 0,-3.175 -0.032,-2.30188 -0.5239,-1.57692 -0.5292,-4.49792 0,0 0,-6.08541 0,-6.08541 0,0 -0.2646,-4.49792 -0.2646,-4.49792 0,0 -0.2407,-2.64583 -0.2407,-2.64583 0,0 -2.032,-16.40417 -2.032,-16.40417 -2.8919,-17.24554 -8.0857,-34.798 -15.1527,-50.8 -3.4423,-7.79198 -8.898,-17.1741 -13.2636,-24.60625 -7.9534,-13.53873 -15.7189,-25.22008 -26.4848,-36.77708 -10.7765,-11.56759 -25.3074,-22.33613 -38.8699,-30.4509 0,0 -7.1438,-4.47146 -7.1438,-4.47146 -5.969,-3.50573 -12.1523,-6.69925 -18.5208,-9.41387 -16.5788,-7.07496 -34.0201,-11.90096 -51.8583,-14.47271 -5.9849,-0.86254 -11.9566,-1.52929 -17.9917,-1.79123 0,0 -3.4396,-0.254 -3.4396,-0.254 0,0 -8.9958,0 -8.9958,0 0,0 -7.4084,0.52917 -7.4084,0.52917 0,0 -3.7041,0 -3.7041,0 z"
         id="path347"
         style="fill:#fb0f19;fill-opacity:1;stroke:none" />
      <path
         d="m -14.855424,-297.28913 c 4.46087,-0.54239 11.15219,0.14552 15.875,0.15346 0,0 3.175,0.24077 3.175,0.24077 0,0 6.08542,0.31221 6.08542,0.31221 0,0 15.61041,1.75683 15.61041,1.75683 6.68867,0.96309 20.31736,3.16177 26.45834,4.98475 18.90712,5.61182 39.45995,16.80369 56.091664,27.35263 18.99179,12.04383 37.33536,26.88696 51.74457,44.19864 3.9317,4.72811 7.23106,9.73932 10.668,14.81667 0,0 3.35756,4.7625 3.35756,4.7625 5.69912,9.15458 9.76577,19.21933 13.98323,29.10417 7.55121,17.69798 13.67366,35.8722 17.45456,54.76875 1.4949,7.47183 2.5717,14.893392 3.093,22.489582 0,0 0.2407,3.175 0.2407,3.175 0,0 0,6.87917 0,6.87917 0,0 -0.2645,3.96875 -0.2645,3.96875 0,0 -0.2646,5.29166 -0.2646,5.29166 0,0 0,3.175 0,3.175 0,0 -0.254,2.91042 -0.254,2.91042 0,0 -1.524,15.61042 -1.524,15.61042 -1.5822,12.02002 -4.1328,23.90245 -7.83698,35.45416 0,0 -2.37331,6.6145899 -2.37331,6.6145899 0,0 -2.93952,8.46665999 -2.93952,8.46665999 C 185.86808,17.453912 172.86381,37.469642 160.51041,52.908082 c -13.9991,17.49954 -28.02466,31.00387 -46.24916,44.0346 0,0 -5.29167,3.849688 -5.29167,3.849688 -5.11175,3.52161 -10.419294,6.65956 -15.875004,9.61231 -25.48996,13.7848 -57.38548,23.59819 -86.51875,23.20132 -0.93663,-0.0132 -1.80975,-0.0159 -2.42094,-0.85461 -0.58473,-0.80433 -0.44714,-1.91558 -0.51329,-2.84956 0,0 -0.57944,-6.08542 -0.57944,-6.08542 -1.35731,-11.30829 -2.86542997,-21.38098 -5.27314,-32.543748 -3.82852,-17.75354 -10.033,-35.88543 -17.5895,-52.3875 0,0 -4.25715,-8.99583 -4.25715,-8.99583 -3.05594,-5.79173 -6.50875,-11.46704 -10.11237,-16.93333 -6.42144,-9.7393201 -13.77157,-18.9838601 -21.71965,-27.51667 0,0 -8.70744,-8.73125 -8.70744,-8.73125 -10.17323,-10.1256 -25.40529,-21.26985 -37.835406,-28.57235 0,0 -8.46667,-4.69636 -8.46667,-4.69636 0,0 -5.02179,-2.51883 -5.02179,-2.51883 0,0 -2.65642,-1.97909 -2.65642,-1.97909 0,0 -7.93221,-3.85497 -7.93221,-3.85497 -17.13706,-7.86871 -34.02541,-13.42232 -52.65208,-16.56557 -9.62554,-1.62454 -19.37544,-2.77283 -29.10417,-3.43693 0,0 -7.67291,-0.52917 -7.67291,-0.52917 -0.95515,-0.0662 -2.56911,0.16139 -3.30465,-0.48419 -0.75671,-0.6641 -0.8599,-2.29923 -0.94721,-3.24379 0,0 -0.24606,-7.67292 -0.24606,-7.67292 0,0 0.254,-2.91041 0.254,-2.91041 0.29898,-6.818322 1.25412,-13.633982 2.37067,-20.372922 2.01612,-12.17083 5.05354,-25.53758 9.49589,-37.04167 0,0 6.98765,-15.08125 6.98765,-15.08125 10.41135,-22.03714 24.36548,-42.69581 41.22737,-60.325 4.80219,-5.02179 9.87161,-9.72872 15.07067,-14.32718 0,0 2.921,-2.75961 2.921,-2.75961 13.4329,-11.86127 31.2076,-23.05579 47.614416,-30.31066 16.53645,-7.31044 35.76902,-12.87198 53.71041,-15.23471 5.18848,-0.68263 12.33223,-1.60338 17.4625,-1.66158 0,0 3.43959,-0.26459 3.43959,-0.26459 0,0 5.02708,-0.15346 5.02708,-0.15346 z"
         id="Selection"
         style="fill:#0c11ff;fill-opacity:1;stroke:none" />
    </g>
  </g>
</svg>
