<?xml version="1.0" encoding="UTF-8" standalone="no"?>
<!-- Created with Inkscape (http://www.inkscape.org/) -->

<svg
   width="480"
   height="61.305969"
   id="svg6120"
   version="1.1"
   inkscape:version="1.2.2 (b0a8486541, 2022-12-01)"
   sodipodi:docname="logo-light.svg"
   xmlns:inkscape="http://www.inkscape.org/namespaces/inkscape"
   xmlns:sodipodi="http://sodipodi.sourceforge.net/DTD/sodipodi-0.dtd"
   xmlns="http://www.w3.org/2000/svg"
   xmlns:svg="http://www.w3.org/2000/svg"
   xmlns:rdf="http://www.w3.org/1999/02/22-rdf-syntax-ns#"
   xmlns:cc="http://creativecommons.org/ns#"
   xmlns:dc="http://purl.org/dc/elements/1.1/">
  <defs
     id="defs6122" />
  <sodipodi:namedview
     id="base"
     pagecolor="#ffffff"
     bordercolor="#666666"
     borderopacity="1.0"
     inkscape:pageopacity="0.0"
     inkscape:pageshadow="2"
     inkscape:zoom="2.6991562"
     inkscape:cx="294.90697"
     inkscape:cy="75.579174"
     inkscape:document-units="px"
     inkscape:current-layer="layer1"
     showgrid="false"
     inkscape:window-width="1920"
     inkscape:window-height="1015"
     inkscape:window-x="0"
     inkscape:window-y="37"
     inkscape:window-maximized="1"
     fit-margin-top="0"
     fit-margin-left="0"
     fit-margin-right="0"
     fit-margin-bottom="0"
     inkscape:showpageshadow="0"
     inkscape:pagecheckerboard="1"
     inkscape:deskcolor="#d1d1d1" />
  <metadata
     id="metadata6125">
    <rdf:RDF>
      <cc:Work
         rdf:about="">
        <dc:format>image/svg+xml</dc:format>
        <dc:type
           rdf:resource="http://purl.org/dc/dcmitype/StillImage" />
      </cc:Work>
    </rdf:RDF>
  </metadata>
  <g
     inkscape:label="Layer 1"
     inkscape:groupmode="layer"
     id="layer1"
     transform="matrix(0.50473957,0,0,0.50473957,43.475772,-274.85769)">
    <path
       inkscape:connector-curvature="0"
       id="path6225"
       d="m -86.135057,666.01408 v -121.4603 l 476.214767,0.254 474.77071,-0.2543 V 665.80162 Z M 193.33446,633.18737 h -3.85087 c 0,3.09908 -2.20969,4.46849 -4.03004,4.95625 h -84.41288 v -27.33014 h 54.77029 c 0.68648,0.008 3.11372,2.43602 3.47409,4.31389 h 3.11914 v -25.66164 h -3.50086 c 0,2.58485 -2.04558,5.01729 -3.38924,5.00148 h -54.47342 v -24.20113 h 81.73831 c 2.14986,0.4268 4.39228,3.14285 4.39228,5.05566 h 3.10255 v -26.32368 h -3.04584 c -0.12647,1.89693 -1.64189,4.4518 -4.01306,4.89442 H 66.664375 v 2.17166 c 3.912232,0.0671 5.691854,3.15507 5.691854,4.49641 v 87.88741 c -0.254543,1.75324 -1.927717,4.00292 -5.911284,3.77218 v 2.93175 H 185.84281 c 1.48365,0.74613 3.42767,1.67215 3.74641,4.93178 h 3.80848 z M 57.927947,623.82618 C 57.206374,597.69763 20.653582,593.19645 1.4224736,592.24952 c -17.9573656,-0.88421 -35.0498006,-2.7837 -38.6607846,-6.39468 -3.441476,-3.44148 -4.735989,-7.50901 2.292769,-12.61376 5.063304,-3.67731 13.198157,-5.49628 26.809481,-5.54667 19.852725,-0.0735 40.658056,5.87426 46.648916,13.34203 1.963618,2.4477 0.02309,2.97558 3.083934,3.95333 L 57.8729,560.69148 55.144293,559.22941 c 0,0 -3.154376,2.01122 -4.957771,2.01122 -4.525373,0 -27.974528,-11.31663 -58.9693762,-11.32564 -26.2874788,0 -57.3797558,8.62096 -58.1727268,32.42573 0,7.08925 -0.142415,16.91897 20.505261,26.14084 20.768223,9.27572 75.772846,0.43024 75.772846,16.58789 0,17.09104 -45.097727,17.37987 -69.028727,9.00475 -3.50824,-1.22778 -15.467898,-3.67205 -14.851679,-13.25729 l -2.581053,-0.5574 -15.164603,25.37532 c 3.274856,3.27485 2.55666,0.33379 7.122385,0.33379 4.848834,0.26889 25.659343,10.9546 59.9094629,11.57932 30.3840491,0.55421 62.3476381,-9.08042 63.1996351,-33.72176 z M 855.64217,655.26476 V 554.23934 l -330.55115,-0.37578 v 101.77698 z m -180.83226,-83.4254 c -117.95577,22.01817 -97.47073,76.20819 5.24819,64.38572 -162.63836,33.89353 -209.412,-37.43397 -5.24819,-64.38572 z m 22.84866,16.88329 10.25523,37.55632 c 86.0489,-9.68498 125.36277,-64.81487 -14.97252,-58.55771 114.97731,-14.97943 155.52976,1.03332 145.71412,17.50563 -9.81564,16.47231 -67.49552,38.05416 -141.47139,48.16283 z m -350.26271,50.13709 c -0.042,-2.09792 -4.02884,-1.25023 -6.09726,-4.83284 v -24.77466 c -0.0447,-0.93894 2.51211,-3.52642 5.82074,-3.66055 l -0.0731,-2.63021 h -64.26652 c -1.4782,-1.45236 -2.55429,-2.96222 -2.85135,-4.41908 h -3.70675 v 23.89556 h 3.1282 c 1.57157,-1.12236 1.03229,-3.79475 4.02723,-4.67608 l 34.72116,0.0669 v 13.77529 c -120.79719,37.77937 -113.92847,-93.34081 -6.51853,-57.40937 11.22224,4.57559 5.60867,9.18234 11.2327,9.18469 l 14.53252,-24.23301 c -1.51755,-2.49794 -4.08518,0.51655 -6.94872,0.33401 -5.87761,0 -26.8876,-8.81724 -51.76841,-8.91747 -35.7714,0.0854 -77.688,12.91602 -77.688,54.56467 2.37324,39.95571 45.64847,52.5662 79.92597,49.89052 16.51665,0 45.13191,-4.75631 66.53016,-16.15834 z m 41.05266,12.19586 c -1.61132,-0.007 -6.01051,-1.18958 -5.92446,-5.68291 l 9.68497,-17.54124 54.44922,0.1143 c 1.13644,2.48521 9.93223,15.54596 9.70309,18.57379 0,0.65104 -0.0512,4.16077 -5.86367,4.61637 v 2.78986 l 44.25983,-3e-4 v -2.69013 c -3.20407,-0.18845 -5.35053,-1.00731 -6.50713,-2.29606 l -51.94872,-89.16723 c 0.0632,-3.63388 4.38864,-3.97965 5.50151,-4.67465 v -2.84549 h -42.63033 l -0.0195,2.81388 c 4.32673,0.31581 6.06834,2.88143 5.44238,6.14153 l -49.25441,86.9394 c -2.17784,1.91003 -3.75611,3.20875 -6.70434,2.96796 v 2.65076 h 39.87472 z m 11.36331,-37.30253 19.62269,-36.19197 19.64953,36.23173 z"
       style="display:inline;fill:#cccccc;fill-opacity:1;stroke-width:1.0117"
       sodipodi:nodetypes="ccccccccccccccccccccccccccccccccccccssssscccsccsssccccsccccccccccccscccccccccccccccccccccccccccccccccccccccccccccccc" />
  </g>
</svg>
