<?xml version="1.0" encoding="UTF-8" standalone="no"?>
<!-- Created with Inkscape (http://www.inkscape.org/) -->

<svg
   width="256"
   height="256"
   viewBox="0 0 67.733333 67.733333"
   version="1.1"
   id="svg794"
   xml:space="preserve"
   xmlns="http://www.w3.org/2000/svg"
   xmlns:svg="http://www.w3.org/2000/svg"><defs
     id="defs791" /><g
     id="g968"
     transform="matrix(0.26755832,0,0,0.26755832,6.3843167,6.5296483)"><path
       style="display:inline;fill:#cccccc;stroke-width:0.264583;fill-opacity:1"
       d="M 94.417423,228.48839 C 64.630433,226.62363 36.121135,213.93355 14.551837,192.93856 -14.249205,164.90439 -27.878226,125.77178 -22.783147,85.739706 -20.723613,69.557933 -15.273746,53.393891 -7.0547826,39.090148 5.2738865,17.634141 23.939777,-0.00249346 46.04001,-11.076939 c 11.317398,-5.671158 23.882193,-9.744006 36.248754,-11.749949 11.376498,-1.845347 24.860286,-2.085794 36.338036,-0.647991 35.63112,4.463467 67.82424,24.07755536 88.34593,53.825946 17.60055,25.513876 25.17785,56.719681 21.29733,87.709373 -5.23236,41.78539 -31.03248,78.25028 -68.76514,97.18998 -20.34179,10.21044 -42.2552,14.66735 -65.087497,13.23797 z M 75.29175,202.66096 c -0.078,-0.40018 -2.854643,-16.47362 -6.170322,-35.71875 -3.506642,-20.35356 -6.14517,-34.99565 -6.307399,-35.00193 -0.79049,-0.0306 -23.694522,7.57009 -23.694522,7.86297 0,0.24056 0.769192,0.35268 2.792913,0.40709 l 2.792915,0.0751 -4.030311,3.30729 -4.030313,3.30729 4.034258,0.1323 4.034256,0.13229 -3.626805,2.91041 -3.626803,2.91042 7.362857,0.13229 7.362856,0.13229 2.232959,8.93917 c 1.228127,4.91654 2.159241,9.01288 2.069137,9.10298 -0.218379,0.21838 -3.290829,-1.09623 -5.593961,-2.39349 -4.598505,-2.59015 -10.118534,-6.9666 -14.43102,-11.44138 -6.611675,-6.86048 -10.307521,-15.53569 -10.307521,-24.1947 0,-10.96551 5.870202,-17.84122 16.50189,-19.32852 2.212534,-0.30952 2.345127,-0.29706 4.595998,0.43183 3.192476,1.03381 8.978506,4.01205 13.562528,6.98102 9.902417,6.41358 14.818484,9.27916 14.484667,8.44312 -0.07742,-0.19389 -3.265254,-6.93028 -7.084086,-14.96975 l -6.943333,-14.61722 -1.694156,-1.069956 c -5.219983,-3.296717 -10.916544,-5.282057 -15.155876,-5.282057 -2.249432,0 -5.863542,0.695714 -8.917291,1.716574 -5.201603,1.738881 -9.224843,4.191153 -12.789924,7.795799 -8.635328,8.73115 -11.858754,22.75952 -9.004522,39.18771 1.134258,6.5285 3.14666,12.6407 6.223005,18.90096 2.300999,4.68245 4.303004,7.82784 7.106507,11.1652 9.555985,11.37567 31.711585,25.94544 45.784396,30.10834 2.704187,0.79992 2.635896,0.80171 2.467023,-0.0647 z m 30.23728,-4.36562 c -5.3e-4,-0.1819 -0.71486,-1.97018 -1.5875,-3.97394 -0.87263,-2.00377 -1.58661,-3.70626 -1.58661,-3.78332 0,-0.0771 1.19063,0.8241 2.64584,2.00257 1.4552,1.17847 2.64583,2.07268 2.64583,1.98714 0,-0.0855 -0.61195,-2.11866 -1.35988,-4.51805 -0.74794,-2.39939 -1.29774,-4.42466 -1.2218,-4.50061 0.076,-0.076 1.48404,0.22252 3.12909,0.66327 1.64505,0.44075 3.02779,0.76458 3.07275,0.71962 0.045,-0.045 -4.79608,-9.47828 -10.75786,-20.96292 l -10.839606,-20.88116 1.381882,-0.0825 c 0.760034,-0.0454 9.521474,0.16921 19.469874,0.47693 9.9484,0.30772 18.13556,0.51194 18.19368,0.45381 0.0581,-0.0581 -4.21925,-7.4165 -9.50527,-16.35194 -5.28602,-8.93544 -9.93831,-16.80484 -10.33841,-17.48757 l -0.72746,-1.24132 16.06142,5.41457 c 8.83378,2.97801 16.11954,5.35644 16.19059,5.28539 0.071,-0.071 -1.0348,-1.38613 -2.45744,-2.92242 -1.42263,-1.53629 -2.52422,-2.85564 -2.44798,-2.93188 0.11159,-0.11159 7.35155,1.68252 8.60277,2.13182 0.1819,0.0653 0.33073,0.0821 0.33073,0.0374 0,-0.0447 -1.71232,-2.27344 -3.80516,-4.95263 -2.09284,-2.6792 -3.77828,-4.90231 -3.74542,-4.94026 0.0329,-0.0379 0.97127,0.0287 2.08537,0.14804 1.1141,0.11937 2.02107,0.15042 2.0155,0.069 -0.0156,-0.22783 -27.25431,-22.362409 -27.62814,-22.451016 -0.36562,-0.08666 -44.421266,63.608746 -44.431936,64.239436 -0.0072,0.4279 36.088016,48.67852 36.417596,48.68153 0.10915,0.001 0.19804,-0.14702 0.19755,-0.32892 z m 43.77101,-4.33418 11.35866,-2.83333 17.94395,-16.91557 c 14.95335,-14.09638 17.94416,-17.03231 17.94529,-17.61599 7.9e-4,-0.38523 0.29653,-9.74111 0.6573,-20.79085 0.36078,-11.04974 0.62806,-20.11648 0.59396,-20.14831 -0.0596,-0.0557 -42.34652,0.86015 -42.44221,0.91919 -0.0258,0.0159 -6.90165,8.9494 -15.27969,19.8522 l -15.23279,19.82327 v 14.41675 14.41675 l 6.15156,5.96945 c 3.82624,3.71297 6.30158,5.92604 6.54843,5.85461 0.21829,-0.0632 5.50828,-1.38983 11.75554,-2.94817 z m 0.15071,-12.45254 c -0.4999,-0.0792 -0.9449,-0.59191 -1.82198,-2.09916 -0.63829,-1.09688 -1.31782,-2.05469 -1.51008,-2.12847 -0.19225,-0.0738 -1.86118,0.0608 -3.70872,0.29903 -1.84755,0.23825 -3.44473,0.33833 -3.54931,0.22242 -0.10458,-0.11591 -0.91174,-2.52048 -1.79371,-5.3435 l -1.60357,-5.13275 1.54335,-3.06933 1.54334,-3.06934 2.73836,-1.0274 c 1.5061,-0.56508 3.30394,-1.24796 3.99521,-1.51752 l 1.25684,-0.49012 1.80217,3.59699 1.80218,3.59698 2.71573,1.00195 2.71574,1.00195 3.22108,-1.4229 c 1.77159,-0.78259 3.34014,-1.42422 3.48567,-1.42584 0.38982,-0.004 6.31585,11.3821 6.04848,11.62172 -0.12521,0.11221 -3.10792,1.41123 -6.62824,2.88671 l -6.4006,2.68269 -2.59523,-0.0396 c -1.42739,-0.0218 -2.8929,-0.0868 -3.25671,-0.14447 z m 29.43561,-30.84202 -2.4467,-1.38533 -0.004,-1.32291 c -0.002,-0.72761 -0.0728,-1.74109 -0.15741,-2.25218 -0.1534,-0.92697 -0.1493,-0.93144 1.66248,-1.80792 l 1.81626,-0.87865 2.39706,0.56276 2.39704,0.56276 -0.12045,2.1712 c -0.11824,2.13136 -0.14528,2.20396 -1.4742,3.95713 -0.74457,0.98227 -1.41451,1.78426 -1.48877,1.7822 -0.0743,-0.002 -1.23602,-0.62713 -2.5817,-1.38906 z m -20.49576,-11.70568 -2.56952,-2.76304 1.59345,-3.38018 c 0.87639,-1.85909 1.70154,-3.48957 1.83366,-3.62327 0.21326,-0.21582 8.49192,-1.8241 8.59918,-1.67055 0.0236,0.0339 0.65284,1.34893 1.39819,2.92239 l 1.35519,2.86083 -1.33075,3.35688 c -0.73191,1.84628 -1.50483,3.49108 -1.71759,3.65511 -0.32832,0.25312 -2.51046,0.73262 -5.79853,1.27415 -0.72642,0.11964 -1.01171,-0.10365 -3.36328,-2.63232 z m 35.51015,-43.26013 c 6.18464,-8.140475 11.27925,-14.961502 11.32136,-15.157834 0.0673,-0.31378 -4.38378,-21.806077 -4.94265,-23.865848 -0.17556,-0.647025 -21.8163,-31.481204 -22.89053,-32.614899 -0.17497,-0.18465 -7.66948,-2.162275 -16.65447,-4.394721 l -16.33635,-4.058991 -0.74457,1.087429 c -0.40951,0.598088 -4.50981,6.833997 -9.11176,13.857573 l -8.36719,12.770141 6.44655,14.834582 6.44655,14.834582 11.87226,15.293652 11.87226,15.293654 9.78959,3.44439 c 5.38427,1.89441 9.84911,3.45176 9.92187,3.46078 0.0728,0.009 5.19245,-6.64401 11.37708,-14.78449 z m -19.44687,-5.566429 c -1.45521,-0.104439 -3.3214,-0.203874 -4.14709,-0.220966 l -1.50127,-0.03108 -3.72425,-3.063275 c -3.37226,-2.773746 -4.14115,-3.551309 -3.51167,-3.551309 0.11693,0 1.45001,0.416719 2.9624,0.926042 2.74516,0.924475 2.758,0.926042 7.5936,0.926042 h 4.84379 l 2.28897,-1.586733 c 1.9069,-1.321887 2.59271,-2.008751 4.10876,-4.115086 l 1.81981,-2.528353 1.76982,-6.073841 c 0.97343,-3.340727 1.89221,-6.034262 2.0418,-5.985883 0.1496,0.04838 0.64526,2.341441 1.10147,5.095698 l 0.82948,5.007739 -0.7458,3.259056 c -0.41019,1.79248 -0.90252,3.453154 -1.09406,3.690382 -3.24125,4.014303 -4.57599,5.276458 -7.27043,6.875042 -3.04437,1.806194 -2.58217,1.719812 -7.36533,1.376523 z m -27.18594,-32.796993 -2.05052,-1.31472 v -1.408136 c 0,-1.606071 0.16021,-1.860166 1.98438,-3.147335 l 1.32291,-0.933477 2.11667,0.558163 2.11667,0.558162 0.69657,1.984375 0.69657,1.984375 -2.28407,1.510824 c -1.25624,0.830953 -2.34361,1.513448 -2.41637,1.516658 -0.0728,0.0032 -1.05502,-0.585793 -2.18281,-1.308889 z m 18.24911,-8.120062 c -0.61578,-0.160274 -3.71413,-4.773904 -3.52936,-5.255414 0.0784,-0.204274 0.86459,-1.445278 1.74712,-2.757784 l 1.60459,-2.386375 2.17599,0.0029 2.17599,0.0029 1.74465,2.854373 1.74465,2.854373 -1.20892,2.434426 -1.20892,2.434426 -2.38781,-0.03069 c -1.3133,-0.01688 -2.59939,-0.08576 -2.85798,-0.15307 z M 10.089816,103.5745 c 0.362953,-0.9095 4.200361,-10.64286 8.527571,-21.629683 4.32721,-10.986823 7.942207,-20.057576 8.033324,-20.157231 0.09112,-0.09965 9.928796,7.536489 21.861504,16.969205 19.908795,15.737753 21.701043,17.092957 21.75909,16.453065 0.10388,-1.145125 -2.734622,-81.773557 -2.884075,-81.923009 -0.07569,-0.07569 -1.069626,1.261766 -2.208744,2.972128 l -2.071121,3.109753 -0.579052,-2.531385 c -0.318479,-1.392261 -0.628187,-2.678792 -0.688242,-2.858955 -0.06005,-0.180163 -0.935968,0.883028 -1.946476,2.36265 -1.01051,1.479619 -1.870218,2.588032 -1.910463,2.463144 -0.04025,-0.124892 -0.422191,-2.64863 -0.848765,-5.608307 C 56.384413,7.9925394 56.234887,7.3266572 55.893148,7.6683984 55.805317,7.7562294 54.437141,18.161144 52.85276,30.790431 51.268377,43.419716 49.941254,53.825569 49.903598,53.914546 49.865943,54.003523 42.869976,48.848781 34.357007,42.459564 L 18.878883,30.842805 14.902217,34.99625 10.92555,39.149695 9.9301985,71.461319 C 9.3827544,89.232712 8.939834,104.10036 8.9459274,104.50055 c 0.017992,1.18117 0.4389781,0.84036 1.1438886,-0.92605 z M 101.79861,86.990095 c 12.28158,-9.250582 22.16273,-16.852198 21.95812,-16.892487 -0.20462,-0.04029 -1.97445,0.162039 -3.93296,0.449617 -1.95852,0.287576 -3.59668,0.487117 -3.64038,0.443421 -0.0437,-0.04369 0.81562,-0.819817 1.90959,-1.724713 1.09396,-0.904899 1.98903,-1.756084 1.98903,-1.891525 0,-0.35093 -0.76758,-0.306075 -2.79049,0.163071 -0.97075,0.225131 -1.88446,0.369509 -2.03047,0.320839 -0.14601,-0.04867 1.41954,-1.323462 3.47899,-2.832873 2.14311,-1.570725 3.64534,-2.843508 3.51267,-2.976171 -0.13266,-0.132662 -6.54305,0.909842 -14.98952,2.437705 -8.116745,1.468223 -14.819387,2.607828 -14.894756,2.532459 -0.254037,-0.254034 -1.098233,-9.534467 -0.880044,-9.674503 0.118824,-0.07626 9.39648,-6.865691 20.61701,-15.087618 12.96325,-9.498915 20.22497,-14.97783 19.91821,-15.028148 -0.26552,-0.04356 -9.50848,0.585411 -20.53991,1.397701 -11.03143,0.812292 -20.146022,1.443238 -20.254647,1.402106 -0.108624,-0.04113 7.97596,-5.447509 17.965747,-12.014173 9.98979,-6.566665 18.19745,-12.1105669 18.23926,-12.3197862 0.0643,-0.3214952 -0.75513,-0.2857553 -5.29166,0.2308146 -2.95223,0.3361663 -5.60054,0.5817896 -5.88513,0.5458274 -0.36395,-0.045987 0.98998,-1.2696851 4.56426,-4.1252166 2.79494,-2.2329074 5.01506,-4.167673 4.9336,-4.2994787 -0.0815,-0.1318058 -1.33873,-0.2396468 -2.79394,-0.2396468 -1.45521,0 -2.58127,-0.1044559 -2.50237,-0.2321243 0.0789,-0.1276683 1.86905,-1.4671214 3.97811,-2.9765625 2.10905,-1.509441 3.83746,-2.9060047 3.8409,-3.1034749 0.003,-0.1974702 -0.14257,-0.304778 -0.32447,-0.2384618 -0.1819,0.066316 -11.82026,3.9057318 -25.86302,8.53203487 C 88.047579,4.4150314 76.481808,8.2728072 76.388627,8.3615644 c -0.09318,0.088757 0.408009,20.5210646 1.113753,45.4051276 0.705742,24.884062 1.287997,46.411638 1.293897,47.839048 0.0083,2.00216 0.08631,2.55054 0.341458,2.39945 0.181901,-0.10772 10.379295,-7.764515 22.660875,-17.015095 z"
       id="path929" /></g></svg>
