<?xml version="1.0" encoding="UTF-8" standalone="no"?>
<!-- Created with Inkscape (http://www.inkscape.org/) -->

<svg
   width="256"
   height="256"
   viewBox="0 0 67.733333 67.733333"
   version="1.1"
   id="svg794"
   xml:space="preserve"
   inkscape:version="1.2.2 (b0a8486541, 2022-12-01)"
   sodipodi:docname="icon.svg"
   xmlns:inkscape="http://www.inkscape.org/namespaces/inkscape"
   xmlns:sodipodi="http://sodipodi.sourceforge.net/DTD/sodipodi-0.dtd"
   xmlns="http://www.w3.org/2000/svg"
   xmlns:svg="http://www.w3.org/2000/svg"><sodipodi:namedview
     id="namedview796"
     pagecolor="#ffffff"
     bordercolor="#666666"
     borderopacity="1.0"
     inkscape:showpageshadow="2"
     inkscape:pageopacity="0.0"
     inkscape:pagecheckerboard="0"
     inkscape:deskcolor="#d1d1d1"
     inkscape:document-units="mm"
     showgrid="false"
     inkscape:zoom="0.3750491"
     inkscape:cx="-793.22947"
     inkscape:cy="394.615"
     inkscape:window-width="1920"
     inkscape:window-height="1023"
     inkscape:window-x="1775"
     inkscape:window-y="29"
     inkscape:window-maximized="1"
     inkscape:current-layer="svg794" /><defs
     id="defs791" /><g
     id="g968"
     inkscape:label="logo"
     transform="matrix(0.26755832,0,0,0.26755832,6.3843167,6.5296483)"><path
       style="display:inline;fill:#000000;stroke-width:0.264583"
       d="M 94.417423,228.48839 C 64.630433,226.62363 36.121135,213.93355 14.551837,192.93856 -14.249205,164.90439 -27.878226,125.77178 -22.783147,85.739706 -20.723613,69.557933 -15.273746,53.393891 -7.0547826,39.090148 5.2738865,17.634141 23.939777,-0.00249346 46.04001,-11.076939 c 11.317398,-5.671158 23.882193,-9.744006 36.248754,-11.749949 11.376498,-1.845347 24.860286,-2.085794 36.338036,-0.647991 35.63112,4.463467 67.82424,24.07755536 88.34593,53.825946 17.60055,25.513876 25.17785,56.719681 21.29733,87.709373 -5.23236,41.78539 -31.03248,78.25028 -68.76514,97.18998 -20.34179,10.21044 -42.2552,14.66735 -65.087497,13.23797 z M 75.29175,202.66096 c -0.078,-0.40018 -2.854643,-16.47362 -6.170322,-35.71875 -3.506642,-20.35356 -6.14517,-34.99565 -6.307399,-35.00193 -0.79049,-0.0306 -23.694522,7.57009 -23.694522,7.86297 0,0.24056 0.769192,0.35268 2.792913,0.40709 l 2.792915,0.0751 -4.030311,3.30729 -4.030313,3.30729 4.034258,0.1323 4.034256,0.13229 -3.626805,2.91041 -3.626803,2.91042 7.362857,0.13229 7.362856,0.13229 2.232959,8.93917 c 1.228127,4.91654 2.159241,9.01288 2.069137,9.10298 -0.218379,0.21838 -3.290829,-1.09623 -5.593961,-2.39349 -4.598505,-2.59015 -10.118534,-6.9666 -14.43102,-11.44138 -6.611675,-6.86048 -10.307521,-15.53569 -10.307521,-24.1947 0,-10.96551 5.870202,-17.84122 16.50189,-19.32852 2.212534,-0.30952 2.345127,-0.29706 4.595998,0.43183 3.192476,1.03381 8.978506,4.01205 13.562528,6.98102 9.902417,6.41358 14.818484,9.27916 14.484667,8.44312 -0.07742,-0.19389 -3.265254,-6.93028 -7.084086,-14.96975 l -6.943333,-14.61722 -1.694156,-1.069956 c -5.219983,-3.296717 -10.916544,-5.282057 -15.155876,-5.282057 -2.249432,0 -5.863542,0.695714 -8.917291,1.716574 -5.201603,1.738881 -9.224843,4.191153 -12.789924,7.795799 -8.635328,8.73115 -11.858754,22.75952 -9.004522,39.18771 1.134258,6.5285 3.14666,12.6407 6.223005,18.90096 2.300999,4.68245 4.303004,7.82784 7.106507,11.1652 9.555985,11.37567 31.711585,25.94544 45.784396,30.10834 2.704187,0.79992 2.635896,0.80171 2.467023,-0.0647 z m 30.23728,-4.36562 c -5.3e-4,-0.1819 -0.71486,-1.97018 -1.5875,-3.97394 -0.87263,-2.00377 -1.58661,-3.70626 -1.58661,-3.78332 0,-0.0771 1.19063,0.8241 2.64584,2.00257 1.4552,1.17847 2.64583,2.07268 2.64583,1.98714 0,-0.0855 -0.61195,-2.11866 -1.35988,-4.51805 -0.74794,-2.39939 -1.29774,-4.42466 -1.2218,-4.50061 0.076,-0.076 1.48404,0.22252 3.12909,0.66327 1.64505,0.44075 3.02779,0.76458 3.07275,0.71962 0.045,-0.045 -4.79608,-9.47828 -10.75786,-20.96292 l -10.839606,-20.88116 1.381882,-0.0825 c 0.760034,-0.0454 9.521474,0.16921 19.469874,0.47693 9.9484,0.30772 18.13556,0.51194 18.19368,0.45381 0.0581,-0.0581 -4.21925,-7.4165 -9.50527,-16.35194 -5.28602,-8.93544 -9.93831,-16.80484 -10.33841,-17.48757 l -0.72746,-1.24132 16.06142,5.41457 c 8.83378,2.97801 16.11954,5.35644 16.19059,5.28539 0.071,-0.071 -1.0348,-1.38613 -2.45744,-2.92242 -1.42263,-1.53629 -2.52422,-2.85564 -2.44798,-2.93188 0.11159,-0.11159 7.35155,1.68252 8.60277,2.13182 0.1819,0.0653 0.33073,0.0821 0.33073,0.0374 0,-0.0447 -1.71232,-2.27344 -3.80516,-4.95263 -2.09284,-2.6792 -3.77828,-4.90231 -3.74542,-4.94026 0.0329,-0.0379 0.97127,0.0287 2.08537,0.14804 1.1141,0.11937 2.02107,0.15042 2.0155,0.069 -0.0156,-0.22783 -27.25431,-22.362409 -27.62814,-22.451016 -0.36562,-0.08666 -44.421266,63.608746 -44.431936,64.239436 -0.0072,0.4279 36.088016,48.67852 36.417596,48.68153 0.10915,0.001 0.19804,-0.14702 0.19755,-0.32892 z m 43.77101,-4.33418 11.35866,-2.83333 17.94395,-16.91557 c 14.95335,-14.09638 17.94416,-17.03231 17.94529,-17.61599 7.9e-4,-0.38523 0.29653,-9.74111 0.6573,-20.79085 0.36078,-11.04974 0.62806,-20.11648 0.59396,-20.14831 -0.0596,-0.0557 -42.34652,0.86015 -42.44221,0.91919 -0.0258,0.0159 -6.90165,8.9494 -15.27969,19.8522 l -15.23279,19.82327 v 14.41675 14.41675 l 6.15156,5.96945 c 3.82624,3.71297 6.30158,5.92604 6.54843,5.85461 0.21829,-0.0632 5.50828,-1.38983 11.75554,-2.94817 z m 0.15071,-12.45254 c -0.4999,-0.0792 -0.9449,-0.59191 -1.82198,-2.09916 -0.63829,-1.09688 -1.31782,-2.05469 -1.51008,-2.12847 -0.19225,-0.0738 -1.86118,0.0608 -3.70872,0.29903 -1.84755,0.23825 -3.44473,0.33833 -3.54931,0.22242 -0.10458,-0.11591 -0.91174,-2.52048 -1.79371,-5.3435 l -1.60357,-5.13275 1.54335,-3.06933 1.54334,-3.06934 2.73836,-1.0274 c 1.5061,-0.56508 3.30394,-1.24796 3.99521,-1.51752 l 1.25684,-0.49012 1.80217,3.59699 1.80218,3.59698 2.71573,1.00195 2.71574,1.00195 3.22108,-1.4229 c 1.77159,-0.78259 3.34014,-1.42422 3.48567,-1.42584 0.38982,-0.004 6.31585,11.3821 6.04848,11.62172 -0.12521,0.11221 -3.10792,1.41123 -6.62824,2.88671 l -6.4006,2.68269 -2.59523,-0.0396 c -1.42739,-0.0218 -2.8929,-0.0868 -3.25671,-0.14447 z m 29.43561,-30.84202 -2.4467,-1.38533 -0.004,-1.32291 c -0.002,-0.72761 -0.0728,-1.74109 -0.15741,-2.25218 -0.1534,-0.92697 -0.1493,-0.93144 1.66248,-1.80792 l 1.81626,-0.87865 2.39706,0.56276 2.39704,0.56276 -0.12045,2.1712 c -0.11824,2.13136 -0.14528,2.20396 -1.4742,3.95713 -0.74457,0.98227 -1.41451,1.78426 -1.48877,1.7822 -0.0743,-0.002 -1.23602,-0.62713 -2.5817,-1.38906 z m -20.49576,-11.70568 -2.56952,-2.76304 1.59345,-3.38018 c 0.87639,-1.85909 1.70154,-3.48957 1.83366,-3.62327 0.21326,-0.21582 8.49192,-1.8241 8.59918,-1.67055 0.0236,0.0339 0.65284,1.34893 1.39819,2.92239 l 1.35519,2.86083 -1.33075,3.35688 c -0.73191,1.84628 -1.50483,3.49108 -1.71759,3.65511 -0.32832,0.25312 -2.51046,0.73262 -5.79853,1.27415 -0.72642,0.11964 -1.01171,-0.10365 -3.36328,-2.63232 z m 35.51015,-43.26013 c 6.18464,-8.140475 11.27925,-14.961502 11.32136,-15.157834 0.0673,-0.31378 -4.38378,-21.806077 -4.94265,-23.865848 -0.17556,-0.647025 -21.8163,-31.481204 -22.89053,-32.614899 -0.17497,-0.18465 -7.66948,-2.162275 -16.65447,-4.394721 l -16.33635,-4.058991 -0.74457,1.087429 c -0.40951,0.598088 -4.50981,6.833997 -9.11176,13.857573 l -8.36719,12.770141 6.44655,14.834582 6.44655,14.834582 11.87226,15.293652 11.87226,15.293654 9.78959,3.44439 c 5.38427,1.89441 9.84911,3.45176 9.92187,3.46078 0.0728,0.009 5.19245,-6.64401 11.37708,-14.78449 z m -19.44687,-5.566429 c -1.45521,-0.104439 -3.3214,-0.203874 -4.14709,-0.220966 l -1.50127,-0.03108 -3.72425,-3.063275 c -3.37226,-2.773746 -4.14115,-3.551309 -3.51167,-3.551309 0.11693,0 1.45001,0.416719 2.9624,0.926042 2.74516,0.924475 2.758,0.926042 7.5936,0.926042 h 4.84379 l 2.28897,-1.586733 c 1.9069,-1.321887 2.59271,-2.008751 4.10876,-4.115086 l 1.81981,-2.528353 1.76982,-6.073841 c 0.97343,-3.340727 1.89221,-6.034262 2.0418,-5.985883 0.1496,0.04838 0.64526,2.341441 1.10147,5.095698 l 0.82948,5.007739 -0.7458,3.259056 c -0.41019,1.79248 -0.90252,3.453154 -1.09406,3.690382 -3.24125,4.014303 -4.57599,5.276458 -7.27043,6.875042 -3.04437,1.806194 -2.58217,1.719812 -7.36533,1.376523 z m -27.18594,-32.796993 -2.05052,-1.31472 v -1.408136 c 0,-1.606071 0.16021,-1.860166 1.98438,-3.147335 l 1.32291,-0.933477 2.11667,0.558163 2.11667,0.558162 0.69657,1.984375 0.69657,1.984375 -2.28407,1.510824 c -1.25624,0.830953 -2.34361,1.513448 -2.41637,1.516658 -0.0728,0.0032 -1.05502,-0.585793 -2.18281,-1.308889 z m 18.24911,-8.120062 c -0.61578,-0.160274 -3.71413,-4.773904 -3.52936,-5.255414 0.0784,-0.204274 0.86459,-1.445278 1.74712,-2.757784 l 1.60459,-2.386375 2.17599,0.0029 2.17599,0.0029 1.74465,2.854373 1.74465,2.854373 -1.20892,2.434426 -1.20892,2.434426 -2.38781,-0.03069 c -1.3133,-0.01688 -2.59939,-0.08576 -2.85798,-0.15307 z M 10.089816,103.5745 c 0.362953,-0.9095 4.200361,-10.64286 8.527571,-21.629683 4.32721,-10.986823 7.942207,-20.057576 8.033324,-20.157231 0.09112,-0.09965 9.928796,7.536489 21.861504,16.969205 19.908795,15.737753 21.701043,17.092957 21.75909,16.453065 0.10388,-1.145125 -2.734622,-81.773557 -2.884075,-81.923009 -0.07569,-0.07569 -1.069626,1.261766 -2.208744,2.972128 l -2.071121,3.109753 -0.579052,-2.531385 c -0.318479,-1.392261 -0.628187,-2.678792 -0.688242,-2.858955 -0.06005,-0.180163 -0.935968,0.883028 -1.946476,2.36265 -1.01051,1.479619 -1.870218,2.588032 -1.910463,2.463144 -0.04025,-0.124892 -0.422191,-2.64863 -0.848765,-5.608307 C 56.384413,7.9925394 56.234887,7.3266572 55.893148,7.6683984 55.805317,7.7562294 54.437141,18.161144 52.85276,30.790431 51.268377,43.419716 49.941254,53.825569 49.903598,53.914546 49.865943,54.003523 42.869976,48.848781 34.357007,42.459564 L 18.878883,30.842805 14.902217,34.99625 10.92555,39.149695 9.9301985,71.461319 C 9.3827544,89.232712 8.939834,104.10036 8.9459274,104.50055 c 0.017992,1.18117 0.4389781,0.84036 1.1438886,-0.92605 z M 101.79861,86.990095 c 12.28158,-9.250582 22.16273,-16.852198 21.95812,-16.892487 -0.20462,-0.04029 -1.97445,0.162039 -3.93296,0.449617 -1.95852,0.287576 -3.59668,0.487117 -3.64038,0.443421 -0.0437,-0.04369 0.81562,-0.819817 1.90959,-1.724713 1.09396,-0.904899 1.98903,-1.756084 1.98903,-1.891525 0,-0.35093 -0.76758,-0.306075 -2.79049,0.163071 -0.97075,0.225131 -1.88446,0.369509 -2.03047,0.320839 -0.14601,-0.04867 1.41954,-1.323462 3.47899,-2.832873 2.14311,-1.570725 3.64534,-2.843508 3.51267,-2.976171 -0.13266,-0.132662 -6.54305,0.909842 -14.98952,2.437705 -8.116745,1.468223 -14.819387,2.607828 -14.894756,2.532459 -0.254037,-0.254034 -1.098233,-9.534467 -0.880044,-9.674503 0.118824,-0.07626 9.39648,-6.865691 20.61701,-15.087618 12.96325,-9.498915 20.22497,-14.97783 19.91821,-15.028148 -0.26552,-0.04356 -9.50848,0.585411 -20.53991,1.397701 -11.03143,0.812292 -20.146022,1.443238 -20.254647,1.402106 -0.108624,-0.04113 7.97596,-5.447509 17.965747,-12.014173 9.98979,-6.566665 18.19745,-12.1105669 18.23926,-12.3197862 0.0643,-0.3214952 -0.75513,-0.2857553 -5.29166,0.2308146 -2.95223,0.3361663 -5.60054,0.5817896 -5.88513,0.5458274 -0.36395,-0.045987 0.98998,-1.2696851 4.56426,-4.1252166 2.79494,-2.2329074 5.01506,-4.167673 4.9336,-4.2994787 -0.0815,-0.1318058 -1.33873,-0.2396468 -2.79394,-0.2396468 -1.45521,0 -2.58127,-0.1044559 -2.50237,-0.2321243 0.0789,-0.1276683 1.86905,-1.4671214 3.97811,-2.9765625 2.10905,-1.509441 3.83746,-2.9060047 3.8409,-3.1034749 0.003,-0.1974702 -0.14257,-0.304778 -0.32447,-0.2384618 -0.1819,0.066316 -11.82026,3.9057318 -25.86302,8.53203487 C 88.047579,4.4150314 76.481808,8.2728072 76.388627,8.3615644 c -0.09318,0.088757 0.408009,20.5210646 1.113753,45.4051276 0.705742,24.884062 1.287997,46.411638 1.293897,47.839048 0.0083,2.00216 0.08631,2.55054 0.341458,2.39945 0.181901,-0.10772 10.379295,-7.764515 22.660875,-17.015095 z"
       id="path929"
       inkscape:label="black" /><path
       style="display:inline;fill:#35a9c6;stroke-width:0.264583"
       d="M 72.824727,202.72565 C 62.954946,199.80606 48.745626,191.67943 37.399716,182.4653 30.985015,177.25586 26.623107,172.67416 23.43991,167.80211 c -1.899094,-2.90667 -5.117247,-9.39395 -6.412991,-12.92756 -3.043034,-8.29861 -4.596382,-17.57488 -4.281684,-25.56932 0.596165,-15.14467 6.886446,-26.19908 18.129821,-31.860981 3.966628,-1.997501 9.98288,-3.593182 13.5475,-3.593182 4.239332,0 9.935893,1.98534 15.155876,5.282057 l 1.694156,1.069956 6.943333,14.61722 c 3.818832,8.03947 7.006669,14.77586 7.084086,14.96975 0.333817,0.83604 -4.58225,-2.02954 -14.484667,-8.44312 -4.584022,-2.96897 -10.370052,-5.94721 -13.562528,-6.98102 -2.250871,-0.72889 -2.383464,-0.74135 -4.595998,-0.43183 -5.809143,0.81265 -10.209752,3.21086 -12.957473,7.06145 -5.583238,7.8242 -4.572998,20.58059 2.469253,31.17946 3.705188,5.57645 11.851679,12.85231 18.724871,16.72369 2.303132,1.29726 5.375582,2.61187 5.593961,2.39349 0.0901,-0.0901 -0.84101,-4.18644 -2.069137,-9.10298 l -2.232959,-8.93917 -7.362856,-0.13229 -7.362857,-0.13229 3.626803,-2.91042 3.626805,-2.91041 -4.034256,-0.13229 -4.034258,-0.1323 4.030313,-3.30729 4.030311,-3.30729 -2.792915,-0.0751 c -2.023721,-0.0544 -2.792913,-0.16653 -2.792913,-0.40709 0,-0.29288 22.904032,-7.89353 23.694522,-7.86297 0.162229,0.006 2.800757,14.64837 6.307399,35.00193 3.315679,19.24513 6.092322,35.31857 6.170322,35.71875 0.168873,0.8664 0.237164,0.86461 -2.467023,0.0647 z m 14.195382,-28.24462 c -9.962115,-13.27778 -18.109916,-24.32002 -18.106225,-24.5383 0.01066,-0.63069 44.066316,-64.326097 44.431936,-64.239436 0.37383,0.08861 27.61256,22.223186 27.62814,22.451016 0.006,0.0814 -0.9014,0.0504 -2.0155,-0.069 -1.1141,-0.11936 -2.05251,-0.18598 -2.08537,-0.14804 -0.0329,0.0379 1.65258,2.26106 3.74542,4.94026 2.09284,2.67919 3.80516,4.90788 3.80516,4.95263 0,0.0448 -0.14883,0.0279 -0.33073,-0.0374 -1.25122,-0.4493 -8.49118,-2.24341 -8.60277,-2.13182 -0.0762,0.0762 1.02535,1.39559 2.44798,2.93188 1.42264,1.53629 2.52848,2.85138 2.45744,2.92242 -0.071,0.071 -7.35681,-2.30738 -16.19059,-5.28539 l -16.06142,-5.41457 0.72746,1.24132 c 0.4001,0.68273 5.05239,8.55213 10.33841,17.48757 5.28602,8.93544 9.56339,16.29382 9.50527,16.35194 -0.0581,0.0581 -8.24528,-0.14609 -18.19368,-0.45381 -9.9484,-0.30772 -18.70984,-0.52234 -19.469874,-0.47693 l -1.381882,0.0825 10.839606,20.88116 c 5.96178,11.48464 10.80282,20.91795 10.75786,20.96292 -0.045,0.045 -1.4277,-0.27887 -3.07275,-0.71962 -1.64505,-0.44075 -3.05313,-0.73922 -3.12909,-0.66327 -0.0759,0.076 0.47386,2.10122 1.2218,4.50061 0.74793,2.39939 1.35988,4.43251 1.35988,4.51805 0,0.0855 -1.19063,-0.80867 -2.64583,-1.98714 -1.45521,-1.17847 -2.64584,-2.07963 -2.64584,-2.00257 0,0.0771 0.71398,1.77955 1.58661,3.78332 1.55195,3.56362 1.79193,4.30652 1.38995,4.30286 -0.10914,-0.001 -8.349255,-10.86545 -18.311371,-24.14323 z m 43.975961,16.57369 -6.15156,-5.96945 V 170.66852 156.25177 L 140.0773,136.4285 c 8.37804,-10.9028 15.2539,-19.83629 15.27969,-19.8522 0.0957,-0.059 42.38257,-0.97487 42.44221,-0.91919 0.0341,0.0318 -0.23318,9.09857 -0.59396,20.14831 -0.36077,11.04974 -0.65656,20.40562 -0.6573,20.79085 -0.001,0.58368 -2.99194,3.51961 -17.94529,17.61599 l -17.94395,16.91557 -11.35866,2.83333 c -6.24726,1.55834 -11.53725,2.88501 -11.75554,2.94817 -0.24685,0.0714 -2.72219,-2.14164 -6.54843,-5.85461 z m 30.70722,-12.04468 c 3.52032,-1.47548 6.50303,-2.7745 6.62824,-2.88671 0.26737,-0.23962 -5.65866,-11.62607 -6.04848,-11.62172 -0.14553,0.002 -1.71408,0.64325 -3.48567,1.42584 l -3.22108,1.4229 -2.71574,-1.00195 -2.71573,-1.00195 -1.80218,-3.59698 -1.80217,-3.59699 -1.25684,0.49012 c -0.69127,0.26956 -2.48911,0.95244 -3.99521,1.51752 l -2.73836,1.0274 -1.54334,3.06934 -1.54335,3.06933 1.60357,5.13275 c 0.88197,2.82302 1.68913,5.22759 1.79371,5.3435 0.10458,0.11591 1.70176,0.0158 3.54931,-0.22242 1.84754,-0.23824 3.51647,-0.3728 3.70872,-0.29903 0.19226,0.0738 0.87179,1.03159 1.51008,2.12847 1.31689,2.26305 1.13663,2.18341 5.07869,2.24363 l 2.59523,0.0396 z m 21.25354,-28.73658 c 1.32891,-1.75317 1.35596,-1.82577 1.4742,-3.95713 l 0.12045,-2.1712 -2.39705,-0.56276 -2.39705,-0.56276 -1.81626,0.87865 c -1.81178,0.87648 -1.81588,0.88095 -1.66248,1.80792 0.0846,0.51109 0.15542,1.52457 0.15741,2.25218 l 0.004,1.32291 2.44669,1.38533 c 1.34568,0.76193 2.50745,1.38701 2.58171,1.38906 0.0742,0.002 0.7442,-0.79993 1.48877,-1.7822 z m -18.10023,-9.23354 c 1.26994,-0.23243 2.48305,-0.5568 2.69581,-0.72083 0.21276,-0.16403 0.98568,-1.80883 1.71759,-3.65511 l 1.33075,-3.35688 -1.35519,-2.86083 c -0.74535,-1.57346 -1.37454,-2.88853 -1.39819,-2.92239 -0.10726,-0.15355 -8.38592,1.45473 -8.59918,1.67055 -0.13212,0.1337 -0.95727,1.76418 -1.83366,3.62327 l -1.59345,3.38018 2.56952,2.76304 c 2.35157,2.52867 2.63686,2.75196 3.36328,2.63232 0.43656,-0.0719 1.83279,-0.32089 3.10272,-0.55332 z"
       id="path931"
       inkscape:label="teal"
       sodipodi:nodetypes="sssssssscsssssssssscccccccccsscsssscsscscsscsssscssssccssscssssssccscccsssscscssssscscccccsscccsssssscscscccssccssccssscsssscsss" /><path
       style="display:inline;fill:#fdca00;stroke-width:0.264583"
       d="m 172.6018,107.0245 -9.78959,-3.44439 -11.87226,-15.293654 -11.87226,-15.293652 -6.44655,-14.834582 -6.44655,-14.834582 8.36719,-12.770141 c 4.60195,-7.023576 8.70225,-13.259485 9.11176,-13.857573 l 0.74457,-1.087429 16.33635,4.058991 c 8.98499,2.232446 16.4795,4.210071 16.65447,4.394721 1.07423,1.133695 22.71497,31.967874 22.89053,32.614899 0.55887,2.059771 5.00995,23.552068 4.94265,23.865848 -0.0874,0.407361 -22.49601,29.967384 -22.69844,29.942324 -0.0728,-0.009 -4.5376,-1.56637 -9.92187,-3.46078 z m 9.21741,-18.266662 c 2.69444,-1.598584 4.02918,-2.860739 7.27043,-6.875042 0.19154,-0.237228 0.68387,-1.897902 1.09406,-3.690382 l 0.7458,-3.259056 -0.82948,-5.007739 c -0.45621,-2.754257 -0.95187,-5.047322 -1.10147,-5.095698 -0.14959,-0.04838 -1.06837,2.645156 -2.0418,5.985883 l -1.76982,6.073841 -1.81981,2.528353 c -1.51605,2.106335 -2.20186,2.793199 -4.10876,4.115086 l -2.28897,1.586733 h -4.84379 c -4.8356,0 -4.84844,-0.0016 -7.5936,-0.926042 -1.51239,-0.509323 -2.84547,-0.926042 -2.9624,-0.926042 -0.62948,0 0.13941,0.777563 3.51167,3.551309 l 3.72425,3.063275 1.50127,0.03108 c 0.82569,0.01709 2.69188,0.116527 4.14709,0.220966 4.78316,0.343289 4.32096,0.42967 7.36533,-1.376523 z m -29.95209,-31.628239 2.28407,-1.510824 -0.69657,-1.984375 -0.69657,-1.984375 -2.11667,-0.558162 -2.11667,-0.558163 -1.32291,0.933477 c -1.82417,1.287169 -1.98438,1.541264 -1.98438,3.147335 v 1.408136 l 2.05052,1.31472 c 1.12779,0.723096 2.11005,1.312095 2.18281,1.308889 0.0728,-0.0032 1.16013,-0.685705 2.41637,-1.516658 z m 20.10464,-10.162958 1.20892,-2.434426 -1.74465,-2.854373 -1.74465,-2.854373 -2.17599,-0.0029 -2.17599,-0.0029 -1.60459,2.386375 c -0.88253,1.312506 -1.66873,2.55351 -1.74712,2.757784 -0.18477,0.48151 2.91358,5.09514 3.52936,5.255414 0.25859,0.06731 1.54468,0.136189 2.85798,0.153069 l 2.38781,0.03069 1.20892,-2.434426 z M 8.9459274,104.50055 C 8.939842,104.10036 9.3827544,89.232712 9.9301985,71.461319 L 10.92555,39.149695 14.902217,34.99625 18.878883,30.842805 34.357007,42.459564 c 8.512969,6.389217 15.508936,11.543959 15.546591,11.454982 0.03766,-0.08898 1.364779,-10.49483 2.949162,-23.124115 1.584381,-12.629287 2.952557,-23.0342016 3.040388,-23.1220326 0.341739,-0.3417412 0.491265,0.324141 1.241219,5.5274766 0.426574,2.959677 0.808519,5.483415 0.848765,5.608307 0.04025,0.124888 0.899953,-0.983525 1.910463,-2.463144 1.010508,-1.479622 1.886424,-2.542813 1.946476,-2.36265 0.06005,0.180163 0.369763,1.466694 0.688242,2.858955 l 0.579052,2.531385 2.071121,-3.109753 c 1.139118,-1.710362 2.133052,-3.04782 2.208744,-2.972128 0.149453,0.149452 2.987955,80.777884 2.884075,81.923009 C 70.213258,95.849748 68.42101,94.494544 48.512215,78.756791 36.579507,69.324075 26.741831,61.687933 26.650711,61.787586 c -0.09112,0.09966 -3.706114,9.170408 -8.033324,20.157231 -4.32721,10.986823 -8.164618,20.720183 -8.527571,21.629683 -0.7049105,1.76641 -1.1258996,2.10722 -1.1438886,0.92605 z M 78.796277,101.60574 C 78.790377,100.17833 78.208122,78.650754 77.50238,53.766692 76.796636,28.882629 76.295446,8.4503215 76.388627,8.3615644 c 0.09318,-0.088757 11.658952,-3.946533 25.701713,-8.57283633 14.04276,-4.62630307 25.68112,-8.46571897 25.86302,-8.53203487 0.1819,-0.066316 0.32791,0.040992 0.32447,0.2384618 -0.003,0.1974702 -1.73185,1.5940339 -3.8409,3.1034749 -2.10906,1.5094411 -3.89921,2.8488942 -3.97811,2.9765625 -0.0789,0.1276684 1.04716,0.2321243 2.50237,0.2321243 1.45521,0 2.71248,0.107841 2.79394,0.2396469 0.0815,0.1318056 -2.13866,2.0665712 -4.9336,4.2994786 -3.57428,2.8555315 -4.92821,4.0792294 -4.56426,4.1252166 0.28459,0.035962 2.9329,-0.2096611 5.88513,-0.5458274 4.53653,-0.5165699 5.35591,-0.5523098 5.29166,-0.2308146 -0.0418,0.2092193 -8.24947,5.7531212 -18.23926,12.3197862 -9.989787,6.566664 -18.074371,11.973041 -17.965747,12.014173 0.108625,0.04113 9.223217,-0.589814 20.254647,-1.402106 11.03143,-0.81229 20.27439,-1.441257 20.53991,-1.397701 0.30676,0.05032 -6.95496,5.529233 -19.91821,15.028148 -11.22053,8.221927 -20.498186,15.011355 -20.61701,15.087618 -0.218189,0.140036 0.626007,9.420469 0.880044,9.674503 0.07537,0.07537 6.778011,-1.064236 14.894756,-2.532459 8.44647,-1.527863 14.85686,-2.570367 14.98952,-2.437705 0.13267,0.132663 -1.36956,1.405446 -3.51267,2.976171 -2.05945,1.509411 -3.625,2.784203 -3.47899,2.832873 0.14601,0.04867 1.05972,-0.09571 2.03047,-0.320839 2.02291,-0.469146 2.79049,-0.514001 2.79049,-0.163071 0,0.135441 -0.89507,0.986626 -1.98903,1.891525 -1.09397,0.904896 -1.95328,1.68102 -1.90959,1.724713 0.0437,0.0437 1.68186,-0.155845 3.64038,-0.443421 1.95851,-0.287578 3.72834,-0.489905 3.93296,-0.449617 0.28218,0.05556 -43.009317,32.954332 -44.618995,33.907582 -0.255143,0.15109 -0.333181,-0.39729 -0.341458,-2.39945 z"
       id="path933"
       inkscape:label="yellow" /></g></svg>
