<?xml version="1.0" encoding="UTF-8" standalone="no"?>
<!-- Created with Inkscape (http://www.inkscape.org/) -->

<svg
   version="1.1"
   id="svg2"
   width="256"
   height="256"
   viewBox="0 0 256 256"
   xmlns="http://www.w3.org/2000/svg"
   xmlns:svg="http://www.w3.org/2000/svg">
  <defs
     id="defs6" />
  <g
     id="layer2"
     style="display:inline"
     transform="matrix(1.9999994,0,0,1.9999994,-1134.0391,-1117.9997)">
    <path
       style="display:inline;fill:#d0011b;fill-opacity:1;stroke:none;stroke-width:0.10143"
       d="m 589.77631,686.01309 c 0.43073,-1.41967 3.22476,-12.49377 4.56159,-18.07981 6.11,-25.53093 9.78047,-45.99904 10.98615,-61.26343 0.26094,-3.30365 0.26227,-11.1875 0.002,-13.28727 -0.53083,-4.28644 -1.3802,-6.69053 -2.90617,-8.22572 -1.11132,-1.11804 -1.51158,-1.26034 -3.50462,-1.24601 -3.14282,0.0226 -6.29004,1.02346 -9.17331,2.91724 -1.42226,0.93416 -2.3322,1.70285 -3.81306,3.22119 -1.95844,2.00799 -3.36579,3.90081 -4.98024,6.69817 -1.94563,3.3712 -3.83488,7.97858 -4.94208,12.05242 l -0.34459,1.26787 -4.2978,0.0515 c -2.36378,0.0283 -4.31321,0.0433 -4.33205,0.0334 -0.0749,-0.0396 0.20591,-3.41724 0.39795,-4.78658 2.0528,-14.63803 12.14383,-31.9298 23.05687,-39.50976 4.30302,-2.98879 9.15937,-4.94035 13.54802,-5.44438 1.42653,-0.16384 4.11038,-0.0666 5.38864,0.19532 6.2546,1.28137 10.70143,6.01894 13.36853,14.24258 1.35794,4.18703 2.20317,9.39897 2.54493,15.69279 0.24893,4.58429 0.0645,14.36611 -0.36666,19.44973 l -0.0624,0.73598 8.03759,-0.026 8.03758,-0.026 0.93987,-4.66575 c 1.52528,-7.57189 2.70871,-12.82021 4.66571,-20.69163 2.07129,-8.33111 4.80564,-18.27626 6.69993,-24.36844 l 0.3548,-1.14108 h 9.27732 c 5.10252,0 9.27731,0.0231 9.27731,0.0514 0,0.0282 -0.34377,1.36332 -0.76392,2.96682 -5.61597,21.43293 -10.51606,44.4297 -12.97268,60.88242 -1.81234,12.13783 -2.47783,22.51207 -1.83485,28.60312 0.67474,6.39189 2.46398,9.58426 5.54659,9.89628 0.76595,0.0775 2.60148,-0.0918 3.93908,-0.36329 7.30517,-1.48293 13.50483,-7.82678 17.64734,-18.05779 0.82307,-2.03279 1.64829,-4.55882 2.1106,-6.46066 l 0.37582,-1.54605 4.38683,-7.1e-4 4.38683,-7.1e-4 v 0.78608 c 0,1.70399 -0.47552,4.76759 -1.16831,7.53114 -2.52473,10.07127 -8.0822,21.1477 -14.45432,28.80848 -4.99158,6.00106 -12.0186,10.64574 -18.62526,12.31082 -2.09164,0.52716 -2.79189,0.60996 -5.15736,0.60981 -1.92642,0 -2.37356,-0.031 -3.27111,-0.22564 -8.59549,-1.86441 -13.64246,-10.58895 -14.98246,-25.89957 -0.29498,-3.37035 -0.38776,-6.98767 -0.32608,-12.71324 0.0736,-6.8288 0.34102,-12.276 0.83168,-16.93873 0.0822,-0.78101 0.14952,-1.52271 0.14963,-1.64823 l 2e-4,-0.22821 h -7.60123 c -4.18067,0 -7.62378,0.0365 -7.65134,0.0811 -0.0276,0.0446 -0.30165,1.56223 -0.6091,3.37253 -2.92417,17.21807 -7.64601,35.96511 -13.57068,53.87942 l -0.22643,0.68465 h -9.31767 c -8.82687,0 -9.31484,-0.009 -9.26382,-0.1775 z"
       id="path2582" />
  </g>
</svg>
