<?xml version="1.0" encoding="UTF-8" standalone="no"?>
<!-- Created with Inkscape (http://www.inkscape.org/) -->

<svg
   version="1.1"
   id="svg7908"
   width="256"
   height="256"
   viewBox="0 0 256 256"
   xmlns="http://www.w3.org/2000/svg"
   xmlns:svg="http://www.w3.org/2000/svg">
  <defs
     id="defs7912" />
  <g
     id="g7914"
     transform="translate(-33.359917,-56.708484)">
    <path
       style="display:inline;fill:#010101;stroke-width:0.222118"
       d="m 148.02625,298.24835 c -19.29952,-8.11787 -39.43801,-16.47158 -44.75218,-18.5638 -5.314178,-2.09221 -9.695801,-3.83004 -9.736941,-3.86185 -0.101387,-0.0784 -0.302886,-4.99765 -1.591452,-38.85293 C 90.611388,201.9132 88.23788,139.90462 87.169909,112.20146 86.742659,101.11859 86.394859,91.273203 86.397021,90.322822 l 0.0039,-1.727963 4.938198,-2.207997 c 2.716039,-1.214399 17.982111,-8.388834 33.924641,-15.943188 l 28.98641,-13.735191 2.11013,0.443613 c 1.95647,0.411311 24.18642,5.056793 45.31209,9.469048 4.94768,1.03336 9.52054,1.993163 10.16191,2.132894 l 1.16612,0.254058 v 13.619799 13.619797 l -0.49977,0.312346 c -0.27487,0.171788 -3.7856,1.747422 -7.80162,3.501412 -4.01602,1.75398 -7.3503,3.31531 -7.40951,3.46961 -0.0592,0.15429 1.00809,6.00249 2.37179,12.99598 5.40584,27.72312 7.61024,39.03564 8.07624,41.44571 l 0.48733,2.52034 14.04897,4.01688 14.04897,4.01687 -6.7e-4,4.67975 -4.4e-4,4.67976 -7.20367,6.40106 c -3.96201,3.52058 -7.32388,6.54591 -7.47082,6.72295 -0.19161,0.23087 -0.56764,8.1176 -1.32976,27.88985 l -1.06261,27.56796 5.64646,8.63975 5.64644,8.63976 v 4.27528 4.27529 l -23.22871,19.98478 c -12.7758,10.99163 -23.44787,20.15136 -23.71573,20.35495 -0.47077,0.35779 -1.65815,-0.12248 -35.57706,-14.38963 z m 30.32374,5.91902 v -1.99222 l -1.62661,-2.39461 c -0.89464,-1.31705 -4.16315,-6.14203 -7.26336,-10.72218 l -5.63676,-8.32754 0.39939,-10.66356 c 0.21966,-5.86496 0.82496,-21.73031 1.3451,-35.25634 l 0.94571,-24.59278 4.75214,-4.60852 c 2.61369,-2.53469 5.97658,-5.8061 7.4731,-7.26979 l 2.72094,-2.66127 v -3.93864 -3.93865 l -12.6052,-4.14146 c -6.93286,-2.2778 -13.90459,-4.56615 -15.49274,-5.0852 l -2.88753,-0.94374 -8.37681,-38.52082 c -4.60724,-21.18645 -8.35549,-38.6589 -8.32943,-38.82769 0.0269,-0.17414 4.22663,-2.15479 9.70952,-4.579126 l 9.66213,-4.272255 0.0778,-1.307001 c 0.0758,-1.273804 -0.40647,-28.129066 -0.5071,-28.238166 -0.0651,-0.07061 -55.93227,24.979562 -59.791219,26.809682 l -2.914071,1.382008 0.09492,1.924096 c 0.0522,1.058253 1.587723,40.905822 3.412265,88.550162 1.824541,47.64435 3.382902,88.14505 3.463022,90.00157 l 0.145673,3.3755 6.35285,2.70503 c 7.82832,3.3333 6.55597,2.82478 41.89176,16.7425 16.0036,6.30336 29.79714,11.74974 30.65229,12.10306 2.39139,0.9881 2.33224,1.02136 2.33224,-1.31205 z M 173.50744,160.9899 c 9.3214,-2.26857 18.52994,-4.50854 20.46343,-4.97773 1.9335,-0.46918 3.56054,-0.89815 3.61565,-0.95326 0.10622,-0.10622 -8.54189,-47.90626 -8.71924,-48.19322 -0.0572,-0.0925 -9.89346,-0.1682 -21.85843,-0.1682 -20.82041,0 -21.75446,0.0172 -21.75446,0.40079 0,0.48041 -0.0474,0.2341 9.87459,51.35273 0.67578,3.4817 1.22929,6.40533 1.23001,6.49695 6.7e-4,0.0916 0.0461,0.16659 0.10088,0.16659 0.0548,0 7.72618,-1.85609 17.04757,-4.12465 z"
       id="path8035" />
  </g>
</svg>
