<?xml version="1.0" encoding="UTF-8" standalone="no"?>
<!-- Created with Inkscape (http://www.inkscape.org/) -->

<svg
   version="1.1"
   id="svg2"
   width="480.00085"
   height="113.57386"
   viewBox="0 0 480.00085 113.57386"
   xmlns="http://www.w3.org/2000/svg"
   xmlns:svg="http://www.w3.org/2000/svg">
  <defs
     id="defs6" />
  <g
     id="g8"
     transform="translate(-2104.8977,-519.97685)">
    <path
       style="fill:#000000;stroke-width:0.138143"
       d="m 2324.4286,633.45433 c -10.5788,-1.0478 -19.3197,-5.13821 -26.6123,-12.45358 -8.5308,-8.55745 -13.8505,-20.18919 -15.5927,-34.09374 -0.428,-3.41637 -0.5508,-5.2034 -0.6408,-9.32467 -0.2227,-10.20873 1.1767,-18.88963 4.3309,-26.86512 3.4125,-8.62863 8.9317,-16.20407 15.8594,-21.76813 2.7918,-2.24223 7.3684,-4.8676 10.8006,-6.19573 2.9469,-1.14032 6.5582,-2.02181 10.3353,-2.52275 2.5567,-0.33909 9.0338,-0.33826 11.8113,0.002 3.0972,0.37889 7.4565,1.30225 8.3136,1.76095 0.2401,0.12852 0.2512,0.70031 0.2512,12.92397 v 12.78949 l -0.3108,-0.066 c -0.1709,-0.0363 -1.2433,-0.32524 -2.3829,-0.64215 -4.1382,-1.15068 -7.7728,-1.62699 -11.3789,-1.49123 -5.0814,0.1913 -8.9047,1.92437 -12.6028,5.71271 -4.6523,4.76583 -7.5353,11.28442 -8.4864,19.18782 -0.4851,4.03139 -0.3991,9.852 0.2066,13.97891 1.0914,7.43616 3.7767,13.32528 8.0173,17.58265 3.4716,3.48529 7.6283,5.38639 12.7333,5.82362 3.3879,0.29016 7.4786,-0.25457 11.7181,-1.56037 1.0257,-0.31594 2.0051,-0.60463 2.1764,-0.64154 l 0.3116,-0.0671 -0.035,12.82613 -0.035,12.82614 -2.0077,0.57857 c -2.12,0.61095 -4.51,1.1482 -6.7351,1.51398 -1.5792,0.25961 -8.0842,0.37983 -10.0447,0.18564 z m -219.5268,-2.72064 c 0.1647,-0.56238 28.5437,-107.66292 28.5437,-107.72207 0,-0.0357 6.2097,-0.0649 13.7992,-0.0649 h 13.7992 l 0.2876,1.07061 c 0.7659,2.8512 28.3383,106.87514 28.3383,106.91337 0,0.0242 -5.7386,0.0441 -12.7524,0.0441 h -12.7524 l -2.0438,-8.94479 c -1.124,-4.91962 -2.0718,-8.99139 -2.1061,-9.04838 -0.082,-0.13547 -25.8783,-0.13547 -25.8808,0 0,0.057 -0.9556,4.11322 -2.1212,9.01385 l -2.1191,8.91024 -12.5316,0.0353 c -11.8936,0.0335 -12.528,0.0229 -12.4606,-0.20722 z m 50.3703,-37.36848 c 0,-0.095 -0.4051,-2.00195 -0.9002,-4.23772 -2.897,-13.08216 -5.75,-29.25365 -7.1854,-40.72791 -0.178,-1.42312 -0.3985,-0.81945 -0.8007,2.19202 -1.5752,11.79659 -4.2386,26.81427 -6.9385,39.12379 -0.4138,1.88652 -0.7523,3.51833 -0.7523,3.62626 0,0.16738 1.2191,0.19624 8.2886,0.19624 6.5388,0 8.2885,-0.0364 8.2885,-0.17268 z m 46.8306,-16.41064 v -54.02014 l 16.888,0.0512 c 17.8921,0.0542 17.4681,0.04 21.3777,0.71673 14.4467,2.50076 24.5861,11.81276 27.0046,24.80088 0.6503,3.49265 0.8209,8.38963 0.4049,11.62589 -0.5462,4.24924 -2.3309,9.31058 -4.5196,12.81712 -2.2024,3.52841 -5.3198,6.57261 -8.7697,8.56369 -0.7001,0.40403 -1.2729,0.76411 -1.2729,0.80018 0,0.0361 4.3826,10.96819 9.7391,24.2936 5.3565,13.3254 9.7391,24.26019 9.7391,24.29953 0,0.0393 -5.8279,0.0697 -12.9509,0.0675 l -12.9509,-0.004 -9.8799,-24.54956 c -7.3407,-18.24019 -9.9413,-24.5614 -10.119,-24.59561 -0.226,-0.0435 -0.2391,1.30226 -0.2391,24.55357 v 24.59964 h -12.2257 -12.2257 z m 26.801,-7.6508 c 3.1423,-0.15668 6.3427,-0.94641 8.6328,-2.13021 0.9616,-0.49706 1.5118,-0.90874 2.4283,-1.8169 1.2559,-1.24432 1.7156,-1.94662 2.2574,-3.44882 0.502,-1.3915 0.6854,-2.96058 0.5908,-5.05342 -0.3414,-7.55237 -3.6421,-11.31397 -11.0095,-12.54664 -1.3396,-0.22414 -3.9919,-0.50114 -4.8005,-0.50135 l -0.4489,-10e-5 v 12.75522 c 0,7.01538 0.038,12.79365 0.085,12.84061 0.047,0.047 0.249,0.0603 0.4489,0.0297 0.2,-0.0306 1.0169,-0.0883 1.8153,-0.12808 z m 121.0654,61.42919 c 0.1634,-0.55101 28.5426,-107.6491 28.5426,-107.71472 0,-0.0394 6.2082,-0.0716 13.7961,-0.0716 h 13.7961 l 0.2187,0.79433 c 0.1202,0.43687 6.5352,24.63439 14.2554,53.77226 7.7202,29.13787 14.0683,53.08673 14.1067,53.21969 0.066,0.229 -0.6032,0.24176 -12.6906,0.24176 h -12.7605 l -2.0439,-8.94479 c -1.1241,-4.91962 -2.0724,-8.99139 -2.1073,-9.04838 -0.035,-0.057 -5.8672,-0.1036 -12.9607,-0.1036 h -12.8972 l -0.2155,0.94789 c -0.3463,1.52232 -3.8095,16.0618 -3.9614,16.63084 l -0.1383,0.51804 h -12.5059 c -11.8457,0 -12.5022,-0.0128 -12.4343,-0.24176 z m 50.3692,-37.37674 c 0,-0.0999 -0.2808,-1.43915 -0.624,-2.97607 -3.0839,-13.80959 -5.8751,-29.51616 -7.4601,-41.98057 -0.1806,-1.42009 -0.3999,-0.82101 -0.8022,2.19202 -1.5488,11.59881 -4.1029,26.01709 -6.8681,38.7724 -0.4525,2.08739 -0.8228,3.88044 -0.8228,3.98457 0,0.15823 1.3613,0.18932 8.2886,0.18932 6.7576,0 8.2886,-0.0336 8.2886,-0.18167 z m 46.8306,-16.40363 v -54.02212 l 14.4014,0.0552 c 15.8285,0.0606 15.846,0.0614 20.8942,0.99767 19.5362,3.6231 31.5303,16.48608 35.0127,37.54902 0.8001,4.83958 1.1065,8.88166 1.1096,14.6394 0.01,17.60492 -3.4755,30.09472 -11.0516,39.60724 -1.3777,1.72989 -3.8965,4.27232 -5.5234,5.57524 -5.8493,4.68444 -14.0826,7.94229 -23.07,9.12861 -3.2444,0.42825 -5.6139,0.4908 -18.6148,0.49135 l -13.1581,10e-4 z m 25.7882,30.80874 c 5.5465,-0.73633 9.5249,-2.45186 12.4816,-5.38227 3.6247,-3.59251 5.5782,-9.17942 6.3757,-18.23491 0.2667,-3.02844 0.2253,-11.62518 -0.071,-14.64319 -1.0347,-10.55508 -3.6739,-16.80425 -8.7003,-20.60071 -1.9438,-1.46815 -3.539,-2.07255 -6.6683,-2.52655 -1.8387,-0.26676 -4.497,-0.50031 -4.646,-0.40819 -0.1579,0.0976 -0.1388,61.93928 0.019,61.93928 0.071,0 0.6144,-0.0646 1.2087,-0.14346 z m 62.2091,-30.80063 v -54.01402 h 24.7967 24.7967 v 11.46516 11.46516 l -12.5365,0.0353 -12.5365,0.0353 -0.035,9.91177 -0.035,9.91178 h 10.9142 10.9142 v 11.25868 11.25867 h -10.9133 -10.9133 v 9.80818 9.80817 h 12.6401 12.6401 v 11.53496 11.53497 h -24.8658 -24.8657 z"
       id="path293" />
  </g>
</svg>
