<?xml version="1.0" encoding="UTF-8" standalone="no"?>
<!-- Created with Inkscape (http://www.inkscape.org/) -->

<svg
   version="1.1"
   id="svg2"
   width="256"
   height="256"
   viewBox="0 0 256 256"
   xmlns="http://www.w3.org/2000/svg"
   xmlns:svg="http://www.w3.org/2000/svg">
  <defs
     id="defs6" />
  <g
     id="g293"
     transform="matrix(0.44718234,0,0,0.44718234,-602.15449,79.706812)"
     style="fill:#333333;fill-opacity:1;stroke:none">
    <path
       style="display:inline;fill:#cccccc;fill-opacity:1;stroke:none"
       d="m 1591.5,161.45717 c -68.2,-29.92056 -126.2204,-55.36185 -128.9343,-56.53619 -3.5493,-1.53582 -4.5317,-2.35803 -3.5,-2.92913 2.1472,-1.1886 54.2763,-20.283581 55.4343,-20.3057 0.55,-0.01051 22.2968,9.292891 48.3262,20.67421 l 47.3262,20.69332 22.2392,-8.12418 22.2392,-8.12417 120.4346,52.7443 c 66.239,29.00937 122.2346,53.54638 124.4346,54.5267 3.8725,1.72559 1.004,1.78239 -90,1.78212 l -94,-2.7e-4 z M 1701.3463,49.212051 c -22.0074,-9.639664 -37.6273,-17.012578 -36.91,-17.422197 0.684,-0.39058 20.3179,-7.705601 43.6309,-16.255601 l 42.3873,-15.54545625 84.2857,0.25560163 L 1919.0259,0.5 1829.923,33 c -49.0065,17.875 -89.3999,32.595423 -89.7629,32.712051 -0.3631,0.116628 -17.8293,-7.308372 -38.8138,-16.5 z"
       id="path297" />
    <path
       style="display:inline;fill:#999999;fill-opacity:1;stroke:none"
       d="m 1346.5592,215.40133 c 0.5825,-0.24243 41.0004,-15.01388 89.8175,-32.82544 l 88.7583,-32.38467 37.9449,16.59198 c 20.8697,9.12559 37.6018,16.89688 37.1825,17.26954 -0.4193,0.37265 -19.9812,7.71324 -43.4709,16.31241 L 1514.083,216 l -84.2915,-0.0789 c -46.3603,-0.0434 -83.8149,-0.27729 -83.2323,-0.51972 z m 354.9969,-102.00363 -46.9439,-20.55604 -22.1913,8.14326 -22.1912,8.14326 L 1486.1915,54.814092 1362.1533,0.5 l 93.0417,-0.25517272 93.0418,-0.25517271 46.6316,20.40465043 c 132.5787,58.012643 209.7686,91.870095 210.9523,92.529045 1.3043,0.72617 -52.7618,21.12602 -55.8207,21.06186 -0.825,-0.0173 -22.6248,-9.28168 -48.4439,-20.58751 z"
       id="path295" />
  </g>
</svg>
