<?xml version="1.0" encoding="UTF-8" standalone="no"?>
<!-- Created with Inkscape (http://www.inkscape.org/) -->

<svg
   version="1.1"
   id="svg2"
   width="480"
   height="54.032215"
   viewBox="0 0 480 54.032215"
   xmlns="http://www.w3.org/2000/svg"
   xmlns:svg="http://www.w3.org/2000/svg">
  <defs
     id="defs6" />
  <g
     id="g293"
     transform="matrix(0.2501269,0,0,0.2501269,0,0.00480563)"
     style="stroke:none;fill:#333333;fill-opacity:1">
    <path
       style="display:inline;fill:#cccccc;stroke:none;fill-opacity:1"
       d="m 0,193 v -23 h 155 155 v 23 23 H 155 0 Z M 486.23595,184.32014 486.5,152.64028 589.5,86.301443 C 646.15,49.815085 699.51657,15.466699 708.09237,9.9716983 L 723.68475,-0.01921275 772.58746,0.24039363 821.49018,0.5 715.74509,73.910599 610,147.3212 V 181.6606 216 h -62.01405 -62.01404 z m 387.94279,-63.73726 c 0.17669,-52.47942 0.60463,-95.700294 0.95098,-96.046389 0.34634,-0.346094 30.15884,18.390654 66.25,41.637218 L 1007,108.44019 V 162.2201 216 H 940.42874 873.85747 Z M 1044.0524,108.25 876.71765,0.5 934.78897,0.24197154 992.8603,-0.01605691 1105.6801,75.066823 1218.5,150.1497 1218.7563,75.074852 1219.0127,0 H 1250.0063 1281 v 108 108 h -34.8064 -34.8065 z M 1591.5,161.45717 c -68.2,-29.92056 -126.2204,-55.36185 -128.9343,-56.53619 -3.5493,-1.53582 -4.5317,-2.35803 -3.5,-2.92913 2.1472,-1.1886 54.2763,-20.283581 55.4343,-20.3057 0.55,-0.01051 22.2968,9.292891 48.3262,20.67421 l 47.3262,20.69332 22.2392,-8.12418 22.2392,-8.12417 120.4346,52.7443 c 66.239,29.00937 122.2346,53.54638 124.4346,54.5267 3.8725,1.72559 1.004,1.78239 -90,1.78212 l -94,-2.7e-4 z M 1,76 V 0 h 61 61 v 76 76 H 62 1 Z M 374.52768,69.039665 C 320.70989,31.623615 276.44979,0.78312392 276.17191,0.50524124 275.89403,0.22735856 314.32917,0.01685815 361.58333,0.03746255 L 447.5,0.07492509 502.25838,41.463401 l 54.75838,41.388476 -2.75838,1.943 c -4.77405,3.362833 -79.62285,51.407753 -80.77876,51.851313 -0.60578,0.23246 -45.13416,-30.19047 -98.95194,-67.606525 z M 1701.3463,49.212051 c -22.0074,-9.639664 -37.6273,-17.012578 -36.91,-17.422197 0.684,-0.39058 20.3179,-7.705601 43.6309,-16.255601 l 42.3873,-15.54545625 84.2857,0.25560163 L 1919.0259,0.5 1829.923,33 c -49.0065,17.875 -89.3999,32.595423 -89.7629,32.712051 -0.3631,0.116628 -17.8293,-7.308372 -38.8138,-16.5 z"
       id="path297" />
    <path
       style="display:inline;fill:#999999;stroke:none;fill-opacity:1"
       d="m 1346.5592,215.40133 c 0.5825,-0.24243 41.0004,-15.01388 89.8175,-32.82544 l 88.7583,-32.38467 37.9449,16.59198 c 20.8697,9.12559 37.6018,16.89688 37.1825,17.26954 -0.4193,0.37265 -19.9812,7.71324 -43.4709,16.31241 L 1514.083,216 l -84.2915,-0.0789 c -46.3603,-0.0434 -83.8149,-0.27729 -83.2323,-0.51972 z m 354.9969,-102.00363 -46.9439,-20.55604 -22.1913,8.14326 -22.1912,8.14326 L 1486.1915,54.814092 1362.1533,0.5 l 93.0417,-0.25517272 93.0418,-0.25517271 46.6316,20.40465043 c 132.5787,58.012643 209.7686,91.870095 210.9523,92.529045 1.3043,0.72617 -52.7618,21.12602 -55.8207,21.06186 -0.825,-0.0173 -22.6248,-9.28168 -48.4439,-20.58751 z"
       id="path295" />
  </g>
</svg>
