<?xml version="1.0" encoding="UTF-8" standalone="no"?>
<!-- Created with Inkscape (http://www.inkscape.org/) -->

<svg
   width="480"
   height="82.785233"
   id="svg4237"
   version="1.0"
   xmlns="http://www.w3.org/2000/svg"
   xmlns:svg="http://www.w3.org/2000/svg"
   xmlns:rdf="http://www.w3.org/1999/02/22-rdf-syntax-ns#"
   xmlns:cc="http://creativecommons.org/ns#"
   xmlns:dc="http://purl.org/dc/elements/1.1/">
  <defs
     id="defs4239">
    <clipPath
       clip-rule="nonzero"
       id="clp2">
      <path
         id="path5264"
         d="M 234.2,0.1382 H 5879.3 V 7919 H 234.2 Z" />
    </clipPath>
    <clipPath
       clip-rule="nonzero"
       id="clp3">
      <path
         id="path5273"
         d="M 234.06,0 H 5879.3 V 7919 H 234.06 Z" />
    </clipPath>
    <clipPath
       clip-rule="nonzero"
       id="clp4">
      <path
         id="path5282"
         d="M 437.5,278.39 H 1028 V 456.94 H 437.5 Z" />
    </clipPath>
    <clipPath
       clip-rule="nonzero"
       id="clp5">
      <path
         id="path5291"
         d="M 234.06,0 H 5879.3 V 7919 H 234.06 Z" />
    </clipPath>
    <clipPath
       clip-rule="nonzero"
       id="clp6">
      <path
         id="path5330"
         d="M 437.5,278.39 H 1028 V 456.94 H 437.5 Z" />
    </clipPath>
    <clipPath
       clip-rule="nonzero"
       id="clp7">
      <path
         id="path5341"
         d="M 234.06,0 H 5879.3 V 7919 H 234.06 Z" />
    </clipPath>
    <clipPath
       clip-rule="nonzero"
       id="clp8">
      <path
         id="path5418"
         d="m 4026.3,282.71 h 699.8 v 170.38 h -699.8 z" />
    </clipPath>
    <clipPath
       clip-rule="nonzero"
       id="clp9">
      <path
         id="path5427"
         d="M 234.06,0 H 5879.3 V 7919 H 234.06 Z" />
    </clipPath>
    <clipPath
       clip-rule="nonzero"
       id="clp10">
      <path
         id="path5476"
         d="M 2444.9,428.65 V 306.69 h 506 v 121.96" />
    </clipPath>
    <clipPath
       clip-rule="nonzero"
       id="clp11">
      <path
         id="path5485"
         d="M 234.06,0 H 5879.3 V 7919 H 234.06 Z" />
    </clipPath>
    <clipPath
       clip-rule="nonzero"
       id="clp12">
      <path
         id="path5496"
         d="M 2444.9,428.65 V 306.69 h 506 v 121.96" />
    </clipPath>
    <clipPath
       clip-rule="nonzero"
       id="clp13">
      <path
         id="path5505"
         d="M 234.06,0 H 5879.3 V 7919 H 234.06 Z" />
    </clipPath>
    <clipPath
       clip-rule="nonzero"
       id="clp14">
      <path
         id="path5514"
         d="M 2444.9,428.65 V 306.69 h 506 v 121.96" />
    </clipPath>
    <clipPath
       clip-rule="nonzero"
       id="clp15">
      <path
         id="path5523"
         d="M 234.06,0 H 5879.3 V 7919 H 234.06 Z" />
    </clipPath>
    <clipPath
       clip-rule="nonzero"
       id="clipPath5767">
      <path
         id="path5769"
         d="M 234.2,0.1382 H 5879.3 V 7919 H 234.2 Z" />
    </clipPath>
    <clipPath
       clip-rule="nonzero"
       id="clipPath5775">
      <path
         id="path5777"
         d="M 234.06,0 H 5879.3 V 7919 H 234.06 Z" />
    </clipPath>
    <clipPath
       clip-rule="nonzero"
       id="clipPath5783">
      <path
         id="path5785"
         d="M 437.5,278.39 H 1028 V 456.94 H 437.5 Z" />
    </clipPath>
    <clipPath
       clip-rule="nonzero"
       id="clipPath5791">
      <path
         id="path5793"
         d="M 234.06,0 H 5879.3 V 7919 H 234.06 Z" />
    </clipPath>
    <clipPath
       clip-rule="nonzero"
       id="clipPath5814">
      <path
         id="path5816"
         d="M 437.5,278.39 H 1028 V 456.94 H 437.5 Z" />
    </clipPath>
    <clipPath
       clip-rule="nonzero"
       id="clipPath5823">
      <path
         id="path5825"
         d="M 234.06,0 H 5879.3 V 7919 H 234.06 Z" />
    </clipPath>
    <clipPath
       clip-rule="nonzero"
       id="clipPath5865">
      <path
         id="path5867"
         d="m 4026.3,282.71 h 699.8 v 170.38 h -699.8 z" />
    </clipPath>
    <clipPath
       clip-rule="nonzero"
       id="clipPath5873">
      <path
         id="path5875"
         d="M 234.06,0 H 5879.3 V 7919 H 234.06 Z" />
    </clipPath>
    <clipPath
       clip-rule="nonzero"
       id="clipPath5901">
      <path
         id="path5903"
         d="M 2444.9,428.65 V 306.69 h 506 v 121.96" />
    </clipPath>
    <clipPath
       clip-rule="nonzero"
       id="clipPath5909">
      <path
         id="path5911"
         d="M 234.06,0 H 5879.3 V 7919 H 234.06 Z" />
    </clipPath>
    <clipPath
       clip-rule="nonzero"
       id="clipPath5918">
      <path
         id="path5920"
         d="M 2444.9,428.65 V 306.69 h 506 v 121.96" />
    </clipPath>
    <clipPath
       clip-rule="nonzero"
       id="clipPath5926">
      <path
         id="path5928"
         d="M 234.06,0 H 5879.3 V 7919 H 234.06 Z" />
    </clipPath>
    <clipPath
       clip-rule="nonzero"
       id="clipPath5934">
      <path
         id="path5936"
         d="M 2444.9,428.65 V 306.69 h 506 v 121.96" />
    </clipPath>
    <clipPath
       clip-rule="nonzero"
       id="clipPath5942">
      <path
         id="path5944"
         d="M 234.06,0 H 5879.3 V 7919 H 234.06 Z" />
    </clipPath>
    <clipPath
       id="clipPath14221"
       clip-rule="nonzero">
      <path
         d="M 234.06,0 H 5879.3 V 7919 H 234.06 Z"
         id="path14223" />
    </clipPath>
    <clipPath
       id="clipPath14217"
       clip-rule="nonzero">
      <path
         d="M 2444.9,428.65 V 306.69 h 506 v 121.96"
         id="path14219" />
    </clipPath>
    <clipPath
       id="clipPath14213"
       clip-rule="nonzero">
      <path
         d="M 234.06,0 H 5879.3 V 7919 H 234.06 Z"
         id="path14215" />
    </clipPath>
    <clipPath
       id="clipPath14209"
       clip-rule="nonzero">
      <path
         d="M 2444.9,428.65 V 306.69 h 506 v 121.96"
         id="path14211" />
    </clipPath>
    <clipPath
       id="clipPath14205"
       clip-rule="nonzero">
      <path
         d="M 234.06,0 H 5879.3 V 7919 H 234.06 Z"
         id="path14207" />
    </clipPath>
    <clipPath
       id="clipPath14201"
       clip-rule="nonzero">
      <path
         d="M 2444.9,428.65 V 306.69 h 506 v 121.96"
         id="path14203" />
    </clipPath>
    <clipPath
       id="clipPath14197"
       clip-rule="nonzero">
      <path
         d="M 234.06,0 H 5879.3 V 7919 H 234.06 Z"
         id="path14199" />
    </clipPath>
    <clipPath
       id="clipPath14193"
       clip-rule="nonzero">
      <path
         d="m 4026.3,282.71 h 699.8 v 170.38 h -699.8 z"
         id="path14195" />
    </clipPath>
    <clipPath
       id="clipPath14189"
       clip-rule="nonzero">
      <path
         d="M 234.06,0 H 5879.3 V 7919 H 234.06 Z"
         id="path14191" />
    </clipPath>
    <clipPath
       id="clipPath14185"
       clip-rule="nonzero">
      <path
         d="M 437.5,278.39 H 1028 V 456.94 H 437.5 Z"
         id="path14187" />
    </clipPath>
    <clipPath
       id="clipPath14181"
       clip-rule="nonzero">
      <path
         d="M 234.06,0 H 5879.3 V 7919 H 234.06 Z"
         id="path14183" />
    </clipPath>
    <clipPath
       id="clipPath14177"
       clip-rule="nonzero">
      <path
         d="M 437.5,278.39 H 1028 V 456.94 H 437.5 Z"
         id="path14179" />
    </clipPath>
    <clipPath
       id="clipPath14173"
       clip-rule="nonzero">
      <path
         d="M 234.06,0 H 5879.3 V 7919 H 234.06 Z"
         id="path14175" />
    </clipPath>
    <clipPath
       id="clipPath14169"
       clip-rule="nonzero">
      <path
         d="M 234.2,0.1382 H 5879.3 V 7919 H 234.2 Z"
         id="path14171" />
    </clipPath>
    <clipPath
       id="clipPath14165"
       clip-rule="nonzero">
      <path
         d="M 234.06,0 H 5879.3 V 7919 H 234.06 Z"
         id="path14167" />
    </clipPath>
    <clipPath
       id="clipPath14161"
       clip-rule="nonzero">
      <path
         d="M 2444.9,428.65 V 306.69 h 506 v 121.96"
         id="path14163" />
    </clipPath>
    <clipPath
       id="clipPath14157"
       clip-rule="nonzero">
      <path
         d="M 234.06,0 H 5879.3 V 7919 H 234.06 Z"
         id="path14159" />
    </clipPath>
    <clipPath
       id="clipPath14153"
       clip-rule="nonzero">
      <path
         d="M 2444.9,428.65 V 306.69 h 506 v 121.96"
         id="path14155" />
    </clipPath>
    <clipPath
       id="clipPath14149"
       clip-rule="nonzero">
      <path
         d="M 234.06,0 H 5879.3 V 7919 H 234.06 Z"
         id="path14151" />
    </clipPath>
    <clipPath
       id="clipPath14145"
       clip-rule="nonzero">
      <path
         d="M 2444.9,428.65 V 306.69 h 506 v 121.96"
         id="path14147" />
    </clipPath>
    <clipPath
       id="clipPath14141"
       clip-rule="nonzero">
      <path
         d="M 234.06,0 H 5879.3 V 7919 H 234.06 Z"
         id="path14143" />
    </clipPath>
    <clipPath
       id="clipPath14137"
       clip-rule="nonzero">
      <path
         d="m 4026.3,282.71 h 699.8 v 170.38 h -699.8 z"
         id="path14139" />
    </clipPath>
    <clipPath
       id="clipPath14133"
       clip-rule="nonzero">
      <path
         d="M 234.06,0 H 5879.3 V 7919 H 234.06 Z"
         id="path14135" />
    </clipPath>
    <clipPath
       id="clipPath14129"
       clip-rule="nonzero">
      <path
         d="M 437.5,278.39 H 1028 V 456.94 H 437.5 Z"
         id="path14131" />
    </clipPath>
    <clipPath
       id="clipPath14125"
       clip-rule="nonzero">
      <path
         d="M 234.06,0 H 5879.3 V 7919 H 234.06 Z"
         id="path14127" />
    </clipPath>
    <clipPath
       id="clipPath14121"
       clip-rule="nonzero">
      <path
         d="M 437.5,278.39 H 1028 V 456.94 H 437.5 Z"
         id="path14123" />
    </clipPath>
    <clipPath
       id="clipPath14117"
       clip-rule="nonzero">
      <path
         d="M 234.06,0 H 5879.3 V 7919 H 234.06 Z"
         id="path14119" />
    </clipPath>
    <clipPath
       id="clipPath14113"
       clip-rule="nonzero">
      <path
         d="M 234.2,0.1382 H 5879.3 V 7919 H 234.2 Z"
         id="path14115" />
    </clipPath>
  </defs>
  <metadata
     id="metadata4242">
    <rdf:RDF>
      <cc:Work
         rdf:about="">
        <dc:format>image/svg+xml</dc:format>
        <dc:type
           rdf:resource="http://purl.org/dc/dcmitype/StillImage" />
      </cc:Work>
    </rdf:RDF>
  </metadata>
  <g
     id="layer1"
     transform="matrix(0.67809759,0,0,0.67809759,1.5747636,-332.75991)"
     style="stroke:none;fill:#333333;fill-opacity:1">
    <path
       style="fill:#333333;fill-rule:nonzero;stroke:none;fill-opacity:1"
       d="M -2.3223259,490.72569 H 218.219 v 65.39983 H 6.3928567 v 56.68471 H -2.3223259 V 547.41036 H 209.50392 V 499.44078 H -2.3223259 v -8.71509"
       class="ps02"
       id="path6945" />
    <path
       style="fill:#333333;fill-rule:nonzero;stroke:none;fill-opacity:1"
       d="m 493.71414,556.12552 v 56.68471 h -8.71507 V 547.41036 H 696.82531 V 499.44078 H 484.99907 v -8.71509 h 220.54132 v 65.39983 H 493.71414"
       class="ps02"
       id="path6947" />
    <path
       style="fill:#333333;fill-rule:nonzero;stroke:none;fill-opacity:1"
       d="M 330.66855,490.72569 V 604.09505 H 218.219 v 8.71518 H 339.86777 V 499.44078 h 112.4495 v -8.71509 H 330.66855"
       class="ps02"
       id="path6949" />
  </g>
</svg>
