<?xml version="1.0" encoding="UTF-8" standalone="no"?>
<svg
   version="1.1"
   id="svg13"
   width="256"
   height="256"
   xmlns="http://www.w3.org/2000/svg"
   xmlns:svg="http://www.w3.org/2000/svg">
  <defs
     id="defs17" />
  <g
     id="g11"
     transform="matrix(0.42666702,0,0,0.42666702,-2.1026991e-4,92.425586)"
     style="fill:#cccccc;fill-opacity:1;stroke:none">
    <polygon
       id="_43443024"
       points="573.944,0.968 600,0.968 563.266,58.114 557.307,102.696 533.76,102.696 540.661,51.826 517.114,0.968 542.544,0.968 555.107,29.858 "
       style="fill:#cccccc;fill-opacity:1;stroke:none" />
    <polygon
       id="_43441624"
       points="329.995,102.696 333.136,80.082 297.346,80.082 299.546,62.507 330.62,62.507 333.761,39.902 302.997,39.902 305.2,23.573 340.981,23.573 344.442,0.968 285.102,0.968 270.973,102.696 "
       style="fill:#cccccc;fill-opacity:1;stroke:none" />
    <path
       id="_43775888"
       d="m 118.703,52.454 7.85,-21.033 2.514,21.033 h -10.361 z m -8.476,20.094 h 21.347 l 3.772,30.139 h 38.614 l 17.898,-55.257 8.792,55.257 h 20.409 l 22.605,-58.395 3.768,58.395 h 22.602 L 263.755,0.965 H 236.754 L 215.715,54.65 207.551,0.965 H 183.377 L 155.748,84.478 145.387,0.965 H 115.248 L 81.651,85.417 86.047,52.454 H 45.227 L 42.4,72.545 h 17.898 l -1.258,6.907 c -3.138,1.882 -10.358,2.199 -13.185,2.199 -2.824,0 -23.86,-1.882 -22.919,-24.49 C 23.871,34.559 54.01,13.522 89.801,25.139 L 93.258,3.475 C 69.395,-4.686 6.725,-0.118 0.322,55.905 c -3.765,32.967 26.377,48.665 46.468,48.354 11.616,0.628 24.805,-3.768 29.512,-6.282 l -1.569,4.71 h 23.863 l 11.616,-30.139 z"
       style="fill:#cccccc;fill-opacity:1;stroke:none" />
    <path
       id="_44102912"
       d="m 491.682,0.029 c -16.326,-0.63 -39.875,8.79 -47.723,46.779 -7.848,37.987 13.185,53.372 32.652,55.885 19.467,2.511 46.782,-9.733 51.803,-46.151 5.03,-36.421 -12.878,-55.571 -36.732,-56.513 z m -2.507,21.664 c 6.593,0 20.719,4.396 17.264,30.764 -3.451,26.373 -19.777,29.514 -25.742,28.887 -5.969,-0.631 -18.212,-4.71 -14.758,-28.887 3.461,-24.171 16.33,-31.081 23.242,-30.764 z"
       style="fill:#cccccc;fill-opacity:1;stroke:none" />
    <path
       id="_44104296"
       d="m 392.467,39.902 h 13.188 c 9.731,0 11.617,-6.279 11.927,-8.789 0.314,-2.513 -2.51,-7.537 -7.531,-7.537 h -15.384 l -2.191,16.326 z m -5.651,40.186 h 17.898 c 9.73,0 11.927,-7.534 12.241,-10.047 0.314,-2.51 -2.511,-7.534 -7.534,-7.534 h -20.092 l -2.51,17.581 z m -26.365,22.605 14.13,-101.722 h 43.324 c 10.364,0 25.432,11.933 23.55,27.942 -1.883,16.013 -6.907,16.957 -10.362,19.467 5.341,4.707 10.675,12.241 8.479,26.371 -2.2,14.13 -13.816,27.942 -34.221,27.942 h -44.897 z"
       style="fill:#cccccc;fill-opacity:1;stroke:none" />
    <path
       id="path12"
       d="m 123.79,113.833 h -13.321 l -31.395,52.859 h 37.378 v -11.719 h -15.234 l 15.234,-27.324 22.083,39.106 h 17.023 v -0.124 h 26.582 c 23.006,0 34.541,-8.882 34.541,-26.458 0,-3.023 -0.371,-5.859 -1.174,-8.511 l 21.217,34.972 h 10.177 l 30.531,-52.735 h -16.16 l -19.063,34.535 -20.106,-34.538 h -17.392 l 4.81,7.893 c -5.609,-5.304 -13.692,-7.893 -24.237,-7.893 h -34.973 v 43.85 z m 41.571,11.963 h 20.049 c 10.419,0 15.723,4.565 15.723,13.692 0,5.492 -1.662,9.502 -4.809,11.596 -3.024,2.16 -8.759,3.207 -16.776,3.207 h -14.124 v -28.495 z"
       style="fill:#cccccc;fill-opacity:1;stroke:none" />
    <polygon
       id="polygon14"
       points="314.623,166.689 331.83,166.689 331.83,166.565 340.589,166.565 340.589,134.679 380.495,166.565 390.856,166.565 390.856,113.833 377.04,113.833 377.04,145.348 336.763,113.833 326.462,113.833 326.462,157.685 299.944,113.833 286.56,113.833 255.286,166.689 271.078,166.689 271.078,166.565 292.663,166.565 292.663,154.786 277.556,154.786 292.543,127.588 "
       style="fill:#cccccc;fill-opacity:1;stroke:none" />
    <path
       id="path16"
       d="m 398.752,116.79 c -2.16,1.916 -3.268,5.367 -3.268,10.304 v 26.15 c 0,5.057 1.108,8.511 3.205,10.424 2.036,1.913 5.735,2.9 11.166,2.9 h 31.023 c 5.368,0 9.251,-0.987 11.288,-2.9 2.033,-1.91 3.207,-5.367 3.207,-10.424 v -7.341 l -15.234,-0.244 v 8.14 h -29.484 v -27.692 h 29.484 v 7.217 h 15.234 v -6.23 c 0,-5.181 -1.171,-8.636 -3.207,-10.304 -2.037,-2.034 -5.612,-3.02 -11.288,-3.02 h -31.023 c -5.367,0.063 -9.07,0.989 -11.103,3.02 z"
       style="fill:#cccccc;fill-opacity:1;stroke:none" />
    <polygon
       id="polygon18"
       points="475.664,144.98 499.78,144.98 499.78,133.385 475.664,133.385 475.664,125.796 516.801,125.796 516.801,113.833 460.43,113.833 460.43,166.565 517.479,166.565 517.479,154.354 475.664,154.354 "
       style="fill:#cccccc;fill-opacity:1;stroke:none" />
  </g>
</svg>
