<?xml version="1.0" encoding="UTF-8" standalone="no"?>
<!-- Generator: Adobe Illustrator 18.0.0, SVG Export Plug-In . SVG Version: 6.00 Build 0)  -->

<svg
   version="1.1"
   id="Layer_1"
   x="0px"
   y="0px"
   viewBox="0 0 479.99995 55.878903"
   enable-background="new 0 0 401.7 46.8"
   xml:space="preserve"
   width="479.99997"
   height="55.878902"
   xmlns="http://www.w3.org/2000/svg"
   xmlns:svg="http://www.w3.org/2000/svg"><defs
   id="defs418" />









<g
   id="g601"
   style="display:inline"
   transform="translate(39.138434,4.5610665)"><g
     id="g1529"
     style="display:inline"
     transform="matrix(1.194995,0,0,1.194995,-39.167009,-4.5586693)"><path
       id="path393"
       style="display:inline;fill:#cccccc;fill-opacity:1"
       d="M 27.900391,-0.00195313 C 22.371099,-0.0126953 16.988276,1.6132844 11.800781,4.8007812 3.2007898,10.100776 -0.90078015,18.500011 0.19921875,29 0.79921815,35.299994 4.8007872,40.899613 10.800781,44.099609 15.200777,46.299607 20.100005,46.999218 25,46.199219 h 15.5 l 3.800781,-8.5 1.5,8.5 92.898439,-0.09961 c 4.09999,0 8.40156,-2.099221 11.60156,-5.199218 2.4,2.599997 5.59922,4.600391 9.19922,5.40039 4.7,1.099999 9.69961,0.199998 14.09961,-2.5 0.2,-0.1 0.39961,-0.30039 0.59961,-0.40039 l -0.39844,2.699218 h 18.89844 l 0.5,-3.199218 c 0.003,1.63e-4 0.007,-1.62e-4 0.01,0 l 0.27344,-1.712891 6.35547,0.01172 H 247.5 c 8.89999,0 14.30078,-2.699613 17.30078,-6.09961 L 268.5,41.19922 h 55.19922 V 33.5 l 9.90039,7.699219 h 68.09961 V 5.9003906 H 327.90039 V 13.5 L 318.19922,5.9003906 H 279 l -4.80078,9.1992184 -5.39844,-9.2988278 -59,0.099609 L 212.90039,1 h -47 c -3.5,0 -6.99961,1.000002 -10.09961,3 -1.3,0.7999992 -2.4,1.6992198 -3.5,2.6992188 -3,-3.5999965 -6.10118,-5.79882818 -11.20117,-5.79882818 H 61.599609 L 59,8.8007812 57.699219,1 H 40.300781 L 39.699219,2.4003906 38,1.8007812 C 34.587503,0.60078245 31.217965,0.00449218 27.900391,-0.00195313 Z" /><g
       id="g612"
       style="display:inline"><path
         fill="#ffffff"
         d="m 246.4,29.6 h -6.2 V 17 h 8.8 c 4.7,0 7,1.9 7,6 0,5 -2.5,6.6 -9.6,6.6 m 43.3,-17.9 h -7.2 l -0.2,0.4 -8.1,14.9 -8.7,-14.9 -0.2,-0.3 h -7.7 l 0.6,1 1.5,2.4 c -2.4,-2.3 -6,-3.5 -10.7,-3.5 h -15.5 v 19.4 l -11.5,-19 -0.2,-0.3 h -5.9 l -0.2,0.3 -13.1,22 -0.6,1 h 5.1 v 0 h 11.4 v -5.2 h -6.7 l 6.7,-12.1 9.5,16.9 0.2,0.3 h 7.6 v 0 h 11.7 c 10.1,0 15.3,-4 15.3,-11.8 0,-1.4 -0.2,-2.6 -0.5,-3.7 l 9.2,15.2 0.2,0.3 h 4.5 l 0.2,-0.3 12.7,-22 0.6,-1"
         id="path395"
         style="display:inline" /><polyline
         fill="#ffffff"
         points="334.4,11.7 333.7,11.7 333.7,25.6 316.2,11.9 316,11.7 311.4,11.7 311.4,31.1 299.9,12.1   299.7,11.7 293.8,11.7 293.6,12.1 280.5,34 279.9,35.1 286.9,35.1 286.9,35.1 296.5,35.1 296.5,29.9 289.8,29.9 296.5,17.8   306,34.7 306.2,35.1 313.8,35.1 313.8,35.1 317.6,35.1 317.6,21 335.1,34.9 335.3,35.1 339.9,35.1 339.9,11.7 334.4,11.7 "
         id="polyline397"
         style="display:inline" /><path
         fill="#ffffff"
         d="m 362.1,11.7 h -13.7 c -4.8,0 -6.4,1.5 -6.4,5.9 v 11.6 c 0,4.4 1.6,5.9 6.4,5.9 h 13.7 c 4.8,0 6.4,-1.5 6.4,-5.9 v -3.3 h -0.7 -5.4 -0.7 v 3.6 H 348.6 V 17.2 h 13.1 v 3.2 h 0.7 6.1 v -2.8 c 0,-4.5 -1.6,-5.9 -6.4,-5.9"
         id="path399"
         style="display:inline" /><polyline
         fill="#ffffff"
         points="395.2,29.6 377.4,29.6 377.4,25.5 388.1,25.5 388.1,20.4 377.4,20.4 377.4,17 395.6,17 395.6,11.7   370.7,11.7 370.7,35.1 395.9,35.1 395.9,29.6 395.2,29.6 "
         id="polyline401"
         style="display:inline" /><path
         fill="#ffffff"
         d="m 43.8,23.6 2.9,-6.5 1.3,6.5 H 43.8 M 83.7,6.7 75.9,25 72.6,6.7 h -6.8 l -8.8,27 -4.5,-27 h -8.4 l -12.8,29 1.9,-12.1 H 20.5 l -1,6.2 h 5.3 l -0.6,3.3 C 21.2,34.4 16,34 13.8,30 12.4,27.5 11.1,21.9 17,16.8 c 4.8,-4.2 13.1,-4.9 17.9,-2.7 0,0 0.6,-3.5 1.1,-6.8 C 26.8,4.1 19.6,6.8 14.8,9.7 8.3,13.7 5.2,19.9 6,28.3 7,38 19.5,44.1 30.2,38 c 0.1,-0.1 0.2,-0.1 0.2,-0.1 l -1,2.3 h 7.2 l 4.5,-10 H 49 l 1.7,10 H 62.3 L 68.2,21.6 72,40.2 h 4.6 l 8.9,-20.6 0.9,20.6 h 6.8 L 91.9,6.7 h -8.2"
         id="path403"
         style="display:inline" /><polyline
         fill="#ffffff"
         points="93.9,40.1 113,40.1 114.1,32.9 102.1,32.9 103.1,27 113.5,27 114.6,19.8 104.1,19.8 105,13.9   117,13.9 118.1,6.7 99.2,6.7 93.9,40.1 "
         id="polyline405"
         style="display:inline" /><polyline
         fill="#ffffff"
         points="187.1,17.6 182.9,6.7 175,6.7 183.1,24.3 180.6,40.1 187.5,40.1 189.6,26.1 201.9,6.7 193.9,6.7   187.1,17.6 "
         id="polyline407"
         style="display:inline" /><path
         fill="#ffffff"
         d="m 171.1,26.6 c -1.8,5.5 -6.3,8.7 -9.9,7.1 -3.6,-1.6 -5,-7.4 -3.2,-13 1.8,-5.5 6.3,-8.7 9.9,-7.1 3.7,1.7 5.1,7.5 3.2,13 M 168.5,7 c -7.6,-1.7 -15.5,4.3 -17.6,13.5 -2.1,9.2 2.3,18.1 9.9,19.9 7.6,1.8 15.5,-4.3 17.6,-13.5 C 180.5,17.7 176,8.8 168.5,7"
         id="path409"
         style="display:inline" /><path
         fill="#ffffff"
         d="m 138.1,20.1 c -3.8,0 -4.8,0 -4.8,0 l 1.1,-6.2 c 0,0 0.1,0 4.4,0 4.9,0 4,6.2 -0.7,6.2 m -0.8,13.5 c -3.8,0 -6,0 -6,0 l 1.1,-6.6 c 0,0 1.4,0 5.7,0 5.4,-0.1 5.3,6.6 -0.8,6.6 m 4,-26.7 c -3.7,-0.1 -12.8,0 -12.8,0 h 0.1 L 123.3,40 c 0,0 10.9,0 15.4,0 6.3,0 15.6,-9.3 7.2,-17 8.6,-9 0,-16 -4.6,-16.1"
         id="path411"
         style="display:inline" /></g></g></g>

</svg>
