<?xml version="1.0" encoding="UTF-8" standalone="no"?>
<!-- Created with Inkscape (http://www.inkscape.org/) -->

<svg
   version="1.1"
   id="svg243"
   width="256"
   height="256"
   viewBox="0 0 256 256"
   xmlns="http://www.w3.org/2000/svg"
   xmlns:svg="http://www.w3.org/2000/svg">
  <defs
     id="defs247" />
  <g
     id="g249"
     transform="translate(-1123.899,-1199.9565)">
    <g
       id="g424"
       transform="matrix(0.1053346,0,0,0.1053346,1120.0307,1196.0629)">
      <path
         style="display:inline;fill:#555555;stroke-width:1.06401;fill-opacity:1"
         d="m 1593.3949,1717.5719 c -25.7421,-2.7067 -56.6761,-11.9243 -80.8647,-24.096 -13.1959,-6.64 -33.3186,-21.2865 -49.5245,-36.0463 l -6.9642,-6.3428 2.6333,-5.8028 c 7.282,-16.0463 9.5883,-40.7426 5.6008,-59.9744 -4.5112,-21.758 -16.7529,-40.4086 -34.5485,-52.6356 -7.5309,-5.1743 -23.3652,-12.393 -33.706,-15.3662 l -9.044,-2.6004 -1.8951,-9.9658 c -2.5583,-13.453 -3.6426,-52.8552 -1.905,-69.2217 3.752,-35.3443 14.5429,-71.1135 31.7162,-105.1334 17.1679,-34.009 33.7932,-57.0407 58.4057,-80.9111 46.9313,-45.5164 110.2078,-75.9072 173.8284,-83.4876 19.6336,-2.3394 59.9463,-3.2302 76.6088,-1.6928 23.268,2.1466 56.4849,9.89 80.5169,18.7694 28.1361,10.396 63.5443,31.0691 87.0799,50.8415 19.6615,16.5178 41.9038,41.7837 54.5883,62.0091 l 3.4048,5.4288 8.502,97.9871 c 4.6761,53.8929 8.5021,99.9368 8.5021,102.3198 0,3.123 -1.6181,7.5593 -5.7949,15.8877 -26.7698,53.3771 -65.9409,97.1585 -118.9037,132.8973 -35.9498,24.2587 -85.0943,45.6997 -129.7315,56.5996 -14.3701,3.5091 -46.2635,8.9996 -61.7569,10.6316 -11.7155,1.2339 -44.632,1.1789 -56.7482,-0.095 z m 99.4918,-157.3099 c 15.2611,-2.9585 28.8697,-7.6112 45.6231,-15.5987 16.1349,-7.6924 28.2677,-15.4484 38.5817,-24.6627 25.7188,-22.977 41.0633,-49.7837 47.3278,-82.6811 2.4642,-12.9406 2.476,-37.8502 0.022,-47.2161 -5.4027,-20.6228 -25.3752,-44.5084 -48.8688,-58.4435 -19.6633,-11.663 -32.1638,-14.9511 -65.669,-17.2739 -37.4002,-2.5926 -55.0152,-1.1166 -78.1818,6.5513 -25.6173,8.4792 -41.5699,18.4293 -61.2033,38.175 -19.3062,19.4163 -29.362,37.1682 -33.5992,59.3133 -3.953,20.6606 -0.01,48.5011 10.4323,73.5733 15.0981,36.2674 55.9787,64.5648 101.6577,70.367 10.5313,1.3379 31.2468,0.3446 43.8772,-2.1039 z"
         id="path438" />
      <path
         style="font-variation-settings:normal;display:inline;opacity:1;vector-effect:none;fill:#333333;fill-opacity:1;stroke-width:1.04348;stroke-linecap:butt;stroke-linejoin:miter;stroke-miterlimit:4;stroke-dasharray:none;stroke-dashoffset:0;stroke-opacity:1;-inkscape-stroke:none;stop-color:#000000;stop-opacity:1"
         d="m 731.47828,1715.47 c -13.56599,-1.5438 -40.64908,-6.2998 -50.60862,-8.8875 -36.86443,-9.5782 -71.16549,-26.2201 -102.49612,-49.7282 -8.45314,-6.3425 -9.76196,-7.7569 -10.73818,-11.6039 -3.84704,-15.1598 -11.78696,-29.3675 -22.09071,-39.5291 -5.59585,-5.5186 -9.45606,-8.2031 -17.00891,-11.8281 l -9.77022,-4.6892 -5.76132,-11.7325 c -24.53737,-49.9679 -24.32872,-110.831 0.62866,-183.3845 14.52536,-42.2265 35.50094,-81.4111 60.41674,-112.8647 11.12299,-14.0416 43.33181,-46.2606 57.14807,-57.1662 35.65059,-28.1401 81.30109,-51.7275 120.1067,-62.0586 24.71459,-6.5798 60.1254,-9.5089 84,-6.9485 41.32794,4.4323 84.75202,20.534 122.08696,45.27 27.58308,18.275 48.45457,38.0651 69.16987,65.5858 14.4513,19.1987 28.4812,44.1573 31.5816,56.1822 0.666,2.5826 3.6688,43.2 6.6731,90.2609 l 5.4623,85.5652 -3.4672,11.6623 c -13.4388,45.2033 -40.188,86.5599 -79.06358,122.2391 -32.84717,30.1465 -77.06198,55.1512 -121.15509,68.5164 -14.74825,4.4704 -45.1593,11.3951 -60.18958,13.7052 -12.41722,1.9086 -62.35385,2.8643 -74.92447,1.4339 z m 75.15781,-141.9454 c 36.82868,-4.516 69.619,-23.9977 92.91213,-55.202 15.37788,-20.6007 20.47096,-35.4096 21.55369,-62.6704 0.68483,-17.2422 -1.44657,-35.6678 -6.49813,-56.1755 -11.90511,-48.3311 -31.2063,-78.5505 -58.95158,-92.2989 l -8.86957,-4.3952 -14.68191,-0.3546 c -46.73183,-1.1291 -98.25065,20.6017 -131.63768,55.5251 -35.90497,37.5573 -50.00929,90.8694 -35.05403,132.4987 3.47219,9.6651 9.93828,22.5243 15.29432,30.4159 6.08867,8.9711 20.4569,23.5044 29.19212,29.5272 26.92262,18.5632 63.21553,27.2405 96.74064,23.1297 z"
         id="path434" />
      <path
         style="display:inline;fill:#777777;fill-opacity:1;stroke-width:1.04348"
         d="m 1143.1305,1736.3473 c -24.7631,-3.7243 -42.0692,-18.2759 -50.0655,-42.0965 -2.2168,-6.6036 -3.8228,-17.3773 -8.3978,-56.3378 -5.6861,-48.4221 -10.9312,-96.9056 -13.0005,-120.1728 -2.3295,-26.1924 -11.6789,-178.5937 -12.5469,-204.5217 -0.9415,-28.1276 -2.884,-44.0154 -7.3359,-60 -1.1989,-4.3044 -8.7246,-26.374 -16.7238,-49.0435 -7.9993,-22.6696 -15.239,-44.5044 -16.0883,-48.5218 -0.8493,-4.0174 -1.5524,-11.9024 -1.5624,-17.5223 -0.042,-23.763 8.0953,-43.9523 24.7352,-61.3691 6.3814,-6.6793 9.6275,-9.0897 18.1075,-13.4457 22.9765,-11.8021 41.7906,-12.4259 63.1687,-2.0944 35.2402,17.0305 59.9176,52.5919 73.4479,105.8418 4.7413,18.6603 6.6483,30.9699 8.8207,56.9376 3.3915,40.541 3.8955,55.0878 4.7358,136.6956 0.886,86.0516 1.7115,105.917 6.3092,151.8261 2.8199,28.1566 3.864,33.913 6.1514,33.913 3.8229,0 28.8364,-7.5293 53.8099,-16.1973 30.4256,-10.5605 36.3606,-12.2391 53.2174,-15.0525 38.9904,-6.5075 64.4397,-4.3186 89.9251,7.7344 20.8758,9.873 33.0703,21.5954 42.1502,40.5184 6.3137,13.1581 8.6256,25.8406 7.9334,43.5188 -0.8867,22.6427 -5.5921,36.3675 -16.0452,46.8005 -8.0584,8.0428 -13.5052,11.0531 -29.8684,16.5069 -17.9029,5.967 -38.5302,10.066 -67.1798,13.3498 -46.0769,5.2813 -62.4232,9.8144 -103.611,28.7331 -29.9721,13.7669 -50.4558,20.4287 -72.0955,23.4468 -11.8998,1.6598 -28.9784,1.9082 -37.9914,0.5526 z"
         id="path436" />
      <path
         style="font-variation-settings:normal;display:inline;opacity:1;vector-effect:none;fill:#333333;fill-opacity:1;stroke-width:1.04348;stroke-linecap:butt;stroke-linejoin:miter;stroke-miterlimit:4;stroke-dasharray:none;stroke-dashoffset:0;stroke-opacity:1;-inkscape-stroke:none;stop-color:#000000;stop-opacity:1"
         d="m 2358.0201,1746.4247 c -10.8269,-3.0622 -38.1408,-23.8188 -107.2374,-81.4925 -50.5501,-42.1931 -138.3415,-114.3235 -139.1457,-114.3235 -0.201,0 -0.6542,20.5435 -1.0071,45.6522 -0.7856,55.8972 -2.5073,74.3417 -8.6161,92.3023 -6.1787,18.1661 -17.8124,32.0331 -32.9297,39.2511 -14.9457,7.1363 -31.7601,9.7357 -45.258,6.9967 -34.4014,-6.9805 -58.7003,-23.6849 -71.3817,-49.0718 -8.349,-16.7137 -10.898,-32.0439 -9.4665,-56.9342 1.0661,-18.5387 3.8305,-31.0314 10.1994,-46.0931 4.9255,-11.648 6.0905,-17.4216 7.6363,-37.8423 1.2979,-17.1454 0.6526,-78.95 -1.1712,-112.1739 -3.8947,-70.9524 -12.9403,-128.3881 -28.1838,-178.9565 -6.1628,-20.4442 -7.6197,-30.5728 -6.9791,-48.5218 1.1411,-31.9787 10.184,-50.5104 37.4426,-76.7313 34.0485,-32.7523 77.2583,-53.3109 128.504,-61.1402 17.7971,-2.719 66.0752,-3.8728 85.8704,-2.052 66.7373,6.1381 119.2488,26.2628 187.1917,71.7398 26.0657,17.4468 35.1928,26.8496 44.4073,45.7489 7.6309,15.6513 9.1652,23.0566 9.1884,44.3479 0.018,16.416 -0.2774,19.5258 -2.9225,30.7826 -9.2352,39.3007 -27.183,70.6857 -58.5092,102.3135 -22.9326,23.1536 -56.1108,46.7883 -102.451,72.9817 -8.1137,4.5862 -14.5544,8.6588 -14.3125,9.0502 0.4944,0.8 78.9645,64.7408 156.9375,127.8795 28.4087,23.0039 53.3836,43.6336 55.4999,45.8437 17.0787,17.8362 20.4845,44.5663 9.148,71.7976 -7.6538,18.3852 -24.1564,37.0613 -43.505,49.2345 -12.746,8.0193 -20.0774,10.0149 -38.3603,10.4418 -10.9197,0.2549 -17.1448,-0.056 -20.5887,-1.0309 z m -231.4083,-420.6862 c 44.6,-9.8647 88.642,-26.8253 111.2009,-42.8235 12.4716,-8.8445 23.408,-23.298 21.9685,-29.0335 -2.6359,-10.5022 -26.5531,-20.038 -61.8666,-24.6662 -11.8517,-1.5533 -47.8359,-3.0682 -73.6537,-3.1009 -11.9087,-0.015 -21.6506,0.09 -21.6486,0.2335 0,0.1434 1.6454,22.5412 3.6522,49.7728 2.0067,27.2316 3.6486,50.1229 3.6486,50.8696 0,1.9498 3.3634,1.6977 16.6987,-1.2518 z"
         id="path432" />
      <path
         style="display:inline;fill:#555555;stroke-width:1.04348;fill-opacity:1"
         d="m 304.17392,1739.3635 c -30.71497,-1.9369 -62.14991,-6.6278 -86.58855,-12.9215 -41.55052,-10.7004 -75.31078,-29.1194 -104.20402,-56.8518 -36.887142,-35.4051 -65.170705,-89.7515 -73.325918,-140.8945 -2.13457,-13.3864 -3.528928,-64.6686 -2.413676,-88.7712 1.560162,-33.7179 9.798439,-68.3472 24.654075,-103.6322 11.661327,-27.698 21.20245,-44.9292 45.272889,-81.7624 37.49764,-57.3797 69.77656,-97.9256 104.38344,-131.117 40.27954,-38.632 80.31674,-63.543 120.91742,-75.2345 22.76151,-6.5544 36.10753,-8.3006 63.65217,-8.3279 27.45135,-0.027 34.44507,0.7543 60.69473,6.7825 31.08226,7.1382 52.34065,15.5065 69.46591,27.3452 34.58746,23.9103 50.39856,62.7817 43.61992,107.2392 -5.30704,34.8062 -24.76975,58.6199 -55.34577,67.7186 -10.14688,3.0194 -23.4149,4.3105 -32.86957,3.1985 -31.4716,-3.7018 -54.90987,-22.2486 -63.2469,-50.0475 -4.02346,-13.4158 -3.85073,-13.1524 -9.98606,-15.2225 -17.89126,-6.0363 -42.15545,1.4823 -74.50741,23.0873 -28.3068,18.9034 -53.26265,42.9963 -76.74223,74.0884 -42.7695,56.6363 -69.05458,118.6577 -73.98761,174.5788 -2.04646,23.1989 2.8876,50.0505 12.96681,70.5665 14.9341,30.3981 37.33716,47.7576 71.46683,55.3776 22.76163,5.082 37.80367,6.1871 84.12352,6.1811 42.21812,-0.011 65.11521,-1.0295 96.00001,-4.2929 20.66653,-2.1837 47.80126,-1.4448 62.60869,1.7048 15.29614,3.2537 25.85664,8.6817 35.24258,18.1142 12.39075,12.4522 21.40927,31.0217 22.42709,46.1784 1.3172,19.6148 -8.58921,42.7981 -24.9691,58.4335 -20.26718,19.3461 -31.63749,24.1228 -59.30926,24.9162 -8.32174,0.2385 -27.33913,0.9317 -42.26087,1.5404 -35.01178,1.4281 -102.693,3.2118 -114.78262,3.0251 -5.16521,-0.079 -15.49565,-0.53 -22.95652,-1.0004 z"
         id="path428" />
      <path
         style="display:inline;fill:#333333;fill-opacity:1;stroke-width:1.04348"
         d="m 1288.0693,1016.884 c -27.4583,-5.9737 -51.4778,-25.64288 -65.6426,-53.75354 -37.8972,-75.20892 5.0166,-179.1352 81.4667,-197.29208 9.914,-2.35456 27.2948,-2.81783 36.9762,-0.98555 57.7542,10.93038 93.0419,76.65407 78.7581,146.68813 -8.6948,42.63084 -36.0772,80.10519 -70.9171,97.05384 -14.0569,6.8382 -27.11,9.8599 -42.1487,9.7571 -6.6699,-0.046 -14.9915,-0.7062 -18.4926,-1.4679 z m 33.0725,-50.05976 c 22.237,-9.0357 41.3366,-36.28053 47.9434,-68.38943 1.9111,-9.28791 2.1694,-13.18134 1.6961,-25.56522 -0.6261,-16.38429 -2.1548,-23.30619 -7.7198,-34.95652 -4.4462,-9.30803 -13.7964,-19.19521 -21.6702,-22.9147 -7.6933,-3.63428 -19.7714,-4.11387 -28.5773,-1.13475 -31.4949,10.65512 -55.2864,53.96376 -53.009,96.4946 0.75,14.00506 2.7746,22.4353 8.0478,33.5097 6.265,13.15725 16.7995,22.44327 28.9256,25.49741 5.974,1.50464 17.3188,0.32139 24.3634,-2.54109 z M 209.3187,1014.6714 c -36.04148,-6.5086 -67.1668,-28.75425 -81.96592,-58.58206 -7.18496,-14.48139 -9.42076,-26.31134 -9.43185,-49.90543 -0.0195,-41.61971 11.61726,-70.90291 38.9757,-98.07956 23.75442,-23.59656 58.45762,-41.66467 93.04818,-48.44525 27.63033,-5.41619 60.81545,-3.21216 88.52379,5.87944 l 5.07727,1.66595 -0.72084,6.39776 c -0.96304,8.54742 -6.56537,42.48595 -7.10182,43.02241 -0.23335,0.23333 -3.2013,-0.5395 -6.59546,-1.71741 -10.40068,-3.60945 -20.19041,-5.3167 -33.95746,-5.92189 -52.82798,-2.32232 -100.25056,22.23309 -119.34592,61.79727 -6.15858,12.76012 -8.26759,22.95967 -7.53198,36.42581 1.66531,30.48537 17.66183,51.32717 44.62868,58.14651 7.23029,1.82839 10.73526,2.10484 21.25959,1.67683 7.92677,-0.32236 14.37588,-1.15538 17.38356,-2.2454 l 4.78161,-1.73289 1.82611,-10.65717 c 1.00436,-5.86144 2.07311,-11.71368 2.37499,-13.00499 l 0.54889,-2.34782 h -19.93921 c -10.96657,0 -19.94703,-0.35218 -19.95658,-0.78261 -0.009,-0.43044 1.50886,-10.76087 3.37424,-22.95653 l 3.39158,-22.17391 h 47.65852 c 44.85548,0 47.6335,0.10741 47.23311,1.82609 -0.94339,4.04958 -14.03768,89.25457 -13.75939,89.53287 0.16484,0.16484 21.95108,-48.84957 48.41388,-108.92093 l 48.11416,-109.22064 31.79526,-0.2757 31.79528,-0.2757 16.41567,98.8844 c 9.02863,54.38642 16.78677,100.05831 17.24034,101.49309 0.66848,2.11464 2.42977,-2.33184 9.29995,-23.47826 4.66142,-14.34783 19.45412,-59.89565 32.87268,-101.21739 l 24.39739,-75.13044 25.45257,-0.27522 25.45257,-0.27522 12.50196,68.36218 c 6.87607,37.59919 12.75645,68.36218 13.06749,68.36218 0.31105,0 7.29398,-15.84783 15.51763,-35.2174 8.22365,-19.36956 21.30028,-50.12609 29.05918,-68.34782 l 14.10708,-33.13044 h 30.56691 30.56692 l 0.61189,7.56522 c 0.33656,4.16087 2.71629,58.04348 5.28832,119.73913 2.57203,61.69566 4.84059,114.63914 5.04124,117.65214 l 0.36483,5.4783 h -25.26678 -25.26678 l -0.62993,-8.6087 c -0.34647,-4.7348 -1.82262,-37.48695 -3.28035,-72.78261 -1.45773,-35.29565 -2.99067,-66.44456 -3.40653,-69.21979 l -0.75612,-5.04588 -33.45918,77.56762 -33.45919,77.56766 -16.81024,0.2863 c -15.33256,0.2612 -16.8604,0.1236 -17.38087,-1.5652 -0.31385,-1.0184 -6.71375,-32.13853 -14.22202,-69.15592 -7.50825,-37.0174 -13.89764,-68.0087 -14.19862,-68.86957 -0.30099,-0.86087 -10.69292,30.24783 -23.09319,69.13044 l -22.54594,70.69565 h -43.51911 -43.51912 l -1.57824,-8.6087 c -0.86803,-4.7348 -3.84184,-21.63913 -6.60848,-37.56521 l -5.03023,-28.95653 h -30.3271 -30.32711 l -16.76101,37.30435 -16.761,37.30439 -26.71352,0.2783 -26.7135,0.2784 3.63714,-7.9811 c 2.00042,-4.3897 3.44829,-8.17006 3.21747,-8.40086 -0.23081,-0.23081 -5.29499,1.96468 -11.25374,4.87886 -19.67799,9.6238 -37.39179,13.6144 -59.75337,13.4614 -7.52918,-0.051 -17.40034,-0.7638 -21.93593,-1.5828 z M 435.12119,890.34785 c -0.0104,-0.88224 -8.00198,-42.19443 -8.91074,-46.06397 -0.33626,-1.43182 -0.96997,-2.10015 -1.48414,-1.56522 -0.71738,0.74636 -13.10039,27.93796 -20.50225,45.0205 l -1.46945,3.3913 h 16.18792 c 8.90335,0 16.18375,-0.35217 16.17866,-0.78261 z m 347.75763,117.91305 c 0.52543,-3.3 9.51698,-59.53044 19.98126,-124.95653 l 19.02594,-118.95652 71.25892,-0.26814 71.2589,-0.26816 -0.55685,2.35511 c -0.30627,1.2953 -2.29845,13.27249 -4.42707,26.61597 L 955.5497,817.0435 H 910.48144 865.4132 l -2.90256,19.04348 c -1.59641,10.47391 -3.14881,20.56393 -3.44978,22.42225 l -0.54722,3.37879 39.58061,0.27339 39.58062,0.2734 -4.17096,26.34782 -4.17096,26.34783 H 890.084 850.83505 l -3.34665,21.13044 c -1.84066,11.62174 -3.33942,21.95217 -3.33056,22.95652 0.0151,1.71058 2.85548,1.82609 44.90554,1.82609 h 44.88945 l -0.53055,2.34782 c -0.70706,3.1289 -7.85704,48.45627 -7.85704,49.80977 0,0.7071 -23.90029,1.0598 -71.82086,1.0598 h -71.82087 z m 654.42538,3.1304 c 0.3303,-1.5782 4.6051,-28.27446 9.4996,-59.32493 l 8.8992,-56.45541 -30.1215,-65.63155 -30.1217,-65.63156 28.7199,-0.27771 c 20.4113,-0.19737 28.9297,0.0618 29.445,0.89561 0.3989,0.64533 7.6892,19.01465 16.2009,40.82072 14.4268,36.96029 15.5847,39.51134 17.0859,37.63983 0.8857,-1.10417 12.4103,-19.44609 25.6103,-40.75981 l 24,-38.75222 29.4782,-0.044 c 16.2131,-0.0242 29.4783,0.16442 29.4783,0.41925 0,0.25482 -19.7952,31.5983 -43.9894,69.65217 -24.1942,38.05387 -44.8666,70.65594 -45.9388,72.44905 -1.432,2.39499 -4.0194,16.92561 -9.7496,54.75301 -4.2903,28.32105 -7.8005,51.85825 -7.8005,52.30495 0,0.4468 -11.5417,0.8123 -25.6481,0.8123 h -25.6481 l 0.6004,-2.8696 z m -432.9833,-0.4839 c 0.6221,-2.6808 39.1554,-244.03237 39.1566,-245.2552 4e-4,-0.43044 22.6761,-0.78261 50.3903,-0.78261 41.7957,0 51.4315,0.27144 56.5,1.59163 21.7292,5.65971 42.9584,25.73063 49.0109,46.33689 2.1503,7.32069 2.1544,22.3972 0.011,30.70347 -2.4073,9.31711 -9.8175,22.82146 -18.2687,33.29302 l -7.3784,9.14241 6.7546,7.29565 c 11.3343,12.24207 18.4351,28.72111 18.4286,42.76737 -0.014,29.58394 -24.2807,60.53974 -57.4828,73.32767 l -8.7468,3.368 -64.4641,0.2986 -64.4642,0.2986 z m 121.9895,-47.70328 c 11.7288,-4.61143 18.7158,-13.59859 18.7158,-24.07366 0,-7.3455 -3.1234,-13.59517 -8.8774,-17.7634 -7.6255,-5.52383 -12.1538,-6.2366 -39.6226,-6.2366 h -24.8342 l -0.533,2.34783 c -0.2933,1.2913 -1.9482,11.50435 -3.6777,22.69565 -1.7294,11.19131 -3.4239,21.68412 -3.7656,23.31736 l -0.6211,2.96953 28.5397,-0.42199 c 26.8148,-0.39651 28.9105,-0.56782 34.6761,-2.83472 z m 2.5029,-101.25189 c 3.3411,-1.46133 7.2672,-4.36513 9.9769,-7.37896 12.1547,-13.5189 7.8273,-31.91196 -8.5805,-36.46956 -3.8499,-1.0694 -42.9053,-1.52173 -42.9053,-0.49692 0,0.30981 -1.6435,10.0497 -3.6522,21.64419 -2.0087,11.59451 -3.6522,22.19937 -3.6522,23.56637 v 2.48545 l 21.6522,-0.47052 c 19.743,-0.42902 22.1379,-0.68296 27.1611,-2.88005 z"
         id="path430" />
    </g>
  </g>
</svg>
