<?xml version="1.0" encoding="UTF-8" standalone="no"?>
<svg
   width="256"
   height="256"
   viewBox="0 0 239.97945 239.97924"
   version="1.1"
   id="svg9100"
   xmlns="http://www.w3.org/2000/svg"
   xmlns:svg="http://www.w3.org/2000/svg">
  <defs
     id="defs9104" />
  <g
     id="g4340"
     transform="matrix(1.0260464,0,0,1.0260464,-221.70185,91.812905)">
    <path
       id="path4206"
       style="display:inline;fill:#cccccc;fill-opacity:1;stroke:none"
       d="m 8539,948 33,10.98 64,17.37 c 83.8,19.23 168.53,31.54 254,39.82 37.21,3.6 74.61,6.4 112,6.83 l 15,1 h 41 l 12,-0.96 h 12 l 10,-0.95 34,-2.94 c 66.52,-7.95 153.9,-31.69 181.55,-100.15 5.93,-14.68 6.97,-25.56 8.13,-41 l -0.64,-9 c -1.54,-31.86 -20.56,-54.64 -44.04,-74.25 -19.15,-15.98 -41.05,-27.95 -63,-39.53 -36.91,-19.47 -79.9,-37.77 -119,-52.64 L 9027,678.42 8897,629.2 C 8831.07,603.29 8762.76,573.85 8702,537.4 8638.13,499.08 8575.01,447 8552.72,373 c -4.07,-13.5 -8.7,-37.05 -8.72,-51 l -0.68,-15 0.68,-14 c 0.21,-17.84 7.15,-44.38 13.8,-61 37.02,-92.55 135.27,-145.35 225.2,-175.33 64.21,-21.41 137.71,-35.64 205,-42.83 l 54,-4.93 28,-1.91 15,-1 19,-1 h 17 l 17,-1 h 91 l 15,1 h 24 l 15,1 h 16 l 15,1 22,1 12,1 h 9 l 17,1.83 19,1.34 53,6.11 c 43.49,5.86 86.88,13.6 130,21.72 v 184 l -21,-4.2 -49,-10.38 L 9380,182 c -78.51,-15.45 -158.06,-22.93 -238,-22 l -15,1 -17,1 h -9 l -47,5.92 c -37.51,6.2 -74.97,15.65 -108,35.09 -24.89,14.65 -53.63,41.88 -54,72.99 -0.14,12.37 0.47,21.15 4.7,33 9.2,25.76 32.2,46.2 54.3,61 52.13,34.92 112.62,56.4 171,78.42 l 115,41.27 c 57.57,20.49 114.85,42.36 171,66.46 47.92,20.57 95.67,42.82 140,70.43 63.31,39.42 121.4,90.2 142.57,164.42 6.69,23.45 9.71,49.66 9.43,74 l -0.91,10 c -1.08,15.82 -2.77,29.6 -6.94,45 -4.77,17.63 -10.03,30.76 -18.41,47 -39.35,76.26 -126.59,124.5 -204.74,152.31 l -41,13.03 c -60.22,18.81 -145.8,32.37 -209,38.49 l -18,1.34 -38,2.92 -27,1.91 -19,1.04 h -12 l -11,0.96 h -21 l -17,1 h -97 l -15,-1 h -26 l -17,-1 h -18 l -15,-1 -28,-1 -20,-1 -26,-1.91 -37,-2.26 -109,-11.11 -59,-7.99 -50,-7.73 z M 6931,8 h 491 164 82 l 13,1 h 19 l 10,0.96 h 9 l 19,1.04 10,0.91 28,2 c 33.78,2.36 67.4,6.39 101,10.81 67.9,8.94 156.84,26.14 221,48.97 40.14,14.29 82.04,34.55 119,55.74 77.07,44.19 144.68,99.96 196.57,172.57 42.93,60.07 71.9,133.07 83.16,206 l 5.36,52 0.91,12 v 49 l -0.96,11 c -0.91,20.82 -3.59,41.49 -7.43,62 -12,64.13 -33.68,120.77 -68.66,176 -48.99,77.34 -118.91,138.38 -196.95,185.2 -22.2,13.32 -55.51,31.75 -79,41.94 -10.36,4.49 -7.32,-1.93 -16,1.3 l -20,8.36 -43,15.18 c -68.65,21.33 -139.84,33.93 -211,43.3 -32.96,4.34 -65.87,7.54 -99,9.81 l -48,2.91 -14,1 h -17 l -14,1 h -82 -164 -491 z m 380,1008 h 165 84 l 17,-1 c 23.36,-0.04 46.77,-2.51 70,-4.83 81.99,-8.2 164.04,-28 238,-64.98 68.73,-34.36 127.28,-86.26 165.57,-153.19 23.45,-40.98 38.97,-91.17 44.58,-138 l 2.94,-31 0.91,-12 v -38 l -0.91,-12 -1.26,-19 c -4.97,-51.91 -20.27,-104.13 -45.14,-150 -28.66,-52.88 -72.13,-96.74 -121.69,-130.26 -15.57,-10.53 -32.21,-19.59 -49,-27.99 -72.87,-36.43 -153.18,-55.84 -234,-63.92 l -34,-2.92 -10,-0.91 -25,-1 -17,-1 h -95 -155 z M 5486.0001,40.000405 c 36.33,-6.539997 73.31,-11.239995 110,-15.159994 l 50,-5.669998 39,-3.339998 79.0001,-6.8299977 h 9 l 49,-2.9999989 13,-0.9999996 29,-0.9999996 15,-0.9999996 45,-0.9999996 15,-0.9999995 h 30 l 17.0001,-0.99999965138 h 88 l 15,0.99999965138 h 31 l 17,0.9999995 31,0.9999996 10,0.9999996 h 10 l 7,0.9099997 63.0001,4.919998 c 70.53,6.8299971 141.14,16.5799941 210,33.7999871 l 55.0001,15.039994 c 56.92,18.559993 108.31,38.529985 157,74.449972 34.35,25.32999 64.66,60.10997 76.5701,101.87996 3.22,11.28999 4.72,22.34999 5.52,33.99998 l 0.87,8 -2.88,32.99999 c -16.8501,102.53996 -118.2601,160.06994 -207.0801,193.57992 -28.76,10.85 -58.16,19.03999 -88.0001,26.28999 l -20,4.33 c -5.13,0.99 -8.18,0.32 -10,5.8 31.78,0 63.2201,5.43 94.0001,13.12999 73.23,18.3 150.46,57.32998 204,110.86996 34.7601,34.75999 59.5501,71.87997 71.5301,119.99995 2.58,10.37 4.29,21.36999 5.43,31.99999 v 10 l 1.04,9.99999 -0.91,13 c -1.66,24.08999 -6.37,43.48998 -15.15,65.99997 -9.29,23.80999 -29.03,52.08998 -46.11,70.99997 -29.5401,32.70997 -73.0401,62.70997 -111.8301,83.68997 -65.39,35.37 -141.65,60.36 -214.0001,76.9599 -61.42,14.1 -122.34,23.45 -185.0001,29.52 l -27,2.83 h -9 l -26,2 -22,1 -13,1 h -18 l -16,1 h -94 l -15,-1 h -29.0001 l -17,-1 -45,-1 -14,-1 -28,-1 -16,-1 -14,-1 h -9 l -22,-2 h -9 l -67.0001,-5.83 -65,-6.34 -43,-5.55 C 5565.7801,1150.2099 5511.8101,1141.8 5458,1132 V 936.00005 l 61.0001,15.63 117,27.15999 c 63.4,13.47999 127.5601,24.47996 192.0001,31.36996 l 65,5.93 32,1.91 14,1.04 h 15 l 12,0.96 c 66.0601,0.1 134.0201,-1.81 199.0001,-14.8 60.56,-12.10997 120.9801,-28.16996 173.0001,-62.86995 27.52,-18.34999 52.99,-42.82998 64.94,-74.32997 4.41,-11.65 6.84,-22.53999 7.08,-34.99999 0.29,-14.38999 -0.27,-23.99999 -4.46,-37.99998 -17.98,-60.13998 -86.85,-91.10997 -141.56,-109.32996 -50.8801,-16.94999 -106.9001,-25.39999 -160.0001,-31.94999 l -84,-7.80999 -10,-0.91 -20,-1 -22.0001,-1 -15,-1 h -15 l -16,-1 h -25 l -17,-1 H 5690.0001 V 476.00023 h 195.0001 l 15,-1 h 24 l 12,-0.96 h 15 l 15,-1.04 32.0001,-1.91 23,-1.17999 36,-3.74 c 52.69,-5.27 113.76,-14.58 164,-31.16999 41.5901,-13.73 85.4101,-32.41999 113.9201,-66.99997 14.43,-17.51 22.4,-37.20999 23.14,-59.90998 0.26,-7.79 -0.08,-15.58999 -2.41,-23.08999 -9.27,-29.87999 -33.57,-51.31998 -59.65,-66.99998 -47.18,-28.35998 -99.5701,-41.57998 -153.0001,-52.19998 -28.92,-5.74999 -58.65,-8.86999 -88,-10.88999 l -10,-0.91 -18,-1.04 h -16 l -12,-0.96 h -49.0001 l -17,1 h -16 l -21,1 -16,1 -12,0.91 -38,2.92 -45,4.33 c -42.43,4.54999 -85.0601,11.58999 -127.0001,19.44999 l -122,25.80999 -50,11.57999 z"
       transform="matrix(0.04638768,0,0,0.04638768,0,-1.9522191e-5)" />
    <path
       id="path4268-3"
       style="display:inline;fill:#cccccc;fill-opacity:1;stroke:none;stroke-width:0.999728"
       d="m 220.99394,28.772397 h 2.45797 4.63746 14.05164 c 2.3916,-0.0014 4.54288,1.719581 5.11832,4.029533 0.086,0.380275 0.17266,0.766591 0.17266,1.159369 v 15.211035 c -6.4e-4,0.3928 -0.065,0.77909 -0.17266,1.159369 -0.57532,2.309944 -2.72672,4.030925 -5.11832,4.034634 h -20.77619 c -2.39136,-0.0037 -4.54282,-1.72469 -5.11826,-4.034634 -0.086,-0.380281 -0.17266,-0.76657 -0.17266,-1.159369 V 33.961299 c 4.1e-4,-0.3928 0.065,-0.779091 0.17266,-1.159369 0.40969,-1.644453 1.5711,-2.957804 3.1243,-3.623288 0.57122,-0.244866 1.0237,-0.304675 1.62284,-0.406249 z m 0.51094,4.450619 c -0.63578,0.155817 -0.97413,0.607519 -0.97413,1.24842 v 6.90989 7.559144 c 0.0117,0.749889 0.59698,1.158443 1.29743,1.159369 h 9.97059 8.57951 0.92672 c 0.70473,0 1.31031,0.0037 1.60991,-0.788379 0.065,-0.173492 0.065,-0.283816 0.065,-0.463747 v -12.011152 -2.36513 c -10e-4,-0.801828 -0.51504,-1.250748 -1.29743,-1.24842 H 228.27994 223.828 Z M 220.99394,0.37621139 h 2.45797 4.63746 14.05164 c 2.3916,-0.001392 4.54288,1.71958141 5.11832,4.02953331 0.086,0.380275 0.17266,0.7665907 0.17266,1.1593689 V 20.776148 c -6.4e-4,0.3928 -0.065,0.77909 -0.17266,1.159369 -0.57532,2.309944 -2.72672,4.030925 -5.11832,4.034634 h -20.77619 c -2.39136,-0.0037 -4.54282,-1.72469 -5.11826,-4.034634 -0.086,-0.380281 -0.17266,-0.76657 -0.17266,-1.159369 V 5.5651136 c 4.1e-4,-0.3927999 0.065,-0.7790909 0.17266,-1.1593689 0.40969,-1.644453 1.5711,-2.9578042 3.1243,-3.62328795 0.57122,-0.24486638 1.0237,-0.30467539 1.62284,-0.40624946 z m 0.51094,4.45061941 c -0.63578,0.1558171 -0.97413,0.6075183 -0.97413,1.24842 v 6.9098892 7.559144 c 0.0117,0.749889 0.59698,1.158443 1.29743,1.159369 h 9.97059 8.57951 0.92672 c 0.70473,0 1.31031,0.0037 1.60991,-0.788379 0.065,-0.173492 0.065,-0.283816 0.065,-0.463747 V 8.4403756 6.0752455 c -10e-4,-0.8018277 -0.51504,-1.2507476 -1.29743,-1.24842 H 228.27994 223.828 Z" />
  </g>
</svg>
