<?xml version="1.0" encoding="UTF-8" standalone="no"?>
<svg
   width="480.00003"
   height="58.589565"
   viewBox="0 0 449.96149 54.922967"
   version="1.1"
   id="svg9100"
   xmlns="http://www.w3.org/2000/svg"
   xmlns:svg="http://www.w3.org/2000/svg">
  <defs
     id="defs9104" />
  <g
     id="g12555"
     style="stroke:none;fill:#cccccc;fill-opacity:1"
     transform="matrix(0.04638768,0,0,0.04638768,0,-1.9522191e-5)">
    <path
       d="m 5486.0001,40.000405 c 36.33,-6.539997 73.31,-11.239995 110,-15.159994 l 50,-5.669998 39,-3.339998 79.0001,-6.8299977 h 9 l 49,-2.9999989 13,-0.9999996 29,-0.9999996 15,-0.9999996 45,-0.9999996 15,-0.9999995 h 30 l 17.0001,-0.99999965138 h 88 l 15,0.99999965138 h 31 l 17,0.9999995 31,0.9999996 10,0.9999996 h 10 l 7,0.9099997 63.0001,4.919998 c 70.53,6.8299971 141.14,16.5799941 210,33.7999871 l 55.0001,15.039994 c 56.92,18.559993 108.31,38.529985 157,74.449972 34.35,25.32999 64.66,60.10997 76.5701,101.87996 3.22,11.28999 4.72,22.34999 5.52,33.99998 l 0.87,8 -2.88,32.99999 c -16.8501,102.53996 -118.2601,160.06994 -207.0801,193.57992 -28.76,10.85 -58.16,19.03999 -88.0001,26.28999 l -20,4.33 c -5.13,0.99 -8.18,0.32 -10,5.8 31.78,0 63.2201,5.43 94.0001,13.12999 73.23,18.3 150.46,57.32998 204,110.86996 34.7601,34.75999 59.5501,71.87997 71.5301,119.99995 2.58,10.37 4.29,21.36999 5.43,31.99999 v 10 l 1.04,9.99999 -0.91,13 c -1.66,24.08999 -6.37,43.48998 -15.15,65.99997 -9.29,23.80999 -29.03,52.08998 -46.11,70.99997 -29.5401,32.70997 -73.0401,62.70997 -111.8301,83.68997 -65.39,35.37 -141.65,60.36 -214.0001,76.9599 -61.42,14.1 -122.34,23.45 -185.0001,29.52 l -27,2.83 h -9 l -26,2 -22,1 -13,1 h -18 l -16,1 h -94 l -15,-1 h -29.0001 l -17,-1 -45,-1 -14,-1 -28,-1 -16,-1 -14,-1 h -9 l -22,-2 h -9 l -67.0001,-5.83 -65,-6.34 -43,-5.55 C 5565.7801,1150.2099 5511.8101,1141.8 5458,1132 V 936.00005 l 61.0001,15.63 117,27.15999 c 63.4,13.47999 127.5601,24.47996 192.0001,31.36996 l 65,5.93 32,1.91 14,1.04 h 15 l 12,0.96 c 66.0601,0.1 134.0201,-1.81 199.0001,-14.8 60.56,-12.10997 120.9801,-28.16996 173.0001,-62.86995 27.52,-18.34999 52.99,-42.82998 64.94,-74.32997 4.41,-11.65 6.84,-22.53999 7.08,-34.99999 0.29,-14.38999 -0.27,-23.99999 -4.46,-37.99998 -17.98,-60.13998 -86.85,-91.10997 -141.56,-109.32996 -50.8801,-16.94999 -106.9001,-25.39999 -160.0001,-31.94999 l -84,-7.80999 -10,-0.91 -20,-1 -22.0001,-1 -15,-1 h -15 l -16,-1 h -25 l -17,-1 H 5690.0001 V 476.00023 h 195.0001 l 15,-1 h 24 l 12,-0.96 h 15 l 15,-1.04 32.0001,-1.91 23,-1.17999 36,-3.74 c 52.69,-5.27 113.76,-14.58 164,-31.16999 41.5901,-13.73 85.4101,-32.41999 113.9201,-66.99997 14.43,-17.51 22.4,-37.20999 23.14,-59.90998 0.26,-7.79 -0.08,-15.58999 -2.41,-23.08999 -9.27,-29.87999 -33.57,-51.31998 -59.65,-66.99998 -47.18,-28.35998 -99.5701,-41.57998 -153.0001,-52.19998 -28.92,-5.74999 -58.65,-8.86999 -88,-10.88999 l -10,-0.91 -18,-1.04 h -16 l -12,-0.96 h -49.0001 l -17,1 h -16 l -21,1 -16,1 -12,0.91 -38,2.92 -45,4.33 c -42.43,4.54999 -85.0601,11.58999 -127.0001,19.44999 l -122,25.80999 -50,11.57999 z"
       style="display:inline;fill:#cccccc;fill-opacity:1;stroke:none;stroke-width:1"
       id="path12533" />
    <path
       d="m 4764,624.11017 h 53 100 303.0002 c 51.47,-0.03 97.99,37.17999 110.37,86.88997 2.05,8.2 3.62,16.52999 3.63,24.99999 V 1060 c -0.01,8.72 -1.58,17.6 -3.85,26 -13.19,48.76 -57.88,85.9199 -109.15,85.9999 H 4771 c -51.27,-0.08 -95.9601,-37.2399 -109.1501,-85.9999 -2.27,-8.4 -3.84,-17.28 -3.85,-26 V 736.00013 c 0.06,-39.80998 25.4,-78.93997 60.0001,-97.68996 17.13,-9.29 27.24,-11.17 46,-14.2 z m 11,95.96997 c -13.72,3.36 -20.98,13.09999 -21,26.91999 V 896.00007 1059 c 0.22,16.17 12.85,24.98 28,25 h 215.0001 185 20 c 15.18,0 28.2401,0.08 34.7301,-17 1.42,-3.74 1.26,-6.12 1.27,-10 V 798.00011 747.00013 c -0.03,-17.29 -11.09,-26.96999 -28.0001,-26.91999 H 4921 4825 Z"
       style="fill:#cccccc;fill-opacity:1;stroke:none;stroke-width:1"
       id="path11046" />
    <path
       id="Selection"
       fill="none"
       stroke="black"
       stroke-width="1"
       d="m 8539,948 33,10.98 64,17.37 c 83.8,19.23 168.53,31.54 254,39.82 37.21,3.6 74.61,6.4 112,6.83 l 15,1 h 41 l 12,-0.96 h 12 l 10,-0.95 34,-2.94 c 66.52,-7.95 153.9,-31.69 181.55,-100.15 5.93,-14.68 6.97,-25.56 8.13,-41 l -0.64,-9 c -1.54,-31.86 -20.56,-54.64 -44.04,-74.25 -19.15,-15.98 -41.05,-27.95 -63,-39.53 -36.91,-19.47 -79.9,-37.77 -119,-52.64 L 9027,678.42 8897,629.2 C 8831.07,603.29 8762.76,573.85 8702,537.4 8638.13,499.08 8575.01,447 8552.72,373 c -4.07,-13.5 -8.7,-37.05 -8.72,-51 l -0.68,-15 0.68,-14 c 0.21,-17.84 7.15,-44.38 13.8,-61 37.02,-92.55 135.27,-145.35 225.2,-175.33 64.21,-21.41 137.71,-35.64 205,-42.83 l 54,-4.93 28,-1.91 15,-1 19,-1 h 17 l 17,-1 h 91 l 15,1 h 24 l 15,1 h 16 l 15,1 22,1 12,1 h 9 l 17,1.83 19,1.34 53,6.11 c 43.49,5.86 86.88,13.6 130,21.72 v 184 l -21,-4.2 -49,-10.38 L 9380,182 c -78.51,-15.45 -158.06,-22.93 -238,-22 l -15,1 -17,1 h -9 l -47,5.92 c -37.51,6.2 -74.97,15.65 -108,35.09 -24.89,14.65 -53.63,41.88 -54,72.99 -0.14,12.37 0.47,21.15 4.7,33 9.2,25.76 32.2,46.2 54.3,61 52.13,34.92 112.62,56.4 171,78.42 l 115,41.27 c 57.57,20.49 114.85,42.36 171,66.46 47.92,20.57 95.67,42.82 140,70.43 63.31,39.42 121.4,90.2 142.57,164.42 6.69,23.45 9.71,49.66 9.43,74 l -0.91,10 c -1.08,15.82 -2.77,29.6 -6.94,45 -4.77,17.63 -10.03,30.76 -18.41,47 -39.35,76.26 -126.59,124.5 -204.74,152.31 l -41,13.03 c -60.22,18.81 -145.8,32.37 -209,38.49 l -18,1.34 -38,2.92 -27,1.91 -19,1.04 h -12 l -11,0.96 h -21 l -17,1 h -97 l -15,-1 h -26 l -17,-1 h -18 l -15,-1 -28,-1 -20,-1 -26,-1.91 -37,-2.26 -109,-11.11 -59,-7.99 -50,-7.73 z M 0,8 h 81 l 8,1.02 9,7.98 16,16 12,11.04 25,24.92 9,8.08 28,27.79 32,31.13 9,8.08 25,24.92 10,9.05 24,23.95 L 504,411 V 8 h 100 v 552 h -72 c -10.01,-0.02 -12.85,-4.2 -20,-11.04 L 489,526 476,513.99 385,425 l -11,-10.04 -26,-25.92 -9,-8.08 -25,-24.92 -9,-8.08 -26,-25.92 -10,-9.05 -24,-23.95 -9,-8.08 -25,-24.92 -10,-9.05 L 176,222.04 104,152 V 560 H 0 Z M 764,8 H 868 V 560 H 764 Z m 264,0 h 81 c 11.31,0.02 13.2,5.28 21,13 l 14,13 80,78 19,18.04 25,24.92 9,8.08 59,57.92 9,8.08 26,25.92 10,9.05 24,23.95 10,9.05 57,55.98 14,13.01 30,29.04 c 5.61,5.36 10.67,11.43 17,15.96 V 8 h 100 v 552 h -73 c -11.23,-0.02 -13.26,-5.28 -21,-13 l -18,-17 -64,-62.04 -26,-25.92 -147,-142.08 -24,-23.95 -10,-9.05 -34,-33.05 -25,-24.9 -27,-26.01 -32,-30 v 407 h -104 z m 717,0 h 604 v 96 H 2101 V 560 H 1993 V 104 h -248 z m 1236,0 h 20 v 96 h -436 v 124 h 340 v 96 h -340 v 144 h 436 v 96 H 2461 V 12 h 520 z m 172,0 h 81 l 7,0.6 9,7.4 16,15.58 30,29.38 9,8.08 25,24.92 17,16.04 60,58.04 24,23.95 10,9.05 26,25.92 9,8.08 25,24.92 77,74.08 25,24.92 54,52.04 V 8 h 101 v 552 h -73 c -11.26,-0.02 -12.14,-4.44 -20,-11.96 l -18,-17.04 -60,-58.04 -26,-25.87 -34,-33.05 -10,-9.05 -24,-23.95 -148,-143.08 -67,-65.13 c -6.83,-6.18 -13.76,-14.64 -21,-19.83 v 407 h -104 z m 765,0 h 337 79 l 12,0.91 c 50.88,3.56 95.67,21.99 133,57.18 13.3,12.54 26.23,30.99 35.28,46.91 25.76,45.29 38.12,102.17 38.72,154 l 1,21 -1,13 c -0.8,68.61 -22.82,150.76 -73.01,199.96 -10.45,10.24 -24.44,20.87 -36.99,28.44 -14.99,9.04 -31.15,16.21 -48,21.02 -16.2,4.62 -32.22,7.49 -49,8.67 l -12,0.91 h -416 z m 846,0.11 h 53 100 303 c 51.57,-0.03 97.96,37.08 110.37,86.89 2.05,8.2 3.62,16.53 3.63,25 v 328 c -0.01,8.47 -1.58,16.8 -3.63,25 -12.41,49.81 -58.8,86.92 -110.37,87 h -448 c -51.57,-0.08 -97.96,-37.19 -110.37,-87 -2.05,-8.2 -3.62,-16.53 -3.63,-25 V 120 c 0.01,-8.47 1.58,-16.8 3.63,-25 8.83,-35.46 33.88,-63.78 67.37,-78.13 12.32,-5.28 22.06,-6.57 35,-8.76 z M 6931,8 h 491 164 82 l 13,1 h 19 l 10,0.96 h 9 l 19,1.04 10,0.91 28,2 c 33.78,2.36 67.4,6.39 101,10.81 67.9,8.94 156.84,26.14 221,48.97 40.14,14.29 82.04,34.55 119,55.74 77.07,44.19 144.68,99.96 196.57,172.57 42.93,60.07 71.9,133.07 83.16,206 l 5.36,52 0.91,12 v 49 l -0.96,11 c -0.91,20.82 -3.59,41.49 -7.43,62 -12,64.13 -33.68,120.77 -68.66,176 -48.99,77.34 -118.91,138.38 -196.95,185.2 -22.2,13.32 -55.51,31.75 -79,41.94 -10.36,4.49 -7.32,-1.93 -16,1.3 l -20,8.36 -43,15.18 c -68.65,21.33 -139.84,33.93 -211,43.3 -32.96,4.34 -65.87,7.54 -99,9.81 l -48,2.91 -14,1 h -17 l -14,1 h -82 -164 -491 z M 4014,464 h 319 c 54.96,-0.09 94.25,-37.56 112.68,-87 6.38,-17.11 9.84,-31 12.73,-49 2.3,-14.3 3.76,-35.51 3.59,-50 l -0.96,-11 c -2.81,-64.63 -26.29,-137.87 -95.04,-158.28 -8.62,-2.56 -24.01,-4.71 -33,-4.72 h -319 z m 761,-359.92 c -13.72,3.36 -20.98,13.1 -21,26.92 v 149 163 c 0.22,16.17 12.85,24.98 28,25 h 215 185 20 c 15.18,0 28.24,0.08 34.73,-17 1.42,-3.74 1.26,-6.12 1.27,-10 V 182 131 c -0.03,-17.29 -11.09,-26.97 -28,-26.92 h -289 -96 z M 7311,1016 h 165 84 l 17,-1 c 23.36,-0.04 46.77,-2.51 70,-4.83 81.99,-8.2 164.04,-28 238,-64.98 68.73,-34.36 127.28,-86.26 165.57,-153.19 23.45,-40.98 38.97,-91.17 44.58,-138 l 2.94,-31 0.91,-12 v -38 l -0.91,-12 -1.26,-19 c -4.97,-51.91 -20.27,-104.13 -45.14,-150 -28.66,-52.88 -72.13,-96.74 -121.69,-130.26 -15.57,-10.53 -32.21,-19.59 -49,-27.99 -72.87,-36.43 -153.18,-55.84 -234,-63.92 l -34,-2.92 -10,-0.91 -25,-1 -17,-1 h -95 -155 z"
       style="fill:#cccccc;fill-opacity:1;stroke:none" />
  </g>
</svg>
