<?xml version="1.0" encoding="UTF-8" standalone="no"?>
<svg
   version="1.1"
   id="svg28"
   sodipodi:docname="icon-dark.svg"
   width="256"
   height="256"
   inkscape:version="1.2.2 (b0a8486541, 2022-12-01)"
   xmlns:inkscape="http://www.inkscape.org/namespaces/inkscape"
   xmlns:sodipodi="http://sodipodi.sourceforge.net/DTD/sodipodi-0.dtd"
   xmlns="http://www.w3.org/2000/svg"
   xmlns:svg="http://www.w3.org/2000/svg">
  <defs
     id="defs32" />
  <sodipodi:namedview
     id="namedview30"
     pagecolor="#ffffff"
     bordercolor="#666666"
     borderopacity="1.0"
     inkscape:showpageshadow="2"
     inkscape:pageopacity="0"
     inkscape:pagecheckerboard="true"
     inkscape:deskcolor="#d1d1d1"
     showgrid="false"
     inkscape:zoom="1.0733333"
     inkscape:cx="265.06212"
     inkscape:cy="107.14286"
     inkscape:window-width="1920"
     inkscape:window-height="1023"
     inkscape:window-x="1775"
     inkscape:window-y="29"
     inkscape:window-maximized="1"
     inkscape:current-layer="svg28" />
  <g
     id="g372"
     inkscape:label="logo"
     style="display:inline"
     transform="matrix(2.4616659,0,0,2.4616659,0,46.445006)">
    <g
       id="g319"
       inkscape:label="planet"
       style="display:inline">
      <path
         d="m 13.509978,32.348 c 2.221,-1.679 5.394,-3.767 9.029,-5.587 3.639,-1.949 7.733,-3.702 12.28,-5.456 v 0.065 c 4.482,-1.689 9.223,-3.248 14.161,-4.612 5.003,-1.43 9.938,-2.599 14.875,-3.443 5.001,-0.974 9.808,-1.56 14.357,-1.82 4.678,-0.39 10.01,-0.027 11.353,0.065 1.344,0.093 3.262,-0.194 4.106,-0.843 0.846,-0.714 1.3,-1.561 1.429,-2.598 0.131,-1.106 -0.194,-2.079 -0.842,-2.86 -0.715,-0.844 -2.273,-1.362 -3.313,-1.428 -4.159,-0.456 -8.12,-0.456 -13.251,-0.132 -4.809,0.325 -9.876,0.974 -15.267,1.949 -5.132,0.909 -10.33,2.144 -15.527,3.573 -5.197,1.43 -10.131,3.054 -14.809,4.806 -4.872,1.886 -10.137,4.271 -13.124,5.784 -2.986,1.512 -6.833,3.683 -10.084,6.365 -3.251,2.681 -4.628,3.964 -6.806,7.339 -2.17799999,3.376 -2.67699999,7.204 -1.33599999,9.496 3.45099999,5.901 15.75799999,3.967 20.43599999,3.058 3.767,-0.778 8.379,-1.837 13.902,-3.394 4.026,-1.234 9.16,-2.858 15.394,-4.937 l 15.462,-5.066 c 5.651,-1.883 10.262,-3.314 13.837,-4.288 4.353,-1.3 12.083,-3.141 16.062,-2.42 -0.2,2.493 -3.296,9.169 -17.105,15.347 -5.133,2.339 -10.848,4.483 -17.15,6.561 h -0.065 c -4.869,1.559 -9.871,2.924 -15.005,4.158 -5.002,1.171 -9.681,2.014 -14.163,2.729 l 0.066,-0.065 c -7.05,0.983 -17.186,0.108 -19.189,0.37 -3.965,0.252 -4.929,2.749 -4.971,3.832 -0.043,1.08 -0.096,3.613 5.184,3.941 5.281,0.328 10.211,0.765 20.081,-0.414 6.126,-0.903 9.614,-1.623 14.746,-2.792 h 0.065 c 5.328,-1.3 10.524,-2.73 15.591,-4.354 6.626,-2.077 12.668,-4.416 18.057,-6.884 12.119,-5.436 16.482,-10.405 19.322002,-14.676 2.841,-4.271 3.877,-10.141 0.929,-12.897 -3.375002,-3.158 -9.797002,-2.594 -12.002002,-2.385 -3.152,0.3 -7.858,1.051 -12.599,2.414 -3.637,1.04 -8.317,2.47 -14.163,4.42 l -15.459,5.066 c -6.171,2.014 -11.174,3.639 -15.136,4.807 -5.262,1.561 -9.615,2.729 -13.254,3.444 -8.307,1.913 -10.978,0.843 -10.978,0.843 -0.112,-2.38 2.654,-5.402 4.874,-7.081 z"
         style="fill:#77777f;fill-opacity:1"
         id="path2"
         inkscape:label="ring2" />
      <circle
         cx="52.570976"
         cy="33.130001"
         r="33.130001"
         style="fill:#333333;fill-opacity:1"
         id="circle4"
         inkscape:label="core" />
      <path
         d="m 21.176978,46.07 c 3.767,-0.778 8.379,-1.837 13.902,-3.394 4.026,-1.234 15.394,-4.937 15.394,-4.937 l 15.462,-5.066 c 5.651,-1.883 10.262,-3.314 13.837,-4.288 0,0 5.346,-1.408 6.254,-1.57 -0.325,-3.373 -2.261,-7.427 -2.261,-7.427 -1.952,0.377 -4.041,0.86 -6.137,1.463 -3.637,1.039 -8.316,2.469 -14.163,4.418 l -15.459,5.066 c -6.171,2.014 -11.174,3.639 -15.136,4.807 -8.158,2.543 -13.707,3.546 -13.927,3.595 -0.001,0 0.735,4.832 2.234,7.333 z"
         style="display:inline;fill:#77777f;fill-opacity:1"
         id="path6"
         inkscape:label="ring1" />
    </g>
  </g>
</svg>
