<?xml version="1.0" encoding="UTF-8" standalone="no"?>
<svg
   version="1.1"
   id="svg28"
   sodipodi:docname="logo-dark.svg"
   width="480"
   height="49.268261"
   inkscape:version="1.2.2 (b0a8486541, 2022-12-01)"
   xmlns:inkscape="http://www.inkscape.org/namespaces/inkscape"
   xmlns:sodipodi="http://sodipodi.sourceforge.net/DTD/sodipodi-0.dtd"
   xmlns="http://www.w3.org/2000/svg"
   xmlns:svg="http://www.w3.org/2000/svg">
  <defs
     id="defs32" />
  <sodipodi:namedview
     id="namedview30"
     pagecolor="#ffffff"
     bordercolor="#666666"
     borderopacity="1.0"
     inkscape:showpageshadow="2"
     inkscape:pageopacity="0"
     inkscape:pagecheckerboard="true"
     inkscape:deskcolor="#d1d1d1"
     showgrid="false"
     inkscape:zoom="1.0733333"
     inkscape:cx="143.9441"
     inkscape:cy="97.82609"
     inkscape:window-width="1920"
     inkscape:window-height="1023"
     inkscape:window-x="1775"
     inkscape:window-y="29"
     inkscape:window-maximized="1"
     inkscape:current-layer="svg28" />
  <g
     id="g372"
     inkscape:label="logo"
     style="display:inline"
     transform="matrix(1.0042743,0,0,1.0042743,-122.56455,-9.7367843)">
    <g
       id="g353"
       inkscape:label="text"
       style="display:inline;fill:#333333;fill-opacity:1">
      <g
         id="g267"
         inkscape:label="saturn"
         style="fill:#333333;fill-opacity:1">
        <path
           d="m 367.37598,16.705 c -0.613,-1.023 -1.44,-1.637 -2.469,-1.979 -18.741,-5.259 -30.825,-4.508 -36.178,2.392 -1.924,2.253 -3.091,4.438 -3.436,6.692 -0.413,2.253 -0.138,4.368 0.892,6.419 h -0.069 c 0.757,1.57 1.924,3.001 3.435,4.301 h 0.068 c 1.233,1.022 2.539,1.843 4.05,2.528 1.028,0.548 3.433,0.889 7.274,0.955 0.76,0.067 2.202,0.067 4.394,0.067 1.925,0.07 3.436,0.07 4.532,0.14 h 0.069 c 3.433,0.071 6.918,0.402 8.035,0.746 1.11,0.353 3.071,2.378 3.223,3.288 0.158,0.905 0,0 0,0 0.204,0.544 0.415,0.687 0.214,2.07 -0.199,1.388 -0.625,1.138 -1.174,1.822 v -0.069 c -0.621,0.543 -1.65,0.95 -3.091,1.366 -2.056,0.479 -4.531,0.82 -7.415,0.886 -2.885,0.074 -5.766,0 -8.719,-0.338 -2.811,-0.343 -5.282,-0.821 -7.343,-1.436 -1.031,-0.341 -2.127,-0.268 -3.09,0.273 -1.032,0.483 -1.718,1.296 -2.058,2.388 -0.343,1.023 -0.205,2.116 0.27,3.138 0.553,0.956 1.378,1.641 2.407,1.984 2.468,0.817 5.421,1.365 8.857,1.777 3.365,0.339 6.655,0.478 9.953,0.409 3.573,-0.137 6.662,-0.549 9.202,-1.163 3.564,-0.891 6.041,-2.252 7.345,-4.029 h 0.069 c 1.098,-1.367 1.92,-2.6 2.403,-3.692 v -0.07 c 0.552,-1.364 0.825,-2.729 0.825,-4.163 V 43.27 c -0.067,-1.023 0.022,-2.518 -0.53,-3.958 -0.207,-0.75 -0.41,-1.163 -1.511,-3.544 -1.109,-2.382 -3.662,-3.906 -8.123,-4.857 h -0.07 c -2.194,-0.414 -5.353,-0.751 -9.4,-0.887 -1.168,-0.067 -2.746,-0.067 -4.807,-0.141 -2.057,0 -3.499,0 -4.258,-0.069 -2.193,-0.062 -3.636,-0.136 -4.186,-0.268 -0.757,-0.347 -1.44,-0.755 -1.993,-1.231 -0.615,-0.545 -1.097,-1.093 -1.373,-1.636 v -0.07 c -0.277,-0.41 -0.343,-0.887 -0.206,-1.366 0.206,-0.887 0.689,-1.842 1.579,-2.729 4.119,-3.963 13.319,-3.963 27.664,0.139 1.105,0.268 2.133,0.204 3.091,-0.411 1.034,-0.544 1.717,-1.369 1.994,-2.461 0.343,-1.026 0.206,-2.054 -0.346,-3.076 z"
           style="fill:#333333;fill-opacity:1"
           id="path16" />
        <path
           d="m 378.53198,56.571 c 0.893,-0.685 1.444,-1.573 1.648,-2.666 0.52,-3.425 1.085,-6.593 1.691,-9.488 h 26.662 c 0.694,3.283 1.334,6.9 1.924,10.855 0.205,1.093 0.684,1.984 1.647,2.664 0.892,0.682 1.92,0.957 3.022,0.751 1.098,-0.138 1.989,-0.686 2.675,-1.569 0.684,-0.96 0.961,-1.917 0.823,-3.075 -4.323,-28.478 -12.084,-42.41 -23.341,-41.726 -11.258,-0.684 -19.016,12.773 -23.274,40.362 -0.205,1.093 0.069,2.115 0.753,3.006 0.69,0.959 1.579,1.506 2.682,1.636 1.168,0.206 2.126,-0.064 3.088,-0.75 z m 5.382,-20.354 c 3.008,-10.105 6.811,-15.336 11.373,-15.704 4.466,0.357 8.21,5.598 11.202,15.704 z"
           style="fill:#333333;fill-opacity:1"
           id="path18" />
        <path
           d="m 453.84298,15.523 c -0.822,-0.749 -1.786,-1.16 -2.951,-1.16 h -35.696 c -1.102,0 -2.131,0.411 -2.888,1.16 -0.821,0.821 -1.234,1.777 -1.234,2.937 0,1.093 0.414,2.116 1.234,2.87 0.757,0.825 1.786,1.232 2.888,1.232 h 13.726 v 31.411 c 0,1.096 0.414,2.121 1.235,2.873 0.758,0.821 1.787,1.231 2.885,1.231 1.171,0 2.131,-0.411 2.95,-1.231 0.759,-0.752 1.171,-1.777 1.171,-2.873 V 22.56 h 13.728 c 1.166,0 2.129,-0.409 2.95,-1.23 0.758,-0.754 1.167,-1.777 1.167,-2.87 0.002,-1.159 -0.407,-2.115 -1.165,-2.937 z"
           style="fill:#333333;fill-opacity:1"
           id="path20" />
        <path
           d="m 501.94398,14.707 c -0.822,-0.821 -1.785,-1.229 -2.953,-1.229 -1.098,0 -2.126,0.408 -2.882,1.229 -0.823,0.747 -1.237,1.775 -1.237,2.868 v 20.28 c 0,1.576 -0.274,3.077 -0.887,4.443 -0.552,1.431 -1.444,2.594 -2.476,3.687 -1.098,1.023 -2.264,1.914 -3.704,2.459 -1.371,0.615 -2.884,0.885 -4.463,0.885 h -6.11 c -1.578,0 -3.021,-0.266 -4.461,-0.885 -1.442,-0.545 -2.606,-1.436 -3.705,-2.459 -1.033,-1.093 -1.856,-2.254 -2.475,-3.622 v -0.065 c -0.543,-1.366 -0.887,-2.867 -0.887,-4.443 V 17.573 c 0,-1.092 -0.415,-2.12 -1.169,-2.867 -0.829,-0.821 -1.782,-1.229 -2.951,-1.229 -1.095,0 -2.131,0.408 -2.883,1.229 -0.827,0.747 -1.236,1.775 -1.236,2.867 v 20.281 c 0,2.669 0.547,5.193 1.512,7.651 h 0.067 c 0.961,2.393 2.403,4.438 4.188,6.285 1.85,1.775 3.913,3.208 6.311,4.236 2.409,1.023 4.947,1.501 7.694,1.501 h 6.109 c 2.746,0 5.287,-0.478 7.759,-1.501 h -0.07 c 2.4,-1.028 4.461,-2.461 6.319,-4.236 1.78,-1.847 3.223,-3.892 4.257,-6.285 v 0.07 c 1.029,-2.461 1.513,-4.985 1.513,-7.721 V 17.573 c -0.011,-1.091 -0.424,-2.12 -1.18,-2.866 z"
           style="fill:#333333;fill-opacity:1"
           id="path22" />
        <path
           d="m 507.47598,14.747 c -0.728,0.747 -1.166,1.628 -1.166,2.71 v 35.274 c 0,1.082 0.438,2.1 1.239,2.848 0.879,0.811 1.975,1.219 3.142,1.219 1.239,0 2.26,-0.408 3.066,-1.219 0.879,-0.748 1.313,-1.766 1.313,-2.848 V 21.255 c 9.422,-0.539 16.642,-0.065 21.679,1.359 3.797,1.151 5.841,3.05 6.057,5.697 0.074,2.101 -0.8,3.596 -2.627,4.482 -2.923,1.221 -7.229,1.559 -12.917,0.946 -1.023,-0.07 -1.902,0.069 -2.779,0.609 -0.876,0.472 -1.461,1.151 -1.826,2.037 -0.366,0.814 -0.366,1.69 -0.144,2.575 0.29,0.886 0.878,1.559 1.683,2.1 l 21.904,14.924 c 0.948,0.669 2.04,0.946 3.211,0.743 1.24,-0.138 2.19,-0.679 2.918,-1.633 0.659,-0.881 0.951,-1.898 0.808,-2.983 -0.222,-1.154 -0.808,-2.032 -1.756,-2.713 l -11.607,-7.869 c 1.682,-0.402 3.138,-0.885 4.382,-1.489 4.966,-2.313 7.45,-6.239 7.527,-11.737 0.289,-6.507 -3.801,-10.984 -12.117,-13.431 -6.5,-2.032 -16.212,-2.51 -29.134,-1.489 -1.097,0.073 -2.046,0.545 -2.856,1.364 z"
           style="fill:#333333;fill-opacity:1"
           id="path24" />
        <path
           d="m 558.18998,15.453 c -0.483,0.685 -0.753,1.438 -0.753,2.322 v 35.516 c 0,1.095 0.409,2.121 1.233,2.868 0.754,0.821 1.783,1.229 2.883,1.229 1.168,0 2.128,-0.407 2.949,-1.229 0.756,-0.747 1.17,-1.772 1.17,-2.868 V 27.957 l 27.252,28.136 c 0.62,0.612 1.301,1.025 2.132,1.226 0.821,0.137 1.575,0.067 2.4,-0.201 0.759,-0.347 1.372,-0.821 1.856,-1.57 0.482,-0.685 0.688,-1.437 0.688,-2.258 V 17.775 c 0,-1.159 -0.414,-2.115 -1.172,-2.936 -0.823,-0.747 -1.78,-1.164 -2.95,-1.164 -1.097,0 -2.125,0.418 -2.883,1.164 -0.822,0.821 -1.235,1.777 -1.235,2.936 v 25.339 l -27.183,-28.205 c -0.621,-0.544 -1.305,-0.952 -2.132,-1.162 -0.82,-0.133 -1.648,-0.067 -2.4,0.276 -0.759,0.271 -1.441,0.751 -1.855,1.43 z"
           style="fill:#333333;fill-opacity:1"
           id="path26" />
      </g>
      <g
         id="g273"
         inkscape:label="sega"
         style="fill:#333333;fill-opacity:1">
        <path
           d="m 163.95498,17.066 c -0.608,-1.014 -1.43,-1.624 -2.449,-1.961 -18.583,-5.215 -30.567,-4.466 -35.874,2.372 -1.908,2.235 -3.065,4.403 -3.406,6.636 -0.41,2.233 -0.138,4.333 0.883,6.367 h -0.07 c 0.751,1.554 1.907,2.976 3.406,4.265 h 0.068 c 1.225,1.014 2.518,1.829 4.016,2.508 1.018,0.54 3.404,0.878 7.215,0.945 0.751,0.069 2.181,0.069 4.357,0.069 1.906,0.069 3.406,0.069 4.492,0.135 h 0.069 c 3.405,0.07 6.861,0.4 7.968,0.742 1.102,0.346 3.042,2.356 3.194,3.257 0.157,0.894 0,0 0,0 0.206,0.539 0.411,0.685 0.216,2.055 -0.199,1.371 -0.619,1.127 -1.166,1.805 0,0 0.021,-0.06 0,-0.072 -0.935,-0.609 -1.634,0.947 -3.063,1.356 -2.039,0.479 -4.494,0.814 -7.352,0.882 -2.86,0.068 -5.718,0 -8.645,-0.338 -2.792,-0.341 -5.241,-0.818 -7.285,-1.424 -1.02,-0.335 -2.108,-0.27 -3.065,0.274 -1.019,0.474 -1.702,1.285 -2.04,2.369 -0.341,1.014 -0.204,2.097 0.268,3.112 0.547,0.947 1.366,1.622 2.386,1.966 2.449,0.808 5.376,1.348 8.781,1.76 3.338,0.337 6.602,0.474 9.871,0.404 3.543,-0.137 6.606,-0.539 9.124,-1.149 3.538,-0.883 5.992,-2.237 7.284,-3.997 h 0.068 c 1.087,-1.358 1.903,-2.579 2.38,-3.663 v -0.069 c 0.548,-1.35 0.819,-2.708 0.819,-4.126 v -0.139 c -0.067,-1.014 0.018,-2.499 -0.527,-3.923 -0.205,-0.743 -0.404,-1.153 -1.499,-3.519 -1.098,-2.358 -3.628,-3.868 -8.054,-4.813 h -0.067 c -2.179,-0.41 -5.31,-0.748 -9.325,-0.882 -1.156,-0.07 -2.723,-0.07 -4.766,-0.139 -2.04,0 -3.469,0 -4.221,-0.068 -2.177,-0.063 -3.606,-0.135 -4.151,-0.267 -0.751,-0.341 -1.43,-0.746 -1.976,-1.22 -0.609,-0.542 -1.088,-1.083 -1.362,-1.622 v -0.07 c -0.274,-0.405 -0.342,-0.882 -0.205,-1.358 0.205,-0.88 0.683,-1.824 1.567,-2.706 4.083,-3.927 13.206,-3.927 27.434,0.136 1.094,0.269 2.113,0.204 3.064,-0.405 1.025,-0.539 1.702,-1.355 1.976,-2.438 0.345,-1.01 0.21,-2.029 -0.338,-3.047 z"
           style="fill:#333333;fill-opacity:1"
           id="path8" />
        <path
           d="m 204.01098,13.633 c -0.819,-0.745 -1.77,-1.152 -2.926,-1.152 h -27.233 c -1.089,0 -2.109,0.408 -2.86,1.152 -0.816,0.81 -1.224,1.764 -1.224,2.912 V 50.41 c 0,1.083 0.41,2.102 1.224,2.845 0.751,0.819 1.769,1.221 2.86,1.221 h 27.233 c 1.156,0 2.107,-0.404 2.926,-1.221 0.748,-0.743 1.158,-1.762 1.158,-2.845 0,-1.154 -0.41,-2.099 -1.158,-2.917 -0.819,-0.742 -1.77,-1.152 -2.926,-1.152 h -23.146 v -8.8 h 17.017 c 1.156,0 2.108,-0.404 2.927,-1.219 0.747,-0.749 1.158,-1.763 1.158,-2.846 0,-1.15 -0.41,-2.098 -1.158,-2.912 -0.819,-0.752 -1.771,-1.156 -2.927,-1.156 h -17.017 v -8.801 h 23.144 c 1.157,0 2.108,-0.411 2.927,-1.222 0.748,-0.747 1.158,-1.69 1.158,-2.845 0,-1.145 -0.41,-2.097 -1.157,-2.907 z"
           style="fill:#333333;fill-opacity:1"
           id="path10" />
        <path
           d="m 251.02398,18.425 c -0.2,-1.176 -0.814,-2.131 -1.695,-2.79 -7.473,-5.368 -15.664,-6.387 -23.581,-4.996 -3.122,0.732 -4.133,0.658 -7.544,2.349 -3.404,1.685 -5.777,4.817 -5.777,4.817 -1.629,1.767 -2.513,3.924 -3.601,6.783 -1.089,2.859 -1.083,4.277 -1.219,7.805 -0.136,3.532 0.336,6.768 1.355,9.851 1.018,3.093 2.581,5.815 4.69,8.094 v -0.08 c 2.038,2.357 4.552,4.187 7.473,5.366 2.921,1.252 6.115,1.915 9.578,1.915 8.152,0 14.07,-1.845 17.738,-5.517 4.281,-3.748 6.045,-9.404 5.367,-16.975 -0.068,-1.176 -0.54,-2.064 -1.292,-2.868 -0.814,-0.738 -1.696,-1.106 -2.787,-1.106 h -17.665 c -1.083,0 -2.101,0.437 -2.859,1.249 -0.813,0.881 -1.221,1.906 -1.221,3.16 0,1.177 0.408,2.278 1.221,3.085 0.758,0.882 1.777,1.321 2.859,1.321 h 13.593 c -0.273,2.207 -1.158,4.05 -2.518,5.441 -2.648,2.279 -6.791,3.381 -12.432,3.381 -2.38,0 -4.623,-0.439 -6.591,-1.248 l -0.069,-0.072 c -1.769,-0.738 -3.261,-1.768 -4.555,-3.237 -1.288,-1.395 -2.244,-3.088 -2.853,-4.923 -0.679,-1.985 -0.951,-4.189 -0.881,-6.542 0.066,-2.497 0.34,-3.854 0.812,-5.542 0.344,-1.254 0.884,-2.279 1.632,-3.088 0,0 1.216,-1.888 3.264,-2.907 2.05,-1.025 3.533,-1.323 6.047,-1.986 h 0.069 c 5.983,-1.47 11.689,-0.221 17.195,3.82 0.947,0.663 1.967,0.882 3.05,0.663 1.09,-0.293 1.971,-0.884 2.585,-1.912 0.612,-0.955 0.817,-2.058 0.612,-3.311 z"
           style="fill:#333333;fill-opacity:1"
           id="path12" />
        <path
           d="m 302.47098,54.148 c 0.681,-0.947 0.949,-1.892 0.815,-3.045 -4.288,-28.244 -11.979,-42.062 -23.144,-41.383 -11.159,-0.679 -18.925,12.666 -23.079,40.026 -0.139,1.083 0.07,2.099 0.753,2.984 0.679,0.945 1.563,1.485 2.651,1.624 1.092,0.199 2.111,-0.073 3.064,-0.752 0.883,-0.676 1.433,-1.554 1.636,-2.643 0.51,-3.398 1.073,-6.538 1.676,-9.414 h 0.022 26.41 c 0.686,3.256 1.326,6.843 1.913,10.764 0.203,1.083 0.682,1.967 1.632,2.646 0.883,0.679 1.907,0.945 2.996,0.74 1.088,-0.122 1.971,-0.663 2.655,-1.547 z m -33.605,-20.721 c 2.979,-10.022 6.747,-15.213 11.272,-15.578 4.389,0.36 8.113,5.556 11.098,15.578 z"
           style="fill:#333333;fill-opacity:1"
           id="path14" />
      </g>
    </g>
  </g>
</svg>
