<?xml version="1.0" encoding="UTF-8" standalone="no"?>
<!-- Generator: Adobe Illustrator 21.0.0, SVG Export Plug-In . SVG Version: 6.00 Build 0)  -->

<svg
   version="1.1"
   id="Layer_1"
   x="0px"
   y="0px"
   width="480"
   height="50.602085"
   viewBox="0 0 480 50.602085"
   xml:space="preserve"
   sodipodi:docname="logo.svg"
   inkscape:version="1.2.2 (b0a8486541, 2022-12-01)"
   xmlns:inkscape="http://www.inkscape.org/namespaces/inkscape"
   xmlns:sodipodi="http://sodipodi.sourceforge.net/DTD/sodipodi-0.dtd"
   xmlns="http://www.w3.org/2000/svg"
   xmlns:svg="http://www.w3.org/2000/svg"><defs
   id="defs142" /><sodipodi:namedview
   id="namedview140"
   pagecolor="#ffffff"
   bordercolor="#666666"
   borderopacity="1.0"
   inkscape:showpageshadow="2"
   inkscape:pageopacity="0.0"
   inkscape:pagecheckerboard="0"
   inkscape:deskcolor="#d1d1d1"
   showgrid="false"
   inkscape:zoom="0.805"
   inkscape:cx="123.60248"
   inkscape:cy="137.8882"
   inkscape:window-width="1920"
   inkscape:window-height="1023"
   inkscape:window-x="1775"
   inkscape:window-y="29"
   inkscape:window-maximized="1"
   inkscape:current-layer="Layer_1" />
<style
   type="text/css"
   id="style2">
	.st0{fill:url(#SVGID_1_);stroke:#484848;stroke-width:1.44;stroke-linecap:round;stroke-linejoin:round;}
	.st1{fill:url(#SVGID_2_);stroke:#484848;stroke-width:1.44;stroke-linecap:round;stroke-linejoin:round;}
	.st2{fill:url(#SVGID_3_);stroke:#484848;stroke-width:1.44;stroke-linecap:round;stroke-linejoin:round;}
	.st3{fill:url(#SVGID_4_);stroke:#484848;stroke-width:1.44;stroke-linecap:round;stroke-linejoin:round;}
	.st4{fill:url(#SVGID_5_);stroke:#484848;stroke-width:1.44;stroke-linecap:round;stroke-linejoin:round;}
	.st5{fill:url(#SVGID_6_);stroke:#484848;stroke-width:1.44;stroke-linecap:round;stroke-linejoin:round;}
	.st6{fill:url(#SVGID_7_);stroke:#484848;stroke-width:1.44;stroke-linecap:round;stroke-linejoin:round;}
	.st7{fill:url(#SVGID_8_);stroke:#484848;stroke-width:1.44;stroke-linecap:round;stroke-linejoin:round;}
	.st8{fill:url(#SVGID_9_);stroke:#484848;stroke-width:1.44;stroke-linecap:round;stroke-linejoin:round;}
	.st9{fill:url(#SVGID_10_);stroke:#484848;stroke-width:1.44;stroke-linecap:round;stroke-linejoin:round;}
	.st10{fill:url(#SVGID_11_);}
	.st11{fill:url(#SVGID_12_);}
	.st12{fill:url(#SVGID_13_);}
	.st13{fill:#CCCCCC;}
	.st14{fill:url(#SVGID_14_);}
	.st15{fill:url(#SVGID_15_);}
	.st16{fill:none;stroke:#333333;stroke-width:1.44;stroke-linecap:round;stroke-linejoin:round;}
	.st17{fill:url(#SVGID_16_);stroke:#33317A;stroke-width:2.88;stroke-linecap:round;stroke-linejoin:round;}
	.st18{fill:url(#SVGID_17_);}
	.st19{fill:none;stroke:#333333;stroke-linecap:round;stroke-linejoin:round;}
</style>
<linearGradient
   id="SVGID_1_"
   gradientUnits="userSpaceOnUse"
   x1="194.8436"
   y1="197.0799"
   x2="250.60201"
   y2="252.838"
   gradientTransform="matrix(1,0,0,-1,0,286.1599)">
	<stop
   offset="0"
   style="stop-color:#999999"
   id="stop4" />
	<stop
   offset="0.98"
   style="stop-color:#F3F3F3"
   id="stop6" />
</linearGradient>

<linearGradient
   id="SVGID_2_"
   gradientUnits="userSpaceOnUse"
   x1="446.32361"
   y1="199.2144"
   x2="503.13419"
   y2="256.02539"
   gradientTransform="matrix(1,0,0,-1,0,286.1599)">
	<stop
   offset="0"
   style="stop-color:#999999"
   id="stop11" />
	<stop
   offset="0.98"
   style="stop-color:#F3F3F3"
   id="stop13" />
</linearGradient>

<linearGradient
   id="SVGID_3_"
   gradientUnits="userSpaceOnUse"
   x1="254.11011"
   y1="201.7711"
   x2="308.39819"
   y2="256.05939"
   gradientTransform="matrix(1,0,0,-1,0,286.1599)">
	<stop
   offset="0"
   style="stop-color:#999999"
   id="stop18" />
	<stop
   offset="0.98"
   style="stop-color:#F3F3F3"
   id="stop20" />
</linearGradient>

<linearGradient
   id="SVGID_4_"
   gradientUnits="userSpaceOnUse"
   x1="305.78229"
   y1="195.97141"
   x2="365.5387"
   y2="255.7276"
   gradientTransform="matrix(1,0,0,-1,0,286.1599)">
	<stop
   offset="0"
   style="stop-color:#999999"
   id="stop25" />
	<stop
   offset="0.98"
   style="stop-color:#F3F3F3"
   id="stop27" />
</linearGradient>

<linearGradient
   id="SVGID_5_"
   gradientUnits="userSpaceOnUse"
   x1="374.56409"
   y1="193.6812"
   x2="433.06021"
   y2="252.1768"
   gradientTransform="matrix(1,0,0,-1,0,286.1599)">
	<stop
   offset="0"
   style="stop-color:#999999"
   id="stop32" />
	<stop
   offset="0.98"
   style="stop-color:#F3F3F3"
   id="stop34" />
</linearGradient>

<linearGradient
   id="SVGID_6_"
   gradientUnits="userSpaceOnUse"
   x1="511.6803"
   y1="192.34599"
   x2="573.1214"
   y2="253.7868"
   gradientTransform="matrix(1,0,0,-1,0,286.1599)">
	<stop
   offset="0"
   style="stop-color:#999999"
   id="stop39" />
	<stop
   offset="0.98"
   style="stop-color:#F3F3F3"
   id="stop41" />
</linearGradient>

<linearGradient
   id="SVGID_7_"
   gradientUnits="userSpaceOnUse"
   x1="553.90302"
   y1="206.0959"
   x2="611.34528"
   y2="263.53851"
   gradientTransform="matrix(1,0,0,-1,0,286.1599)">
	<stop
   offset="0"
   style="stop-color:#999999"
   id="stop46" />
	<stop
   offset="0.98"
   style="stop-color:#F3F3F3"
   id="stop48" />
</linearGradient>

<linearGradient
   id="SVGID_8_"
   gradientUnits="userSpaceOnUse"
   x1="614.1767"
   y1="200.5295"
   x2="672.25018"
   y2="258.6026"
   gradientTransform="matrix(1,0,0,-1,0,286.1599)">
	<stop
   offset="0"
   style="stop-color:#999999"
   id="stop53" />
	<stop
   offset="0.98"
   style="stop-color:#F3F3F3"
   id="stop55" />
</linearGradient>

<linearGradient
   id="SVGID_9_"
   gradientUnits="userSpaceOnUse"
   x1="680.01678"
   y1="198.23801"
   x2="738.50928"
   y2="256.73071"
   gradientTransform="matrix(1,0,0,-1,0,286.1599)">
	<stop
   offset="0"
   style="stop-color:#999999"
   id="stop60" />
	<stop
   offset="0.98"
   style="stop-color:#F3F3F3"
   id="stop62" />
</linearGradient>

<linearGradient
   id="SVGID_10_"
   gradientUnits="userSpaceOnUse"
   x1="743.90729"
   y1="198.7372"
   x2="800.7207"
   y2="255.5506"
   gradientTransform="matrix(1,0,0,-1,0,286.1599)">
	<stop
   offset="0"
   style="stop-color:#999999"
   id="stop67" />
	<stop
   offset="0.98"
   style="stop-color:#F3F3F3"
   id="stop69" />
</linearGradient>

<g
   id="g537"
   inkscape:label="logo"
   transform="matrix(0.79133864,0,0,0.79133864,-153.56154,-21.346424)"><g
     id="g486"
     inkscape:label="text"><g
       id="g458"
       style="display:inline"
       inkscape:label="sega"><path
         class="st2"
         d="M 300.9,33.4 C 299.8,32.5 298.6,32 297.2,32 h -35.3 c -1.4,0 -2.6,0.5 -3.7,1.4 -1.1,1.1 -1.6,2.3 -1.6,3.7 v 43.7 c 0,1.4 0.5,2.6 1.6,3.7 1.1,1.1 2.3,1.6 3.7,1.6 h 35.3 c 1.4,0 2.6,-0.5 3.7,-1.6 0.9,-0.9 1.4,-2.3 1.4,-3.7 0,-1.4 -0.5,-2.6 -1.4,-3.7 -1.1,-0.9 -2.3,-1.4 -3.7,-1.4 h -30 V 64.3 h 22 c 1.4,0 2.6,-0.5 3.7,-1.6 0.9,-0.9 1.4,-2.3 1.4,-3.7 0,-1.4 -0.5,-2.6 -1.4,-3.7 -1.1,-0.9 -2.3,-1.4 -3.7,-1.4 h -22 V 42.4 h 30 c 1.4,0 2.6,-0.5 3.7,-1.6 0.9,-0.9 1.4,-2.1 1.4,-3.7 0.2,-1.4 -0.4,-2.6 -1.4,-3.7 z"
         id="path23"
         style="fill:url(#SVGID_3_)" /><path
         class="st3"
         d="m 361.7,39.6 c -0.2,-1.6 -1.1,-2.8 -2.1,-3.5 -9.7,-6.9 -20.3,-8.3 -30.5,-6.5 -4.1,0.9 -5.3,0.9 -9.7,3 -4.4,2.1 -7.4,6.2 -7.4,6.2 -2.1,2.3 -3.2,5.1 -4.6,8.8 -1.4,3.7 -1.4,5.5 -1.6,10.1 -0.2,4.6 0.4,8.8 1.8,12.7 1.2,4.1 3.4,7.6 6,10.4 v 0 c 2.6,3 5.8,5.5 9.7,6.9 3.7,1.6 7.9,2.5 12.3,2.5 10.6,0 18.2,-2.5 22.9,-7.1 5.5,-4.9 7.8,-12.2 6.9,-22 -0.2,-1.6 -0.7,-2.6 -1.6,-3.7 -1.1,-0.9 -2.1,-1.4 -3.5,-1.4 h -22.9 c -1.4,0 -2.6,0.5 -3.7,1.6 -1.1,1.1 -1.6,2.5 -1.6,4.1 0,1.6 0.5,3 1.6,4.1 1.1,1.1 2.3,1.8 3.7,1.8 H 355 c -0.4,2.8 -1.4,5.3 -3.2,7.1 -3.4,3 -8.8,4.4 -16,4.4 -3,0 -6,-0.5 -8.5,-1.6 l -0.2,-0.2 c -2.3,-0.9 -4.2,-2.3 -5.8,-4.2 -1.6,-1.8 -2.8,-4.1 -3.7,-6.3 -0.9,-2.6 -1.2,-5.5 -1.1,-8.5 0,-3.2 0.5,-4.9 1.1,-7.2 0.5,-1.6 1.1,-3 2.1,-4.1 0,0 1.6,-2.5 4.2,-3.7 2.6,-1.4 4.6,-1.8 7.8,-2.6 h 0.2 c 7.8,-1.9 15.2,-0.4 22.2,4.9 1.2,0.9 2.5,1.1 3.9,0.9 1.4,-0.4 2.5,-1.1 3.4,-2.5 0.3,-1.4 0.7,-2.8 0.3,-4.4 z"
         id="path30"
         style="fill:url(#SVGID_4_)" /><path
         class="st4"
         d="m 428.4,85.8 c 0.9,-1.2 1.2,-2.5 1.1,-3.9 C 424,45.4 414,27.4 399.5,28.3 385,27.4 375,44.7 369.7,80.1 c -0.2,1.4 0.2,2.6 1.1,3.9 0.9,1.2 1.9,1.9 3.4,2.1 1.5,0.2 2.6,-0.2 3.9,-0.9 1.1,-0.9 1.8,-1.9 2.1,-3.4 0.7,-4.4 1.4,-8.5 2.1,-12.2 v 0 h 34.2 c 0.9,4.2 1.8,8.8 2.5,13.9 0.2,1.4 0.9,2.5 2.1,3.4 1.1,0.9 2.5,1.2 3.9,0.9 1.3,-0.3 2.5,-1 3.4,-2 z M 384.8,59 c 3.9,-13 8.8,-19.8 14.6,-20.1 5.6,0.5 10.6,7.2 14.3,20.1 z"
         id="path37"
         style="fill:url(#SVGID_5_)" /><path
         class="st0"
         d="m 249,37.8 c -0.7,-1.2 -1.8,-2.1 -3.2,-2.5 -24,-6.9 -39.5,-5.8 -46.4,3 -2.5,2.8 -3.9,5.6 -4.4,8.6 -0.5,2.8 -0.2,5.6 1.1,8.3 H 196 c 1.1,1.9 2.5,3.9 4.4,5.5 h 0.2 c 1.6,1.2 3.2,2.3 5.1,3.2 1.2,0.7 4.4,1.1 9.3,1.2 1.1,0.2 2.8,0.2 5.6,0.2 2.5,0.2 4.4,0.2 5.8,0.2 v 0 c 4.4,0.2 8.8,0.5 10.2,0.9 1.4,0.5 3.9,3 4.1,4.2 0.2,1.2 0,0 0,0 0.4,0.7 0.5,0.9 0.4,2.6 -0.2,1.8 -0.9,1.4 -1.6,2.3 v -0.2 c -0.9,0.7 -2.1,1.2 -3.9,1.8 -2.6,0.5 -5.8,1.1 -9.5,1.1 -3.7,0.2 -7.4,0 -11.1,-0.4 -3.5,-0.5 -6.7,-1.1 -9.3,-1.8 -1.2,-0.4 -2.6,-0.4 -3.9,0.4 -1.2,0.5 -2.1,1.6 -2.6,3 -0.5,1.2 -0.4,2.6 0.4,4.1 0.7,1.2 1.8,2.1 3.2,2.5 3.2,1.1 6.9,1.8 11.3,2.3 4.2,0.4 8.5,0.5 12.7,0.5 4.6,-0.2 8.5,-0.7 11.8,-1.4 4.6,-1.1 7.8,-2.8 9.3,-5.1 h 0.2 c 1.4,-1.8 2.5,-3.4 3,-4.8 v -0.2 c 0.7,-1.8 1.1,-3.5 1.1,-5.3 v -0.2 c -0.2,-1.2 0,-3.2 -0.7,-5.1 -0.2,-0.9 -0.5,-1.4 -1.9,-4.6 -1.4,-3 -4.8,-4.9 -10.4,-6.2 v 0 c -2.8,-0.5 -6.9,-0.9 -12,-1.1 -1.4,-0.2 -3.5,-0.2 -6.2,-0.2 -2.7,0 -4.4,0 -5.5,0 -2.8,0 -4.6,-0.2 -5.3,-0.4 -1.1,-0.5 -1.8,-0.9 -2.5,-1.6 -0.7,-0.7 -1.4,-1.4 -1.8,-2.1 v -0.2 c -0.4,-0.5 -0.5,-1.1 -0.4,-1.8 0.4,-1.1 0.9,-2.3 1.9,-3.5 5.3,-5.1 17.1,-5.1 35.4,0.2 1.4,0.4 2.8,0.2 3.9,-0.5 1.4,-0.7 2.3,-1.8 2.5,-3.2 0.7,-1.1 0.5,-2.5 -0.2,-3.7 z"
         id="path9"
         style="fill:url(#SVGID_1_)" /></g><g
       id="g453"
       inkscape:label="saturn"
       style="display:inline"><path
         class="st5"
         d="m 515.8,85.8 c 1.2,-0.9 1.9,-1.9 2.1,-3.4 0.7,-4.4 1.4,-8.5 2.1,-12.2 h 34.2 c 0.9,4.2 1.8,8.8 2.5,13.9 0.2,1.4 0.9,2.5 2.1,3.4 1.1,0.9 2.5,1.2 3.9,0.9 1.4,-0.2 2.5,-0.9 3.4,-1.9 0.9,-1.2 1.2,-2.5 1.1,-3.9 -5.5,-36.5 -15.5,-54.5 -30,-53.6 -14.5,-0.9 -24.3,16.4 -29.8,51.8 -0.2,1.4 0.2,2.6 0.9,3.9 0.9,1.2 1.9,1.9 3.5,2.1 1.6,0.2 2.8,-0.2 4,-1 z m 6.9,-26.1 c 3.9,-13 8.8,-19.8 14.6,-20.1 5.8,0.5 10.6,7.2 14.5,20.1 z"
         id="path44"
         style="fill:url(#SVGID_6_)" /><path
         class="st6"
         d="m 612.5,33 c -1.1,-0.9 -2.3,-1.4 -3.7,-1.4 H 563 c -1.4,0 -2.8,0.5 -3.7,1.4 -1.1,1.1 -1.6,2.3 -1.6,3.7 0,1.4 0.5,2.6 1.6,3.7 1.1,1.1 2.3,1.6 3.7,1.6 h 17.6 v 40.4 c 0,1.4 0.5,2.6 1.6,3.7 1.1,1.1 2.3,1.6 3.7,1.6 1.6,0 2.6,-0.5 3.7,-1.6 1.1,-0.9 1.6,-2.3 1.6,-3.7 V 42 h 17.6 c 1.4,0 2.6,-0.5 3.7,-1.6 1.1,-0.9 1.4,-2.3 1.4,-3.7 0.2,-1.4 -0.4,-2.6 -1.4,-3.7 z"
         id="path51"
         style="fill:url(#SVGID_7_)" /><path
         class="st7"
         d="m 674.2,32 c -1.1,-1.1 -2.3,-1.6 -3.7,-1.6 -1.4,0 -2.6,0.5 -3.7,1.6 -1.1,0.9 -1.6,2.3 -1.6,3.7 v 26.1 c 0,1.9 -0.4,3.9 -1.1,5.6 -0.7,1.8 -1.8,3.4 -3.2,4.8 -1.4,1.2 -2.8,2.5 -4.8,3.2 -1.8,0.7 -3.7,1.1 -5.6,1.1 h -7.8 c -1.9,0 -3.9,-0.4 -5.6,-1.1 -1.8,-0.7 -3.4,-1.8 -4.8,-3.2 -1.4,-1.4 -2.5,-2.8 -3.2,-4.6 v 0 C 628.4,65.8 628,63.9 628,62 V 35.7 c 0,-1.4 -0.5,-2.6 -1.4,-3.7 -1.1,-1.1 -2.3,-1.6 -3.7,-1.6 -1.4,0 -2.8,0.5 -3.7,1.6 -1.1,0.9 -1.6,2.3 -1.6,3.7 v 26.1 c 0,3.4 0.7,6.7 1.9,9.9 v 0 c 1.2,3 3,5.6 5.3,8.1 2.3,2.3 4.9,4.1 8.1,5.5 3.2,1.2 6.3,1.9 9.9,1.9 h 7.8 c 3.5,0 6.7,-0.5 9.9,-1.9 h -0.2 c 3,-1.2 5.6,-3.2 8.1,-5.5 2.3,-2.3 4.1,-4.9 5.5,-8.1 v 0.2 c 1.2,-3.2 1.9,-6.3 1.9,-9.9 V 35.7 c 0,-1.4 -0.6,-2.8 -1.6,-3.7 z"
         id="path58"
         style="fill:url(#SVGID_8_)" /><path
         class="st8"
         d="m 681.2,32 c -0.9,0.9 -1.4,2.1 -1.4,3.5 v 45.3 c 0,1.4 0.5,2.6 1.6,3.7 1.1,1.1 2.5,1.6 4.1,1.6 1.6,0 2.8,-0.5 3.9,-1.6 1.1,-0.9 1.8,-2.3 1.8,-3.7 V 40.4 c 12.2,-0.7 21.3,0 27.9,1.8 4.9,1.4 7.4,3.9 7.8,7.2 0.2,2.6 -1.1,4.6 -3.4,5.8 -3.7,1.6 -9.3,1.9 -16.6,1.2 -1.2,-0.2 -2.5,0.2 -3.5,0.7 -1.1,0.5 -1.9,1.4 -2.3,2.6 -0.5,1.1 -0.5,2.1 -0.2,3.4 0.4,1.1 1.1,1.9 2.1,2.6 l 28,19.2 c 1.2,0.9 2.6,1.2 4.1,0.9 1.6,-0.2 2.8,-0.9 3.7,-2.1 0.9,-1.1 1.2,-2.5 1.1,-3.9 -0.4,-1.4 -1.1,-2.6 -2.3,-3.5 L 722.8,66.2 c 2.1,-0.5 4.1,-1.1 5.6,-1.9 6.3,-3 9.5,-7.9 9.7,-15 0.4,-8.3 -4.9,-14.1 -15.5,-17.3 -8.3,-2.6 -20.8,-3.2 -37.4,-1.9 -1.7,0.3 -2.9,0.8 -4,1.9 z"
         id="path65"
         style="fill:url(#SVGID_9_)" /><path
         class="st9"
         d="m 746.3,32.9 c -0.7,0.9 -0.9,1.8 -0.9,3 v 45.5 c 0,1.4 0.5,2.6 1.6,3.7 0.9,1.1 2.3,1.6 3.7,1.6 1.4,0 2.6,-0.5 3.7,-1.6 0.9,-0.9 1.4,-2.3 1.4,-3.7 V 48.9 L 790.7,85 c 0.9,0.7 1.6,1.2 2.8,1.6 1.1,0.2 1.9,0 3,-0.2 1.1,-0.5 1.8,-1.1 2.5,-1.9 0.7,-0.8 0.9,-1.8 0.9,-2.8 V 35.9 c 0,-1.4 -0.5,-2.6 -1.6,-3.7 -1.1,-0.9 -2.3,-1.4 -3.7,-1.4 -1.4,0 -2.6,0.5 -3.7,1.4 -1.1,1.1 -1.6,2.3 -1.6,3.7 V 68.3 L 754.4,32.2 c -0.9,-0.7 -1.6,-1.2 -2.8,-1.4 -1.1,-0.2 -2.1,0 -3,0.4 -0.9,0.3 -1.8,0.8 -2.3,1.7 z"
         id="path72"
         style="fill:url(#SVGID_10_)" /><path
         class="st1"
         d="m 501.5,34.6 c -0.7,-1.2 -1.8,-2.1 -3.2,-2.5 -24,-6.7 -39.5,-5.8 -46.4,3 -2.5,2.8 -3.9,5.6 -4.4,8.6 -0.5,2.8 -0.2,5.6 1.1,8.3 h -0.2 c 1.1,1.9 2.5,3.9 4.4,5.5 h 0.2 c 1.6,1.2 3.2,2.3 5.1,3.2 1.2,0.7 4.4,1.1 9.3,1.2 1.1,0 2.8,0 5.6,0 2.5,0.2 4.4,0.2 5.8,0.2 h 0.2 c 4.4,0 8.8,0.5 10.2,0.9 1.4,0.5 3.9,3 4.1,4.2 0.2,1.2 0,0 0,0 0.2,0.7 0.5,0.9 0.4,2.6 -0.2,1.8 -0.9,1.4 -1.6,2.3 V 72 c -0.9,0.7 -2.1,1.2 -3.9,1.8 -2.6,0.5 -5.8,1.1 -9.5,1.1 -3.7,0.2 -7.4,0 -11.1,-0.4 -3.5,-0.5 -6.7,-1.1 -9.3,-1.8 -1.2,-0.4 -2.6,-0.4 -3.9,0.4 -1.2,0.5 -2.3,1.6 -2.6,3 -0.5,1.2 -0.2,2.6 0.4,4.1 0.7,1.2 1.8,2.1 3.2,2.5 3.2,1.1 6.9,1.8 11.3,2.3 4.2,0.4 8.5,0.5 12.7,0.5 4.6,-0.2 8.5,-0.7 11.8,-1.4 4.6,-1.1 7.8,-2.8 9.3,-5.1 h 0.2 c 1.4,-1.8 2.5,-3.4 3,-4.8 V 74 c 0.7,-1.8 1.1,-3.5 1.1,-5.3 v -0.2 c -0.2,-1.2 0,-3.2 -0.7,-5.1 -0.2,-0.9 -0.5,-1.4 -1.9,-4.6 -1.4,-3 -4.8,-4.9 -10.4,-6.2 h -0.2 c -2.8,-0.5 -6.9,-0.9 -12,-1.1 -1.4,0 -3.5,0 -6.2,-0.2 -2.6,0 -4.4,0 -5.5,-0.2 -2.8,0 -4.6,-0.2 -5.3,-0.4 -1.1,-0.5 -1.8,-0.9 -2.6,-1.6 -0.7,-0.7 -1.4,-1.4 -1.8,-2.1 v 0 c -0.4,-0.5 -0.5,-1.1 -0.2,-1.8 0.2,-1.1 0.9,-2.3 1.9,-3.5 5.3,-5.1 17.1,-5.1 35.4,0.2 1.4,0.4 2.6,0.2 3.9,-0.5 1.4,-0.7 2.3,-1.8 2.6,-3.2 0.6,-1.1 0.5,-2.3 -0.3,-3.6 z"
         id="path16"
         style="fill:url(#SVGID_2_)" /></g></g></g>
</svg>
