<?xml version="1.0" encoding="UTF-8" standalone="no"?>
<!-- Created with Inkscape (http://www.inkscape.org/) -->

<svg
   width="255.99983"
   height="256"
   viewBox="0 0 67.733284 67.733332"
   version="1.1"
   id="svg147"
   xml:space="preserve"
   xmlns="http://www.w3.org/2000/svg"
   xmlns:svg="http://www.w3.org/2000/svg"><defs
     id="defs144" /><g
     id="g5713"
     transform="matrix(1.898799,0,0,1.898799,-204.93113,-191.1171)"><path
       id="Selection"
       fill="none"
       stroke="#000000"
       stroke-width="0.131787"
       d="m 120.58453,103.14518 h 2.37108 v 6.10201 l -0.0348,0.52304 -0.0349,0.97633 -0.0348,0.34869 v 0.31381 l -0.0987,1.08093 c -0.10733,1.10953 -0.22525,2.21138 -0.41005,3.31253 -0.65379,3.89762 -1.81422,7.77293 -4.0242,11.08824 -1.68137,2.52171 -3.88821,4.59954 -6.65993,5.86876 -1.12137,0.51327 -2.49729,0.97005 -3.73094,1.07013 v -7.28757 c 0,-0.0712 -0.008,-0.20119 0.0355,-0.25873 0.0467,-0.061 0.17156,-0.075 0.24339,-0.09 l 0.48817,-0.11923 c 0.83928,-0.23327 1.66079,-0.52826 2.4408,-0.91808 l 1.60396,-0.88219 c 2.06284,-1.30653 3.8258,-3.14411 5.04096,-5.26344 1.3027,-2.27204 2.08098,-4.83071 2.39131,-7.42704 l 0.13738,-1.39474 0.0318,-0.34868 0.0349,-0.66251 v -0.59276 l 0.0349,-0.52304 0.0697,-2.47567 0.0348,-0.59277 v -0.48817 l 0.0349,-0.52302 c 3.5e-4,-0.31383 -0.007,-0.5206 0.0349,-0.83686 z m 3.76583,0 h 2.89409 v 7.04348 3.55661 l 0.0349,0.52303 v 1.11579 l 0.0349,0.52303 v 0.5579 l 0.0349,0.52304 0.0349,0.94145 0.0348,0.59277 0.0349,0.41842 v 0.31383 l 0.0666,0.73223 c 0.19492,2.85088 0.53593,5.71673 1.17646,8.50796 0.24793,1.07989 0.68099,2.55728 1.13882,3.55661 l 0.55406,1.08093 c 0.10916,0.18272 0.35566,0.52897 0.41145,0.69739 h -9.7981 l 0.32497,-0.52303 0.3616,-0.62764 c 0.21479,-0.39995 0.4777,-1.0642 0.63669,-1.49936 0.75666,-2.07086 1.15625,-4.47575 1.44113,-6.65993 0.17399,-1.33477 0.28523,-2.66919 0.37694,-4.00989 l 0.13633,-2.65004 0.0349,-0.45329 v -0.62763 l 0.0349,-0.59276 v -13.0409 z m 4.21911,0 h 2.37107 l 0.0349,1.35987 0.0349,0.59278 0.0697,2.47568 0.0348,0.52302 v 0.52304 l 0.0348,0.59275 0.1339,1.9178 c 0.31312,2.92896 1.18657,5.99114 2.80692,8.47309 1.36336,2.08794 3.08206,3.77697 5.25332,5.01586 l 1.25528,0.64752 c 0.87798,0.3818 1.34279,0.55824 2.26645,0.82219 l 0.48817,0.11644 c 0.0649,0.0143 0.16005,0.022 0.20329,0.0778 0.0495,0.0642 0.0408,0.21409 0.0408,0.29393 v 6.93887 c 0,0.0677 0.008,0.20433 -0.0355,0.25768 -0.0506,0.0614 -0.14087,0.0383 -0.20852,0.031 l -0.59277,-0.0934 c -0.84904,-0.16946 -1.67927,-0.41667 -2.47568,-0.75839 -2.91885,-1.25249 -5.40464,-3.42899 -7.12402,-6.0968 -0.51361,-0.79745 -0.99655,-1.62139 -1.40975,-2.47567 -1.61964,-3.34635 -2.54018,-7.29349 -2.90908,-10.98364 l -0.13356,-1.25528 v -0.27895 l -0.0697,-0.80198 -0.0348,-0.87172 -0.0349,-0.45329 v -0.5579 l -0.0349,-0.59277 v -2.44081 l 0.0349,-0.59277 v -2.40594 z"
       style="display:inline;fill:#333333;fill-opacity:1;stroke:none" /></g><style
     type="text/css"
     id="style2">
	.st0{fill:#E4202F;}
	.st1{fill:url(#SVGID_1_);}
	.st2{fill:#FFFFFF;}
</style></svg>
