<?xml version="1.0" encoding="UTF-8" standalone="no"?>
<!-- Generator: Adobe Illustrator 25.1.0, SVG Export Plug-In . SVG Version: 6.00 Build 0)  -->

<svg
   width="480"
   height="149.73929"
   version="1.1"
   viewBox="0 0 479.99998 149.73929"
   xml:space="preserve"
   id="svg24"
   xmlns="http://www.w3.org/2000/svg"
   xmlns:svg="http://www.w3.org/2000/svg"><defs
   id="defs28" />
<style
   type="text/css"
   id="style2">
	.st0{fill:#E4202F;}
	.st1{fill:url(#SVGID_1_);}
	.st2{fill:#FFFFFF;}
</style>
<g
   transform="matrix(0.17980222,0,0,0.17980222,-210.44052,0)"
   id="g22">
	
		
			
			<path
   class="st0"
   d="m 1409,38.4 c 32.2,-41.2 98.9,-48.3 138.4,-13.7 16.2,13.6 27.5,32.4 33.3,52.6 73.2,251.8 146.7,503.4 219.8,755.2 -43.2,0 -86.4,-0.1 -129.6,0 -20.4,-69.4 -40.3,-139 -60.4,-208.4 -83.5,-0.2 -167,0 -250.5,-0.1 -20.4,69.5 -40.6,139 -60.7,208.6 -42.9,-0.1 -85.9,0 -128.9,-0.1 69.5,-240.2 139.1,-480.4 209,-720.5 8.3,-25 11.4,-53.1 29.6,-73.6 m 76.2,154.3 c -30.6,104.3 -60.6,208.8 -91.1,313.2 60.7,0.3 121.4,0.1 182,0.1 -30.3,-104.5 -60.5,-208.9 -90.9,-313.3 z"
   id="path4" />
			<path
   class="st0"
   d="m 2318.7,43.8 c 22.5,-32.7 66,-48.5 104.3,-38.4 35.1,8.1 61.9,38.3 71.2,72.3 73.1,251.6 146.5,503.1 219.6,754.7 -43.2,0.3 -86.5,0 -129.7,0.2 -20.1,-69.5 -40,-139 -60.3,-208.5 -83.4,0 -166.7,-0.1 -250.1,0.1 -19.9,69.5 -40.5,138.9 -60.4,208.4 h -128.7 c 69.5,-241.5 139.8,-482.8 209.8,-724.2 7.3,-21.7 10.2,-45.8 24.3,-64.6 M 2308.1,506 c 60.4,0.1 120.9,0 181.3,0 -30.1,-104.7 -60.6,-209.2 -90.6,-313.8 -30.1,104.6 -60.6,209.1 -90.7,313.8 z"
   id="path6" />
			<path
   class="st0"
   d="m 1703.7,4.1 h 468.6 v 126.4 c -57.5,0 -115,-0.1 -172.5,0 v 702 h -123.6 v -702 c -57.5,-0.1 -115,0 -172.5,0 z"
   id="path8" />
			<path
   class="st0"
   d="m 2851,9.3 c 11.9,-4.1 24.6,-5.5 37.1,-5.2 49.3,0.2 98.5,0 147.8,0.1 82.9,1.5 162.1,53 198,127.7 24.9,48.5 27.4,104.9 21.1,158.1 -4.3,55.7 -27.7,111.4 -70.5,148.3 -22.6,20.1 -50.7,32.4 -75,50.3 -13.3,10.1 -14,29.8 -7.1,43.8 65.4,100.9 133.3,200.3 200.1,300.3 -48.8,0.1 -97.6,-0.1 -146.5,0.1 -63.9,-96 -127.1,-192.5 -190.8,-288.6 -18.7,-27.4 -23.8,-63.6 -12.6,-94.8 8.7,-24 29.7,-41.5 53,-50.5 44.5,-17 88.4,-43.6 113,-85.6 18.8,-31.5 17.8,-70.5 9.3,-105 -9.9,-44.8 -53.6,-80.1 -99.7,-78.6 -31.9,0.2 -63.8,-0.1 -95.7,0.1 -14.4,-0.3 -28,12.2 -27.8,26.8 -0.2,225.4 0.1,450.8 -0.1,676.1 -41.5,-0.1 -83,0 -124.5,0 -0.1,-242.6 0.1,-485.2 -0.1,-727.8 0.5,-42.7 30.7,-82.7 71,-95.6 z"
   id="path10" />
			<path
   class="st0"
   d="m 3367.9,4.1 h 131 c 0,276.2 0.1,552.3 -0.1,828.5 -43.6,-0.1 -87.3,0 -130.9,0 z"
   id="path12" />
		
	
	
		<path
   class="st0"
   d="m 3801.3,831.7 c -19.2,-21.3 -38.1,-42.5 -57.3,-63.8 -19.2,-21.9 -34.3,-39.3 -59.4,-39.6 -21.6,0 -32.8,13.6 -32.8,31.6 0,21.3 19.2,30.1 41.6,30.4 v 42.2 c -16.8,-0.6 -34.9,-3.2 -51.1,-15.4 -24.5,-17.1 -29.2,-45.5 -29.2,-61.1 0,-45.8 31.6,-71.8 67.6,-71.8 25.4,0.3 43.4,9.5 67.9,35.2 16.5,17.1 33.1,34.5 49.9,52 v -88.3 h 37.2 v 148.6 z"
   id="path14" />
		<path
   class="st0"
   d="m 3617.3,534.6 57.6,41 c 4.4,3 8.6,6.2 13.3,9.5 -1.2,-2.4 -3.2,-10.6 -3.2,-17.4 0,-33.4 25.7,-69.4 73.8,-69.4 47.2,0 81.2,36.6 81.2,81.5 0,26.9 -10.3,50.5 -28.4,64.4 -15.1,13.3 -36.3,18.3 -52.9,18.3 -23,0 -41.6,-9.5 -57.6,-19.8 l -83.9,-57.3 v -50.8 z m 145.3,84.4 c 23.3,0 38.7,-17.7 38.7,-37.8 0,-21.9 -16.8,-39 -38.7,-39 -21.9,0 -39,16.5 -39,38.7 0,19.5 14.8,38.1 38.7,38.1 z"
   id="path16" />
		<path
   class="st0"
   d="m 3728.4,480.8 c -70,0 -115.2,-53.8 -115.2,-114.6 0,-66.2 51.4,-114.9 113.4,-114.9 62,0 113.4,48.5 113.4,115.2 0,67 -52.9,114.3 -111.3,114.3 z m -1.8,-44 c 39.9,0 74.7,-28.6 74.7,-71.2 0,-44.3 -38.4,-70.3 -74.4,-70.3 -36.6,0 -75,26 -75,70.6 0,43.7 36,70.9 74.4,70.9 z"
   id="path18" />
		<path
   class="st0"
   d="m 3728.4,229.5 c -70,0 -115.2,-53.8 -115.2,-114.6 0,-66.2 51.4,-114.9 113.4,-114.9 62,0 113.4,48.4 113.4,115.2 0,67 -52.9,114.3 -111.3,114.3 z m -1.8,-44 c 39.9,0 74.7,-28.6 74.7,-71.2 0,-44.3 -38.4,-70.3 -74.4,-70.3 -36.6,0 -75,26 -75,70.6 0,43.7 36,70.9 74.4,70.9 z"
   id="path20" />
	
</g>
</svg>
