<?xml version="1.0" encoding="UTF-8" standalone="no"?>
<svg
   version="1.1"
   width="255.99998"
   height="256"
   viewBox="0 0 389.61819 389.61821"
   id="svg52"
   xmlns="http://www.w3.org/2000/svg"
   xmlns:svg="http://www.w3.org/2000/svg">
  <defs
     id="defs56" />
  <g
     id="g403"
     transform="matrix(1.0388945,0,0,1.0388945,-50.999862,-91.903294)">
    <g
       id="g423"
       style="fill:#333333;fill-opacity:1;stroke:none">
      <path
         style="fill:#333333;fill-opacity:1;stroke:none;stroke-width:2.4919"
         d="m 278.09648,205.83126 10.96437,-12.45952 v -84.22635 l -52.32998,20.18442 v 0 l -43.35913,77.24902 43.35913,-16.69575 z"
         id="path2" />
      <path
         style="fill:#333333;fill-opacity:1;stroke:none;stroke-width:2.4919"
         d="M 371.04449,323.19994 V 181.16141 l 53.07755,-20.43361 v 223.52378 l -53.07755,22.42714 v 0 L 293.0479,304.75985 v 134.812 l -56.31703,23.67309 V 232.99301 l 56.31703,-21.43037 z"
         id="path4" />
      <path
         style="fill:#333333;fill-opacity:1;stroke:none;stroke-width:2.4919"
         d="M 152.25533,384.50077 102.41725,287.8149 v 118.86382 0 z"
         id="path6" />
    </g>
    <g
       id="g418"
       style="fill:#555555;fill-opacity:1;stroke:none">
      <path
         style="fill:#555555;fill-opacity:1;stroke:none;stroke-width:2.4919"
         d="m 155.4948,160.7278 v 0 l 24.91904,50.83484 12.9579,-4.98381 43.35913,-77.24902 -52.32998,-20.43361 z"
         id="path8" />
      <path
         style="fill:#555555;fill-opacity:1;stroke:none;stroke-width:2.4919"
         d="m 278.09648,205.83126 v 0 l 39.87046,-45.10346 53.07755,20.43361 V 323.19994 L 293.0479,211.56264 Z"
         id="path10" />
      <path
         style="fill:#555555;fill-opacity:1;stroke:none;stroke-width:2.4919"
         d="M 236.73087,463.24494 V 232.99301 L 180.41384,211.56264 V 328.43293 L 102.16806,181.16141 v 0 L 49.090507,160.7278 v 223.52378 l 53.077553,22.42714 V 287.8149 l 78.24578,151.75695 z"
         id="path12" />
    </g>
    <g
       id="g413"
       style="font-variation-settings:normal;display:inline;opacity:1;vector-effect:none;fill:#777777;fill-opacity:1;stroke:none;stroke-width:2.4919;stroke-linecap:butt;stroke-linejoin:miter;stroke-miterlimit:4;stroke-dasharray:none;stroke-dashoffset:0;stroke-opacity:1;-inkscape-stroke:none;stop-color:#000000;stop-opacity:1">
      <path
         style="font-variation-settings:normal;vector-effect:none;fill:#777777;fill-opacity:1;stroke:none;stroke-width:2.4919;stroke-linecap:butt;stroke-linejoin:miter;stroke-miterlimit:4;stroke-dasharray:none;stroke-dashoffset:0;stroke-opacity:1;-inkscape-stroke:none;stop-color:#000000;stop-opacity:1"
         d="m 102.41725,181.16141 53.07755,-20.43361 24.91904,50.83484 v 0 116.87029 z"
         id="path14" />
      <path
         style="font-variation-settings:normal;vector-effect:none;fill:#777777;fill-opacity:1;stroke:none;stroke-width:2.4919;stroke-linecap:butt;stroke-linejoin:miter;stroke-miterlimit:4;stroke-dasharray:none;stroke-dashoffset:0;stroke-opacity:1;-inkscape-stroke:none;stop-color:#000000;stop-opacity:1"
         d="m 293.0479,360.3293 15.94818,22.42714 62.04841,23.92228 v 0 L 293.0479,304.75985 Z"
         id="path16" />
    </g>
    <g
       id="g409"
       style="fill:#aaaaaa;fill-opacity:1;stroke:none">
      <path
         style="fill:#aaaaaa;fill-opacity:1;stroke:none;stroke-width:2.4919"
         d="m 180.66303,211.56264 56.31703,-21.43037 56.31703,21.43037 v 0 l -56.31703,21.43037 z"
         id="path18" />
      <path
         style="fill:#aaaaaa;fill-opacity:1;stroke:none;stroke-width:2.4919"
         d="m 371.04449,140.29419 53.07755,20.43361 -53.07755,20.43361 -53.07755,-20.43361 v 0 z"
         id="path20" />
      <path
         style="fill:#aaaaaa;fill-opacity:1;stroke:none;stroke-width:2.4919"
         d="M 102.41725,140.29419 155.4948,160.7278 102.41725,181.16141 49.339697,160.7278 v 0 z"
         id="path22" />
      <path
         style="fill:#aaaaaa;fill-opacity:1;stroke:none;stroke-width:2.4919"
         d="m 236.73087,88.711779 -52.32998,20.184421 52.32998,20.43361 52.32998,-20.18442 v 0 z"
         id="path24" />
    </g>
  </g>
</svg>
