<?xml version="1.0" encoding="UTF-8" standalone="no"?>
<svg
   version="1.1"
   width="480"
   height="69.426437"
   viewBox="0 0 730.53416 105.6633"
   id="svg52"
   sodipodi:docname="logo-light.svg"
   inkscape:version="1.2.2 (b0a8486541, 2022-12-01)"
   xmlns:inkscape="http://www.inkscape.org/namespaces/inkscape"
   xmlns:sodipodi="http://sodipodi.sourceforge.net/DTD/sodipodi-0.dtd"
   xmlns="http://www.w3.org/2000/svg"
   xmlns:svg="http://www.w3.org/2000/svg">
  <defs
     id="defs56" />
  <sodipodi:namedview
     id="namedview54"
     pagecolor="#000000"
     bordercolor="#666666"
     borderopacity="1.0"
     inkscape:showpageshadow="2"
     inkscape:pageopacity="1"
     inkscape:pagecheckerboard="0"
     inkscape:deskcolor="#d1d1d1"
     showgrid="false"
     inkscape:zoom="1.3830976"
     inkscape:cx="311.25786"
     inkscape:cy="159.78627"
     inkscape:window-width="1920"
     inkscape:window-height="1023"
     inkscape:window-x="1775"
     inkscape:window-y="29"
     inkscape:window-maximized="1"
     inkscape:current-layer="svg52" />
  <g
     id="g389"
     inkscape:label="text"
     style="display:inline"
     transform="translate(115.45371,16.699041)">
    <g
       id="g365"
       inkscape:label="64"
       style="font-variation-settings:normal;opacity:1;vector-effect:none;fill:#88888f;fill-opacity:1;stroke:none;stroke-width:2.4919;stroke-linecap:butt;stroke-linejoin:miter;stroke-miterlimit:4;stroke-dasharray:none;stroke-dashoffset:0;stroke-opacity:1;-inkscape-stroke:none;stop-color:#000000;stop-opacity:1"
       transform="matrix(1.4621599,0,0,1.4621599,-115.45371,-16.699041)">
      <path
         style="font-variation-settings:normal;vector-effect:none;fill:#88888f;fill-opacity:1;stroke:none;stroke-width:2.4919;stroke-linecap:butt;stroke-linejoin:miter;stroke-miterlimit:4;stroke-dasharray:none;stroke-dashoffset:0;stroke-opacity:1;-inkscape-stroke:none;stop-color:#000000;stop-opacity:1"
         d="m 458.51032,9.2200444 c -0.99676,0 -2.24272,0 -3.73786,0 -8.72166,0.4983808 -11.96114,3.9870466 -13.20709,8.2232826 h 0.24919 c 2.24271,-1.993523 4.73462,-2.741094 8.22328,-2.741094 6.72814,0 12.9579,4.983808 12.9579,14.203852 0,8.970854 -6.72814,15.948185 -15.94818,15.948185 -12.21033,0 -17.44333,-9.220044 -17.44333,-19.18766 0,-7.974092 2.7411,-14.951423 7.47571,-19.1876599 C 441.56537,2.2427135 447.29675,0.24919039 454.27408,0 c 1.74433,0 2.99029,0 3.98705,0 v 9.2200444 h -6.8e-4 z M 447.04756,36.132607 c 2.74109,0 4.48543,-2.741095 4.48543,-6.478951 0,-2.990284 -1.49515,-6.47895 -5.233,-6.47895 -2.24272,0 -3.98705,1.495143 -4.73462,3.239475 -0.24919,0.498381 -0.24919,1.245952 -0.24919,2.491904 0.24919,3.488666 1.99352,7.226522 5.73138,7.226522 z"
         id="path46" />
      <path
         style="font-variation-settings:normal;vector-effect:none;fill:#88888f;fill-opacity:1;stroke:none;stroke-width:2.4919;stroke-linecap:butt;stroke-linejoin:miter;stroke-miterlimit:4;stroke-dasharray:none;stroke-dashoffset:0;stroke-opacity:1;-inkscape-stroke:none;stop-color:#000000;stop-opacity:1"
         d="m 484.42612,44.106699 v -9.718425 h -18.1909 V 26.663372 L 480.68826,0.74757117 H 495.1413 V 25.66661 h 4.48543 v 8.970854 h -4.48543 v 9.718425 h -10.96437 v 0 z m 0,-18.689279 v -7.475712 c 0,-2.741094 0.24919,-5.731379 0.24919,-8.7216636 h -0.24919 c -1.24595,2.9902846 -2.49191,5.7313786 -3.98705,8.7216636 l -3.48866,7.226521 v 0.249191 h 7.47571 v -6.73e-4 z"
         id="path48" />
    </g>
    <g
       id="g375"
       style="display:inline;fill:#cccccc;fill-opacity:1;stroke:none"
       inkscape:label="nintendo"
       transform="matrix(1.4621599,0,0,1.4621599,-115.45371,-16.699041)">
      <path
         style="fill:#cccccc;fill-opacity:1;stroke:none;stroke-width:2.4919"
         d="m 311.98637,16.446566 h 24.17147 c 20.6828,0 27.16175,11.711948 27.16175,27.660133 0,16.446566 -10.21681,26.663372 -25.9158,26.663372 h -25.41742 z m 19.93523,42.113176 h 1.99352 c 3.23948,0 5.48219,-0.996762 6.72814,-3.239475 1.24596,-2.242714 1.49515,-6.478951 1.49515,-11.711949 0,-5.232998 -0.24919,-9.469235 -1.49515,-11.711948 -1.24595,-2.242714 -3.48866,-3.239475 -6.72814,-3.239475 h -1.99352 v 29.653656 0 z"
         id="path26" />
      <path
         style="fill:#cccccc;fill-opacity:1;stroke:none;stroke-width:2.4919"
         d="m 395.21596,14.951423 c 17.69252,0 26.66337,11.711949 26.66337,28.656895 0,16.944947 -8.72166,28.656895 -26.66337,28.656895 -17.69252,0 -26.66337,-11.711948 -26.66337,-28.656895 0,-16.944946 8.72166,-28.656895 26.66337,-28.656895 z m 0,43.359128 c 3.23947,0 5.48219,-1.495142 5.48219,-14.951423 0,-12.9579 -2.24272,-14.951424 -5.48219,-14.951424 -3.23948,0 -5.48219,1.744333 -5.48219,14.951424 6.7e-4,13.207091 2.24271,14.951423 5.48219,14.951423 z"
         id="path28" />
      <path
         style="fill:#cccccc;fill-opacity:1;stroke:none;stroke-width:2.4919"
         d="M 35.634226,16.446566 V 47.595364 H 35.385035 L 24.420658,16.446566 H 0 V 70.770071 H 16.446566 V 39.372082 h 0.24919 l 10.964377,31.397989 v 0 H 52.080792 V 16.446566 Z"
         id="path34" />
      <path
         style="fill:#cccccc;fill-opacity:1;stroke:none;stroke-width:2.4919"
         d="m 127.83467,16.446566 v 31.148798 h -0.24919 L 116.6211,16.446566 H 92.200444 V 70.770071 H 108.64701 V 39.372082 h 0.24919 l 10.96438,31.397989 v 0 h 24.42066 V 16.446566 Z"
         id="path36" />
      <path
         style="fill:#cccccc;fill-opacity:1;stroke:none;stroke-width:2.4919"
         d="m 286.56895,16.446566 v 31.148798 h -0.24919 L 275.35538,16.446566 h -24.42066 v 54.323505 h 16.44657 V 39.372082 h 0.24919 l 10.96438,31.397989 v 0 h 24.42065 V 16.446566 Z"
         id="path38" />
      <path
         style="fill:#cccccc;fill-opacity:1;stroke:none;stroke-width:2.4919"
         d="M 82.482019,16.446566 V 70.770071 H 62.048407 v -54.323505 0 z"
         id="path40" />
      <path
         style="fill:#cccccc;fill-opacity:1;stroke:none;stroke-width:2.4919"
         d="m 163.21971,70.770071 v -39.621272 0 h -12.9579 V 16.446566 h 46.34941 v 14.702233 h -12.9579 v 39.621272 z"
         id="path42" />
      <path
         style="fill:#cccccc;fill-opacity:1;stroke:none;stroke-width:2.4919"
         d="m 222.77621,30.899608 v 5.731379 h 18.68928 v 13.954662 h -18.68928 v 5.98057 h 20.93199 v 14.203852 h -40.86722 v -54.323505 0 h 40.36884 v 14.453042 z"
         id="path44" />
    </g>
  </g>
</svg>
