<?xml version="1.0" encoding="UTF-8" standalone="no"?>
<svg
   version="1.0"
   width="480"
   height="16.853786"
   viewBox="0 0 480.04371 16.77021"
   id="svg248"
   xmlns="http://www.w3.org/2000/svg"
   xmlns:svg="http://www.w3.org/2000/svg">
  <defs
     id="defs252" />
  <g
     transform="matrix(0.45179274,0,0,0.45179274,-109.38624,169.8789)"
     id="g246"
     style="stroke:none;fill:#cccccc;fill-opacity:1">
    <g
       transform="translate(17.752,17.665)"
       fill="#231f20"
       id="g244"
       style="stroke:none;fill:#cccccc;fill-opacity:1">
      <path
         d="m 814.35,-385.35 c 6.1575,0 11.284,0.21231 17.471,0.72798 -0.24267,0.69763 -1.7289,4.7622 -1.8503,5.1565 h -35.762 c 0.273,-0.75831 1.729,-4.7622 1.8806,-5.1262 6.7034,-0.546 12.012,-0.75831 18.26,-0.75831 z m 20.778,-7.5528 c -5.5812,-0.54598 -10.738,-0.90996 -17.957,-0.90996 -7.2191,0 -12.649,0.36398 -18.594,0.90996 -4.4285,0.39433 -8.766,0.90997 -12.891,1.5773 l -0.18199,0.0303 -12.315,33.851 h 13.043 c 0,0 4.9442,-13.619 5.0958,-14.044 h 35.731 c -0.30332,0.84929 -5.0958,14.044 -5.0958,14.044 h 13.013 l 12.285,-33.79 -0.39432,-0.091 c -3.6399,-0.63699 -7.6134,-1.183 -11.739,-1.5773"
         id="path220"
         style="stroke:none;fill:#cccccc;fill-opacity:1" />
      <path
         d="m 1048.9,-366.36 c -6.3697,0.51565 -12.982,0.75831 -19.655,0.75831 -6.5821,0 -12.922,-0.24266 -18.806,-0.75831 0.3033,-0.78864 6.4608,-17.835 6.6124,-18.23 6.3092,-0.51567 12.922,-0.75831 19.625,-0.75831 6.6428,0 12.982,0.24264 18.836,0.72798 -0.273,0.81895 -6.4608,17.866 -6.6125,18.26 z m 10.374,6.7338 0.2123,-0.0303 11.466,-31.576 -0.3943,-0.091 c -3.6399,-0.63699 -7.6134,-1.183 -11.769,-1.5773 -6.1272,-0.60662 -12.618,-0.90996 -19.291,-0.90996 -6.6428,0 -13.376,0.30334 -19.928,0.90996 -4.4588,0.39433 -8.7963,0.90997 -12.891,1.5773 l -0.2123,0.0303 -11.466,31.606 0.39432,0.0607 c 3.6702,0.63697 7.61338,1.183 11.73898,1.5773 6.1574,0.57632 12.648,0.87965 19.322,0.87965 6.6428,0 13.377,-0.30333 19.928,-0.87965 4.4286,-0.39432 8.7661,-0.9403 12.891,-1.5773"
         id="path222"
         style="stroke:none;fill:#cccccc;fill-opacity:1" />
      <path
         d="m 448.77,-385.35 c 6.1696,0 11.284,0.21231 17.462,0.72798 -0.24267,0.69763 -1.7138,4.7622 -1.8533,5.1565 h -35.738 c 0.26997,-0.75831 1.735,-4.7622 1.8624,-5.1262 6.7004,-0.546 12.015,-0.75831 18.266,-0.75831 z m 20.769,-7.5528 c -5.569,-0.54598 -10.744,-0.90996 -17.954,-0.90996 -7.2009,0 -12.63,0.36398 -18.579,0.90996 -4.4528,0.39433 -8.7842,0.90997 -12.897,1.5773 l -0.19109,0.0303 -12.291,33.851 h 13.016 c 0,0 4.9472,-13.619 5.1019,-14.044 h 35.734 c -0.31241,0.84929 -5.1049,14.044 -5.1049,14.044 h 13.013 l 12.285,-33.79 -0.39432,-0.091 c -3.6399,-0.63699 -7.5831,-1.183 -11.739,-1.5773"
         id="path224"
         style="stroke:none;fill:#cccccc;fill-opacity:1" />
      <path
         d="m 373.06,-366.39 c -6.4183,0.54598 -13.101,0.78864 -19.852,0.78864 -6.5973,0 -12.919,-0.24266 -18.833,-0.75831 0.30938,-0.81895 10.073,-27.724 10.073,-27.724 h -13.019 l -12.479,34.397 0.39735,0.0607 c 3.6399,0.63697 7.5952,1.183 11.748,1.5773 6.1514,0.57632 12.649,0.87965 19.297,0.87965 6.661,0 13.373,-0.30333 19.943,-0.87965 4.4255,-0.39432 8.76,-0.9403 12.9,-1.5773 l 0.19413,-0.0303 2.9968,-8.2807 -0.56418,0.091 c -3.9705,0.60665 -8.2777,1.092 -12.803,1.456"
         id="path226"
         style="stroke:none;fill:#cccccc;fill-opacity:1" />
      <path
         d="m 748.17,-392.9 c -6.1271,-0.60662 -12.618,-0.90996 -19.291,-0.90996 -6.6731,0 -13.377,0.30334 -19.959,0.90996 -4.4285,0.39433 -8.766,0.90997 -12.891,1.5773 l -0.18199,0.0303 -3.0029,8.2807 0.57631,-0.091 c 3.9432,-0.60663 8.2504,-1.1223 12.8,-1.4863 4.1555,-0.33367 8.6144,-0.546 13.164,-0.66732 -0.33365,0.90996 -10.252,28.209 -10.252,28.209 h 13.043 c 0,0 10.07,-27.754 10.222,-28.209 4.5802,0.091 8.948,0.33365 12.952,0.66732 4.2465,0.36399 8.1897,0.87963 11.708,1.4863 l 0.30332,0.0303 2.9726,-8.1594 -0.42466,-0.091 c -3.6095,-0.63699 -7.5831,-1.183 -11.739,-1.5773"
         id="path228"
         style="stroke:none;fill:#cccccc;fill-opacity:1" />
      <path
         d="m 658.48,-392.9 c -6.1271,-0.60662 -12.618,-0.90996 -19.291,-0.90996 -6.6731,0 -13.377,0.30334 -19.959,0.90996 -4.4285,0.39433 -8.766,0.90997 -12.891,1.5773 l -0.18199,0.0303 -7.1888,19.807 h 51.474 c -0.27298,0.75831 -1.729,4.7622 -1.8503,5.1261 -6.3698,0.51565 -12.952,0.75831 -19.655,0.75831 -6.7338,0 -13.225,-0.24266 -19.261,-0.78864 -4.2465,-0.36399 -8.1897,-0.8493 -11.739,-1.456 l -0.27298,-0.0607 -2.9726,8.2201 0.39432,0.0607 c 3.6399,0.63697 7.6134,1.183 11.739,1.5773 6.1574,0.57632 12.649,0.87965 19.291,0.87965 6.6731,0 13.377,-0.30333 19.959,-0.87965 4.4285,-0.39432 8.766,-0.9403 12.891,-1.5773 l 0.21233,-0.0303 7.1888,-19.807 h -51.504 c 0.30331,-0.75831 1.7593,-4.7622 1.8806,-5.1262 6.2788,-0.51567 12.891,-0.75831 19.625,-0.75831 6.8248,0 13.286,0.24264 19.291,0.75831 4.2465,0.36399 8.1897,0.87963 11.708,1.4863 l 0.30332,0.0303 2.9726,-8.1594 -0.39432,-0.091 c -3.6702,-0.63699 -7.6134,-1.183 -11.769,-1.5773"
         id="path230"
         style="stroke:none;fill:#cccccc;fill-opacity:1" />
      <path
         d="m 559.38,-380.68 c -4.4892,0.33367 -8.0077,0.57631 -12.831,0.69766 0.21233,-0.69766 1.001,-3.2152 1.001,-3.2152 h -13.013 c 0,0 -0.84932,2.7299 -0.97064,3.1546 -4.0949,-0.12133 -9.1603,-0.33366 -12.649,-0.63699 0.273,-0.78862 4.7622,-13.134 4.7622,-13.134 h -13.013 l -7.1888,19.777 0.39432,0.0607 c 3.6095,0.63699 7.5831,1.183 11.739,1.6076 3.6399,0.33365 8.7964,0.57629 12.891,0.72797 -0.273,0.81896 -5.2778,14.59 -5.2778,14.59 h 13.013 c 0,0 5.1262,-14.105 5.2778,-14.499 4.9442,-0.12132 9.4637,-0.39432 14.196,-0.81895 4.4892,-0.42466 7.9774,-0.97064 12.042,-1.6076 l 0.21231,-0.0303 7.1888,-19.807 h -13.013 c 0,0 -4.6105,12.709 -4.7622,13.134"
         id="path232"
         style="stroke:none;fill:#cccccc;fill-opacity:1" />
      <path
         d="m 1154.2,-392.9 c -6.1574,-0.60662 -12.648,-0.90996 -19.322,-0.90996 -6.4608,0 -13.013,0.30334 -19.382,0.87965 0.091,-0.30334 0.364,-1.0616 0.364,-1.0616 h -13.012 l -13.346,36.732 h 13.012 c 0,0 9.767,-26.935 9.9187,-27.329 6.3091,-0.51567 12.922,-0.75831 19.625,-0.75831 6.6731,0 12.982,0.24264 18.836,0.72798 -0.273,0.84929 -9.9186,27.36 -9.9186,27.36 h 13.012 l 12.345,-33.972 -0.3944,-0.091 c -3.6398,-0.63699 -7.583,-1.183 -11.739,-1.5773"
         id="path234"
         style="stroke:none;fill:#cccccc;fill-opacity:1" />
      <path
         d="m 1286.5,-391.33 c -3.6095,-0.63699 -7.583,-1.183 -11.738,-1.5773 -6.1272,-0.60662 -12.649,-0.90996 -19.291,-0.90996 -6.6731,0 -13.376,0.30334 -19.959,0.90996 -4.4286,0.39433 -8.7661,0.90997 -12.891,1.5773 l -0.182,0.0303 -3.0332,8.2807 0.6067,-0.091 c 3.9432,-0.60663 8.2503,-1.1223 12.77,-1.4863 6.3697,-0.51567 13.043,-0.75831 19.868,-0.75831 6.6428,0 12.952,0.24264 18.836,0.72798 -0.273,0.72797 -1.729,4.7622 -1.8807,5.1565 h -39.189 l -2.8815,7.9774 h 39.189 c -0.273,0.75831 -1.729,4.7622 -1.8806,5.1261 -6.3395,0.51565 -12.952,0.75831 -19.625,0.75831 -6.7338,0 -13.255,-0.24266 -19.291,-0.78864 -4.2466,-0.36399 -8.1898,-0.8493 -11.708,-1.456 l -0.273,-0.0607 -2.9726,8.2201 0.3944,0.0607 c 3.6398,0.63697 7.583,1.183 11.738,1.5773 6.1575,0.57632 12.649,0.87965 19.291,0.87965 6.6731,0 13.376,-0.30333 19.959,-0.87965 4.4286,-0.39432 8.7661,-0.9403 12.891,-1.5773 l 0.2123,-0.0303 11.435,-31.576 -0.3944,-0.091"
         id="path236"
         style="stroke:none;fill:#cccccc;fill-opacity:1" />
      <path
         d="m 924.91,-392.9 c -6.1575,-0.60662 -12.649,-0.90996 -19.322,-0.90996 -6.6731,0 -13.377,0.30334 -19.928,0.90996 -4.4588,0.39433 -8.7964,0.90997 -12.891,1.5773 l -0.21233,0.0303 -3.0029,8.2807 0.57629,-0.091 c 3.9735,-0.60663 8.2807,-1.1223 12.8,-1.4863 4.1859,-0.33367 8.6144,-0.546 13.195,-0.66732 -0.36399,0.90996 -10.252,28.209 -10.252,28.209 h 13.013 c 0,0 10.07,-27.754 10.252,-28.209 4.5498,0.091 8.9177,0.33365 12.922,0.66732 4.2465,0.36399 8.1897,0.87963 11.739,1.4863 l 0.27298,0.0303 2.9726,-8.1594 -0.39433,-0.091 c -3.6399,-0.63699 -7.5831,-1.183 -11.739,-1.5773"
         id="path238"
         style="stroke:none;fill:#cccccc;fill-opacity:1" />
      <path
         d="m 949.88,-357.05 h 13.013 l 13.346,-36.732 h -13.013 l -13.346,36.732"
         id="path240"
         style="stroke:none;fill:#cccccc;fill-opacity:1" />
      <path
         d="m 284.28,-380.04 c -5.8086,0.36398 -12.997,0.57631 -21.381,0.57631 h -17.274 c 0.26694,-0.75831 1.7259,-4.7622 1.8563,-5.1262 6.297,-0.51567 12.903,-0.75831 19.628,-0.75831 6.6488,0 12.97,0.24264 18.836,0.72798 -0.25174,0.69763 -1.5318,4.2465 -1.6652,4.5802 z m 16.698,-11.284 c -3.6399,-0.63699 -7.5891,-1.183 -11.748,-1.5773 -6.1453,-0.60662 -12.636,-0.90996 -19.297,-0.90996 -6.4942,0 -14.105,0.51564 -19.137,0.84932 l -0.80382,0.0606 c -4.0494,0.27301 -11.845,0.97064 -16.577,1.6076 l -2.833,7.8257 c 1.365,-0.091 3.0636,-0.18199 3.5458,-0.18199 -0.33668,0.90999 -9.764,26.874 -9.764,26.874 h 13.016 c 0,0 5.1868,-14.287 5.3446,-14.711 h 17.432 c 27.008,0 34.476,-2.3356 34.788,-2.4266 l 0.15165,-0.0607 6.2818,-17.259 -0.40039,-0.091"
         id="path242"
         style="stroke:none;fill:#cccccc;fill-opacity:1" />
    </g>
  </g>
</svg>
