<?xml version="1.0" encoding="UTF-8" standalone="no"?>
<svg
   id="Layer_1"
   data-name="Layer 1"
   viewBox="0 0 480 92.539833"
   version="1.1"
   sodipodi:docname="logo.svg"
   inkscape:version="1.2.2 (b0a8486541, 2022-12-01)"
   width="480"
   height="92.539833"
   xmlns:inkscape="http://www.inkscape.org/namespaces/inkscape"
   xmlns:sodipodi="http://sodipodi.sourceforge.net/DTD/sodipodi-0.dtd"
   xmlns="http://www.w3.org/2000/svg"
   xmlns:svg="http://www.w3.org/2000/svg"
   xmlns:rdf="http://www.w3.org/1999/02/22-rdf-syntax-ns#"
   xmlns:cc="http://creativecommons.org/ns#"
   xmlns:dc="http://purl.org/dc/elements/1.1/">
  <sodipodi:namedview
     id="namedview62"
     pagecolor="#ffffff"
     bordercolor="#ffffff"
     borderopacity="1"
     inkscape:showpageshadow="0"
     inkscape:pageopacity="0"
     inkscape:pagecheckerboard="1"
     inkscape:deskcolor="#505050"
     showgrid="false"
     inkscape:zoom="1.9608188"
     inkscape:cx="95.878314"
     inkscape:cy="-15.809722"
     inkscape:window-width="1920"
     inkscape:window-height="1015"
     inkscape:window-x="0"
     inkscape:window-y="37"
     inkscape:window-maximized="1"
     inkscape:current-layer="layer1" />
  <defs
     id="defs35">
    <style
       id="style2">
      .cls-1, .cls-2, .cls-3, .cls-4 {
        fill-rule: evenodd;
      }

      .cls-1 {
        fill: url(#linear-gradient);
      }

      .cls-2 {
        fill: url(#linear-gradient-2);
      }

      .cls-3 {
        fill: url(#linear-gradient-3);
      }
    </style>
    <linearGradient
       id="linear-gradient"
       x1="116.84"
       y1="129.72"
       x2="116.84"
       gradientUnits="userSpaceOnUse">
      <stop
         offset="0"
         stop-color="#23bcee"
         id="stop4" />
      <stop
         offset="0.07"
         stop-color="#24b0e5"
         id="stop6" />
      <stop
         offset="0.36"
         stop-color="#2785c3"
         id="stop8" />
      <stop
         offset="0.63"
         stop-color="#2965aa"
         id="stop10" />
      <stop
         offset="0.85"
         stop-color="#2b529b"
         id="stop12" />
      <stop
         offset="1"
         stop-color="#2b4b96"
         id="stop14" />
    </linearGradient>
    <linearGradient
       id="linear-gradient-2"
       x1="634.51001"
       y1="125.33"
       x2="634.51001"
       y2="3.46"
       gradientUnits="userSpaceOnUse">
      <stop
         offset="0"
         stop-color="#09b2cf"
         id="stop17" />
      <stop
         offset="1"
         stop-color="#304e97"
         id="stop19" />
    </linearGradient>
    <linearGradient
       id="linear-gradient-3"
       x1="358"
       y1="129.72"
       x2="358"
       gradientUnits="userSpaceOnUse">
      <stop
         offset="0"
         stop-color="#09b2cf"
         id="stop22" />
      <stop
         offset="0.2"
         stop-color="#178fbb"
         id="stop24" />
      <stop
         offset="0.4"
         stop-color="#2273ab"
         id="stop26" />
      <stop
         offset="0.6"
         stop-color="#2a5ea0"
         id="stop28" />
      <stop
         offset="0.8"
         stop-color="#2e5299"
         id="stop30" />
      <stop
         offset="1"
         stop-color="#304e97"
         id="stop32" />
    </linearGradient>
  </defs>
  <title
     id="title37">PlayStation 2 logo</title>
  <g
     id="layer1"
     inkscape:label="Image"
     transform="translate(-135.19,-156.61308)">
    <g
       id="g956"
       inkscape:label="logo"
       transform="matrix(1.2940098,0,0,1.2940098,-110.30954,-59.649591)">
      <g
         id="g914"
         inkscape:label="text"
         style="fill:#000000;fill-opacity:1;stroke:none">
        <path
           id="path3003"
           d="m 189.72,175.41 v 45.71 h 7.14 v -41.33 h 6.6 c 0,0 4.8,0 6.44,2.14 1.4,1.83 1.66,5.13 1.66,7.37 0,2.24 -0.16,6.08 -1,7.43 -1.21,2.07 -3.21,2.48 -5,2.48 h -4.36 v 4.06 h 6.27 c 0,0 5.66,0.23 8.09,-2.24 3,-3 3.74,-7.11 3.74,-12.56 0,-5 -1.8,-10 -5.47,-11.66 -3.05,-1.4 -8.54,-1.4 -8.54,-1.4 h -15.57"
           style="fill:#000000;fill-opacity:1;stroke:none" />
        <path
           id="path3005"
           d="M 224.91,221.12 H 232 v -45.71 h -7.13 v 45.71 z"
           style="fill:#000000;fill-opacity:1;stroke:none" />
        <path
           id="path3007"
           d="m 270,186.07 13.05,34.21 -7.49,18.36 h 5.92 l 21.58,-52.57 h -6.61 l -9.4,25.62 -8.75,-25.62 H 270"
           style="fill:#000000;fill-opacity:1;stroke:none" />
        <path
           id="path3009"
           d="m 308.45,220.85 v -4.32 c 0,0 7.54,0.29 9.11,0.29 3.49,0 5.22,-0.74 6.53,-2.14 0.78,-0.85 1.48,-4.58 1.48,-5.9 a 18.29,18.29 0 0 0 -0.78,-5.36 4.23,4.23 0 0 0 -3.57,-2.38 c -1.3,-0.11 -3.31,-0.38 -5.66,-0.48 a 9.08,9.08 0 0 1 -6.52,-3.12 c -1.05,-1.23 -2.44,-3.09 -2.44,-8.79 0,-5.7 1.48,-8.91 3,-10.39 a 10,10 0 0 1 5.31,-2.45 41,41 0 0 1 5,-0.34 l 10,0.29 v 4.32 c 0,0 -7.29,-0.29 -8.85,-0.29 -3.49,0 -4.53,0.74 -5.84,2.14 a 8.43,8.43 0 0 0 -1.37,4.46 17,17 0 0 0 0.68,5.17 4.23,4.23 0 0 0 3.57,2.39 c 1.29,0.1 3.31,0.36 5.65,0.47 a 9,9 0 0 1 6.52,3.11 c 1.05,1.24 2.45,3.86 2.45,9.55 0,5.69 -1.49,9.79 -3,11.27 a 10,10 0 0 1 -5.31,2.44 39.94,39.94 0 0 1 -5.05,0.35 l -10.94,-0.29"
           style="fill:#000000;fill-opacity:1;stroke:none" />
        <path
           id="path3011"
           d="m 347.38,179.79 h -7.13 v 33.55 c 0,0 0.17,3.07 0.34,4.14 0.17,1.07 1.75,3.64 5.84,3.64 l 7.39,-0.15 v -4.3 c 0,0 -2,0.14 -3.21,0.14 -1.21,0 -2.71,-0.08 -3,-2.15 a 41.27,41.27 0 0 1 -0.27,-4.53 v -19.76 h 8.06 v -4.3 h -8.06 v -6.28"
           style="fill:#000000;fill-opacity:1;stroke:none" />
        <path
           id="path3013"
           d="m 416.24,221.12 h 7.13 v -35.05 h -7.13 z"
           style="fill:#000000;fill-opacity:1;stroke:none" />
        <path
           id="path3015"
           d="m 416.24,181.77 h 7.13 v -6.36 h -7.13 z"
           style="fill:#000000;fill-opacity:1;stroke:none" />
        <path
           id="path3017"
           d="m 445.92,185.77 c 4.85,0 8.62,1.08 10.64,2.72 2.02,1.64 4.55,5.1 4.55,15.11 0,10.01 -2.51,13.46 -4.55,15.1 -2.04,1.64 -5.79,2.73 -10.64,2.73 -4.85,0 -8.62,-1.09 -10.66,-2.73 -2.04,-1.64 -4.53,-5.1 -4.53,-15.1 0,-10 2.49,-13.47 4.53,-15.11 2.04,-1.64 5.79,-2.72 10.66,-2.72 z m -4.92,6.72 c -1,1.21 -2.18,3.75 -2.18,11.11 0,7.36 1.19,9.89 2.18,11.1 a 7.54,7.54 0 0 0 10.23,0 c 1,-1.21 2.18,-3.75 2.18,-11.1 0,-7.35 -1.2,-9.9 -2.18,-11.11 a 7.54,7.54 0 0 0 -10.23,0"
           style="fill:#000000;fill-opacity:1;stroke:none" />
        <path
           id="path3019"
           d="m 475.89,191 7,-0.29 c 1.83,0 4,0.49 5,1.81 a 7.71,7.71 0 0 1 1.59,5.14 v 23.43 h 7.14 v -24 c 0,-4.55 -1.4,-7.19 -3.49,-8.85 -3,-2.37 -8.36,-2.14 -8.36,-2.14 l -16,0.29 v 34.72 h 7.08 V 191"
           style="fill:#000000;fill-opacity:1;stroke:none" />
        <path
           id="path3021"
           d="m 402,179.79 h -7.1 v 33.55 c 0,0 0.16,3.07 0.34,4.14 0.18,1.07 1.73,3.64 5.84,3.64 l 7.39,-0.15 v -4.3 c 0,0 -2,0.14 -3.22,0.14 -1.22,0 -2.7,-0.08 -3,-2.15 a 42.84,42.84 0 0 1 -0.26,-4.53 v -19.76 h 8 v -4.3 h -8 v -6.28"
           style="fill:#000000;fill-opacity:1;stroke:none" />
        <path
           id="path3023"
           d="m 259.12,197.65 a 7.71,7.71 0 0 0 -1.59,-5.14 c -1,-1.32 -3.19,-1.81 -5,-1.81 l -9.41,0.29 v -4.63 l 11.33,-0.29 c 0,0 5.36,-0.23 8.35,2.14 2.09,1.66 3.48,4.3 3.48,8.85 v 23.68 l -13.67,0.3 c 0,0 -6.19,0 -9.31,-1.24 -3.12,-1.24 -4.7,-4.63 -4.7,-9.34 0,-4.55 1.39,-7.19 3.48,-8.85 3,-2.38 8.36,-2.14 8.36,-2.14 h 4.36 v 4 h -2.45 c -1.83,0 -3.72,0.34 -4.77,1.67 a 6.5,6.5 0 0 0 -1.5,4.7 c 0,3.15 0.61,4.55 2.09,5.62 1.31,1 3.65,1.16 6.27,1.16 l 4.71,-0.28 v -18.69"
           style="fill:#000000;fill-opacity:1;stroke:none" />
        <path
           id="path3025"
           d="m 379.43,197.65 a 7.71,7.71 0 0 0 -1.58,-5.14 c -1.05,-1.32 -3.2,-1.81 -5,-1.81 l -9.41,0.29 v -4.63 l 11.32,-0.29 c 0,0 5.35,-0.23 8.35,2.14 2.09,1.66 3.48,4.3 3.48,8.85 v 23.68 l -13.67,0.3 c 0,0 -6.2,0 -9.31,-1.24 -3.11,-1.24 -4.71,-4.63 -4.71,-9.34 0,-4.55 1.41,-7.19 3.48,-8.85 3,-2.38 8.37,-2.14 8.37,-2.14 h 4.36 v 4 h -2.45 c -1.83,0 -3.73,0.34 -4.76,1.67 a 6.46,6.46 0 0 0 -1.51,4.7 c 0,3.15 0.61,4.55 2.09,5.62 1.3,1 3.66,1.16 6.27,1.16 l 4.7,-0.28 v -18.69"
           style="fill:#000000;fill-opacity:1;stroke:none" />
        <path
           id="path3031"
           d="m 560.64,181.31 c 0.1,5.27 -0.16,8 -1.93,10.69 -1.56,2.31 -4.65,4.44 -11.48,4.44 l -8.47,-0.26 c -1.33,0 -4.8,0.41 -6.44,2.18 -1.41,1.5 -1.5,2.64 -1.66,6.68 v 11.81 h 28.81 v 5.81 H 528 526.5 a 4.12,4.12 0 0 1 -4.25,-4.35 v -8.82 c 0.14,-10.32 0.89,-11.8 3.13,-14.5 1.55,-1.86 5.18,-3.95 9.62,-4.18 a 45.35,45.35 0 0 1 4.79,-0.07 c 1.7,0.05 3.36,0.1 4.1,0.1 3.92,0.05 5.35,-0.67 6.43,-2.08 1.22,-1.59 1.87,-3.45 1.87,-6.51 0,-2.85 -0.58,-5.57 -1.67,-6.82 -1.33,-1.45 -2.58,-2.42 -6.28,-2.42 -9.3,0 -20.18,0.21 -20.18,0.21 v -5.46 c 0,0 10.63,-0.47 21.47,-0.63 6.75,-0.1 10.46,1.68 12.35,4.15 1.89,2.47 2.7,5 2.78,10.05"
           style="fill:#000000;fill-opacity:1;stroke:none" />
      </g>
    </g>
  </g>
  <metadata
     id="metadata64">
    <rdf:RDF>
      <cc:Work
         rdf:about="">
        <dc:title>PlayStation 2 logo</dc:title>
      </cc:Work>
    </rdf:RDF>
  </metadata>
</svg>
