<?xml version="1.0" encoding="UTF-8" standalone="no"?>
<!-- Created with Inkscape (http://www.inkscape.org/) -->

<svg
   version="1.1"
   id="svg3031"
   width="256"
   height="256"
   viewBox="0 0 256.00001 256"
   xml:space="preserve"
   xmlns="http://www.w3.org/2000/svg"
   xmlns:svg="http://www.w3.org/2000/svg"><defs
     id="defs3035" /><g
     id="layer3"
     style="fill:#ffffff"
     transform="translate(-1161.7997,-1124.174)"><g
       id="g3570"
       style="display:inline"
       transform="matrix(0.11594202,0,0,0.11594202,1144.6201,1106.9944)"><rect
         style="fill:#ffffff;stroke-width:1.63731;-inkscape-stroke:none;paint-order:markers stroke fill;stop-color:#000000"
         id="rect3564"
         width="1549.5653"
         height="2198.6086"
         x="477.39133"
         y="152.86957" /><path
         style="display:inline;fill:#000000;stroke-width:1.04348"
         d="M 472.69567,1252.174 V 148.17392 h 779.47833 779.4782 v 1104.00008 1104 H 1252.174 472.69567 Z m 1554.26093,0 V 152.86957 H 1252.174 477.39132 l -0.26651,1098.26093 c -0.14657,604.0435 -0.0438,1098.8481 0.22839,1099.566 0.39557,1.043 155.95139,1.2524 775.0492,1.0434 l 774.5542,-0.2616 z m -1501.04354,2.6086 V 213.91305 h 718.95654 718.9565 V 1254.7826 2295.6522 H 1244.8696 525.91306 Z m 441.39132,801.3914 v -156 h 11.78297 11.78298 l 35.31577,153.1304 c 19.4236,84.2218 35.7097,154.187 36.1911,155.4783 l 0.8755,2.3478 h 31.3301 c 17.2317,0 31.3303,-0.3791 31.3303,-0.8424 0,-1.0547 -65.6034,-311.0585 -66.3153,-313.3675 -0.4135,-1.3413 0.5305,-1.8275 4.5946,-2.3666 18.7096,-2.482 38.9949,-24.1012 46.3156,-49.3616 l 2.3616,-8.1489 V 1718.087 1599.1305 l -2.2635,-5.9184 c -7.8667,-20.5685 -25.6954,-36.0007 -49.9481,-43.2343 -5.6622,-1.6888 -13.066,-1.8897 -82.13623,-2.2283 l -75.91305,-0.3722 v 332.3983 332.3984 h 32.34783 32.34783 z m 1.04347,-335.4783 V 1612.174 h 38.60875 38.6086 v 108.5217 108.5217 h -38.6086 -38.60875 z m -135.65217,230.087 v -260.3479 h -52.189 -52.18899 l 0.27595,32.087 0.27595,32.0869 17.47826,0.2862 17.47826,0.2861 v 195.6269 195.6269 H 723.13046 682.4348 V 1754.087 1361.7392 h 39.65218 39.65217 v 91.8261 91.826 h 35.51364 35.51365 l -0.29626,-98.3478 -0.29624,-98.3478 -2.42711,-6.7826 c -4.33518,-12.1148 -9.34402,-19.8146 -19.40768,-29.8347 -7.66031,-7.6271 -11.26115,-10.3414 -18.36843,-13.8459 -14.79946,-7.2974 -17.86523,-7.6109 -70.8782,-7.2471 l -46.4838,0.319 -8.33781,2.9464 c -19.71482,6.9667 -35.7907,21.6907 -44.23852,40.5183 -6.29914,14.0388 -5.85846,-17.5026 -5.85846,419.3179 0,386.5199 0.0703,401.4468 1.91866,407.4783 5.72623,18.6857 20.31318,34.5351 39.99916,43.4612 13.24473,6.0054 11.91612,5.9226 96.60392,6.0171 l 78.00001,0.087 z m 412.17392,102.7826 v -157.5652 h 40.6957 40.6956 v 157.5652 157.5652 h 32.3599 32.36 l -0.273,-305.4783 c -0.2582,-288.8388 -0.3737,-305.8192 -2.1216,-311.7391 -3.3307,-11.2801 -7.9896,-19.3984 -15.286,-26.6366 -8.019,-7.9548 -16.5903,-12.7739 -27.8351,-15.6499 -7.5085,-1.9204 -11.6705,-2.0605 -60.8494,-2.0489 -42.9675,0.01 -53.8559,0.2961 -58.5208,1.5374 -19.4977,5.1885 -34.7056,20.005 -43.0986,41.989 l -2.3006,6.0264 -0.2713,306 -0.2712,306 h 32.3581 32.3583 z M 1248,1722.7827 v -106.4348 h 38.087 38.087 v 106.4348 106.4347 H 1286.087 1248 Z m 279.6522,330.7826 v -157.5652 h 41.2174 41.2174 v -32.8696 -32.8696 h -41.2174 -41.2174 V 1719.1305 1608 h 50.087 50.0869 v -29.2173 -29.2174 l -58.1739,0.013 c -63.8403,0.014 -63.4743,-0.018 -75.4882,6.3823 -12.7291,6.7806 -22.6628,18.1074 -28.7098,32.7357 l -3.0194,7.3044 -0.2712,307.5652 -0.2712,307.5652 h 32.8799 32.8799 v -157.5652 z m 207.3946,-8.0999 0.2641,-165.1433 20.2558,-30.373 20.2559,-30.373 20.4366,30.644 20.4365,30.6439 v 165.1332 165.1333 h 32.3478 32.3479 V 2049.59 c 0,-161.2499 0,-161.5563 -2.2174,-170.3478 -6.3392,-25.1782 -27.8565,-68.2192 -57.9394,-115.8953 l -7.6546,-12.1313 8.7414,-13.9556 c 23.518,-37.5463 44.8745,-78.7099 52.9867,-102.1295 l 4.518,-13.0435 0.2767,-164.6087 0.2767,-164.6087 h -33.9289 -33.9288 v 167.5384 167.5383 l -18.42,27.3312 c -10.131,15.0322 -18.7349,27.6943 -19.1198,28.138 -0.3848,0.4436 -9.4697,-12.3507 -20.1887,-28.4318 l -19.4889,-29.2385 v -166.4378 -166.4378 h -34.4348 -34.4348 v 160.2288 c 0,144.454 0.1677,160.9682 1.7038,167.7391 5.4437,23.9965 27.2273,65.5743 59.6575,113.8668 5.4246,8.0779 9.8665,15.1566 9.8709,15.7305 0,0.5739 -4.3759,7.8522 -9.7341,16.1739 -25.582,39.7304 -48.975,83.546 -56.8909,106.5582 l -4.0854,11.8766 -0.2769,163.0578 -0.2768,163.0578 34.1899,-0.2752 34.1899,-0.2751 z m -313.0056,-560.6536 c 57.0987,-6.2059 112.6823,-38.095 149.5506,-85.7994 51.3695,-66.4675 62.6884,-161.0916 28.2362,-236.0522 -23.5046,-51.1413 -63.6652,-92.2106 -114.2776,-116.8632 -24.7148,-12.0383 -45.1696,-17.9691 -70.0721,-20.3172 -15.3292,-1.4455 -330.4538,-1.4648 -346.7619,-0.021 -72.33336,6.4026 -145.38736,58.4993 -180.40323,128.6503 -18.11989,36.3014 -25.19434,71.1494 -23.13067,113.939 3.54209,73.4447 41.13801,140.3903 101.61151,180.9358 27.58979,18.498 63.26369,31.9519 93.90169,35.4134 12.2367,1.3825 348.6979,1.4894 361.3455,0.1148 z m -364.5165,-39.8487 c -21.8352,-2.7241 -50.9384,-14.9865 -73.69285,-31.05 -44.10059,-31.1327 -71.2957,-75.1867 -79.78454,-129.2447 -2.57048,-16.3693 -2.34222,-46.0306 0.4749,-61.7118 5.48928,-30.5555 16.52162,-55.9814 35.09199,-80.8756 8.03264,-10.7679 26.85423,-29.6084 37.97801,-38.0162 23.08149,-17.4458 50.37759,-30.0267 74.68649,-34.4232 4.2562,-0.7697 63.6652,-1.1198 190.0586,-1.1198 162.4154,0 184.8706,0.1904 192.4699,1.6319 24.1552,4.5822 52.0566,17.9861 75.6276,36.3319 20.5697,16.0098 42.2042,42.41 53.9729,65.8623 28.5466,56.8867 23.4745,133.5156 -12.4669,188.3478 -23.0952,35.234 -61.0968,64.5193 -100.9138,77.7677 -21.3958,7.1191 -9.4708,6.7168 -207.7632,7.0102 -98.7354,0.1461 -182.318,-0.083 -185.7391,-0.5105 z m 67.3449,-72.2674 v -19.3044 h -16.6957 -16.6956 v -116.3478 -116.3478 h -36 -36 V 1140 v 19.3044 h 16.6956 16.6957 v 97.5652 97.5652 h -17.2174 -17.2174 V 1373.2174 1392 h 53.2174 53.2174 z m 321.6685,5.9843 12.2446,-12.2765 v -53.7038 -53.7039 l -9.6316,-9.6718 -9.6316,-9.6718 h -114.5423 -114.5424 v -40.6956 -40.6957 h 106.9565 106.9566 v 17.2174 17.2174 h 17.2174 17.2174 v -24.7648 -24.7648 l -10.677,-10.7134 -10.6771,-10.7135 H 1317.948 1198.4675 l -11.7555,11.7221 -11.7554,11.7221 v 110.0888 110.089 l 12.7669,12.7977 12.767,12.7977 h 116.9015 116.9016 z m -234.0163,-64.4191 v -39.1304 h 104.8695 104.8696 v 39.1304 39.1304 h -104.8696 -104.8695 z m 619.8261,-99.4965 c 19.8234,-7.0176 38.551,-25.3415 46.6989,-45.6921 l 2.8663,-7.1592 0.2751,-403.30438 c 0.2724,-399.47341 0.2553,-403.36879 -1.7926,-410.08697 -5.0161,-16.45427 -20.4097,-33.61873 -37.8863,-42.24466 -15.282,-7.5427 -17.6448,-7.80567 -70.1614,-7.80876 -37.2443,-0.002 -47.1712,0.29388 -52.5767,1.56809 -18.1431,4.27678 -37.4208,19.87707 -45.7308,37.00707 -2.3665,4.87826 -4.811,11.35789 -5.4324,14.39918 -1.6049,7.85554 -1.5973,802.35573 0.01,810.15823 1.6216,7.8828 8.3003,21.1524 14.4143,28.6391 10.6586,13.0514 29.769,24.4569 44.295,26.4363 3.5277,0.4806 27.075,0.7874 52.3271,0.6816 45.007,-0.1886 46.047,-0.2397 52.6957,-2.5935 z M 1739.4783,756.52176 V 364.17392 h 36.5218 36.5217 v 392.34784 392.34784 h -36.5217 -36.5218 z M 725.21741,787.30437 V 358.95653 h 29.21739 29.2174 v -31.30435 -31.30435 h -99.65218 -99.65218 v 32.86957 32.86957 h 34.95653 34.95652 v 426.78262 426.78261 h 35.47826 35.47826 z M 994.2195,962.59478 c 11.9578,-2.81916 21.7008,-8.43972 31.6303,-18.24693 6.9575,-6.87182 9.8331,-10.63227 12.7669,-16.69565 7.555,-15.61405 6.9485,12.77498 6.9485,-325.26272 V 297.39131 h -33.913 -33.91304 v 300.00001 300.00001 h -38.6087 -38.60869 V 597.39132 297.39131 h -33.92342 -33.92342 l 0.27124,306.52175 0.27125,306.52175 2.34535,6.15617 c 6.87408,18.04334 19.25606,32.3291 34.69813,40.03312 14.92896,7.44804 14.54226,7.40612 68.86956,7.46575 39.39033,0.0432 49.75766,-0.23813 55.08904,-1.49507 z m 182.5666,-154.68171 0.2642,-155.73914 h 11.885 c 8.5639,0 12.015,0.36448 12.3506,1.30435 0.2562,0.71739 16.3806,70.44783 35.8323,154.95653 l 35.3667,153.65217 h 31.5836 c 25.3099,0 31.5837,-0.27098 31.5837,-1.36416 0,-0.75029 -14.7913,-71.21228 -32.8696,-156.58221 -18.0782,-85.36992 -32.8695,-155.61912 -32.8695,-156.10934 0,-0.4902 1.9956,-1.21363 4.4348,-1.60759 16.0528,-2.59284 34.4447,-19.8896 43.2602,-40.68453 5.563,-13.12253 5.5233,-12.14109 5.51,-136.3908 -0.01,-97.22904 -0.2473,-115.97022 -1.5263,-120.77629 -4.3743,-16.43702 -18.0092,-32.05949 -35.5048,-40.68034 -16.5464,-8.15317 -11.8004,-7.75595 -97.3044,-8.14369 l -76.4347,-0.34661 v 331.69061 c 0,182.42984 0.3198,332.01041 0.7107,332.40128 0.3908,0.39087 14.8299,0.58652 32.0869,0.43478 l 31.3763,-0.27589 z m 2.3444,-335.2174 V 364.17392 h 38.6087 38.6087 v 108.52175 108.52174 h -38.6087 -38.6087 z m 373.0851,487.81573 c 21.3413,-5.40665 37.8904,-20.4402 44.4102,-40.34346 l 2.5047,-7.64617 V 783.13046 c 0,-122.91817 -0.096,-129.67842 -1.9221,-135.13044 -3.0078,-8.98124 -8.7554,-17.57245 -17.5193,-26.18697 l -8.0636,-7.9261 8.6125,-8.76955 c 4.8605,-4.94918 10.2601,-11.72636 12.3946,-15.55682 7.3444,-13.17962 7.0196,-7.31156 7.0196,-126.83028 0,-103.75232 -0.074,-107.90305 -2.0613,-115.67358 -5.3541,-20.93403 -20.0682,-36.60984 -41.4743,-44.18456 l -8.1166,-2.87215 -79.5652,-0.29206 -79.5652,-0.29206 v 331.33555 331.33554 h 78.5634 c 66.6224,0 79.5086,-0.23947 84.7826,-1.57558 z M 1456.6957,774.26089 V 651.13045 h 38.087 38.0869 v 123.13044 123.13044 h -38.0869 -38.087 z m 0,-301.56522 V 364.17392 h 38.087 38.0869 v 108.52175 108.52174 h -38.0869 -38.087 z"
         id="path3345" /></g></g></svg>
