<?xml version="1.0" encoding="UTF-8" standalone="no"?>
<!-- Created with Inkscape (http://www.inkscape.org/) -->

<svg
   version="1.1"
   id="svg6370"
   width="480"
   height="87.681908"
   viewBox="0 0 480 87.681908"
   xmlns="http://www.w3.org/2000/svg"
   xmlns:svg="http://www.w3.org/2000/svg">
  <defs
     id="defs6374" />
  <g
     id="g6376"
     transform="translate(-1033.6531,-229.8871)">
    <g
       id="g6497"
       transform="matrix(0.20089514,0,0,0.20089514,1017.7824,218.73742)"
       style="stroke:none">
      <path
         style="display:inline;fill:#d4e04c;stroke:none"
         d="m 1140.2279,479.87324 c -9.4725,-1.18614 -20.047,-7.67571 -25.6265,-15.72696 -6.2409,-9.00562 -5.8018,4.18235 -6.3308,-190.14628 -0.3159,-116.07819 -0.1356,-179.958384 0.521,-184.604369 1.936,-13.697356 10.6154,-25.474612 22.9558,-31.149104 l 5.7526,-2.645245 28.5187,-0.05064 28.5187,-0.05064 6.64,3.267704 c 8.4522,4.159539 16.7377,12.859003 19.951,20.947716 2.2154,5.576718 2.3111,7.051246 2.6631,41.034578 l 0.3651,35.25 H 1205.0783 1186 V 124.5 93.000002 h -21 -21 V 269.5 446 h 21.5 21.5 V 360.5 275 h -9.5 -9.5 v -17 -17 h 27.5 27.5 l 0.1592,43.75 c 0.2515,69.10679 0.258,91.34449 0.043,145.38303 l -0.2018,50.63304 -38.75,-0.11633 c -21.3125,-0.064 -41.1224,-0.4134 -44.0221,-0.7765 z m 180.4388,0.46009 C 1320.3,479.96667 1320,400.31667 1320,303.33333 V 127 h 38.9508 c 25.031,0 40.8445,0.40182 44.25,1.12438 10.7913,2.28968 21.249,9.68246 26.6198,18.8181 L 1432.5,151.5 v 67 67 l -2.734,5.83589 c -5.0095,10.69305 -13.5616,18.78473 -21.4097,20.25705 -1.846,0.34631 -3.3556,1.14206 -3.3548,1.76835 8e-4,0.62629 2.7163,13.73871 6.0345,29.13871 6.9489,32.24984 28.964,136.43765 28.964,137.07348 0,0.23458 -7.6197,0.42652 -16.9326,0.42652 -15.2533,0 -16.9863,-0.17355 -17.4741,-1.75 -0.2979,-0.9625 -8.8807,-37.90955 -19.073,-82.10456 -10.1923,-44.195 -18.7805,-80.7575 -19.0849,-81.25 -0.7323,-1.18491 -8.527,-1.1229 -10.4354,0.083 -1.3095,0.82746 -1.5385,11.42951 -1.8033,83.48468 L 1354.8935,481 h -16.7801 c -9.229,0 -17.0801,-0.3 -17.4467,-0.66667 z M 1397,219.5 V 162 h -20.5 -20.5 v 57.5 57.5 h 20.5 20.5 z m 131.2383,97.25 0.2617,-164.25 2.648,-5.64796 c 3.3277,-7.09797 9.5451,-13.37787 16.204,-16.36699 4.7986,-2.154 6.9129,-2.35559 31.148,-2.96973 16.8066,-0.4259 28.5764,-0.27936 33.2863,0.41444 12.209,1.79845 20.1582,7.15006 25.3559,17.07024 l 2.3578,4.5 0.2616,165.75 0.2616,165.75 H 1623.0116 1606 V 396.5 312 h -21.5 -21.5 v 84.5 84.5 h -17.5117 -17.5117 z M 1605,220 v -57 h -20.5 -20.5 v 57 57 h 20.5 20.5 z m 124.2413,95.25 0.2587,-165.75 2.4606,-4.81676 c 2.9358,-5.74697 9.5632,-12.11009 15.3491,-14.73689 3.8419,-1.74426 6.9132,-1.90425 36.9403,-1.92439 L 1817,128 v 15.5 15.5 h -26.5 -26.5 v 59.5 59.5 h 21.3492 21.3492 l 0.6456,9.75 c 0.3551,5.3625 0.648,13.0125 0.6508,17 l 0.01,7.25 h -22 -22 v 84.5 84.5 h -17.5087 -17.5088 l 0.2588,-165.75 z m 175.9718,105.5 0.2869,-60.25 3.3182,-8 c 5.5924,-13.48324 19.5145,-38.55666 30.4293,-54.80262 l 3.8985,-5.80263 -10.115,-15.44465 c -12.0133,-18.34302 -20.7104,-34.65179 -24.9468,-46.77978 L 1905,220.84064 V 174.42032 128 h 18.5 18.5 v 48.63618 48.63618 l 10.1527,15.41107 c 5.5841,8.4761 10.4602,15.05231 10.8359,14.61382 1.7807,-2.07808 14.0237,-20.36373 16.6028,-24.79725 l 2.9086,-5 -0.01,-48.75 -0.01,-48.75 h 18.5485 18.5484 l -0.1888,46.25 c -0.1166,28.55407 -0.5973,48.0042 -1.2563,50.83477 -2.3847,10.24184 -12.9871,31.87353 -26.7466,54.57021 -6.9582,11.47756 -7.5486,12.85174 -6.338,14.75083 15.3917,24.14543 27.939,48.13705 31.8268,60.85601 1.9135,6.25973 2.0927,9.7497 2.4137,47 0.1908,22.131 0.185,48.90068 -0.013,59.48818 L 2018.915,481 h -16.9582 -16.9582 v -59.34741 -59.3474 l -5.2949,-8.4026 c -2.9121,-4.62142 -7.7928,-12.11999 -10.8458,-16.66347 l -5.551,-8.26089 -11.2277,16.90043 -11.2276,16.90043 0.1844,31.36046 c 0.1015,17.24825 0.1346,43.84795 0.073,59.11045 L 1941,481 h -18.0369 -18.037 z"
         id="path6501" />
      <path
         style="display:inline;fill:#f69125;stroke:none"
         d="m 2260.5,490.90007 c -19.7082,-2.05432 -41.9707,-8.56202 -60.9777,-17.82478 -38.7551,-18.88665 -68.5402,-48.76626 -87.0263,-87.30255 -34.0847,-71.05329 -20.0669,-156.46284 34.7993,-212.02956 50.7073,-51.35465 123.3996,-69.16185 192.1632,-47.07357 61.274,19.68249 107.9054,70.02844 123.9561,133.83039 4.9555,19.69798 6.3679,51.11697 3.2102,71.40915 C 2451.0033,432.29858 2361.3942,501.417 2260.5,490.90007 Z M 2219,375 v -11 h -9.9932 -9.9932 l -0.2568,-69.75 -0.2568,-69.75 -21.25,-0.26989 -21.25,-0.26989 V 235.48011 247 h 10 10 v 58.5 58.5 h -10 -10 v 11 11 h 31.5 31.5 z m 179.6659,3.75 c 3.3595,-3.4375 6.609,-7.23292 7.2211,-8.43426 0.7433,-1.45872 1.113,-12.04889 1.113,-31.88196 0,-33.65047 0.1884,-32.76079 -8.4327,-39.82512 L 2394.1634,295 H 2326.0817 2258 V 270.5 246 h 64.5 64.5 v 10.5 10.5 h 10 10 v -14.72309 -14.7231 l -6.2211,-6.2769 L 2394.5578,225 h -71.6343 -71.6343 l -6.6446,6.08859 -6.6446,6.08859 v 67.0547 67.05469 l 7.0778,6.85671 7.0779,6.85672 h 70.201 70.2011 z M 2259,339.5 V 316 h 63 63 v 23.5 23.5 h -63 -63 z M 117,286 V 91 H 98 79 V 73.5 56 h 55 55 V 73.5 91 H 171.5 154 V 286 481 H 135.5 117 Z m 176.74592,193.9498 c -10.79348,-2.64581 -21.6732,-12.17333 -25.92532,-22.70314 L 265.5,451.5 265.23526,289.25 264.97051,127 H 282.98526 301 v 159 159 h 21 21 V 286 127 h 18.01174 18.01175 L 378.76174,290.75 378.5,454.5 l -2.64796,5.64796 c -3.49767,7.46035 -9.54472,13.33658 -17.70079,17.20079 L 351.5,480.5 l -27,0.18502 c -14.85,0.10176 -28.68933,-0.22909 -30.75408,-0.73522 z M 472,304 V 127 l 37.25,0.008 c 20.98778,0.004 40.0501,0.46188 43.66387,1.04823 12.81998,2.08009 24.64006,10.40651 29.39919,20.70966 2.16408,4.68506 2.18998,5.38278 2.47751,66.73456 0.32996,70.40241 0.23927,71.50217 -6.79336,82.38301 -4.36773,6.75773 -10.02938,11.33583 -17.1436,13.86258 -3.95451,1.40452 -4.69393,2.04827 -4.27984,3.72613 0.27532,1.11555 8.28569,38.70328 17.80081,83.52828 l 17.30023,81.5 -16.51295,0.27497 c -9.54309,0.15892 -16.75542,-0.12142 -17.08741,-0.66416 -0.31595,-0.51653 -9.08813,-37.87777 -19.49374,-83.02498 L 519.66142,315 H 513.33071 507 v 83 83 H 489.5 472 Z m 77,-84 V 162 H 528.5 508 v 58 58 h 20.5 20.5 z m 136,83.99059 v -177.1079 l 42.75,0.33759 c 39.74854,0.31388 43.0967,0.47597 47.68804,2.30865 6.80344,2.71566 15.73217,11.17909 18.68431,17.71061 L 796.5,152.5 v 62 c 0,61.70214 -0.0104,62.01947 -2.16943,66.05224 -1.19319,2.22872 -4.27239,6.39122 -6.84267,9.25 L 782.81466,295 l 4.74385,5.25 c 2.60912,2.8875 5.68832,7.275 6.84267,9.75 2.06936,4.43683 2.09882,5.48959 2.09882,75 0,67.09267 -0.0927,70.74029 -1.91743,75.47183 -2.66224,6.90313 -9.3054,13.66473 -16.84826,17.14865 L 771.5,480.5 728.25,480.79925 685,481.0985 Z M 762,380 V 314 H 741.5 721 v 66 66 h 20.5 20.5 z m 0,-160 V 162 H 741.5 721 v 58 58 h 20.5 20.5 z m 157.96214,260.11257 c -10.33257,-2.12842 -21.97306,-11.63093 -26.75911,-21.84432 L 890.5,452.5 v -149 -149 l 2.73598,-5.57102 c 3.36327,-6.8483 10.51341,-14.26156 16.85469,-17.47493 7.44075,-3.77051 16.76603,-4.71802 41.34328,-4.20075 25.44842,0.5356 29.02512,1.30198 38.4472,8.23812 6.86258,5.05195 12.47985,12.82425 14.09945,19.50858 0.7685,3.17165 1.0061,47.74531 0.8049,151 l -0.2855,146.5 -2.9416,6 c -3.7665,7.68244 -11.92836,15.84719 -19.29015,19.29697 L 976.5,480.5 950,480.67067 c -14.575,0.0939 -28.09204,-0.15728 -30.03786,-0.5581 z M 967.75346,303.25 967.5,162.5 H 948 928.5 L 928.24654,303.25 927.99308,444 H 948 968.00692 Z"
         id="path6499" />
    </g>
  </g>
</svg>
