<?xml version="1.0" encoding="UTF-8" standalone="no"?>
<!-- Generator: Adobe Illustrator 25.0.0, SVG Export Plug-In . SVG Version: 6.00 Build 0)  -->

<svg
   version="1.1"
   id="Layer_1"
   x="0px"
   y="0px"
   viewBox="0 0 480 158.24176"
   xml:space="preserve"
   width="480"
   height="158.24176"
   xmlns="http://www.w3.org/2000/svg"
   xmlns:svg="http://www.w3.org/2000/svg"><defs
   id="defs372"><filter
     style="color-interpolation-filters:sRGB;"
     id="filter1628"
     x="0"
     y="0"
     width="1"
     height="1"><feColorMatrix
       values="0.21 0.72 0.072 0 0 0.21 0.72 0.072 0 0 0.21 0.72 0.072 0 0 0 0 0 1 0 "
       id="feColorMatrix1626" /></filter></defs>
<style
   type="text/css"
   id="style248">
	.st0{fill:#0F2166;}
	.st1{fill:#FD2537;}
	.st2{fill:url(#SVGID_1_);stroke:#000000;stroke-width:4.8278;stroke-linecap:round;stroke-linejoin:round;}
	.st3{fill:url(#SVGID_2_);stroke:#000000;stroke-width:4.8278;stroke-linecap:round;stroke-linejoin:round;}
	.st4{fill:url(#SVGID_3_);stroke:#000000;stroke-width:4.8278;stroke-linecap:round;stroke-linejoin:round;}
	.st5{fill:url(#SVGID_4_);stroke:#000000;stroke-width:4.8278;stroke-linecap:round;stroke-linejoin:round;}
	.st6{fill:#8B8B8B;}
	.st7{fill:url(#SVGID_5_);}
	.st8{fill:url(#SVGID_6_);}
	.st9{fill:url(#SVGID_7_);}
	.st10{fill:url(#SVGID_8_);}
	.st11{fill:url(#SVGID_9_);}
	.st12{fill:url(#SVGID_10_);}
	.st13{fill:url(#SVGID_11_);}
	.st14{fill:url(#SVGID_12_);}
	.st15{fill:url(#SVGID_13_);}
	.st16{fill:url(#SVGID_14_);}
	.st17{fill:url(#SVGID_15_);}
	.st18{fill:#FFFFFF;}
	.st19{fill:url(#SVGID_16_);stroke:#FFFFFF;stroke-width:4.8278;stroke-linecap:round;stroke-linejoin:round;}
	.st20{fill:url(#SVGID_17_);stroke:#FFFFFF;stroke-width:4.8278;stroke-linecap:round;stroke-linejoin:round;}
	.st21{fill:url(#SVGID_18_);stroke:#FFFFFF;stroke-width:4.8278;stroke-linecap:round;stroke-linejoin:round;}
	.st22{fill:url(#SVGID_19_);stroke:#FFFFFF;stroke-width:4.8278;stroke-linecap:round;stroke-linejoin:round;}
	.st23{fill:url(#SVGID_20_);}
	.st24{fill:url(#SVGID_21_);}
	.st25{fill:url(#SVGID_22_);}
	.st26{fill:url(#SVGID_23_);}
	.st27{fill:url(#SVGID_24_);}
	.st28{fill:url(#SVGID_25_);}
	.st29{fill:url(#SVGID_26_);}
	.st30{fill:url(#SVGID_27_);}
	.st31{fill:url(#SVGID_28_);}
	.st32{fill:url(#SVGID_29_);}
	.st33{fill:url(#SVGID_30_);}
	.st34{fill:url(#SVGID_31_);}
	.st35{fill:url(#SVGID_32_);}
	.st36{fill:url(#SVGID_33_);}
	.st37{fill:url(#SVGID_34_);}
	.st38{fill:url(#SVGID_35_);}
	.st39{fill:url(#SVGID_36_);}
</style>
<g
   id="g367"
   style="display:inline"
   transform="scale(0.12499349)">
	<g
   id="g340"
   style="display:inline;fill:#333333;fill-opacity:1">
		<g
   id="g336"
   style="fill:#333333;fill-opacity:1">
			<path
   d="m 1282,1043.1 h -183.9 l -28.5,43.1 c -8,12.8 -13.8,22.3 -17.5,28.4 -7.4,12.2 -12.6,22 -15.6,29.3 -7.4,13.5 -11,24.8 -11,33.9 0,17.7 17.9,28.7 53.9,33 16.4,2.5 24.7,9.5 24.7,21.1 0,14.1 -9.7,21.1 -29.2,21.1 l -34.7,-2.2 -60.3,-3.3 -77.6,5.5 h -24.6 c -14.6,0 -21.9,-5.5 -21.9,-16.4 0,-9.1 2.9,-15.7 8.7,-19.6 5.8,-4 16.8,-6.8 32.9,-8.7 16.1,-1.8 29.7,-8.5 40.6,-20.1 l 35.6,-44.7 15.5,-23.7 16.4,-22.8 16.4,-23.7 288.5,-410.8 c 14.6,-21.9 25,-35.3 31,-40.2 6.1,-4.9 15.5,-7.3 28.3,-7.3 14,0 23.6,3.7 28.8,11 5.2,7.3 7.8,23.2 7.8,47.6 l 28.3,457.8 c 0,18.4 1.1,33.1 3.3,44.1 1.9,9.4 6.5,18 13.1,24.9 v 0 c 5.8,6.2 12.9,11.2 21,13.7 10.9,3.5 16.3,9.7 16.3,18.9 0,13.4 -9.1,20.1 -27.4,20.1 l -29.2,-2.7 -53.8,-2.7 c -17,0 -35.8,0.7 -56.1,2.1 -20.4,1.4 -42.2,2.5 -65.3,3.4 h -30.1 c -14,0 -21,-5.8 -21,-17.3 0,-7.9 2.9,-13.7 8.7,-17.3 5.8,-3.7 16.6,-6.4 32.4,-8.2 15.8,-1.8 26.5,-6.2 32,-13.2 5.5,-7 8.2,-19 8.2,-36.1 v -37.4 z m -3.7,-45.6 -8.2,-211.1 -142.7,211.1 z"
   id="path328"
   style="fill:#333333;fill-opacity:1" />
			<path
   d="m 2677.9,730.9 -115,400.8 c -5.5,19.5 -8.2,34.4 -8.2,44.7 0,22.5 12.2,33.8 36.5,33.8 21.9,0 32.9,6.8 32.9,20.5 0,13.1 -9.4,19.6 -28.3,19.6 h -52.9 l -98.6,-3.6 c -18.9,0 -33.2,0.3 -42.9,0.9 -9.7,0.6 -33.8,2.7 -72.1,6.4 h -3.7 c -15.8,0 -23.7,-6.1 -23.7,-18.3 0,-7.3 2.7,-12.3 8.2,-15.1 5.5,-2.8 17.9,-6.1 37.4,-10 19.5,-4 31.3,-9.1 35.6,-15.5 4.2,-6.4 11.3,-26.9 21,-61.6 l 114.1,-398.9 c 4.2,-14.6 6.4,-24.3 6.4,-29.2 0,-15.8 -11.3,-23.7 -33.8,-23.7 -19.5,0 -29.2,-5.8 -29.2,-17.5 0,-7 2.4,-12.5 7.3,-16.6 4.9,-4.1 11.6,-6.1 20.1,-6.1 h 42 c 2.4,0 9.4,0 21,0 11.6,0 21.3,0 29.2,0 58.4,0 99.2,-1.5 122.3,-4.4 l 48.4,-2.9 c 12.2,0 18.3,5.8 18.3,17.3 0,7.9 -3.1,13.7 -9.1,17.3 -6.1,3.6 -17.2,6.8 -33.3,9.6 -16.1,2.7 -26.9,7.2 -32.4,13.2 -5.7,6.1 -11.5,19.2 -17.5,39.3 z"
   id="path330"
   style="fill:#333333;fill-opacity:1" />
			<path
   d="m 3238.4,1075.1 c 0,0 -19.4,68.2 -28.3,98.9 -10.5,35.8 -109.4,92 -230,92 -91.3,0 -165.6,-22.8 -222.8,-68.5 -57.2,-45.6 -85.8,-104.7 -85.8,-177.1 0,-57.8 17.3,-112.6 52,-164.3 34.7,-51.7 83.7,-96.2 147,-133.3 51.7,-30.4 107.6,-54.2 167.5,-71.2 59.9,-17 118.8,-25.6 176.7,-25.6 38.9,0 73.3,3.3 103.2,9.8 15.2,3.6 22.8,10.1 22.8,19.6 0,5.4 -1.8,12.3 -5.5,20.8 l -22.8,69.4 c -9.1,31.7 -21,47.5 -35.6,47.5 -15.8,0 -23.7,-12.5 -23.7,-37.4 l 1.8,-46.6 c 0,-15.8 -3.2,-26.9 -9.6,-33.3 -6.4,-6.4 -17.2,-9.6 -32.4,-9.6 -39,0 -78.8,7.9 -119.6,23.8 -40.8,15.8 -79.4,38.4 -115.9,67.7 -43.2,34.7 -77.3,77.4 -102.3,128 -25,50.6 -37.4,103 -37.4,157.3 0,56.1 14.6,100.6 43.8,133.5 29.2,32.9 69.1,49.4 119.6,49.4 15.2,0 25.7,-2.3 31.5,-6.8 5.8,-4.5 11.1,-15 16,-31.4 l 33.8,-119.1 c 2.4,-6.7 3.6,-14.3 3.6,-22.7 0,-13.3 -2.7,-22 -8.2,-25.9 -5.5,-3.9 -20.1,-7.4 -43.8,-10.5 -12.8,0 -19.2,-6.1 -19.2,-18.3 0,-13.4 10.6,-20.1 32,-20.1 l 45.6,0.9 82.2,2.7 c 5.5,0 9.4,0 11.9,0 4.9,0 8.2,0 10,0 26.8,0 50.8,-1.2 72.1,-3.7 h 43.8 c 15.2,0 22.8,5.2 22.8,15.7 0,14.6 -12.5,23 -37.4,25.3 -15.8,0 -28,4.6 -36.5,13.7 -8.6,9.2 -16.2,25.6 -22.9,49.4 z"
   id="path332"
   style="fill:#333333;fill-opacity:1" />
			<path
   d="m 3615.4,1043.1 h -183.9 l -28.5,43.1 c -8,12.8 -13.8,22.3 -17.5,28.4 -7.4,12.2 -12.6,22 -15.6,29.3 -7.4,13.5 -11,24.8 -11,33.9 0,17.7 17.9,28.7 53.9,33 16.4,2.5 24.7,9.5 24.7,21.1 0,14.1 -9.7,21.1 -29.2,21.1 l -34.7,-2.2 -28.1,-1.5 c -21.4,-1.2 -42.9,-1.1 -64.3,0.2 l -57.9,3.5 c -14.6,0 -21.9,-5.5 -21.9,-16.4 0,-9.1 2.9,-15.7 8.7,-19.6 5.8,-4 16.8,-6.8 32.9,-8.7 16.1,-1.8 17.5,-8.5 28.4,-20.1 l 35.6,-44.7 15.5,-23.7 16.4,-22.8 16.4,-23.7 288.5,-410.8 c 14.6,-21.9 25,-35.3 31,-40.2 6.1,-4.9 15.5,-7.3 28.3,-7.3 14,0 23.6,3.7 28.8,11 5.2,7.3 7.8,23.2 7.8,47.6 l 28.3,457.8 c 0,31.1 3.2,51.7 9.6,61.8 6.4,10.1 18.4,16.3 36.1,18.8 17.6,2.4 26.5,9.5 26.5,21.1 0,13.4 -9.1,20.1 -27.4,20.1 l -29.2,-2.7 -72.1,-2.7 c -17,0 -35.8,0.7 -56.1,2.1 -20.4,1.4 -42.2,2.5 -65.3,3.4 H 3560 c -14,0 -21,-5.8 -21,-17.3 0,-7.9 2.9,-13.7 8.7,-17.3 5.8,-3.7 16.6,-6.4 32.4,-8.2 15.8,-1.8 26.5,-6.2 32,-13.2 5.5,-7 8.2,-19 8.2,-36.1 v -37.4 z m -3.6,-45.6 -8.2,-211.1 -142.7,211.1 z"
   id="path334"
   style="fill:#333333;fill-opacity:1" />
		</g>
		<path
   d="m 2156.7,764.6 -288.5,430 c -14,21.3 -24.4,34.7 -31,40.2 -6.7,5.5 -15.8,8.2 -27.4,8.2 -12.2,0 -20.4,-2.7 -24.6,-8.2 -4.3,-5.5 -6.4,-17.4 -6.4,-35.7 l -14.6,-435.6 -92.2,251.3 -14.6,49.5 c -11.6,38.5 -18.3,61.9 -20.1,70.1 -1.8,8.2 -2.7,18.8 -2.7,31.6 0,14.7 3.5,24.3 10.5,28.9 7,4.6 23.9,9 50.7,13.3 15.2,1.8 22.8,8.5 22.8,20.2 0,14.7 -9.7,22 -29.2,22 l -33.8,-3.3 -53.9,-2.2 -70.9,2.7 c -15.8,0 -23.7,-6.1 -23.7,-18.3 0,-9.9 8,-17.2 24.1,-21.8 9.1,-2.7 17.3,-8.1 23.7,-15.1 3.2,-3.5 5.8,-6.4 5.8,-6.4 6.7,-8.2 19.8,-39.4 39.3,-93.6 l 118.7,-334.1 c 11,-32.9 16.4,-53.2 16.4,-61.2 0,-6.7 -2.9,-11.6 -8.7,-14.6 -5.8,-3 -17.5,-5.9 -35.1,-8.7 -17.7,-2.7 -26.5,-9.3 -26.5,-19.6 0,-5.5 2.4,-10.3 7.3,-14.6 4.9,-4.3 10.6,-6.4 17.3,-6.4 l 33.8,3.7 h 45.6 45.6 63.9 16.4 c 7.3,0 11.6,1.2 12.8,3.6 1.8,3.1 2.7,10.7 2.7,22.8 l 14.6,373.3 246.5,-380.6 c 6.1,-9.3 10.3,-14.8 12.8,-16.6 2.4,-1.7 7.3,-2.6 14.6,-2.6 h 9.1 c 11,0 22.5,0 34.7,0 12.2,0 25.6,0 40.2,0 h 68.5 29.2 c 13.4,0 20.1,5.5 20.1,16.4 0,15.2 -10.5,23.9 -31.5,26 -21,2.1 -34.1,6.4 -39.3,12.7 -5.2,6.4 -10.5,20.8 -16,43.3 l -89.5,372.8 c -2.4,10.3 -4.9,22.8 -7.3,37.4 -2.4,14.6 -3.6,24.3 -3.6,29.2 0,10.3 2.9,17.9 8.7,22.8 5.8,4.9 16.6,8.5 32.4,10.9 15.8,2.4 23.7,9.4 23.7,21 0,14 -10.7,21 -32,21 H 2217 c -43.2,-4.9 -78.5,-7.3 -105.9,-7.3 -30.4,0 -56.6,1.2 -78.5,3.7 l -45.6,3.6 c -15.2,0 -22.8,-6.4 -22.8,-19.2 0,-10.3 5.5,-17.3 16.4,-21 l 15.5,-2.7 11,-0.9 10,-1.8 c 12.2,-1.2 20.8,-5.9 26,-14.1 5.2,-8.2 12,-29.1 20.5,-62.5 z"
   id="path338"
   style="fill:#333333;fill-opacity:1" />
	</g>
	
	
	<g
   id="g607"
   style="display:inline;filter:url(#filter1628)"><g
     id="g326"
     style="display:inline">
		<g
   id="g259">
			<linearGradient
   id="SVGID_1_"
   gradientUnits="userSpaceOnUse"
   x1="375.68811"
   y1="705.72272"
   x2="595.25922"
   y2="1308.9893">
				<stop
   offset="2.983562e-07"
   style="stop-color:#6D83EE"
   id="stop250" />
				<stop
   offset="0.2399"
   style="stop-color:#0044C6"
   id="stop252" />
				<stop
   offset="1"
   style="stop-color:#84CD28"
   id="stop254" />
			</linearGradient>
			<polygon
   style="fill:url(#SVGID_1_)"
   points="221.6,761.8 559.1,1252.9 749.4,1252.9 411.9,761.8 "
   id="polygon257" />
		</g>
		<g
   id="g265">
			<g
   id="g263">
				<polygon
   points="749.4,1252.9 411.9,761.8 391.3,761.8 728.8,1252.9 "
   id="polygon261" />
			</g>
		</g>
		<g
   id="g276">
			<linearGradient
   id="SVGID_2_"
   gradientUnits="userSpaceOnUse"
   x1="85.024101"
   y1="754.6427"
   x2="455.94559"
   y2="1278.6265">
				<stop
   offset="2.983562e-07"
   style="stop-color:#6D83EE"
   id="stop267" />
				<stop
   offset="0.2399"
   style="stop-color:#0044C6"
   id="stop269" />
				<stop
   offset="1"
   style="stop-color:#84CD28"
   id="stop271" />
			</linearGradient>
			<polygon
   style="fill:url(#SVGID_2_)"
   points="0,761.8 337.5,1252.9 527.8,1252.9 190.3,761.8 "
   id="polygon274" />
		</g>
		<g
   id="g282">
			<g
   id="g280">
				<polygon
   points="527.8,1252.9 190.3,761.8 169.7,761.8 507.2,1252.9 "
   id="polygon278" />
			</g>
		</g>
		<linearGradient
   id="SVGID_3_"
   gradientUnits="userSpaceOnUse"
   x1="337.50171"
   y1="626.44501"
   x2="1388.9207"
   y2="626.44501">
			<stop
   offset="3.782731e-07"
   style="stop-color:#8DBC30"
   id="stop284" />
			<stop
   offset="0.3144"
   style="stop-color:#E4D300"
   id="stop286" />
			<stop
   offset="0.4876"
   style="stop-color:#E6970C"
   id="stop288" />
			<stop
   offset="0.6581"
   style="stop-color:#E86416"
   id="stop290" />
			<stop
   offset="0.8057"
   style="stop-color:#EA3F1E"
   id="stop292" />
			<stop
   offset="0.9246"
   style="stop-color:#EB2822"
   id="stop294" />
			<stop
   offset="1"
   style="stop-color:#EB2024"
   id="stop296" />
		</linearGradient>
		<polygon
   style="fill:url(#SVGID_3_)"
   points="337.5,1252.9 527.8,1252.9 1388.9,0 1198.6,0 "
   id="polygon299" />
		<linearGradient
   id="SVGID_4_"
   gradientUnits="userSpaceOnUse"
   x1="437.67941"
   y1="1079.5419"
   x2="1731.8579"
   y2="173.3483">
			<stop
   offset="3.782731e-07"
   style="stop-color:#8DBC30"
   id="stop301" />
			<stop
   offset="0.3144"
   style="stop-color:#E4D300"
   id="stop303" />
			<stop
   offset="0.4876"
   style="stop-color:#E6970C"
   id="stop305" />
			<stop
   offset="0.6581"
   style="stop-color:#E86416"
   id="stop307" />
			<stop
   offset="0.8057"
   style="stop-color:#EA3F1E"
   id="stop309" />
			<stop
   offset="0.9246"
   style="stop-color:#EB2822"
   id="stop311" />
			<stop
   offset="1"
   style="stop-color:#EB2024"
   id="stop313" />
		</linearGradient>
		<polygon
   style="fill:url(#SVGID_4_)"
   points="559.1,1252.9 749.4,1252.9 1610.5,0 1420.1,0 "
   id="polygon316" />
		<g
   id="g320">
			<polygon
   points="728.8,1252.9 749.4,1252.9 1610.5,0 1589.9,0 "
   id="polygon318" />
		</g>
		<g
   id="g324">
			<polygon
   points="507.2,1252.9 527.8,1252.9 1388.9,0 1368.3,0 "
   id="polygon322" />
		</g>
	</g><g
     id="g349"
     style="display:inline">
		<linearGradient
   id="SVGID_5_"
   gradientUnits="userSpaceOnUse"
   x1="596.36322"
   y1="1172.4427"
   x2="719.44702"
   y2="1263.4261">
			<stop
   offset="0"
   style="stop-color:#000000;stop-opacity:0"
   id="stop342" />
			<stop
   offset="0.1572"
   style="stop-color:#000000"
   id="stop344" />
		</linearGradient>
		<polygon
   class="st7"
   points="559.1,1252.9 654.3,1114.5 644.1,1099.7 548.9,1238.1 "
   id="polygon347"
   style="fill:url(#SVGID_5_)" />
	</g><g
     id="g365"
     style="display:inline">
		<linearGradient
   id="SVGID_6_"
   gradientUnits="userSpaceOnUse"
   x1="374.22281"
   y1="1172.5107"
   x2="447.13379"
   y2="1220.4136">
			<stop
   offset="0"
   style="stop-color:#000000;stop-opacity:0"
   id="stop351" />
			<stop
   offset="0.2537"
   style="stop-color:#000000"
   id="stop353" />
		</linearGradient>
		<polygon
   class="st8"
   points="327.3,1238.1 337.5,1252.9 432.7,1114.4 422.5,1099.7 "
   id="polygon356"
   style="fill:url(#SVGID_6_)" />
		<linearGradient
   id="SVGID_7_"
   gradientUnits="userSpaceOnUse"
   x1="477.71301"
   y1="1005.8436"
   x2="517.92932"
   y2="1034.3893">
			<stop
   offset="0.2023"
   style="stop-color:#000000;stop-opacity:0"
   id="stop358" />
			<stop
   offset="0.6884"
   style="stop-color:#000000"
   id="stop360" />
		</linearGradient>
		<polygon
   class="st9"
   points="543.5,953.3 533.4,938.6 438.2,1077 448.3,1091.7 "
   id="polygon363"
   style="fill:url(#SVGID_7_)" />
	</g></g>
</g>
</svg>
