<?xml version="1.0" encoding="UTF-8" standalone="no"?>
<svg
   id="svg8"
   version="1.1"
   viewBox="0 0 67.733335 67.733337"
   height="256"
   width="256"
   xmlns="http://www.w3.org/2000/svg"
   xmlns:svg="http://www.w3.org/2000/svg"
   xmlns:rdf="http://www.w3.org/1999/02/22-rdf-syntax-ns#"
   xmlns:cc="http://creativecommons.org/ns#"
   xmlns:dc="http://purl.org/dc/elements/1.1/">
  <defs
     id="defs2" />
  <metadata
     id="metadata5">
    <rdf:RDF>
      <cc:Work
         rdf:about="">
        <dc:format>image/svg+xml</dc:format>
        <dc:type
           rdf:resource="http://purl.org/dc/dcmitype/StillImage" />
      </cc:Work>
    </rdf:RDF>
  </metadata>
  <path
     d="m 36.661531,4.1192142 c 0,0 2.423888,0.167249 2.423888,0.167249 2.76444,0.344192 6.992907,1.3658601 9.574348,2.3790441 1.342831,0.527196 3.10015,1.439789 4.362995,2.157259 1.020456,0.580521 2.239671,1.3016267 3.15105,2.0275807 2.266334,1.803372 3.16196,3.234676 4.777482,5.520401 1.47372,2.08333 2.47964,3.909729 3.61523,6.180911 0,0 1.3404,2.787469 1.3404,2.787469 0.61325,1.684601 0.63749,2.471152 1.01077,4.120607 0,0 0.74777,3.635829 0.74777,3.635829 0.0521,0.715047 -0.17695,2.00213 -0.73081,2.494179 -0.9647,0.859268 -2.80928,0.302986 -3.58493,-0.559918 -0.81563,-0.907745 -1.08953,-2.907451 -1.40464,-4.115759 0,0 -0.91986,-2.54508 -0.91986,-2.54508 -0.5175,-1.62764 -0.75989,-2.942598 -1.630065,-4.48419 -2.162108,-3.827317 -5.766428,-8.711448 -9.402258,-11.180176 -2.294207,-1.558559 -6.70083,-3.0310697 -9.45315,-3.5316027 0,0 -1.939112,-0.247236 -1.939112,-0.247236 0,0 -2.545081,-0.398729 -2.545081,-0.398729 -1.87972,-0.225422 -3.801866,-0.298138 -5.69613,-0.276323 -0.818062,0.0097 -2.206949,0.247236 -3.029859,0.41206 0,0 -2.54508,0.559918 -2.54508,0.559918 C 21.97278,10.094095 17.93095,12.541008 15.57372,14.3262 c -2.412979,1.826399 -4.452679,3.747329 -6.1372804,6.286349 0,0 -2.376621,4.48419 -2.376621,4.48419 0,0 -0.872599,1.939109 -0.872599,1.939109 -0.392669,1.100445 -0.947739,4.369056 -1.021668,5.574939 0,0 0,1.211943 0,1.211943 0,0 0,2.666275 0,2.666275 0.0073,1.788828 0.404789,3.140145 0.782916,4.847773 0.342979,1.553711 0.71747,3.124389 1.317382,4.605384 1.247089,3.077124 3.4104084,6.122736 6.0051784,8.186674 4.662346,3.70976 11.368027,5.091375 17.209593,5.023505 0,0 1.211942,-0.110287 1.211942,-0.110287 3.040767,-0.213303 4.098792,-0.535679 6.908076,-1.659152 2.677184,-1.071355 5.902164,-2.815344 7.993977,-4.795658 0.519922,-0.49205 1.121045,-1.325865 1.545229,-1.918504 1.828821,-2.553564 2.857759,-5.067134 2.822612,-8.241213 0,0 -0.342979,-2.78747 -0.342979,-2.78747 0,0 -0.175734,-2.181497 -0.175734,-2.181497 0,0 -1.161037,-4.847773 -1.161037,-4.847773 -0.408427,-1.443425 -0.770796,-2.80686 -1.523416,-4.120607 -2.01546,-3.520695 -5.013806,-6.043961 -8.673872,-7.718866 -1.407069,-0.643542 -4.515702,-1.361012 -6.059717,-1.361012 0,0 -0.969556,0.100591 -0.969556,0.100591 -1.722172,0.119982 -3.45646,0.350252 -5.09016,0.942892 -1.251937,0.454479 -2.141503,0.958647 -3.272246,1.637335 -0.871388,0.522347 -1.924566,1.119835 -2.666276,1.804583 -0.940467,0.870175 -1.163465,1.424034 -1.870028,2.412979 -2.291785,3.208014 -3.144992,5.25135 -3.098939,9.210769 0.02787,2.292996 0.820486,5.54464 1.993647,7.514047 2.088178,3.50494 5.932462,5.622205 10.004591,5.574939 2.486906,-0.02909 4.775058,-0.867751 7.029272,-1.836094 1.382824,-0.593852 3.146203,-1.663998 3.890335,-3.011679 0.652026,-1.181644 0.57931,-2.353594 0.593853,-3.635829 0,0 0.116347,-1.575527 0.116347,-1.575527 -0.03637,-1.145286 -0.4363,-2.451761 -0.850782,-3.514635 -0.582947,-1.495538 -1.111353,-2.240883 -2.416619,-3.194682 -1.934261,-1.413126 -5.64523,-2.700209 -7.877629,-1.352528 -1.165889,0.702926 -2.654155,2.633552 -2.64446,4.062433 0.0036,0.484777 0.381762,1.491902 0.599912,1.939109 0.290866,0.597488 0.724742,1.201036 1.317382,1.525837 0.877447,0.478717 3.525545,0.410848 4.605383,0.413272 0.35995,0.0012 0.74656,-0.02666 1.077419,0.158765 1.199822,0.696867 1.059239,2.741415 0,3.519483 -0.934409,0.699291 -2.866247,0.695655 -3.986083,0.584156 -1.175583,-0.117558 -2.818978,-0.338132 -3.878216,-0.867751 -0.581733,-0.290866 -0.975615,-0.652025 -1.454332,-1.073782 -1.75247,-1.542803 -2.684454,-3.62371 -2.782621,-5.9567 -0.03878,-0.928349 0.253296,-1.893056 0.498108,-2.78747 0.246024,-0.896838 0.661721,-1.78398 1.198612,-2.54508 0.936832,-1.324654 2.809284,-2.882001 4.358147,-3.429799 2.960779,-1.048331 7.76492,-0.151494 10.543907,1.165889 3.319509,1.573102 4.893825,4.061221 5.868227,7.475266 0.366006,1.283447 0.673843,2.908663 0.676267,4.2418 0,0 0,1.696721 0,1.696721 -0.01938,1.585222 -0.332074,3.443131 -1.07742,4.847772 -1.159828,2.186346 -2.762016,3.295274 -4.861105,4.467224 -3.627346,2.023944 -7.241359,2.974106 -11.392264,2.92563 -4.14727,-0.04848 -8.752654,-1.907598 -11.477102,-5.090161 -1.781557,-2.080907 -2.646884,-4.535092 -3.266187,-7.150465 0,0 -0.345404,-1.211943 -0.345404,-1.211943 -0.176944,-0.748981 -0.422968,-2.511146 -0.42418,-3.272247 -0.0036,-2.549928 0.126042,-5.068346 0.939256,-7.514047 0.39267,-1.182857 1.506445,-3.081972 2.22634,-4.120608 0.72353,-1.044694 2.000918,-2.774137 2.895332,-3.624921 1.585222,-1.505234 4.211503,-3.056521 6.179698,-4.040619 2.073635,-1.036211 3.924272,-1.905175 6.302103,-1.90881 0,0 2.423888,0 2.423888,0 1.529471,0.01818 3.221347,0.340555 4.726578,0.63021 1.787615,0.34298 3.634616,0.677476 5.332552,1.363436 2.303904,0.930772 6.156668,3.834588 7.675233,5.76279 2.798377,3.552205 3.56069,6.755371 4.444195,11.028683 0.655659,3.166807 1.128319,5.960336 1.090749,9.210768 0,0 -0.208457,2.060303 -0.208457,2.060303 0,0 -0.334497,2.060304 -0.334497,2.060304 -0.778065,3.040762 -2.718386,6.260896 -4.912004,8.4836 -2.222705,2.250577 -4.939876,3.954573 -7.755219,5.362848 -2.023945,1.011972 -4.810206,2.154838 -7.029274,2.580227 -2.095447,0.402367 -5.343457,0.444783 -7.514046,0.419333 -1.70884,-0.02061 -3.886701,-0.455689 -5.574938,-0.793822 -3.009255,-0.603546 -6.568732,-1.688239 -9.210769,-3.260127 -1.819126,-1.082265 -3.7182414,-2.694151 -5.2113554,-4.187266 -0.905322,-0.905318 -2.147563,-2.210584 -2.843219,-3.272247 -1.599765,-2.4457 -3.044401,-5.916703 -3.874583,-8.725987 0,0 -0.356311,-1.575526 -0.356311,-1.575526 0,0 -0.75019298,-3.151053 -0.75019298,-3.151053 0,0 -0.08726,-1.211943 -0.08726,-1.211943 0,0 -0.208454,-2.423886 -0.208454,-2.423886 0,0 0.116347,-1.211943 0.116347,-1.211943 0,0 0,-1.454332 0,-1.454332 0.01818,-1.130743 0.286018,-1.748834 0.532043,-2.787469 0,0 0.29207798,-1.575526 0.29207798,-1.575526 0,0 1.112564,-3.151053 1.112564,-3.151053 1.5222,-4.026075 3.486761,-7.615851 6.441478,-10.786294 1.053179,-1.130743 1.325866,-1.164678 2.4129794,-2.020309 0,0 1.454332,-1.222851 1.454332,-1.222851 0.870175,-0.660509 2.417827,-1.5670427 3.393441,-2.1233247 0,0 1.454332,-0.895626 1.454332,-0.895626 1.027728,-0.584156 5.187117,-2.449337 6.302104,-2.816556 0,0 1.454332,-0.358735 1.454332,-0.358735 0,0 2.423886,-0.5829441 2.423886,-0.5829441 0,0 2.545082,-0.351464 2.545082,-0.351464 1.917295,-0.233905 4.715668,0.04727 6.665686,0.180579 z"
     id="dreamcast"
     style="fill:#cccccc;fill-opacity:1;stroke:none;stroke-width:0.121194;stroke-opacity:1" />
</svg>
