<?xml version="1.0" encoding="UTF-8" standalone="no"?>
<!-- Created with Inkscape (http://www.inkscape.org/) -->

<svg
   id="svg5822"
   version="1.1"
   width="480"
   height="81.04467"
   xml:space="preserve"
   xmlns="http://www.w3.org/2000/svg"
   xmlns:svg="http://www.w3.org/2000/svg"
   xmlns:rdf="http://www.w3.org/1999/02/22-rdf-syntax-ns#"
   xmlns:cc="http://creativecommons.org/ns#"
   xmlns:dc="http://purl.org/dc/elements/1.1/"><metadata
     id="metadata5828"><rdf:RDF><cc:Work
         rdf:about=""><dc:format>image/svg+xml</dc:format><dc:type
           rdf:resource="http://purl.org/dc/dcmitype/StillImage" /></cc:Work></rdf:RDF></metadata><defs
     id="defs5826" /><g
     id="g5830"
     transform="matrix(1.25,0,0,-1.25,-11.169787,122.30006)"><g
       id="g3624"
       transform="matrix(0.99292047,0,0,0.99292047,1.4225302,0.46315798)"><path
         id="path5840"
         style="fill:#231f20;fill-opacity:1;fill-rule:evenodd;stroke:none"
         d="m 9.4209667,91.937732 c 0,2.160796 -0.4089144,4.956849 -1.3649807,6.133459 6.253788,0 19.759559,-0.04208 25.548296,-0.04208 13.321403,0 33.417833,-7.394223 33.417833,-32.319065 0,-18.496846 -14.185516,-32.281093 -33.417833,-32.281093 -4.217272,0 -20.324825,0.04772 -26.0374128,0.04772 1.1706065,2.164901 1.8540975,5.099499 1.8540975,7.412696 V 91.937728 Z M 18.998101,39.758944 c 6.149571,-0.795867 11.824034,-1.04063 16.961403,-0.306852 4.97096,0.70966 21.663585,4.305172 21.559419,26.472446 C 57.421,86.930596 44.448185,91.731453 34.452181,92.318475 29.234661,92.625328 24.19956,92.430851 18.998101,91.528766 V 39.758944" /><path
         id="path5842"
         style="fill:#231f20;fill-opacity:1;fill-rule:evenodd;stroke:none"
         d="m 72.508003,78.221731 9.570926,1.493212 c 0,-1.958622 0,-7.70518 0,-8.426643 2.455846,6.065213 10.092267,10.942013 20.948591,6.716889 l -2.5436,-6.66301 C 90.545596,76.054777 82.078929,71.919452 82.078929,60.887128 V 38.121029 c 0,-1.082194 0.232961,-3.271212 0.884125,-4.674114 h -9.943972 c 1.00625,1.2387 1.469608,3.59192 1.469608,4.674114 v 32.842459 c 0,2.381442 -0.48337,6.069317 -1.980687,7.258243" /><path
         id="path5844"
         style="fill:#231f20;fill-opacity:1;fill-rule:evenodd;stroke:none"
         d="m 375.1031,73.655375 c 0,-0.623455 0,-27.099493 0,-29.082232 0,-9.123989 6.29202,-11.565468 10.95228,-11.565468 1.97453,-0.09801 4.76237,0.362784 6.71278,0.795867 l 1.20483,5.634695 c -2.27727,-0.868218 -4.91887,-1.074497 -6.5024,-1.074497 -2.92228,0 -5.03741,1.94015 -5.03741,4.974808 0,2.722162 -0.0678,29.412689 0,30.26654 h -0.0297 c 0.38894,0 6.45004,0.02207 7.0617,0 1.98994,-0.06979 3.51751,-0.192424 4.83061,-0.71941 l 0.009,5.307831 c 0,0 -11.64552,0.01368 -11.87027,0.01368 l 0.0502,13.610296 -8.82329,-2.437374 c 1.21869,-1.138638 1.61123,-4.469887 1.61123,-6.663011 0,0 -0.004,-4.067079 -0.004,-4.558145 -0.39922,0 -4.87321,-0.0201 -5.61674,-0.0201 v -4.483742 c 0.77996,0 5.45202,0 5.45202,0" /><path
         id="path5846"
         style="fill:#231f20;fill-opacity:1;fill-rule:evenodd;stroke:none"
         d="m 336.97693,42.905466 c 3.7905,-2.709847 9.7418,-5.113354 14.10547,-5.113354 6.05546,0 10.38885,2.944861 10.38885,8.488732 0,10.232865 -23.33362,8.541071 -23.33362,21.521755 0,8.779164 7.85142,12.080651 15.33185,12.080651 2.40351,0 7.89145,-0.521341 11.38331,-1.870364 l -0.0282,-5.994913 c -3.0988,2.647758 -7.82936,3.291224 -10.94817,3.291224 -4.95069,0 -8.66525,-2.455333 -8.66525,-7.272097 0,-7.073516 23.3095,-6.66455 23.3095,-21.178984 0,-9.384659 -8.13364,-13.762182 -17.08368,-13.762182 -4.36162,0 -8.90539,0.773802 -12.69384,1.855996 l -1.7662,7.953536" /><path
         id="path5848"
         style="fill:#231f20;fill-opacity:1;fill-rule:evenodd;stroke:none"
         d="m 196.15265,73.563011 c 0,0.529552 0.0192,5.285766 0.0192,5.893314 l -9.69151,-1.497317 c 1.16891,-1.224845 2.06278,-5.041003 2.06278,-7.76727 V 38.437631 c 0,-1.082194 -0.46284,-3.70994 -1.46909,-4.946586 h 10.56691 c -1.00625,1.236646 -1.46909,3.864392 -1.46909,4.946586 v 23.892935 c 0,8.741193 5.40789,11.797916 10.78807,11.797916 4.87065,0 9.27229,-2.108457 9.27229,-11.797916 V 38.437631 c 0,-1.082194 -0.4649,-3.70994 -1.46705,-4.946586 h 10.24416 c -1.0042,1.236646 -1.46704,3.864392 -1.46704,4.946586 v 23.892935 c 0,9.689459 5.98927,11.797916 10.86401,11.797916 4.87065,0 9.96809,-3.056723 9.96809,-11.797916 V 38.437631 c 0,-1.082194 -0.46541,-3.70994 -1.4696,-4.946586 h 9.86392 c -1.0042,1.236646 -1.4691,3.864392 -1.4691,4.946586 v 28.426964 c 0,4.846525 -4.94094,12.607637 -16.48639,12.607637 -6.71484,0 -10.59155,-2.986425 -13.53795,-5.558239 -2.50357,2.922283 -6.58039,5.664457 -13.13103,5.664457 -6.38387,0 -10.1523,-3.740214 -11.99239,-6.015439" /><path
         id="path5850"
         style="fill:#231f20;fill-opacity:1;fill-rule:evenodd;stroke:none"
         d="m 173.30239,58.666295 c -1.38135,-1.298735 -4.27746,-2.309091 -7.26799,-2.701637 -7.85347,-1.030367 -14.65657,-2.33526 -14.65657,-9.986049 0,-4.536081 4.94299,-8.110041 8.86178,-8.110041 10.38065,0 13.06278,7.486587 13.06278,13.387597 z m -24.51793,18.723137 c 3.96035,1.589681 10.35243,2.317301 14.36152,2.317301 10.23851,0 17.03751,-5.113354 17.03751,-16.989266 V 43.019894 c 0,-3.649903 0.0539,-7.10379 1.35518,-9.528849 h -8.23012 l -0.29505,5.181087 c -3.11881,-4.02295 -6.83696,-5.824554 -13.15874,-5.824554 -12.46755,0 -15.18971,8.518494 -15.18971,12.615847 0,14.609876 13.90483,14.782288 19.94387,15.642296 3.33946,0.47516 7.64104,1.417269 8.28656,4.549936 1.06629,5.181601 -2.63801,9.066005 -10.20875,9.066005 -5.55413,0 -10.10407,-1.687689 -13.90227,-3.9624 z M 325.66444,58.666295 c -1.38341,-1.298735 -4.27952,-2.309091 -7.27005,-2.701637 -7.85348,-1.030367 -14.65657,-2.33526 -14.65657,-9.986049 0,-4.536081 4.94505,-8.110041 8.86383,-8.110041 10.38065,0 13.06279,7.486587 13.06279,13.387597 z m -24.5205,18.723137 c 3.96291,1.589681 10.35499,2.317301 14.36203,2.317301 10.23851,0 17.0375,-5.113354 17.0375,-16.989266 V 43.019894 c 0,-3.649903 -0.79381,-7.027334 1.35467,-9.528849 h -8.23011 l -0.29454,5.181087 c -3.11676,-4.02295 -6.83696,-5.824554 -13.15669,-5.824554 -12.46755,0 -15.19176,8.518494 -15.19176,12.615847 0,14.609876 13.90688,14.782288 19.94387,15.642296 3.34151,0.47516 7.64309,1.417269 8.28656,4.549936 1.06834,5.181601 -2.63801,9.066005 -10.2067,9.066005 -5.55413,0 -10.10407,-1.687689 -13.90483,-3.9624 v 6.63017" /><path
         id="path5852"
         style="fill:#231f20;fill-opacity:1;fill-rule:evenodd;stroke:none"
         d="m 292.38479,71.350389 c -3.08854,1.802117 -7.96123,3.233241 -11.36073,3.233241 -11.9303,0 -17.4008,-7.340344 -17.4008,-17.909824 0,-10.470958 5.34375,-18.488636 17.01595,-18.488636 4.00037,0 9.4488,1.793908 13.67393,4.393944 l -1.72002,-7.703128 c -4.30107,-1.278723 -7.92531,-1.888323 -12.72566,-1.888323 -16.40224,0 -24.08946,11.629609 -24.08946,23.734377 0,13.379387 10.31291,22.786111 24.26547,22.786111 6.10164,0 10.55562,-1.495265 12.35517,-2.008396 l -0.0128,-6.149366" /><path
         id="path5854"
         style="fill:#231f20;fill-opacity:1;fill-rule:evenodd;stroke:none"
         d="m 108.78228,56.112953 c 0.006,1.106312 0.15181,2.162336 0.27658,3.180902 h 31.73358 c 0,10.910198 -5.45202,20.268688 -18.38036,20.268688 -13.41736,0 -21.38116,-10.49097 -21.38116,-23.872923 0,-12.104255 8.86742,-22.916446 24.05509,-22.916446 4.80239,0 8.81765,1.18482 13.15104,2.700097 l 1.52554,7.739047 c -3.7043,-3.052618 -9.69767,-4.858841 -15.10556,-4.858841 -9.71922,0 -15.91888,7.037597 -15.87475,17.759476 z m 1.27873,8.02127 c 1.03037,5.30783 5.94103,10.715722 11.81998,10.715722 8.9798,0 11.58137,-7.009375 11.58137,-10.717262 0,0 -23.40135,-0.01368 -23.40135,0.0015" /></g></g></svg>
