<?xml version="1.0" encoding="UTF-8" standalone="no"?>
<!-- Created with Inkscape (http://www.inkscape.org/) -->

<svg
   width="256"
   height="256"
   viewBox="0 0 239.99997 239.99987"
   id="svg2"
   version="1.1"
   xmlns="http://www.w3.org/2000/svg"
   xmlns:svg="http://www.w3.org/2000/svg"
   xmlns:rdf="http://www.w3.org/1999/02/22-rdf-syntax-ns#"
   xmlns:cc="http://creativecommons.org/ns#"
   xmlns:dc="http://purl.org/dc/elements/1.1/">
  <defs
     id="defs4" />
  <metadata
     id="metadata7">
    <rdf:RDF>
      <cc:Work
         rdf:about="">
        <dc:format>image/svg+xml</dc:format>
        <dc:type
           rdf:resource="http://purl.org/dc/dcmitype/StillImage" />
      </cc:Work>
    </rdf:RDF>
  </metadata>
  <g
     id="layer1"
     transform="matrix(1.0002712,0,0,1.0002712,-31.17432,-969.39082)">
    <path
       id="rect4147-24-5"
       style="font-style:normal;font-weight:normal;font-size:98.3948px;line-height:125%;font-family:sans-serif;letter-spacing:0px;word-spacing:0px;display:inline;fill:#cccccc;fill-opacity:1;stroke:#cccccc;stroke-width:0.812363;stroke-linecap:butt;stroke-linejoin:miter;stroke-opacity:1"
       d="m 37.855937,1060.7844 7.771742,18.2839 -1.862884,0.7918 -7.771742,-18.2838 z m 3.569869,34.8419 -9.707081,17.3341 1.766117,0.989 9.70708,-17.3341 z m 14.7319,-17.3947 v 19.867 H 54.13351 v -19.867 z m -2.116695,16.2731 v -12.7726 H 72.86388 q 4.369596,0 7.310672,-0.4202 2.941067,-0.4201 4.70571,-1.1764 1.848679,-0.7563 2.604952,-1.8487 0.756274,-1.0924 0.756274,-2.5209 0,-2.689 -3.697349,-4.1175 -3.613314,-1.5126 -12.520567,-1.5126 -4.453623,0 -8.739184,0.6723 -4.285561,0.6722 -8.066945,1.7646 -3.697349,1.0084 -6.722451,2.3529 -3.025102,1.2605 -5.041842,2.4369 l -5.966179,-14.2852 q 1.848679,-0.9244 5.461993,-2.0168 3.69735,-1.1764 8.403069,-2.1007 4.789745,-1.0084 10.335773,-1.6806 5.54602,-0.6723 11.176074,-0.6723 6.050213,0 11.596232,1.0084 5.54602,1.0083 9.747554,3.1931 4.285569,2.1008 6.806484,5.378 2.52092,3.1932 2.52092,7.6468 0,2.773 -0.92433,5.0418 -0.84031,2.2689 -2.26883,4.0335 -1.428525,1.6806 -3.277195,2.857 -1.764652,1.1764 -3.529296,1.7647 3.529296,0.3361 5.966178,1.7646 2.436893,1.4285 3.949443,3.4453 1.51255,1.9326 2.10077,4.2015 0.67224,2.1848 0.67224,4.0335 0,10.3357 -8.907247,15.0414 -8.823218,4.6217 -27.057875,4.6217 -5.966169,0 -11.596224,-0.8402 -5.546028,-0.8404 -10.251747,-2.1008 -4.705711,-1.2605 -8.319033,-2.689 -3.613314,-1.5125 -5.546019,-2.773 l 6.554389,-13.7811 q 1.596582,1.2604 5.377958,2.773 3.86541,1.4285 8.487103,2.689 4.621684,1.2605 9.159342,2.1008 4.621684,0.8403 7.730813,0.8403 3.361234,0 6.386336,-0.3361 3.109129,-0.3362 5.377958,-1.0924 2.352864,-0.7563 3.697349,-1.9327 1.42852,-1.1764 1.42852,-2.857 0,-3.6134 -3.781375,-4.8738 -3.697349,-1.2605 -12.100418,-1.2605 z m 129.044749,7.2123 v 19.8669 h -2.0242 v -19.8669 z m -68.89589,-37.3323 7.77174,18.2839 -1.86288,0.7918 -7.77174,-18.2838 z m 66.78611,54.9309 h -68.82111 v -15.0415 q 4.62168,-4.8738 9.91562,-8.5712 4.62169,-3.1932 9.57949,-5.378 5.04184,-2.1847 9.83159,-3.6972 4.87378,-1.5966 9.15934,-2.689 4.36959,-1.1764 7.64679,-2.2689 3.27719,-1.0923 5.2099,-2.3528 1.93271,-1.2605 1.93271,-3.1091 0,-2.1848 -2.68899,-3.7814 -2.68897,-1.6806 -9.24336,-1.6806 -4.78976,0 -9.49547,0.8403 -4.70572,0.7562 -9.07531,2.1007 -4.28556,1.3445 -8.15098,3.1092 -3.78137,1.7646 -6.72245,3.6973 l -6.72245,-13.697 q 2.77302,-1.7646 6.63842,-3.4452 3.94944,-1.7647 9.07532,-3.1092 5.12586,-1.3445 11.51219,-2.1848 6.47037,-0.8403 14.28521,-0.8403 6.13424,0 11.17608,1.4286 5.12588,1.3444 8.73919,3.7813 3.61332,2.4369 5.54603,5.8822 2.01673,3.4452 2.01673,7.5627 0,4.9578 -1.42852,8.067 -1.42852,3.1091 -4.53766,5.2939 -3.10913,2.1848 -8.06694,3.8654 -4.87378,1.5966 -11.76429,3.5293 -3.19317,0.9243 -6.97455,2.0167 -3.78137,1.0924 -7.1426,2.1848 -3.2772,1.0924 -5.79812,2.1008 -2.43689,1.0083 -2.94107,1.6806 h 47.30926 z m 38.09634,-59.9416 h -28.58201 v -1.894 h 28.58201 z m 50.78344,0 h -28.582 v -1.894 h 28.582 z m -52.38472,61.1536 h -28.58201 v -1.894 h 28.58201 z m 53.2235,0.61 h -28.582 v -1.894 h 28.582 z m -41.13189,-44.713 15.71373,-17.3944 h 20.8396 l -25.88144,27.1419 27.30996,33.024 h -22.43618 l -16.21792,-19.243 -16.97419,19.243 h -21.00766 l 27.73011,-30.4191 -26.30159,-29.7468 h 22.60425 z" />
  </g>
</svg>
