<?xml version="1.0" encoding="UTF-8" standalone="no"?>
<!-- Created with Inkscape (http://www.inkscape.org/) -->

<svg
   width="479.99997"
   height="131.61458"
   viewBox="0 0 449.99992 123.3886"
   id="svg2"
   version="1.1"
   xmlns="http://www.w3.org/2000/svg"
   xmlns:svg="http://www.w3.org/2000/svg"
   xmlns:rdf="http://www.w3.org/1999/02/22-rdf-syntax-ns#"
   xmlns:cc="http://creativecommons.org/ns#"
   xmlns:dc="http://purl.org/dc/elements/1.1/">
  <defs
     id="defs4" />
  <metadata
     id="metadata7">
    <rdf:RDF>
      <cc:Work
         rdf:about="">
        <dc:format>image/svg+xml</dc:format>
        <dc:type
           rdf:resource="http://purl.org/dc/dcmitype/StillImage" />
      </cc:Work>
    </rdf:RDF>
  </metadata>
  <g
     id="layer1"
     transform="matrix(1.0002712,0,0,1.0002712,73.825638,-940.60014)">
    <path
       id="rect4147-24-5"
       style="font-style:normal;font-weight:normal;font-size:98.3948px;line-height:125%;font-family:sans-serif;letter-spacing:0px;word-spacing:0px;display:inline;fill:#333333;fill-opacity:1;stroke:#333333;stroke-width:1.52318;stroke-linecap:butt;stroke-linejoin:miter;stroke-opacity:1"
       d="m -61.26174,948.93959 14.572015,34.28217 -3.492907,1.4847 -14.572015,-34.28218 z m 6.693504,65.32861 -18.200776,32.5013 3.311468,1.8544 18.200776,-32.5013 z m 27.622311,-32.61521 v 37.25071 h -3.795367 v -37.25071 z m -3.968802,30.51221 V 988.2164 H 4.378151 q 8.192992,0 13.707509,-0.78779 5.5145,-0.78778 8.823207,-2.2058 3.466273,-1.41803 4.884285,-3.46627 1.418013,-2.04824 1.418013,-4.72672 0,-5.04183 -6.932529,-7.72031 -6.774964,-2.83604 -23.4760635,-2.83604 -8.3505419,0 -16.3859685,1.26046 -8.035426,1.26046 -15.125521,3.30871 -6.932529,1.89068 -12.604596,4.4116 -5.672066,2.36336 -9.453454,4.56917 l -11.186584,-26.78477 q 3.466273,-1.73313 10.241236,-3.78139 6.93253,-2.20579 15.755753,-3.93892 8.980773,-1.89069 19.379575,-3.15116 10.3987862,-1.26046 20.955138,-1.26046 11.344149,0 21.742935,1.8907 10.398786,1.89069 18.276662,5.98718 8.035442,3.93894 12.762162,10.08368 4.726719,5.98719 4.726719,14.33773 0,5.1994 -1.733128,9.45345 -1.575579,4.25404 -4.254054,7.56275 -2.678476,3.15116 -6.144732,5.35696 -3.308723,2.20575 -6.61743,3.30871 6.61743,0.63027 11.186583,3.30873 4.56917,2.6785 7.405211,6.4599 2.836025,3.6237 3.938938,7.8778 1.260447,4.0965 1.260447,7.5628 0,19.3795 -16.701084,28.2027 -16.543534,8.6657 -50.7335143,8.6657 -11.1865667,0 -21.7429187,-1.5755 -10.398802,-1.5757 -19.222025,-3.939 -8.823208,-2.3634 -15.598187,-5.0418 -6.774964,-2.836 -10.398786,-5.1994 l 12.28948,-25.8395 q 2.993591,2.3633 10.08367,5.1994 7.247645,2.6784 15.913319,5.0419 8.665657,2.3633 17.173765,3.939 8.6656575,1.5755 14.4952738,1.5755 6.3023139,0 11.9743802,-0.6303 5.829616,-0.6302 10.08367,-2.0482 4.41162,-1.4181 6.93253,-3.6238 2.678475,-2.2058 2.678475,-5.3569 0,-6.775 -7.090079,-9.1384 -6.932529,-2.3633 -22.688282,-2.3633 z m 241.958897,13.523 v 37.2505 h -3.79537 v -37.2505 z M 81.864376,955.6901 96.436384,989.97229 92.943482,991.45698 78.371475,957.17481 Z M 207.08833,1058.6856 H 78.048753 v -28.2029 q 8.665657,-9.1383 18.591778,-16.0709 8.665669,-5.9872 17.961559,-10.0837 9.45344,-4.0964 18.43422,-6.93246 9.13833,-2.99362 17.17376,-5.04187 8.19299,-2.20579 14.33774,-4.25405 6.14473,-2.04824 9.76856,-4.4116 3.62382,-2.36336 3.62382,-5.82964 0,-4.09649 -5.04184,-7.09008 -5.04183,-3.15115 -17.33131,-3.15115 -8.98079,0 -17.804,1.57558 -8.82322,1.41801 -17.01621,3.93893 -8.03543,2.52093 -15.28308,5.82964 -7.090075,3.3087 -12.604592,6.93253 L 80.254563,960.21205 q 5.199401,-3.3087 12.44703,-6.45986 7.405207,-3.30871 17.016217,-5.82962 9.611,-2.52092 21.58537,-4.0965 12.13193,-1.57556 26.78477,-1.57556 11.5017,0 20.95515,2.67847 9.61101,2.52091 16.38597,7.09008 6.77498,4.56917 10.3988,11.02903 3.78137,6.45985 3.78137,14.18016 0,9.29591 -2.67847,15.12552 -2.67848,5.8297 -8.50811,9.92613 -5.82962,4.0965 -15.12551,7.2477 -9.13833,2.9936 -22.05805,6.6174 -5.98718,1.7331 -13.07727,3.7813 -7.09008,2.0483 -13.39238,4.0965 -6.14475,2.0482 -10.87147,3.939 -4.56917,1.8906 -5.51451,3.1512 h 88.70486 z M 278.51896,946.2951 H 224.9277 v -3.55129 h 53.59126 z m 95.21896,0 h -53.59125 v -3.55129 h 53.59125 z m -98.22136,114.663 H 221.9253 v -3.5513 h 53.59126 z m 99.79406,1.1438 h -53.59125 v -3.5513 h 53.59125 z m -77.12229,-83.83709 29.46325,-32.6144 h 39.07425 l -48.52771,50.89106 51.20618,61.92003 h -42.06784 l -30.40859,-36.0806 -31.82661,36.0806 H 225.7119 l 51.99396,-57.0358 -49.31549,-55.77529 h 42.38296 z" />
  </g>
</svg>
