<?xml version="1.0" encoding="UTF-8" standalone="no"?>
<!-- Created with Inkscape (http://www.inkscape.org/) -->

<svg
   width="256"
   height="256"
   viewBox="0 0 67.733325 67.733325"
   version="1.1"
   id="svg5"
   xml:space="preserve"
   xmlns="http://www.w3.org/2000/svg"
   xmlns:svg="http://www.w3.org/2000/svg"><defs
     id="defs2" /><g
     id="g6048"
     transform="matrix(0.13419038,0,0,0.13419038,-3.3445956,21.378771)"
     style="display:inline"><path
       style="display:inline;fill:#0099fe;fill-opacity:1;stroke:none"
       d="m 362.73382,-128.57125 c 0,0 3.175,0 3.175,0 3.02948,-0.0503 6.64633,0.49742 9.525,1.44462 1.98702,0.65352 3.82058,1.48696 5.55625,2.667 6.2177,4.2254 9.51441,12.27402 9.525,19.64532 0,0 0,6.085412 0,6.085412 -0.0238,2.002896 -0.7038,6.416146 -1.11125,8.466667 0,0 -1.61132,6.614583 -1.61132,6.614583 0,0 -2.65112,8.202084 -2.65112,8.202084 0,0 -3.99786,9.789583 -3.99786,9.789583 -6.64368,15.234708 -18.24037,32.530521 -28.62262,45.50833 -17.0524,21.3174802 -38.48629,41.88619 -61.48917,56.70286 0,0 -14.81666,8.56721 -14.81666,8.56721 0,0 -8.99584,4.1566 -8.99584,4.1566 0,0 -7.14375,2.66965 -7.14375,2.66965 -12.62856,4.20687 -31.17585,6.92943 -39.85683,-5.95048 -1.38113,-2.04788 -2.27013,-3.99786 -3.00038,-6.35 -1.52135,-4.91596 -1.38641,-8.97732 -1.3282,-14.02292 0.0529,-4.52173 1.89706,-12.23169 3.175,-16.6687498 3.7756,-13.09688 10.36373,-25.6989802 17.40958,-37.3062502 15.98612,-26.336625 39.99442,-52.318708 64.34667,-71.080313 14.20812,-10.948456 32.58608,-22.328186 50.00625,-27.040416 3.02948,-0.82021 6.14362,-1.44198 9.26041,-1.81769 0,0 2.64584,-0.2831 2.64584,-0.2831 z"
       transform="translate(139.16471,129.61101)"
       id="path5745" /><path
       style="display:inline;fill:#00cc99;fill-opacity:1;stroke:none"
       d="m 199.4859,-128.57125 c 0,0 3.43958,0 3.43958,0 2.90777,-0.0503 6.49552,0.53446 9.26042,1.44462 2.20662,0.72496 3.6195,1.34673 5.55625,2.667 12.80319,8.71538 10.48544,27.950586 6.84212,40.811982 0,0 -2.55852,7.9375 -2.55852,7.9375 0,0 -3.98198,9.789584 -3.98198,9.789584 -10.10972,22.693312 -27.36585,45.873453 -44.47645,63.7645832 0,0 -9.00642,9.24983 -9.00642,9.24983 -15.35377,14.6843798 -32.23948,27.8209398 -51.06458,37.7666298 0,0 -9.26042,4.31006 -9.26042,4.31006 0,0 -7.143753,2.70404 -7.143753,2.70404 -12.68677,4.47146 -30.87423,6.79979 -39.90975,-5.61181 -1.21444,-1.66952 -2.49502,-4.36827 -3.10356,-6.35 -1.53194,-5.00856 -1.4949,-8.62542 -1.43669,-13.75833 0.0714,-6.11982 2.29129,-14.54415 4.23333,-20.3729198 4.20952,-12.63121 10.32404,-24.4369202 17.35138,-35.7187502 16.5391,-26.556229 40.735253,-52.527729 65.727793,-71.270809 13.6869,-10.26584 31.01446,-20.76979 47.625,-25.26242 3.02948,-0.82021 6.14362,-1.44198 9.26042,-1.81769 0,0 2.64583,-0.2831 2.64583,-0.2831 z"
       transform="translate(139.16471,129.61101)"
       id="path5743" /><path
       style="display:inline;fill:#ff0000;fill-opacity:1;stroke:none"
       d="m 28.300477,-129.10042 c 0,0 2.11667,0 2.11667,0 3.78883,-0.0608 6.91885,0.10848 10.58333,1.27529 1.81504,0.5768 3.7174,1.50019 5.29167,2.57175 12.81112,8.71802 10.55423,27.305003 7.31044,40.282816 0,0 -2.37067,7.9375 -2.37067,7.9375 0,0 -3.88144,10.054166 -3.88144,10.054166 -11.65489,27.413479 -31.89552,53.739517 -52.9166603,74.6124972 0,0 -5.8208397,5.7970198 -5.8208397,5.7970198 -11.84539,11.03577 -27.286476,23.19073 -41.53958,30.89805 0,0 -8.995833,4.49791 -8.995833,4.49791 0,0 -7.14375,2.94217 -7.14375,2.94217 -12.784667,4.86039 -31.477484,8.06714 -40.629414,-4.97681 -1.19327,-1.69863 -2.50032,-4.61434 -3.10092,-6.61459 -0.45244,-1.51077 -1.11919,-5.05089 -1.24883,-6.61458 0,0 0,-2.38125 0,-2.38125 -0.0794,-0.83344 -0.24607,-1.2409 -0.17992,-2.11667 0,0 0.17992,-3.43958 0.17992,-3.43958 0.0635,-5.24933 2.25425,-13.96735 3.87879,-19.0499998 3.92377,-12.2899 9.54616,-23.8733502 16.176624,-34.9250002 17.388416,-28.982458 43.034479,-57.589208 70.432083,-77.369459 12.49362,-9.02229 27.0589397,-17.67152 42.06875,-21.61646 0,0 9.78958,-1.76477 9.78958,-1.76477 z"
       transform="translate(139.16471,129.61101)"
       id="Selection-3" /></g></svg>
