<?xml version="1.0" encoding="UTF-8" standalone="no"?>
<svg
   width="256"
   height="256"
   version="1.1"
   id="svg6"
   xmlns="http://www.w3.org/2000/svg"
   xmlns:svg="http://www.w3.org/2000/svg">
  <defs
     id="defs10" />
  <path
     d="M 185.59442,79.580733 C 215.73162,81.538252 247.24316,106.95852 256,136.37345 238.48633,77.542605 175.45154,26.679077 115.19274,22.780219 54.94076,18.867519 8.500485,60.638131 37.78773,122.24984 c 10.81836,22.74301 27.3427,43.22664 50.29527,52.13553 -5.20536,1.69006 -11.12149,2.46915 -17.67742,2.03676 C 40.28008,174.48781 8.756835,149.04435 0,119.62941 c 17.514645,58.84255 80.56016,109.69438 140.81701,113.61273 60.26367,3.9011 103.98255,-42.10864 77.39331,-99.46962 -10.53862,-22.7781 -27.331,-43.238335 -50.28358,-52.135529 5.20537,-1.690058 11.1215,-2.478992 17.67743,-2.049923 z m 3.9244,51.634527 c 6.42804,17.63064 4.14565,33.42101 -4.63467,43.86703 4.00588,-5.77606 4.85593,-13.95109 1.56032,-23.03348 -6.38146,-17.51465 -25.72369,-31.69772 -43.25004,-31.69772 -17.49125,0 -26.52783,14.18405 -20.14637,31.69772 6.35826,17.50197 25.72369,31.68602 43.22664,31.68602 5.08889,0 9.43251,-1.19831 12.91399,-3.30721 -6.6494,4.93723 -15.42973,7.77871 -25.92156,7.77871 -31.47645,0 -66.2952,-25.51412 -77.74225,-56.99058 -11.45875,-31.488155 4.77444,-57.013979 36.25061,-57.013979 31.48815,0 66.28351,25.525824 77.74225,57.013979"
     fill="#ce001d"
     id="path2"
     style="stroke-width:0.974715;fill:#333333;fill-opacity:1" />
</svg>
