<?xml version="1.0" encoding="UTF-8" standalone="no"?>
<svg
   width="479.99997"
   height="39.216148"
   version="1.1"
   id="svg6"
   xmlns="http://www.w3.org/2000/svg"
   xmlns:svg="http://www.w3.org/2000/svg">
  <defs
     id="defs10" />
  <path
     d="M 194.18518,15.28771 203.37505,4.44915 H 189.8126 l -3.38317,5.44802 -4.74554,4.47277 h -14.42285 l -11.9854,7.38339 -3.29749,12.31564 c -0.73117,2.71057 1.66297,4.90309 5.33318,4.90309 h 23.35448 l 9.94971,0.24409 5.26154,-19.91407 c 0.44515,-1.63369 -0.2559,-3.09673 -1.69177,-3.99889 z m -15.85686,19.88406 -5.03222,0.12156 h -6.63782 c -0.90321,0 -1.50528,-0.57312 -1.33344,-1.2192 l 3.24026,-12.31564 5.9927,-3.68605 h 6.70958 c 0.88923,0 1.50528,0.51612 1.31868,1.2192 l -4.25797,15.88445 m 247.00881,3.76717 -8.21499,-0.0432 5.5913,-20.85966 h -5.00343 c -4.55905,0 -9.10383,2.76756 -9.99254,6.13562 l -1.33344,4.90309 c -0.84515,3.41377 2.15064,6.1793 6.70958,6.1793 h 3.91404 l -4.88882,3.68593 h -8.3009 c -7.35471,0 -12.22924,-4.43005 -10.7812,-9.86391 l 1.37653,-4.90309 c 1.51944,-5.41922 8.64495,-9.8206 15.98525,-9.8206 h 13.30444 l 13.47605,-0.49992 -6.65222,24.88808 -5.18978,0.20328 M 330.74406,6.84088 H 312.3216 c -1.82065,0 -3.81361,1.65 -4.3727,3.74281 l -0.53009,1.93453 c -0.5301,2.09292 0.47312,3.74281 2.32249,3.74281 h 15.03965 c 4.57334,0 7.22571,4.22941 5.77767,9.49083 l -1.04622,3.72673 c -1.43377,5.24738 -6.4085,9.47667 -10.98184,9.47667 h -50.79497 l 6.56619,-5.66305 h 37.47612 c 1.83528,0 3.77041,-1.73533 4.34401,-3.81194 l 0.51612,-1.87764 c 0.5731,-2.09281 -0.47311,-3.7997 -2.30832,-3.7997 h -15.05285 c -4.57346,0 -7.08231,-4.22941 -5.72042,-9.40479 l 1.04622,-3.81193 c 1.41961,-5.17538 6.33686,-9.40479 10.98196,-9.40479 h 18.25086 l 14.10724,-0.86128 -7.1969,6.52346 m -83.23827,32.09771 h -8.34387 l 4.60202,-17.19006 11.98539,-7.39766 h 19.99927 c 5.50526,0 9.04635,3.31213 7.95687,7.39766 l -0.0323,0.0864 -5.92106,3.68593 h -8.35827 l 1.01826,-3.78349 c 0.60214,-2.07672 -1.29024,-3.71449 -4.01437,-3.71449 h -3.35473 l -5.99282,3.71449 -4.4873,16.98966 -5.06089,0.20316 m -106.50635,0.012 h -8.35803 l 4.60201,-17.19006 c 0.55913,-2.07672 -1.27608,-3.71437 -3.99973,-3.71437 h -8.35827 l -3.95713,15.00965 -6.58058,5.89262 h -8.35827 l 6.73826,-25.14728 13.08964,0.56124 h 16.75926 c 5.50526,0 9.06063,3.31213 7.95687,7.39766 l -4.47301,16.98966 -5.0609,0.20328 m 329.25708,0 h -8.37267 l 4.61641,-17.19006 c 0.55913,-2.0766 -1.27608,-3.71449 -3.99985,-3.71449 h -8.37255 l -3.94249,15.00965 -6.59486,5.89274 h -8.34387 l 6.72398,-25.14728 13.10405,0.56124 H 471.832 c 5.51954,0 9.06075,3.31213 7.97115,7.39742 l -4.4873,16.98966 -5.06089,0.20316 M 210.0701,34.04373 211.24578,29.5706 h 16.64526 l 11.9854,-7.38339 0.71719,-2.92597 c 0.73117,-2.71069 -1.66296,-4.90309 -5.33329,-4.90309 h -23.29688 l -11.9854,7.39754 -1.13266,4.2293 c -0.043,0.12156 -0.0538,0.24408 -0.086,0.36564 l -2.05021,7.68446 c -0.73117,2.69437 1.66285,4.9031 5.33318,4.9031 h 22.65247 l 5.9927,-3.68593 h -19.29726 c -0.88923,0 -1.50528,-0.56125 -1.31916,-1.21921 z m 3.21134,-12.28684 5.9927,-3.71437 h 8.8457 c 0.87418,0 1.50529,0.51612 1.31881,1.21908 l -0.80321,2.92609 -5.97842,3.68594 H 212.1769 l 1.10374,-4.1147 M 91.360259,38.94659 H 67.991383 c -3.670092,0 -6.05006,-2.20669 -5.333298,-4.9031 l 3.297491,-12.28684 11.985399,-7.39766 h 23.296875 c 3.67009,0 6.05006,2.19468 5.3333,4.90321 l -3.24025,12.30004 z m -1.376404,-7.38375 3.28321,-12.30004 c 0.198925,-0.7032 -0.416113,-1.2192 -1.319164,-1.2192 h -6.709582 l -5.978299,3.71449 -3.240251,12.28684 c -0.170965,0.65808 0.430105,1.21909 1.319284,1.21909 h 6.637822 l 6.0071,-3.69806 m 286.836945,7.38123 h -45.04575 l 5.61998,-21.03247 5.79194,-3.56809 8.20058,-0.54408 -5.76337,21.57607 h 3.16825 l 5.79205,-3.55597 3.72745,-13.90685 5.77766,-3.56821 8.21486,-0.54396 -4.83145,18.02046 -2.30833,3.55597 h 4.53038 l 5.83501,-3.55597 3.6701,-13.90565 5.79206,-3.56821 8.21486,-0.54516 -4.84585,18.02166 -11.54092,7.12562 m -330.169077,0 H 0 L 7.569745,5.01744 13.576844,0.5731 22.049832,0 14.336687,34.52292 h 3.297491 l 5.992819,-4.44434 5.605579,-25.06088 5.992819,-4.44433 8.487268,-0.5731 -6.723982,30.0781 -2.379848,4.44421 h 4.688176 L 45.346948,30.07837 50.880887,5.01749 56.873586,0.57315 65.360974,4e-5 58.636992,30.07814 46.651593,38.95265"
     id="path4"
     style="stroke-width:1.2;stroke:none;fill:#cccccc;fill-opacity:1" />
</svg>
