<?xml version="1.0" encoding="UTF-8" standalone="no"?>
<!-- Created with Inkscape (http://www.inkscape.org/) -->

<svg
   version="1.1"
   id="svg1594"
   width="256"
   height="256"
   viewBox="0 0 255.99999 256"
   xmlns="http://www.w3.org/2000/svg"
   xmlns:svg="http://www.w3.org/2000/svg">
  <defs
     id="defs1598" />
  <g
     id="layer2"
     style="display:none"
     transform="translate(-564.59373,-4.7002703)">
    <path
       style="display:inline;fill:#000000"
       d="m 584,187.36833 c -20.625,-42.13909 -37.60139,-77.12319 -37.72532,-77.74243 -0.12392,-0.61925 14.72608,-8.26847 33,-16.99827 48.25439,-23.052043 42.92357,-21.121455 58.22532,-21.086644 15.01197,0.03415 20.1124,1.50434 31.70808,9.13978 8.45048,5.564411 13.90342,11.733878 18.33899,20.748774 15.65386,31.81501 2.10808,66.32084 -32.98631,84.02763 -7.60573,3.83746 -9.17207,4.31227 -10.5,3.1829 -0.85842,-0.73006 -11.01076,-9.105 -22.56076,-18.61098 -11.55,-9.50597 -21.85763,-18.09646 -22.90585,-19.08997 -1.86766,-1.77017 -1.75832,-2.22595 5.45703,-22.74747 l 7.36287,-20.9411 6.54297,-0.61817 c 3.59864,-0.33999 12.95548,-0.62136 20.79298,-0.62527 L 653,106 v 10 10 h -13.43261 c -11.92642,0 -13.49145,0.19623 -13.9573,1.75 C 623.75433,133.93964 621,144.65687 621,145.68807 c 0,0.67555 6.36495,5.73347 14.14433,11.23982 l 14.14433,10.01155 3.84251,-3.04333 C 667.15916,152.78574 675.21176,136.0896 673.02439,122.64985 670.31695,106.01468 657.98173,93.210549 643,91.484098 632.19592,90.239068 624.87051,92.662757 597.25,106.62098 583.3625,113.63912 572,119.59543 572,119.8572 c 0,0.26178 15.3,30.77994 34,67.81813 18.7,37.0382 34,67.73483 34,68.21475 0,0.82447 -15.91027,8.1185 -17.67343,8.10235 C 621.87196,263.98827 604.625,229.50742 584,187.36833 Z m -384.72425,61.12023 c -18.32894,-3.98262 -34.27621,-19.0215 -39.68037,-37.42006 -3.65934,-12.45831 -1.33668,-31.79123 5.17251,-43.05387 13.86083,-23.98298 45.70684,-33.18136 72.05377,-20.81197 22.44721,10.53855 34.76386,38.32048 28.05008,63.27089 -3.4082,12.6659 -13.65822,25.92221 -25.01908,32.35707 -11.35559,6.43188 -26.9852,8.61123 -40.57691,5.65794 z m 31.11014,-12.28837 c 17.50308,-8.19067 27.90383,-28.11021 24.72568,-47.35466 -4.03831,-24.45288 -25.66622,-40.74625 -49.24271,-37.09695 -14.58707,2.25787 -26.77751,11.42082 -33.06243,24.85137 -2.55772,5.46572 -3.18142,8.241 -3.58469,15.95084 -0.53754,10.27674 0.53747,16.17615 4.32208,23.71864 5.28019,10.52309 14.07598,18.17712 25.05327,21.80117 9.26054,3.05728 22.98411,2.24981 31.7888,-1.87041 z m 84.25906,12.21582 c -18.4825,-4.47416 -33.80769,-19.2368 -39.13727,-37.70065 -1.94627,-6.74268 -2.21657,-20.8633 -0.5395,-28.18388 2.8125,-12.27685 12.0356,-25.35 22.70399,-32.18141 16.69761,-10.69217 39.94112,-11.53268 57.67621,-2.08564 7.38222,3.93232 16.3303,12.02918 19.4656,17.61385 L 377.12797,170 h -5.99877 c -5.92504,0 -6.06518,-0.0664 -11.40321,-5.40445 -22.00772,-22.00772 -57.86865,-15.87195 -70.98769,12.14592 -2.67018,5.70261 -3.22869,8.21819 -3.57478,16.10121 -0.50654,11.53737 1.49684,19.77457 6.80796,27.99189 4.51495,6.98552 9.42633,11.20962 17.92678,15.41819 11.26464,5.57712 27.88455,4.97998 40.49827,-1.45505 8.60798,-4.39147 17.37222,-15.09995 20.09081,-24.54771 L 371.13478,208 H 342.56739 314 v -4.5 -4.5 h 35.09384 35.09384 l -0.7143,5.19358 c -1.71035,12.43568 -7.12066,22.60458 -16.58209,31.16668 -13.65146,12.35386 -34.06915,17.456 -52.24634,13.05575 z m 180.6308,0.0726 c -18.53748,-4.02794 -34.36411,-19.05115 -39.75847,-37.74018 -1.9632,-6.80158 -2.19531,-21.07685 -0.45969,-28.27189 5.73286,-23.76576 27.08966,-40.51866 51.90209,-40.71352 15.22274,-0.11955 27.57622,4.31271 37.66432,13.51344 11.88949,10.84368 17.79017,24.2043 17.76464,40.22359 -0.0572,35.91995 -31.48149,60.73076 -67.11289,52.98856 z m 31.11014,-12.28837 c 20.35167,-9.52369 30.20012,-33.65107 22.66987,-55.53813 -2.50688,-7.28636 -5.80519,-12.24873 -11.95202,-17.982 -21.38162,-19.94311 -55.71794,-12.8819 -68.37602,14.06141 -2.7618,5.87862 -3.22414,8.06045 -3.55121,16.75853 -0.31225,8.30428 -0.007,11.09307 1.8004,16.44604 4.57031,13.53615 14.00403,23.2882 26.90145,27.80919 5.59656,1.96179 8.10966,2.26238 16.2337,1.94175 8.19866,-0.32359 10.59164,-0.83777 16.27383,-3.49679 z m 208.88986,12.28837 C 716.85708,244.48644 701.06379,229.57808 695.56195,211 c -1.93147,-6.522 -2.18269,-21.55487 -0.47839,-28.62666 5.7006,-23.65397 27.11246,-40.41589 51.87612,-40.61037 16.08439,-0.12632 27.94114,4.40544 39.12179,14.9527 C 807.94905,177.34444 808.36844,212.63156 787,234 c -13.33589,13.33589 -32.42308,18.68243 -51.72425,14.48856 z m 31.11014,-12.28837 c 17.5145,-8.19602 27.90406,-28.10879 24.7213,-47.38113 -4.01554,-24.31504 -25.7805,-40.70141 -49.23833,-37.07048 -14.65132,2.26782 -26.77071,11.41039 -33.13056,24.99289 -2.66218,5.68552 -3.22907,8.22679 -3.57065,16.00662 -0.4457,10.15127 0.66621,16.12763 4.37617,23.52134 5.28019,10.52309 14.07598,18.17712 25.05327,21.80117 9.26054,3.05728 22.98411,2.24981 31.7888,-1.87041 z m 94.18253,12.63435 c -9.56795,-1.82717 -19.15735,-7.1902 -26.92914,-15.06055 C 822.80816,222.80549 818,211.09512 818,195.68425 c 0,-30.63752 23.31836,-53.92235 54,-53.92235 14.52305,0 25.55895,4.23201 35.82774,13.7391 5.22491,4.83735 12.17226,13.8761 12.17226,15.83655 0,0.36435 -2.5875,0.65284 -5.75,0.6411 -5.56442,-0.0207 -5.84169,-0.15093 -8.5909,-4.03624 -3.61854,-5.11387 -12.12307,-11.55091 -18.42409,-13.94511 -15.18655,-5.77044 -32.74353,-2.2499 -44.57284,8.93777 -9.92435,9.38604 -14.21198,20.7636 -13.43349,35.64682 0.39533,7.55799 1.03219,10.37842 3.56621,15.79349 4.06178,8.67983 8.38745,13.91313 15.33478,18.55238 7.79244,5.20358 16.60838,7.47303 26.55966,6.83711 11.97383,-0.76517 18.33288,-3.66286 27.26728,-12.42515 7.39022,-7.24787 7.54994,-7.33972 12.76363,-7.33972 2.90387,0 5.27745,0.3375 5.27464,0.75 -0.0125,1.83354 -5.12248,8.91879 -9.94945,13.79548 -12.15621,12.28143 -31.19597,17.78015 -49.47701,14.28906 z M 0,195.5 V 143 H 5.8377554 11.675511 L 41.587755,187.02948 71.5,231.05895 71.760402,187.02948 72.020804,143 H 77.510402 83 v 52.5 52.5 l -5.75,-0.0503 -5.75,-0.0503 -30,-44.15824 -30,-44.15825 -0.260402,44.20852 L 10.979196,248 H 5.489598 0 Z m 96,0 V 143 h 27.5 27.5 v 5 5 h -22 -22 v 18.5 18.5 h 22 22 v 5 5 h -22 -22 v 19 19 h 22 22 v 5 5 H 123.5 96 Z m 294,0 V 143 h 29 29 v 5 5 H 424.5 401 v 18.5 18.5 h 23.5 23.5 v 5 5 H 424.5 401 v 19 19 h 23.5 23.5 v 5 5 h -29 -29 z m 547,0 V 143 h 5.5 5.5 v 28.5 c 0,15.675 0.3583,28.5 0.79623,28.5 0.43793,0 13.106,-12.825 28.15127,-28.5 l 27.355,-28.5 h 5.9343 5.9343 l -8.8355,9.38691 c -4.8596,5.16281 -16.13759,17.02194 -25.06225,26.35365 l -16.22665,16.96673 7.72665,7.39576 c 4.24966,4.06767 16.4647,15.83353 27.14455,26.14636 L 1020.3358,248 l -6.9179,-0.024 -6.9179,-0.0241 -23.31382,-22.63149 -23.31382,-22.63149 -5.93618,5.87424 L 948,214.4374 v 16.78131 16.7813 h -5.5 -5.5 v -52.5 z m 100,0 V 143 h 28.5 28.5 v 5 5 h -23 -23 v 18.5 18.5 h 23 23 v 5 5 h -23 -23 v 19 19 h 23 23 v 5 5 h -28.5 -28.5 z m 117,5 V 153 h -17 -17 v -5 -5 h 40 40 v 5 5 h -17 -17 v 47.5 47.5 h -6 -6 z M 696.97604,83.46323 c -4.21845,-6.474737 -4.2602,-6.62283 -2.38483,-8.459874 4.8178,-4.719335 35.98106,-31.992305 36.56172,-31.997507 0.77202,-0.0069 13.19183,20.001269 12.69033,20.443999 -0.18879,0.166668 -8.85931,5.574729 -19.26782,12.017914 -10.4085,6.443184 -19.91033,12.360785 -21.11517,13.150224 -2.09565,1.373125 -2.37673,1.149676 -6.48423,-5.154756 z M 675.5,63.853912 c -2.75,-1.709448 -5.16319,-3.25159 -5.36265,-3.426981 C 669.58261,59.939122 696.10158,15 696.94418,15 c 1.26897,0 17.32784,11.455105 17.29306,12.335478 C 714.19566,28.388239 681.9186,67.006785 681.10185,66.981 680.77083,66.970549 678.25,65.56336 675.5,63.853912 Z m -25.67303,-9.222706 c -2.57017,-0.622163 -4.9335,-1.394539 -5.25185,-1.716389 -0.77432,-0.782834 6.50054,-50.1554823 7.56672,-51.3534168 0.70879,-0.79638438 22.47331,1.720414 23.46651,2.7136124 0.25668,0.2566829 -8.21045,23.7118754 -16.23561,44.9749874 -1.40117,3.7125 -3.07075,6.696543 -3.71016,6.631206 -0.63942,-0.06534 -3.26544,-0.627837 -5.83561,-1.25 z"
       id="path1993" />
  </g>
  <g
     id="g3919"
     style="display:inline"
     transform="translate(-564.59373,-4.7002703)">
    <g
       id="g4814"
       style="fill:#f10000;fill-opacity:1;stroke:none"
       transform="matrix(0.97492474,0,0,0.97492474,63.702951,3.3274936)">
      <path
         style="display:inline;fill:#f10000;fill-opacity:1;stroke:none"
         d="m 649.82697,54.631206 c -2.57017,-0.622163 -4.9335,-1.394539 -5.25185,-1.716389 -0.77432,-0.782834 6.50054,-50.1554823 7.56672,-51.3534168 0.70879,-0.79638438 22.47331,1.720414 23.46651,2.7136124 0.25668,0.2566829 -8.21045,23.7118754 -16.23561,44.9749874 -1.40117,3.7125 -3.07075,6.696543 -3.71016,6.631206 -0.63942,-0.06534 -3.26544,-0.627837 -5.83561,-1.25 z"
         id="path4415" />
      <path
         style="display:inline;fill:#f10000;fill-opacity:1;stroke:none"
         d="m 675.5,63.853912 c -2.75,-1.709448 -5.16319,-3.25159 -5.36265,-3.426981 C 669.58261,59.939122 696.10158,15 696.94418,15 c 1.26897,0 17.32784,11.455105 17.29306,12.335478 C 714.19566,28.388239 681.9186,67.006785 681.10185,66.981 680.77083,66.970549 678.25,65.56336 675.5,63.853912 Z"
         id="path4413" />
      <path
         style="display:inline;fill:#f10000;fill-opacity:1;stroke:none"
         d="m 696.97604,83.46323 c -4.21845,-6.474737 -4.2602,-6.62283 -2.38483,-8.459874 4.8178,-4.719335 35.98106,-31.992305 36.56172,-31.997507 0.77202,-0.0069 13.19183,20.001269 12.69033,20.443999 -0.18879,0.166668 -8.85931,5.574729 -19.26782,12.017914 -10.4085,6.443184 -19.91033,12.360785 -21.11517,13.150224 -2.09565,1.373125 -2.37673,1.149676 -6.48423,-5.154756 z"
         id="path4411" />
      <path
         style="display:inline;fill:#f10000;fill-opacity:1;stroke:none"
         d="m 584,187.36833 c -20.625,-42.13909 -37.60139,-77.12319 -37.72532,-77.74243 -0.12392,-0.61925 14.72608,-8.26847 33,-16.99827 48.25439,-23.052043 42.92357,-21.121455 58.22532,-21.086644 15.01197,0.03415 20.1124,1.50434 31.70808,9.13978 8.45048,5.564411 13.90342,11.733878 18.33899,20.748774 15.65386,31.81501 2.10808,66.32084 -32.98631,84.02763 -7.60573,3.83746 -9.17207,4.31227 -10.5,3.1829 -0.85842,-0.73006 -11.01076,-9.105 -22.56076,-18.61098 -11.55,-9.50597 -21.85763,-18.09646 -22.90585,-19.08997 -1.86766,-1.77017 -1.75832,-2.22595 5.45703,-22.74747 l 7.36287,-20.9411 6.54297,-0.61817 c 3.59864,-0.33999 12.95548,-0.62136 20.79298,-0.62527 L 653,106 v 10 10 h -13.43261 c -11.92642,0 -13.49145,0.19623 -13.9573,1.75 C 623.75433,133.93964 621,144.65687 621,145.68807 c 0,0.67555 6.36495,5.73347 14.14433,11.23982 l 14.14433,10.01155 3.84251,-3.04333 C 667.15916,152.78574 675.21176,136.0896 673.02439,122.64985 670.31695,106.01468 657.98173,93.210549 643,91.484098 632.19592,90.239068 624.87051,92.662757 597.25,106.62098 583.3625,113.63912 572,119.59543 572,119.8572 c 0,0.26178 15.3,30.77994 34,67.81813 18.7,37.0382 34,67.73483 34,68.21475 0,0.82447 -15.91027,8.1185 -17.67343,8.10235 C 621.87196,263.98827 604.625,229.50742 584,187.36833 Z"
         id="path3917" />
    </g>
  </g>
</svg>
