<?xml version="1.0" encoding="UTF-8" standalone="no"?>
<!-- Created with Inkscape (http://www.inkscape.org/) -->

<svg
   version="1.1"
   id="svg1594"
   width="480"
   height="105.03375"
   viewBox="0 0 480 105.03375"
   xmlns="http://www.w3.org/2000/svg"
   xmlns:svg="http://www.w3.org/2000/svg">
  <defs
     id="defs1598" />
  <g
     id="g3919"
     style="display:inline"
     transform="matrix(0.4,0,0,0.4,0,-0.56323368)">
    <g
       id="g4814"
       style="fill:#f10000;fill-opacity:1;stroke:none">
      <path
         style="display:inline;fill:#f10000;fill-opacity:1;stroke:none"
         d="m 649.82697,54.631206 c -2.57017,-0.622163 -4.9335,-1.394539 -5.25185,-1.716389 -0.77432,-0.782834 6.50054,-50.1554823 7.56672,-51.3534168 0.70879,-0.79638438 22.47331,1.720414 23.46651,2.7136124 0.25668,0.2566829 -8.21045,23.7118754 -16.23561,44.9749874 -1.40117,3.7125 -3.07075,6.696543 -3.71016,6.631206 -0.63942,-0.06534 -3.26544,-0.627837 -5.83561,-1.25 z"
         id="path4415" />
      <path
         style="display:inline;fill:#f10000;fill-opacity:1;stroke:none"
         d="m 675.5,63.853912 c -2.75,-1.709448 -5.16319,-3.25159 -5.36265,-3.426981 C 669.58261,59.939122 696.10158,15 696.94418,15 c 1.26897,0 17.32784,11.455105 17.29306,12.335478 C 714.19566,28.388239 681.9186,67.006785 681.10185,66.981 680.77083,66.970549 678.25,65.56336 675.5,63.853912 Z"
         id="path4413" />
      <path
         style="display:inline;fill:#f10000;fill-opacity:1;stroke:none"
         d="m 696.97604,83.46323 c -4.21845,-6.474737 -4.2602,-6.62283 -2.38483,-8.459874 4.8178,-4.719335 35.98106,-31.992305 36.56172,-31.997507 0.77202,-0.0069 13.19183,20.001269 12.69033,20.443999 -0.18879,0.166668 -8.85931,5.574729 -19.26782,12.017914 -10.4085,6.443184 -19.91033,12.360785 -21.11517,13.150224 -2.09565,1.373125 -2.37673,1.149676 -6.48423,-5.154756 z"
         id="path4411" />
      <path
         style="display:inline;fill:#f10000;fill-opacity:1;stroke:none"
         d="m 584,187.36833 c -20.625,-42.13909 -37.60139,-77.12319 -37.72532,-77.74243 -0.12392,-0.61925 14.72608,-8.26847 33,-16.99827 48.25439,-23.052043 42.92357,-21.121455 58.22532,-21.086644 15.01197,0.03415 20.1124,1.50434 31.70808,9.13978 8.45048,5.564411 13.90342,11.733878 18.33899,20.748774 15.65386,31.81501 2.10808,66.32084 -32.98631,84.02763 -7.60573,3.83746 -9.17207,4.31227 -10.5,3.1829 -0.85842,-0.73006 -11.01076,-9.105 -22.56076,-18.61098 -11.55,-9.50597 -21.85763,-18.09646 -22.90585,-19.08997 -1.86766,-1.77017 -1.75832,-2.22595 5.45703,-22.74747 l 7.36287,-20.9411 6.54297,-0.61817 c 3.59864,-0.33999 12.95548,-0.62136 20.79298,-0.62527 L 653,106 v 10 10 h -13.43261 c -11.92642,0 -13.49145,0.19623 -13.9573,1.75 C 623.75433,133.93964 621,144.65687 621,145.68807 c 0,0.67555 6.36495,5.73347 14.14433,11.23982 l 14.14433,10.01155 3.84251,-3.04333 C 667.15916,152.78574 675.21176,136.0896 673.02439,122.64985 670.31695,106.01468 657.98173,93.210549 643,91.484098 632.19592,90.239068 624.87051,92.662757 597.25,106.62098 583.3625,113.63912 572,119.59543 572,119.8572 c 0,0.26178 15.3,30.77994 34,67.81813 18.7,37.0382 34,67.73483 34,68.21475 0,0.82447 -15.91027,8.1185 -17.67343,8.10235 C 621.87196,263.98827 604.625,229.50742 584,187.36833 Z"
         id="path3917" />
    </g>
    <g
       id="g463"
       style="display:inline">
      <path
         id="path4393"
         style="display:inline;fill:#5b5b59;fill-opacity:1"
         d="m 746.95898,141.76367 c -24.76366,0.19448 -46.1744,16.95541 -51.875,40.60938 -1.7043,7.07179 -1.45295,22.10495 0.47852,28.62695 5.50184,18.57808 21.29422,33.48611 39.71289,37.48828 C 754.57656,252.68215 773.66411,247.33589 787,234 c 21.36844,-21.36844 20.94961,-56.65639 -0.91797,-77.28516 -11.18065,-10.54726 -23.03866,-15.07749 -39.12305,-14.95117 z m 1.44922,9.48242 c 20.84311,0.0146 39.06014,15.53676 42.69922,37.57227 3.18276,19.27234 -7.2062,39.18679 -24.7207,47.38281 -8.80469,4.12022 -22.52852,4.92642 -31.78906,1.86914 -10.97729,-3.62405 -19.7745,-11.27769 -25.05469,-21.80078 -3.70996,-7.39371 -4.8207,-13.37021 -4.375,-23.52148 0.34158,-7.77983 0.90813,-10.32034 3.57031,-16.00586 6.35985,-13.5825 18.47954,-22.72632 33.13086,-24.99414 2.19917,-0.3404 4.38288,-0.50346 6.53906,-0.50196 z" />
      <path
         id="path4389"
         style="display:inline;fill:#5b5b59;fill-opacity:1"
         d="m 506.95898,141.76367 c -24.81243,0.19486 -46.16948,16.94713 -51.90234,40.71289 -1.73562,7.19504 -1.50226,21.46991 0.46094,28.27149 5.39436,18.68903 21.22033,33.71229 39.75781,37.74023 35.6314,7.7422 67.05608,-17.06833 67.11328,-52.98828 0.0255,-16.01929 -5.87613,-29.37898 -17.76562,-40.22266 -10.0881,-9.20073 -22.44133,-13.63322 -37.66407,-13.51367 z m 2.45118,9.49805 c 9.83527,0.25929 19.67525,3.9393 27.69336,11.41797 6.14683,5.73327 9.44624,10.69606 11.95312,17.98242 7.53025,21.88706 -2.31825,46.01537 -22.66992,55.53906 -5.68219,2.65902 -8.07673,3.17251 -16.27539,3.4961 -8.12404,0.32063 -10.63586,0.0204 -16.23242,-1.94141 -12.89742,-4.52099 -22.33204,-14.2744 -26.90235,-27.81055 -1.8074,-5.35297 -2.11303,-8.14103 -1.80078,-16.44531 0.32707,-8.69808 0.79094,-10.87919 3.55274,-16.75781 7.9113,-16.83957 24.28952,-25.91262 40.68164,-25.48047 z" />
      <path
         id="path4383"
         style="display:inline;fill:#5b5b59;fill-opacity:1"
         d="m 211.22656,141.71875 c -18.8997,0.30803 -36.92966,9.80662 -46.45898,26.29492 -6.50919,11.26264 -8.83122,30.59638 -5.17188,43.05469 5.40416,18.39856 21.35075,33.4373 39.67969,37.41992 13.59171,2.95329 29.22254,0.77368 40.57813,-5.6582 11.36086,-6.43486 21.60937,-19.69152 25.01757,-32.35742 6.71378,-24.95041 -5.60161,-52.73098 -28.04882,-63.26954 -8.23342,-3.86543 -17.00494,-5.62438 -25.59571,-5.48437 z m 1.20899,9.51953 c 20.9105,-0.0123 39.01606,15.447 42.67578,37.60742 3.17815,19.24445 -7.22153,39.16285 -24.72461,47.35352 -8.80469,4.12022 -22.52852,4.92837 -31.78906,1.87109 -10.97729,-3.62405 -19.7745,-11.27769 -25.05469,-21.80078 -3.78461,-7.54249 -4.85785,-13.44201 -4.32031,-23.71875 0.40327,-7.70984 1.02626,-10.48545 3.58398,-15.95117 6.28492,-13.43055 18.47543,-22.59369 33.0625,-24.85156 2.2103,-0.34213 4.40325,-0.50849 6.56641,-0.50977 z" />
      <path
         style="display:inline;fill:#5b5b59;fill-opacity:1"
         d="M 1154,200.5 V 153 h -17 -17 v -5 -5 h 40 40 v 5 5 h -17 -17 v 47.5 47.5 h -6 -6 z"
         id="path4409" />
      <path
         style="display:inline;fill:#5b5b59;fill-opacity:1"
         d="M 1037,195.5 V 143 h 28.5 28.5 v 5 5 h -23 -23 v 18.5 18.5 h 23 23 v 5 5 h -23 -23 v 19 19 h 23 23 v 5 5 h -28.5 -28.5 z"
         id="path4407" />
      <path
         style="display:inline;fill:#5b5b59;fill-opacity:1"
         d="M 937,195.5 V 143 h 5.5 5.5 v 28.5 c 0,15.675 0.3583,28.5 0.79623,28.5 0.43793,0 13.106,-12.825 28.15127,-28.5 l 27.355,-28.5 h 5.9343 5.9343 l -8.8355,9.38691 c -4.8596,5.16281 -16.13759,17.02194 -25.06225,26.35365 l -16.22665,16.96673 7.72665,7.39576 c 4.24966,4.06767 16.4647,15.83353 27.14455,26.14636 L 1020.3358,248 l -6.9179,-0.024 -6.9179,-0.0241 -23.31382,-22.63149 -23.31382,-22.63149 -5.93618,5.87424 L 948,214.4374 v 16.78131 16.7813 h -5.5 -5.5 v -52.5 z"
         id="path4405" />
      <path
         style="display:inline;fill:#5b5b59;fill-opacity:1"
         d="M 390,195.5 V 143 h 29 29 v 5 5 H 424.5 401 v 18.5 18.5 h 23.5 23.5 v 5 5 H 424.5 401 v 19 19 h 23.5 23.5 v 5 5 h -29 -29 z"
         id="path4403" />
      <path
         style="display:inline;fill:#5b5b59;fill-opacity:1"
         d="M 96,195.5 V 143 h 27.5 27.5 v 5 5 h -22 -22 v 18.5 18.5 h 22 22 v 5 5 h -22 -22 v 19 19 h 22 22 v 5 5 H 123.5 96 Z"
         id="path4401" />
      <path
         style="display:inline;fill:#5b5b59;fill-opacity:1"
         d="M 0,195.5 V 143 H 5.8377554 11.675511 L 41.587755,187.02948 71.5,231.05895 71.760402,187.02948 72.020804,143 H 77.510402 83 v 52.5 52.5 l -5.75,-0.0503 -5.75,-0.0503 -30,-44.15824 -30,-44.15825 -0.260402,44.20852 L 10.979196,248 H 5.489598 0 Z"
         id="path4399" />
      <path
         style="display:inline;fill:#5b5b59;fill-opacity:1"
         d="m 860.56842,248.83459 c -9.56795,-1.82717 -19.15735,-7.1902 -26.92914,-15.06055 C 822.80816,222.80549 818,211.09512 818,195.68425 c 0,-30.63752 23.31836,-53.92235 54,-53.92235 14.52305,0 25.55895,4.23201 35.82774,13.7391 5.22491,4.83735 12.17226,13.8761 12.17226,15.83655 0,0.36435 -2.5875,0.65284 -5.75,0.6411 -5.56442,-0.0207 -5.84169,-0.15093 -8.5909,-4.03624 -3.61854,-5.11387 -12.12307,-11.55091 -18.42409,-13.94511 -15.18655,-5.77044 -32.74353,-2.2499 -44.57284,8.93777 -9.92435,9.38604 -14.21198,20.7636 -13.43349,35.64682 0.39533,7.55799 1.03219,10.37842 3.56621,15.79349 4.06178,8.67983 8.38745,13.91313 15.33478,18.55238 7.79244,5.20358 16.60838,7.47303 26.55966,6.83711 11.97383,-0.76517 18.33288,-3.66286 27.26728,-12.42515 7.39022,-7.24787 7.54994,-7.33972 12.76363,-7.33972 2.90387,0 5.27745,0.3375 5.27464,0.75 -0.0125,1.83354 -5.12248,8.91879 -9.94945,13.79548 -12.15621,12.28143 -31.19597,17.78015 -49.47701,14.28906 z"
         id="path4397" />
      <path
         style="display:inline;fill:#5b5b59;fill-opacity:1"
         d="m 314.64495,248.41601 c -18.4825,-4.47416 -33.80769,-19.2368 -39.13727,-37.70065 -1.94627,-6.74268 -2.21657,-20.8633 -0.5395,-28.18388 2.8125,-12.27685 12.0356,-25.35 22.70399,-32.18141 16.69761,-10.69217 39.94112,-11.53268 57.67621,-2.08564 7.38222,3.93232 16.3303,12.02918 19.4656,17.61385 L 377.12797,170 h -5.99877 c -5.92504,0 -6.06518,-0.0664 -11.40321,-5.40445 -22.00772,-22.00772 -57.86865,-15.87195 -70.98769,12.14592 -2.67018,5.70261 -3.22869,8.21819 -3.57478,16.10121 -0.50654,11.53737 1.49684,19.77457 6.80796,27.99189 4.51495,6.98552 9.42633,11.20962 17.92678,15.41819 11.26464,5.57712 27.88455,4.97998 40.49827,-1.45505 8.60798,-4.39147 17.37222,-15.09995 20.09081,-24.54771 L 371.13478,208 H 342.56739 314 v -4.5 -4.5 h 35.09384 35.09384 l -0.7143,5.19358 c -1.71035,12.43568 -7.12066,22.60458 -16.58209,31.16668 -13.65146,12.35386 -34.06915,17.456 -52.24634,13.05575 z"
         id="path4387" />
    </g>
  </g>
</svg>
