<?xml version="1.0" encoding="UTF-8" standalone="no"?>
<svg
   id="svg8"
   version="1.1"
   viewBox="0 0 67.733335 67.733331"
   height="256"
   width="256"
   xmlns="http://www.w3.org/2000/svg"
   xmlns:svg="http://www.w3.org/2000/svg"
   xmlns:rdf="http://www.w3.org/1999/02/22-rdf-syntax-ns#"
   xmlns:cc="http://creativecommons.org/ns#"
   xmlns:dc="http://purl.org/dc/elements/1.1/">
  <defs
     id="defs2">
    <clipPath
       clipPathUnits="userSpaceOnUse"
       id="clipPath849">
      <path
         d="M 0,595.276 H 841.89 V 0 H 0 Z"
         id="path847" />
    </clipPath>
    <pattern
       id="EMFhbasepattern"
       patternUnits="userSpaceOnUse"
       width="6"
       height="6"
       x="0"
       y="0" />
  </defs>
  <metadata
     id="metadata5">
    <rdf:RDF>
      <cc:Work
         rdf:about="">
        <dc:format>image/svg+xml</dc:format>
        <dc:type
           rdf:resource="http://purl.org/dc/dcmitype/StillImage" />
      </cc:Work>
    </rdf:RDF>
  </metadata>
  <g
     transform="translate(-32.588444,-14.780232)"
     id="layer1">
    <g
       id="g1252"
       style="display:inline">
      <g
         id="g1153"
         transform="matrix(0.34930302,0,0,0.34930302,29.148126,18.491673)"
         style="display:inline;stroke:none;stroke-opacity:1;fill:#cccccc;fill-opacity:1">
        <path
           id="path1065"
           d="M 35.211224,109.18155 C 20.007851,109.17663 9.8490922,98.868608 9.8490922,86.370392 v 0 C 9.8490922,73.87217 20.031027,63.4459 35.188048,63.477928 H 178.4201 c 15.15702,-0.03204 25.33895,10.394242 25.33895,22.892464 v 0 c 0,12.498216 -10.15875,22.806238 -25.36213,22.811158 z m 0.04636,-40.081516 C 23.22158,69.122201 15.833626,76.818726 15.833626,86.340827 v 0 c 0,9.519639 7.341602,17.280223 19.423958,17.238333 H 178.35057 c 12.08235,0.0394 19.42653,-7.718694 19.42653,-17.238333 v 0 c 0,-9.519638 -7.38796,-17.216158 -19.42396,-17.238329 z"
           class="logo"
           style="display:inline;fill:#cccccc;fill-opacity:1;stroke:none;stroke-width:0.0251878;stroke-opacity:1" />
        <g
           transform="translate(0,33.072917)"
           id="g1122"
           style="display:inline;fill:#cccccc;fill-opacity:1;stroke:none;stroke-opacity:1">
          <polygon
             style="fill:#cccccc;fill-opacity:1;stroke:none;stroke-opacity:1"
             class="logo"
             points="747,489.4 1019.1,489.4 1395.5,1098.4 1395.3,489.4 1665.3,489.4 1665.3,1362.7 1395.7,1362.7 1017.3,753.7 1017.3,1362.7 746.9,1362.7 "
             id="polygon1045"
             transform="matrix(0.02615847,0,0,0.02615847,6.7805443,29.271087)" />
          <polygon
             style="fill:#cccccc;fill-opacity:1;stroke:none;stroke-opacity:1"
             class="logo"
             points="3538.1,783.1 3395.9,783.1 3396.1,1362.7 3133.1,1362.7 3133.2,783.1 2990.4,783.1 2990.4,696.9 3133.3,696.8 3133.1,579.2 3395.9,579.2 3395.9,696.7 3538.1,696.7 "
             id="polygon1047"
             transform="matrix(0.02615847,0,0,0.02615847,6.7805443,29.271087)" />
          <polygon
             style="fill:#cccccc;fill-opacity:1;stroke:none;stroke-opacity:1"
             class="logo"
             points="1815.6,781.9 2078.2,782 2078.2,1362.7 1815.6,1362.7 "
             id="polygon1049"
             transform="matrix(0.02615847,0,0,0.02615847,6.7805443,29.271087)" />
          <polygon
             style="fill:#cccccc;fill-opacity:1;stroke:none;stroke-opacity:1"
             class="logo"
             points="1815,489.2 2078.2,489.2 2078.2,667.7 1815,667.7 "
             id="polygon1051"
             transform="matrix(0.02615847,0,0,0.02615847,6.7805443,29.271087)" />
          <path
             style="fill:#cccccc;fill-opacity:1;stroke:none;stroke-width:0.0261585;stroke-opacity:1"
             class="logo"
             d="m 177.41747,57.200485 c 0,0 -0.003,2.296714 -0.003,3.217492 0,2.422275 -1.43087,3.421528 -2.80681,3.421528 -1.37855,0 -2.81465,-0.999253 -2.81465,-3.421528 0,-0.920778 0.003,-3.27504 0.003,-3.27504 0,0 0.005,-2.247013 0.005,-3.167791 0,-2.411811 1.43871,-3.403217 2.8068,-3.403217 1.37071,0 2.80681,0.991406 2.80681,3.403217 0,0.920778 -0.003,2.623695 0.005,3.233187 z m -2.75972,-8.511966 c -5.54559,0 -10.03962,3.819137 -10.03962,8.530277 0,4.711141 4.49664,8.530277 10.03962,8.530277 5.5456,0 10.03962,-3.819136 10.03962,-8.530277 0,-4.71114 -4.49402,-8.530277 -10.03962,-8.530277 z"
             id="path1053" />
          <path
             style="fill:#cccccc;fill-opacity:1;stroke:none;stroke-width:0.0261585;stroke-opacity:1"
             class="logo"
             d="m 155.60131,42.073042 h 6.78027 v 22.844192 h -6.79074 c 0,0 -0.003,-0.737669 -0.003,-0.878925 -2.62893,1.6506 -5.5953,1.647984 -7.90509,0.570255 -0.61996,-0.287743 -4.69806,-2.244397 -4.69806,-7.531023 0,-4.010094 3.78251,-8.389022 8.73431,-7.954791 1.62967,0.143871 2.78849,0.737669 3.88715,1.355009 -0.005,-3.515699 -0.005,-8.404717 -0.005,-8.404717 z m 0.0497,15.171913 c 0,0 0,-1.904337 0,-2.715249 0,-2.349031 -1.62183,-2.94806 -2.68909,-2.94806 -1.09343,0 -2.69432,0.599029 -2.69432,2.94806 0,0.779522 0.003,2.707401 0.003,2.707401 0,0 -0.003,1.893874 -0.003,2.70217 0,2.346415 1.60089,2.961139 2.6917,2.961139 1.06988,0 2.69433,-0.614724 2.69433,-2.961139 0,-0.975711 -0.003,-2.694322 -0.003,-2.694322 z"
             id="path1055" />
          <path
             style="fill:#cccccc;fill-opacity:1;stroke:none;stroke-width:0.0261585;stroke-opacity:1"
             class="logo"
             d="m 77.225304,49.023348 c 2.568762,-0.07324 7.779529,1.608746 7.742908,7.622578 -0.0052,1.067265 -0.0026,8.266076 -0.0026,8.266076 h -6.824745 c 0,0 0,-9.027288 0,-9.97684 0,-1.323619 -1.26607,-2.796341 -3.139017,-2.796341 -1.87033,0 -3.261961,1.472722 -3.261961,2.796341 0,0.64873 0.0078,9.97684 0.0078,9.97684 h -6.819513 l -0.0026,-15.190223 6.824745,-0.0052 c 0,0 -0.0078,1.221601 0,1.598283 1.313155,-1.252991 3.204412,-2.226086 5.474967,-2.291482 z"
             id="path1057" />
          <path
             style="fill:#cccccc;fill-opacity:1;stroke:none;stroke-width:0.0261585;stroke-opacity:1"
             class="logo"
             d="m 133.05271,49.023348 c 2.56876,-0.07324 7.77953,1.608746 7.7429,7.622578 -0.005,1.067265 -0.003,8.266076 -0.003,8.266076 h -6.82475 c 0,0 0,-9.027288 0,-9.97684 0,-1.323619 -1.26607,-2.796341 -3.13901,-2.796341 -1.87033,0 -3.26196,1.472722 -3.26196,2.796341 0,0.64873 0.008,9.97684 0.008,9.97684 h -6.81951 l 0.005,-15.190223 6.8169,-0.0052 c 0,0 -0.008,1.221601 0,1.598283 1.31315,-1.252991 3.20703,-2.226086 5.47497,-2.291482 z"
             id="path1059" />
          <path
             style="fill:#cccccc;fill-opacity:1;stroke:none;stroke-width:0.0261585;stroke-opacity:1"
             class="logo"
             d="m 105.73019,55.021485 c -0.0105,-1.331466 0.0183,-2.220854 0.45515,-2.97945 0.53625,-0.936473 1.52243,-1.381167 2.41705,-1.386399 h -0.003 c 0.89462,0.0052 1.88079,0.449926 2.41704,1.386399 0.43685,0.761212 0.45516,1.6506 0.4447,2.982066 z m 5.70777,4.580348 c 0,0 0.005,0.06801 0.005,0.920778 0,2.77803 -1.82848,3.39537 -2.84343,3.39537 -1.01495,0 -2.87482,-0.61734 -2.87482,-3.39537 0,-0.831839 0.005,-3.1364 0.005,-3.1364 0,0 12.94059,0.0052 12.94059,-0.0026 0,-4.711141 -4.54896,-8.613984 -10.13641,-8.613984 -5.58745,0 -10.115473,3.819136 -10.115473,8.530277 0,4.71114 4.528023,8.527661 10.115473,8.527661 4.63528,0 8.55121,-2.644621 9.74665,-6.230948 z"
             id="path1061" />
        </g>
      </g>
    </g>
  </g>
  <style
     type="text/css"
     id="style1043">.logo{fill:#939598}</style>
</svg>
