<?xml version="1.0" encoding="UTF-8" standalone="no"?>
<svg
   width="256"
   height="256"
   viewBox="0 -0.002 332.80026 332.79931"
   xml:space="preserve"
   version="1.1"
   id="svg269"
   xmlns="http://www.w3.org/2000/svg"
   xmlns:svg="http://www.w3.org/2000/svg"><defs
   id="defs273"><linearGradient
     id="White"><stop
       style="stop-color:#ffffff;stop-opacity:1;"
       offset="0"
       id="stop6193" /></linearGradient><linearGradient
     id="Silver"><stop
       style="stop-color:#cccccc;stop-opacity:1;"
       offset="0"
       id="stop4735" /></linearGradient><linearGradient
     id="Boulder"><stop
       style="stop-color:#777777;stop-opacity:1;"
       offset="0"
       id="stop4003" /></linearGradient><linearGradient
     id="Mineshaft"><stop
       style="stop-color:#333333;stop-opacity:1;"
       offset="0"
       id="stop3271" /></linearGradient><linearGradient
     id="Black"><stop
       style="stop-color:#000000;stop-opacity:1;"
       offset="0"
       id="stop1813" /></linearGradient></defs>
    
    
    
    
    
    <g
   id="g471"
   transform="matrix(1.1048265,0,0,1.1048265,-139.86109,81.08086)"><g
     fill="#ff0000"
     id="g267"
     style="fill:#ff0000;font-variation-settings:normal;opacity:1;vector-effect:none;fill-opacity:1;stroke-width:2.3437501;stroke-linecap:butt;stroke-linejoin:miter;stroke-miterlimit:4;stroke-dasharray:none;stroke-dashoffset:0;stroke-opacity:1;-inkscape-stroke:none;stop-color:#000000;stop-opacity:1"
     transform="matrix(0.56869589,0,0,0.56869589,126.591,43.722973)">
        <path
   d="M 86.576,172.835 H 55.698 v -3.498 c 1.118,-0.029 2.554,-0.146 4.31,-0.347 1.758,-0.194 2.963,-0.472 3.621,-0.838 1.019,-0.62 1.767,-1.333 2.241,-2.142 0.477,-0.805 0.713,-1.813 0.713,-3.029 v -50.82 H 65.845 L 42.009,171.7 H 39.548 L 16.844,110.93 h -0.64 v 41.711 c 0,4.036 0.255,7.108 0.763,9.208 0.51,2.102 1.289,3.611 2.341,4.527 0.723,0.688 2.214,1.352 4.479,1.976 2.265,0.624 3.744,0.953 4.433,0.981 v 3.496 H 0 v -3.496 a 36.023,36.023 0 0 0 4.653,-0.735 c 1.625,-0.36 2.88,-0.9 3.768,-1.625 1.15,-0.915 1.938,-2.33 2.364,-4.236 0.429,-1.899 0.64,-5.088 0.64,-9.554 v -35.756 c 0,-2.067 -0.245,-3.757 -0.738,-5.069 -0.491,-1.312 -1.198,-2.379 -2.117,-3.2 -1.018,-0.888 -2.265,-1.543 -3.743,-1.973 a 19.225,19.225 0 0 0 -4.382,-0.738 v -3.495 h 23.836 l 19.993,52.4 17.091,-43.832 a 42.958,42.958 0 0 0 1.601,-5.048 c 0.443,-1.757 0.683,-2.932 0.714,-3.52 h 22.801 v 3.495 c -0.919,0.034 -2.094,0.183 -3.521,0.444 -1.428,0.266 -2.471,0.512 -3.127,0.737 -1.115,0.393 -1.872,1.055 -2.267,1.972 -0.395,0.92 -0.591,1.92 -0.591,3.003 v 50.38 c 0,1.15 0.196,2.116 0.591,2.905 0.395,0.785 1.149,1.48 2.267,2.064 0.592,0.334 1.643,0.637 3.153,0.914 1.509,0.275 2.708,0.437 3.594,0.465 v 3.5 h -0.004 z"
   id="path245"
   style="fill:#ff0000;font-variation-settings:normal;vector-effect:none;fill-opacity:1;stroke-width:2.3437501;stroke-linecap:butt;stroke-linejoin:miter;stroke-miterlimit:4;stroke-dasharray:none;stroke-dashoffset:0;stroke-opacity:1;-inkscape-stroke:none;stop-color:#000000;stop-opacity:1" />
        <path
   d="m 130.284,171.946 a 69.818,69.818 0 0 1 -4.062,1.356 c -1.167,0.345 -2.487,0.516 -3.965,0.516 -2.563,0 -4.604,-0.596 -6.132,-1.796 -1.526,-1.197 -2.503,-2.943 -2.93,-5.244 h -0.296 c -2.134,2.361 -4.424,4.172 -6.871,5.416 -2.446,1.252 -5.393,1.871 -8.84,1.871 -3.645,0 -6.64,-1.109 -8.987,-3.35 -2.348,-2.229 -3.52,-5.15 -3.52,-8.765 0,-1.872 0.262,-3.549 0.788,-5.024 a 12.014,12.014 0 0 1 2.363,-3.988 c 0.822,-0.98 1.905,-1.857 3.25,-2.634 1.348,-0.769 2.61,-1.382 3.792,-1.847 1.48,-0.557 4.475,-1.593 8.988,-3.104 4.515,-1.505 7.559,-2.687 9.135,-3.544 v -4.874 c 0,-0.427 -0.089,-1.248 -0.271,-2.462 a 10.34,10.34 0 0 0 -1.158,-3.449 c -0.657,-1.21 -1.583,-2.27 -2.783,-3.175 -1.197,-0.9 -2.896,-1.354 -5.096,-1.354 -1.512,0 -2.914,0.255 -4.211,0.762 -1.297,0.514 -2.208,1.044 -2.732,1.602 0,0.66 0.156,1.625 0.468,2.905 0.313,1.278 0.468,2.462 0.468,3.545 0,1.15 -0.518,2.2 -1.553,3.15 -1.033,0.96 -2.47,1.428 -4.308,1.428 -1.641,0 -2.848,-0.578 -3.621,-1.747 -0.77,-1.16 -1.156,-2.468 -1.156,-3.915 0,-1.509 0.533,-2.955 1.601,-4.335 1.067,-1.378 2.454,-2.608 4.163,-3.69 1.478,-0.916 3.267,-1.702 5.367,-2.34 2.103,-0.643 4.153,-0.962 6.156,-0.962 2.758,0 5.161,0.19 7.215,0.565 a 13.287,13.287 0 0 1 5.59,2.44 c 1.673,1.216 2.946,2.865 3.816,4.947 0.87,2.088 1.305,4.77 1.305,8.053 0,4.695 -0.051,8.857 -0.147,12.482 -0.1,3.63 -0.146,7.595 -0.146,11.896 0,1.28 0.221,2.3 0.664,3.056 0.443,0.758 1.125,1.396 2.045,1.918 0.492,0.298 1.271,0.461 2.34,0.492 1.066,0.034 2.157,0.053 3.273,0.053 v 3.146 z m -17.186,-26.003 c -2.792,0.823 -5.236,1.623 -7.338,2.413 a 29.434,29.434 0 0 0 -5.859,2.955 c -1.643,1.117 -2.939,2.438 -3.893,3.962 -0.949,1.526 -1.428,3.347 -1.428,5.442 0,2.73 0.714,4.728 2.143,6.01 1.429,1.277 3.24,1.92 5.441,1.92 2.331,0 4.383,-0.568 6.156,-1.7 1.772,-1.134 3.268,-2.466 4.481,-4.015 z"
   id="path247"
   style="fill:#ff0000;font-variation-settings:normal;vector-effect:none;fill-opacity:1;stroke-width:2.3437501;stroke-linecap:butt;stroke-linejoin:miter;stroke-miterlimit:4;stroke-dasharray:none;stroke-dashoffset:0;stroke-opacity:1;-inkscape-stroke:none;stop-color:#000000;stop-opacity:1" />
        <path
   d="m 156.707,149.047 c 1.346,1.182 2.381,2.546 3.104,4.084 0.723,1.547 1.083,3.435 1.083,5.664 0,4.502 -1.685,8.177 -5.046,11.033 -3.366,2.854 -7.727,4.285 -13.076,4.285 -2.825,0 -5.427,-0.512 -7.807,-1.529 -2.382,-1.017 -4.081,-1.95 -5.098,-2.807 l -0.984,3.202 h -3.693 l -0.492,-16.896 h 3.397 c 0.263,1.28 0.82,2.778 1.674,4.48 a 21.511,21.511 0 0 0 3.104,4.628 c 1.28,1.448 2.814,2.66 4.604,3.646 1.789,0.982 3.801,1.48 6.033,1.48 3.151,0 5.582,-0.715 7.29,-2.146 1.706,-1.426 2.562,-3.47 2.562,-6.133 0,-1.379 -0.27,-2.563 -0.813,-3.566 -0.542,-1 -1.339,-1.876 -2.389,-2.637 -1.083,-0.756 -2.413,-1.433 -3.989,-2.043 a 79.25,79.25 0 0 0 -5.27,-1.799 c -1.545,-0.459 -3.259,-1.088 -5.146,-1.896 -1.889,-0.806 -3.505,-1.752 -4.852,-2.833 -1.444,-1.146 -2.626,-2.563 -3.546,-4.235 -0.919,-1.673 -1.38,-3.644 -1.38,-5.909 0,-3.973 1.479,-7.336 4.433,-10.097 2.956,-2.758 6.912,-4.138 11.87,-4.138 1.901,0 3.849,0.246 5.836,0.735 1.984,0.497 3.602,1.085 4.851,1.773 l 1.133,-2.56 h 3.545 l 0.738,15.608 h -3.397 c -0.689,-3.479 -2.176,-6.309 -4.458,-8.496 -2.283,-2.18 -5.065,-3.273 -8.35,-3.273 -2.69,0 -4.811,0.676 -6.353,2.021 -1.543,1.351 -2.314,2.975 -2.314,4.876 0,1.48 0.253,2.71 0.763,3.693 0.51,0.986 1.271,1.82 2.291,2.513 0.983,0.66 2.223,1.275 3.718,1.847 1.494,0.574 3.34,1.228 5.542,1.945 a 48.007,48.007 0 0 1 6.131,2.412 c 1.92,0.934 3.502,1.955 4.751,3.068 z"
   id="path249"
   style="fill:#ff0000;font-variation-settings:normal;vector-effect:none;fill-opacity:1;stroke-width:2.3437501;stroke-linecap:butt;stroke-linejoin:miter;stroke-miterlimit:4;stroke-dasharray:none;stroke-dashoffset:0;stroke-opacity:1;-inkscape-stroke:none;stop-color:#000000;stop-opacity:1" />
        <path
   d="m 187.71,170.713 a 74.507,74.507 0 0 1 -6.058,2.242 c -1.904,0.61 -4.236,0.91 -6.993,0.91 -4.072,0 -6.937,-1.02 -8.594,-3.076 -1.659,-2.05 -2.488,-4.95 -2.488,-8.69 v -32.896 h -8.767 v -4.73 h 8.964 v -15.118 h 8.963 v 15.118 h 13.937 v 4.73 h -13.838 v 27.133 c 0,2.04 0.073,3.738 0.222,5.101 0.147,1.362 0.5,2.558 1.058,3.57 0.525,0.952 1.314,1.675 2.364,2.165 1.05,0.492 2.462,0.738 4.234,0.738 0.82,0 2.026,-0.074 3.621,-0.226 1.593,-0.146 2.716,-0.332 3.374,-0.565 z"
   id="path251"
   style="fill:#ff0000;font-variation-settings:normal;vector-effect:none;fill-opacity:1;stroke-width:2.3437501;stroke-linecap:butt;stroke-linejoin:miter;stroke-miterlimit:4;stroke-dasharray:none;stroke-dashoffset:0;stroke-opacity:1;-inkscape-stroke:none;stop-color:#000000;stop-opacity:1" />
        <path
   d="m 225.261,161.41 c -2.035,3.874 -4.76,6.96 -8.175,9.257 -3.414,2.3 -7.338,3.444 -11.77,3.444 -3.906,0 -7.329,-0.688 -10.27,-2.067 -2.937,-1.377 -5.358,-3.252 -7.264,-5.613 -1.903,-2.362 -3.324,-5.119 -4.26,-8.27 -0.937,-3.155 -1.403,-6.48 -1.403,-9.997 a 29.5,29.5 0 0 1 1.502,-9.285 c 1.002,-3.032 2.471,-5.768 4.408,-8.198 1.872,-2.327 4.194,-4.209 6.968,-5.64 2.775,-1.429 5.887,-2.142 9.334,-2.142 3.545,0 6.582,0.562 9.109,1.674 2.529,1.118 4.58,2.644 6.156,4.578 1.511,1.844 2.635,4.012 3.374,6.504 0.737,2.494 1.108,5.205 1.108,8.123 v 3.251 h -32.157 c 0,3.188 0.303,6.076 0.909,8.67 0.609,2.595 1.568,4.875 2.882,6.847 1.278,1.905 2.953,3.406 5.022,4.506 2.067,1.104 4.53,1.646 7.387,1.646 2.922,0 5.441,-0.68 7.559,-2.047 2.12,-1.354 4.163,-3.813 6.132,-7.357 z m -10.884,-18.518 c 0,-1.839 -0.155,-3.808 -0.467,-5.909 -0.313,-2.102 -0.813,-3.857 -1.502,-5.27 a 10.066,10.066 0 0 0 -3.104,-3.694 c -1.312,-0.949 -3.005,-1.427 -5.071,-1.427 -3.449,0 -6.313,1.436 -8.595,4.311 -2.28,2.873 -3.52,6.868 -3.717,11.988 z"
   id="path253"
   style="fill:#ff0000;font-variation-settings:normal;vector-effect:none;fill-opacity:1;stroke-width:2.3437501;stroke-linecap:butt;stroke-linejoin:miter;stroke-miterlimit:4;stroke-dasharray:none;stroke-dashoffset:0;stroke-opacity:1;-inkscape-stroke:none;stop-color:#000000;stop-opacity:1" />
        <path
   d="m 257.691,130.53 c 0,1.672 -0.411,3.16 -1.23,4.456 -0.82,1.3 -2.083,1.944 -3.79,1.944 -1.841,0 -3.243,-0.477 -4.214,-1.43 -0.967,-0.949 -1.452,-2 -1.452,-3.149 0,-0.723 0.057,-1.379 0.172,-1.97 0.114,-0.595 0.221,-1.186 0.319,-1.774 -1.542,0 -3.35,0.623 -5.417,1.871 -2.068,1.25 -3.824,3.021 -5.271,5.317 v 28.268 c 0,1.154 0.224,2.088 0.666,2.811 0.442,0.725 1.141,1.265 2.092,1.625 0.822,0.33 1.881,0.574 3.176,0.734 1.299,0.17 2.422,0.281 3.376,0.348 v 3.25 h -25.61 v -3.25 c 0.756,-0.065 1.536,-0.127 2.339,-0.195 0.805,-0.063 1.502,-0.194 2.094,-0.397 0.918,-0.295 1.601,-0.812 2.043,-1.549 0.443,-0.738 0.664,-1.699 0.664,-2.879 V 134.57 c 0,-1.017 -0.238,-2.02 -0.713,-3.004 a 5.985,5.985 0 0 0 -1.996,-2.364 c -0.622,-0.396 -1.359,-0.678 -2.215,-0.862 -0.854,-0.177 -1.773,-0.3 -2.758,-0.367 v -3.202 l 16.152,-1.084 0.689,0.69 v 6.845 h 0.246 c 2.038,-2.66 4.304,-4.679 6.797,-6.057 2.496,-1.38 4.777,-2.069 6.845,-2.069 2.069,0 3.752,0.675 5.049,2.021 1.3,1.344 1.947,3.148 1.947,5.413 z m 52.452,10.244 c 1.476,1.646 2.565,3.441 3.271,5.395 0.709,1.955 1.063,4.23 1.063,6.82 0,6.176 -2.286,11.266 -6.848,15.268 -4.563,4.008 -10.226,6.006 -16.989,6.006 -3.12,0 -6.236,-0.479 -9.356,-1.45 -3.119,-0.966 -5.812,-2.144 -8.077,-3.52 l -2.117,3.596 h -3.938 l -0.689,-23.935 h 3.988 c 0.821,2.953 1.782,5.625 2.882,8.002 1.102,2.385 2.554,4.604 4.359,6.674 a 19.73,19.73 0 0 0 5.981,4.63 c 2.283,1.15 4.934,1.722 7.951,1.722 2.267,0 4.242,-0.294 5.936,-0.886 1.691,-0.593 3.064,-1.433 4.112,-2.513 a 10.318,10.318 0 0 0 2.34,-3.815 c 0.511,-1.458 0.765,-3.144 0.765,-5.05 0,-2.784 -0.787,-5.392 -2.361,-7.807 -1.575,-2.414 -3.922,-4.242 -7.045,-5.49 a 358.434,358.434 0 0 0 -7.338,-2.832 c -2.756,-1.033 -5.138,-2.01 -7.14,-2.933 -3.938,-1.77 -7.002,-4.094 -9.186,-6.968 -2.184,-2.87 -3.273,-6.626 -3.273,-11.256 0,-2.655 0.542,-5.135 1.624,-7.436 1.084,-2.296 2.625,-4.352 4.629,-6.156 1.904,-1.704 4.154,-3.045 6.747,-4.014 a 23.053,23.053 0 0 1 8.125,-1.452 c 3.218,0 6.099,0.49 8.644,1.48 2.543,0.981 4.869,2.135 6.967,3.442 l 2.021,-3.349 h 3.94 l 0.396,23.195 h -3.988 a 87.55,87.55 0 0 0 -2.438,-7.636 c -0.901,-2.427 -2.073,-4.629 -3.521,-6.598 a 16.207,16.207 0 0 0 -5.168,-4.559 c -2.037,-1.13 -4.533,-1.699 -7.485,-1.699 -3.117,0 -5.778,1.005 -7.979,3.003 -2.2,2.008 -3.3,4.452 -3.3,7.338 0,3.023 0.705,5.525 2.118,7.512 1.411,1.987 3.465,3.62 6.155,4.898 a 75.855,75.855 0 0 0 7.063,2.976 c 2.315,0.84 4.557,1.737 6.723,2.687 a 49.705,49.705 0 0 1 5.688,2.908 c 1.815,1.094 3.399,2.357 4.748,3.802 z"
   id="path255"
   style="fill:#ff0000;font-variation-settings:normal;vector-effect:none;fill-opacity:1;stroke-width:2.3437501;stroke-linecap:butt;stroke-linejoin:miter;stroke-miterlimit:4;stroke-dasharray:none;stroke-dashoffset:0;stroke-opacity:1;-inkscape-stroke:none;stop-color:#000000;stop-opacity:1" />
        <path
   d="m 307.755,188.692 c 0,-1.64 0.447,-2.979 1.354,-4.016 0.9,-1.035 2.023,-1.55 3.373,-1.55 1.049,0 1.951,0.191 2.709,0.591 a 7.819,7.819 0 0 1 2.02,1.524 c 0.492,0.49 1.021,1.167 1.576,2.02 a 55.53,55.53 0 0 1 1.328,2.118 c 1.645,-0.887 3.604,-3.203 5.889,-6.942 2.277,-3.745 3.936,-7.022 4.947,-9.853 a 2605.093,2605.093 0 0 0 -8.471,-20.88 3250.448,3250.448 0 0 0 -7.928,-19.062 c -0.623,-1.506 -1.676,-2.685 -3.152,-3.522 -1.477,-0.838 -2.955,-1.369 -4.434,-1.602 v -3.25 h 22.164 v 3.447 c -0.988,0.034 -2.168,0.241 -3.547,0.615 -1.379,0.38 -2.068,0.813 -2.068,1.305 0,0.196 0.073,0.527 0.223,0.985 0.147,0.461 0.317,0.938 0.519,1.427 1.247,3.251 3.147,7.941 5.712,14.062 2.564,6.128 4.548,11.023 5.958,14.702 1.479,-3.515 3.015,-7.147 4.604,-10.907 1.594,-3.76 3.379,-8.199 5.346,-13.322 0.23,-0.62 0.563,-1.48 0.982,-2.583 0.426,-1.1 0.643,-2.045 0.643,-2.832 0,-0.852 -0.744,-1.65 -2.24,-2.39 -1.496,-0.736 -2.913,-1.19 -4.262,-1.356 v -3.15 h 18.025 v 3.056 c -0.986,0.167 -2.287,0.731 -3.892,1.697 -1.61,0.972 -2.81,2.341 -3.597,4.112 -3.908,9.063 -7.385,17.32 -10.416,24.772 -3.039,7.454 -5.344,12.937 -6.918,16.446 -2.07,4.603 -3.916,8.185 -5.541,10.763 -1.625,2.58 -3.213,4.604 -4.754,6.08 -1.512,1.381 -2.881,2.311 -4.109,2.785 a 10.539,10.539 0 0 1 -3.813,0.714 c -2.563,0 -4.574,-0.606 -6.035,-1.819 -1.466,-1.21 -2.195,-2.61 -2.195,-4.185 z"
   id="path257"
   style="fill:#ff0000;font-variation-settings:normal;vector-effect:none;fill-opacity:1;stroke-width:2.3437501;stroke-linecap:butt;stroke-linejoin:miter;stroke-miterlimit:4;stroke-dasharray:none;stroke-dashoffset:0;stroke-opacity:1;-inkscape-stroke:none;stop-color:#000000;stop-opacity:1" />
        <path
   d="m 382.687,149.047 c 1.342,1.182 2.379,2.546 3.102,4.084 0.723,1.547 1.082,3.435 1.082,5.664 0,4.502 -1.684,8.177 -5.045,11.033 -3.369,2.854 -7.726,4.285 -13.078,4.285 -2.82,0 -5.428,-0.512 -7.803,-1.529 -2.384,-1.017 -4.082,-1.95 -5.1,-2.807 l -0.986,3.202 h -3.693 l -0.491,-16.896 h 3.397 c 0.26,1.28 0.817,2.778 1.676,4.48 a 21.438,21.438 0 0 0 3.104,4.628 c 1.278,1.448 2.812,2.66 4.604,3.646 1.787,0.982 3.798,1.48 6.031,1.48 3.15,0 5.582,-0.715 7.289,-2.146 1.703,-1.426 2.561,-3.47 2.561,-6.133 0,-1.379 -0.271,-2.563 -0.813,-3.566 -0.543,-1 -1.34,-1.876 -2.392,-2.637 -1.08,-0.756 -2.411,-1.433 -3.985,-2.043 a 79.328,79.328 0 0 0 -5.272,-1.799 c -1.546,-0.459 -3.261,-1.088 -5.146,-1.896 -1.892,-0.806 -3.504,-1.752 -4.851,-2.833 a 13.911,13.911 0 0 1 -3.548,-4.235 c -0.922,-1.673 -1.379,-3.644 -1.379,-5.909 0,-3.973 1.48,-7.336 4.436,-10.097 2.956,-2.758 6.906,-4.138 11.867,-4.138 1.902,0 3.852,0.246 5.834,0.735 1.984,0.497 3.605,1.085 4.854,1.773 l 1.135,-2.56 h 3.543 l 0.738,15.608 h -3.397 c -0.688,-3.479 -2.177,-6.309 -4.452,-8.496 -2.287,-2.18 -5.064,-3.273 -8.352,-3.273 -2.692,0 -4.813,0.676 -6.354,2.021 -1.544,1.351 -2.313,2.975 -2.313,4.876 0,1.48 0.252,2.71 0.763,3.693 0.51,0.986 1.272,1.82 2.29,2.513 0.986,0.66 2.229,1.275 3.722,1.847 1.488,0.574 3.339,1.228 5.539,1.945 a 47.935,47.935 0 0 1 6.134,2.412 c 1.914,0.934 3.499,1.955 4.749,3.068 z"
   id="path259"
   style="fill:#ff0000;font-variation-settings:normal;vector-effect:none;fill-opacity:1;stroke-width:2.3437501;stroke-linecap:butt;stroke-linejoin:miter;stroke-miterlimit:4;stroke-dasharray:none;stroke-dashoffset:0;stroke-opacity:1;-inkscape-stroke:none;stop-color:#000000;stop-opacity:1" />
        <path
   d="m 413.686,170.713 a 73.583,73.583 0 0 1 -6.06,2.242 c -1.901,0.61 -4.23,0.91 -6.989,0.91 -4.071,0 -6.937,-1.02 -8.595,-3.076 -1.658,-2.05 -2.487,-4.95 -2.487,-8.69 v -32.896 h -8.765 v -4.73 h 8.959 v -15.118 h 8.966 v 15.118 h 13.937 v 4.73 h -13.84 v 27.133 c 0,2.04 0.075,3.738 0.223,5.101 0.148,1.363 0.502,2.558 1.064,3.57 0.521,0.952 1.313,1.675 2.357,2.165 1.051,0.492 2.463,0.738 4.234,0.738 0.821,0 2.027,-0.074 3.62,-0.226 1.593,-0.146 2.718,-0.332 3.374,-0.565 z"
   id="path261"
   style="fill:#ff0000;font-variation-settings:normal;vector-effect:none;fill-opacity:1;stroke-width:2.3437501;stroke-linecap:butt;stroke-linejoin:miter;stroke-miterlimit:4;stroke-dasharray:none;stroke-dashoffset:0;stroke-opacity:1;-inkscape-stroke:none;stop-color:#000000;stop-opacity:1" />
        <path
   d="m 451.238,161.41 c -2.033,3.874 -4.76,6.96 -8.176,9.257 -3.414,2.3 -7.338,3.444 -11.771,3.444 -3.898,0 -7.326,-0.688 -10.266,-2.067 -2.938,-1.377 -5.357,-3.252 -7.268,-5.613 -1.9,-2.362 -3.324,-5.119 -4.26,-8.27 -0.938,-3.155 -1.401,-6.48 -1.401,-9.997 0,-3.15 0.504,-6.246 1.501,-9.285 1.001,-3.032 2.473,-5.768 4.408,-8.198 1.869,-2.327 4.193,-4.209 6.968,-5.64 2.772,-1.429 5.886,-2.142 9.329,-2.142 3.549,0 6.584,0.562 9.111,1.674 2.529,1.118 4.58,2.644 6.156,4.578 1.512,1.844 2.635,4.012 3.375,6.504 0.734,2.494 1.104,5.205 1.104,8.123 v 3.251 h -32.154 c 0,3.188 0.305,6.076 0.91,8.67 0.604,2.595 1.564,4.875 2.883,6.847 1.275,1.905 2.957,3.406 5.02,4.506 2.066,1.104 4.527,1.646 7.389,1.646 2.924,0 5.439,-0.68 7.561,-2.047 2.117,-1.354 4.162,-3.813 6.135,-7.357 z m -10.885,-18.518 c 0,-1.839 -0.154,-3.808 -0.467,-5.909 -0.309,-2.102 -0.813,-3.857 -1.502,-5.27 -0.752,-1.508 -1.785,-2.735 -3.102,-3.694 -1.316,-0.949 -3.006,-1.427 -5.074,-1.427 -3.445,0 -6.313,1.436 -8.594,4.311 -2.279,2.873 -3.521,6.868 -3.718,11.988 z"
   id="path263"
   style="fill:#ff0000;font-variation-settings:normal;vector-effect:none;fill-opacity:1;stroke-width:2.3437501;stroke-linecap:butt;stroke-linejoin:miter;stroke-miterlimit:4;stroke-dasharray:none;stroke-dashoffset:0;stroke-opacity:1;-inkscape-stroke:none;stop-color:#000000;stop-opacity:1" />
        <path
   d="m 529.667,172.835 h -23.689 v -3.254 c 0.756,-0.063 1.52,-0.127 2.291,-0.193 0.77,-0.064 1.449,-0.196 2.041,-0.396 0.918,-0.297 1.602,-0.813 2.045,-1.55 0.445,-0.737 0.666,-1.7 0.666,-2.88 v -25.068 c 0,-3.412 -0.781,-6.048 -2.342,-7.903 -1.561,-1.854 -3.502,-2.782 -5.832,-2.782 -1.609,0 -3.121,0.243 -4.531,0.736 a 14.162,14.162 0 0 0 -3.889,2.068 c -0.957,0.726 -1.752,1.501 -2.395,2.34 -0.639,0.837 -1.123,1.537 -1.453,2.091 v 28.021 c 0,1.154 0.199,2.096 0.594,2.834 0.396,0.736 1.064,1.307 2.02,1.7 a 16.07,16.07 0 0 0 2.045,0.664 c 0.605,0.146 1.402,0.256 2.387,0.32 v 3.25 h -23.189 v -3.25 c 0.756,-0.064 1.479,-0.13 2.188,-0.196 a 8.167,8.167 0 0 0 1.941,-0.398 c 0.922,-0.295 1.602,-0.813 2.045,-1.55 0.445,-0.737 0.67,-1.698 0.67,-2.882 v -25.066 c 0,-3.412 -0.783,-6.047 -2.346,-7.903 -1.557,-1.854 -3.504,-2.783 -5.83,-2.783 -1.609,0 -3.123,0.256 -4.533,0.766 a 15.02,15.02 0 0 0 -3.891,2.094 11.786,11.786 0 0 0 -2.412,2.437 c -0.656,0.908 -1.148,1.586 -1.48,2.044 v 27.825 c 0,1.117 0.232,2.055 0.691,2.807 0.459,0.76 1.146,1.331 2.063,1.727 0.689,0.33 1.398,0.572 2.117,0.735 0.729,0.167 1.527,0.281 2.414,0.347 v 3.252 H 446.48 v -3.252 l 2.344,-0.195 c 0.801,-0.06 1.496,-0.194 2.092,-0.396 0.918,-0.295 1.602,-0.813 2.041,-1.552 0.443,-0.735 0.664,-1.696 0.664,-2.88 v -30.188 c 0,-1.048 -0.232,-1.994 -0.713,-2.83 -0.477,-0.84 -1.141,-1.555 -1.992,-2.146 -0.625,-0.396 -1.395,-0.715 -2.313,-0.959 a 15.19,15.19 0 0 0 -2.857,-0.47 v -3.2 l 16.254,-1.083 0.688,0.688 v 6.943 h 0.346 c 0.82,-0.816 1.822,-1.79 3.004,-2.906 1.186,-1.11 2.283,-2.02 3.301,-2.707 1.148,-0.786 2.588,-1.44 4.314,-1.97 1.721,-0.522 3.586,-0.789 5.588,-0.789 3.15,0 5.857,0.847 8.125,2.535 2.27,1.693 3.895,3.737 4.875,6.133 l 3.129,-3.028 c 0.902,-0.868 2.094,-1.796 3.57,-2.782 1.25,-0.854 2.715,-1.543 4.408,-2.069 1.688,-0.52 3.566,-0.788 5.639,-0.788 4.104,0 7.354,1.352 9.754,4.037 2.393,2.694 3.592,6.834 3.592,12.415 v 24.671 c 0,1.151 0.195,2.092 0.596,2.832 0.395,0.735 1.064,1.31 2.02,1.698 0.756,0.296 1.5,0.518 2.238,0.667 0.74,0.145 1.566,0.254 2.488,0.317 v 3.252 h -0.006 v -0.002 z"
   id="path265"
   style="fill:#ff0000;font-variation-settings:normal;vector-effect:none;fill-opacity:1;stroke-width:2.3437501;stroke-linecap:butt;stroke-linejoin:miter;stroke-miterlimit:4;stroke-dasharray:none;stroke-dashoffset:0;stroke-opacity:1;-inkscape-stroke:none;stop-color:#000000;stop-opacity:1" />
    </g><g
     id="g451"
     style="fill:#17569b;fill-opacity:1;stroke:none;font-variation-settings:normal;opacity:1;vector-effect:none;stroke-width:1.33288105;stroke-linecap:butt;stroke-linejoin:miter;stroke-miterlimit:4;stroke-dasharray:none;stroke-dashoffset:0;stroke-opacity:1;-inkscape-stroke:none;stop-color:#000000;stop-opacity:1"><path
       fill="#17569b"
       d="m 126.595,91.361 h 39.796 c 16.265,0 29.5,-13.238 29.5,-29.5 0,-16.261 -13.235,-29.42 -29.5,-29.42 h -10.376 a 1.466,1.466 0 0 1 -1.474,-1.471 c 0,-0.898 0.654,-1.551 1.474,-1.551 h 39.716 l 0.082,-12.423 h -39.798 c -7.683,0 -13.894,6.212 -13.894,13.894 0,7.764 6.209,14.056 13.894,14.056 h 10.376 c 9.316,0 16.918,7.602 16.918,16.917 0,9.317 -7.602,16.834 -16.918,16.834 h -39.796 z"
       id="path235"
       style="fill:#17569b;fill-opacity:1;stroke:none;font-variation-settings:normal;vector-effect:none;stroke-width:1.33288105;stroke-linecap:butt;stroke-linejoin:miter;stroke-miterlimit:4;stroke-dasharray:none;stroke-dashoffset:0;stroke-opacity:1;-inkscape-stroke:none;stop-color:#000000;stop-opacity:1" /><path
       fill="#17569b"
       d="m 126.595,75.835 h 39.796 c 7.765,0 13.977,-6.292 13.977,-13.974 0,-7.682 -6.211,-13.974 -13.977,-13.974 h -10.376 c -9.315,0 -16.835,-7.682 -16.835,-16.998 0,-9.317 7.52,-16.834 16.835,-16.834 h 39.796 L 195.729,1.47 H 156.01 c -16.261,0 -29.418,13.156 -29.418,29.5 0,16.262 13.156,29.42 29.418,29.42 h 10.297 c 0.816,0 1.472,0.654 1.472,1.471 0,0.817 -0.655,1.471 -1.472,1.471 H 126.591 Z M 226.7,78.776 c -6.861,0 -12.5,-5.475 -12.5,-12.503 V 26.311 c 0,-6.7 5.64,-12.339 12.5,-12.339 h 42.496 V 1.47 H 226.7 c -13.81,0 -25.005,11.196 -25.005,25.007 v 39.796 c 0,13.812 11.194,25.008 25.005,25.008 h 42.333 V 78.778 Z"
       id="path237"
       style="fill:#17569b;fill-opacity:1;stroke:none;font-variation-settings:normal;vector-effect:none;stroke-width:1.33288105;stroke-linecap:butt;stroke-linejoin:miter;stroke-miterlimit:4;stroke-dasharray:none;stroke-dashoffset:0;stroke-opacity:1;-inkscape-stroke:none;stop-color:#000000;stop-opacity:1" /><path
       fill="#17569b"
       d="m 217.222,26.475 c 0,-5.23 4.249,-9.562 9.479,-9.562 h 42.495 v 12.504 h -36.61 c -2.943,0 -2.943,2.94 -2.943,2.94 h 30.563 v 12.504 h -42.984 z m 9.478,49.28 c -5.228,0 -9.478,-4.25 -9.478,-9.48 v -18.39 h 42.983 v 12.502 h -30.562 c 0,2.942 2.94,2.942 2.94,2.942 h 36.448 v 12.423 z m 72.324,3.021 c -6.946,0 -12.586,-5.64 -12.586,-12.503 V 26.477 c 0,-6.866 5.642,-12.505 12.506,-12.505 h 41.188 V 1.47 H 298.86 c -13.811,0 -25.005,11.196 -25.005,25.007 v 39.796 c 0,13.812 11.274,25.008 25.088,25.008 h 41.188 v -58.92 h -35.387 v 12.502 h 22.883 v 33.914 z"
       id="path239"
       style="fill:#17569b;fill-opacity:1;stroke:none;font-variation-settings:normal;vector-effect:none;stroke-width:1.33288105;stroke-linecap:butt;stroke-linejoin:miter;stroke-miterlimit:4;stroke-dasharray:none;stroke-dashoffset:0;stroke-opacity:1;-inkscape-stroke:none;stop-color:#000000;stop-opacity:1" /><path
       fill="#17569b"
       d="m 289.378,66.273 c 0,5.23 4.334,9.563 9.563,9.563 h 25.74 V 47.805 H 304.744 V 60.39 h 7.437 v 2.942 h -7.353 c -1.637,0 -2.943,-1.387 -2.943,-2.942 V 32.359 c 0,0 0,-2.943 2.943,-2.943 h 35.3 V 16.912 h -41.186 c -5.23,0 -9.563,4.332 -9.563,9.563 z m 89.405,-49.52 c 0.57,-1.634 2.043,-2.778 3.842,-2.778 1.797,0 3.27,1.146 3.844,2.778 l 19.938,59.166 H 377.236 V 62.025 h 9.808 L 382.63,48.866 368.245,91.28 h -14.71 z"
       id="path241"
       style="fill:#17569b;fill-opacity:1;stroke:none;font-variation-settings:normal;vector-effect:none;stroke-width:1.33288105;stroke-linecap:butt;stroke-linejoin:miter;stroke-miterlimit:4;stroke-dasharray:none;stroke-dashoffset:0;stroke-opacity:1;-inkscape-stroke:none;stop-color:#000000;stop-opacity:1" /><path
       fill="#17569b"
       d="M 410.492,78.776 H 377.23 v 12.503 h 50.585 L 401.502,13.237 c -2.291,-7.6 -9.891,-13.239 -18.881,-13.239 -8.986,0 -16.586,5.558 -18.877,13.239 l -26.563,78.042 h 13.24 L 376.16,15.362 c 1.063,-2.534 3.514,-4.25 6.455,-4.25 2.862,0 5.316,1.716 6.377,4.25 z"
       id="path243"
       style="fill:#17569b;fill-opacity:1;stroke:none;font-variation-settings:normal;vector-effect:none;stroke-width:1.33288105;stroke-linecap:butt;stroke-linejoin:miter;stroke-miterlimit:4;stroke-dasharray:none;stroke-dashoffset:0;stroke-opacity:1;-inkscape-stroke:none;stop-color:#000000;stop-opacity:1" /></g></g>
</svg>
