<?xml version="1.0" encoding="UTF-8" standalone="no"?>
<svg
   width="256"
   height="256"
   viewBox="0 0 191.99977 192.00028"
   version="1.1"
   id="svg3"
   xmlns="http://www.w3.org/2000/svg"
   xmlns:svg="http://www.w3.org/2000/svg">
  <defs
     id="defs7" />
  <g
     id="g1789"
     transform="matrix(0.14062483,0,0,0.14062483,-85.195436,-41.432181)">
    <path
       id="Selection"
       fill="none"
       stroke="black"
       stroke-width="0.609798"
       d="m 723.52246,743.44536 c 0,0 110.37337,0 110.37337,0 0,0 11.33005,40.85644 11.33005,40.85644 0,0 22.72715,81.10309 22.72715,81.10309 0,0 14.02535,50.00341 14.02535,50.00341 0,0 9.23844,31.09968 9.23844,31.09968 0,0 8.89085,-31.09968 8.89085,-31.09968 0,0 20.90386,-71.95613 20.90386,-71.95613 0,0 22.39177,-76.8345 22.39177,-76.8345 0,0 4.78081,-16.46454 4.78081,-16.46454 0.45125,-1.57938 1.18911,-5.15889 2.49408,-6.08578 1.07324,-0.76225 3.26851,-0.62199 4.56738,-0.62199 0,0 93.29903,0 93.29903,0 1.2745,0 3.4942,-0.14026 4.5369,0.62199 0.9879,0.73176 1.4025,2.51237 1.7379,3.64659 0,0 2.6161,9.14696 2.6161,9.14696 0,0 12.5374,44.51523 12.5374,44.51523 0,0 53.8329,190.86668 53.8329,190.86668 0,0 20.3002,71.95609 20.3002,71.95609 0,0 4.5186,15.8548 4.5186,15.8548 0.561,2.1343 1.0854,5.4759 3.11,6.6955 1.5672,0.9391 7.5371,0.6342 9.6226,0.622 0,0 9.7567,-0.6098 9.7567,-0.6098 0,0 212.8194,0 212.8194,0 3.2076,-0.01 6.1407,-0.1402 9.147,-1.4391 15.5315,-6.7017 17.2573,-32.2888 6.5248,-44.2713 -5.2259,-5.8358 -12.5435,-6.72 -19.9403,-6.7322 0,0 -34.1487,0 -34.1487,0 0,0 -10.3666,-0.6098 -10.3666,-0.6098 0,0 -36.5878,0 -36.5878,0 0,0 -9.147,-0.6098 -9.147,-0.6098 0,0 -37.8075,0 -37.8075,0 0,0 -8.5371,-0.6098 -8.5371,-0.6098 -7.8908,-0.037 -15.6413,-1.6159 -23.1723,-3.921 -11.6472,-3.5673 -23.1906,-9.9518 -32.9291,-17.1962 -40.0332,-29.78866 -58.1625,-77.11505 -57.9308,-125.84399 0,0 0.5549,-6.70777 0.5549,-6.70777 0,0 0.8354,-11.58616 0.8354,-11.58616 3.6649,-28.64829 17.9342,-56.41848 38.3014,-76.77962 25.6237,-25.6237 60.4798,-40.83815 96.2932,-44.66768 0,0 14.0253,-1.12203 14.0253,-1.12203 0,0 283.556,0 283.556,0 0,0 9.1469,-0.6098 9.1469,-0.6098 0,0 60.37,0 60.37,0 1.1281,0 3.0734,-0.0854 4.0856,0.34759 2.0185,0.85981 5.3784,6.23213 6.8176,8.18958 0,0 15.2449,20.73312 15.2449,20.73312 0,0 45.2714,61.58957 45.2714,61.58957 0,0 15.2449,20.73312 15.2449,20.73312 0,0 7.8542,10.36656 7.8542,10.36656 0,0 22.1296,-31.70948 22.1296,-31.70948 0,0 44.1615,-62.19936 44.1615,-62.19936 0,0 14.7266,-20.73313 14.7266,-20.73313 5.4638,-7.62856 4.7138,-7.91517 10.452,-7.92736 0,0 66.4679,0 66.4679,0 0,0 9.147,0.60979 9.147,0.60979 0,0 64.6385,0 64.6385,0 0,0 -12.1959,18.29393 -12.1959,18.29393 0,0 -24.7456,34.75847 -24.7456,34.75847 0,0 -60.2724,84.76188 -60.2724,84.76188 0,0 -21.2941,29.88008 -21.2941,29.88008 0,0 -29.063,40.85645 -29.063,40.85645 0,0 -7.4029,10.36656 -7.4029,10.36656 0,0 -2.8417,5.48818 -2.8417,5.48818 0,0 3.4515,6.09797 3.4515,6.09797 0,0 8.2688,11.58616 8.2688,11.58616 0,0 32.4169,45.73477 32.4169,45.73477 0,0 86.4937,121.9596 86.4937,121.9596 0,0 26.8311,37.8074 26.8311,37.8074 0,0 13.1594,19.5136 13.1594,19.5136 0,0 -117.0812,0 -117.0812,0 0,0 -10.3665,-0.6098 -10.3665,-0.6098 0,0 -11.5862,0 -11.5862,0 -1.2257,0 -3.1221,0.073 -4.2442,-0.3659 -2.3111,-0.8903 -5.9516,-6.5919 -7.5188,-8.7811 0,0 -18.8183,-26.2213 -18.8183,-26.2213 0,0 -52.2597,-72.5659 -52.2597,-72.5659 0,0 -22.654,-31.0997 -22.654,-31.0997 0,0 -23.1601,34.1487 -23.1601,34.1487 0,0 -49.2046,71.9561 -49.2046,71.9561 0,0 -16.6779,24.3919 -16.6779,24.3919 -4.8174,6.9822 -4.6345,8.525 -10.9642,8.5372 0,0 -142.0828,0 -142.0828,0 1.6403,-3.8722 11.33,-17.0378 14.379,-21.343 0,0 26.0383,-37.1976 26.0383,-37.1976 0,0 83.5789,-119.5204 83.5789,-119.5204 0,0 31.5144,-45.12498 31.5144,-45.12498 0,0 8.1225,-11.58615 8.1225,-11.58615 0.7439,-1.07934 3.0611,-3.98808 3.1343,-5.1345 0.098,-1.46961 -2.055,-4.01856 -2.9026,-5.23206 0,0 -7.5493,-10.97636 -7.5493,-10.97636 0,0 -29.6789,-43.29563 -29.6789,-43.29563 0,0 -24.7882,-35.97807 -24.7882,-35.97807 -1.6892,-2.45138 -6.2749,-10.22021 -8.6592,-11.22027 -1.0549,-0.43906 -2.9941,-0.36588 -4.1588,-0.36588 0,0 -139.6437,0 -139.6437,0 0,0 -79.2737,0 -79.2737,0 0,0 -9.1469,0.60979 -9.1469,0.60979 0,0 -71.9561,0 -71.9561,0 -4.1528,0.006 -7.8116,0.54882 -11.5862,2.4331 -18.3976,9.20184 -18.0805,38.67946 0.6098,47.37518 3.7259,1.73182 6.3419,2.01843 10.3666,2.04892 0,0 8.5371,0 8.5371,0 0,0 7.3176,0.5854 7.3176,0.5854 0,0 29.2703,0 29.2703,0 0,0 10.3665,0.6098 10.3665,0.6098 0,0 30.4899,0 30.4899,0 0,0 9.147,0.6098 9.147,0.6098 0,0 29.2703,0 29.2703,0 0,0 10.3665,0.6098 10.3665,0.6098 11.0618,0.13415 26.4226,5.15279 36.5879,9.50065 34.9231,14.94004 64.4129,46.52146 77.798,81.96896 4.6406,12.2997 8.775,30.7826 8.7933,43.9055 0,0 0,17.0743 0,17.0743 -0.012,7.6103 -1.744,19.3184 -3.4027,26.8311 -9.5677,43.381 -38.0453,78.4993 -77.7004,98.3299 -14.0802,7.037 -32.2522,13.8485 -48.174,13.8729 0,0 -115.8616,0 -115.8616,0 0,0 -53.0524,0 -53.0524,0 0,0 -9.147,0.6098 -9.147,0.6098 0,0 -160.3767,0 -160.3767,0 -1.2989,0 -3.4942,0.1402 -4.5674,-0.622 -1.5428,-1.0977 -3.1039,-8.7872 -3.7137,-10.9642 0,0 -10.086,-37.8074 -10.086,-37.8074 0,0 -28.6605,-107.3244 -28.6605,-107.3244 0,0 -9.4275,-35.3683 -9.4275,-35.3683 -1.2806,-4.6223 -3.2624,-13.8241 -5.1345,-17.6841 0,0 -4.95156,18.9037 -4.95156,18.9037 0,0 -8.98232,33.5389 -8.98232,33.5389 0,0 -17.86707,67.0777 -17.86707,67.0777 0,0 -10.96417,40.8565 -10.96417,40.8565 0,0 -9.9336,37.1976 -9.9336,37.1976 -0.6098,2.177 -2.17088,9.8665 -3.71367,10.9642 -1.07324,0.7622 -3.26851,0.622 -4.56738,0.622 0,0 -101.22642,0 -101.22642,0 0,0 -3.40267,-12.196 -3.40267,-12.196 0,0 -9.75676,-34.7585 -9.75676,-34.7585 0,0 -23.60527,-84.152 -23.60527,-84.152 0,0 -14.37293,-51.223 -14.37293,-51.223 0,0 -7.40294,-25.6115 -7.40294,-25.6115 0,0 -9.98239,40.2466 -9.98239,40.2466 0,0 -20.12332,81.7129 -20.12332,81.7129 0,0 -13.72045,55.4916 -13.72045,55.4916 0,0 -7.39685,31.0997 -7.39685,31.0997 0,0 -11.58615,0 -11.58615,0 0,0 -9.75677,-0.6098 -9.75677,-0.6098 0,0 -90.25005,0 -90.25005,0 0,0 -9.14697,-0.6098 -9.14697,-0.6098 0,0 -3.04899,0 -3.04899,0 0,0 8.61645,-35.3683 8.61645,-35.3683 0,0 19.20862,-75.6149 19.20862,-75.6149 0,0 62.04082,-244.52887 62.04082,-244.52887 0,0 19.20862,-75.61491 19.20862,-75.61491 0,0 8.61645,-34.75846 8.61645,-34.75846 z"
       style="display:inline;fill:#333333;fill-opacity:1;stroke:none;stroke-opacity:1" />
  </g>
</svg>
