<?xml version="1.0" encoding="UTF-8" standalone="no"?>
<svg
   width="480"
   height="198.74948"
   viewBox="0 0 359.99956 149.06233"
   version="1.1"
   id="svg3"
   xmlns="http://www.w3.org/2000/svg"
   xmlns:svg="http://www.w3.org/2000/svg">
  <defs
     id="defs7" />
  <path
     id="rect902"
     style="display:inline;fill:#cccccc;fill-opacity:1;stroke:none;stroke-width:0.210937;paint-order:stroke fill markers;stop-color:#000000"
     d="M -0.00341426,0 V 149.06272 H 359.99711 V 0 Z M 50.902911,20.390655 h 25.453162 l 2.613285,9.421889 5.241219,18.703152 3.234379,11.531267 2.129886,7.171886 2.050785,-7.171886 4.820808,-16.593774 5.163585,-17.718776 1.10156,-3.796881 c 0.10406,-0.364217 0.27475,-1.189573 0.57568,-1.403322 0.2475,-0.175781 0.7537,-0.143555 1.05323,-0.143555 h 21.51566 c 0.2939,0 0.80544,-0.03222 1.0459,0.143555 0.22782,0.168749 0.32402,0.57926 0.40136,0.840821 l 0.60352,2.109379 2.89161,10.26564 12.4131,44.015689 4.68165,16.593775 1.04297,3.656255 c 0.12938,0.492186 0.24943,1.262698 0.71631,1.543948 0.3614,0.216561 1.7383,0.146368 2.21924,0.143555 l 2.25,-0.140626 h 49.0782 c 0.73969,-0.0014 1.4161,-0.03298 2.10938,-0.33252 3.58171,-1.545465 3.97939,-7.445236 1.50439,-10.208511 -1.20515,-1.345777 -2.89237,-1.549923 -4.59815,-1.552736 h -7.87501 l -2.39063,-0.140626 h -8.43751 l -2.10938,-0.140625 h -8.71876 l -1.96875,-0.140625 c -1.81969,-0.0084 -3.60704,-0.372249 -5.34376,-0.90381 -2.68593,-0.822654 -5.34798,-2.296181 -7.59376,-3.966803 -9.23201,-6.869516 -13.41283,-17.782743 -13.3594,-29.020062 l 0.12744,-1.546877 0.19336,-2.671879 c 0.84515,-6.606548 4.13616,-13.010133 8.83303,-17.705592 5.90905,-5.90905 13.9467,-9.417674 22.20559,-10.300797 l 3.23438,-0.259278 h 65.39072 l 2.10938,-0.140625 h 13.9219 c 0.26015,0 0.70846,-0.01928 0.94189,0.08057 0.46547,0.198281 1.2399,1.436781 1.57178,1.888186 l 3.51563,4.781257 10.43996,14.203146 3.51563,4.781257 1.81202,2.390629 5.10352,-7.312511 10.18361,-14.343771 3.39551,-4.781257 c 1.26,-1.759215 1.08786,-1.825315 2.41114,-1.828128 h 15.32814 l 2.10938,0.140625 h 14.90627 l -2.8125,4.218756 -5.70704,8.015637 -13.89992,19.546904 -4.91017,6.890635 -6.70167,9.421889 -1.70801,2.390628 -0.65478,1.265627 0.79541,1.406252 1.90723,2.671879 7.47511,10.546891 19.9468,28.125039 6.18751,8.71876 3.03516,4.50001 h -27.00004 l -2.39062,-0.14063 h -2.67188 c -0.28265,0 -0.71977,0.0163 -0.97852,-0.085 -0.53297,-0.20532 -1.37298,-1.51958 -1.73438,-2.02441 l -4.34034,-6.04689 -12.05128,-16.7344 -5.22364,-7.171881 -5.34083,7.875011 -11.3467,16.59377 -3.84668,5.62501 c -1.11094,1.61016 -1.06864,1.96594 -2.52833,1.96875 h -32.76567 c 0.37828,-0.89297 2.61329,-3.92907 3.31641,-4.92188 l 6.0044,-8.57814 19.27298,-27.562534 7.26857,-10.406265 1.87207,-2.671879 c 0.17156,-0.248906 0.70675,-0.919222 0.72363,-1.183596 0.0225,-0.338905 -0.47396,-0.927189 -0.66943,-1.207033 l -1.7417,-2.531254 -6.84376,-9.984389 -5.71583,-8.296887 c -0.38953,-0.565312 -1.44675,-2.357759 -1.99659,-2.588383 -0.24329,-0.10125 -0.69087,-0.0835 -0.95947,-0.0835 H 214.73128 196.45 l -2.10938,0.140625 h -16.59377 c -0.95766,0.0014 -1.80142,0.126505 -2.67188,0.561036 -4.24266,2.122026 -4.16952,8.919513 0.14062,10.924821 0.85922,0.399373 1.46251,0.466114 2.39063,0.473145 h 1.96875 l 1.68751,0.134766 h 6.75001 l 2.39063,0.140625 h 7.03126 l 2.10937,0.140625 h 6.75001 l 2.39063,0.140625 c 2.55093,0.03094 6.0933,1.188756 8.43751,2.19141 8.05358,3.445305 14.85472,10.727858 17.94144,18.902371 1.07015,2.8364 2.02312,7.098771 2.02734,10.125015 v 3.937506 c -0.003,1.754996 -0.40265,4.45501 -0.78515,6.18751 -2.2064,10.00404 -8.77317,18.1027 -17.918,22.67581 -3.24702,1.62281 -7.43767,3.1936 -11.10939,3.19923 h -26.71879 -12.23439 l -2.10938,0.14062 h -36.98443 c -0.29953,0 -0.80572,0.0322 -1.05322,-0.14355 -0.35578,-0.25312 -0.71632,-2.0263 -0.85694,-2.52833 l -2.32471,-8.71876 -6.60938,-24.750036 -2.1753,-8.156262 c -0.29531,-1.065936 -0.75188,-3.187977 -1.1836,-4.078131 l -1.14111,4.359382 -2.07129,7.734386 -4.12061,15.468771 -2.52833,9.42189 -2.29102,8.57814 c -0.14063,0.50203 -0.50115,2.27519 -0.85693,2.52832 -0.2475,0.17578 -0.7537,0.14356 -1.05323,0.14356 H 77.6217 l -0.783693,-2.81251 -2.250003,-8.01563 -5.444832,-19.406282 -3.313482,-11.812518 -1.70801,-5.906258 -2.301273,9.281263 -4.640632,18.843775 -3.164067,12.7969 -1.706545,7.17188 H 49.637284 L 47.38728,127.96894 H 26.57475 l -2.109378,-0.14063 h -0.703126 l 1.987796,-8.15626 4.429694,-17.43752 14.30715,-56.390713 4.429694,-17.437525 z" />
</svg>
