<?xml version="1.0" encoding="UTF-8" standalone="no"?>
<svg
   width="480"
   height="198.74948"
   viewBox="0 0 359.99956 149.06233"
   version="1.1"
   id="svg3"
   xmlns="http://www.w3.org/2000/svg"
   xmlns:svg="http://www.w3.org/2000/svg">
  <defs
     id="defs7" />
  <g
     id="g1789"
     transform="matrix(0.14062483,0,0,0.14062483,-0.00293774,0)">
    <rect
       style="display:inline;fill:#00000f;fill-opacity:1;stroke:none;stroke-width:1.5;paint-order:stroke fill markers;stop-color:#000000"
       id="rect902"
       width="2560.0068"
       height="1060"
       x="-0.00341845"
       y="0" />
    <path
       id="Selection"
       fill="none"
       stroke="black"
       stroke-width="1"
       d="m 362,145 c 0,0 181,0 181,0 0,0 18.58,67 18.58,67 0,0 37.27,133 37.27,133 0,0 23,82 23,82 0,0 15.15,51 15.15,51 0,0 14.58,-51 14.58,-51 0,0 34.28,-118 34.28,-118 0,0 36.72,-126 36.72,-126 0,0 7.84,-27 7.84,-27 0.74,-2.59 1.95,-8.46 4.09,-9.98 1.76,-1.25 5.36,-1.02 7.49,-1.02 0,0 153,0 153,0 2.09,0 5.73,-0.23 7.44,1.02 1.62,1.2 2.3,4.12 2.85,5.98 0,0 4.29,15 4.29,15 0,0 20.56,73 20.56,73 0,0 88.28,313 88.28,313 0,0 33.29,118 33.29,118 0,0 7.41,26 7.41,26 0.92,3.5 1.78,8.98 5.1,10.98 2.57,1.54 12.36,1.04 15.78,1.02 0,0 16,-1 16,-1 0,0 349,0 349,0 5.26,-0.01 10.07,-0.23 15,-2.36 25.47,-10.99 28.3,-52.95 10.7,-72.6 -8.57,-9.57 -20.57,-11.02 -32.7,-11.04 0,0 -56,0 -56,0 0,0 -17,-1 -17,-1 0,0 -60,0 -60,0 0,0 -15,-1 -15,-1 0,0 -62,0 -62,0 0,0 -14,-1 -14,-1 -12.94,-0.06 -25.65,-2.65 -38,-6.43 -19.1,-5.85 -38.03,-16.32 -54,-28.2 -65.65,-48.85 -95.38,-126.46 -95,-206.37 0,0 0.91,-11 0.91,-11 0,0 1.37,-19 1.37,-19 6.01,-46.98 29.41,-92.52 62.81,-125.91 42.02,-42.02 99.18,-66.97 157.91,-73.25 0,0 23,-1.84 23,-1.84 0,0 465,0 465,0 0,0 15,-1 15,-1 0,0 99,0 99,0 1.85,0 5.04,-0.14 6.7,0.57 3.31,1.41 8.82,10.22 11.18,13.43 0,0 25,34 25,34 0,0 74.24,101 74.24,101 0,0 25,34 25,34 0,0 12.88,17 12.88,17 0,0 36.29,-52 36.29,-52 0,0 72.42,-102 72.42,-102 0,0 24.15,-34 24.15,-34 8.96,-12.51 7.73,-12.98 17.14,-13 0,0 109,0 109,0 0,0 15,1 15,1 0,0 106,0 106,0 0,0 -20,30 -20,30 0,0 -40.58,57 -40.58,57 0,0 -98.84,139 -98.84,139 0,0 -34.92,49 -34.92,49 0,0 -47.66,67 -47.66,67 0,0 -12.14,17 -12.14,17 0,0 -4.66,9 -4.66,9 0,0 5.66,10 5.66,10 0,0 13.56,19 13.56,19 0,0 53.16,75 53.16,75 0,0 141.84,200 141.84,200 0,0 44,62 44,62 0,0 21.58,32 21.58,32 0,0 -192,0 -192,0 0,0 -17,-1 -17,-1 0,0 -19,0 -19,0 -2.01,0 -5.12,0.12 -6.96,-0.6 -3.79,-1.46 -9.76,-10.81 -12.33,-14.4 0,0 -30.86,-43 -30.86,-43 0,0 -85.7,-119 -85.7,-119 0,0 -37.15,-51 -37.15,-51 0,0 -37.98,56 -37.98,56 0,0 -80.69,118 -80.69,118 0,0 -27.35,40 -27.35,40 -7.9,11.45 -7.6,13.98 -17.98,14 0,0 -233,0 -233,0 2.69,-6.35 18.58,-27.94 23.58,-35 0,0 42.7,-61 42.7,-61 0,0 137.06,-196 137.06,-196 0,0 51.68,-74 51.68,-74 0,0 13.32,-19 13.32,-19 1.22,-1.77 5.02,-6.54 5.14,-8.42 0.16,-2.41 -3.37,-6.59 -4.76,-8.58 0,0 -12.38,-18 -12.38,-18 0,0 -48.67,-71 -48.67,-71 0,0 -40.65,-59 -40.65,-59 -2.77,-4.02 -10.29,-16.76 -14.2,-18.4 -1.73,-0.72 -4.91,-0.6 -6.82,-0.6 0,0 -229,0 -229,0 0,0 -130,0 -130,0 0,0 -15,1 -15,1 0,0 -118,0 -118,0 -6.81,0.01 -12.81,0.9 -19,3.99 -30.17,15.09 -29.65,63.43 1,77.69 6.11,2.84 10.4,3.31 17,3.36 0,0 14,0 14,0 0,0 12,0.96 12,0.96 0,0 48,0 48,0 0,0 17,1 17,1 0,0 50,0 50,0 0,0 15,1 15,1 0,0 48,0 48,0 0,0 17,1 17,1 18.14,0.22 43.33,8.45 60,15.58 57.27,24.5 105.63,76.29 127.58,134.42 7.61,20.17 14.39,50.48 14.42,72 0,0 0,28 0,28 -0.02,12.48 -2.86,31.68 -5.58,44 -15.69,71.14 -62.39,128.73 -127.42,161.25 -23.09,11.54 -52.89,22.71 -79,22.75 0,0 -190,0 -190,0 0,0 -87,0 -87,0 0,0 -15,1 -15,1 0,0 -263,0 -263,0 -2.13,0 -5.73,0.23 -7.49,-1.02 -2.53,-1.8 -5.09,-14.41 -6.09,-17.98 0,0 -16.54,-62 -16.54,-62 0,0 -47,-176 -47,-176 0,0 -15.46,-58 -15.46,-58 -2.1,-7.58 -5.35,-22.67 -8.42,-29 0,0 -8.12,31 -8.12,31 0,0 -14.73,55 -14.73,55 0,0 -29.3,110 -29.3,110 0,0 -17.98,67 -17.98,67 0,0 -16.29,61 -16.29,61 -1,3.57 -3.56,16.18 -6.09,17.98 -1.76,1.25 -5.36,1.02 -7.49,1.02 0,0 -166,0 -166,0 0,0 -5.58,-20 -5.58,-20 0,0 -16,-57 -16,-57 0,0 -38.71,-138 -38.71,-138 0,0 -23.57,-84 -23.57,-84 0,0 -12.14,-42 -12.14,-42 0,0 -16.37,66 -16.37,66 0,0 -33,134 -33,134 0,0 -22.5,91 -22.5,91 0,0 -12.13,51 -12.13,51 0,0 -19,0 -19,0 0,0 -16,-1 -16,-1 0,0 -148,0 -148,0 0,0 -15,-1 -15,-1 0,0 -5,0 -5,0 0,0 14.13,-58 14.13,-58 0,0 31.5,-124 31.5,-124 0,0 101.74,-401 101.74,-401 0,0 31.5,-124 31.5,-124 0,0 14.13,-57 14.13,-57 z"
       style="display:inline;fill:#ffffff;fill-opacity:1;stroke:none" />
  </g>
</svg>
