<?xml version="1.0" encoding="UTF-8" standalone="no"?>
<!-- Created with Inkscape (http://www.inkscape.org/) -->

<svg
   xmlns:dc="http://purl.org/dc/elements/1.1/"
   xmlns:cc="http://creativecommons.org/ns#"
   xmlns:rdf="http://www.w3.org/1999/02/22-rdf-syntax-ns#"
   xmlns:svg="http://www.w3.org/2000/svg"
   xmlns="http://www.w3.org/2000/svg"
   xmlns:sodipodi="http://sodipodi.sourceforge.net/DTD/sodipodi-0.dtd"
   xmlns:inkscape="http://www.inkscape.org/namespaces/inkscape"
   width="64"
   height="64"
   viewBox="0 0 16.933333 16.933333"
   version="1.1"
   id="svg889"
   sodipodi:docname="emulationstation.svg"
   inkscape:version="0.92.3 (2405546, 2018-03-11)">
  <defs
     id="defs883" />
  <sodipodi:namedview
     id="base"
     pagecolor="#ffffff"
     bordercolor="#666666"
     borderopacity="1.0"
     inkscape:pageopacity="0.0"
     inkscape:pageshadow="2"
     inkscape:zoom="2.8284272"
     inkscape:cx="7.1470215"
     inkscape:cy="7.4488367"
     inkscape:document-units="mm"
     inkscape:current-layer="g1089"
     showgrid="false"
     fit-margin-top="0"
     fit-margin-left="0"
     fit-margin-right="0"
     fit-margin-bottom="0"
     showguides="true"
     inkscape:guide-bbox="true"
     inkscape:window-width="1368"
     inkscape:window-height="719"
     inkscape:window-x="0"
     inkscape:window-y="25"
     inkscape:window-maximized="1"
     units="px" />
  <metadata
     id="metadata886">
    <rdf:RDF>
      <cc:Work
         rdf:about="">
        <dc:format>image/svg+xml</dc:format>
        <dc:type
           rdf:resource="http://purl.org/dc/dcmitype/StillImage" />
        <dc:title></dc:title>
      </cc:Work>
    </rdf:RDF>
  </metadata>
  <g
     inkscape:groupmode="layer"
     id="layer2"
     inkscape:label="vector"
     transform="translate(-26.69033,-38.597425)"
     style="display:inline">
    <g
       id="g1089"
       transform="matrix(3.0044508,0,0,2.7285806,-70.470467,-86.622789)">
      <path
         style="display:inline;fill:#ff0000;fill-opacity:0;stroke:none;stroke-width:0.26458332"
         inkscape:connector-curvature="0"
         id="icon_sh2"
         d="m 18.520835,56.318786 c 0.637646,-0.637646 1.539875,-1.648354 2.38125,-1.957917 0,0 6.085417,-0.423333 6.085417,-0.423333 -1.095375,1.531937 -2.870729,3.135312 -4.233333,4.497917 -0.682625,0.682625 -1.762125,1.897062 -2.645834,2.169583 -1.029229,0.433917 -4.191,0.214312 -5.291666,0 0.759354,-1.656292 2.44475,-3.026833 3.704166,-4.28625 z m -3.96875,11.4935 c 1.595438,0.608542 4.807479,0.41275 6.614584,0.41275 0,0 12.435416,0 12.435416,0 0,0 -3.96875,4.233333 -3.96875,4.233333 0,0 -2.38125,2.111375 -2.38125,2.111375 0,0 -2.116666,0.269875 -2.116666,0.269875 0,0 -16.1395835,0 -16.1395835,0 0,0 -8.46666704,-0.264583 -8.46666704,-0.264583 0,0 9.78958354,-10.054167 9.78958354,-10.054167 1.463146,1.04775 2.627312,2.677584 4.233333,3.291417 z" />
      <g
         id="g832"
         transform="matrix(0.08,0,0,0.08,32.344436,44.98606)">
        <path
           d="m 13.49272,25.312391 h 10.31875 32.279167 9.789583 c 1.000125,0 3.098271,-0.182563 3.854979,0.460375 0.751417,0.637646 0.640292,1.822979 0.642938,2.714625 v 35.983333 c -0.0053,3.521604 -0.693699,4.586807 -3.109345,7.002453 -2.492375,2.492375 -3.243298,3.36115 -6.878673,3.366442 h -35.2547 -10.7828 L 4.7614706,74.524891 C 3.6957734,74.489921 1.6975956,74.704807 0.85357483,74.064516 -0.10421688,73.342203 0.00161645,72.151578 -0.00102938,71.085307 v -35.71875 c 0.005292,-3.884083 0.94779621,-4.809985 3.57246288,-7.434652 1.27,-1.27 2.3436204,-1.915723 4.1004538,-2.479285 1.5028333,-0.248708 4.1909997,-0.140229 5.8208327,-0.140229 z"
           id="icon_base"
           inkscape:connector-curvature="0"
           style="display:inline;fill:#004e73;fill-opacity:1;stroke:none;stroke-width:0.26458332"
           sodipodi:nodetypes="sccscccscccscccscs" />
        <g
           id="g825">
          <path
             sodipodi:nodetypes="sccccccscccscccccscsccccscccccccccccsccsccccccscccscsccscc"
             style="display:inline;fill:#003e5c;fill-opacity:1;stroke:none;stroke-width:0.26458332"
             inkscape:connector-curvature="0"
             id="icon_sh1"
             d="m 25.664585,41.819619 c -0.931333,0.931333 -3.439583,3.685646 -4.497916,4.074583 -0.661459,0.243417 -3.12473,0.164042 -3.96875,0.15875 -0.738188,-0.0053 -1.672167,0.04763 -2.26748,-0.460375 -0.886354,-0.754062 -0.947208,-4.868333 -0.182562,-5.717646 0.701146,-0.780521 2.024062,-0.6985 2.979208,-0.701146 2.688167,-0.0053 8.321146,0.41275 10.583334,-0.529166 -0.306917,1.164166 -1.788584,2.31775 -2.645834,3.175 z m 9.525,1.322916 c 0.0053,2.971271 0.552979,3.701521 2.645834,5.820834 1.246187,1.259416 3.124729,3.346979 4.7625,3.971395 1.037166,0.39423 3.307291,0.261938 4.497916,0.261938 h 8.995834 c 0,5.061479 0.735541,6.831542 -2.645834,6.879167 -3.979333,0.05292 -14.2875,-0.304271 -17.4625,0.264583 0.515938,1.510771 1.277938,2.069042 2.38125,3.175 0.965729,0.968375 2.283354,2.415646 3.439584,3.07975 2.185458,1.251479 5.685895,0.889 8.202083,0.889 2.910417,0 4.082521,0.280458 6.879167,-0.79375 -1.053042,1.471083 -2.428875,2.693458 -3.704167,3.96875 -2.042583,2.042583 -2.521479,4.124393 -5.490104,4.129684 H 23.21719 c 1.063625,-1.484312 7.135812,-4.949892 8.532812,-6.307205 0.362479,-0.354541 2.19075,-1.293812 2.291292,-1.624541 0.259291,-0.841375 -1.722438,-2.508251 -2.291292,-3.077105 -1.037167,-1.037166 -2.391833,-2.537354 -3.704167,-3.16177 -1.725083,-0.820209 -5.889625,-0.542396 -7.9375,-0.542396 l 6.35,-6.614584 -5.291666,0.269875 -6.614584,5.815542 c -0.346604,-1.225021 -0.28575,-2.439458 -0.264583,-3.704167 0.04233,-2.291291 1.090083,-2.619375 3.175,-2.682875 h 7.14375 c 0.574146,0.03969 1.701271,0.142875 2.188104,0 1.280583,-0.661458 1.497542,-1.891771 1.516063,-3.137958 l -0.20373,-3.704167 c 0.254,-0.703791 1.738313,-2.06375 2.320396,-2.645833 l 5.027084,-5.027083 z m 18.520834,-1.322916 c -0.931334,0.931333 -3.439584,3.685646 -4.497917,4.074583 -0.650875,0.240771 -3.389313,0.171979 -4.233333,0.15875 -2.883959,-0.05556 -2.674938,-1.68275 -2.645834,-3.96875 0.01058,-0.717021 0.0053,-1.452562 0.460375,-2.055812 0.722313,-0.957792 1.912938,-0.851959 2.979209,-0.854605 2.688166,-0.0053 8.321145,0.41275 10.583333,-0.529166 -0.306917,1.164166 -1.788583,2.31775 -2.645833,3.175 z M 6.8791688,42.084202 v 14.816667 c 0.0079,4.402666 1.4578534,4.005791 3.7041662,7.14375 L 4.4979186,70.130035 C 3.2728977,71.355056 2.1113769,72.820848 0.52916853,73.569619 -0.34924811,71.460889 1.8633333e-6,67.494785 1.8633333e-6,65.102952 V 48.169619 C 0.00265186,47.468473 -0.05026914,46.695889 0.26987686,46.052952 0.64029353,45.314764 2.0134811,44.039473 2.6458352,43.407119 l 4.4979166,-4.497917 z" />
          <path
             sodipodi:nodetypes="sccsccscscccccccc"
             style="display:inline;fill:#00324a;fill-opacity:1;stroke:none;stroke-width:0.26426202"
             inkscape:connector-curvature="0"
             id="icon_sh2-3"
             d="m 17.991668,55.783839 c 0.637646,-0.636098 1.539875,-1.644353 2.38125,-1.953165 l 6.085417,-0.422305 c -1.095375,1.528219 -2.870729,3.127702 -4.233333,4.487 -0.682625,0.680968 -1.762125,1.892457 -2.645834,2.164317 -1.029229,0.432864 -4.191,0.213792 -5.291666,0 0.759354,-1.652272 2.44475,-3.019487 3.704166,-4.275847 z m -3.96875,11.465604 c 1.595438,0.607065 4.807479,0.411748 6.614584,0.411748 h 12.435416 l -3.96875,4.223058 -2.910417,2.904637 -1.058332,0.05073 c 0,0 -15.2796876,0.246923 -16.7679688,-0.05073 -3.679671,0.247122 -7.49168866,0.07195 -7.83828167,-1.219267 L 9.7895853,63.966014 c 1.4631457,1.045207 2.6273117,2.671085 4.2333327,3.283429 z" />
          <path
             style="fill:#ffffff;stroke:#ffffff;stroke-width:0.26458332"
             inkscape:connector-curvature="0"
             id="icon_text"
             d="m 25.664586,67.695869 c 0,0 -8.73125,0 -8.73125,0 -3.394605,-0.03969 -4.323292,-1.150938 -6.614584,-3.439583 -2.5902707,-2.590271 -3.6988749,-3.33375 -3.7041665,-7.14375 0,0 0,-11.641667 0,-11.641667 0,-1.653646 -0.1931459,-4.347104 0.3915833,-5.820833 0.7223125,-1.820334 2.2198542,-3.148542 3.5771672,-4.497917 2.225145,-2.214563 2.913062,-2.905125 6.085416,-2.910417 0,0 6.879167,0 6.879167,0 0,0 4.7625,0 4.7625,0 0,0 3.96875,0 3.96875,0 0.431271,0.0079 1.299104,-0.02381 1.542521,0.423334 0.34925,0.637645 -0.629709,1.550458 -1.018646,1.957916 -1.100667,1.150938 -3.415771,3.6195 -4.757208,4.2545 -1.12448,0.531813 -1.973792,0.505354 -3.175,0.508 0,0 -7.408334,0 -7.408334,0 -2.397125,0.0026 -3.402541,0.224896 -3.439583,2.910417 0,0 0,1.322917 0,1.322917 0.04763,2.537354 1.277937,2.643187 3.439583,2.645833 0,0 7.672917,0 7.672917,0 0.820208,0.01323 1.629833,0.0026 2.256896,0.642937 0.928687,0.973667 0.9525,4.915959 0,5.889625 -0.627063,0.656167 -1.415521,0.605896 -2.256896,0.611188 0,0 -7.9375,0 -7.9375,0 -0.894292,0.01323 -1.838854,0.04762 -2.532063,0.701146 -0.74877,0.706437 -0.642937,1.799166 -0.642937,2.738437 -0.0026,2.751667 0.261937,3.434292 3.175,3.439584 2.259542,0.0053 8.551333,-0.291042 10.31875,0.388937 1.838854,0.706438 2.878667,1.957917 4.233333,3.315229 1.103313,1.105959 1.865313,1.664229 2.38125,3.175 -1.955271,0.904875 -6.178021,0.529167 -8.466666,0.529167 z m 21.166666,-14.2875 c -1.280583,0 -3.643312,0.134937 -4.7625,-0.304271 -1.3335,-0.521229 -3.169708,-2.600854 -4.233333,-3.664479 -1.897063,-1.897063 -2.876021,-2.484437 -2.910417,-5.291667 -0.01323,-1.180041 -0.119062,-3.46075 0.256646,-4.497916 0.505354,-1.402292 1.627188,-2.413 2.653771,-3.439584 2.622021,-2.627312 3.264958,-3.963458 7.14375,-3.963458 0,0 14.816667,0 14.816667,0 0,0 1.053041,0 1.053041,0 2.651125,0.248708 -0.03175,2.672292 -0.788458,3.434292 -2.450042,2.46327 -3.294063,3.698875 -6.879167,3.704166 0,0 -7.408333,0 -7.408333,0 -0.899583,0.0026 -1.849438,-0.06879 -2.629958,0.460375 -0.42598,0.288396 -0.732896,0.648229 -0.915459,1.132417 -0.378354,0.992187 -0.291041,3.868208 0.484188,4.643438 0.738187,0.738187 1.838854,0.640291 2.796646,0.642937 0,0 7.408333,0 7.408333,0 3.246437,0.0053 3.823229,0.650875 6.085417,2.910417 1.436687,1.434041 3.442229,3.042708 3.98727,5.027083 0.304271,1.100667 0.259292,2.304521 0.246063,3.439583 -0.04233,3.331104 -1.489604,4.400021 -3.704167,6.614584 -2.629958,2.629958 -3.325812,3.434291 -7.14375,3.439583 -2.907771,0.0053 -8.739187,0.494771 -11.1125,-0.92075 -1.227666,-0.732896 -3.204104,-2.754313 -4.22275,-3.84175 -0.433916,-0.463021 -1.304396,-1.322917 -1.002771,-2.034646 0.306917,-0.724958 1.669521,-0.611187 2.315105,-0.611187 0,0 14.816666,0 14.816666,0 2.198688,-0.04233 2.632604,-0.846667 2.645834,-2.910417 0,0 0,-3.96875 0,-3.96875 0,0 -8.995834,0 -8.995834,0 z" />
        </g>
      </g>
    </g>
  </g>
</svg>
