<?xml version="1.0" encoding="UTF-8" standalone="no"?>
<svg
   width="256.00003"
   height="256"
   viewBox="0 0 192.02374 192.02396"
   version="1.1"
   id="svg6933"
   xmlns="http://www.w3.org/2000/svg"
   xmlns:svg="http://www.w3.org/2000/svg">
  <defs
     id="defs6937" />
  <g
     id="g8951"
     transform="translate(-6043.0053,-529.89962)">
    <g
       id="g9074"
       transform="matrix(0.05627851,0,0,0.05627851,5793.5205,594.31122)">
      <path
         d="m 4531.9999,596.11 h 51 96.9998 293.9997 c 14.1899,-0.09 30.3099,4.4 42.9999,10.65 39.43,19.39 63.9299,58.28 63.9999,102.24 v 299 c -0.07,46.07 -26.4099,86.99 -68.9999,105.15 -12.74,5.43 -27.1099,8.83 -40.9999,8.85 h -427.9995 c -49.2599,-0.08 -94.3199,-37.68 -105.8699,-85 -1.77,-7.26 -3.1199,-14.51 -3.1299,-22 V 703 c 0.06,-39.75 27.0099,-78.24 61.9999,-95.73 11.82,-5.91 23.0699,-8.73 35.9999,-11.16 z m 11,89.99 c -12.05,3.91 -15.94,13.17 -16,24.9 v 141 155 c 0.19,15.84 7.87,24.97 24,25 h 205.9997 177.9998 20 c 14.35,0 27.3,0.67 32.8999,-16 1.22,-3.66 1.09,-6.24 1.1,-10 V 760 722 c 0,-5.86 0.56,-15.74 -1.25,-21 -3.8499,-11.19 -12.8399,-14.98 -23.7499,-14.9 h -280.9997 -91.9998 z"
         style="fill:#b2b4b5;fill-opacity:1;stroke:none;stroke-width:1"
         id="path8926" />
      <path
         id="Selection"
         fill="none"
         stroke="#000000"
         stroke-width="1"
         d="m 6738,899 21,7.31 22,6.97 c 28.28,8.49 57.12,15.37 86,21.51 69.35,14.74 139.55,23.56 210,30.38 l 44,3.83 h 9 l 16,1 13,1 h 13 l 15,1 h 57 l 15,-1 25,-1.83 c 47.92,-4.79 102.3,-15.5 142,-44.32 27.19,-19.75 50.59,-50.82 51,-85.85 0.12,-10.41 0.53,-19.82 -2.16,-30 -8.77,-33.3 -37.79,-56.96 -65.84,-74.42 -42.88,-26.7 -94.09,-46.88 -141,-65.58 l -83,-31.05 C 7090.22,603.28 6967.77,556.71 6883,504.19 6822.35,466.61 6767.66,418.93 6747.43,348 c -6.58,-23.07 -7.7,-43.25 -7.43,-67 0.15,-12.14 3.15,-28.16 6.13,-40 C 6772.09,137.63 6878.47,80.84 6972,49.67 7039.74,27.09 7112.11,14.92 7183,7.83 l 49,-3.92 10,-0.91 20,-1.04 h 11 L 7283,1 h 28 l 17,-1 h 36 l 15,1 h 43 l 15,1 h 16 l 14,1.04 h 12 l 10,0.96 29,1.91 c 38.87,2.67 77.47,7.53 116,13.51 l 58,10 32,5.58 v 174 l -196,-43.39 c -37.26,-6.98 -74.31,-12.13 -112,-15.78 l -28,-1.92 -12,-0.91 -22,-1 h -47 l -15,1 -37,2.84 c -45.1,4.82 -96.73,15.92 -135,41.16 -10.82,7.14 -21.27,15.77 -29.33,26 -4.85,6.16 -8.7,12.74 -11.66,20 -16.61,40.79 10.21,80.27 41.99,104.11 23.03,17.27 48.92,30.25 75,42.2 38.48,17.62 78.28,32.21 118,46.74 105.71,38.67 245.88,85.12 343,137.64 74.91,40.51 152.58,92.08 178.28,178.31 7.89,26.49 10.04,50.55 9.72,78 -0.17,14.22 -3.7,35.25 -7.58,49 -3.76,13.31 -8.5,26.61 -14.69,39 -44.44,88.88 -145.22,136.18 -235.73,164.02 -73.52,22.62 -149.74,32.85 -226,40.15 l -40,2.92 -10,0.91 -28,1 -14,1 h -20 l -16,1 h -94 l -15,-1 h -27 l -17,-1 -35,-1 -17,-1 -22,-1 -26,-1.91 -45,-3.26 -125,-14.11 -72,-10.72 z M 5204,2 h 464 232 l 15,1 h 16 l 20,1 19,1 10,0.91 39,2.92 95,10.9 c 71.89,10.36 159.78,27.83 227,54.72 24.41,9.76 62.18,28.73 85,41.97 65.33,37.92 127.09,86.24 173.12,146.58 31,40.64 54.04,81.8 71.19,130 15.32,43.05 23.67,87.53 26.78,133 l 0.91,12 v 49 l -0.91,10 -5.84,52 c -11.18,67.08 -36.64,131.94 -75.27,188 -15,21.76 -31.69,41.92 -49.94,61 l -8.08,8.96 -8.96,8.08 c -57.95,55.42 -133.7,102.12 -208,132.36 -55.45,22.57 -117.17,36.41 -176,47.02 -56.87,10.26 -114.44,16.73 -172,20.67 l -54,2.91 -17,1 h -133 -585 z m -673,4.11 h 51 98 295 c 13.99,-0.09 30.49,4.49 43,10.65 39.25,19.3 63.93,58.44 64,102.24 v 300 c -0.08,48.59 -30.89,91.83 -77,107.33 -10.1,3.4 -20.3,5.65 -31,5.67 h -433 c -49.25,-0.08 -93.38,-37.94 -104.87,-85 -1.77,-7.26 -3.12,-14.51 -3.13,-22 V 113 c 0.06,-39.72 27.08,-78.27 62,-95.73 11.36,-5.68 23.54,-8.8 36,-11.16 z m 13,90.97 c -15.4,3.95 -16,13.71 -16,26.92 v 15 126 134 15 c 0,11.63 0.2,22.27 14,26.07 3.58,0.99 6.36,0.92 10,0.93 h 208 175 20 c 12.71,0 27.14,0.89 32.39,-14 1.47,-4.18 1.6,-8.63 1.61,-13 V 171 131 c 0,-6.98 0.61,-15.58 -2.41,-22 C 4981.9,99.04 4973,97.02 4963,97.08 h -278 -93 z M 5566,965 h 165 81 l 17,-1 17,-0.91 47,-3.93 c 74.24,-7.94 149.96,-25.91 217,-59.43 64.57,-32.29 122.38,-80.6 158.57,-143.73 22.13,-38.59 35.26,-77.21 42.51,-121 l 4.92,-42 1,-18 v -26 l -1,-19 -2.85,-28 C 6308.09,459.66 6295.3,416.91 6275.74,379 6248.93,327.03 6209,284.11 6161,251.02 6086.13,199.43 5991.55,172.55 5902,161.85 l -54,-4.89 -12,-0.96 -21,-1 h -95 -154 z"
         style="display:inline;fill:#000100;fill-opacity:1;stroke:none" />
    </g>
  </g>
</svg>
