<?xml version="1.0" encoding="UTF-8" standalone="no"?>
<!-- Created with Inkscape (http://www.inkscape.org/) -->

<svg
   width="256"
   height="256"
   viewBox="0 0 67.733332 67.733336"
   version="1.1"
   id="svg5"
   xmlns="http://www.w3.org/2000/svg"
   xmlns:svg="http://www.w3.org/2000/svg">
  <defs
     id="defs2">
    <filter
       style="color-interpolation-filters:sRGB;"
       id="filter6857"
       x="0"
       y="0"
       width="1"
       height="1">
      <feColorMatrix
         values="0.21 0.72 0.072 0 0 0.21 0.72 0.072 0 0 0.21 0.72 0.072 0 0 0 0 0 1 0 "
         id="feColorMatrix6855" />
    </filter>
  </defs>
  <g
     id="g1757"
     transform="matrix(0.20384486,0,0,0.20384486,-0.10243784,1.1616698)"
     style="filter:url(#filter6857);stroke:none">
    <path
       d="m 207.17809,163.70823 c 1.47108,-0.41804 5.38162,-0.2249 7.11993,-0.2249 h 14.02292 45.50833 c 4.29419,0.008 4.09046,1.14036 6.87917,3.96876 l 6.90298,7.40834 33.02529,35.18958 5.36046,5.82083 c 0.84137,0.93134 2.21456,2.12725 2.79135,3.175 0.82286,1.48696 0.41804,3.38138 -1.25412,4.03754 -0.58209,0.23019 -1.47902,0.1958 -2.11138,0.1958 h -40.48125 l -3.96875,0.26458 h -46.0375 -21.96041 c -2.00819,0 -6.05896,0.6641 -6.94796,-1.59279 -0.23019,-0.58209 -0.19579,-1.47902 -0.19579,-2.11138 v -3.70416 l -0.26459,-3.96875 v -36.24792 -8.73125 c 0.0212,-1.60602 0.16404,-2.58234 1.61132,-3.47928 z"
       style="fill:#888888;fill-opacity:1;stroke:none;stroke-width:1"
       id="path457" />
    <path
       d="m 299.75844,96.594022 h 10.05417 18.78541 c 0.53446,-0.05027 1.34409,-0.0635 1.85209,0 0.48948,0.140229 0.89693,0.301625 1.29381,0.613833 2.79135,2.198688 -0.75936,5.373685 -2.35479,7.008815 l -19.85169,20.90208 -15.08125,15.875 -5.02708,5.29167 -3.84705,3.96875 -4.32064,4.49791 c -2.41565,2.59292 -3.09298,4.49263 -6.90298,4.49792 h -26.9875 l -3.96875,-0.26458 h -28.04583 -6.08542 c -1.13771,-0.0159 -2.2516,-0.0688 -2.97921,-1.09273 -0.53446,-0.75142 -0.45773,-1.73567 -0.46037,-2.61144 v -32.01458 l 0.26458,-3.96875 v -8.73125 -9.525 c 0.003,-1.068919 -0.0714,-2.243669 0.6641,-3.116794 0.96044,-1.137708 2.4818,-1.113896 3.83382,-1.116542 h 59.53125 19.31458 z"
       style="display:inline;fill:#cccccc;fill-opacity:1;stroke:none;stroke-width:1;stroke-opacity:1"
       id="path423" />
    <path
       id="Selection"
       fill="none"
       stroke="#000000"
       stroke-width="1"
       d="m 135.22232,270.08006 -10.58334,2.67759 c -6.89504,1.63512 -13.86681,2.87073 -20.90208,3.7121 l -7.937499,0.77788 -2.64583,0.24077 -5.29167,0.26458 h -10.05417 l -3.43958,-0.26458 -9.26042,-0.75142 c -22.30966,-2.38654 -42.77783,-10.09121 -61.9124971,-21.63233 -6.574896,-3.96611 -12.819062,-8.56457 -18.7854159,-13.38792 l -11.641667,-10.24202 -3.175,-2.93423 -2.405063,-2.64583 C -44.027599,213.8561 -52.817057,201.18256 -59.693578,186.20715 -86.395328,128.05702 -75.102912,56.833831 -32.565849,9.2008935 l 6.392333,-6.876521 c 11.728979,-11.445875 25.21214591,-21.0634785 39.952084,-28.2442705 16.864543,-8.217959 35.861623,-13.329709 54.504163,-15.195021 l 9.26042,-0.748771 4.7625,-0.264583 h 8.99583 l 3.175,0.264583 h 2.38125 l 9.789589,1.214437 c 7.43479,1.246188 14.65791,3.069167 21.96041,4.905375 l 4.49792,1.190625 c 0.55298,0.142875 1.4949,0.336021 1.85473,0.812271 0.33073,0.439209 0.26194,1.394354 0.26194,1.931459 v 80.9625 l -11.90625,-5.437188 c -8.01159,-3.204104 -16.56557,-5.484812 -25.135419,-6.50875 l -5.02708,-0.489479 -6.08542,-0.264583 -4.23333,0.264583 -2.91042,0.240771 c -9.2075,0.672042 -19.43365,3.431646 -27.78125,7.373938 -11.30829,5.341937 -17.67152,10.580687 -26.458333,19.372788 -5.93725,5.9399 -11.808355,14.351 -15.404042,21.96042 -4.6513751,9.8425 -6.9479581,20.613693 -6.8209581,31.485423 l 0.275166,2.64583 v 2.38125 c 1.510771,15.49135 7.4850631,31.12029 17.0973751,43.39167 9.249832,11.80835 25.151292,23.41033 39.248292,28.72845 6.84477,2.57969 17.03917,5.12763 24.34167,5.13821 h 8.73125 l 5.02708,-0.48683 c 8.437559,-0.90223 16.692559,-3.22792 24.606249,-6.23888 l 6.87917,-2.88131 c 1.7436,-0.79904 3.41841,-1.83621 5.29166,-2.29923 v 43.92084 l 0.26459,3.96875 z"
       style="display:inline;fill:#cccccc;fill-opacity:1;stroke:none;stroke-opacity:1"
       transform="translate(74.577795,42.628272)" />
  </g>
</svg>
