<?xml version="1.0" encoding="UTF-8" standalone="no"?>
<!-- Generator: Adobe Illustrator 13.0.0, SVG Export Plug-In . SVG Version: 6.00 Build 14948)  -->

<svg
   version="1.2"
   id="Ebene_1"
   x="0px"
   y="0px"
   width="480"
   height="44.751076"
   viewBox="0 0 480.00001 44.751074"
   xml:space="preserve"
   xmlns="http://www.w3.org/2000/svg"
   xmlns:svg="http://www.w3.org/2000/svg"
   xmlns:ns="&amp;ns_sfw;"><defs
   id="defs326">
	
	
	
	
	
	
	
</defs>
<metadata
   id="metadata313">
	<ns:sfw>
		<ns:slices />
		<ns:sliceSourceBounds
   x="749.163"
   y="518.519"
   width="352.675"
   height="41.963"
   bottomLeftOrigin="true" />
	</ns:sfw>
</metadata>

<g
   id="g1268"
   style="fill:#cccccc;fill-opacity:1;stroke:none"
   transform="scale(2.01836)"><path
     id="path17"
     fill="#ffffff"
     d="m 150.7,7.6004988 h -3.961 V 18.964499 h 4.133 v -5.94 c 0,-1.549 0.948,-2.325 2.671,-2.325 1.721,0 2.153,0.517 2.238,1.979 h 3.876 c 0,-3.8740002 -0.517,-5.3380002 -4.65,-5.3380002 -2.498,0 -3.359,0.517 -4.306,2.411 z m 19.029,9.1270002 c -3.959,0 -4.563,-0.345 -4.563,-2.326 h 10.852 c -0.172,-5.5080002 -0.172,-6.8010002 -7.492,-6.8010002 -6.202,0 -7.58,1.119 -7.58,6.0270002 0,4.564 1.81,5.683 6.805,5.77 5.598,0 8.268,-0.259 8.268,-3.961 h -4.049 c -0.173,0.86 -0.516,1.291 -2.241,1.291 z m -4.648,-4.735 c 0.172,-1.206 0.516,-1.637 3.271,-1.637 3.016,0 3.445,0.173 3.617,1.637 z m -153.973,0.43 h 4.133 C 14.897,8.5464988 13.777,7.6004988 8.009,7.6004988 c -6.545,0 -8.009,1.031 -8.009,5.8550002 0,4.822 1.378,5.941 7.492,5.941 6.458,0 7.75,-0.861 7.75,-4.909 h -4.133 c 0,1.12 -0.43,1.638 -3.617,1.638 -2.756,0 -3.358,-0.688 -3.358,-2.928 0,-2.153 0.602,-2.153 3.876,-2.153 2.409,0 2.839,0.259 3.098,1.378 z m 96.017,0.687 c 0,-4.6490002 -1.377,-5.5950002 -8.009,-5.5950002 -7.147,0 -8.007,1.205 -8.007,6.0260002 0,4.823 1.204,5.856 8.007,5.856 7.235,0.001 8.009,-1.204 8.009,-6.287 z m -11.797,0.261 c 0,-2.326 0.517,-2.583 3.531,-2.583 3.358,0 3.96,0.085 3.96,2.583 0,2.325 -0.431,2.756 -3.617,2.756 -3.444,0 -3.874,-0.346 -3.874,-2.756 z m 48.911,-0.261 c 0,-4.6490002 -1.292,-5.5950002 -7.92,-5.5950002 -7.062,0 -7.923,1.117 -7.923,5.9410002 0,4.908 1.205,5.941 7.923,5.941 7.231,0.001 7.92,-1.204 7.92,-6.287 z m -11.71,0.261 c 0,-2.326 0.516,-2.583 3.53,-2.583 3.359,0 3.961,0.085 3.961,2.583 0,2.325 -0.43,2.756 -3.616,2.756 -3.443,0 -3.875,-0.346 -3.875,-2.756 z m -98.945,-0.261 c 0,-4.6490002 -1.292,-5.5950002 -7.922,-5.5950002 -7.147,0 -8.009,1.117 -8.009,5.9410002 0,4.908 1.207,5.941 8.009,5.941 7.234,0.001 7.922,-1.204 7.922,-6.287 z m -11.627,0.261 c 0,-2.326 0.517,-2.583 3.446,-2.583 3.358,0 3.961,0.085 3.961,2.583 0,2.325 -0.432,2.756 -3.617,2.756 -3.36,0 -3.79,-0.346 -3.79,-2.756 z M 121.506,2.7764998 v 6.630999 c -0.947,-1.292 -1.808,-1.979 -5.252,-1.979 -5.511,0 -6.545,1.464 -6.545,5.9410002 0,4.565 1.465,5.854 6.803,5.854 3.359,0 4.392,-0.86 5.167,-2.324 v 2.063 h 4.134 V 2.7744998 Z m -3.014,7.9239992 c 2.324,0 3.101,0.344 3.101,2.151 0,2.757 -0.174,3.018 -3.444,3.018 -3.273,0 -4.134,-0.089 -4.134,-2.413 0,-2.67 1.033,-2.756 4.477,-2.756 z M 40.128,7.6004988 H 36.254 V 18.964499 h 4.133 v -5.855 c 0,-1.721 0.861,-2.323 3.187,-2.323 2.153,0 2.756,0.774 2.756,2.927 v 5.251 h 4.219 v -6.026 c 0,-1.636 1.291,-2.152 3.271,-2.152 1.895,0 2.756,0.517 2.756,2.152 v 6.026 h 4.133 v -6.716 c 0,-3.3560002 -2.067,-4.9080002 -5.855,-4.9080002 -3.273,0 -4.479,1.206 -4.91,2.497 -0.861,-1.464 -2.066,-2.497 -5.339,-2.497 -3.1,0 -3.961,1.033 -4.478,2.9280002 z m 27.815,0 H 64.068 V 18.964499 h 4.133 v -5.855 c 0,-1.721 1.033,-2.323 3.099,-2.323 2.154,0 2.756,0.689 2.756,2.927 v 5.251 h 4.221 v -6.026 c 0,-1.636 1.206,-2.152 3.187,-2.152 1.894,0 2.84,0.602 2.84,2.152 v 6.026 h 4.134 v -6.716 c 0,-3.3560002 -2.066,-4.9080002 -5.855,-4.9080002 -3.272,0 -4.393,1.119 -4.908,2.497 -0.862,-1.464 -2.068,-2.497 -5.34,-2.497 -3.013,0 -3.788,1.033 -4.391,2.9280002 z"
     style="display:inline;fill:#cccccc;fill-opacity:1;stroke:none" /><path
     d="m 208.04184,16.338999 c 0,3.889 -3.418,5.833 -10.258,5.833 h -3.5 c -3.854,0 -6.525,-0.666 -8.018,-1.993 -1.494,-1.33 -2.238,-3.632 -2.238,-6.906 V 8.8689988 c 0,-3.253999 0.744,-5.544999 2.238,-6.874999 1.492,-1.33 4.164,-1.9939998 8.018,-1.9939998 h 3.5 c 3.176,0 5.564,0.4259998 7.164,1.2799998 1.602,0.854 2.402,2.103 2.402,3.75 v 1.578 h -8.223 v -0.565 c 0,-0.516 -0.148,-0.854 -0.447,-1.013 -0.299,-0.158 -0.896,-0.239 -1.791,-0.239 h -1.955 c -1.111,0 -1.824,0.09 -2.135,0.269 -0.314,0.178 -0.469,0.604 -0.469,1.279 v 3.033999 c 1.191,-0.654 2.672,-0.98 4.438,-0.98 h 2.889 c 2.904,0 5.027,0.491 6.371,1.472 1.342,0.9820002 2.014,2.4960002 2.014,4.5390002 z m 29.775,1.517 h -3.5 v 4.048 h -8.221 v -4.048 h -14.857 l 0.041,-5.892 11.764,-11.6959992 h 11.273 V 13.064999 h 3.5 z m -11.72,-4.791 V 5.8939998 l -7.123,7.1709992 z m -26.276,2.946 v -1.576 c 0,-0.558 -0.184,-0.909 -0.551,-1.058 -0.365,-0.147 -1.16,-0.224 -2.381,-0.224 h -1.586 c -1.223,0 -2.023,0.069 -2.402,0.21 -0.381,0.137 -0.57,0.494 -0.57,1.07 v 1.576 c 0,0.597 0.189,0.969 0.57,1.115 0.379,0.148 1.18,0.225 2.402,0.225 h 1.586 c 1.248,0 2.049,-0.075 2.402,-0.225 0.352,-0.144 0.53,-0.516 0.53,-1.113 z"
     style="display:inline;fill:#cccccc;fill-opacity:1;stroke:none"
     id="path1171" /></g></svg>
