<?xml version="1.0" encoding="UTF-8" standalone="no"?>
<!-- Created with Inkscape (http://www.inkscape.org/) -->

<svg
   version="1.1"
   id="svg2"
   width="255.99986"
   height="256"
   viewBox="0 0 255.99986 255.99999"
   xmlns="http://www.w3.org/2000/svg"
   xmlns:svg="http://www.w3.org/2000/svg">
  <defs
     id="defs6" />
  <g
     id="g8"
     transform="translate(-1202.8926,-625.6234)">
    <path
       style="fill:#000000;stroke-width:0.128301"
       d="m 1256.3279,819.69379 c -11.7118,-2.44436 -22.6726,-7.9796 -31.3055,-15.80948 -12.5718,-11.40232 -20.0848,-26.27302 -21.8963,-43.33997 -0.2777,-2.61586 -0.3169,-9.70618 -0.068,-12.25276 0.8711,-8.90684 3.1405,-16.82699 7.0157,-24.48415 7.2402,-14.30645 19.7422,-25.80737 34.5146,-31.75079 6.962,-2.80104 13.5164,-4.28436 21.1053,-4.77634 3.1424,-0.20373 130.7132,-0.098 132.4709,0.10977 5.2299,0.61825 8.2559,1.19558 12.2528,2.33775 7.7833,2.22418 14.9792,5.78522 21.4904,10.63491 17.4842,13.02263 27.5024,33.54736 26.964,55.24201 -0.085,3.42786 -0.1903,4.78427 -0.6066,7.82638 -1.686,12.31888 -7.1482,24.49966 -15.2235,33.94904 -6.038,7.06532 -13.2593,12.7106 -21.398,16.72787 -5.3333,2.63256 -10.4391,4.3822 -16.4566,5.63929 l -1.5737,0.32876 h -11.5348 -11.5347 l -1.6462,-0.32726 c -12.4639,-2.47778 -23.9359,-8.4501 -33.2415,-17.30553 l -1.1549,-1.09918 h -13.6543 -13.6542 l -0.4422,0.46486 c -0.6852,0.72049 -3.6362,3.3375 -5.061,4.48825 -8.2017,6.62434 -18.0578,11.25427 -28.4921,13.38413 l -1.9338,0.39473 -11.602,-0.0104 -11.6019,-0.0104 z m 16.4867,-16.29582 c 10.2926,-0.71628 19.4111,-4.18812 27.4565,-10.454 2.707,-2.10832 6.0133,-5.3864 8.0535,-7.98483 l 0.9275,-1.18127 21.6187,-0.003 21.6188,-0.003 1.0264,1.30393 c 1.4183,1.80181 4.8133,5.26201 6.7211,6.85037 6.486,5.39969 13.8177,8.93538 21.9171,10.56943 7.8124,1.57614 15.6971,1.27431 23.3719,-0.89472 8.6451,-2.44323 16.7516,-7.45291 22.831,-14.10912 3.2434,-3.55116 5.5433,-6.89423 7.7261,-11.23043 2.6666,-5.29744 4.1459,-10.1628 4.944,-16.26093 0.3151,-2.4076 0.3853,-7.76537 0.1359,-10.3674 -0.9451,-9.85751 -4.5431,-18.78736 -10.6342,-26.39269 -1.5222,-1.90054 -4.4783,-4.96884 -6.319,-6.55861 -3.2274,-2.78757 -7.173,-5.37198 -10.9019,-7.14083 -5.0824,-2.41086 -10.1026,-3.83764 -16.1054,-4.57729 -1.9872,-0.24485 -130.5183,-0.24479 -132.5993,6e-5 -11.3353,1.33369 -21.2173,5.95957 -29.1089,13.62632 -4.1899,4.07049 -7.2642,8.25206 -9.81,13.34332 -2.3509,4.70163 -3.7206,8.83716 -4.568,13.79238 -0.5428,3.17405 -0.6466,4.55551 -0.6409,8.53202 0.01,4.17861 0.2012,6.19341 0.9593,9.89989 3.2766,16.01995 14.4538,29.42987 29.7611,35.70616 6.6831,2.74022 14.5497,4.0263 21.6187,3.53434 z m -9.144,-19.83003 c -1.7493,-0.47095 -2.9175,-1.55469 -3.4819,-3.23023 -0.2606,-0.77355 -0.2684,-1.02245 -0.2684,-8.56297 v -7.76627 h -7.6069 c -8.1223,0 -8.3594,-0.016 -9.6015,-0.64973 -0.7892,-0.40257 -1.6245,-1.3171 -2.0785,-2.27544 l -0.4073,-0.85971 v -6.15846 -6.15846 l 0.4137,-0.84539 c 0.4982,-1.01816 1.4172,-1.92142 2.4451,-2.40318 l 0.7336,-0.34386 8.0464,-0.0358 8.0463,-0.0358 0.037,-8.04721 0.037,-8.0472 0.3439,-0.73363 c 0.4801,-1.02451 1.381,-1.94212 2.3985,-2.44294 l 0.8448,-0.41586 h 6.2252 6.2252 l 0.8555,0.41852 c 1.3386,0.6548 2.3259,1.91046 2.6678,3.39312 0.076,0.32966 0.1283,3.62528 0.1302,8.21289 l 0.01,7.6623 8.0509,0.0358 8.0509,0.0358 0.7217,0.33868 c 1.3609,0.63862 2.3673,1.83403 2.7361,3.2499 0.1642,0.6305 0.1988,1.69586 0.1988,6.1188 0,3.47654 -0.051,5.59391 -0.1443,6.03528 -0.3956,1.86466 -1.7485,3.26108 -3.6355,3.75245 -0.6495,0.16913 -1.9106,0.19912 -8.3716,0.19912 h -7.607 v 7.56346 c 0,5.11141 -0.047,7.78387 -0.1443,8.24334 -0.3929,1.8518 -1.7615,3.26448 -3.6354,3.75245 -1.073,0.27941 -11.1908,0.27957 -12.2284,0 z m 126.9215,0.0806 c -4.625,-0.74062 -7.9942,-4.34796 -8.4601,-9.05823 -0.174,-1.7586 0.3812,-4.13693 1.3522,-5.7918 0.7064,-1.20412 2.5591,-2.96813 3.775,-3.59433 1.565,-0.80597 2.5933,-1.08327 4.2981,-1.159 1.2228,-0.0543 1.6732,-0.0185 2.6302,0.20937 3.45,0.82141 6.0058,3.16948 7.2036,6.61801 0.3249,0.93534 0.3569,1.19149 0.3613,2.88678 0.01,1.60053 -0.037,1.99476 -0.2957,2.82262 -1.0705,3.4265 -3.7569,6.02346 -7.0833,6.84752 -1.0151,0.25148 -2.8978,0.36055 -3.7813,0.21906 z m -19.7584,-19.75821 c -5.3569,-0.85918 -9.1192,-5.79688 -8.403,-11.02802 0.2958,-2.16009 1.1321,-3.91506 2.6192,-5.49582 2.0501,-2.17925 4.5891,-3.20973 7.583,-3.07756 1.6537,0.073 2.5697,0.30005 3.9773,0.98583 2.4019,1.17019 4.2389,3.33287 5.0689,5.96773 0.4326,1.3731 0.4952,3.63197 0.1415,5.1106 -0.6772,2.83155 -2.6165,5.28425 -5.1783,6.54923 -0.6527,0.3223 -1.5621,0.67457 -2.0207,0.78285 -1.0234,0.24157 -2.9204,0.34432 -3.7879,0.20516 z m 39.5167,-10e-5 c -5.3556,-0.85761 -9.1191,-5.79679 -8.4029,-11.02785 0.2958,-2.16009 1.1321,-3.91506 2.6192,-5.49582 2.05,-2.17926 4.589,-3.20974 7.583,-3.07756 1.6537,0.073 2.5697,0.30005 3.9773,0.98582 2.4019,1.1702 4.2388,3.33287 5.0689,5.96773 0.3915,1.24267 0.4907,3.63002 0.2026,4.87545 -0.4809,2.07946 -1.2539,3.45204 -2.8209,5.00938 -0.9837,0.97755 -1.3597,1.25385 -2.3865,1.7538 -0.6703,0.32639 -1.6142,0.68882 -2.0975,0.80539 -1.0392,0.25068 -2.8383,0.34857 -3.7432,0.20366 z m -19.7583,-19.75841 c -4.625,-0.74062 -7.9942,-4.34797 -8.4601,-9.05823 -0.174,-1.7586 0.3812,-4.13693 1.3522,-5.7918 0.7057,-1.20294 2.559,-2.96789 3.775,-3.5952 1.7642,-0.91008 2.6837,-1.13132 4.683,-1.12679 2.0059,0.005 2.8435,0.18692 4.4264,0.9638 2.4929,1.22347 4.4149,3.56308 5.1601,6.28129 0.3584,1.30769 0.3216,4.00036 -0.072,5.26036 -1.0758,3.44327 -3.7544,6.0225 -7.1214,6.85707 -1.0304,0.25539 -2.8283,0.35601 -3.7432,0.2095 z"
       id="path293" />
  </g>
</svg>
