<?xml version="1.0" encoding="UTF-8" standalone="no"?>
<!-- Created with Inkscape (http://www.inkscape.org/) -->

<svg
   version="1.1"
   id="svg2"
   width="480.00003"
   height="249.19757"
   viewBox="0 0 480.00002 249.19756"
   xmlns="http://www.w3.org/2000/svg"
   xmlns:svg="http://www.w3.org/2000/svg">
  <defs
     id="defs6" />
  <g
     id="g8"
     transform="translate(-1090.8926,-567.4773)">
    <path
       style="fill:#000000;stroke-width:0.240564"
       d="m 1191.0838,815.95807 c -21.9597,-4.58317 -42.5111,-14.96176 -58.6978,-29.64277 -23.5721,-21.37936 -37.659,-49.26193 -41.0556,-81.26245 -0.5207,-4.90475 -0.5942,-18.1991 -0.1272,-22.97393 1.6334,-16.70033 5.8886,-31.5506 13.1545,-45.90779 13.5753,-26.82459 37.0166,-48.38881 64.7149,-59.53272 13.0537,-5.25195 25.3432,-8.03318 39.5724,-8.95565 5.892,-0.38198 245.0873,-0.18376 248.383,0.20583 9.8061,1.15921 15.4797,2.2417 22.9739,4.38327 14.5938,4.17035 28.0861,10.84729 40.2946,19.94046 32.7828,24.41743 51.567,62.9013 50.5574,103.57878 -0.1595,6.42724 -0.3567,8.97051 -1.1373,14.67445 -3.1613,23.0979 -13.4028,45.93687 -28.5441,63.65446 -11.3212,13.24747 -24.8612,23.83237 -40.1212,31.36476 -10,4.93605 -19.5734,8.21663 -30.8562,10.57367 l -2.9507,0.61642 h -21.6276 -21.6276 l -3.0866,-0.61361 c -23.3699,-4.64583 -44.8798,-15.84394 -62.3278,-32.44788 l -2.1656,-2.06096 h -25.6017 -25.6017 l -0.829,0.87162 c -1.2849,1.35092 -6.818,6.25781 -9.4894,8.41546 -15.3782,12.42064 -33.8585,21.10176 -53.4228,25.09525 l -3.6259,0.74012 -21.7536,-0.0195 -21.7537,-0.0195 z m 30.9125,-30.55467 c 19.2987,-1.34303 36.3958,-7.85273 51.4809,-19.60124 5.0757,-3.9531 11.2751,-10.09951 15.1004,-14.97156 l 1.7391,-2.21488 40.5351,-0.006 40.5352,-0.006 1.9245,2.44487 c 2.6593,3.37839 9.0249,9.86627 12.6021,12.84444 12.1612,10.12442 25.9081,16.75383 41.0945,19.81768 14.6482,2.95526 29.4321,2.38933 43.8224,-1.6776 16.2095,-4.58106 31.4092,-13.97421 42.8081,-26.4546 6.0814,-6.65842 10.3937,-12.92669 14.4863,-21.05705 4.9999,-9.9327 7.7736,-19.05526 9.2701,-30.48926 0.5908,-4.51425 0.7225,-14.56006 0.2548,-19.43886 -1.772,-18.48284 -8.5183,-35.22631 -19.9392,-49.48631 -2.854,-3.5635 -8.3968,-9.31656 -11.848,-12.29738 -6.0514,-5.2267 -13.4495,-10.07248 -20.4412,-13.38906 -9.5295,-4.52036 -18.9423,-7.19558 -30.1976,-8.58242 -3.7259,-0.45909 -244.7217,-0.45898 -248.6236,1.1e-4 -21.2538,2.50067 -39.7824,11.1742 -54.5792,25.54935 -7.8561,7.63216 -13.6204,15.47262 -18.3937,25.01873 -4.4081,8.81555 -6.9763,16.56968 -8.5651,25.8607 -1.0178,5.95136 -1.2123,8.54159 -1.2017,15.99755 0.011,7.8349 0.3773,11.61264 1.7987,18.5623 6.1436,30.03739 27.1008,55.181 55.802,66.94905 12.5308,5.1379 27.2807,7.5493 40.5351,6.62689 z m -17.145,-37.18131 c -3.2799,-0.88303 -5.4702,-2.91504 -6.5285,-6.05667 -0.4886,-1.45041 -0.5032,-1.91709 -0.5032,-16.05558 v -14.56175 h -14.2631 c -15.2293,0 -15.6738,-0.0301 -18.0028,-1.21825 -1.4796,-0.75481 -3.0459,-2.46956 -3.8972,-4.26645 l -0.7636,-1.61196 v -11.5471 -11.54711 l 0.7756,-1.58511 c 0.9342,-1.90905 2.6574,-3.60267 4.5846,-4.50597 l 1.3756,-0.64473 15.0869,-0.0671 15.0868,-0.0671 0.069,-15.08851 0.069,-15.08851 0.6448,-1.37556 c 0.9003,-1.92095 2.5895,-3.64146 4.4972,-4.58051 l 1.584,-0.77974 h 11.6723 11.6723 l 1.6041,0.78473 c 2.5098,1.22775 4.3609,3.58211 5.0021,6.36211 0.1426,0.6181 0.2405,6.79739 0.244,15.39916 l 0.01,14.36681 15.0955,0.0671 15.0954,0.0671 1.3532,0.63502 c 2.5516,1.19742 4.4386,3.4388 5.1301,6.09357 0.3079,1.18219 0.3728,3.17973 0.3728,11.47275 0,6.5185 -0.095,10.48858 -0.2705,11.31614 -0.7418,3.49624 -3.2785,6.11454 -6.8166,7.03585 -1.2178,0.31711 -3.5824,0.37335 -15.6968,0.37335 h -14.2631 v 14.18148 c 0,9.58391 -0.088,14.59476 -0.2705,15.45628 -0.7367,3.47212 -3.3029,6.1209 -6.8165,7.03584 -2.0118,0.52388 -20.9826,0.52419 -22.9282,0 z m 237.9778,0.15117 c -8.6719,-1.38866 -14.9891,-8.15243 -15.8627,-16.98418 -0.3262,-3.29737 0.7149,-7.75675 2.5354,-10.85962 1.3245,-2.25774 4.7984,-5.56525 7.0782,-6.73938 2.9343,-1.5112 4.8625,-2.03113 8.0589,-2.17313 2.2927,-0.10185 3.1373,-0.0346 4.9316,0.39258 6.4688,1.54014 11.261,5.94277 13.5068,12.40877 0.6091,1.75375 0.6692,2.23404 0.6774,5.41271 0.01,3.00099 -0.07,3.74018 -0.5545,5.29242 -2.0071,6.42468 -7.0441,11.29397 -13.2811,12.8391 -1.9034,0.47152 -5.4334,0.67603 -7.09,0.41073 z m -37.047,-37.04665 c -10.0441,-1.61095 -17.0985,-10.86914 -15.7555,-20.67753 0.5546,-4.05017 2.1227,-7.34074 4.9109,-10.30467 3.8439,-4.08609 8.6046,-6.01825 14.2181,-5.77043 3.1008,0.13689 4.8183,0.5626 7.4575,1.84843 4.5036,2.19412 7.9479,6.24914 9.5042,11.1895 0.8111,2.57456 0.9284,6.80994 0.2653,9.58238 -1.2697,5.30915 -4.9059,9.90796 -9.7094,12.27981 -1.2238,0.6043 -2.9288,1.26482 -3.7888,1.46783 -1.9188,0.45295 -5.4756,0.6456 -7.1023,0.38468 z m 74.0939,-1.8e-4 c -10.0418,-1.60802 -17.0984,-10.86899 -15.7554,-20.67722 0.5545,-4.05018 2.1227,-7.34074 4.9109,-10.30467 3.8438,-4.0861 8.6045,-6.01825 14.2181,-5.77043 3.1007,0.13689 4.8182,0.5626 7.4575,1.84843 4.5035,2.19411 7.9478,6.24913 9.5042,11.18949 0.734,2.33001 0.92,6.80628 0.3799,9.14146 -0.9018,3.89899 -2.3511,6.47258 -5.2893,9.3926 -1.8443,1.8329 -2.5493,2.35096 -4.4746,3.28837 -1.2569,0.61198 -3.0267,1.29153 -3.9328,1.5101 -1.9485,0.47003 -5.3218,0.65357 -7.0185,0.38187 z m -37.0469,-37.04702 c -8.6719,-1.38866 -14.9891,-8.15244 -15.8627,-16.98418 -0.3262,-3.29738 0.7149,-7.75675 2.5354,-10.85963 1.3232,-2.25552 4.7981,-5.56479 7.0782,-6.74101 3.3079,-1.7064 5.0319,-2.12121 8.7806,-2.11272 3.761,0.009 5.3315,0.35047 8.2995,1.80713 4.6742,2.294 8.2779,6.68076 9.6751,11.77742 0.6721,2.45191 0.603,7.50067 -0.135,9.86316 -2.017,6.45614 -7.0394,11.2922 -13.3526,12.85702 -1.9319,0.47885 -5.303,0.66752 -7.0185,0.39281 z"
       id="path293" />
  </g>
</svg>
