<?xml version="1.0" encoding="UTF-8" standalone="no"?>
<!-- Created with Inkscape (http://www.inkscape.org/) -->

<svg
   version="1.1"
   width="256"
   height="256"
   id="svg2"
   xmlns="http://www.w3.org/2000/svg"
   xmlns:svg="http://www.w3.org/2000/svg">
  <defs
     id="defs6" />
  <g
     id="g452"
     transform="matrix(1.6534891,0,0,1.6534891,18.434248,1.978051e-6)"
     style="fill:#cccccc">
    <path
       d="M 0,0.01758115 32.284769,154.81891 64.403968,0.01758115 H 47.01987 L 32.284769,87.020892 17.384107,0.01758115 Z"
       id="path2952"
       style="fill:#cccccc;fill-opacity:1;stroke:none;stroke-width:1.73899" />
    <path
       d="M 80.357143,-1.1962891e-6 V 154.82412 H 115.2999 c 16.2189,-4.22186 17.22683,-15.75956 17.22683,-15.75956 0,0 -0.0256,-41.353964 -0.0256,-52.043756 -1.21781,-6.747615 -6.76735,-6.973092 -6.76735,-6.973092 0,0 -0.0207,-1.884522 0,-3.369286 6.13215,-0.468292 6.79291,-7.118975 6.79291,-7.118975 0,0 -0.0256,-41.312475 0,-52.006559 C 129.87657,4.9229821 115.2999,-1.1962891e-6 115.2999,-1.1962891e-6 Z M 97.801352,17.661579 H 115.2999 V 69.559451 H 97.801352 Z m -0.0543,67.603092 H 115.29994 V 139.06456 H 97.747092 Z"
       id="path3669"
       style="fill:#cccccc;fill-opacity:1;stroke:none;stroke-width:1.73899" />
  </g>
</svg>
